<?xml version="1.0" encoding="UTF-8" standalone="no"?>
<!-- Created with Inkscape (http://www.inkscape.org/) -->

<svg
   version="1.1"
   id="svg2708"
   width="425.13846"
   height="447.48273"
   viewBox="0 0 425.13846 447.48273"
   sodipodi:docname="fruit-bowl-1c.svg"
   inkscape:version="1.2.2 (732a01da63, 2022-12-09, custom)"
   xmlns:inkscape="http://www.inkscape.org/namespaces/inkscape"
   xmlns:sodipodi="http://sodipodi.sourceforge.net/DTD/sodipodi-0.dtd"
   xmlns="http://www.w3.org/2000/svg"
   xmlns:svg="http://www.w3.org/2000/svg">
  <defs
     id="defs2712" />
  <sodipodi:namedview
     id="namedview2710"
     pagecolor="#ffffff"
     bordercolor="#000000"
     borderopacity="0.25"
     inkscape:showpageshadow="2"
     inkscape:pageopacity="0.0"
     inkscape:pagecheckerboard="0"
     inkscape:deskcolor="#d1d1d1"
     showgrid="false"
     inkscape:zoom="1.0181848"
     inkscape:cx="322.14191"
     inkscape:cy="349.64183"
     inkscape:window-width="1920"
     inkscape:window-height="1031"
     inkscape:window-x="0"
     inkscape:window-y="25"
     inkscape:window-maximized="1"
     inkscape:current-layer="layer1" />
  <g
     inkscape:groupmode="layer"
     id="layer1"
     inkscape:label="Layer 1"
     transform="translate(220.46074,233.48274)">
    <path
       style="fill:#000000;stroke-width:2.16946"
       d="m -130.8901,206.75054 c 0,-8.00448 3.26428,-11.98282 20.82195,-25.37677 6.74833,-5.14799 14.554872,-8.99564 20.026593,-9.87059 4.931974,-0.78866 10.081454,-2.77648 11.443288,-4.41739 1.361833,-1.64092 4.645862,-2.98347 7.297842,-2.98347 6.634799,0 12.766914,-7.19113 10.967268,-12.86133 -1.209774,-3.81166 -3.197394,-4.49439 -13.084292,-4.49439 -6.411803,0 -12.076511,-0.73219 -12.588242,-1.6271 -0.511729,-0.8949 -1.604508,-11.14562 -2.428397,-22.77938 l -1.49798,-21.15227 h 14.503601 14.503599 l -1.389292,-6.946478 c -1.583302,-7.916484 -9.101911,-16.904337 -14.175127,-16.945123 -1.880117,-0.01519 -9.169461,-2.943876 -16.198539,-6.508393 -7.02908,-3.564496 -14.537472,-6.480907 -16.685312,-6.480907 -2.14785,0 -4.50853,-0.976259 -5.24598,-2.169464 -0.73744,-1.193206 -3.26634,-2.169465 -5.61978,-2.169465 -2.35344,0 -4.84092,-1.464388 -5.52774,-3.254196 -0.68681,-1.789809 -2.85275,-3.283029 -4.8132,-3.318261 -1.96045,-0.03523 -10.8864,-4.914315 -19.83544,-10.842398 -8.94904,-5.928062 -17.24724,-10.838103 -18.44045,-10.911192 -2.61231,-0.159889 -24.65403,-26.0373704 -29.41704,-34.5361175 -1.8609,-3.3204522 -5.86375,-8.9848585 -8.89521,-12.5875365 -3.36227,-3.99585 -6.06263,-10.569458 -6.92433,-16.85624 -0.77692,-5.668232 -2.25655,-11.380632 -3.28808,-12.694216 -5.0056,-6.374351 -3.93728,-14.4513 3.40041,-25.708343 5.84901,-8.973203 7.19065,-12.91907 6.32001,-18.587651 -1.13873,-7.414065 1.519,-16.044899 6.94488,-22.553109 1.7038,-2.04367 2.45634,-5.38744 1.6723,-7.4306 -0.78403,-2.04316 -0.23558,-10.79653 1.21879,-19.45194 2.27052,-13.51265 3.43146,-16.10132 8.21316,-18.31373 3.06287,-1.41713 7.26407,-3.43897 9.33599,-4.49296 7.51977,-3.82534 12.32883,-1.81762 21.39217,8.93097 7.11252,8.43502 10.55017,10.84732 15.45802,10.84732 7.64603,0 14.70402,-3.48553 14.70402,-7.26147 0,-1.52343 3.17285,-5.15005 7.05076,-8.05916 6.37971,-4.78587 9.50004,-5.35872 32.785175,-6.01889 20.744982,-0.58816 25.547362,-0.16753 24.769651,2.16946 -0.530621,1.59449 -4.858243,4.36347 -9.616942,6.15327 -4.758696,1.78981 -11.233461,4.96265 -14.388363,7.05076 -3.154903,2.08811 -6.834371,3.79657 -8.176597,3.79657 -1.342226,0 -4.061284,1.96371 -6.042354,4.36381 -1.98107,2.4001 -7.01885,6.17696 -11.19507,8.39302 -5.96606,3.16581 -7.59313,5.35745 -7.59313,10.22782 0,4.82887 1.33766,6.66906 6.05334,8.32748 7.26817,2.55607 17.425009,-2.49268 18.466959,-9.17955 1.046892,-6.71856 19.731047,-15.56406 36.105445,-17.09313 l 14.220782,-1.32795 v -8.22292 c 0,-4.5226 -1.000195,-10.85362 -2.222654,-14.06893 l -2.222655,-5.84602 11.014623,1.05836 c 8.975053,0.86239 10.792634,0.47987 9.815781,-2.06577 -0.659365,-1.71827 -1.198844,-6.86223 -1.198844,-11.43102 0,-7.66626 -0.711072,-8.63151 -9.220224,-12.51597 -5.071123,-2.315 -14.045391,-5.60587 -19.942816,-7.31306 -10.669806,-3.0887 -10.701519,-3.125 -6.441899,-7.37414 2.354381,-2.34859 5.535055,-6.76614 7.068161,-9.81678 1.533108,-3.05064 6.94325,-7.81681 12.022534,-10.59148 l 9.235064,-5.04487 10.843651,7.62182 c 5.964012,4.19201 14.191576,8.32254 18.2834684,9.17896 16.7237293,3.50022 29.3776736,8.43573 33.4734056,13.05588 2.386411,2.69197 9.93862,9.40766 16.782695,14.92375 9.296329,7.49252 14.298073,10.02926 19.774973,10.02926 4.117795,0 9.821968,1.95922 13.013706,4.46984 7.992199,6.28666 19.043994,7.63924 27.588924,3.37647 8.64641,-4.3134 14.80135,-4.48925 16.34484,-0.46697 0.64168,1.67223 2.98715,3.51647 5.21211,4.09831 2.58811,0.6768 4.57022,3.85529 5.50222,8.82329 1.70418,9.08403 7.5216,16.57995 12.86733,16.57995 2.07113,0 8.65196,-4.39316 14.62404,-9.76259 11.25913,-10.12291 18.691,-12.18947 23.40587,-6.50839 1.48541,1.78981 4.35661,3.25419 6.38044,3.25419 2.02383,0 5.13434,3.07153 6.91224,6.82563 2.80952,5.93235 2.83823,8.37393 0.21936,18.6565 -2.82586,11.09525 -2.75362,12.01271 1.16172,14.75513 2.29623,1.60834 5.88463,7.40097 7.97424,12.87251 3.48761,9.132182 3.52319,10.638252 0.43367,18.359665 -2.77752,6.941705 -2.94858,10.653646 -0.97908,21.244147 2.45204,13.185101 1.0023,28.776435 -2.6757,28.776435 -1.13915,0 -2.07117,1.97879 -2.07117,4.397331 0,9.238664 -44.81851,60.419803 -53.15188,60.697538 -1.19321,0.0397 -5.95971,3.380525 -10.59226,7.423886 -4.63254,4.043361 -12.19855,9.054195 -16.81335,11.135188 -4.6148,2.080994 -8.39055,4.611609 -8.39055,5.623578 0,1.01199 -1.06074,1.839988 -2.35717,1.839988 -1.29645,0 -6.421812,2.74281 -11.38969,6.095132 -4.9679,3.352322 -13.698303,9.209876 -19.400914,13.016787 -5.887471,3.93031 -13.173791,6.921655 -16.859863,6.921655 -8.991389,0 -13.293654,8.765743 -7.463891,15.207556 3.079859,3.403214 5.567801,4.076574 11.175194,3.024624 12.317677,-2.310806 13.039415,-1.16231 11.382898,18.1136 -2.218104,25.81061 -2.746932,26.84224 -12.925561,25.2146 -6.686419,-1.0692 -8.783315,-0.60676 -9.849694,2.17217 -2.045805,5.33131 0.928379,14.40616 5.143822,15.6948 2.052552,0.62747 8.613208,3.45055 14.579235,6.27351 5.966028,2.82295 14.752359,6.41686 19.525181,7.98647 4.772822,1.5696 10.961223,5.53855 13.751993,8.81987 2.7908,3.28131 6.04773,5.96602 7.23764,5.96602 3.80962,0 16.976,13.83112 16.976,17.83311 0,3.65915 -6.76559,3.86154 -129.0831422,3.86154 H -130.8901 Z"
       id="path3189" />
    <path
       style="fill:#ffcc00;stroke-width:2.16946"
       d="m 99.176035,197.83853 c -5.983926,-6.36957 -18.92745,-12.59391 -33.729598,-16.22 -22.238681,-5.44781 -32.659097,-17.10681 -29.990004,-33.55457 1.500575,-9.24699 3.568747,-10.9643 12.552066,-10.42275 9.3336,0.56269 12.171997,-2.00912 13.549173,-12.27659 0.902389,-6.7279 0.451509,-9.04856 -1.791609,-9.22114 -1.648619,-0.12691 -4.461872,-0.44797 -6.25168,-0.71364 -1.789809,-0.26567 -4.892924,-0.65002 -6.895795,-0.85412 -6.926645,-0.70584 -10.459921,-6.77641 -10.459921,-17.971367 0,-10.517325 0.252937,-10.939221 10.304956,-17.187886 5.667726,-3.523254 10.793086,-6.288887 11.389689,-6.145854 1.228849,0.294635 27.311518,-16.417228 68.536378,-43.913086 20.06913,-13.385574 31.88442,-23.0662021 41.69589,-34.162731 7.5301,-8.516363 13.07959,-16.47372 12.33221,-17.683023 -0.90145,-1.458596 -64.14681,-2.17517 -187.8895928,-2.128766 -146.9115572,0.05511 -186.1774272,0.635936 -184.8674072,2.734741 0.91482,1.465646 1.95769,4.558066 2.31749,6.872017 0.3598,2.313951 4.04902,7.6020207 8.19826,11.7512517 4.14924,4.14925272 7.54407,8.8457529 7.54407,10.436708 0,1.5909334 0.75643,2.8926123 1.68096,2.8926123 0.92452,0 7.36077,5.371073 14.30278,11.935699 6.942,6.564648 13.50751,11.388322 14.59002,10.719303 1.08251,-0.669042 1.96821,-0.01953 1.96821,1.44265 0,1.462501 0.60435,2.054722 1.343,1.316084 0.73865,-0.738659 2.81705,0.131036 4.61866,1.932646 1.80161,1.80161 4.53337,2.793034 6.07058,2.203134 1.53721,-0.589877 3.35695,0.392109 4.04388,2.1822 0.68692,1.790112 2.2321,2.647094 3.43373,1.904464 1.20164,-0.742651 2.18479,-0.401763 2.18479,0.757555 0,1.159297 7.07788,4.773799 15.72862,8.032204 8.65074,3.258384 16.906177,6.844682 18.345415,7.96955 1.439238,1.124867 3.635821,1.415402 4.881295,0.645654 1.245474,-0.769748 2.264498,-0.308042 2.264498,1.026005 0,1.334047 0.892876,1.873701 1.984171,1.199258 1.091292,-0.674465 2.311616,-0.333382 2.71183,0.757968 0.400212,1.091327 2.659907,2.317725 5.021542,2.725346 7.02152,1.211863 20.288557,17.100739 21.812968,26.12365 1.756134,10.394473 0.896215,11.552053 -11.685957,15.731173 -12.616358,4.1905 -19.844554,10.44914 -19.844554,17.18273 0,4.20373 1.588282,5.28434 10.238976,6.96624 8.112756,1.5773 11.266325,3.52147 15.186252,9.36228 5.885863,8.77012 6.205016,14.79253 1.326102,25.02373 -3.4305,7.19383 -13.692392,14.24817 -20.726705,14.24817 -4.573121,0 -23.515136,6.29143 -30.973463,10.28758 -6.47559,3.46958 -9.66601,6.67662 -9.72937,9.77997 -0.0182,0.8949 48.949902,1.6271 108.8181604,1.6271 H 104.16841 Z"
       id="path3216" />
    <path
       style="fill:#deaa87;stroke-width:2.16946"
       d="m -92.888406,-43.330971 c -1.864657,-2.84583 -2.662428,-5.174234 -1.772824,-5.174234 0.889607,0 -0.56861,-1.531186 -3.240479,-3.402636 -2.671871,-1.871449 -4.202641,-4.462937 -3.401711,-5.758863 0.82797,-1.339692 0.45559,-1.737799 -0.86315,-0.922775 -1.27565,0.788399 -2.64711,0.45022 -3.04769,-0.751507 -0.40057,-1.201725 -6.09991,-2.427587 -12.6652,-2.724136 -10.95895,-0.495008 -12.61832,0.08279 -20.25451,7.052734 -7.13694,6.514245 -10.21294,7.745893 -21.66968,8.676648 -10.62684,0.863332 -13.50355,1.882195 -14.09427,4.991846 -0.69628,3.665402 1.89145,3.884845 41.8288,3.547136 l 42.571001,-0.359982 z"
       id="path3218" />
    <path
       style="fill:#ffaaaa;stroke-width:2.16946"
       d="m 144.63189,-38.7135 c 0,-0.58059 -3.43064,-2.489027 -7.62363,-4.240972 -4.19299,-1.751944 -8.27433,-4.937887 -9.06964,-7.079873 -2.97982,-8.025513 -9.07778,-11.093785 -21.34848,-10.741794 -8.341681,0.239288 -12.153539,-0.549347 -12.970516,-2.683462 -0.636369,-1.66229 -1.772431,-2.406928 -2.524606,-1.654755 -0.752175,0.752175 -4.211039,-1.607818 -7.686391,-5.244429 -5.768563,-6.036261 -14.139658,-7.908956 -13.260114,-2.966417 0.402609,2.262478 -12.751114,2.267264 -40.238186,0.01475 -16.194684,-1.327187 -18.033804,-1.107889 -16.838212,2.007803 0.738225,1.923749 0.472227,2.96005 -0.591071,2.302889 -1.063319,-0.657159 -2.9655276,1.766217 -4.2271363,5.385279 -1.673655,4.801085 -1.6401802,6.176127 0.1238765,5.085886 3.1856418,-1.968834 0.2977156,3.081646 -5.3582953,9.370746 -2.36586615,2.630682 -3.71145482,6.280259 -2.99954504,8.135492 1.13042114,2.945725 10.20980414,3.364473 72.95154114,3.364473 39.413225,0 71.660405,-0.475028 71.660405,-1.055618 z"
       id="path3222" />
    <path
       style="fill:#ff0000;stroke-width:2.16946"
       d="m -11.98366,-46.438308 c 12.39471492,-11.90995 15.8773129,-20.118115 15.3568584,-36.19471 -0.3218835,-9.942795 -1.4881659,-14.495056 -4.3852688,-17.11691 -2.1707228,-1.964472 -3.4240441,-4.417562 -2.7851585,-5.451292 0.6388856,-1.03374 -0.034972,-1.87953 -1.4974729,-1.87953 -1.4625011,0 -2.0413359,-0.61773 -1.2863406,-1.37274 2.2723405,-2.27234 -8.9381936,-9.79175 -16.3367336,-10.95777 -3.799503,-0.59881 -7.925854,-2.35051 -9.169669,-3.89267 -3.798472,-4.70957 -23.201403,-5.89544 -37.124365,-2.26897 -12.278362,3.19811 -25.871925,12.82892 -23.507484,16.65467 0.624593,1.01062 0.10175,1.83748 -1.161874,1.83748 -1.45396,0 -2.2975,7.481838 -2.2975,20.377808 0,16.901204 0.608164,20.611179 3.564708,21.745712 1.96059,0.752348 3.043234,1.88938 2.405875,2.526738 -2.120055,2.120055 13.924801,15.880437 21.389415,18.343981 4.043289,1.334407 7.351434,3.355712 7.351434,4.491794 0,1.183184 8.724977,1.93509 20.42382,1.760095 l 20.423812,-0.305506 z"
       id="path3220" />
    <path
       style="fill:#00ff00;stroke-width:2.16946"
       d="m -22.25781,-135.28378 c 1.105733,0 2.0104,-2.44065 2.0104,-5.42367 0,-2.98301 -0.867786,-5.42366 -1.928416,-5.42366 -1.060625,0 -1.792819,-1.59384 -1.627096,-3.54187 0.165723,-1.94803 -1.163074,-3.79791 -2.952882,-4.11085 -1.789808,-0.31293 -4.718585,-0.91567 -6.508393,-1.33942 -2.451031,-0.58029 -3.254197,1.23731 -3.254197,7.36441 0,4.47417 0.732194,8.13514 1.627098,8.13549 0.894904,3.5e-4 1.627099,1.11333 1.627099,2.4733 0,1.35996 1.708453,3.73509 3.796562,5.27807 3.147505,2.32579 3.91648,2.27396 4.498003,-0.3032 0.385792,-1.70973 1.606116,-3.1086 2.711822,-3.1086 z"
       id="path3252" />
    <path
       style="fill:#ffff00;stroke-width:2.16946"
       d="m 67.615902,-84.212601 c 8.952187,-3.232958 13.921627,-6.217844 12.955196,-7.781535 -0.549027,-0.888344 0.522429,-2.1987 2.38103,-2.911905 1.858581,-0.713205 2.83484,-2.177594 2.169465,-3.254197 -0.665396,-1.076603 0.232545,-2.510932 1.995365,-3.187392 1.811568,-0.69516 2.651563,-2.67263 1.93193,-4.54797 -0.742933,-1.93605 0.170737,-3.87214 2.193567,-4.64838 1.906764,-0.73169 2.926694,-2.20431 2.266526,-3.27249 -0.660168,-1.06817 -0.197074,-1.94213 1.029108,-1.94213 1.226181,0 1.606011,-1.62454 0.844095,-3.61009 -0.761938,-1.98555 -0.484203,-3.05316 0.617169,-2.37247 1.101372,0.68069 2.168987,-3.0642 2.372483,-8.32197 0.207271,-5.35545 -0.613351,-9.55958 -1.865935,-9.55958 -1.229761,0 -1.711165,-1.36749 -1.069784,-3.03887 1.51895,-3.95835 -20.585658,-17.70761 -35.670422,-22.1873 -12.836961,-3.81217 -27.289629,-13.16786 -40.042848,-25.92109 -5.18118,-5.18118 -13.053386,-10.22106 -19.04737775,-12.19436 -9.84908685,-3.24245 -10.30241815,-3.20264 -12.60888425,1.10705 -1.315889,2.45873 -4.21297,6.42446 -6.437973,8.81273 -4.816367,5.16975 -5.275643,11.86613 -0.92827,13.53437 1.714463,0.65791 2.640412,2.43871 2.05765,3.95734 -1.196959,3.11925 7.2548196,18.57441 10.1575848,18.57441 1.0378935,0 1.2636913,1.62454 0.5017754,3.61009 -1.0123589,2.63816 -0.6027423,3.12642 1.5214888,1.81357 2.1242312,-1.31285 2.5338478,-0.82459 1.5214889,1.81358 -0.7619159,1.98554 -0.3820861,3.61008 0.8440952,3.61008 1.2261814,0 1.6746965,0.89756 0.9967171,1.99456 -0.678001,1.09701 0.075064,3.30231 1.67339477,4.90067 1.59835293,1.59836 2.50221693,4.11771 2.00859873,5.59856 -0.4936183,1.48086 0.1791977,2.69246 1.4951949,2.69246 1.3480836,0 1.9764039,2.29566 1.4392011,5.2582 -0.6040223,3.33098 0.2259714,5.7108 2.2645304,6.49307 1.7699359,0.67918 2.5528957,2.31112 1.7399105,3.62653 -1.5371523,2.48716 2.8372254,12.72668 6.6233314,15.50385 1.195093,0.876635 1.289422,1.608829 0.209571,1.627101 -1.07983,0.01822 -0.217164,1.962716 1.917047,4.320992 2.134211,2.358273 4.750346,3.750097 5.813644,3.09294 1.063298,-0.657157 1.665021,0.05367 1.337171,1.579646 -0.327871,1.52596 0.380134,2.833798 1.573339,2.906305 1.193206,0.0725 3.389789,0.906693 4.881295,1.853747 1.491507,0.947052 3.620641,1.160243 4.731386,0.473757 1.110765,-0.686486 2.483451,-0.500036 3.050397,0.414331 1.26816,2.045191 22.60057,1.732779 28.556748,-0.41821 z"
       id="path3240" />
    <path
       style="fill:#a05a2c;stroke-width:2.16946"
       d="m -20.658893,-204.08074 c -0.760918,-3.86567 -9.282939,-10.47558 -15.973305,-12.38935 -2.449002,-0.70053 -6.317188,0.0896 -8.595967,1.75591 -3.508018,2.56513 -3.702341,3.56086 -1.267479,6.49468 1.581665,1.90579 3.741397,2.93008 4.799404,2.2762 1.058007,-0.65389 1.923649,-0.0974 1.923649,1.23665 0,1.33405 0.873962,1.8854 1.942137,1.22523 1.068177,-0.66017 2.525669,0.32035 3.238874,2.17893 0.713205,1.85859 2.279892,2.77162 3.481524,2.02897 1.201634,-0.74265 2.184788,-0.28205 2.184788,1.02356 0,1.71286 1.244571,1.70775 4.469812,-0.0184 2.458394,-1.31569 4.166847,-3.93129 3.796563,-5.81244 z"
       id="path3256" />
    <path
       id="path3254"
       style="display:inline;fill:#ff6600;stroke-width:2.16946"
       d="m 107.77754,-165.65657 c -2.54205,0 -4.0187,0.97671 -3.28125,2.16992 0.73744,1.1932 0.30659,2.16993 -0.95703,2.16993 -4.201448,0 -2.38041,3.64957 5.52734,11.08398 4.30309,4.0455 9.40194,9.06424 11.33008,11.15234 4.04642,4.38214 11.23465,5.07863 11.1836,1.08399 -0.0195,-1.4915 -2.94727,-6.01704 -6.50782,-10.05664 -3.56055,-4.03961 -6.47461,-8.25826 -6.47461,-9.375 0,-3.61051 -6.07276,-8.22852 -10.82031,-8.22852 z m -215.00195,11.57422 c -9.51981,0.35153 -23.66602,13.65152 -23.66602,23.0293 0,3.55816 4.55654,2.6776 8.42383,-1.62891 1.92977,-2.14893 6.97761,-5.52059 11.2168,-7.49219 7.88233,-3.66597 17.31757,-12.3232 13.781248,-12.64453 -1.079837,-0.0981 -4.644448,-0.61772 -7.919918,-1.15625 -0.58798,-0.0967 -1.20129,-0.13085 -1.83594,-0.10742 z" />
    <path
       id="path3248"
       style="display:inline;fill:#0000ff;stroke-width:2.16946"
       d="m -175.72636,-149.76399 c -3.74316,-0.0524 -7.69054,1.31269 -11.01563,4.07227 -3.9583,3.28508 -3.51051,20.59876 0.5918,22.89453 5.44938,3.04962 16.70516,1.25395 19.26953,-3.07422 5.22309,-8.8156 5.22978,-15.52902 0.0195,-20.42383 -2.41873,-2.27228 -5.56246,-3.4225 -8.86523,-3.46875 z m 347.36718,2.45703 c -0.61149,0.006 -1.24206,0.0307 -1.89258,0.0742 -6.18277,0.41328 -9.59445,2.05596 -12.4746,6.00977 -3.60669,4.95118 -3.67122,6.00265 -0.72266,11.65625 1.78252,3.41783 3.24655,7.53903 3.25391,9.1582 0.009,1.76733 1.35962,2.42796 3.38085,1.65234 1.85177,-0.7106 2.81925,-0.40646 2.1504,0.67578 -0.67666,1.09485 2.80676,1.66742 7.85351,1.29102 7.56606,-0.5643 9.19707,-1.50909 9.83594,-5.69531 0.42124,-2.76015 1.96246,-5.77665 3.42383,-6.70508 2.01174,-1.27809 1.93612,-1.69751 -0.3086,-1.72266 -1.97981,-0.0222 -2.62287,-1.81693 -1.9375,-5.40234 1.34029,-7.01114 -3.39004,-11.08358 -12.5625,-10.99219 z m -314.61718,19.01953 c -0.68747,-0.009 -1.43152,0.017 -2.23633,0.0742 -4.05017,0.28786 -7.36479,1.25549 -7.36719,2.15039 -0.002,0.8949 -1.14416,1.38229 -2.53711,1.08399 -1.39294,-0.2983 -3.50131,2.68177 -4.68555,6.62304 -1.64469,5.47367 -1.36675,8.81805 1.18164,14.16211 4.58558,9.616048 13.76483,10.367995 21.97461,1.79883 5.25564,-5.4857 5.64513,-6.86725 3.51172,-12.47852 -1.31936,-3.47019 -2.45541,-6.79793 -2.52344,-7.39453 -0.47961,-4.20561 -2.50607,-5.95447 -7.31835,-6.01953 z m 277.77148,4 c -1.16729,-0.001 -2.66728,0.35948 -4.67188,1.06446 -5.46759,1.92284 -6.15936,3.29241 -6.80859,13.48046 -0.69733,10.942798 0.26253,12.608019 6.67383,11.595707 0.8949,-0.141301 1.62695,0.720859 1.62695,1.914063 0,3.060801 13.78051,2.705802 16.92188,-0.435547 3.99736,-3.997363 3.09222,-13.635173 -1.68555,-17.958983 -2.35827,-2.13421 -3.6708,-4.87761 -2.91797,-6.0957 0.82724,-1.33848 0.28138,-1.54176 -1.3789,-0.51563 -1.59237,0.98412 -3.50404,0.47252 -4.54688,-1.21484 -0.76194,-1.23284 -1.71209,-1.83207 -3.21289,-1.83399 z m -324.40625,13.51563 c -4.51899,0.179 -7.87474,5.69587 -7.43164,12.994138 0.24952,4.109825 1.18076,8.647818 2.06836,10.083984 2.5217,4.080192 10.54313,6.337717 14.72851,4.144532 2.08811,-1.09419 3.81389,-1.223995 3.83399,-0.28711 0.0202,0.936884 2.09018,-1.503814 4.60156,-5.425781 4.23033,-6.606422 4.30854,-7.417179 1.04492,-11.023433 -1.93748,-2.14088 -2.9868,-4.42921 -2.33203,-5.08399 0.65478,-0.65477 -1.54008,-1.8421 -4.87695,-2.63867 -3.33688,-0.79656 -7.67239,-1.92346 -9.63477,-2.50391 -0.68536,-0.20272 -1.35638,-0.28533 -2.00195,-0.25976 z m 369.96289,5.86133 c -4.13424,0 -7.51758,0.97477 -7.51758,2.16796 0,1.19321 -0.73204,2.05537 -1.62695,1.91407 -8.20837,-1.29606 -8.66842,12.220283 -0.70508,20.693356 5.8345,6.20796 8.27083,6.717985 13.40625,2.806641 1.91449,-1.458137 4.18098,-4.857232 5.03711,-7.554688 0.85614,-2.697458 2.29735,-4.447258 3.20117,-3.888672 2.45022,1.514314 1.4137,-5.674594 -1.62304,-11.257817 -1.96463,-3.61201 -4.60966,-4.88085 -10.17188,-4.88085 z m -78.00977,6.67773 c -3.4774,0.01747 -6.28521,1.704543 -9.33398,5.210937 -4.556174,5.240061 -4.471801,11.97461 0.150391,11.97461 1.264406,0 1.645736,0.6531 0.847656,1.451172 -0.798058,0.798073 -0.05303,2.994223 1.654297,4.880859 4.020014,4.44207 15.294906,4.410182 19.761716,-0.05664 5.13146,-5.131444 2.26788,-18.021415 -4.71093,-21.201171 -3.29641,-1.501943 -5.98987,-2.271719 -8.36915,-2.259767 z m -223.64453,1.005859 c -4.0629,0.06516 -8.09105,1.665274 -11.21484,4.789063 -5.77345,5.773451 -6.10588,8.319715 -1.43164,10.935547 1.89671,1.061457 3.36081,2.818353 3.25391,3.904297 -0.10691,1.085942 0.69918,1.974609 1.79296,1.974609 1.09377,0 2.75159,0.763303 3.6836,1.695312 0.93201,0.932011 3.21037,1.08103 5.0625,0.332032 1.85214,-0.748997 4.34391,-1.609063 5.53711,-1.910157 10.98328,-2.771511 12.89228,-9.736095 4.73828,-17.292968 -3.26016,-3.021414 -7.35897,-4.492889 -11.42188,-4.427735 z m 265.77735,9.671875 c -5.04541,0 -8.52149,1.032475 -8.52149,2.53125 0,1.39207 -0.64262,1.888634 -1.42773,1.103516 -0.78513,-0.785117 -2.73661,-0.340673 -4.33789,0.988281 -4.01501,3.332162 -3.77277,16.876764 0.33008,18.451172 1.78294,0.684183 2.76995,2.006476 2.19336,2.939453 -0.57662,0.932977 0.59193,3.027593 2.59765,4.654297 3.12975,2.538334 3.42415,2.495967 2.06641,-0.296875 -0.87013,-1.789806 -0.33064,-1.545138 1.19922,0.542969 3.09833,4.228879 14.73437,5.228419 14.73437,1.265625 0,-1.392071 0.60509,-1.92615 1.34375,-1.1875 2.00126,2.001261 8.38279,-5.126615 8.66602,-9.679688 0.13539,-2.176302 -0.56577,-3.957031 -1.5586,-3.957031 -0.99284,0 -1.31244,-1.286801 -0.70898,-2.859375 0.60345,-1.572576 -0.9612,-5.477493 -3.47852,-8.677734 -3.57687,-4.547246 -6.43899,-5.81836 -13.09765,-5.81836 z m -297.63477,3.527344 c -1.9067,-0.03089 -3.83932,0.820456 -6.97656,2.652344 -5.187,3.028769 -6.59125,5.37961 -6.74609,11.296875 -0.26045,9.952604 1.0029,12.90242 6.46484,15.109375 7.42283,2.999284 11.89898,2.397894 16.51172,-2.214844 4.45787,-4.457871 6.0686,-17.355469 2.16797,-17.355469 -1.19321,0 -1.92526,-1.139245 -1.62696,-2.533203 0.2983,-1.393955 -1.87976,-3.793963 -4.83984,-5.332031 -2.00492,-1.041764 -3.47209,-1.599023 -4.95508,-1.623047 z m -41.21289,16.951172 c -3.71947,0.01457 -6.13548,1.374153 -9.41797,4.916016 -6.50415,7.018109 -6.60427,12.183322 -0.31836,16.398437 4.78805,3.210694 16.06542,3.65462 20.66407,0.8125 2.23843,-1.38343 2.2383,-17.714437 0,-19.953125 -0.59882,-0.598826 -4.25173,-1.489312 -8.11719,-1.978516 -1.02382,-0.129572 -1.95221,-0.198675 -2.81055,-0.195312 z m 373.86914,1.890625 c -6.59295,-0.134465 -12.0945,4.222952 -12.01172,10.673828 0.0401,3.125841 -0.69193,5.210686 -1.62695,4.632813 -3.56233,-2.20164 -1.4983,3.745844 2.78711,8.03125 4.71515,4.715157 15.92703,5.23151 20.77539,0.957031 1.36627,-1.204547 2.04178,-2.923456 1.5,-3.81836 -0.54178,-0.894903 0.1617,-1.626953 1.56445,-1.626953 1.64164,0 2.01882,-1.739076 1.05664,-4.880859 -0.8222,-2.68471 -1.58677,-6.05135 -1.69922,-7.480469 -0.11238,-1.429119 -3.1059,-3.799401 -6.65039,-5.267578 -1.91844,-0.794645 -3.84928,-1.183053 -5.69531,-1.220703 z" />
  </g>
</svg>
