<?xml version="1.0" encoding="UTF-8" standalone="no"?>
<!-- Created with Inkscape (http://www.inkscape.org/) -->

<svg
   version="1.1"
   id="svg198"
   width="1942.4519"
   height="1539.2917"
   viewBox="0 0 1942.4519 1539.2917"
   sodipodi:docname="Boat33c.svg"
   inkscape:version="1.2.2 (732a01da63, 2022-12-09, custom)"
   xmlns:inkscape="http://www.inkscape.org/namespaces/inkscape"
   xmlns:sodipodi="http://sodipodi.sourceforge.net/DTD/sodipodi-0.dtd"
   xmlns="http://www.w3.org/2000/svg"
   xmlns:svg="http://www.w3.org/2000/svg">
  <defs
     id="defs202" />
  <sodipodi:namedview
     id="namedview200"
     pagecolor="#ffffff"
     bordercolor="#000000"
     borderopacity="0.25"
     inkscape:showpageshadow="2"
     inkscape:pageopacity="0.0"
     inkscape:pagecheckerboard="0"
     inkscape:deskcolor="#d1d1d1"
     showgrid="false"
     inkscape:zoom="0.35296837"
     inkscape:cx="1181.409"
     inkscape:cy="464.63087"
     inkscape:window-width="1920"
     inkscape:window-height="1031"
     inkscape:window-x="0"
     inkscape:window-y="25"
     inkscape:window-maximized="1"
     inkscape:current-layer="layer1" />
  <g
     inkscape:groupmode="layer"
     id="layer1"
     inkscape:label="Layer 1">
    <path
       id="path316"
       style="fill:#000000;stroke-width:1.33333"
       d="M 1115.3744 99.12065 C 1094.9691 99.15318 1083.1998 100.88031 1055.5033 107.9019 C 1046.9615 110.06748 1044.755 110.24206 1043.8568 108.82573 C 1043.2473 107.86469 1042.7389 106.62088 1042.7279 106.0601 C 1042.6743 103.38741 1033.6577 99.756509 1027.0619 99.751509 C 1021.3254 99.747409 1019.3554 100.39779 1015.9916 103.41167 L 1011.8979 107.07963 L 1011.8822 177.07963 L 1011.8647 247.07963 L 918.95255 337.85112 C 835.59002 419.294 752.64277 499.03014 444.67911 793.76518 C 394.09649 842.17497 300.20738 931.21932 236.04239 991.63237 C 171.87768 1052.0444 115.94128 1104.803 111.74356 1108.8687 L 104.11075 1116.2613 L 74.608799 1109.1753 L 45.108799 1102.0914 L 41.575596 1104.7124 C 35.069572 1109.5417 33.069495 1117.3165 36.099033 1126.0074 L 37.491612 1129.9976 L 283.767 1197.0699 C 419.21466 1233.9563 530.66602 1264.3684 531.42911 1264.646 C 532.19222 1264.9235 535.92305 1277.885 539.71817 1293.4488 C 561.15791 1381.3665 572.89755 1418.0387 596.15567 1469.7457 C 607.68071 1495.3649 647.23444 1574.2181 666.21427 1609.4117 L 681.85489 1638.4117 L 1195.2807 1638.4117 L 1708.7084 1638.4117 L 1753.8529 1431.8472 C 1778.6829 1318.2399 1798.7843 1224.7385 1798.5209 1224.0718 C 1798.2577 1223.4051 1783.0961 1226.9635 1764.8295 1231.98 C 1695.1343 1251.1208 1626.1973 1268.0104 1576.0424 1278.2339 C 1535.0699 1286.5852 1489.2312 1294.7137 1488.31 1293.7925 C 1487.1971 1292.6796 1482.5272 1236.8158 1483.4682 1235.8746 C 1484.8946 1234.4482 1936.7456 1190.6189 1942.3744 1191.3609 C 1945.736 1191.8041 1948.0424 1191.5696 1948.0424 1190.7847 C 1948.0424 1190.057 1952.3917 1189.0664 1957.7084 1188.5835 C 1967.9936 1187.6492 1972.6108 1185.3393 1975.9467 1179.4664 C 1977.5107 1176.7115 1977.5531 1175.3947 1976.1889 1172.1011 C 1973.8107 1166.3598 1969.4034 1164.8894 1955.5033 1165.1949 L 1943.4213 1165.4605 L 1917.3979 1140.0562 L 1891.3744 1114.6539 L 1880.7768 1090.8667 C 1828.9002 974.43443 1749.3743 812.50503 1689.0072 700.41167 C 1618.2945 569.10259 1549.4077 456.02236 1493.6889 379.7769 C 1487.0028 370.62811 1481.6744 363.00234 1481.8471 362.82963 C 1482.0198 362.65693 1494.1352 367.23864 1508.769 373.01128 C 1537.6388 384.40018 1555.0853 388.96889 1582.6811 392.36674 C 1602.1541 394.76499 1655.6567 397.90675 1656.8412 396.72221 C 1657.2889 396.27449 1654.0439 386.72166 1649.6303 375.4937 C 1636.0709 340.99941 1634.3328 334.55291 1633.6928 316.41167 C 1633.1918 302.20887 1635.149 277.63991 1638.2475 259.21635 L 1639.1205 254.01909 L 1635.2475 255.05034 C 1628.5896 256.82174 1598.7436 257.84629 1582.4096 256.86479 C 1556.675 255.31839 1542.7605 250.5135 1485.31 223.32573 C 1465.8409 214.11265 1445.1409 204.96281 1439.31 202.9937 C 1427.1674 198.89254 1409.0536 197.27317 1400.7084 199.54253 C 1395.7278 200.89664 1396.8933 199.5176 1418.3315 178.70268 C 1433.704 163.77447 1441.5785 155.16961 1442.1674 152.64799 C 1443.9582 144.98119 1437.3481 138.61505 1429.476 140.42534 C 1427.4741 140.88568 1367.9055 193.13662 1286.7104 265.6519 L 1147.3783 390.08745 L 1119.6889 363.24956 C 1104.4599 348.48907 1081.8525 326.51111 1069.4565 314.41167 L 1046.9135 292.41167 L 1046.2045 235.6187 L 1045.4955 178.82378 L 1067.769 172.62651 C 1096.2249 164.70871 1101.6016 163.74565 1117.3588 163.74565 C 1133.3773 163.74565 1137.9376 165.17356 1140.0131 170.83354 C 1143.1599 179.41346 1145.7032 183.47071 1149.0502 185.25346 C 1154.7401 188.28415 1185.1041 187.48531 1209.3744 183.66557 C 1236.3233 179.42393 1266.9291 179.42051 1303.7455 183.65385 C 1317.8831 185.27945 1330.0902 186.39507 1330.8725 186.13432 C 1331.6547 185.87358 1327.5886 183.97263 1321.8354 181.90971 C 1277.8836 166.15044 1269.3751 164.09359 1240.7221 162.3062 C 1217.6592 160.86752 1206.7647 159.09504 1208.8725 157.12456 C 1211.1015 155.04041 1230.1016 151.5059 1242.7084 150.82963 C 1251.3463 150.36626 1262.4618 151.0387 1277.6576 152.94682 C 1300.1754 155.77434 1312.741 156.41724 1316.599 154.93706 C 1320.4308 153.46667 1319.1757 146.89963 1314.3744 143.29643 C 1296.4685 129.8588 1274.0255 125.61596 1204.0404 122.44292 C 1169.2898 120.86711 1164.6694 119.62849 1152.1693 108.5269 C 1142.7013 100.11577 1138.666 99.08355 1115.3744 99.12065 z M 1046.0639 137.81987 C 1046.1442 137.82717 1046.2357 138.12987 1046.3315 138.76323 C 1046.6382 140.78998 1046.6304 143.79128 1046.3139 145.4312 C 1045.9974 147.07112 1045.7462 145.41231 1045.7572 141.74565 C 1045.7641 139.22482 1045.8871 137.80382 1046.0639 137.81987 z M 1387.4447 209.31987 C 1387.9053 209.32874 1388.0538 209.77926 1388.058 210.55034 C 1388.0671 212.30812 1388.9605 223.64587 1390.0424 235.74565 C 1391.1243 247.84543 1392.0118 257.8963 1392.0248 258.07963 C 1392.0997 259.59667 1388.5779 256.9227 1380.0424 248.98588 C 1374.5424 243.87186 1368.0961 238.35031 1365.7182 236.71635 C 1363.3404 235.08239 1361.5404 233.43875 1361.7182 233.06401 C 1361.8961 232.68928 1367.8924 226.75152 1375.0424 219.8687 C 1383.0579 212.15252 1386.2677 209.2972 1387.4447 209.31987 z M 1399.5658 235.20268 C 1399.6706 235.23418 1399.8098 235.61852 1399.9838 236.41167 C 1400.6274 239.34492 1401.585 247.89501 1402.1127 255.41167 C 1403.1314 269.92215 1402.262 274.32285 1400.9272 261.41167 C 1399.5402 247.99678 1398.9257 235.01021 1399.5658 235.20268 z M 1012.0404 259.53862 L 1012.0209 295.30815 L 1012.0014 331.07963 L 877.81388 481.07963 L 743.62833 631.07963 L 736.83536 631.78667 C 727.87398 632.7202 724.58075 634.73608 722.69669 640.44487 C 721.35315 644.51563 721.51798 645.93185 723.89396 650.73393 C 726.55563 656.11403 726.56858 656.39568 724.24161 659.02495 C 722.91696 660.52167 708.74284 676.74666 692.74552 695.07963 C 676.74802 713.41278 662.49747 729.61314 661.0795 731.07963 C 659.66154 732.5463 666.37668 721.22908 676.00138 705.9312 C 717.77498 639.53415 808.56065 487.40079 840.41739 430.41167 C 844.51331 423.08439 857.35794 409.89683 923.52872 345.07963 C 966.57534 302.91386 1004.1023 266.41658 1006.9193 263.97612 L 1012.0404 259.53862 z M 1048.7084 306.48784 L 1094.0424 350.46635 C 1118.9757 374.65356 1139.5411 394.93387 1139.7436 395.53276 C 1139.9461 396.13167 1127.5484 407.82513 1112.1928 421.51713 C 1096.8371 435.20936 1083.9839 446.41167 1083.6322 446.41167 C 1083.2804 446.41167 1082.5887 445.36296 1082.0951 444.07963 C 1081.6015 442.79654 1073.7244 422.17403 1064.5893 398.25346 L 1047.9799 354.75932 L 1048.3451 330.62456 L 1048.7084 306.48784 z M 1011.3744 344.57182 L 1011.7729 352.84721 L 1012.1693 361.1226 L 939.83731 495.00346 L 867.50528 628.88432 L 856.77286 629.64604 C 850.87071 630.06448 825.55214 630.55664 800.51114 630.74174 L 754.98185 631.07963 L 759.86661 625.74565 C 762.55317 622.81231 820.24383 558.34646 888.06388 482.49174 L 1011.3744 344.57182 z M 1050.0424 392.87651 L 1059.935 425.69682 L 1069.8275 458.51713 L 1063.9897 464.4644 C 1057.6292 470.94507 1056.7021 471.38673 1055.5815 468.46635 C 1054.046 464.46516 1049.2356 410.72645 1049.6303 401.97807 L 1050.0424 392.87651 z M 756.04044 659.64604 L 801.93106 660.02885 C 827.17052 660.2396 848.21851 660.80959 848.70255 661.29448 C 849.18661 661.77937 837.7805 683.97864 823.35685 710.62651 C 808.93301 737.27438 796.90365 759.31217 796.62442 759.59721 C 796.34518 759.88225 795.56431 758.6829 794.89005 756.9312 C 794.21578 755.17949 786.33677 735.44592 777.38028 713.07963 C 768.42379 690.71353 759.95744 669.5396 758.56778 666.02885 L 756.04044 659.64604 z M 747.50919 661.76713 L 769.2006 715.97807 L 790.892 770.18706 L 788.62052 774.63432 C 787.37036 777.07944 757.85031 831.87954 723.02286 896.41167 C 688.19559 960.94361 659.13152 1014.6476 658.43692 1015.7456 C 657.35486 1017.4594 657.26671 1017.4396 657.82364 1015.6089 C 666.68954 986.46572 717.86132 784.96826 744.30216 675.0894 L 747.50919 661.76713 z M 539.36466 869.07963 C 539.95528 869.07963 506.34346 907.37152 344.26896 1091.3472 C 319.75858 1119.1702 303.92001 1138.3521 299.15763 1145.9839 C 295.12095 1152.4525 291.11825 1158.4134 290.2631 1159.2281 C 288.39006 1161.0126 115.75249 1119.8911 116.09317 1117.7417 C 116.20906 1117.0105 172.49745 1063.4322 241.17325 998.6851 C 352.24903 893.96243 366.40947 881.0471 369.37442 881.74956 C 371.20776 882.18388 388.64544 882.88744 408.12247 883.31401 C 456.25751 884.36825 489.78769 881.36172 523.03263 873.01127 C 531.64431 870.84842 538.99457 869.07963 539.36466 869.07963 z M 591.93302 1134.9546 C 593.57665 1135.6576 590.03993 1142.5184 570.53067 1178.6285 C 557.34171 1203.038 546.43627 1223.0807 546.2963 1223.1617 C 546.15634 1223.2429 541.54239 1221.9016 536.04239 1220.1812 C 530.54264 1218.4608 524.24239 1216.7456 522.04239 1216.3687 C 517.74541 1215.6324 299.63123 1163.4674 298.99161 1163.023 C 298.78087 1162.8766 301.74497 1157.8314 305.57755 1151.8101 L 312.54435 1140.8609 L 319.96036 1141.5953 C 337.82504 1143.3653 458.41514 1144.0097 494.70841 1142.5289 C 541.81348 1140.6071 576.45698 1137.8831 590.94278 1134.9624 C 591.35754 1134.8788 591.69821 1134.8542 591.93302 1134.9546 z M 1901.2533 1136.4117 L 1915.9115 1150.9859 C 1923.9728 1159.0016 1930.2635 1166.0529 1929.892 1166.6539 C 1929.2356 1167.716 1914.7084 1168.2634 1914.7084 1167.2261 C 1914.7084 1166.9407 1911.6816 1159.8914 1907.9818 1151.5601 L 1901.2533 1136.4117 z M 1472.4057 1236.8589 C 1473.0656 1236.8538 1473.447 1236.8805 1473.5092 1236.9429 C 1474.3693 1237.806 1479.2257 1295.7407 1478.4858 1296.3121 C 1478.2421 1296.5004 1466.0411 1298.5915 1451.3744 1300.9585 C 1436.7078 1303.3255 1423.7157 1305.5431 1422.5033 1305.8863 C 1420.8823 1306.345 1419.6892 1304.9094 1417.9916 1300.4644 C 1416.1511 1295.6448 1414.5154 1293.837 1409.9252 1291.5445 C 1403.6409 1288.406 1404.4159 1289.82 1394.0619 1262.607 C 1390.6273 1253.5796 1388.213 1245.7957 1388.6986 1245.3101 C 1389.8391 1244.1695 1462.5068 1236.9361 1472.4057 1236.8589 z M 1375.9877 1245.6832 C 1378.4298 1245.7533 1379.6463 1248.7489 1387.1635 1268.5972 C 1393.9832 1286.6038 1395.7119 1292.5365 1394.6947 1294.4371 C 1393.9686 1295.7939 1393.3744 1298.4074 1393.3744 1300.2457 C 1393.3744 1302.0828 1392.8318 1303.9248 1392.1674 1304.3355 C 1391.5029 1304.7462 1391.2724 1306.2817 1391.6557 1307.7476 C 1392.039 1309.2135 1391.8323 1310.4316 1391.1967 1310.4546 C 1390.5612 1310.4779 1384.0417 1311.3667 1376.7084 1312.4292 C 1369.375 1313.4917 1363.0755 1314.3723 1362.7084 1314.3863 C 1361.9033 1314.4176 1341.0385 1250.3041 1341.6537 1249.689 C 1341.8907 1249.4519 1348.6748 1248.6047 1356.7299 1247.8062 C 1364.7848 1247.0078 1372.9356 1246.1014 1374.8432 1245.7906 C 1375.264 1245.722 1375.6388 1245.673 1375.9877 1245.6832 z M 1325.6342 1250.2613 L 1329.019 1250.6695 C 1332.1956 1251.0537 1333.0448 1253.0479 1342.8158 1283.0425 C 1348.5422 1300.6221 1353.1109 1315.1022 1352.9682 1315.2222 C 1352.8254 1315.3422 1350.0661 1315.8779 1346.8373 1316.4117 L 1340.9682 1317.3824 L 1341.7494 1310.773 C 1342.4202 1305.1094 1341.3246 1300.3106 1334.0834 1277.2124 L 1325.6342 1250.2613 z M 1313.2709 1251.7457 C 1316.5023 1251.7456 1317.3975 1252.4861 1318.5131 1256.0796 C 1319.2529 1258.4629 1322.6407 1269.324 1326.0404 1280.2124 C 1329.44 1291.102 1332.0285 1300.2029 1331.7943 1300.4371 C 1331.5602 1300.6713 1329.8426 1301.2459 1327.976 1301.7144 C 1324.6187 1302.5571 1324.501 1302.3041 1316.9545 1278.1558 C 1312.7588 1264.7303 1309.337 1253.2946 1309.351 1252.7457 C 1309.3646 1252.1957 1311.1278 1251.7457 1313.2709 1251.7457 z M 1299.8354 1253.7613 C 1300.1052 1254.031 1304.6982 1268.1251 1310.0424 1285.0816 C 1315.9327 1303.7706 1320.6636 1316.5726 1322.0541 1317.5894 C 1323.9769 1318.9953 1321.7642 1319.5199 1308.3803 1320.8296 C 1275.8881 1324.0091 1245.3158 1326.3585 1218.9682 1327.7007 C 1204.078 1328.4592 1188.1194 1329.0796 1183.5033 1329.0796 L 1175.1088 1329.0796 L 1170.8061 1298.2925 C 1168.4392 1281.3601 1166.7742 1267.2345 1167.1068 1266.9019 C 1167.893 1266.1157 1299.1908 1253.1167 1299.8354 1253.7613 z M 1152.4975 1267.9566 C 1157.6423 1268.0023 1158.6517 1269.4022 1158.6869 1273.4117 C 1158.7052 1275.5055 1157.0654 1275.7457 1142.7084 1275.7457 C 1127.9115 1275.7456 1126.7084 1275.557 1126.7084 1273.2281 C 1126.7084 1270.3883 1129.1028 1269.7733 1145.8568 1268.316 C 1148.6075 1268.0767 1150.7825 1267.9413 1152.4975 1267.9566 z M 716.45646 1268.2984 C 717.02262 1268.3133 717.76135 1268.3578 718.65567 1268.4273 C 771.89886 1272.5617 826.93877 1275.2294 898.04239 1277.1207 C 928.84188 1277.9382 963.30683 1279.0156 974.63028 1279.5113 L 995.21817 1280.4117 L 1004.185 1302.7457 L 1013.1498 1325.0796 L 1008.2631 1324.8941 C 953.64547 1322.8208 840.82119 1301.937 735.37442 1274.3804 C 716.96212 1269.5687 712.49219 1268.1943 716.45646 1268.2984 z M 1112.4818 1271.7925 C 1116.1361 1271.7345 1117.3744 1272.355 1117.3744 1273.7457 C 1117.3744 1275.3561 1115.301 1275.7457 1106.7084 1275.7457 C 1094.6499 1275.7456 1092.4689 1273.879 1103.0424 1272.6089 C 1107.2276 1272.1062 1110.2893 1271.8273 1112.4818 1271.7925 z M 1083.6068 1274.5835 C 1084.4333 1274.5688 1085.226 1274.6652 1085.7338 1274.8707 C 1086.6365 1275.2354 1085.5744 1275.5129 1083.3744 1275.4859 C 1081.1744 1275.4587 1080.4365 1275.1599 1081.7338 1274.8218 C 1082.3014 1274.6737 1082.9641 1274.595 1083.6068 1274.5835 z M 1004.2943 1279.7457 L 1010.8334 1279.7457 L 1017.3744 1279.7457 L 1017.3744 1295.0796 C 1017.3744 1303.5129 1017.1845 1310.4117 1016.9506 1310.4117 C 1016.7167 1310.4117 1013.7731 1303.5129 1010.4096 1295.0796 L 1004.2943 1279.7457 z M 1096.7084 1283.7437 L 1107.5912 1283.7457 L 1118.474 1283.7457 L 1119.2143 1288.7457 C 1119.6217 1291.4943 1120.3452 1298.3963 1120.8217 1304.0796 L 1121.6889 1314.4117 L 1110.1986 1314.4117 C 1100.1969 1314.4117 1098.6918 1314.111 1098.5756 1312.0796 C 1098.5021 1310.7963 1098.0521 1303.8948 1097.5756 1296.7457 L 1096.7084 1283.7437 z M 1064.0424 1283.7457 L 1075.8451 1283.7457 L 1087.6498 1283.7457 L 1088.5131 1293.9468 C 1088.9874 1299.5575 1089.3744 1306.4581 1089.3744 1309.2808 L 1089.3744 1314.4117 L 1076.7084 1314.4117 L 1064.0424 1314.4117 L 1064.0424 1299.0796 L 1064.0424 1283.7457 z M 1127.726 1283.7457 L 1143.8842 1283.7457 C 1152.7709 1283.7457 1160.0528 1284.1957 1160.0658 1284.7457 C 1160.079 1285.2944 1160.9687 1291.4451 1162.0424 1298.4117 C 1163.1161 1305.3784 1164.004 1311.829 1164.017 1312.7457 C 1164.0348 1313.9895 1159.8542 1314.4117 1147.4818 1314.4117 L 1130.9193 1314.4117 L 1130.2065 1310.7457 C 1129.8141 1308.729 1129.0948 1301.8284 1128.6088 1295.4117 L 1127.726 1283.7457 z M 1077.3744 1323.7457 C 1089.8189 1323.7457 1090.7084 1323.9228 1090.7084 1326.4117 C 1090.7084 1329.2848 1091.7329 1329.1911 1072.3744 1328.0914 C 1066.1949 1327.7404 1064.0424 1327.1171 1064.0424 1325.6812 C 1064.0424 1324.1174 1066.6062 1323.7456 1077.3744 1323.7457 z M 1110.7084 1323.7457 C 1121.8195 1323.7457 1122.7084 1323.9426 1122.7084 1326.4117 C 1122.7084 1328.8651 1121.8193 1329.0796 1111.5971 1329.0796 C 1100.2612 1329.0796 1098.7084 1328.6502 1098.7084 1325.523 C 1098.7084 1324.1733 1101.5973 1323.7456 1110.7084 1323.7457 z M 1147.8861 1323.7457 C 1163.9426 1323.7457 1165.1092 1323.9191 1165.7611 1326.4117 C 1166.4316 1328.9759 1165.8014 1329.0796 1149.392 1329.0796 C 1135.0601 1329.0796 1132.1967 1328.7415 1131.517 1326.9703 C 1131.0719 1325.8104 1130.7084 1324.6109 1130.7084 1324.3042 C 1130.7084 1323.9975 1138.4386 1323.7457 1147.8861 1323.7457 z "
       transform="translate(-34.716221,-99.12065)" />
    <path
       id="path390"
       style="display:inline;fill:#a02c2c;stroke-width:1.33333"
       d="M 1026.2397 108.13432 C 1024.9704 108.22503 1023.7833 108.50347 1022.849 109.00346 C 1020.0917 110.47913 1020.0409 111.20911 1020.0443 150.12651 C 1020.0443 171.91735 1020.4422 201.89566 1020.9233 216.74565 L 1021.7983 243.74565 L 1029.7572 243.74565 L 1037.7182 243.74565 L 1036.7904 178.74565 C 1036.2804 142.99569 1035.5692 112.7164 1035.2104 111.45854 C 1034.5883 109.27847 1030.0475 107.86221 1026.2397 108.13432 z M 1431.9525 149.07963 C 1431.1703 149.07963 1427.283 151.88345 1423.3139 155.3101 C 1417.7147 160.14411 1416.4262 161.93696 1417.5658 163.3101 C 1419.6801 165.85756 1419.9655 165.72067 1426.9955 158.79643 C 1433.1045 152.77922 1434.9921 149.07963 1431.9525 149.07963 z M 1410.3725 168.80815 C 1408.6749 168.84309 1405.7833 171.04777 1398.8373 177.20854 C 1392.8997 182.4748 1388.0424 187.17894 1388.0424 187.66362 C 1388.0424 188.74558 1390.9561 191.74565 1392.0072 191.74565 C 1392.4277 191.74565 1397.4415 187.04811 1403.1498 181.3062 C 1411.8948 172.5096 1413.2206 170.61155 1411.5795 169.24956 C 1411.2286 168.95835 1410.8478 168.79837 1410.3725 168.80815 z M 1381.6186 194.56206 C 1379.7758 194.44658 1376.383 197.32836 1365.2104 207.28081 C 1356.5005 215.03934 1349.3744 221.7207 1349.3744 222.12846 C 1349.3744 222.53622 1350.3828 223.98214 1351.6147 225.34331 C 1354.1452 228.1395 1353.4556 228.65657 1375.0072 207.82963 C 1384.611 198.54875 1385.1605 197.71865 1383.1752 195.52495 C 1382.6746 194.97174 1382.2328 194.60055 1381.6186 194.56206 z M 1341.5815 228.69292 L 1336.3158 233.22026 C 1333.4196 235.70954 1291.0759 273.4263 1242.2182 317.03471 L 1153.3861 396.32182 L 1158.9975 402.04057 L 1164.6108 407.75932 L 1171.3256 401.29253 C 1175.0192 397.73532 1214.6412 360.14897 1259.3744 317.76909 C 1304.1078 275.3892 1342.1924 239.29939 1344.0072 237.56792 L 1347.308 234.41948 L 1344.4447 231.5562 L 1341.5815 228.69292 z M 1021.3744 253.07963 L 1021.3744 271.07963 L 1021.3744 289.07963 L 1030.0424 289.07963 L 1038.7084 289.07963 L 1038.6967 278.07963 C 1038.6867 272.02964 1038.3075 263.92963 1037.8451 260.07963 L 1037.0033 253.07963 L 1029.1889 253.07963 L 1021.3744 253.07963 z M 1021.3744 298.41167 L 1021.3744 311.74565 C 1021.3744 326.70782 1020.6208 325.86332 1032.5229 324.23198 L 1038.7084 323.38237 L 1038.7084 310.89799 L 1038.7084 298.41167 L 1030.0424 298.41167 L 1021.3744 298.41167 z M 1034.2475 333.07963 C 1031.7506 333.07963 1027.8341 333.45334 1025.5424 333.91167 L 1021.3744 334.74565 L 1021.3744 346.57963 L 1021.3744 358.41167 L 1029.7143 358.41167 L 1038.0541 358.41167 L 1038.4213 345.74565 L 1038.7885 333.07963 L 1034.2475 333.07963 z M 1021.3744 366.41167 L 1021.3744 403.41167 C 1021.375 423.76165 1021.7726 482.26172 1022.2592 533.41167 L 1023.144 626.41167 L 1027.31 626.41167 C 1029.6008 626.41167 1034.1513 627.83108 1037.4233 629.56596 C 1040.6953 631.30084 1043.5994 632.8015 1043.8764 632.89995 C 1044.1534 632.99835 1044.0092 622.42832 1043.5561 609.41167 L 1043.558 609.41167 C 1043.105 596.39502 1042.4209 556.34497 1042.0365 520.41167 C 1041.2585 447.69722 1040.4808 423.17039 1038.5561 410.52885 C 1037.7407 405.17349 1037.7248 401.68504 1038.5131 401.19487 C 1039.3031 400.70392 1039.2984 395.70014 1038.5014 387.76909 C 1037.6229 379.02389 1037.6648 374.98156 1038.6361 374.65776 C 1039.4085 374.40029 1040.0404 372.44117 1040.0404 370.30229 L 1040.0404 366.41167 L 1030.7084 366.41167 L 1021.3744 366.41167 z M 1146.9662 402.03862 L 1116.7592 429.06206 C 1094.1529 449.28741 1086.7735 456.63093 1087.4272 458.24956 C 1087.9075 459.43906 1089.5198 463.54496 1091.0092 467.37456 L 1093.7162 474.33745 L 1097.39 471.37456 C 1099.41 469.74496 1113.9899 456.11295 1129.7904 441.07963 L 1158.519 413.74565 L 1152.7416 407.89213 L 1146.9662 402.03862 z M 1072.1283 469.34721 C 1072.112 469.34453 1072.0974 469.34556 1072.0834 469.35112 C 1071.5366 469.56832 1068.0217 472.52223 1064.2709 475.91557 L 1057.4506 482.08549 L 1058.9897 493.58159 C 1059.8358 499.9049 1060.7615 505.07963 1061.0483 505.07963 C 1061.3351 505.07963 1065.427 501.67288 1070.14 497.50932 C 1074.853 493.34577 1078.7084 489.38895 1078.7084 488.71635 C 1078.7084 485.79161 1073.1553 469.51604 1072.1283 469.34721 z M 1013.3256 636.69877 C 1010.7318 636.67435 1007.4033 636.70821 1003.058 636.76713 C 992.96579 636.90399 928.3077 637.71341 859.37442 638.56596 C 781.712 639.52648 733.40717 640.61486 732.37442 641.42729 C 731.45777 642.14838 730.70841 643.79256 730.70841 645.07963 C 730.70841 651.20423 727.31377 651.03552 866.5795 651.81596 C 938.88382 652.22114 1003.4424 652.5205 1010.0424 652.48198 L 1022.0424 652.41167 L 1024.7025 647.44292 L 1027.3627 642.47417 L 1024.3842 639.4976 C 1022.2687 637.38213 1021.107 636.77205 1013.3256 636.69877 z M 1035.8334 637.73198 C 1035.4289 637.66054 1035.2203 639.2523 1034.7729 643.07963 C 1034.3442 646.7463 1033.5236 650.48972 1032.9486 651.39799 C 1032.2406 652.51625 1032.5401 652.80406 1033.8783 652.29057 C 1034.9651 651.8735 1036.4739 649.75804 1037.2299 647.5894 C 1038.2051 644.79183 1038.162 642.59498 1037.0795 640.02885 C 1036.4802 638.60816 1036.1102 637.78086 1035.8334 637.73198 z M 1043.7416 655.88823 L 1039.976 658.67143 C 1037.7743 660.29923 1033.3302 661.73022 1029.267 662.12065 L 1022.3197 662.78862 L 1023.1772 782.93315 C 1023.6493 849.01284 1024.4252 998.93992 1024.9018 1116.1031 L 1025.769 1329.1265 L 1028.5717 1329.7554 C 1031.2732 1330.3602 1039.0788 1331.0019 1049.8471 1331.5054 L 1054.9877 1331.7457 L 1054.1244 1294.0796 C 1053.6498 1273.363 1051.5068 1138.2121 1049.3627 993.74565 C 1047.2187 849.27912 1045.077 714.16138 1044.6029 693.48393 L 1043.7416 655.88823 z M 46.341221 1111.7144 C 44.432043 1111.7724 42.63742 1118.5237 43.921299 1120.8179 C 44.730818 1122.2644 54.391144 1125.5869 72.263096 1130.566 C 87.174911 1134.7204 99.525079 1138.1846 99.708408 1138.2652 C 99.891748 1138.3462 100.04239 1135.223 100.04239 1131.3238 L 100.04239 1124.2339 L 73.708408 1117.9585 C 59.225093 1114.507 46.90937 1111.6971 46.341221 1111.7144 z M 110.62442 1126.6851 C 109.72937 1126.8092 109.37442 1128.7819 109.37442 1133.3414 L 109.37442 1140.5562 L 187.70841 1162.0308 C 230.7917 1173.8426 266.46793 1183.561 266.98966 1183.6265 C 267.5114 1183.6915 268.55286 1181.4634 269.30411 1178.6734 C 270.05537 1175.8835 271.0289 1171.8112 271.46622 1169.6246 L 272.26114 1165.6499 L 192.4838 1146.5035 C 148.60688 1135.9734 111.95906 1127.0802 111.04239 1126.7417 C 110.89192 1126.6862 110.75229 1126.6674 110.62442 1126.6851 z M 282.69278 1167.9156 C 281.2858 1168.0208 280.11297 1170.9681 278.392 1178.0132 C 276.27514 1186.6788 276.22445 1186.5185 281.46427 1187.5914 C 281.87974 1187.6764 283.00373 1183.8007 283.96231 1178.9781 C 285.25214 1172.489 285.31525 1169.8193 284.20646 1168.7105 C 283.65625 1168.1603 283.16178 1167.8805 282.69278 1167.9156 z M 295.17716 1172.1656 C 294.22464 1173.1181 290.40076 1189.2172 290.98771 1189.8042 C 291.531 1190.3475 529.57342 1255.4105 531.70841 1255.5992 C 532.62507 1255.6802 533.37442 1255.1283 533.37442 1254.3726 C 533.37442 1253.617 531.83827 1246.867 529.96036 1239.3726 C 526.94693 1227.3466 526.20257 1225.7374 523.62638 1225.6695 C 522.02095 1225.6275 470.14433 1213.3921 408.34317 1198.48 C 346.54202 1183.568 295.61688 1171.7258 295.17716 1172.1656 z M 1962.2318 1173.2632 C 1960.4082 1173.2541 1958.1264 1173.4014 1955.349 1173.6988 C 1947.4591 1174.5438 1946.7084 1174.8948 1946.7084 1177.7261 C 1946.7084 1180.7174 1947.0031 1180.8004 1955.0424 1180.107 C 1959.6257 1179.7116 1964.425 1178.848 1965.7084 1178.1871 C 1966.9917 1177.5261 1968.0424 1176.3884 1968.0424 1175.6578 C 1968.0424 1174.061 1966.2439 1173.2833 1962.2318 1173.2632 z M 1936.5697 1175.8453 C 1936.2662 1175.5331 1901.372 1178.0812 1859.0287 1181.5093 C 1816.6853 1184.9375 1715.4423 1193.1402 1634.0424 1199.7359 C 1552.6425 1206.3315 1484.9917 1211.7308 1483.7084 1211.7359 C 1481.7701 1211.7459 1481.3744 1212.9879 1481.3744 1219.0796 C 1481.3744 1223.1129 1481.8244 1226.4125 1482.3744 1226.4136 C 1482.9244 1226.4136 1572.1751 1217.6837 1680.7084 1207.0113 C 1789.2416 1196.3388 1891.5424 1186.2779 1908.0424 1184.6519 C 1936.4161 1181.8557 1938.0167 1181.5522 1937.5815 1179.0542 C 1937.3284 1177.6016 1936.8733 1176.1574 1936.5697 1175.8453 z M 1470.3451 1213.3472 C 1465.8671 1213.5114 1447.0453 1214.8602 1424.7943 1216.6265 C 1379.3197 1220.2364 1378.5694 1220.343 1379.2611 1223.0992 C 1381.0124 1230.077 1384.2092 1235.7457 1386.392 1235.7417 C 1387.6655 1235.7417 1406.7084 1233.9467 1428.7084 1231.7574 C 1450.7084 1229.5682 1469.7787 1227.7697 1471.0873 1227.7613 C 1473.181 1227.7473 1473.3596 1226.9054 1472.5736 1220.7457 C 1472.0823 1216.8957 1471.534 1213.5683 1471.3549 1213.3511 C 1471.3325 1213.324 1470.9848 1213.3238 1470.3451 1213.3472 z M 1368.9096 1220.8296 L 1362.142 1221.5874 C 1358.42 1222.0041 1350.4244 1222.7385 1344.3744 1223.2183 C 1338.3244 1223.6981 1333.3744 1224.5371 1333.3744 1225.0835 C 1333.3744 1225.9103 1335.3498 1232.0064 1337.9936 1239.3394 C 1338.3455 1240.3153 1340.2767 1240.7018 1342.9721 1240.3355 C 1345.3938 1240.0064 1353.341 1239.1245 1360.6322 1238.3746 C 1367.9234 1237.6246 1374.0863 1236.8131 1374.3275 1236.5718 C 1374.5689 1236.3306 1373.4477 1232.6903 1371.8373 1228.482 L 1368.9096 1220.8296 z M 1321.2533 1225.0796 C 1318.1729 1225.0796 1318.1752 1225.0036 1320.8842 1234.6578 C 1323.0831 1242.4948 1323.5583 1243.0266 1327.1459 1241.6499 C 1330.256 1240.4564 1324.7879 1225.0796 1321.2533 1225.0796 z M 1305.1674 1226.4117 C 1301.891 1226.4117 1301.1995 1226.8828 1301.7377 1228.7457 C 1302.1084 1230.0289 1303.2024 1233.9284 1304.1693 1237.4117 C 1305.7304 1243.0357 1306.3454 1243.7456 1309.6518 1243.7457 C 1311.8448 1243.7457 1313.3744 1243.0232 1313.3744 1241.9878 C 1313.3744 1241.0209 1312.452 1237.1216 1311.3236 1233.3218 C 1309.4284 1226.9399 1308.9583 1226.4117 1305.1674 1226.4117 z M 1287.5854 1227.8414 C 1285.2694 1227.8934 1256.3744 1230.154 1223.3744 1232.8648 L 1163.3744 1237.7925 L 1163.7299 1244.4351 C 1164.2922 1254.9322 1165.0778 1257.0796 1168.3529 1257.0796 C 1169.9627 1257.0796 1199.5007 1254.3139 1233.9936 1250.9351 C 1268.4864 1247.5564 1296.8544 1244.6621 1297.0326 1244.5015 C 1297.2109 1244.3408 1296.1064 1240.5055 1294.5775 1235.9781 C 1291.9414 1228.172 1291.5787 1227.7515 1287.5854 1227.8414 z M 534.02091 1229.3648 C 533.25732 1230.2241 551.45313 1305.7033 561.51114 1343.396 C 576.90507 1401.0852 586.74448 1428.6939 609.08927 1476.898 C 623.47609 1507.9346 648.37423 1557.4027 670.41544 1598.7457 L 687.29825 1630.4117 L 1159.5756 1630.4117 L 1631.8529 1630.4117 L 1633.392 1622.7457 C 1634.2386 1618.529 1635.2457 1613.7305 1635.6303 1612.0816 L 1636.3295 1609.0835 L 1167.349 1608.7476 L 698.36661 1608.4117 L 686.43106 1581.7457 C 618.06369 1429.0094 569.32514 1299.7772 556.69669 1237.7457 C 556.2749 1235.6738 553.72421 1234.3985 545.25724 1232.0308 C 539.26341 1230.3546 534.20705 1229.1553 534.02091 1229.3648 z M 1787.5639 1234.8238 C 1787.3919 1234.6518 1775.9778 1263.7398 1762.1986 1299.4624 C 1747.4496 1337.6992 1735.3239 1367.1549 1732.7162 1371.0796 C 1730.2798 1374.7463 1722.2482 1384.5583 1714.8686 1392.8843 C 1691.2077 1419.5792 1687.4436 1426.9492 1679.9193 1461.316 C 1676.9776 1474.7523 1668.5662 1510.9457 1661.2279 1541.7457 C 1648.0531 1597.043 1641.3744 1626.4138 1641.3744 1629.0562 C 1641.3744 1629.9352 1651.9212 1630.4117 1671.349 1630.4117 L 1701.3236 1630.4117 L 1702.0678 1627.4117 C 1704.5958 1617.2231 1787.8177 1235.0777 1787.5639 1234.8238 z M 565.19278 1235.8804 L 566.10685 1240.146 C 566.60939 1242.4925 567.09901 1244.4803 567.19669 1244.564 C 567.47592 1244.8034 592.54008 1253.708 626.70841 1265.7066 C 672.44888 1281.7689 693.84442 1288.0707 733.37442 1297.1226 C 849.52646 1323.7201 948.10917 1339.5385 1040.0424 1346.3316 C 1047.7424 1346.9005 1054.4924 1347.4518 1055.0424 1347.5562 C 1055.5924 1347.6602 1056.0424 1345.0456 1056.0424 1341.7457 L 1056.0424 1335.7457 L 1048.9662 1335.7457 C 1036.8174 1335.7457 981.5358 1331.8172 963.37442 1329.6636 C 908.9496 1323.2097 828.28216 1306.8256 730.63614 1282.3902 C 658.16715 1264.2553 603.164 1249.0506 576.28458 1239.7261 L 565.19278 1235.8804 z M 1775.5854 1238.8453 C 1775.3154 1238.5752 1765.2586 1241.0197 1753.2358 1244.2769 C 1645.4003 1273.4917 1566.481 1290.7397 1459.4799 1308.4781 C 1421.0306 1314.8522 1423.7761 1314.1435 1424.8139 1317.4136 C 1427.7451 1326.649 1429.4387 1329.1142 1432.4018 1328.4664 C 1434.0375 1328.1087 1448.2757 1325.376 1464.0424 1322.3941 C 1544.3427 1307.2068 1629.9508 1286.8017 1761.1225 1251.5816 C 1771.4412 1248.8111 1772.3368 1248.2863 1774.14 1243.9703 C 1775.2052 1241.4211 1775.8554 1239.1153 1775.5854 1238.8453 z M 1150.5795 1238.8824 C 1147.748 1238.8627 1142.176 1239.437 1130.8705 1240.5855 L 1123.6986 1241.314 L 1124.5248 1248.1968 C 1124.9796 1251.9822 1125.3564 1256.5068 1125.3627 1258.2515 C 1125.3747 1261.408 1125.4288 1261.4196 1136.3744 1260.523 C 1142.4244 1260.0274 1149.3597 1259.2769 1151.7846 1258.855 L 1156.1928 1258.0874 L 1155.3412 1250.5835 C 1154.8729 1246.4562 1154.1994 1242.0295 1153.8432 1240.7457 C 1153.5021 1239.5164 1153.411 1238.902 1150.5795 1238.8824 z M 1106.7924 1242.4117 C 1094.8129 1242.4117 1094.7084 1242.5112 1094.7084 1253.8882 L 1094.7084 1263.7457 L 1101.0424 1263.73 C 1104.5257 1263.72 1109.4757 1263.3689 1112.0424 1262.9449 L 1116.7084 1262.1753 L 1116.3275 1255.2925 C 1115.6096 1242.3422 1115.6606 1242.4117 1106.7924 1242.4117 z M 1084.6283 1244.2691 C 1083.5516 1244.2836 1079.1758 1244.5622 1074.0424 1244.9468 C 1065.0162 1245.6232 1063.3918 1246.1051 1063.4858 1248.0796 C 1063.5468 1249.3629 1063.6975 1254.3327 1063.8197 1259.1246 L 1064.0424 1267.8374 L 1071.0424 1267.0582 C 1074.8924 1266.6297 1080.04 1265.9735 1082.4818 1265.5992 L 1086.9213 1264.9175 L 1085.9858 1254.6656 C 1085.4715 1249.0265 1084.9744 1244.3518 1084.8803 1244.2789 C 1084.8685 1244.2697 1084.7821 1244.267 1084.6283 1244.2691 z M 573.66739 1268.3414 C 572.50422 1269.5045 594.18816 1334.8765 604.59317 1361.5757 L 608.79044 1372.3492 L 623.41544 1376.7847 C 789.64216 1427.1972 892.45031 1447.8389 1010.0404 1454.4117 C 1035.2515 1455.8209 1154.5705 1454.9718 1184.7084 1453.1695 C 1407.9959 1439.8163 1560.0597 1414.7379 1716.6752 1365.4351 L 1728.64 1361.6675 L 1745.56 1317.941 C 1756.8471 1288.7713 1761.7908 1274.4792 1760.4096 1275.0093 C 1751.8535 1278.2926 1689.9959 1293.6411 1644.0424 1303.8824 C 1586.8972 1316.6179 1471.9005 1338.5222 1445.0248 1341.7906 C 1440.7984 1342.3046 1437.0061 1343.2628 1436.599 1343.9214 C 1436.1919 1344.58 1438.2883 1351.407 1441.2572 1359.0933 C 1445.9789 1371.3178 1446.4591 1373.5301 1445.0932 1376.7417 C 1440.8243 1386.7796 1433.0302 1389.3161 1425.6186 1383.0796 C 1423.4398 1381.2463 1421.0581 1379.7456 1420.3275 1379.7457 C 1419.5969 1379.7457 1416.4319 1372.8177 1413.2943 1364.3511 C 1410.1567 1355.8844 1407.1498 1348.6861 1406.6108 1348.3531 C 1405.7776 1347.838 1375.9727 1351.6144 1375.0561 1352.3511 C 1373.9222 1353.2623 1383.5957 1379.7481 1386.1869 1382.8277 C 1389.9397 1387.2875 1390.1895 1389.9687 1387.1674 1393.3082 C 1384.5814 1396.1656 1378.3498 1396.5274 1376.2065 1393.9449 C 1375.3843 1392.9542 1374.7532 1389.8042 1374.8041 1386.9449 C 1374.8551 1384.0854 1372.8726 1375.4456 1370.3979 1367.7457 L 1365.8979 1353.7457 L 1358.6361 1354.2027 C 1354.6421 1354.4539 1350.933 1355.0757 1350.394 1355.5835 C 1349.855 1356.0912 1350.9624 1361.5482 1352.8549 1367.7105 C 1355.2547 1375.5246 1357.4683 1380.0079 1360.1693 1382.5308 C 1368.6389 1390.4427 1361.2366 1404.6743 1350.1049 1401.8804 C 1341.7406 1399.7811 1338.4982 1389.1688 1344.4135 1383.2535 L 1347.4506 1380.2164 L 1343.7826 1368.2632 L 1340.1127 1356.3101 L 1323.0775 1357.9546 C 1301.3316 1360.0546 1259.6199 1362.0742 1215.017 1363.1871 L 1179.9916 1364.0621 L 1180.8315 1370.9039 C 1181.2973 1374.6983 1183.0903 1379.8559 1184.8568 1382.4839 C 1188.4941 1387.8949 1188.9181 1392.7438 1186.0834 1396.4917 C 1185.0067 1397.9151 1184.1067 1400.4296 1184.0834 1402.0796 C 1184.0454 1404.7525 1184.6965 1405.0796 1190.0424 1405.0796 C 1195.8202 1405.0796 1196.0424 1405.2277 1196.0424 1409.0796 C 1196.0424 1412.7765 1195.6807 1413.0796 1191.2846 1413.0796 C 1187.3794 1413.0796 1186.6529 1413.496 1187.2221 1415.4117 C 1189.4378 1422.87 1189.4586 1424.6824 1187.349 1426.4332 C 1184.0999 1429.1297 1181.2613 1426.6833 1179.1205 1419.3414 L 1177.2943 1413.0796 L 1162.5248 1413.0796 C 1149.0041 1413.0796 1147.8332 1413.2756 1148.6596 1415.4117 C 1150.8637 1421.1089 1150.8792 1424.6102 1148.7104 1426.4097 C 1145.4118 1429.1473 1142.3696 1426.5753 1140.6791 1419.6207 L 1139.2514 1413.7457 L 1124.1537 1413.3667 C 1110.1277 1413.0151 1109.1193 1413.1573 1109.974 1415.3667 C 1112.1479 1420.9869 1112.2144 1424.6083 1110.1733 1426.3023 C 1106.8596 1429.0524 1104.3104 1427.0604 1102.2963 1420.1441 L 1100.433 1413.7457 L 1085.7455 1413.3707 L 1071.058 1412.9957 L 1072.4643 1419.1382 C 1073.6086 1424.1388 1073.5149 1425.5099 1071.9565 1426.5113 C 1068.3606 1428.8219 1066.0421 1427.0563 1063.935 1420.3999 L 1061.8275 1413.7457 L 1047.601 1413.3667 L 1033.3744 1412.9878 L 1033.3744 1409.0347 L 1033.3744 1405.0796 L 1046.6654 1405.0796 C 1056.8686 1405.0796 1059.8054 1404.6854 1059.3061 1403.3843 C 1058.9484 1402.4522 1057.3649 1401.1022 1055.7865 1400.3843 C 1047.6519 1396.6848 1046.217 1387.877 1052.7611 1381.8121 C 1055.5405 1379.2362 1056.0404 1377.5579 1056.0404 1370.7984 L 1056.0404 1362.8218 L 1035.7084 1361.9117 C 954.7173 1358.2835 847.9261 1342.9409 755.6713 1321.6792 C 699.90327 1308.8267 630.87411 1288.7207 588.34317 1272.9429 C 580.60934 1270.0739 574.00527 1268.0035 573.66739 1268.3414 z M 1412.4936 1316.1324 C 1412.1867 1316.1395 1411.8558 1316.1981 1411.4897 1316.2964 C 1409.96 1316.7071 1407.9187 1317.0501 1406.9525 1317.0601 C 1405.0792 1317.0791 1405.4836 1319.3098 1408.8686 1327.5796 C 1410.5516 1331.6915 1411.0769 1332.0059 1414.9467 1331.232 C 1417.2757 1330.7662 1419.3804 1330.1849 1419.6244 1329.941 C 1419.8683 1329.697 1418.7635 1326.3588 1417.1693 1322.523 C 1415.1092 1317.5655 1414.1504 1316.0937 1412.4936 1316.1324 z M 1393.8236 1318.7476 C 1393.3757 1318.7545 1392.8614 1318.8341 1392.2514 1318.9546 C 1390.3022 1319.3397 1383.6078 1320.352 1377.3744 1321.2046 C 1371.1411 1322.0572 1365.844 1322.9244 1365.6029 1323.1324 C 1365.3618 1323.3404 1366.2286 1326.8865 1367.5287 1331.0113 C 1369.7051 1337.9157 1370.163 1338.4565 1373.3002 1337.8394 C 1375.1745 1337.4708 1381.8091 1336.4786 1388.0424 1335.6343 C 1394.2757 1334.79 1399.7708 1333.7194 1400.2553 1333.2554 C 1400.74 1332.7914 1399.9349 1329.227 1398.4662 1325.3335 C 1396.4742 1320.053 1395.7649 1318.7178 1393.8236 1318.7476 z M 1354.1811 1324.2378 C 1354.0491 1324.2452 1353.9155 1324.2759 1353.7807 1324.3277 C 1352.7038 1324.741 1349.9223 1325.088 1347.599 1325.0992 C 1340.4987 1325.1332 1339.8216 1326.2937 1342.3295 1334.1363 C 1344.7215 1341.6163 1344.8016 1341.6557 1355.0463 1340.2515 L 1361.0912 1339.4214 L 1358.4154 1331.4996 C 1356.6344 1326.2256 1355.4565 1324.1666 1354.1811 1324.2378 z M 1331.3744 1327.4546 L 1322.7084 1328.2515 C 1317.9417 1328.6903 1301.4424 1330.2292 1286.0424 1331.6714 C 1270.6424 1333.1136 1245.7417 1334.9406 1230.7084 1335.732 C 1215.675 1336.5233 1197.3371 1337.5013 1189.9565 1337.9039 L 1176.5365 1338.6363 L 1177.0541 1342.857 C 1177.3392 1345.179 1177.7504 1347.6784 1177.9682 1348.4117 C 1178.4353 1349.9847 1208.5896 1349.7501 1260.0424 1347.773 C 1292.5262 1346.5249 1316.3218 1344.9215 1330.185 1343.0464 L 1335.6596 1342.3062 L 1333.517 1334.8804 L 1331.3744 1327.4546 z M 1065.3744 1337.0796 L 1065.3744 1342.3433 L 1065.3744 1347.607 L 1072.3744 1348.0953 C 1092.0388 1349.4709 1092.0424 1349.4723 1092.0424 1345.189 C 1092.0424 1337.3791 1091.5208 1337.0796 1077.8998 1337.0796 L 1065.3744 1337.0796 z M 1112.0424 1338.4117 C 1100.2395 1338.4117 1100.0424 1338.465 1100.0424 1341.6363 C 1100.0424 1348.5923 1100.8789 1349.0796 1112.851 1349.0796 L 1124.0424 1349.0796 L 1124.0424 1343.7457 L 1124.0424 1338.4117 L 1112.0424 1338.4117 z M 1132.6889 1338.4117 L 1133.1654 1344.4117 L 1133.644 1350.4117 L 1151.6518 1350.4117 C 1167.5253 1350.4117 1169.5644 1350.1632 1168.851 1348.3042 C 1168.4059 1347.1442 1168.0424 1344.4442 1168.0424 1342.3042 L 1168.0424 1338.4117 L 1150.3647 1338.4117 L 1132.6889 1338.4117 z M 1424.0229 1345.2671 C 1423.377 1345.2712 1422.5976 1345.3964 1421.601 1345.5582 C 1419.095 1345.9647 1416.8189 1346.5239 1416.5443 1346.7984 C 1416.2697 1347.0731 1417.4561 1350.847 1419.1791 1355.1871 C 1420.9023 1359.5273 1422.6765 1364.1143 1423.1225 1365.3804 C 1423.8908 1367.5612 1424.166 1367.5612 1428.3217 1365.3804 C 1430.7345 1364.1143 1432.8478 1363.0388 1433.019 1362.9898 C 1433.1902 1362.9408 1431.7164 1358.8332 1429.7436 1353.8609 C 1426.9414 1346.7983 1426.3295 1345.2527 1424.0229 1345.2671 z M 1170.5561 1363.3414 L 1153.1108 1364.1753 C 1143.5161 1364.6343 1135.5048 1365.1761 1135.308 1365.3785 C 1135.1112 1365.5808 1135.2682 1368.5481 1135.6576 1371.9742 C 1136.2654 1377.3283 1136.858 1378.3265 1139.8705 1379.0738 C 1148.1605 1381.1302 1152.1213 1390.2726 1147.4174 1396.4917 C 1146.3408 1397.9151 1145.4408 1400.4296 1145.4174 1402.0796 C 1145.3764 1405.0115 1145.7089 1405.0796 1160.0424 1405.0796 C 1172.1905 1405.0796 1174.7084 1404.7361 1174.7084 1403.0796 C 1174.7084 1401.9796 1173.7812 1401.0796 1172.6479 1401.0796 C 1169.1725 1401.0796 1164.0424 1394.8623 1164.0424 1390.6519 C 1164.0424 1386.2918 1168.5382 1379.7456 1171.5326 1379.7457 C 1173.4773 1379.7457 1173.4144 1377.0832 1171.2221 1366.5425 L 1170.5561 1363.3414 z M 1101.5346 1363.4273 L 1102.3217 1371.2554 C 1102.7549 1375.5609 1103.6536 1379.2961 1104.3178 1379.5542 C 1110.4626 1381.9429 1112.9057 1393.3503 1108.1869 1397.6207 C 1106.6879 1398.9773 1105.9385 1400.9537 1106.3412 1402.4937 C 1106.962 1404.8675 1108.2885 1405.0835 1122.1557 1405.0835 C 1133.7326 1405.0835 1137.1345 1404.6923 1136.6225 1403.4175 C 1136.2543 1402.5008 1134.0246 1400.8515 1131.6674 1399.7515 C 1126.4924 1397.3367 1124.2219 1391.9287 1126.1889 1386.7027 C 1126.9381 1384.7123 1127.2911 1379.0335 1126.974 1374.0835 L 1126.3979 1365.0835 L 1118.8861 1365.0699 C 1114.7548 1365.0569 1109.1607 1364.6892 1106.4545 1364.2417 L 1101.5346 1363.4273 z M 1065.3744 1363.7457 L 1065.3744 1371.6988 C 1065.3744 1378.1402 1065.8556 1379.9085 1067.9018 1381.0035 C 1073.0613 1383.7649 1074.0916 1394.8302 1069.4565 1397.6949 C 1068.6779 1398.1761 1068.0424 1400.0338 1068.0424 1401.8238 C 1068.0424 1405.0773 1068.0517 1405.0796 1082.7084 1405.0796 C 1093.5895 1405.0796 1097.3744 1404.6461 1097.3744 1403.4039 C 1097.3744 1402.4829 1095.6672 1400.9744 1093.5795 1400.0503 C 1089.6952 1398.331 1086.7084 1393.5791 1086.7084 1389.1187 C 1086.7084 1387.7428 1088.2091 1384.8346 1090.0424 1382.6558 C 1092.7304 1379.4613 1093.3744 1377.2475 1093.3744 1371.2203 L 1093.3744 1363.7457 L 1079.3744 1363.7457 L 1065.3744 1363.7457 z M 1695.6576 1401.5015 L 1684.849 1404.6832 C 1575.1795 1436.968 1403.1486 1466.9068 1267.3744 1477.3374 C 1239.2074 1479.5012 1085.5383 1479.4039 1032.7084 1477.189 C 885.86674 1471.0325 775.28653 1453.876 647.04239 1417.3531 C 634.39241 1413.7505 624.04239 1411.228 624.04239 1411.7457 C 624.04239 1414.546 666.77041 1515.7151 691.47599 1571.4117 L 704.63419 1601.0796 L 1171.3686 1601.0796 L 1638.1049 1601.0796 L 1653.7572 1534.7457 C 1662.3664 1498.2623 1671.1393 1460.6129 1673.2533 1451.0796 C 1677.6222 1431.377 1681.4779 1421.7856 1689.8275 1409.8414 L 1695.6576 1401.5015 z "
       transform="translate(-34.716221,-99.12065)" />
    <path
       id="path418"
       style="display:inline;fill:#ffcc00;stroke-width:1.33333"
       d="M 1354.8022 241.31206 C 1353.3295 241.55019 1318.1317 274.14569 1276.5854 313.74565 C 1235.0389 353.34561 1194.4293 392.05491 1186.3393 399.76713 L 1171.6283 413.79057 L 1297.9701 536.85502 C 1367.4578 604.54064 1424.5675 659.66393 1424.8803 659.35112 C 1425.1931 659.03831 1418.1889 572.14821 1409.3158 466.26323 L 1393.183 273.74565 L 1386.2787 266.64995 C 1373.8146 253.83928 1357.6758 240.84738 1354.8022 241.31206 z M 1402.7494 283.07963 L 1403.3803 288.41167 C 1403.7276 291.345 1404.1292 296.74501 1404.2729 300.41167 L 1404.5346 307.07963 L 1405.0092 300.41167 C 1405.2696 296.74501 1404.8661 291.345 1404.1147 288.41167 L 1402.7494 283.07963 z M 1441.0463 350.54253 C 1439.2455 350.55429 1437.2419 350.6427 1434.8881 350.79253 C 1428.5555 351.19563 1420.2244 352.49815 1416.3744 353.68706 C 1409.5454 355.7959 1409.3763 355.9709 1409.4643 360.79838 C 1409.5133 363.51997 1415.364 434.34709 1422.4643 518.19292 L 1435.3744 670.64018 L 1654.7084 884.42338 C 1775.3416 1002.0043 1874.1702 1098.2537 1874.3275 1098.3101 C 1874.4847 1098.3661 1873.508 1095.8622 1872.1557 1092.7457 C 1852.7785 1048.0851 1797.0139 931.00948 1757.1654 851.32377 C 1652.6233 642.26924 1562.3559 487.70204 1477.6733 372.74956 L 1465.1518 355.75542 L 1455.7768 352.90776 C 1450.0273 351.16142 1446.4486 350.50724 1441.0463 350.54253 z M 1011.3744 380.86674 L 951.37442 491.90971 C 918.37446 552.98386 888.21099 608.83278 884.34317 616.01713 L 877.30997 629.07963 L 895.12442 629.07963 C 904.92221 629.07963 935.53764 628.68251 963.15763 628.19682 L 1013.3744 627.31206 L 1013.1928 547.19682 C 1013.0921 503.13256 1012.6422 447.68079 1012.1928 423.97221 L 1011.3744 380.86674 z M 1165.2006 421.07963 C 1163.3338 421.07963 1098.007 484.15455 1098.226 485.74565 C 1098.3269 486.47898 1160.2891 649.37918 1235.9213 847.74565 C 1311.5536 1046.1121 1373.7036 1209.1629 1374.0307 1210.0796 C 1374.7635 1212.1336 1369.6454 1212.357 1423.7279 1207.9078 C 1448.8559 1205.8405 1469.7889 1203.7764 1470.2455 1203.3199 C 1470.9469 1202.6184 1429.522 699.32875 1427.2279 680.6812 L 1426.4408 674.28276 L 1296.4662 547.6812 C 1224.981 478.05007 1165.9115 421.07963 1165.2006 421.07963 z M 818.46036 450.69878 C 817.00996 451.37797 799.97343 467.60838 665.37442 595.84917 C 420.91209 828.76356 375.85911 872.00703 376.73771 872.89213 C 377.66052 873.82177 397.656 875.12476 416.70841 875.4976 C 423.3084 875.6268 438.60842 875.11682 450.70841 874.36284 C 489.10649 871.97013 522.12958 865.99294 544.03067 857.47221 L 553.34317 853.84917 L 583.99161 818.93706 C 619.12061 778.91997 631.84552 760.78596 684.94278 675.07963 C 721.41368 616.21057 809.79289 467.90001 818.42521 451.07963 C 818.55681 450.8232 818.66756 450.60175 818.46036 450.69878 z M 1090.0365 491.97221 C 1089.7081 492.30062 1094.6746 509.79074 1101.0736 530.83745 C 1112.1561 567.289 1112.9104 569.22621 1116.9545 571.6851 C 1120.95 574.11448 1121.934 576.5282 1133.6869 612.67338 C 1140.5553 633.79686 1187.5456 778.16435 1238.1088 933.48979 L 1330.0424 1215.8999 L 1334.0424 1215.2242 C 1336.2424 1214.8523 1344.1917 1214.1402 1351.7084 1213.6421 C 1359.225 1213.1439 1365.3744 1212.5135 1365.3744 1212.2417 C 1365.3744 1211.8726 1098.5696 511.76454 1091.8725 494.5601 C 1091.1907 492.80839 1090.365 491.64379 1090.0365 491.97221 z M 1082.3451 500.30034 C 1082.1781 500.1485 1077.6312 504.04611 1072.2397 508.96245 L 1062.4369 517.9019 L 1111.2729 869.82377 C 1138.1326 1063.3809 1160.4478 1223.4275 1160.8627 1225.482 L 1161.6166 1229.2164 L 1170.4955 1228.396 C 1175.3789 1227.9441 1203.836 1225.6005 1233.7338 1223.189 C 1263.6317 1220.7774 1288.2867 1218.5659 1288.5229 1218.2749 C 1288.759 1217.9838 1280.9629 1192.5456 1271.1967 1161.7457 C 1252.8614 1103.9216 1252.1339 1100.5673 1256.2514 1092.7281 C 1257.162 1090.9944 1237.0147 1024.0294 1179.4291 837.39604 C 1136.4975 698.25539 1101.3716 582.75469 1101.3725 580.72807 C 1101.3735 578.70146 1102.0599 575.94499 1102.8979 574.60307 C 1104.1347 572.62275 1102.3728 565.42115 1093.5365 536.3687 C 1087.5489 516.68208 1082.5122 500.45217 1082.3451 500.30034 z M 1052.9799 556.54838 C 1052.5616 556.49574 1052.2769 559.69124 1052.2104 566.41167 C 1052.0563 581.97483 1053.0515 590.41167 1055.0424 590.41167 C 1055.8875 590.41167 1056.0168 585.50777 1055.4037 576.74565 C 1054.4869 563.6427 1053.5912 556.62532 1052.9799 556.54838 z M 1115.7983 590.5562 C 1115.4078 590.67855 1114.9705 590.9484 1114.5815 591.33745 C 1112.624 593.29496 1265.1413 1087.76 1268.0229 1088.7984 C 1269.1328 1089.1983 1271.9399 1091.4412 1274.2592 1093.7828 C 1278.0027 1097.5622 1280.5473 1104.7239 1296.9252 1157.5523 C 1314.2837 1213.5435 1317.2391 1221.1283 1319.4486 1215.3707 C 1320.0544 1213.7918 1118.393 592.319 1116.7377 590.66362 C 1116.5343 590.46021 1116.1888 590.43385 1115.7983 590.5562 z M 1055.224 598.41167 C 1053.1026 598.41167 1052.9554 601.87141 1054.2494 621.41167 C 1055.029 633.1848 1055.3589 634.41167 1057.7475 634.41167 C 1060.2492 634.41167 1060.3403 633.77745 1059.4994 622.07963 C 1058.1315 603.04848 1057.2942 598.41167 1055.224 598.41167 z M 1058.3393 643.74565 C 1055.7849 643.74565 1055.6913 644.31496 1056.5033 654.74565 C 1056.9742 660.79564 1057.3622 668.89565 1057.3666 672.74565 C 1057.3766 679.41838 1057.5385 679.74565 1060.89 679.74565 L 1064.4076 679.74565 L 1063.4858 666.74565 C 1062.0412 646.35204 1061.4574 643.74565 1058.3393 643.74565 z M 1071.1479 648.69487 C 1071.0257 648.59969 1071.1283 650.34921 1071.3666 653.74565 C 1072.5861 671.12209 1073.7368 679.74565 1074.8373 679.74565 C 1075.4712 679.74565 1075.6111 676.895 1075.1479 673.41167 C 1074.6847 669.92834 1073.5189 662.27833 1072.5561 656.41167 C 1071.7138 651.27926 1071.2863 648.80274 1071.1479 648.69487 z M 737.33341 659.90581 C 736.97522 659.94642 736.56674 660.08875 736.19278 660.31987 C 732.80614 662.41294 321.13948 1131.9541 321.96622 1132.7808 C 322.27551 1133.0901 336.81826 1133.8297 354.28458 1134.4253 C 391.03568 1135.6785 472.11219 1134.9461 512.70841 1132.9937 C 542.14576 1131.578 576.05833 1128.6316 590.78458 1126.2105 L 599.52677 1124.773 L 619.02481 1088.5933 L 638.52091 1052.4117 L 647.31192 1020.732 C 672.62917 929.48565 740.02977 661.95567 738.16935 660.09526 C 737.99986 659.92576 737.6916 659.86519 737.33341 659.90581 z M 1012.9975 661.05815 L 936.34317 661.4019 L 859.68888 661.74565 L 830.53067 715.67729 C 814.49453 745.33951 801.37442 770.23909 801.37442 771.00932 C 801.37442 771.77953 846.19333 884.4609 900.97208 1021.4117 L 1000.5697 1270.4117 L 1008.4975 1270.4117 L 1016.4252 1270.4117 L 1015.56 1018.7456 C 1015.0836 880.32908 1014.3115 743.2238 1013.8451 714.06792 L 1012.9975 661.05815 z M 1436.56 684.2437 C 1436.479 684.3366 1446.1989 800.51181 1458.1635 942.41167 C 1470.1281 1084.3115 1479.9456 1201.1058 1479.9799 1201.9527 C 1480.0199 1202.9394 1481.8385 1203.2862 1485.0424 1202.9175 C 1487.7924 1202.6009 1583.328 1194.8205 1697.3451 1185.6285 C 1811.3622 1176.4365 1904.8707 1168.6926 1905.142 1168.4214 C 1905.4132 1168.1501 1900.9417 1157.2686 1895.2045 1144.2398 L 1884.7748 1120.5523 L 1660.7416 902.31401 C 1537.5237 782.28295 1436.642 684.1508 1436.56 684.2437 z M 1058.5854 689.07963 L 1059.3803 702.74565 C 1060.6085 723.89119 1060.9043 725.07963 1064.9408 725.07963 L 1068.3842 725.07963 L 1067.4799 711.41167 C 1066.1167 690.84084 1065.6699 689.07963 1061.8315 689.07963 L 1058.5854 689.07963 z M 1075.7397 689.07963 C 1074.8261 689.07963 1074.6171 691.9745 1075.1361 697.41167 C 1075.5736 701.995 1076.3338 710.09501 1076.8256 715.41167 C 1077.5563 723.30952 1078.1375 725.07963 1080.0072 725.07963 C 1082.1339 725.07963 1082.1722 724.16062 1080.5307 712.07963 C 1077.7378 691.52425 1077.2274 689.07963 1075.7397 689.07963 z M 1061.1908 733.07963 L 1061.9955 744.07963 C 1063.8506 769.47472 1063.7499 769.07963 1068.3197 769.07963 L 1072.4076 769.07963 L 1071.4858 756.07963 C 1069.927 734.07362 1069.6515 733.07963 1065.1127 733.07963 L 1061.1908 733.07963 z M 1080.933 733.07963 C 1078.5126 733.07963 1078.3991 733.76427 1079.2201 743.41167 C 1081.3856 768.85815 1081.4337 769.07963 1084.8803 769.07963 C 1086.6189 769.07963 1088.055 768.62963 1088.0717 768.07963 C 1088.0887 767.52963 1087.0725 759.42963 1085.8139 750.07963 C 1083.7726 734.91525 1083.2456 733.07963 1080.933 733.07963 z M 1064.0834 778.41167 L 1064.7123 786.07963 C 1065.0586 790.2963 1065.6997 798.39631 1066.1381 804.07963 L 1066.935 814.41167 L 1071.6596 814.41167 L 1076.3842 814.41167 L 1075.4799 800.74565 C 1074.0365 778.96397 1073.8648 778.41167 1068.5795 778.41167 L 1064.0834 778.41167 z M 1085.8315 778.41167 C 1082.3519 778.41167 1082.3435 778.44222 1083.1361 786.74565 C 1083.5736 791.32898 1084.3338 799.42899 1084.8256 804.74565 L 1085.7201 814.41167 L 1090.2143 814.41167 C 1092.6862 814.41167 1094.7084 814.13113 1094.7084 813.78667 C 1094.7084 812.41447 1090.5885 784.21717 1089.9779 781.41167 C 1089.5032 779.23039 1088.3705 778.41167 1085.8315 778.41167 z M 795.17325 781.13237 L 675.07169 1003.439 L 554.97208 1225.7457 L 584.50724 1234.1382 C 616.95388 1243.3573 671.23258 1254.2135 702.04239 1257.646 C 753.11125 1263.3355 873.5549 1268.9953 967.79825 1270.1343 C 989.2544 1270.3936 990.83603 1270.2479 990.142 1268.0796 C 989.73122 1266.7963 945.69519 1156.7077 892.28458 1023.439 L 795.17325 781.13237 z M 1056.7729 799.73002 C 1056.5927 799.68273 1056.4682 801.65359 1056.4682 805.07963 C 1056.4682 809.8463 1056.7096 811.795 1057.0053 809.41167 C 1057.3011 807.02834 1057.3011 803.12898 1057.0053 800.74565 C 1056.9221 800.07534 1056.8433 799.74853 1056.7729 799.73002 z M 1067.3744 823.7437 L 1068.2416 836.74565 C 1068.7181 843.89613 1069.1681 851.99565 1069.2416 854.74565 C 1069.3747 859.72505 1069.3992 859.74565 1075.0912 859.74565 L 1080.8061 859.74565 L 1079.1791 842.74565 C 1078.2846 833.39566 1077.5133 825.29565 1077.4643 824.74565 C 1077.4153 824.19565 1075.1244 823.74614 1072.3744 823.74565 L 1067.3744 823.7437 z M 1086.3393 823.74565 L 1087.1361 832.07963 C 1087.5736 836.66296 1088.3338 844.76297 1088.8256 850.07963 L 1089.7201 859.74565 L 1095.5717 859.74565 C 1100.9462 859.74565 1101.3723 859.50031 1100.7729 856.74565 C 1100.1623 853.94014 1096.0424 825.7448 1096.0424 824.3726 C 1096.0424 824.02814 1093.8587 823.74565 1091.1908 823.74565 L 1086.3393 823.74565 z M 1058.0678 827.5269 C 1057.798 827.54924 1057.6845 831.7628 1057.5775 841.41167 C 1057.4503 852.88053 1057.8743 859.74565 1058.7084 859.74565 C 1059.489 859.74565 1059.9773 855.73908 1059.8861 850.07963 C 1059.8001 844.76297 1059.2911 836.51231 1058.7553 831.74565 C 1058.4477 829.00888 1058.2297 827.51349 1058.0678 827.5269 z M 1059.2514 869.07963 C 1057.0979 869.07963 1056.8936 873.88381 1058.2416 892.87456 C 1059.0014 903.57899 1059.4137 905.07963 1061.5912 905.07963 C 1063.6865 905.07963 1063.9718 904.29919 1063.4252 900.07963 C 1063.0689 897.32964 1062.4067 889.22963 1061.9525 882.07963 C 1061.3241 872.18767 1060.6786 869.07963 1059.2514 869.07963 z M 1076.0424 869.07963 C 1070.7671 869.07963 1070.7074 869.13404 1070.7143 874.07963 C 1070.7143 876.82963 1071.11 884.92964 1071.5834 892.07963 L 1072.4447 905.07963 L 1078.6049 905.07963 L 1084.767 905.07963 L 1083.1596 887.41167 C 1082.2761 877.69502 1081.5134 869.59501 1081.4643 869.41167 C 1081.4153 869.22834 1078.9757 869.07963 1076.0424 869.07963 z M 1090.3647 869.07963 L 1091.1733 876.74565 C 1091.6189 880.96231 1092.379 889.06232 1092.8627 894.74565 L 1093.7436 905.07963 L 1100.226 905.07963 C 1105.5106 905.07963 1106.7091 904.6477 1106.7104 902.74565 C 1106.7113 901.46231 1105.7139 893.3623 1104.4955 884.74565 L 1102.2807 869.07963 L 1096.3217 869.07963 L 1090.3647 869.07963 z M 1061.2611 913.07963 C 1058.8677 913.07963 1058.7084 914.24516 1058.7084 931.74565 L 1058.7084 950.41167 L 1062.7455 950.41167 L 1066.7826 950.41167 L 1066.0971 942.07963 C 1065.7205 937.49631 1065.0524 929.095 1064.6127 923.41167 C 1063.9154 914.3991 1063.4877 913.07963 1061.2611 913.07963 z M 1072.976 913.07963 L 1073.8412 925.28471 C 1074.3177 931.99737 1074.7084 940.39673 1074.7084 943.95073 L 1074.7084 950.41167 L 1082.1322 950.41167 C 1088.5614 950.41167 1089.4665 950.10052 1088.9018 948.07963 C 1088.5432 946.79631 1087.8695 940.34564 1087.4037 933.74565 C 1085.9242 912.78324 1086.0439 913.07963 1079.0268 913.07963 L 1072.976 913.07963 z M 1101.349 913.07963 C 1096.93 913.07963 1094.705 913.63667 1094.6986 914.74565 C 1094.6886 915.66231 1095.383 924.06167 1096.2318 933.41167 L 1097.7748 950.41167 L 1105.5756 950.41167 C 1109.8655 950.41167 1113.3744 949.82983 1113.3744 949.1187 C 1113.3744 947.2621 1109.4213 919.65156 1108.644 916.07963 C 1108.0733 913.45744 1107.1539 913.07963 1101.349 913.07963 z M 1062.4525 958.41167 C 1058.4652 958.41167 1058.3798 958.54034 1059.185 963.41167 C 1059.6395 966.16166 1060.0188 974.26167 1060.0268 981.41167 L 1060.0424 994.41167 L 1064.7572 994.41167 L 1069.4701 994.41167 L 1068.6967 982.07963 C 1067.2423 958.88663 1067.1183 958.41167 1062.4525 958.41167 z M 1075.8158 958.41167 L 1076.6654 973.41167 C 1077.9104 995.41255 1077.4752 994.41167 1085.7885 994.41167 L 1092.8197 994.41167 L 1091.1967 976.74565 C 1090.3047 967.02899 1089.5311 958.92898 1089.476 958.74565 C 1089.421 958.56231 1086.3236 958.41167 1082.5951 958.41167 L 1075.8158 958.41167 z M 1098.3647 958.41167 L 1099.1733 966.07963 C 1099.6189 970.2963 1100.379 978.39631 1100.8627 984.07963 L 1101.7436 994.41167 L 1110.9174 994.41167 C 1119.7366 994.41167 1120.0665 994.2954 1119.4389 991.41167 C 1118.8284 988.60617 1114.7084 960.41082 1114.7084 959.03862 C 1114.7084 958.69415 1111.0313 958.41167 1106.5365 958.41167 L 1098.3647 958.41167 z M 1087.3764 1003.7437 C 1086.9131 1003.7436 1086.4175 1003.7456 1085.8881 1003.7456 L 1078.6127 1003.7456 L 1079.3861 1016.0796 C 1079.8115 1022.8629 1080.4698 1030.9629 1080.849 1034.0796 L 1081.5385 1039.7457 L 1089.5463 1039.7457 C 1096.5326 1039.7457 1097.4706 1039.4473 1096.9018 1037.4117 C 1096.5432 1036.1284 1095.876 1029.6796 1095.4193 1023.0796 C 1094.123 1004.3434 1094.3261 1003.7453 1087.3764 1003.7437 z M 1060.0424 1003.7456 L 1060.0424 1021.7456 L 1060.0424 1039.7457 L 1066.1537 1039.7457 L 1072.267 1039.7457 L 1071.4174 1024.7457 C 1070.227 1003.7096 1070.2389 1003.7456 1064.683 1003.7456 L 1060.0424 1003.7456 z M 1102.3647 1003.7456 L 1103.1733 1011.4117 C 1103.6189 1015.6284 1104.379 1023.7284 1104.8627 1029.4117 L 1105.7436 1039.7457 L 1115.558 1039.7457 C 1124.0172 1039.7457 1125.375 1039.4225 1125.3764 1037.4117 C 1125.3773 1036.1284 1124.3819 1028.0284 1123.1635 1019.4117 L 1120.9486 1003.7456 L 1111.6557 1003.7456 L 1102.3647 1003.7456 z M 1090.9408 1049.0757 C 1090.432 1049.0768 1089.8882 1049.0796 1089.3061 1049.0796 L 1081.4154 1049.0796 L 1082.0463 1056.7457 C 1082.3926 1060.9622 1083.0338 1069.0623 1083.4721 1074.7457 L 1084.269 1085.0796 L 1092.9115 1085.0796 C 1100.5025 1085.0796 1101.4753 1084.795 1100.9018 1082.7457 C 1100.5426 1081.4623 1099.8627 1074.4129 1099.392 1067.0796 C 1098.2623 1049.4811 1098.5729 1049.0597 1090.9408 1049.0757 z M 1061.3744 1049.0796 L 1061.3744 1067.0796 L 1061.3744 1085.0796 L 1068.2416 1085.0796 L 1075.1068 1085.0796 L 1074.2416 1072.8746 C 1073.7651 1066.1619 1073.3744 1058.0619 1073.3744 1054.8746 L 1073.3744 1049.0796 L 1067.3744 1049.0796 L 1061.3744 1049.0796 z M 1106.3647 1049.0796 L 1107.1557 1055.4117 C 1107.5906 1058.8951 1108.3494 1066.9951 1108.8432 1073.4117 L 1109.7416 1085.0796 L 1121.0658 1085.0796 L 1132.39 1085.0796 L 1131.5775 1080.0796 C 1131.1302 1077.3296 1130.0334 1069.2296 1129.14 1062.0796 L 1127.515 1049.0796 L 1116.9408 1049.0796 L 1106.3647 1049.0796 z M 1126.1361 1094.3726 C 1124.9102 1094.384 1123.4922 1094.4117 1121.8451 1094.4117 L 1110.3647 1094.4117 L 1111.1557 1100.7457 C 1111.5906 1104.2289 1112.3494 1112.329 1112.8432 1118.7457 L 1113.7416 1130.4117 L 1126.3315 1130.4117 L 1138.9193 1130.4117 L 1138.1928 1126.7457 C 1137.7929 1124.729 1136.8118 1117.9789 1136.0131 1111.7457 C 1133.8703 1095.0207 1134.7181 1094.2931 1126.1361 1094.3726 z M 1061.3744 1094.4117 L 1061.3744 1102.2105 C 1061.3744 1106.4998 1061.7634 1114.5998 1062.2377 1120.2105 L 1063.099 1130.4117 L 1070.2377 1130.4117 L 1077.3744 1130.4117 L 1077.3744 1124.6167 C 1077.3744 1121.4293 1076.9857 1113.3293 1076.5092 1106.6167 L 1075.642 1094.4117 L 1068.5092 1094.4117 L 1061.3744 1094.4117 z M 1084.1088 1094.4117 L 1084.6986 1098.0796 C 1085.023 1100.0963 1085.6652 1108.1963 1086.1264 1116.0796 L 1086.9643 1130.4117 L 1096.2768 1130.4117 L 1105.5873 1130.4117 L 1104.8725 1126.7457 C 1104.4801 1124.729 1103.7862 1117.6796 1103.3295 1111.0796 C 1102.1216 1093.6228 1102.6281 1094.4117 1092.6518 1094.4117 L 1084.1088 1094.4117 z M 1272.3822 1108.4117 L 1268.5561 1108.8472 C 1266.451 1109.0862 1264.6038 1109.4049 1264.4525 1109.5562 C 1264.1837 1109.825 1295.9076 1211.3736 1297.7592 1216.1714 C 1298.4519 1217.9664 1299.4774 1218.3554 1301.7025 1217.6714 C 1303.3561 1217.163 1304.9601 1216.5206 1305.267 1216.2437 C 1305.574 1215.9667 1298.2993 1191.591 1289.1029 1162.0757 L 1272.3822 1108.4117 z M 1099.9311 1138.4097 C 1098.9767 1138.3975 1097.8813 1138.4117 1096.6186 1138.4117 L 1088.0424 1138.4117 L 1088.0522 1145.4117 C 1088.0522 1149.2617 1088.4444 1157.3617 1088.9154 1163.4117 L 1089.7729 1174.4117 L 1099.6635 1174.4117 C 1108.4446 1174.4117 1109.4833 1174.1508 1108.9037 1172.0796 L 1108.9018 1172.0796 C 1108.5426 1170.7963 1107.8627 1163.7451 1107.392 1156.4117 C 1106.3302 1139.8707 1106.6116 1138.4951 1099.9311 1138.4097 z M 1062.7084 1138.4117 L 1062.7084 1156.4117 L 1062.7084 1174.4117 L 1071.7084 1174.4136 L 1080.7084 1174.4136 L 1079.8412 1161.4136 C 1079.3647 1154.2631 1078.9147 1146.1617 1078.8412 1143.4117 L 1078.7084 1138.4117 L 1070.7084 1138.4117 L 1062.7084 1138.4117 z M 1114.3647 1138.4117 L 1115.1557 1144.7457 C 1115.5906 1148.2289 1116.3494 1156.329 1116.8432 1162.7457 L 1117.7416 1174.4117 L 1130.892 1174.4117 C 1143.6527 1174.4117 1144.0404 1174.3227 1143.9994 1171.4117 C 1143.9764 1169.7617 1143.0873 1162.4129 1142.0248 1155.0796 C 1140.9624 1147.7463 1140.0821 1140.9963 1140.0678 1140.0796 C 1140.0488 1138.8635 1136.5705 1138.4117 1127.2025 1138.4117 L 1114.3647 1138.4117 z M 1103.3588 1183.7398 C 1102.3207 1183.7308 1101.1272 1183.7457 1099.7514 1183.7457 L 1090.3061 1183.7457 L 1091.1674 1196.7457 C 1091.6409 1203.8956 1092.0308 1211.9957 1092.0346 1214.7457 L 1092.0443 1219.7457 L 1102.8178 1219.7457 L 1113.5893 1219.7457 L 1112.8725 1216.0796 C 1112.4801 1214.0629 1111.7862 1207.0117 1111.3295 1200.4117 C 1110.2642 1185.0155 1110.6256 1183.8025 1103.3588 1183.7398 z M 1062.3373 1183.7457 L 1063.1772 1190.7457 C 1063.6397 1194.5956 1064.0243 1202.6957 1064.0307 1208.7457 L 1064.0424 1219.7457 L 1074.0209 1219.7457 L 1084.0014 1219.7457 L 1083.3705 1212.0796 C 1083.0242 1207.8629 1082.3831 1199.7629 1081.9447 1194.0796 L 1081.1479 1183.7457 L 1071.7416 1183.7457 L 1062.3373 1183.7457 z M 1118.4057 1183.7457 L 1119.1752 1189.4117 C 1119.5988 1192.5284 1120.3439 1200.6284 1120.8315 1207.4117 L 1121.7182 1219.7457 L 1136.3881 1219.7457 L 1151.058 1219.7457 L 1150.2709 1214.896 C 1149.8381 1212.2289 1148.7666 1204.1289 1147.89 1196.896 L 1146.2963 1183.7457 L 1132.351 1183.7457 L 1118.4057 1183.7457 z M 1064.0424 1229.0796 L 1064.0424 1233.2535 C 1064.0424 1237.3353 1064.1533 1237.4092 1069.0424 1236.6011 C 1071.7924 1236.1465 1076.2924 1235.7694 1079.0424 1235.7613 C 1083.4829 1235.7483 1084.0424 1235.3721 1084.0424 1232.4117 C 1084.0424 1229.1525 1083.8202 1229.0796 1074.0424 1229.0796 L 1064.0424 1229.0796 z M 1103.2963 1229.0796 C 1094.0804 1229.0796 1093.3744 1229.2793 1093.3744 1231.9019 C 1093.3744 1234.6169 1093.7715 1234.6893 1103.7084 1233.7691 C 1109.3917 1233.2428 1114.2524 1232.6111 1114.5092 1232.3667 C 1114.7659 1232.1223 1114.5802 1231.2837 1114.0971 1230.5015 C 1113.6021 1229.7005 1108.8849 1229.0796 1103.2963 1229.0796 z M 1137.5971 1229.0796 C 1127.6887 1229.0796 1122.7084 1229.5679 1122.7084 1230.5406 C 1122.7084 1231.5691 1126.9572 1231.7191 1137.0424 1231.0484 C 1144.9257 1230.5241 1151.6255 1229.867 1151.9311 1229.5874 C 1152.2366 1229.3078 1145.7859 1229.0796 1137.5971 1229.0796 z "
       transform="translate(-34.716221,-99.12065)" />
    <path
       style="fill:#ff0000;stroke-width:1.33333"
       d="m 1208.7083,175.00128 c 8.0666,-1.24339 18.2666,-2.65444 22.6666,-3.13567 7.8818,-0.86203 7.8005,-0.88708 -5.5028,-1.69587 -16.163,-0.98264 -24.4316,-4.07996 -28.4756,-10.66661 -4.3571,-7.09648 -3.405,-8.0582 11.911,-12.03132 26.4306,-6.85641 41.3848,-7.31901 76.0674,-2.35311 4.7667,0.6825 10.4667,1.22763 12.6667,1.21143 l 4,-0.0295 -4.6667,-2.5777 c -11.7451,-6.48763 -32.5134,-9.35761 -86.6666,-11.97648 -42.6518,-2.06265 -49.1586,-3.71038 -63.2103,-16.00667 -6.3269,-5.53649 -8.4555,-6.59367 -14.8973,-7.39851 -14.6178,-1.82638 -39.9971,0.13889 -60.5591,4.68945 -10.6333,2.35326 -19.766,4.68946 -20.2947,5.19155 -0.5288,0.50209 -0.079,3.84563 1,7.43008 2.1269,7.06711 2.4663,24.10535 0.6925,34.76004 -0.6104,3.66667 -1.0009,6.79038 -0.8678,6.94159 0.1331,0.1512 8.8261,-2.07443 19.3178,-4.94584 23.882,-6.53613 37.4091,-8.54277 51.6143,-7.65653 17.3443,1.08206 20.2219,3.11945 27.7686,19.66078 1.2484,2.73631 2.7073,3.45274 8.1451,4 8.9403,0.89976 31.4126,-0.65541 49.2909,-3.41114 z"
       transform="translate(-34.716221,-99.12065)"
       id="path602" />
    <path
       style="fill:#0000ff;stroke-width:1.33333"
       d="m 1637.7229,368.85137 c -13.9014,-36.06103 -15.4762,-47.27597 -11.6694,-83.10561 1.0908,-10.26667 1.984,-18.96667 1.9849,-19.33334 9e-4,-0.36666 -12.748,-0.6772 -28.3309,-0.69008 -43.3119,-0.0357 -52.6595,-2.91774 -129.6659,-39.97693 -29.1276,-14.01759 -42.2977,-18.33407 -56.2869,-18.44785 -6.0244,-0.0489 -11.3271,0.28437 -11.7835,0.74082 -0.4564,0.45646 0.6727,5.22735 2.5092,10.60199 4.0819,11.94553 5.7119,23.01784 7.7199,52.43872 1.4581,21.36589 0.8688,65.4928 -0.9647,72.24107 l -0.7901,2.90773 7.7981,-2.15479 c 11.1763,-3.08826 31.1764,-2.99701 40.4647,0.18463 4.0333,1.38157 22.978,8.71533 42.0993,16.29723 19.1212,7.58189 40.7671,15.23837 48.1019,17.01438 21.002,5.08539 59.0314,9.54062 85.2813,9.99088 l 10.8159,0.18554 z"
       transform="translate(-34.716221,-99.12065)"
       id="path582" />
  </g>
</svg>
