<?xml version="1.0" encoding="UTF-8" standalone="no"?>
<!-- Created with Inkscape (http://www.inkscape.org/) -->

<svg
   version="1.1"
   id="svg1"
   width="669.03119"
   height="562.99969"
   viewBox="0 0 669.03119 562.99969"
   sodipodi:docname="Cake1c.svg"
   inkscape:version="1.3.2 (091e20ef0f, 2023-11-25)"
   xmlns:inkscape="http://www.inkscape.org/namespaces/inkscape"
   xmlns:sodipodi="http://sodipodi.sourceforge.net/DTD/sodipodi-0.dtd"
   xmlns="http://www.w3.org/2000/svg"
   xmlns:svg="http://www.w3.org/2000/svg">
  <defs
     id="defs1" />
  <sodipodi:namedview
     id="namedview1"
     pagecolor="#ffffff"
     bordercolor="#000000"
     borderopacity="0.25"
     inkscape:showpageshadow="2"
     inkscape:pageopacity="0.0"
     inkscape:pagecheckerboard="0"
     inkscape:deskcolor="#d1d1d1"
     showgrid="false"
     inkscape:zoom="0.51483051"
     inkscape:cx="375.85185"
     inkscape:cy="288.44444"
     inkscape:window-width="1920"
     inkscape:window-height="1011"
     inkscape:window-x="0"
     inkscape:window-y="0"
     inkscape:window-maximized="1"
     inkscape:current-layer="layer1" />
  <g
     inkscape:groupmode="layer"
     id="layer1"
     inkscape:label="Layer 1"
     transform="translate(-331.42298,-45.835202)"
     style="display:inline">
    <path
       style="display:inline;fill:#552200"
       d="m 553.87461,607.12722 c -3.95715,-3.094 -12.7506,-6.69723 -30.93449,-12.6758 -19.42115,-6.38535 -36.83646,-13.93808 -50.35644,-21.83874 -4.99602,-2.91953 -13.13368,-7.47653 -18.08368,-10.12666 -11.2447,-6.0202 -22.77604,-14.01186 -32.5,-22.52374 -4.125,-3.61082 -11.775,-10.10849 -17,-14.43926 -11.03842,-9.14926 -37.55005,-39.7666 -44.43484,-51.3162 -3.38123,-5.67221 -4.94627,-9.89513 -7.04149,-19 -1.4817,-6.43875 -3.17745,-12.83182 -3.76834,-14.20682 -0.64039,-1.49017 -1.21563,-13.00221 -1.42411,-28.5 -0.19236,-14.3 -0.74962,-33.65 -1.23835,-43 -0.87931,-16.8221 -0.0556,-38.40435 1.81296,-47.5 0.57464,-2.79722 0.5044,-23.23057 -0.18562,-54 -0.61053,-27.225 -1.01742,-60.1875 -0.90418,-73.25 0.16067,-18.5344 -0.071,-23.75892 -1.05508,-23.79064 -2.1788,-0.0702 -7.42337,-5.29239 -9.49993,-9.45936 -2.14748,-4.30929 -4.76027,-15.62014 -5.66379,-24.51882 -0.91254,-8.98734 1.85859,-27.29254 5.98722,-39.549767 2.96082,-8.79018 4.48025,-11.763898 7.75701,-15.181413 2.24123,-2.3375 4.45702,-4.25 4.92398,-4.25 0.46696,0 5.13595,-2.043787 10.37554,-4.541749 5.23958,-2.497962 10.95132,-4.786902 12.69276,-5.086534 1.74145,-0.299632 3.84126,-0.843345 4.66626,-1.208251 0.825,-0.364906 7.575,-0.672555 15,-0.683663 14.32712,-0.02143 26.39558,-1.891055 34.19177,-5.29692 2.36953,-1.035158 7.00823,-2.891369 10.30823,-4.124914 3.3,-1.233546 8.10842,-3.101221 10.68538,-4.150389 9.23902,-3.761522 15.95852,-2.18276 23.1778,5.445677 4.54828,4.80605 6.00757,5.673784 12.73676,7.573626 12.0784,3.410078 35.29589,4.651304 50.88238,2.720215 C 541.86705,67.794116 552,66.604467 557.5,66.003435 c 10.72607,-1.17213 18.72602,-2.810379 33,-6.757827 10.60551,-2.932938 23.76754,-4.098382 25.93839,-2.296738 0.7986,0.662779 2.17603,3.384892 3.06095,6.049141 2.29697,6.915519 3.90052,7.27327 22.16269,4.944463 C 649.82291,66.90179 661.9,65.112742 668.5,63.966812 c 6.6,-1.145931 16.2393,-2.28029 21.42066,-2.520797 5.18136,-0.240507 12.60636,-1.305341 16.5,-2.366297 13.30847,-3.626352 15.04827,-3.641429 21.53023,-0.186576 3.1924,1.701531 9.12193,3.72251 13.17674,4.491064 8.74687,1.657897 19.1383,0.551575 37.87237,-4.032078 9.84988,-2.409962 13.36536,-2.795781 24.5,-2.688837 11.13038,0.106902 14.11551,0.498487 20.75646,2.722808 10.48062,3.510377 17.11305,4.176717 22.74354,2.284974 2.475,-0.831556 8.55,-1.8259 13.5,-2.209654 9.8311,-0.762166 20.47337,-3.733607 32.82998,-9.16649 6.07637,-2.671625 9.77749,-3.618193 15.57056,-3.982207 l 7.59946,-0.47752 6.08629,5.38402 c 3.34746,2.961211 8.29746,6.207462 11,7.213893 2.70254,1.00643 5.34121,2.2207 5.86371,2.698379 1.28487,1.174647 7.22113,1.092824 15.65533,-0.215786 6.02036,-0.934092 7.33599,-0.856563 9.49744,0.559672 1.39536,0.914277 8.04793,2.467708 14.98803,3.499833 11.47358,1.70634 12.78468,2.124526 16.27273,5.190327 3.59242,3.157534 3.82599,3.7289 4.40187,10.768311 0.3345,4.088618 0.2124,8.17328 -0.27122,9.077027 -0.48367,0.903747 -1.18848,4.083514 -1.56624,7.066149 -0.37775,2.982633 -1.24675,6.097973 -1.9311,6.922973 -0.93337,1.1252 -1.31592,11.11999 -1.53098,40 -0.67889,91.16772 -2.34192,168.59045 -3.95229,184 -0.66099,6.325 -2.11173,13.975 -3.22387,17 -1.88864,5.13705 -2.01034,7.61173 -1.84422,37.5 0.20309,36.53932 -0.4793,42.0156 -6.70561,53.81357 -3.68636,6.98515 -3.8156,7.10323 -9.03344,8.2531 -2.91147,0.64162 -6.28647,2.04351 -7.5,3.11533 -4.04115,3.56923 -7.16102,4.99823 -12.20643,5.59094 -2.75,0.32306 -8.15,1.91105 -12,3.52888 -3.85,1.61782 -10.375,3.73906 -14.5,4.71387 -4.125,0.9748 -10.91028,3.47375 -15.07839,5.55322 -4.16812,2.07946 -10.46812,4.27763 -14,4.88481 -3.53189,0.60718 -10.65411,2.09643 -15.82716,3.30945 -9.2107,2.15979 -9.48001,2.30616 -13,7.06539 -4.88159,6.60019 -14.85029,11.54482 -29.40663,14.58613 -7.00672,1.46394 -14.16484,3.8151 -20.33784,6.68018 -5.23911,2.43164 -12.74863,5.14849 -16.68782,6.03744 -7.02299,1.58488 -25.27298,8.02003 -35.16216,12.39858 -19.56836,8.66411 -39.22957,16.27402 -71,27.48068 -23.42189,8.26181 -40.61417,15.62143 -58.42937,25.01228 -8.68633,4.57879 -19.71213,9.5469 -24.50177,11.04023 -9.39898,2.93045 -21.76521,10.08457 -31.51802,18.23383 l -5.76807,4.81968 -8.51678,0.18314 c -6.9648,0.14977 -8.94949,-0.15518 -10.89138,-1.67351 z"
       id="path1-5" />
    <path
       style="display:inline;fill:#ffaaaa"
       d="m 602,327.22064 c 3.025,-0.90501 7.38502,-3.15658 9.68894,-5.00349 3.7994,-3.04574 4.602,-3.29607 8.63073,-2.69192 4.37063,0.65542 14.26145,-0.737 18.18033,-2.55941 2.59469,-1.20661 9.95804,-3.03051 14.87418,-3.68433 2.58927,-0.34436 4.02841,-1.10499 4.33918,-2.29337 0.29494,-1.12787 2.16946,-2.21719 5.12581,-2.97873 2.56346,-0.66033 5.82915,-1.63351 7.25709,-2.16263 1.42794,-0.52912 3.69763,-0.68561 5.04375,-0.34776 1.74415,0.43776 2.98236,0.0233 4.30873,-1.44236 1.02368,-1.13115 2.75239,-2.05664 3.84158,-2.05664 1.08918,0 3.02295,-1.125 4.29726,-2.5 1.27431,-1.375 3.18331,-2.5 4.24223,-2.5 1.05891,0 2.50698,-0.70088 3.21792,-1.55752 0.71095,-0.85663 2.45355,-1.44447 3.87245,-1.30632 1.4189,0.13816 3.65228,-0.33388 4.96308,-1.04898 1.46973,-0.80181 3.843,-1.06676 6.19156,-0.69121 3.13575,0.50143 4.06548,0.24181 5.26455,-1.4701 1.26955,-1.81253 2.07828,-1.98947 6.30843,-1.38014 2.66871,0.38441 5.5707,1.32618 6.44887,2.09283 2.34615,2.04819 9.10166,0.47409 10.39046,-2.42107 0.78532,-1.76415 1.81774,-2.21749 5.05,-2.21749 2.23458,0 4.49037,-0.41388 5.01287,-0.91974 C 749.97312,284.70247 766.95446,280 770.50677,280 c 1.70128,0 3.59517,0.50194 4.20866,1.11543 0.82057,0.82057 1.9969,0.66511 4.45,-0.58811 1.83401,-0.93694 5.29685,-2.30983 7.69519,-3.05085 2.39834,-0.74102 5.01135,-2.27638 5.8067,-3.41189 0.79535,-1.13552 2.05887,-2.06458 2.80782,-2.06458 0.74896,0 2.31548,-1.54318 3.48116,-3.42929 1.16567,-1.8861 2.58868,-3.5857 3.16222,-3.77688 0.57355,-0.19119 1.36631,-1.91051 1.7617,-3.82072 l 0.71888,-3.47311 7.45045,-0.0465 c 5.50295,-0.0343 8.7494,-0.63314 12.41979,-2.2908 2.73314,-1.23437 8.13314,-2.75538 12,-3.38003 3.86686,-0.62466 7.53027,-1.7313 8.1409,-2.45921 0.61064,-0.72791 1.88275,-1.32347 2.82693,-1.32347 0.94417,0 3.01,-1.29332 4.59073,-2.87405 3.43086,-3.43086 6.46688,-4.15276 14.4721,-3.44114 5.62388,0.49993 6.25065,0.33294 9.99836,-2.66382 3.35505,-2.68278 4.57603,-3.10481 7.5888,-2.62304 2.95993,0.47331 4.00057,0.13756 5.92595,-1.91191 1.96937,-2.0963 3.24883,-2.48604 8.1612,-2.48604 4.31965,0 5.82569,-0.361 5.82569,-1.39641 0,-1.64081 5.78056,-6.92163 9.91954,-9.06198 1.5909,-0.82269 3.49468,-2.8561 4.23061,-4.5187 1.24271,-2.80746 1.71047,-3.02291 6.56317,-3.02291 6.84908,0 13.03611,-3.15606 14.89132,-7.5962 2.42259,-5.79808 8.94072,-8.62552 9.57581,-4.1538 0.22381,1.57591 0.91874,2.18166 2.31955,2.02191 8.05632,-0.91881 14.44579,-2.29348 17,-3.6575 1.65,-0.88115 4.4074,-1.60486 6.12756,-1.60825 3.34512,-0.007 4.93008,-1.29739 5.53305,-4.50616 0.29866,-1.58936 1.19336,-2.0121 4.35761,-2.05892 3.20515,-0.0474 4.20947,-0.53503 5.14914,-2.5 0.7997,-1.67227 1.27212,-13.46421 1.5,-37.44108 l 0.33264,-35 -9.44479,0.32203 c -5.19463,0.17712 -11.26963,0.95807 -13.5,1.73545 -2.23036,0.77738 -4.85683,1.41996 -5.83659,1.42797 -0.97977,0.008 -2.04041,0.68955 -2.35699,1.51455 -0.31659,0.825 -1.20246,1.5 -1.96862,1.5 -0.76615,0 -1.39301,0.45 -1.39301,1 0,0.55 -0.86734,1 -1.92742,1 -1.06008,0 -2.89994,1.2375 -4.08857,2.75 -1.18864,1.5125 -3.8088,3.21442 -5.82258,3.78204 -2.01379,0.56762 -3.66143,1.54262 -3.66143,2.16667 0,2.47105 -0.39392,2.58572 -17,4.94873 -2.2,0.31306 -4.675,1.13501 -5.5,1.82657 -0.825,0.69155 -2.66283,1.53264 -4.08406,1.86909 -1.42124,0.33644 -4.34624,2.01253 -6.5,3.72466 -5.64343,4.4862 -9.4105,5.77556 -17.89174,6.12381 -5.17333,0.21243 -7.51325,0.6975 -7.51771,1.55843 -0.004,0.84539 -1.86768,1.27477 -5.75649,1.32651 -3.1625,0.0421 -6.65,0.26812 -7.75,0.50231 -1.1,0.23419 -4.29997,0.54277 -7.11104,0.68572 -2.81107,0.14295 -5.73607,0.75806 -6.5,1.36689 -0.76393,0.60884 -3.6212,1.34624 -6.3495,1.63867 -3.3828,0.36258 -5.50116,1.19932 -6.66029,2.63079 C 841.9443,164.0554 840.75818,165 840.24335,165 c -2.20969,0 -7.54295,3.42968 -7.98967,5.13794 -0.32254,1.2334 -1.39431,1.86206 -3.17453,1.86206 -1.47817,0 -4.81632,1.35 -7.4181,3 -2.87036,1.82033 -6.06992,3 -8.13676,3 -1.87344,0 -3.68437,0.45 -4.02429,1 -0.33992,0.55 -2.153,1 -4.02908,1 -2.59626,0 -3.91796,0.68563 -5.53321,2.87038 -1.16719,1.5787 -3.88066,3.45073 -6.02993,4.16006 C 791.7585,187.73976 790,188.92309 790,189.66006 790,190.39703 789.31088,191 788.46862,191 c -0.84227,0 -1.78942,0.67242 -2.10479,1.49426 -0.31537,0.82184 -0.97942,1.24332 -1.47568,0.93661 -0.49625,-0.3067 -1.17224,0.14589 -1.5022,1.00575 -0.44937,1.17103 -2.06639,1.56338 -6.44325,1.56338 -4.38998,0 -6.07294,0.41031 -6.76654,1.6497 -0.59664,1.06615 -1.67508,1.45309 -3.04869,1.09388 -1.16902,-0.3057 -2.39946,-0.11251 -2.73432,0.42931 -0.36443,0.58965 -2.63638,0.70626 -5.65947,0.29048 -4.5491,-0.62566 -5.22573,-0.4625 -6.81398,1.64309 -1.65689,2.19659 -2.47745,2.34956 -13.59153,2.53383 -6.50549,0.10786 -12.67528,0.52894 -13.71064,0.93573 -1.04156,0.40923 -2.71064,0.22242 -3.73643,-0.4182 C 719.86142,203.52102 716.64336,203 713.72985,203 c -5.94626,0 -8.09694,1.17698 -24.74694,13.54299 -6.0465,4.49076 -13.1067,8.60519 -19.48291,11.35395 -5.5,2.37103 -11.11434,5.01629 -12.47631,5.87835 -1.73767,1.09986 -5.61535,1.66188 -13,1.88419 -15.88146,0.4781 -23.00492,0.98842 -23.71545,1.69894 -0.35286,0.35287 -1.27372,0.64158 -2.04634,0.64158 -0.77261,0 -2.1123,0.70755 -2.97708,1.57233 -0.98858,0.98857 -2.45025,1.35198 -3.93699,0.97883 -1.40508,-0.35265 -4.17615,0.23175 -6.82872,1.44013 -2.45523,1.11849 -7.17645,2.31712 -10.49159,2.66362 -4.23684,0.44284 -6.02752,1.05084 -6.02752,2.04656 0,0.77911 -0.43015,1.15072 -0.95588,0.8258 -0.52573,-0.32492 -2.0644,0.37308 -3.41926,1.55111 -1.99939,1.73845 -2.36002,2.77878 -1.91465,5.52329 0.31452,1.93812 0.0459,3.98726 -0.6293,4.80084 -0.80447,0.96933 -0.84553,1.62493 -0.12947,2.06748 1.62465,1.00409 1.25695,3.64705 -1.13596,8.16505 -2.04968,3.86996 -2.10451,4.49167 -0.85541,9.69852 0.92967,3.8753 1.12439,8.34896 0.64169,14.74316 -0.38114,5.04882 -0.3777,14.1622 0.008,20.25194 0.62383,9.85863 0.96446,11.33611 3.10763,13.47928 2.17959,2.17959 2.94442,2.34329 8.09499,1.73259 3.12839,-0.37093 8.16298,-1.41488 11.18798,-2.31989 z"
       id="path5" />
    <path
       style="display:inline;fill:#ffaaaa"
       d="m 592.55,469.08299 c 0.5225,-0.50436 5.45,-2.48116 10.95,-4.39289 12.10114,-4.20621 14.18105,-5.1252 22.48413,-9.93443 3.56627,-2.06562 7.4826,-3.75567 8.70295,-3.75567 1.22035,0 3.25249,-0.39979 4.51587,-0.88842 1.26338,-0.48864 5.64746,-1.40228 9.74241,-2.03032 4.7903,-0.73469 8.53466,-1.95303 10.5,-3.41649 1.68005,-1.25102 5.07964,-2.85288 7.55464,-3.55969 2.475,-0.7068 6.94241,-2.59459 9.92758,-4.19509 2.98517,-1.60049 6.92267,-2.90999 8.75,-2.90999 1.98909,0 4.12505,-0.80263 5.32242,-2 1.1,-1.1 2.63572,-2 3.41272,-2 0.77699,0 3.75872,-1.54503 6.62607,-3.4334 2.86734,-1.88837 7.06912,-3.74324 9.33728,-4.12194 2.26816,-0.37869 5.30624,-1.525 6.75128,-2.54736 1.44505,-1.02235 5.22755,-2.53609 8.40557,-3.36386 3.17801,-0.82777 6.4957,-2.0778 7.37264,-2.77785 1.54759,-1.23542 3.4477,-2.19651 13.28866,-6.72153 2.58182,-1.18716 5.73182,-2.95894 7,-3.93729 3.51831,-2.71425 6.6571,-3.14027 14.09115,-1.91257 l 6.80211,1.12335 3.20626,-3.03879 c 3.81988,-3.62035 10.21536,-6.15966 11.72116,-4.65386 1.61313,1.61313 12.9851,-4.22967 12.9851,-6.6716 0,-2.25305 -0.28721,-2.15882 7.5,-2.46079 3.3,-0.12797 6.675,-0.47071 7.5,-0.76165 0.825,-0.29095 2.35191,-0.80775 3.39313,-1.14846 1.04122,-0.34071 1.60762,-0.90498 1.25867,-1.25393 -0.87333,-0.87333 1.36879,-3.42378 2.43214,-2.76659 0.47153,0.29142 2.31321,-0.22302 4.09263,-1.14319 2.22758,-1.15192 3.35286,-1.32039 3.6127,-0.54087 0.52692,1.58075 4.17208,1.40078 7.57504,-0.37398 1.57537,-0.82161 4.72537,-1.49552 7,-1.49758 4.56281,-0.004 9.88794,-2.73056 11.60705,-5.94275 0.72283,-1.35061 2.09713,-2.05351 4.01503,-2.05351 4.75687,0 13.49243,-2.64591 17.87999,-5.41565 2.25163,-1.42139 4.49772,-2.58435 4.9913,-2.58435 0.49359,0 1.45763,-0.675 2.14232,-1.5 0.68469,-0.825 2.51323,-1.5 4.06343,-1.5 1.55019,0 3.09665,-0.45 3.43657,-1 0.33992,-0.55 1.73231,-1 3.0942,-1 1.36189,0 3.59661,-0.73414 4.96603,-1.63142 1.36943,-0.89728 3.9411,-1.92296 5.71482,-2.27929 1.96587,-0.39492 3.61034,-1.51487 4.21208,-2.86858 0.6555,-1.47467 1.86369,-2.22071 3.59636,-2.22071 2.98367,0 8.12288,-2.33881 9.93373,-4.52075 0.67522,-0.81359 1.80897,-1.47925 2.51945,-1.47925 0.71048,0 2.67622,-2.25 4.36831,-5 3.48747,-5.66786 5.99813,-6.3791 9.82551,-2.78346 3.17846,2.98601 5.91218,1.44137 5.44414,-3.07611 -0.36532,-3.52607 -0.75305,-3.37048 9.32537,-3.74201 7.59954,-0.28015 13.84907,-1.42883 17,-3.12464 1.1,-0.59201 4.025,-1.38018 6.5,-1.75148 7.33428,-1.1003 7.72485,-3.31675 8.57206,-48.64512 0.38675,-20.69255 0.37158,-38.15936 -0.0337,-38.81514 -0.55199,-0.89314 -1.15157,-0.81705 -2.38945,0.30321 -0.9089,0.82255 -2.88923,1.96573 -4.40072,2.5404 -1.51149,0.57466 -2.74817,1.68696 -2.74817,2.47177 0,0.78481 -1.35,1.89754 -3,2.47274 -1.65,0.57519 -3,1.51921 -3,2.09782 0,0.57861 -1.70485,1.05202 -3.78856,1.05202 -2.08371,0 -5.55385,0.9 -7.71144,2 -2.15759,1.1 -4.92618,2 -6.15242,2 -1.22625,0 -2.53264,0.49041 -2.90308,1.08981 -0.40126,0.64925 -2.0106,0.83897 -3.98104,0.46931 -1.88595,-0.3538 -3.58128,-0.1775 -3.9445,0.4102 C 945.16861,250.53619 943.81008,251 942.5,251 c -1.31008,0 -2.67865,0.48004 -3.04126,1.06676 -0.36261,0.58672 -2.07667,0.97131 -3.80902,0.85463 -6.56243,-0.44197 -8.82729,0.0417 -9.33782,1.99392 -0.59161,2.26231 -4.43157,3.43695 -8.39198,2.5671 -2.08713,-0.45841 -3.80919,0.0498 -6.60378,1.94874 -3.99414,2.71408 -6.2987,3.18629 -7.87199,1.613 -1.58724,-1.58724 -7.46694,2.8198 -8.12026,6.08641 -0.55291,2.76456 -0.78648,2.86944 -6.38987,2.86944 -3.19879,0 -6.11299,0.48056 -6.47599,1.06792 -0.36301,0.58735 -2.26613,0.92954 -4.22916,0.76041 -2.1896,-0.18864 -3.72886,0.17163 -3.98234,0.93209 -0.24408,0.73223 -2.18955,1.23958 -4.75327,1.23958 -3.42003,0 -5.31208,0.74195 -8.92532,3.5 -2.52188,1.925 -5.23084,3.5 -6.01989,3.5 -0.78905,0 -2.1082,0.96164 -2.93144,2.13698 -1.15883,1.65446 -2.15671,2.005 -4.4194,1.55246 -1.93671,-0.38734 -4.17875,0.0888 -6.6464,1.41132 -2.85348,1.52938 -4.73457,1.84427 -8.04848,1.34732 -3.73861,-0.56064 -4.47701,-0.36391 -5.44869,1.4517 -0.80412,1.5025 -2.09329,2.10022 -4.52981,2.10022 -1.87319,0 -3.64638,0.38928 -3.94043,0.86506 -0.29405,0.47578 -2.38054,1.11265 -4.63664,1.41525 -2.25609,0.30261 -4.85456,1.22849 -5.77438,2.05752 -2.2568,2.03407 -9.61449,4.69302 -15.44615,5.582 -2.62557,0.40024 -5.30307,1.25701 -5.95,1.90394 C 786.1293,303.4707 784.36656,304 782.85902,304 c -1.50754,0 -3.0191,0.45 -3.35902,1 -0.33992,0.55 -1.51296,1 -2.60677,1 -1.0938,0 -3.08484,1.18273 -4.42454,2.62829 -1.93373,2.08652 -3.04236,2.50698 -5.37836,2.03978 -3.12215,-0.62443 -9.09033,1.68774 -9.09033,3.52175 0,0.59228 -1.15829,0.82191 -2.67922,0.53117 -1.77081,-0.33851 -3.88991,0.26332 -6.25,1.77503 -2.35626,1.50926 -5.70929,2.46303 -9.85814,2.80415 -3.45805,0.28432 -6.96822,1.08202 -7.80039,1.77265 -0.83216,0.69064 -4.07785,1.33169 -7.21264,1.42457 -4.77859,0.14157 -7.78062,1.18707 -18.5776,6.46991 -7.0829,3.46558 -14.3954,6.69068 -16.25,7.16688 -1.85461,0.4762 -4.95717,1.27072 -6.89458,1.7656 -1.93742,0.49488 -4.74992,1.72013 -6.25,2.72277 C 671.80388,343.57921 663.97036,347 661.62321,347 c -1.19801,0 -3.18305,0.70383 -4.4112,1.56406 -1.28013,0.89664 -3.08197,1.2946 -4.22251,0.93261 -1.09422,-0.3473 -1.9895,-0.2022 -1.9895,0.32244 0,0.52464 -1.2375,1.20228 -2.75,1.50586 -1.5125,0.30359 -4.775,1.01006 -7.25,1.56995 -2.475,0.55989 -6.88787,1.03758 -9.80637,1.06153 -4.50652,0.037 -5.7124,0.47303 -8,2.89277 -1.4815,1.56707 -3.48113,3.12794 -4.44363,3.46861 -0.9625,0.34067 -1.75,1.3296 -1.75,2.19762 0,1.25415 -1.07806,1.55086 -5.25,1.44496 -7.49757,-0.19032 -21.72464,1.60224 -25.25,3.18141 -6.50965,2.91597 -7.01249,4.00781 -6.75169,14.66035 0.13058,5.33381 -0.45875,15.05829 -1.30961,21.60996 -1.2171,9.37169 -1.29557,12.5192 -0.36792,14.75874 0.80308,1.93881 0.95304,5.63427 0.47022,11.58787 -0.38988,4.8077 -0.73197,10.54126 -0.76021,12.74126 -0.088,6.86128 2.21689,19.57514 4.2831,23.62523 1.76903,3.46759 2.37395,3.87477 5.75643,3.87477 2.07883,0 4.20718,-0.41266 4.72968,-0.91701 z"
       id="path4" />
    <path
       style="display:inline;fill:#ffaaaa"
       d="m 591.92998,588.65795 c 2.4365,-1.65093 8.38931,-4.24301 13.22849,-5.76017 9.1811,-2.87843 39.77768,-18.0323 41.06969,-20.34099 0.40904,-0.73091 2.2662,-1.61455 4.12703,-1.96364 1.86082,-0.3491 7.46273,-2.37829 12.44868,-4.50932 4.98595,-2.13104 14.71535,-5.75747 21.62089,-8.05876 6.90553,-2.30128 12.81151,-4.59835 13.1244,-5.10461 0.31288,-0.50625 1.60663,-0.92046 2.875,-0.92046 1.26837,0 3.40852,-0.86715 4.75589,-1.92699 1.34738,-1.05984 5.50219,-2.91312 9.23291,-4.11839 3.73073,-1.20528 13.82652,-5.10613 22.43509,-8.66856 17.4555,-7.2235 16.45207,-6.85394 31.69723,-11.67401 6.07491,-1.92071 15.01896,-5.09416 19.87568,-7.05212 4.85672,-1.95796 9.25267,-3.55993 9.76879,-3.55993 0.51612,0 3.49707,-1.18927 6.62433,-2.64282 C 811.354,499.31742 823.0434,496 827.21449,496 c 1.56736,0 4.52279,-0.70009 6.56763,-1.55576 2.04483,-0.85566 7.09288,-2.7175 11.21788,-4.13741 7.88717,-2.71492 11.45898,-4.95019 13.97815,-8.74769 3.50835,-5.28861 7.92965,-7.73643 19.26308,-10.66487 C 884.40191,469.30242 891.17249,468 893.28697,468 c 2.11448,0 4.73823,-0.4783 5.83054,-1.06289 1.09232,-0.58459 5.22523,-1.91965 9.18426,-2.96679 7.11054,-1.88071 19.45138,-6.76309 27.5923,-10.91628 2.30434,-1.17559 6.75836,-2.59376 9.89782,-3.15149 8.16233,-1.45005 8.56233,-1.61259 13.36532,-5.43078 3.05342,-2.42736 5.38194,-3.45979 7.84279,-3.47738 1.925,-0.0138 3.97972,-0.35562 4.56604,-0.7597 1.79959,-1.24023 8.26206,-16.42222 9.37911,-22.03391 1.33533,-6.70827 1.43411,-71.84835 0.1102,-72.66657 -0.51956,-0.32111 -3.15683,0.77733 -5.8606,2.44098 -2.70377,1.66364 -5.62712,3.02481 -6.49633,3.02481 -0.86921,0 -1.8585,0.45 -2.19842,1 -0.33992,0.55 -1.87173,1 -3.40403,1 -1.53718,0 -3.61624,0.91741 -4.63821,2.04667 -1.01871,1.12567 -3.45096,2.77373 -5.40499,3.66235 -1.95402,0.88863 -4.67777,2.61312 -6.05277,3.83222 -1.375,1.21909 -4.075,2.49846 -6,2.84305 -1.925,0.34459 -4.78894,1.29909 -6.36431,2.12112 -1.57537,0.82202 -3.47749,1.49459 -4.22694,1.49459 -0.74946,0 -2.09977,1.125 -3.00071,2.5 -0.90093,1.375 -2.22678,2.5 -2.94632,2.5 -0.71955,0 -2.64526,1.125 -4.27935,2.5 -1.6341,1.375 -3.88215,2.5 -4.99569,2.5 -1.11353,0 -3.29857,0.63195 -4.85564,1.40433 -3.48271,1.72759 -9.34965,3.21382 -19.91235,5.04426 -7.41055,1.28419 -10.87111,2.20479 -23.20364,6.17274 -5.04839,1.62431 -7.86535,1.75351 -8.70239,0.39915 -0.35999,-0.58246 -1.29597,-0.63028 -2.30902,-0.11795 -0.937,0.47386 -4.84276,1.83687 -8.67947,3.02891 -3.83671,1.19203 -7.66171,2.78411 -8.5,3.53795 -0.83829,0.75383 -5.22727,2.31379 -9.75327,3.46656 -9.49834,2.41924 -13.94745,5.13312 -19.95695,12.17344 -2.36414,2.76966 -6.21443,6.61172 -8.55619,8.53792 -2.34177,1.9262 -4.76813,4.15827 -5.39193,4.96016 -0.83811,1.07739 -4.36207,1.60279 -13.5,2.01278 -7.52562,0.33765 -13.50237,1.10768 -15.26947,1.96728 -1.597,0.77686 -3.57875,1.41247 -4.4039,1.41247 -2.2139,0 -13.98008,6.79808 -15.03795,8.68839 -0.61363,1.0965 -2.74314,1.77881 -6.53246,2.09305 -3.09213,0.25642 -5.62205,0.8605 -5.62205,1.34239 0,0.48189 -0.94284,0.87617 -2.09519,0.87617 -1.15236,0 -4.59368,1.37119 -7.64739,3.04708 -4.04953,2.22242 -6.3066,2.88139 -8.33966,2.43486 -2.01346,-0.44223 -3.32876,-0.0709 -4.73686,1.33716 -2.80313,2.80313 -8.29509,4.34618 -12.86683,3.61513 -3.50223,-0.56003 -4.14893,-0.3352 -5.65722,1.96673 -0.93663,1.42947 -2.53748,2.59904 -3.55746,2.59904 -1.01997,0 -2.38779,0.64258 -3.0396,1.42796 C 685.37251,464.46101 676.40622,469 674.07742,469 c -1.07766,0 -2.25466,-0.47776 -2.61554,-1.06168 -1.72225,-2.78665 -5.51911,-2.94301 -10.47554,-0.4314 -2.70592,1.37119 -5.99007,2.49308 -7.29811,2.49308 -1.30804,0 -3.14769,0.85022 -4.08812,1.88938 -1.17672,1.30026 -3.77255,2.11027 -8.32519,2.59782 -6.26242,0.67065 -8.81122,1.53123 -12.27492,4.14452 -0.825,0.62245 -2.625,1.45959 -4,1.86031 -1.375,0.40073 -3.93164,2.08732 -5.68141,3.74797 -2.44101,2.31669 -3.81678,2.89792 -5.91151,2.49749 -2.49599,-0.47714 -7.52197,1.53859 -11.11779,4.45891 -0.66588,0.5408 -3.14088,0.83034 -5.5,0.64343 -3.83975,-0.30421 -4.32362,-0.0976 -4.61685,1.97132 -0.18016,1.27113 -0.96766,2.55678 -1.75,2.85699 C 589.59184,496.98687 589,498.58122 589,500.5 c 0,1.99842 -0.58776,3.51157 -1.5,3.86163 -0.98343,0.37738 -1.5,1.9375 -1.5,4.53026 0,2.75935 -0.75563,4.85268 -2.5,6.92574 -1.56203,1.85637 -2.5,4.20991 -2.5,6.27298 0,1.94463 -1.09119,4.87648 -2.65461,7.13249 -2.21883,3.20178 -2.47148,4.19555 -1.53906,6.05375 0.61355,1.22273 1.61056,7.62315 2.21557,14.22315 0.85151,9.28895 1.67799,13.18608 3.65829,17.25 1.40704,2.8875 2.95461,5.25 3.43904,5.25 0.48442,0 0.88077,2.00917 0.88077,4.46482 0,3.50063 -0.44982,4.70555 -2.08296,5.57958 -1.97107,1.05488 -1.99152,1.21582 -0.38072,2.99574 1.09201,1.20665 1.54511,2.95166 1.26391,4.8676 -0.48287,3.29004 -0.60787,3.31553 6.12975,-1.24979 z"
       id="path3" />
    <path
       style="display:inline;fill:#000000"
       d="m 553.87461,607.12722 c -3.95715,-3.094 -12.7506,-6.69723 -30.93449,-12.6758 -19.42115,-6.38535 -36.83646,-13.93808 -50.35644,-21.83874 -4.99602,-2.91953 -13.13368,-7.47653 -18.08368,-10.12666 -11.2447,-6.0202 -22.77604,-14.01186 -32.5,-22.52374 -4.125,-3.61082 -11.775,-10.10849 -17,-14.43926 -11.03842,-9.14926 -37.55005,-39.7666 -44.43484,-51.3162 -3.38123,-5.67221 -4.94627,-9.89513 -7.04149,-19 -1.4817,-6.43875 -3.17745,-12.83182 -3.76834,-14.20682 -0.64039,-1.49017 -1.21563,-13.00221 -1.42411,-28.5 -0.19236,-14.3 -0.74962,-33.65 -1.23835,-43 -0.87931,-16.8221 -0.0556,-38.40435 1.81296,-47.5 0.57464,-2.79722 0.5044,-23.23057 -0.18562,-54 -0.61053,-27.225 -1.01742,-60.1875 -0.90418,-73.25 0.16067,-18.5344 -0.071,-23.75892 -1.05508,-23.79064 -2.1788,-0.0702 -7.42337,-5.29239 -9.49993,-9.45936 -2.14748,-4.30929 -4.76027,-15.62014 -5.66379,-24.51882 -0.91254,-8.98734 1.85859,-27.29254 5.98722,-39.549767 2.96082,-8.79018 4.48025,-11.763898 7.75701,-15.181413 2.24123,-2.3375 4.45702,-4.25 4.92398,-4.25 0.46696,0 5.13595,-2.043787 10.37554,-4.541749 5.23958,-2.497962 10.95132,-4.786902 12.69276,-5.086534 1.74145,-0.299632 3.84126,-0.843345 4.66626,-1.208251 0.825,-0.364906 7.575,-0.672555 15,-0.683663 14.32712,-0.02143 26.39558,-1.891055 34.19177,-5.29692 2.36953,-1.035158 7.00823,-2.891369 10.30823,-4.124914 3.3,-1.233546 8.10842,-3.101221 10.68538,-4.150389 9.23902,-3.761522 15.95852,-2.18276 23.1778,5.445677 4.54828,4.80605 6.00757,5.673784 12.73676,7.573626 12.0784,3.410078 35.29589,4.651304 50.88238,2.720215 C 541.86705,67.794116 552,66.604467 557.5,66.003435 c 10.72607,-1.17213 18.72602,-2.810379 33,-6.757827 10.60551,-2.932938 23.76754,-4.098382 25.93839,-2.296738 0.7986,0.662779 2.17603,3.384892 3.06095,6.049141 2.29697,6.915519 3.90052,7.27327 22.16269,4.944463 C 649.82291,66.90179 661.9,65.112742 668.5,63.966812 c 6.6,-1.145931 16.2393,-2.28029 21.42066,-2.520797 5.18136,-0.240507 12.60636,-1.305341 16.5,-2.366297 13.30847,-3.626352 15.04827,-3.641429 21.53023,-0.186576 3.1924,1.701531 9.12193,3.72251 13.17674,4.491064 8.74687,1.657897 19.1383,0.551575 37.87237,-4.032078 9.84988,-2.409962 13.36536,-2.795781 24.5,-2.688837 11.13038,0.106902 14.11551,0.498487 20.75646,2.722808 10.48062,3.510377 17.11305,4.176717 22.74354,2.284974 2.475,-0.831556 8.55,-1.8259 13.5,-2.209654 9.8311,-0.762166 20.47337,-3.733607 32.82998,-9.16649 6.07637,-2.671625 9.77749,-3.618193 15.57056,-3.982207 l 7.59946,-0.47752 6.08629,5.38402 c 3.34746,2.961211 8.29746,6.207462 11,7.213893 2.70254,1.00643 5.34121,2.2207 5.86371,2.698379 1.28487,1.174647 7.22113,1.092824 15.65533,-0.215786 6.02036,-0.934092 7.33599,-0.856563 9.49744,0.559672 1.39536,0.914277 8.04793,2.467708 14.98803,3.499833 11.47358,1.70634 12.78468,2.124526 16.27273,5.190327 3.59242,3.157534 3.82599,3.7289 4.40187,10.768311 0.3345,4.088618 0.2124,8.17328 -0.27122,9.077027 -0.48367,0.903747 -1.18848,4.083514 -1.56624,7.066149 -0.37775,2.982633 -1.24675,6.097973 -1.9311,6.922973 -0.93337,1.1252 -1.31592,11.11999 -1.53098,40 -0.67889,91.16772 -2.34192,168.59045 -3.95229,184 -0.66099,6.325 -2.11173,13.975 -3.22387,17 -1.88864,5.13705 -2.01034,7.61173 -1.84422,37.5 0.20309,36.53932 -0.4793,42.0156 -6.70561,53.81357 -3.68636,6.98515 -3.8156,7.10323 -9.03344,8.2531 -2.91147,0.64162 -6.28647,2.04351 -7.5,3.11533 -4.04115,3.56923 -7.16102,4.99823 -12.20643,5.59094 -2.75,0.32306 -8.15,1.91105 -12,3.52888 -3.85,1.61782 -10.375,3.73906 -14.5,4.71387 -4.125,0.9748 -10.91028,3.47375 -15.07839,5.55322 -4.16812,2.07946 -10.46812,4.27763 -14,4.88481 -3.53189,0.60718 -10.65411,2.09643 -15.82716,3.30945 -9.2107,2.15979 -9.48001,2.30616 -13,7.06539 -4.88159,6.60019 -14.85029,11.54482 -29.40663,14.58613 -7.00672,1.46394 -14.16484,3.8151 -20.33784,6.68018 -5.23911,2.43164 -12.74863,5.14849 -16.68782,6.03744 -7.02299,1.58488 -25.27298,8.02003 -35.16216,12.39858 -19.56836,8.66411 -39.22957,16.27402 -71,27.48068 -23.42189,8.26181 -40.61417,15.62143 -58.42937,25.01228 -8.68633,4.57879 -19.71213,9.5469 -24.50177,11.04023 -9.39898,2.93045 -21.76521,10.08457 -31.51802,18.23383 l -5.76807,4.81968 -8.51678,0.18314 c -6.9648,0.14977 -8.94949,-0.15518 -10.89138,-1.67351 z m 21.35029,-7.8504 C 581.86291,592.68968 584.05666,588 580.5,588 c -3.08699,0 -1.11746,-7.1275 2.72215,-9.85115 1.65457,-1.17367 1.72106,-1.56772 0.50622,-3 -5.32197,-6.27451 -6.21461,-9.28905 -6.72837,-22.72239 -0.4168,-10.89805 -0.80413,-13.37732 -2.32765,-14.89908 -1.21409,-1.21269 -1.60234,-2.53083 -1.15651,-3.92646 0.36913,-1.1555 0.91146,-3.45092 1.20518,-5.10092 0.29372,-1.65 1.37665,-3.80503 2.40651,-4.78896 1.19414,-1.14088 1.87247,-3.1797 1.87247,-5.62802 0,-2.76791 0.57554,-4.22188 2.06273,-5.21105 1.37356,-0.91358 2.25396,-2.87547 2.63506,-5.87197 0.31477,-2.475 0.90287,-4.95 1.30687,-5.5 0.40401,-0.55 1.03048,-2.64405 1.39215,-4.65345 0.36167,-2.0094 1.32035,-3.90777 2.13039,-4.21861 0.81004,-0.31085 1.4728,-1.20615 1.4728,-1.98957 0,-1.73919 1.90403,-2.53381 8.80452,-3.67444 4.433,-0.73277 15.40079,-5.13709 22.43191,-9.00796 C 622.19147,477.43018 623.472,477 624.08206,477 c 0.61006,0 2.30631,-0.85242 3.76945,-1.89426 1.57669,-1.12271 5.38485,-2.18605 9.34949,-2.61062 4.61922,-0.49468 7.21837,-1.30104 8.39911,-2.60574 0.94043,-1.03916 2.77795,-1.88938 4.08339,-1.88938 1.30545,0 5.10979,-1.38126 8.45411,-3.06947 5.07818,-2.56345 6.75688,-2.9552 10.18303,-2.37636 2.25635,0.38121 4.87511,1.17564 5.81948,1.76541 2.01706,1.25968 8.40545,-1.66511 9.98097,-4.56958 0.5221,-0.9625 1.69194,-1.75 2.59964,-1.75 0.9077,0 2.72793,-1.0125 4.04496,-2.25 1.81625,-1.70658 3.64823,-2.26854 7.58524,-2.32676 2.93674,-0.0434 6.26718,-0.77186 7.66986,-1.67753 3.77719,-2.43885 7.01547,-3.56422 12.2124,-4.24405 2.60325,-0.34054 5.07825,-1.20208 5.5,-1.91454 0.42175,-0.71246 2.11681,-1.60617 3.76681,-1.98601 1.65,-0.37984 4.575,-1.04768 6.5,-1.48407 1.925,-0.4364 7.96785,-3.16197 13.42856,-6.05682 12.90758,-6.84261 16.65713,-7.89077 31.07144,-8.68585 11.61556,-0.6407 12.10956,-0.76142 15.41988,-3.76814 5.61799,-5.10274 10.42774,-9.89336 13.66055,-13.60623 5.69847,-6.54464 8.70444,-8.02986 24.24268,-11.97798 1.82771,-0.46441 4.11315,-1.55935 5.07874,-2.4332 0.9656,-0.87385 2.3952,-1.59021 3.17689,-1.5919 0.78169,-0.002 4.54546,-1.5767 8.36393,-3.5 7.85835,-3.95814 8.71055,-4.09786 11.96968,-1.96239 1.73065,1.13396 2.96137,1.28067 4.71482,0.56203 3.87262,-1.58718 15.89696,-4.75746 22.87283,-6.03054 7.50516,-1.36968 16.11719,-3.74923 20.65113,-5.70603 C 910.38425,376.612 912.32677,376 912.96785,376 c 0.64108,0 2.64054,-1.125 4.44326,-2.5 1.80272,-1.375 3.79388,-2.5 4.42481,-2.5 0.63092,0 1.70919,-0.9 2.39615,-2 0.68696,-1.1 1.95078,-2 2.80848,-2 0.8577,0 1.98695,-0.38714 2.50945,-0.86031 0.5225,-0.47318 3.425,-1.68924 6.45,-2.70237 3.025,-1.01313 6.4,-2.57685 7.5,-3.47493 1.1,-0.89808 3.59953,-2.36138 5.5545,-3.25178 1.95498,-0.8904 4.79066,-2.76454 6.30152,-4.16476 C 956.86688,351.14563 959.1783,350 960.4925,350 c 1.31421,0 2.66758,-0.45 3.0075,-1 0.33992,-0.55 1.76422,-1 3.16511,-1 1.4009,0 4.2516,-1.35 6.33489,-3 2.52021,-1.99604 4.92023,-3 7.17166,-3 2.20444,0 4.01312,-0.73492 5.18925,-2.10854 1.77892,-2.07764 4.3617,-14.50218 3.24649,-15.61739 -1.12784,-1.12784 -8.158,-0.85131 -10.80774,0.42512 -1.48519,0.71545 -3.73519,1.30249 -5,1.30455 -1.26481,0.002 -3.79448,0.91509 -5.62147,2.02897 -1.827,1.11388 -5.33101,2.30063 -7.78669,2.63722 -3.65333,0.50074 -4.73364,0.26827 -5.94353,-1.27898 -1.38419,-1.77015 -1.43816,-1.7127 -0.84479,0.89934 0.89991,3.96145 -1.83894,6.70971 -6.68674,6.70971 -2.07547,0 -4.44858,-0.675 -5.27358,-1.5 -2.0955,-2.0955 -2.30664,-1.99286 -5.14286,2.5 -1.3888,2.2 -3.20857,4 -4.04393,4 -0.83536,0 -1.77362,0.66394 -2.08501,1.47543 -0.57909,1.50906 -5.77922,4.52457 -7.80246,4.52457 -0.61826,0 -1.88417,0.88767 -2.81311,1.9726 -0.92895,1.08494 -2.94146,2.22844 -4.47225,2.54111 -1.53078,0.31268 -4.58324,1.45126 -6.78324,2.53018 -2.2,1.07891 -4.9,1.97473 -6,1.99069 -1.1,0.016 -2.87351,0.68972 -3.94113,1.49722 -1.06762,0.80751 -2.95356,1.4682 -4.19098,1.4682 -1.23742,0 -2.52797,0.45 -2.86789,1 -0.33992,0.55 -1.2965,1 -2.12574,1 -0.82924,0 -2.99537,1.1347 -4.81363,2.52155 C 880.1043,367.15782 870.9842,370 865.98115,370 c -2.05451,0 -3.54864,0.84856 -5.03572,2.85993 -2.45201,3.31653 -10.14918,7.09394 -14.46595,7.0992 -1.63871,0.002 -6.41685,0.28367 -10.61807,0.62593 -6.92759,0.56436 -7.83791,0.89188 -9.77994,3.51861 -1.17774,1.59298 -3.00132,2.89633 -4.05239,2.89633 -1.05108,0 -2.21581,0.49312 -2.5883,1.09581 -0.42432,0.68658 -2.25609,0.85905 -4.9049,0.46184 -3.18486,-0.4776 -4.54669,-0.24955 -5.5211,0.92454 -0.7114,0.85719 -5.11513,3.42561 -9.78607,5.7076 -7.35123,3.59146 -8.86704,4.00774 -11.27868,3.09745 -2.49682,-0.94244 -3.11785,-0.70931 -5.98185,2.24559 -2.63802,2.72175 -4.21379,3.41536 -9.02862,3.97419 -3.20807,0.37233 -6.38524,0.33557 -7.06038,-0.0817 -1.71718,-1.06128 -7.91776,-0.94888 -8.71716,0.158 -0.36411,0.50417 -1.56202,1.39981 -2.66202,1.99031 -4.6223,2.48135 -8.23572,4.30361 -12,6.05164 -2.2,1.02162 -4.7175,2.43026 -5.59444,3.13031 -0.87694,0.70005 -4.19463,1.95008 -7.37264,2.77785 -3.17802,0.82777 -6.96052,2.33404 -8.40557,3.34726 -1.44504,1.01323 -4.33731,2.15417 -6.42727,2.53544 -4.15249,0.75753 -11.74062,4.48154 -14.25493,6.99585 -0.8734,0.87341 -2.30793,1.58801 -3.18784,1.58801 -0.8799,0 -2.31026,0.59941 -3.17857,1.33202 -0.86831,0.7326 -4.4591,1.84291 -7.97954,2.46735 -3.60525,0.63948 -7.31763,1.98158 -8.5,3.07292 -1.15456,1.06567 -4.1242,2.51815 -6.5992,3.22774 -2.475,0.70958 -5.87459,2.31372 -7.55464,3.56474 -1.97016,1.46705 -5.69796,2.67728 -10.5,3.40883 -4.09495,0.62383 -8.92313,1.76247 -10.72929,2.53032 -1.80616,0.76784 -4.28116,1.39776 -5.5,1.39982 -1.21884,0.002 -3.79107,0.97079 -5.71607,2.15274 -6.5834,4.04223 -12.75749,6.82648 -23.12718,10.42938 -5.70505,1.98218 -10.96315,4.08946 -11.68466,4.68282 -0.72151,0.59337 -4.28799,1.11316 -7.9255,1.15509 -6.32292,0.0729 -6.69137,-0.0557 -8.3813,-2.92377 -3.26987,-5.54955 -4.61387,-19.66472 -3.90387,-41 0.10982,-3.3 -0.11447,-8.18741 -0.49842,-10.8609 -0.38492,-2.68019 -0.13423,-9.18523 0.55878,-14.5 0.69128,-5.30151 1.30306,-15.2266 1.35951,-22.05576 0.0757,-9.16101 0.44008,-12.52914 1.38959,-12.84565 0.70782,-0.23594 2.57278,-1.51095 4.14435,-2.83334 2.37031,-1.99448 3.95532,-2.40435 9.2979,-2.40435 3.54894,0 9.09618,-0.84593 12.35564,-1.88418 3.25334,-1.0363 7.24606,-2.19331 8.87271,-2.57114 1.62665,-0.37783 4.6923,-2.25422 6.81256,-4.16975 3.41795,-3.08791 4.44316,-3.46951 9.04246,-3.36574 7.3902,0.16674 16.90736,-1.86078 18.76894,-3.9985 1.11589,-1.28141 3.02958,-1.82733 6.5,-1.85423 4.87935,-0.0378 11.02698,-2.40982 19.82608,-7.64967 2.14918,-1.27983 5.97418,-2.63292 8.5,-3.00686 2.52583,-0.37395 11.34241,-3.94936 19.59241,-7.94537 16.14521,-7.82017 21.13048,-9.30057 32,-9.50256 5.62057,-0.10444 7.73476,-0.61504 10.72856,-2.59104 2.05071,-1.35353 4.13311,-2.46096 4.62756,-2.46096 0.49444,0 1.49099,-0.71332 2.21455,-1.58516 0.83985,-1.01195 2.36404,-1.43127 4.21508,-1.15959 1.88218,0.27624 3.0888,-0.0677 3.43903,-0.98042 0.39215,-1.02193 1.54045,-1.23687 4.20394,-0.78687 2.92679,0.49448 4.03851,0.20573 5.52284,-1.43443 1.02213,-1.12944 2.66211,-2.05353 3.64441,-2.05353 0.9823,0 2.06411,-0.45 2.40403,-1 0.33992,-0.55 1.82898,-1.01431 3.30902,-1.0318 1.48004,-0.0175 3.51998,-0.65995 4.53321,-1.42769 1.01323,-0.76773 3.71323,-1.6971 6,-2.06525 6.53533,-1.05215 14.04427,-3.60874 15.35187,-5.22691 2.03308,-2.51596 5.86208,-4.00046 12.22249,-4.73867 4.11793,-0.47794 6.51401,-1.28636 7.34995,-2.47983 1.60498,-2.29143 9.26857,-3.66056 11.25621,-2.01097 1.15514,0.95868 1.57181,0.89828 2.02941,-0.29421 0.31671,-0.82532 2.68453,-2.03508 5.26183,-2.68835 2.57731,-0.65327 5.4674,-1.60368 6.42244,-2.11204 0.95504,-0.50835 2.39435,-0.92428 3.19848,-0.92428 0.80413,0 2.67132,-1.12072 4.14932,-2.49048 2.57243,-2.38405 8.00931,-4.49211 11.61608,-4.50394 0.93517,-0.003 2.06017,-0.58757 2.5,-1.29889 1.33939,-2.16614 8.43846,-3.78447 15.29969,-3.48777 6.06215,0.26215 6.52135,0.13086 6.81694,-1.94899 0.43793,-3.0814 4.43793,-5.96824 9.44066,-6.81345 2.3093,-0.39016 5.10855,-1.26131 6.22056,-1.93591 1.11201,-0.6746 4.63031,-1.8196 7.81844,-2.54445 3.18813,-0.72485 6.02719,-1.69101 6.30902,-2.14701 0.28183,-0.456 1.39998,-0.8291 2.48478,-0.8291 1.0848,0 2.20495,-0.60611 2.48922,-1.3469 0.38381,-1.0002 2.8081,-1.32196 9.41796,-1.25 5.90385,0.0643 9.32224,-0.32401 10.15176,-1.1531 0.68786,-0.6875 3.29816,-1.26431 5.80066,-1.2818 2.5025,-0.0175 5.42351,-0.6925 6.49113,-1.5 1.06762,-0.80751 3.18929,-1.4682 4.71482,-1.4682 1.75023,0 3.16863,-0.73798 3.84405,-2 0.61678,-1.15246 2.09382,-2 3.48549,-2 1.32832,0 2.77499,-0.62657 3.21482,-1.39237 0.43983,-0.76581 2.37469,-2.12379 4.29969,-3.01773 1.925,-0.89395 4.625,-2.2677 6,-3.05277 1.375,-0.78508 3.2875,-1.66298 4.25,-1.95089 1.41289,-0.42263 1.75,-1.67395 1.75,-6.49584 0,-3.2848 0.45,-6.25048 1,-6.5904 1.23997,-0.76634 1.30195,-16.47459 0.0727,-18.41667 -0.9378,-1.48159 -6.87347,-1.94251 -8.89848,-0.69098 -0.6458,0.39913 -1.17418,1.55098 -1.17418,2.55968 0,2.07124 -1.88874,3.04797 -5.89396,3.04797 -1.50171,0 -4.62143,0.91366 -6.93272,2.03035 -2.31128,1.11669 -5.65831,1.97251 -7.43783,1.90182 -1.77952,-0.0707 -4.80752,0.36565 -6.72889,0.96965 C 950.09415,208.44609 947,208.29081 947,206.5 c 0,-0.825 -0.30207,-1.5 -0.67126,-1.5 -1.56345,0 -4.32874,3.47479 -4.32874,5.43938 0,1.94535 -4.67206,5.80076 -6.72524,5.54971 -0.42612,-0.0521 -3.61965,0.20993 -7.09673,0.58229 -5.34392,0.57229 -6.45654,1.03095 -7.19175,2.9647 -0.47837,1.25823 -2.80849,3.63403 -5.17803,5.27957 -2.36954,1.64554 -5.84555,4.37962 -7.72448,6.07573 -2.41546,2.18044 -4.8387,3.27253 -8.27196,3.72797 -3.65349,0.48465 -5.45329,1.3543 -7.26921,3.51239 -2.45239,2.91451 -4.92375,3.6786 -6.0426,1.86826 -1.04379,-1.68889 -3.65313,-1.12058 -7.16952,1.5615 -3.0714,2.34267 -4.0979,2.54371 -12.01588,2.35328 l -8.65758,-0.20822 -3.13154,3.39672 c -4.00749,4.34686 -6.38579,5.40138 -15.27285,6.77184 -3.98606,0.61469 -9.49392,2.20138 -12.2397,3.52599 -2.74578,1.32461 -7.35947,2.70006 -10.25263,3.05656 -9.36741,1.15425 -10.7603,1.60302 -10.7603,3.4668 0,0.97105 -0.84029,2.52601 -1.86732,3.45545 -1.02702,0.92945 -3.32809,3.83056 -5.11349,6.44693 -3.0714,4.50091 -7.67212,7.17315 -12.3498,7.17315 -0.74916,0 -2.83136,0.73296 -4.6271,1.62879 -2.43729,1.21588 -4.8212,1.4828 -9.40364,1.0529 -4.58727,-0.43035 -7.90771,-0.0574 -13.13865,1.47556 -3.85,1.1283 -7.45,2.41238 -8,2.85351 -0.55,0.44114 -3.16991,1.12514 -5.82203,1.52 -3.73488,0.55607 -5.01722,1.23134 -5.68783,2.99518 -0.93663,2.46353 -7.15917,4.18996 -10.86381,3.01416 -1.07691,-0.3418 -2.24744,-0.15315 -2.60119,0.41922 -1.09725,1.7754 -4.26478,1.1443 -4.81489,-0.95932 -0.6725,-2.57165 -3.3363,-2.57165 -4.94232,0 -0.93382,1.49529 -2.33203,2 -5.5406,2 -2.36036,0 -5.90707,0.675 -7.88157,1.5 -1.97451,0.825 -5.48161,1.5 -7.79357,1.5 -3.19083,0 -4.7694,0.6023 -6.55219,2.5 -1.29175,1.375 -2.98671,2.5 -3.76658,2.5 -0.77988,0 -2.56213,0.9 -3.96055,2 -1.81839,1.43035 -4.14193,2.02167 -8.15773,2.07608 -7.00207,0.0949 -12.32458,1.92276 -13.56578,4.65886 -0.67385,1.48542 -2.12968,2.22704 -5,2.54704 -4.80603,0.53581 -16.3654,3.44729 -18.68776,4.70692 -0.90112,0.48876 -5.62612,1.21174 -10.5,1.60661 -8.53155,0.69122 -14.58776,2.34338 -15.80408,4.31142 -1.06272,1.71951 -12.96465,4.91565 -20.59488,5.53053 -10.8585,0.87504 -11.54723,0.0664 -12.46203,-14.63124 -0.38704,-6.21842 -0.62265,-16.25622 -0.52358,-22.30622 0.0991,-6.05 -0.12654,-14.43055 -0.50136,-18.62345 -0.46565,-5.20901 -0.30284,-8.33096 0.51406,-9.85736 0.86461,-1.61554 0.8931,-2.53636 0.10291,-3.32655 -1.36798,-1.36798 -1.42781,-5.36746 -0.0926,-6.19264 0.55,-0.33992 1,-1.94148 1,-3.55902 0,-1.61754 0.82188,-3.76286 1.82639,-4.76737 1.00452,-1.00452 2.11798,-2.58627 2.47438,-3.51501 0.85131,-2.21849 4.81288,-3.6586 10.06433,-3.6586 2.32919,0 4.6624,-0.411 5.1849,-0.91333 0.5225,-0.50233 5.45,-2.29006 10.95,-3.97273 8.51863,-2.6062 12.14799,-3.1401 24.5,-3.60412 7.975,-0.29959 15.4,-0.7888 16.5,-1.08713 8.54208,-2.31673 27.05949,-11.65905 35.47592,-17.89817 5.21176,-3.86349 11.72159,-8.48702 14.46628,-10.27452 L 704.4326,201 h 15.9177 c 9.5763,0 17.52931,-0.48285 19.96305,-1.21202 3.16866,-0.94935 4.1329,-0.94935 4.44935,0 0.57017,1.71051 2.23734,1.51012 2.23734,-0.26893 0,-1.7103 1.75578,-2.22416 11.79091,-3.45084 4.01,-0.49017 7.97881,-1.46213 8.81957,-2.1599 0.84077,-0.69778 4.0621,-1.34431 7.15851,-1.43674 3.21893,-0.0961 5.79425,-0.66128 6.01376,-1.31981 0.21115,-0.63347 1.28855,-1.15176 2.3942,-1.15176 1.10566,0 2.22502,-0.82112 2.48746,-1.82471 0.26245,-1.00359 2.04739,-2.39251 3.96655,-3.08649 1.91916,-0.69397 5.51203,-3.28442 7.98417,-5.75656 4.38408,-4.38409 4.68429,-4.5084 12.18983,-5.04757 4.23227,-0.30403 8.24306,-0.98554 8.91287,-1.51447 2.15823,-1.7043 12.5007,-7.7702 13.24834,-7.7702 0.39812,0 1.53834,-0.9 2.53383,-2 0.99549,-1.1 2.36013,-2 3.03254,-2 0.67242,0 1.77289,-0.66309 2.4455,-1.47354 0.67261,-0.81044 2.86521,-1.76912 4.87244,-2.13039 2.00724,-0.36127 4.09952,-0.98365 4.64952,-1.38306 1.80302,-1.30938 13.30418,-3.10026 15.83339,-2.46547 1.68419,0.4227 2.74861,0.12835 3.33685,-0.92278 0.63488,-1.13446 3.7743,-1.81581 11.84677,-2.57111 6.04064,-0.5652 12.67334,-0.96046 14.73933,-0.87837 2.80759,0.11156 4.7019,-0.60361 7.5,-2.83151 2.05901,-1.63943 5.20616,-3.73745 6.99366,-4.66227 1.7875,-0.92483 4.55693,-2.3565 6.15429,-3.1815 1.59736,-0.825 3.63649,-1.5 4.53139,-1.5 0.8949,0 1.9029,-0.71874 2.23999,-1.5972 0.50419,-1.31389 1.57572,-1.4769 6.04105,-0.91899 4.7451,0.59286 5.49062,0.4478 5.9246,-1.1528 0.43381,-1.59998 14.30557,-9.35633 16.69972,-9.33759 0.46257,0.004 2.68106,-1.56842 4.92999,-3.49342 2.24893,-1.925 5.14709,-3.5 6.44035,-3.5 1.32678,0 2.63274,-0.76256 2.99706,-1.75 0.35512,-0.9625 1.1285,-2.08061 1.71862,-2.48469 1.42751,-0.97748 12.99232,-0.88727 18.31694,0.14287 6.12164,1.18434 7.75081,-0.28149 6.93424,-6.23902 -0.50137,-3.65789 -0.20525,-5.35649 1.41149,-8.096669 1.12528,-1.907211 2.21253,-5.403744 2.41611,-7.770073 0.20358,-2.36633 0.66705,-5.898293 1.02995,-7.848806 0.8927,-4.79815 -1.12156,-6.571292 -5.74709,-5.059134 -1.80878,0.591321 -7.9626,2.227163 -13.67515,3.635205 -11.3246,2.791315 -15.07495,4.396905 -19.02484,8.144854 -5.04046,4.782776 -8.07053,5.75501 -20.08871,6.445718 -10.93623,0.628526 -12.18633,0.936616 -25.5,6.284545 -7.7,3.09299 -16.7,6.35212 -20,7.24251 -3.3,0.89039 -10.725,4.22387 -16.5,7.40774 -10.4163,5.74271 -13.61308,6.70857 -31.36169,9.47547 -2.67884,0.41761 -4.85591,1.68727 -7.10755,4.14506 l -3.24587,3.54305 -13.39244,0.99086 c -10.15603,0.75141 -13.87577,1.40525 -15.39245,2.70565 -1.1,0.94313 -4.025,2.50926 -6.5,3.48027 -2.475,0.97102 -6.3,2.60221 -8.5,3.62487 -5.01371,2.33059 -11.13505,3.96688 -14.86722,3.97414 -2.09487,0.004 -4.22377,1.34797 -7.90327,4.98902 -3.58863,3.55114 -6.0698,5.1387 -8.63278,5.52363 -1.9782,0.29711 -4.94673,1.02741 -6.59673,1.62289 -8.44502,3.0478 -11.30194,4.18966 -15.93961,6.37079 -2.78321,1.30897 -8.66039,3.32557 -13.06039,4.48135 -8.64656,2.27124 -15.63988,5.19617 -19.29166,8.06866 -1.2654,0.99536 -6.89244,3.22351 -12.50453,4.95145 -5.6121,1.72793 -11.10381,3.52688 -12.20381,3.99765 -3.52593,1.50901 -14.84197,4.90301 -20,5.99856 -2.75,0.5841 -11.3,3.03972 -19,5.45693 -17.30814,5.43343 -23.53267,7.05227 -35,9.10258 -11.65248,2.08342 -14.83116,3.0996 -20.91312,6.68565 -4.79622,2.82795 -5.36691,2.928 -13.05121,2.28795 -7.36474,-0.61343 -8.32436,-0.47476 -11.49324,1.66082 -1.90166,1.28157 -3.70166,3.3557 -4,4.60918 -0.29834,1.25348 -4.07233,5.38825 -8.38666,9.18839 -8.50341,7.48996 -8.15819,7.42439 -14.53353,2.76008 -1.31558,-0.9625 -3.20138,-1.75 -4.19068,-1.75 -1.20407,0 -1.90332,-0.88364 -2.11514,-2.67288 -0.43361,-3.66284 -2.00499,-3.88077 -5.68073,-0.78785 -2.91556,2.45329 -3.54038,2.57658 -9.70968,1.9159 -6.23062,-0.66724 -6.88852,-0.99404 -11.95079,-5.9364 -5.01025,-4.89157 -5.75069,-5.26597 -11.4333,-5.78125 -4.45191,-0.40369 -7.36465,-1.37782 -10.89656,-3.64424 C 475.49411,216.39198 472.94973,215 472.49119,215 c -0.45854,0 -1.66653,-0.75369 -2.68442,-1.67487 -1.74806,-1.58197 -2.0324,-1.49877 -5.12635,1.5 -2.27433,2.20437 -4.2407,3.17487 -6.43271,3.17487 -2.86294,0 -3.21923,-0.34938 -3.82408,-3.75 -0.36685,-2.0625 -1.51224,-5.15312 -2.54531,-6.86803 C 450.84524,205.66705 450,203.00248 450,201.46071 450,197.9031 447.40593,195 444.22703,195 c -1.35465,0 -3.96592,-1.31958 -5.80282,-2.9324 -2.14176,-1.88049 -4.97711,-3.17793 -7.90412,-3.61686 -3.68391,-0.55243 -5.23904,-1.47274 -8.06244,-4.77125 l -3.49814,-4.08679 -2.88405,1.70365 c -3.57931,2.11436 -4.98166,2.12511 -10.09929,0.0774 -3.01374,-1.20586 -4.6,-2.69215 -6.13675,-5.75 -3.01835,-6.00596 -4.52096,-7.40732 -7.3605,-6.86451 -2.71138,0.51831 -6.38544,-2.88019 -6.44565,-5.96223 -0.0183,-0.93662 -0.56106,-2.86132 -1.20614,-4.27712 -0.89717,-1.96907 -0.89717,-2.84989 0,-3.74706 0.89716,-0.89716 1.17287,-0.80862 1.17287,0.37665 0,0.85223 1.3129,3.50438 2.91756,5.89365 2.42978,3.61787 3.46768,4.35356 6.20808,4.40049 2.92404,0.0501 3.6301,0.66312 6.33941,5.50436 1.7227,3.07827 4.44754,6.26488 6.2644,7.32598 2.95692,1.72694 3.39645,1.75122 5.46554,0.30198 2.26573,-1.58698 9.8009,-2.22144 9.80979,-0.82598 0.003,0.4125 1.49677,2.37428 3.32031,4.35951 2.55199,2.77827 4.39214,3.77096 7.99047,4.31056 2.67009,0.40041 5.91821,1.7472 7.57404,3.14049 1.59451,1.34169 3.98165,2.43944 5.30476,2.43944 3.20896,0 4.80564,1.77155 4.80564,5.33197 0,1.61258 0.85242,4.33508 1.89427,6.05 1.04184,1.71491 2.2064,5.03053 2.58789,7.36803 0.3815,2.3375 1.01581,4.25 1.40957,4.25 0.39377,0 2.24249,-1.575 4.10827,-3.5 4.10201,-4.2322 7.65967,-4.55562 11,-1 1.29175,1.375 2.83269,2.50193 3.42431,2.50428 0.59163,0.002 3.10069,1.35043 5.57569,2.99572 3.19656,2.12496 5.71217,2.99268 8.6849,2.99572 5.94886,0.006 8.20518,1.11638 14.01662,6.89734 4.3982,4.37514 5.68301,5.10446 8.96617,5.08966 2.767,-0.0125 4.48694,-0.70742 6.18727,-2.5 1.72219,-1.81562 3.40154,-2.48272 6.25,-2.48272 3.39772,0 3.89504,0.29366 3.89504,2.3 0,2.70492 1.72559,4.7 4.06514,4.7 0.91583,0 2.84648,0.92924 4.29035,2.06498 2.66864,2.09916 4.64451,1.88537 4.64451,-0.50252 0,-0.72573 2.475,-3.43397 5.5,-6.01831 3.15718,-2.69726 5.5,-5.52406 5.5,-6.63617 0,-1.10371 1.3985,-2.80875 3.25,-3.96237 2.70482,-1.68531 4.68476,-1.98553 11.80302,-1.78971 7.6051,0.2092 9.07011,-0.0537 13.21874,-2.37244 5.86452,-3.27775 8.89969,-4.20934 20.72824,-6.3622 5.225,-0.95098 10.625,-2.28159 12,-2.95691 1.375,-0.67532 4.525,-1.52863 7,-1.89626 7.2118,-1.07119 21,-5.84735 21,-7.27429 0,-0.86948 1.49737,-1.2938 4.56567,-1.2938 5.23568,0 24.6002,-4.9226 23.88932,-6.07283 -0.25984,-0.42044 0.99398,-1.07347 2.78628,-1.45118 6.16819,-1.2999 25.20323,-7.72113 27.65963,-9.33063 1.35313,-0.8866 2.94148,-1.64621 3.52967,-1.68801 0.58819,-0.0418 3.14383,-1.05496 5.67921,-2.25145 2.53538,-1.19649 7.48538,-2.90572 11,-3.79829 3.51462,-0.89256 6.8523,-1.99618 7.41706,-2.45247 0.56476,-0.45629 4.41222,-1.93472 8.54991,-3.2854 4.13769,-1.35067 9.07561,-3.40223 10.97316,-4.55902 1.89755,-1.15678 4.8833,-2.10493 6.63499,-2.10698 4.78171,-0.006 7.35872,-1.31133 12.3151,-6.23981 3.26353,-3.24516 5.59909,-4.65509 8.5,-5.13127 11.26784,-1.84962 15.51765,-3.1129 16.04327,-4.76898 0.30106,-0.94857 1.95183,-2.03315 3.66837,-2.41016 1.71653,-0.37702 4.03119,-1.53349 5.14369,-2.56993 1.11249,-1.03645 2.50015,-1.81328 3.08369,-1.7263 0.58354,0.087 1.73598,-0.11642 2.56098,-0.452 0.825,-0.33559 7.28264,-1.03432 14.35031,-1.55273 l 12.85032,-0.94257 3.74693,-3.65878 c 3.24222,-3.16594 4.67673,-3.78576 10.64968,-4.60142 11.16409,-1.52457 16.53211,-3.00054 22.90276,-6.29726 3.3,-1.7077 6.225,-3.34062 6.5,-3.62872 1.50497,-1.57664 7.28621,-4.07484 11.58423,-5.0058 C 895.58139,106.71897 900,105.016 900,104.00364 c 0,-0.41452 1.38593,-1.03087 3.07984,-1.36965 1.6939,-0.33878 4.5064,-1.25029 6.25,-2.02559 1.74359,-0.775289 4.07016,-1.649841 5.17016,-1.943446 1.1,-0.293605 5.05797,-1.68834 8.79549,-3.099411 C 928.76451,93.500796 931.85818,93 939.14436,93 c 8.74555,0 14.17623,-1.38736 17.46628,-4.46206 6.80154,-6.35634 7.01038,-6.4454 28.63936,-12.213002 3.7125,-0.989978 6.75,-2.154218 6.75,-2.5872 0,-1.426793 -5.13576,-2.775457 -12.87685,-3.381499 -4.19273,-0.328244 -9.51421,-1.407893 -11.82551,-2.399219 -3.42772,-1.470167 -5.91623,-1.703409 -13.5,-1.265324 -7.55719,0.436549 -10.42079,0.170914 -15.29764,-1.419051 -3.3,-1.075876 -7.94348,-2.559603 -10.31884,-3.29717 -2.94838,-0.915494 -4.77835,-2.229624 -5.76693,-4.141326 -0.79644,-1.540162 -2.90297,-3.543878 -4.68116,-4.452702 -1.77819,-0.908824 -3.56908,-2.22382 -3.97976,-2.922215 -1.12488,-1.912972 -8.19369,-0.667954 -15.75331,2.774607 -3.575,1.628013 -8.92602,3.814021 -11.89115,4.857795 -2.96514,1.043775 -6.07162,2.462656 -6.90329,3.153069 -1.96533,1.631516 -15.33246,3.885817 -16.6737,2.811939 -1.28413,-1.028143 -10.06143,0.146714 -18.23966,2.441407 -4.93585,1.384929 -6.83091,1.509804 -9.38746,0.618586 C 833.14299,66.502486 829.5187,66 826.85078,66 824.18285,66 822,65.65985 822,65.244111 c 0,-2.968344 -29.77016,-7.140613 -32.37363,-4.537143 -0.80183,0.80183 -15.10779,4.666072 -24.12637,6.516876 -9.83791,2.018948 -31.06171,1.036308 -36.5,-1.689912 -1.375,-0.689289 -3.7375,-1.549979 -5.25,-1.912644 -1.5125,-0.362666 -2.75,-1.325819 -2.75,-2.14034 0,-2.192581 -5.24385,-1.863574 -8.27287,0.519052 -1.95418,1.537159 -4.05678,2 -9.08564,2 -3.59868,0 -8.83225,0.490946 -11.63017,1.090992 -3.77467,0.809523 -5.44477,0.794163 -6.47342,-0.05953 -1.61821,-1.342999 -7.95656,-0.482999 -11.1488,1.512691 -1.16099,0.725817 -6.33599,1.598233 -11.5,1.938701 -5.164,0.340469 -9.8166,1.046111 -10.3391,1.568092 -0.5225,0.521982 -2.5475,0.953929 -4.5,0.959882 -1.9525,0.006 -5.75902,0.680954 -8.45893,1.5 -5.08573,1.542811 -18.22315,2.012612 -20.24193,0.723863 -0.63297,-0.404078 -2.23537,-3.433799 -3.56087,-6.732715 -2.69423,-6.705381 -4.04017,-7.425332 -9.2552,-4.950638 -2.85192,1.353321 -3.83847,1.440093 -5.03959,0.443256 C 600.58238,61.238445 600,61.161824 600,61.7981 c 0,0.573644 -1.4625,1.347917 -3.25,1.720606 -1.7875,0.372689 -4.15,1.239368 -5.25,1.925954 -3.54034,2.209771 -12.11078,4.626379 -16.11146,4.542948 -2.1387,-0.0446 -17.16354,0.861211 -33.38854,2.012914 -23.11641,1.640879 -30.61712,1.856107 -34.66246,0.994617 -2.83935,-0.604664 -8.92041,-0.995817 -13.51347,-0.869229 -6.14363,0.169323 -9.00826,-0.181179 -10.83754,-1.326028 -1.36759,-0.855903 -3.94903,-1.824768 -5.73652,-2.153033 -2.0896,-0.383746 -5.41563,-2.658772 -9.31547,-6.371847 -3.33601,-3.176251 -6.37351,-5.811692 -6.75001,-5.856535 -0.37649,-0.04484 -1.92787,-0.432593 -3.44752,-0.861667 -1.75877,-0.496594 -3.28441,-0.347392 -4.19763,0.410517 -0.78906,0.654859 -2.91079,1.423295 -4.71497,1.707636 -3.79985,0.598865 -10.43277,3.753949 -13.32441,6.338028 -4.05363,3.622481 -17.96428,6.240215 -45.13626,8.493833 -3.92494,0.325531 -13.07673,2.086342 -20.33731,3.912914 -13.03418,3.279062 -13.27045,3.38904 -18.69146,8.700656 -15.91122,15.590116 -20.6014,49.657506 -10.06803,73.129616 1.66602,3.7125 3.60486,6.75 4.30852,6.75 0.70366,0 2.25505,1.2375 3.44753,2.75 2.08271,2.64162 2.1577,3.53825 1.90292,22.75 -0.14588,11 0.29964,27.425 0.99004,36.5 0.72482,9.52738 0.99712,22.20487 0.64437,30 -0.336,7.425 -0.22045,24.42052 0.25676,37.76783 0.69128,19.33447 0.58708,25.73805 -0.51257,31.5 -1.77804,9.31651 -2.02032,28.65655 -0.91115,72.73217 0.63651,25.29354 1.2834,36.61429 2.25,39.37573 0.74615,2.13165 1.35664,5.11477 1.35664,6.62915 0,2.40711 1.59485,6.77949 5.83431,15.99512 0.63254,1.375 3.17542,6.1 5.65085,10.5 2.47543,4.4 5.04652,9.125 5.71354,10.5 2.23266,4.60244 10.67744,14.65125 16.47167,19.60036 3.15497,2.6948 9.80731,9.00587 14.78297,14.02459 4.97566,5.01872 11.29666,10.80228 14.04666,12.85235 2.75,2.05008 6.82653,5.66585 9.05895,8.03506 2.71734,2.88385 5.49039,4.69311 8.38969,5.47381 2.3819,0.64138 7.82453,3.49437 12.09472,6.33999 11.17972,7.45005 17.45276,11.13661 25.95664,15.25427 4.125,1.99737 14.56002,7.18387 23.18893,11.52557 8.62891,4.3417 16.32439,7.894 17.10106,7.894 0.77667,0 3.61665,1.17882 6.31107,2.61959 5.18231,2.77112 11.46219,5.2567 15.07028,5.96484 2.50326,0.4913 16.66353,8.42792 17.16199,9.61904 0.18334,0.43809 1.10584,0.79653 2.05,0.79653 0.94417,0 2.24917,0.5325 2.9,1.18333 2.78517,2.78517 2.42099,-1.20363 -0.91122,-9.98038 -1.29047,-3.39898 -0.99913,-43.51267 0.37913,-52.20295 1.38933,-8.76001 1.02406,-91.59743 -0.42551,-96.5 -0.48787,-1.65 -1.30729,-21 -1.82094,-43 -0.51365,-22 -1.28037,-46.75 -1.70383,-55 -0.42346,-8.25 -0.64744,-15.675 -0.49773,-16.5 2.75612,-15.18781 6.42431,-68 4.72309,-68 -0.26053,0 -2.46889,1.9952 -4.90747,4.43378 C 546.53712,271.51551 539.83923,274 531.22119,274 c -10.01235,0 -24.95495,-9.60387 -31.68274,-20.36306 -2.38837,-3.81951 -3.62539,-4.76779 -5.37868,-4.1232 C 492.72736,250.04037 487,247.07767 487,245.81007 c 0,-0.41729 -1.35,-1.45682 -3,-2.31007 -1.87484,-0.96952 -3,-2.33162 -3,-3.63176 0,-1.14422 -1.03347,-2.89333 -2.2966,-3.88691 -1.26313,-0.99357 -3.17563,-3.64067 -4.25,-5.88244 -1.69884,-3.54477 -2.38358,-4.07744 -5.25438,-4.08742 -2.50826,-0.009 -4.07708,0.83568 -6.5327,3.51614 C 455.97226,236.83457 447,234.2676 447,225.04545 c 0,-4.36869 -1.13741,-5.01245 -4.44113,-2.51365 -1.06762,0.80751 -4.00181,1.4682 -6.52042,1.4682 h -4.57929 l -2.38279,-7.75 c -3.18358,-10.3546 -6.67079,-17.88039 -8.63435,-18.63388 -2.67289,-1.02568 -6.38561,-0.69578 -8.7272,0.77548 -1.21815,0.76538 -4.35306,1.69307 -6.96646,2.06152 -4.03868,0.5694 -5.50162,0.26173 -9.75,-2.05053 C 392.24926,196.90634 390,195.1571 390,194.51539 c 0,-0.64172 -1.16879,-2.2577 -2.59732,-3.59108 -5.54804,-5.17849 -8.76282,-16.72749 -8.93245,-32.08954 -0.0896,-8.11183 -0.65452,-9.40568 -5.66466,-12.97322 -2.62618,-1.87 -3.31866,-1.94041 -8.08881,-0.82236 -2.86922,0.6725 -5.75205,1.64631 -6.40629,2.16403 -0.65424,0.51771 -2.45424,0.79628 -4,0.61904 L 351.5,147.5 l 0.35024,-9.24792 c 0.33984,-8.97315 -1.05635,-18.42098 -3.10364,-21.00208 -1.47932,-1.86502 -4.53717,-1.50985 -5.69951,0.66201 -0.5628,1.05161 -1.56901,5.09445 -2.236,8.98409 -0.71726,4.1827 -1.53299,6.56787 -1.9966,5.83798 -1.20446,-1.89625 -0.96724,-6.16767 0.76566,-13.78667 L 341.16031,112 h 4.87284 c 4.7679,0 4.89662,0.0808 5.97688,3.75 0.60722,2.0625 1.52906,8.67819 2.04853,14.70153 0.51948,6.02334 1.38328,11.39031 1.91957,11.9266 0.63343,0.63343 3.77777,0.54603 8.97415,-0.24945 7.73674,-1.18436 8.10146,-1.14915 11.12087,1.0734 4.88195,3.59356 5.71251,6.17128 5.16403,16.02693 -0.42004,7.54765 -0.12221,9.87078 2.20059,17.16555 2.88465,9.05927 7.96387,16.72754 12.7031,19.17829 3.59901,1.86112 11.93449,1.83739 14.418,-0.041 1.06762,-0.8075 4.02522,-1.4825 6.57244,-1.5 4.13628,-0.0284 4.91724,0.34307 7.3063,3.47529 1.47125,1.9289 3.55333,6.06003 4.62686,9.18028 1.07352,3.12026 2.58216,6.37957 3.35252,7.24291 0.77036,0.86335 1.55419,2.69012 1.74183,4.0595 0.4273,3.11825 2.93803,3.66668 7.30319,1.59527 6.20136,-2.94274 8.14656,-1.72 9.17261,5.76584 0.6246,4.55701 0.70882,4.64911 4.2513,4.64908 2.90563,-2e-5 4.14149,-0.66103 6.30462,-3.37206 3.22637,-4.04357 6.9465,-4.957 11.98223,-2.9421 2.77091,1.10869 4.01935,2.36628 4.85116,4.88671 0.61604,1.86661 2.43767,4.33204 4.04807,5.47875 1.6104,1.1467 2.92801,2.84178 2.92803,3.76682 4e-5,2.21257 6.14908,7.06173 9.90803,7.81352 2.25189,0.45038 4.35912,2.49667 8.74248,8.48966 5.28017,7.21913 6.52113,8.2814 14.47129,12.38749 9.70884,5.01442 13.20577,5.47324 21.94667,2.87954 6.71262,-1.99185 9.78496,-4.12634 13.35555,-9.27871 1.67891,-2.42267 4.80883,-5.04227 7.92533,-6.63316 2.83284,-1.44609 5.8356,-3.41811 6.6728,-4.38227 0.8372,-0.96417 3.00676,-2.04995 4.82125,-2.41285 2.74141,-0.54828 3.24477,-0.37797 2.97782,1.00752 -0.17669,0.91704 -1.5477,1.99533 -3.04668,2.3962 -1.49899,0.40088 -4.41402,2.12074 -6.47785,3.82192 -2.06382,1.70118 -4.25688,3.09305 -4.87346,3.09305 -0.76741,0 -1.34395,6.33566 -1.82762,20.08389 -0.38861,11.04615 -1.56372,27.80865 -2.61136,37.25 -1.71633,15.46776 -1.81155,20.38155 -0.96245,49.66611 0.51828,17.875 1.12014,39.925 1.33747,49 0.21732,9.075 1.14733,23.025 2.06668,31 1.41187,12.24746 1.57739,20.79158 1.06547,55 -1.29629,86.62378 -1.20316,97.05379 0.90638,101.5 3.53798,7.45692 5.23086,7.30716 13.82707,-1.22318 z m 16.70508,-10.61887 c 2.4365,-1.65093 8.38931,-4.24301 13.22849,-5.76017 9.1811,-2.87843 39.77768,-18.0323 41.06969,-20.34099 0.40904,-0.73091 2.2662,-1.61455 4.12703,-1.96364 1.86082,-0.3491 7.46273,-2.37829 12.44868,-4.50932 4.98595,-2.13104 14.71535,-5.75747 21.62089,-8.05876 6.90553,-2.30128 12.81151,-4.59835 13.1244,-5.10461 0.31288,-0.50625 1.60663,-0.92046 2.875,-0.92046 1.26837,0 3.40852,-0.86715 4.75589,-1.92699 1.34738,-1.05984 5.50219,-2.91312 9.23291,-4.11839 3.73073,-1.20528 13.82652,-5.10613 22.43509,-8.66856 17.4555,-7.2235 16.45207,-6.85394 31.69723,-11.67401 6.07491,-1.92071 15.01896,-5.09416 19.87568,-7.05212 4.85672,-1.95796 9.25267,-3.55993 9.76879,-3.55993 0.51612,0 3.49707,-1.18927 6.62433,-2.64282 C 811.354,499.31742 823.0434,496 827.21449,496 c 1.56736,0 4.52279,-0.70009 6.56763,-1.55576 2.04483,-0.85566 7.09288,-2.7175 11.21788,-4.13741 7.88717,-2.71492 11.45898,-4.95019 13.97815,-8.74769 3.50835,-5.28861 7.92965,-7.73643 19.26308,-10.66487 C 884.40191,469.30242 891.17249,468 893.28697,468 c 2.11448,0 4.73823,-0.4783 5.83054,-1.06289 1.09232,-0.58459 5.22523,-1.91965 9.18426,-2.96679 7.11054,-1.88071 19.45138,-6.76309 27.5923,-10.91628 2.30434,-1.17559 6.75836,-2.59376 9.89782,-3.15149 8.16233,-1.45005 8.56233,-1.61259 13.36532,-5.43078 3.05342,-2.42736 5.38194,-3.45979 7.84279,-3.47738 1.925,-0.0138 3.97972,-0.35562 4.56604,-0.7597 1.79959,-1.24023 8.26206,-16.42222 9.37911,-22.03391 1.33533,-6.70827 1.43411,-71.84835 0.1102,-72.66657 -0.51956,-0.32111 -3.15683,0.77733 -5.8606,2.44098 -2.70377,1.66364 -5.62712,3.02481 -6.49633,3.02481 -0.86921,0 -1.8585,0.45 -2.19842,1 -0.33992,0.55 -1.87173,1 -3.40403,1 -1.53718,0 -3.61624,0.91741 -4.63821,2.04667 -1.01871,1.12567 -3.45096,2.77373 -5.40499,3.66235 -1.95402,0.88863 -4.67777,2.61312 -6.05277,3.83222 -1.375,1.21909 -4.075,2.49846 -6,2.84305 -1.925,0.34459 -4.78894,1.29909 -6.36431,2.12112 -1.57537,0.82202 -3.47749,1.49459 -4.22694,1.49459 -0.74946,0 -2.09977,1.125 -3.00071,2.5 -0.90093,1.375 -2.22678,2.5 -2.94632,2.5 -0.71955,0 -2.64526,1.125 -4.27935,2.5 -1.6341,1.375 -3.88215,2.5 -4.99569,2.5 -1.11353,0 -3.29857,0.63195 -4.85564,1.40433 -3.48271,1.72759 -9.34965,3.21382 -19.91235,5.04426 -7.41055,1.28419 -10.87111,2.20479 -23.20364,6.17274 -5.04839,1.62431 -7.86535,1.75351 -8.70239,0.39915 -0.35999,-0.58246 -1.29597,-0.63028 -2.30902,-0.11795 -0.937,0.47386 -4.84276,1.83687 -8.67947,3.02891 -3.83671,1.19203 -7.66171,2.78411 -8.5,3.53795 -0.83829,0.75383 -5.22727,2.31379 -9.75327,3.46656 -9.49834,2.41924 -13.94745,5.13312 -19.95695,12.17344 -2.36414,2.76966 -6.21443,6.61172 -8.55619,8.53792 -2.34177,1.9262 -4.76813,4.15827 -5.39193,4.96016 -0.83811,1.07739 -4.36207,1.60279 -13.5,2.01278 -7.52562,0.33765 -13.50237,1.10768 -15.26947,1.96728 -1.597,0.77686 -3.57875,1.41247 -4.4039,1.41247 -2.2139,0 -13.98008,6.79808 -15.03795,8.68839 -0.61363,1.0965 -2.74314,1.77881 -6.53246,2.09305 -3.09213,0.25642 -5.62205,0.8605 -5.62205,1.34239 0,0.48189 -0.94284,0.87617 -2.09519,0.87617 -1.15236,0 -4.59368,1.37119 -7.64739,3.04708 -4.04953,2.22242 -6.3066,2.88139 -8.33966,2.43486 -2.01346,-0.44223 -3.32876,-0.0709 -4.73686,1.33716 -2.80313,2.80313 -8.29509,4.34618 -12.86683,3.61513 -3.50223,-0.56003 -4.14893,-0.3352 -5.65722,1.96673 -0.93663,1.42947 -2.53748,2.59904 -3.55746,2.59904 -1.01997,0 -2.38779,0.64258 -3.0396,1.42796 C 685.37251,464.46101 676.40622,469 674.07742,469 c -1.07766,0 -2.25466,-0.47776 -2.61554,-1.06168 -1.72225,-2.78665 -5.51911,-2.94301 -10.47554,-0.4314 -2.70592,1.37119 -5.99007,2.49308 -7.29811,2.49308 -1.30804,0 -3.14769,0.85022 -4.08812,1.88938 -1.17672,1.30026 -3.77255,2.11027 -8.32519,2.59782 -6.26242,0.67065 -8.81122,1.53123 -12.27492,4.14452 -0.825,0.62245 -2.625,1.45959 -4,1.86031 -1.375,0.40073 -3.93164,2.08732 -5.68141,3.74797 -2.44101,2.31669 -3.81678,2.89792 -5.91151,2.49749 -2.49599,-0.47714 -7.52197,1.53859 -11.11779,4.45891 -0.66588,0.5408 -3.14088,0.83034 -5.5,0.64343 -3.83975,-0.30421 -4.32362,-0.0976 -4.61685,1.97132 -0.18016,1.27113 -0.96766,2.55678 -1.75,2.85699 C 589.59184,496.98687 589,498.58122 589,500.5 c 0,1.99842 -0.58776,3.51157 -1.5,3.86163 -0.98343,0.37738 -1.5,1.9375 -1.5,4.53026 0,2.75935 -0.75563,4.85268 -2.5,6.92574 -1.56203,1.85637 -2.5,4.20991 -2.5,6.27298 0,1.94463 -1.09119,4.87648 -2.65461,7.13249 -2.21883,3.20178 -2.47148,4.19555 -1.53906,6.05375 0.61355,1.22273 1.61056,7.62315 2.21557,14.22315 0.85151,9.28895 1.67799,13.18608 3.65829,17.25 1.40704,2.8875 2.95461,5.25 3.43904,5.25 0.48442,0 0.88077,2.00917 0.88077,4.46482 0,3.50063 -0.44982,4.70555 -2.08296,5.57958 -1.97107,1.05488 -1.99152,1.21582 -0.38072,2.99574 1.09201,1.20665 1.54511,2.95166 1.26391,4.8676 -0.48287,3.29004 -0.60787,3.31553 6.12975,-1.24979 z M 592.55,469.08299 c 0.5225,-0.50436 5.45,-2.48116 10.95,-4.39289 12.10114,-4.20621 14.18105,-5.1252 22.48413,-9.93443 3.56627,-2.06562 7.4826,-3.75567 8.70295,-3.75567 1.22035,0 3.25249,-0.39979 4.51587,-0.88842 1.26338,-0.48864 5.64746,-1.40228 9.74241,-2.03032 4.7903,-0.73469 8.53466,-1.95303 10.5,-3.41649 1.68005,-1.25102 5.07964,-2.85288 7.55464,-3.55969 2.475,-0.7068 6.94241,-2.59459 9.92758,-4.19509 2.98517,-1.60049 6.92267,-2.90999 8.75,-2.90999 1.98909,0 4.12505,-0.80263 5.32242,-2 1.1,-1.1 2.63572,-2 3.41272,-2 0.77699,0 3.75872,-1.54503 6.62607,-3.4334 2.86734,-1.88837 7.06912,-3.74324 9.33728,-4.12194 2.26816,-0.37869 5.30624,-1.525 6.75128,-2.54736 1.44505,-1.02235 5.22755,-2.53609 8.40557,-3.36386 3.17801,-0.82777 6.4957,-2.0778 7.37264,-2.77785 1.54759,-1.23542 3.4477,-2.19651 13.28866,-6.72153 2.58182,-1.18716 5.73182,-2.95894 7,-3.93729 3.51831,-2.71425 6.6571,-3.14027 14.09115,-1.91257 l 6.80211,1.12335 3.20626,-3.03879 c 3.81988,-3.62035 10.21536,-6.15966 11.72116,-4.65386 1.61313,1.61313 12.9851,-4.22967 12.9851,-6.6716 0,-2.25305 -0.28721,-2.15882 7.5,-2.46079 3.3,-0.12797 6.675,-0.47071 7.5,-0.76165 0.825,-0.29095 2.35191,-0.80775 3.39313,-1.14846 1.04122,-0.34071 1.60762,-0.90498 1.25867,-1.25393 -0.87333,-0.87333 1.36879,-3.42378 2.43214,-2.76659 0.47153,0.29142 2.31321,-0.22302 4.09263,-1.14319 2.22758,-1.15192 3.35286,-1.32039 3.6127,-0.54087 0.52692,1.58075 4.17208,1.40078 7.57504,-0.37398 1.57537,-0.82161 4.72537,-1.49552 7,-1.49758 4.56281,-0.004 9.88794,-2.73056 11.60705,-5.94275 0.72283,-1.35061 2.09713,-2.05351 4.01503,-2.05351 4.75687,0 13.49243,-2.64591 17.87999,-5.41565 2.25163,-1.42139 4.49772,-2.58435 4.9913,-2.58435 0.49359,0 1.45763,-0.675 2.14232,-1.5 0.68469,-0.825 2.51323,-1.5 4.06343,-1.5 1.55019,0 3.09665,-0.45 3.43657,-1 0.33992,-0.55 1.73231,-1 3.0942,-1 1.36189,0 3.59661,-0.73414 4.96603,-1.63142 1.36943,-0.89728 3.9411,-1.92296 5.71482,-2.27929 1.96587,-0.39492 3.61034,-1.51487 4.21208,-2.86858 0.6555,-1.47467 1.86369,-2.22071 3.59636,-2.22071 2.98367,0 8.12288,-2.33881 9.93373,-4.52075 0.67522,-0.81359 1.80897,-1.47925 2.51945,-1.47925 0.71048,0 2.67622,-2.25 4.36831,-5 3.48747,-5.66786 5.99813,-6.3791 9.82551,-2.78346 3.17846,2.98601 5.91218,1.44137 5.44414,-3.07611 -0.36532,-3.52607 -0.75305,-3.37048 9.32537,-3.74201 7.59954,-0.28015 13.84907,-1.42883 17,-3.12464 1.1,-0.59201 4.025,-1.38018 6.5,-1.75148 7.33428,-1.1003 7.72485,-3.31675 8.57206,-48.64512 0.38675,-20.69255 0.37158,-38.15936 -0.0337,-38.81514 -0.55199,-0.89314 -1.15157,-0.81705 -2.38945,0.30321 -0.9089,0.82255 -2.88923,1.96573 -4.40072,2.5404 -1.51149,0.57466 -2.74817,1.68696 -2.74817,2.47177 0,0.78481 -1.35,1.89754 -3,2.47274 -1.65,0.57519 -3,1.51921 -3,2.09782 0,0.57861 -1.70485,1.05202 -3.78856,1.05202 -2.08371,0 -5.55385,0.9 -7.71144,2 -2.15759,1.1 -4.92618,2 -6.15242,2 -1.22625,0 -2.53264,0.49041 -2.90308,1.08981 -0.40126,0.64925 -2.0106,0.83897 -3.98104,0.46931 -1.88595,-0.3538 -3.58128,-0.1775 -3.9445,0.4102 C 945.16861,250.53619 943.81008,251 942.5,251 c -1.31008,0 -2.67865,0.48004 -3.04126,1.06676 -0.36261,0.58672 -2.07667,0.97131 -3.80902,0.85463 -6.56243,-0.44197 -8.82729,0.0417 -9.33782,1.99392 -0.59161,2.26231 -4.43157,3.43695 -8.39198,2.5671 -2.08713,-0.45841 -3.80919,0.0498 -6.60378,1.94874 -3.99414,2.71408 -6.2987,3.18629 -7.87199,1.613 -1.58724,-1.58724 -7.46694,2.8198 -8.12026,6.08641 -0.55291,2.76456 -0.78648,2.86944 -6.38987,2.86944 -3.19879,0 -6.11299,0.48056 -6.47599,1.06792 -0.36301,0.58735 -2.26613,0.92954 -4.22916,0.76041 -2.1896,-0.18864 -3.72886,0.17163 -3.98234,0.93209 -0.24408,0.73223 -2.18955,1.23958 -4.75327,1.23958 -3.42003,0 -5.31208,0.74195 -8.92532,3.5 -2.52188,1.925 -5.23084,3.5 -6.01989,3.5 -0.78905,0 -2.1082,0.96164 -2.93144,2.13698 -1.15883,1.65446 -2.15671,2.005 -4.4194,1.55246 -1.93671,-0.38734 -4.17875,0.0888 -6.6464,1.41132 -2.85348,1.52938 -4.73457,1.84427 -8.04848,1.34732 -3.73861,-0.56064 -4.47701,-0.36391 -5.44869,1.4517 -0.80412,1.5025 -2.09329,2.10022 -4.52981,2.10022 -1.87319,0 -3.64638,0.38928 -3.94043,0.86506 -0.29405,0.47578 -2.38054,1.11265 -4.63664,1.41525 -2.25609,0.30261 -4.85456,1.22849 -5.77438,2.05752 -2.2568,2.03407 -9.61449,4.69302 -15.44615,5.582 -2.62557,0.40024 -5.30307,1.25701 -5.95,1.90394 C 786.1293,303.4707 784.36656,304 782.85902,304 c -1.50754,0 -3.0191,0.45 -3.35902,1 -0.33992,0.55 -1.51296,1 -2.60677,1 -1.0938,0 -3.08484,1.18273 -4.42454,2.62829 -1.93373,2.08652 -3.04236,2.50698 -5.37836,2.03978 -3.12215,-0.62443 -9.09033,1.68774 -9.09033,3.52175 0,0.59228 -1.15829,0.82191 -2.67922,0.53117 -1.77081,-0.33851 -3.88991,0.26332 -6.25,1.77503 -2.35626,1.50926 -5.70929,2.46303 -9.85814,2.80415 -3.45805,0.28432 -6.96822,1.08202 -7.80039,1.77265 -0.83216,0.69064 -4.07785,1.33169 -7.21264,1.42457 -4.77859,0.14157 -7.78062,1.18707 -18.5776,6.46991 -7.0829,3.46558 -14.3954,6.69068 -16.25,7.16688 -1.85461,0.4762 -4.95717,1.27072 -6.89458,1.7656 -1.93742,0.49488 -4.74992,1.72013 -6.25,2.72277 C 671.80388,343.57921 663.97036,347 661.62321,347 c -1.19801,0 -3.18305,0.70383 -4.4112,1.56406 -1.28013,0.89664 -3.08197,1.2946 -4.22251,0.93261 -1.09422,-0.3473 -1.9895,-0.2022 -1.9895,0.32244 0,0.52464 -1.2375,1.20228 -2.75,1.50586 -1.5125,0.30359 -4.775,1.01006 -7.25,1.56995 -2.475,0.55989 -6.88787,1.03758 -9.80637,1.06153 -4.50652,0.037 -5.7124,0.47303 -8,2.89277 -1.4815,1.56707 -3.48113,3.12794 -4.44363,3.46861 -0.9625,0.34067 -1.75,1.3296 -1.75,2.19762 0,1.25415 -1.07806,1.55086 -5.25,1.44496 -7.49757,-0.19032 -21.72464,1.60224 -25.25,3.18141 -6.50965,2.91597 -7.01249,4.00781 -6.75169,14.66035 0.13058,5.33381 -0.45875,15.05829 -1.30961,21.60996 -1.2171,9.37169 -1.29557,12.5192 -0.36792,14.75874 0.80308,1.93881 0.95304,5.63427 0.47022,11.58787 -0.38988,4.8077 -0.73197,10.54126 -0.76021,12.74126 -0.088,6.86128 2.21689,19.57514 4.2831,23.62523 1.76903,3.46759 2.37395,3.87477 5.75643,3.87477 2.07883,0 4.20718,-0.41266 4.72968,-0.91701 z M 602,327.22064 c 3.025,-0.90501 7.38502,-3.15658 9.68894,-5.00349 3.7994,-3.04574 4.602,-3.29607 8.63073,-2.69192 4.37063,0.65542 14.26145,-0.737 18.18033,-2.55941 2.59469,-1.20661 9.95804,-3.03051 14.87418,-3.68433 2.58927,-0.34436 4.02841,-1.10499 4.33918,-2.29337 0.29494,-1.12787 2.16946,-2.21719 5.12581,-2.97873 2.56346,-0.66033 5.82915,-1.63351 7.25709,-2.16263 1.42794,-0.52912 3.69763,-0.68561 5.04375,-0.34776 1.74415,0.43776 2.98236,0.0233 4.30873,-1.44236 1.02368,-1.13115 2.75239,-2.05664 3.84158,-2.05664 1.08918,0 3.02295,-1.125 4.29726,-2.5 1.27431,-1.375 3.18331,-2.5 4.24223,-2.5 1.05891,0 2.50698,-0.70088 3.21792,-1.55752 0.71095,-0.85663 2.45355,-1.44447 3.87245,-1.30632 1.4189,0.13816 3.65228,-0.33388 4.96308,-1.04898 1.46973,-0.80181 3.843,-1.06676 6.19156,-0.69121 3.13575,0.50143 4.06548,0.24181 5.26455,-1.4701 1.26955,-1.81253 2.07828,-1.98947 6.30843,-1.38014 2.66871,0.38441 5.5707,1.32618 6.44887,2.09283 2.34615,2.04819 9.10166,0.47409 10.39046,-2.42107 0.78532,-1.76415 1.81774,-2.21749 5.05,-2.21749 2.23458,0 4.49037,-0.41388 5.01287,-0.91974 C 749.97312,284.70247 766.95446,280 770.50677,280 c 1.70128,0 3.59517,0.50194 4.20866,1.11543 0.82057,0.82057 1.9969,0.66511 4.45,-0.58811 1.83401,-0.93694 5.29685,-2.30983 7.69519,-3.05085 2.39834,-0.74102 5.01135,-2.27638 5.8067,-3.41189 0.79535,-1.13552 2.05887,-2.06458 2.80782,-2.06458 0.74896,0 2.31548,-1.54318 3.48116,-3.42929 1.16567,-1.8861 2.58868,-3.5857 3.16222,-3.77688 0.57355,-0.19119 1.36631,-1.91051 1.7617,-3.82072 l 0.71888,-3.47311 7.45045,-0.0465 c 5.50295,-0.0343 8.7494,-0.63314 12.41979,-2.2908 2.73314,-1.23437 8.13314,-2.75538 12,-3.38003 3.86686,-0.62466 7.53027,-1.7313 8.1409,-2.45921 0.61064,-0.72791 1.88275,-1.32347 2.82693,-1.32347 0.94417,0 3.01,-1.29332 4.59073,-2.87405 3.43086,-3.43086 6.46688,-4.15276 14.4721,-3.44114 5.62388,0.49993 6.25065,0.33294 9.99836,-2.66382 3.35505,-2.68278 4.57603,-3.10481 7.5888,-2.62304 2.95993,0.47331 4.00057,0.13756 5.92595,-1.91191 1.96937,-2.0963 3.24883,-2.48604 8.1612,-2.48604 4.31965,0 5.82569,-0.361 5.82569,-1.39641 0,-1.64081 5.78056,-6.92163 9.91954,-9.06198 1.5909,-0.82269 3.49468,-2.8561 4.23061,-4.5187 1.24271,-2.80746 1.71047,-3.02291 6.56317,-3.02291 6.84908,0 13.03611,-3.15606 14.89132,-7.5962 2.42259,-5.79808 8.94072,-8.62552 9.57581,-4.1538 0.22381,1.57591 0.91874,2.18166 2.31955,2.02191 8.05632,-0.91881 14.44579,-2.29348 17,-3.6575 1.65,-0.88115 4.4074,-1.60486 6.12756,-1.60825 3.34512,-0.007 4.93008,-1.29739 5.53305,-4.50616 0.29866,-1.58936 1.19336,-2.0121 4.35761,-2.05892 3.20515,-0.0474 4.20947,-0.53503 5.14914,-2.5 0.7997,-1.67227 1.27212,-13.46421 1.5,-37.44108 l 0.33264,-35 -9.44479,0.32203 c -5.19463,0.17712 -11.26963,0.95807 -13.5,1.73545 -2.23036,0.77738 -4.85683,1.41996 -5.83659,1.42797 -0.97977,0.008 -2.04041,0.68955 -2.35699,1.51455 -0.31659,0.825 -1.20246,1.5 -1.96862,1.5 -0.76615,0 -1.39301,0.45 -1.39301,1 0,0.55 -0.86734,1 -1.92742,1 -1.06008,0 -2.89994,1.2375 -4.08857,2.75 -1.18864,1.5125 -3.8088,3.21442 -5.82258,3.78204 -2.01379,0.56762 -3.66143,1.54262 -3.66143,2.16667 0,2.47105 -0.39392,2.58572 -17,4.94873 -2.2,0.31306 -4.675,1.13501 -5.5,1.82657 -0.825,0.69155 -2.66283,1.53264 -4.08406,1.86909 -1.42124,0.33644 -4.34624,2.01253 -6.5,3.72466 -5.64343,4.4862 -9.4105,5.77556 -17.89174,6.12381 -5.17333,0.21243 -7.51325,0.6975 -7.51771,1.55843 -0.004,0.84539 -1.86768,1.27477 -5.75649,1.32651 -3.1625,0.0421 -6.65,0.26812 -7.75,0.50231 -1.1,0.23419 -4.29997,0.54277 -7.11104,0.68572 -2.81107,0.14295 -5.73607,0.75806 -6.5,1.36689 -0.76393,0.60884 -3.6212,1.34624 -6.3495,1.63867 -3.3828,0.36258 -5.50116,1.19932 -6.66029,2.63079 C 841.9443,164.0554 840.75818,165 840.24335,165 c -2.20969,0 -7.54295,3.42968 -7.98967,5.13794 -0.32254,1.2334 -1.39431,1.86206 -3.17453,1.86206 -1.47817,0 -4.81632,1.35 -7.4181,3 -2.87036,1.82033 -6.06992,3 -8.13676,3 -1.87344,0 -3.68437,0.45 -4.02429,1 -0.33992,0.55 -2.153,1 -4.02908,1 -2.59626,0 -3.91796,0.68563 -5.53321,2.87038 -1.16719,1.5787 -3.88066,3.45073 -6.02993,4.16006 C 791.7585,187.73976 790,188.92309 790,189.66006 790,190.39703 789.31088,191 788.46862,191 c -0.84227,0 -1.78942,0.67242 -2.10479,1.49426 -0.31537,0.82184 -0.97942,1.24332 -1.47568,0.93661 -0.49625,-0.3067 -1.17224,0.14589 -1.5022,1.00575 -0.44937,1.17103 -2.06639,1.56338 -6.44325,1.56338 -4.38998,0 -6.07294,0.41031 -6.76654,1.6497 -0.59664,1.06615 -1.67508,1.45309 -3.04869,1.09388 -1.16902,-0.3057 -2.39946,-0.11251 -2.73432,0.42931 -0.36443,0.58965 -2.63638,0.70626 -5.65947,0.29048 -4.5491,-0.62566 -5.22573,-0.4625 -6.81398,1.64309 -1.65689,2.19659 -2.47745,2.34956 -13.59153,2.53383 -6.50549,0.10786 -12.67528,0.52894 -13.71064,0.93573 -1.04156,0.40923 -2.71064,0.22242 -3.73643,-0.4182 C 719.86142,203.52102 716.64336,203 713.72985,203 c -5.94626,0 -8.09694,1.17698 -24.74694,13.54299 -6.0465,4.49076 -13.1067,8.60519 -19.48291,11.35395 -5.5,2.37103 -11.11434,5.01629 -12.47631,5.87835 -1.73767,1.09986 -5.61535,1.66188 -13,1.88419 -15.88146,0.4781 -23.00492,0.98842 -23.71545,1.69894 -0.35286,0.35287 -1.27372,0.64158 -2.04634,0.64158 -0.77261,0 -2.1123,0.70755 -2.97708,1.57233 -0.98858,0.98857 -2.45025,1.35198 -3.93699,0.97883 -1.40508,-0.35265 -4.17615,0.23175 -6.82872,1.44013 -2.45523,1.11849 -7.17645,2.31712 -10.49159,2.66362 -4.23684,0.44284 -6.02752,1.05084 -6.02752,2.04656 0,0.77911 -0.43015,1.15072 -0.95588,0.8258 -0.52573,-0.32492 -2.0644,0.37308 -3.41926,1.55111 -1.99939,1.73845 -2.36002,2.77878 -1.91465,5.52329 0.31452,1.93812 0.0459,3.98726 -0.6293,4.80084 -0.80447,0.96933 -0.84553,1.62493 -0.12947,2.06748 1.62465,1.00409 1.25695,3.64705 -1.13596,8.16505 -2.04968,3.86996 -2.10451,4.49167 -0.85541,9.69852 0.92967,3.8753 1.12439,8.34896 0.64169,14.74316 -0.38114,5.04882 -0.3777,14.1622 0.008,20.25194 0.62383,9.85863 0.96446,11.33611 3.10763,13.47928 2.17959,2.17959 2.94442,2.34329 8.09499,1.73259 3.12839,-0.37093 8.16298,-1.41488 11.18798,-2.31989 z"
       id="path1" />
  </g>
</svg>
