<?xml version="1.0" encoding="UTF-8" standalone="no"?>
<!-- Created with Inkscape (http://www.inkscape.org/) -->

<svg
   version="1.1"
   id="svg1"
   width="597.25177"
   height="459.2291"
   viewBox="0 0 597.25177 459.22909"
   sodipodi:docname="Bu2b.svg"
   inkscape:version="1.3.2 (091e20ef0f, 2023-11-25)"
   xmlns:inkscape="http://www.inkscape.org/namespaces/inkscape"
   xmlns:sodipodi="http://sodipodi.sourceforge.net/DTD/sodipodi-0.dtd"
   xmlns="http://www.w3.org/2000/svg"
   xmlns:svg="http://www.w3.org/2000/svg">
  <defs
     id="defs1" />
  <sodipodi:namedview
     id="namedview1"
     pagecolor="#ffffff"
     bordercolor="#000000"
     borderopacity="0.25"
     inkscape:showpageshadow="2"
     inkscape:pageopacity="0.0"
     inkscape:pagecheckerboard="0"
     inkscape:deskcolor="#d1d1d1"
     showgrid="false"
     inkscape:zoom="0.98521577"
     inkscape:cx="299.9343"
     inkscape:cy="153.77342"
     inkscape:window-width="1920"
     inkscape:window-height="1011"
     inkscape:window-x="0"
     inkscape:window-y="0"
     inkscape:window-maximized="1"
     inkscape:current-layer="layer2" />
  <g
     inkscape:groupmode="layer"
     id="layer2"
     inkscape:label="Layer 1">
    <path
       id="path1"
       style="fill:#000000"
       d="M 186.43969 29.384756 L 180.72094 29.519521 L 180.59985 47.99999 L 180.47875 66.480459 L 178.51586 70.800771 C 177.4362 73.176765 149.30051 137.3276 115.99243 213.35936 L 55.43188 351.5996 L 45.246333 351.41601 C 36.312057 351.25484 35.024017 351.32572 34.76977 351.98827 C 34.322723 353.15327 35.462407 401.52312 36.242427 414.48046 C 36.623846 420.81643 37.163585 430.42786 37.441645 435.83983 C 38.045571 447.59414 39.20801 461.971 39.842036 465.51366 C 40.440514 468.8577 42.965656 476.18977 44.664302 479.51952 C 46.37115 482.86534 50.095884 486.0679 53.947505 487.49999 L 56.879145 488.58983 L 329.76 488.49608 L 602.64086 488.40038 L 602.92211 481.67968 L 603.20336 474.96093 L 612.59594 448.3203 C 617.76183 433.66836 623.50979 418.2614 625.36743 414.08397 C 628.02811 408.10064 629.05314 405.09523 630.1975 399.92382 C 631.62116 393.49034 631.65299 393.05801 631.7854 378.24022 L 631.92016 363.11913 L 615.35961 363.11913 L 598.79907 363.11913 L 598.25219 368.88085 C 597.39536 377.90118 597.05143 378.73658 593.79711 379.66991 L 592.26 380.10936 L 478.05102 242.98632 L 363.84008 105.86327 L 363.84008 103.5996 C 363.84008 102.35477 363.62347 101.20409 363.35961 101.04101 C 363.09574 100.87793 326.75383 92.76588 282.59985 83.015615 C 238.44583 73.265349 200.35687 64.844946 197.95727 64.302724 L 193.59399 63.316396 L 193.26977 46.675771 C 193.09144 37.52308 192.769 29.856642 192.55297 29.640615 C 192.33694 29.424583 189.58573 29.309996 186.43969 29.384756 z M 180.93969 82.800771 L 180.96118 108.72069 C 180.97277 122.97666 181.29593 188.31612 181.67993 253.91991 C 182.06394 319.52373 182.38291 375.73786 182.38891 378.83983 L 182.40063 384.48046 L 180.11938 384.41991 C 178.86538 384.38672 172.87103 383.95433 166.79907 383.45897 C 147.47295 381.88236 63.997796 371.8374 63.146724 370.98632 C 63.023581 370.86318 62.859389 366.66798 62.781489 361.6621 L 62.640864 352.56054 L 121.7893 217.67968 L 180.93969 82.800771 z M 361.5061 115.01561 C 361.6251 114.42566 396.7695 156.07954 471.84008 245.78124 C 532.42795 318.17758 582.0724 377.59606 582.1604 377.82421 C 582.2484 378.05237 582.03193 378.21458 581.67993 378.18358 C 579.80253 378.01811 471.6027 363.28409 471.49829 363.17968 C 471.43013 363.11152 471.21014 361.55664 471.00805 359.72655 L 470.64086 356.40038 L 464.20727 356.26561 L 457.77368 356.13085 L 452.68774 351.41015 C 449.88994 348.81361 446.498 346.01388 445.15063 345.18749 C 442.42134 343.51353 438.10475 338.87954 431.90063 330.96093 C 429.62538 328.05693 424.73595 322.00752 421.03344 317.51952 C 412.94615 307.71647 409.69598 301.88803 405.11743 288.96093 C 403.48111 284.34093 400.32891 276.18494 398.11157 270.83788 C 395.89423 265.49084 394.08032 260.8722 394.08032 260.57421 C 394.08032 259.71101 387.66869 240.04105 383.99438 229.63085 C 380.98483 221.1041 380.43691 218.9648 378.72094 209.05663 C 377.66769 202.97503 375.82184 193.46391 374.61938 187.91991 C 373.41693 182.37593 370.72853 169.41511 368.64477 159.11913 C 366.561 148.82315 364.31932 137.91685 363.6643 134.88085 C 362.52567 129.60335 361.13911 116.83494 361.5061 115.01561 z M 200.05102 366.59179 L 328.14477 366.92577 L 456.24047 367.2578 L 511.66235 374.93163 C 542.14435 379.15152 567.13671 382.65599 567.20141 382.72069 C 567.66634 383.18561 536.14497 385.78753 511.01586 387.35741 C 486.21692 388.90666 475.67866 389.33872 452.92993 389.74413 C 423.51618 390.26865 342.80631 390.266 296.64086 389.73827 C 264.47447 389.37056 201.78097 386.8191 200.89672 385.84179 C 200.81656 385.7532 200.59323 381.38583 200.40063 376.13671 L 200.05102 366.59179 z "
       transform="translate(-34.668208,-29.361318)" />
    <g
       id="layer3"
       inkscape:label="01"
       style="fill:#552200">
      <path
         style="fill:#552200"
         d="m 600.95998,481.06158 v -5.65841 l 9.55466,-27.34159 c 5.33884,-15.27761 11.04493,-30.69288 12.93219,-34.93691 2.67453,-6.01442 3.67777,-8.96172 4.81996,-14.16 1.34857,-6.13752 1.46353,-7.46262 1.76678,-20.36467 l 0.32436,-13.8 h -14.8872 -14.88719 l -0.34666,4.84334 c -0.6067,8.47649 -1.60799,10.6757 -5.75701,12.64454 -1.75008,0.83046 -6.12068,1.26629 -19.43989,1.93849 -2.244,0.11325 -10.40082,0.86173 -18.12627,1.66329 -7.72545,0.80157 -27.81345,2.31894 -44.64,3.37196 -42.14363,2.63736 -71.23214,3.12464 -163.07372,2.73174 -66.8105,-0.28582 -70.98513,-0.35594 -104.16,-1.74963 -19.008,-0.79853 -38.448,-1.78518 -43.2,-2.19255 -10.7516,-0.9217 -11.25273,-0.96011 -20.64,-1.58215 -17.51392,-1.16055 -28.01695,-2.19547 -59.39986,-5.85302 -33.997739,-3.96229 -59.708267,-7.32709 -60.276534,-7.88853 -0.177979,-0.17584 -0.539598,-4.53972 -0.803598,-9.69752 l -0.48,-9.3778 -11.879999,-0.16867 -11.88,-0.16868 v 1.44129 c 0,9.72587 1.13866,49.50287 1.675311,58.5239 0.384774,6.468 0.927307,16.188 1.205629,21.6 0.604735,11.75913 1.768196,26.13285 2.401899,29.67372 0.592128,3.30856 3.125631,10.69405 4.735361,13.80418 1.677454,3.24098 4.693799,5.84203 8.350248,7.20057 l 2.991551,1.11151 271.559992,0.025 271.55999,0.025 z"
         id="path2"
         transform="translate(-34.668208,-29.361318)" />
      <path
         style="fill:#552200"
         d="m 198.4483,377.4 c -0.21983,-4.686 -0.32271,-9.276 -0.22863,-10.2 0.25142,-2.46934 0.26632,-1.68909 -1.34304,-70.32 -0.81717,-34.848 -2.34993,-103.968 -3.40615,-153.6 -1.05622,-49.632001 -2.06264,-95.154 -2.23651,-101.16 L 190.91786,31.2 h -4.32585 -4.32584 l 0.32502,45.479999 c 0.17876,25.014001 0.64685,104.435981 1.0402,176.493291 0.39335,72.05731 0.8005,131.0986 0.90477,131.20287 0.10426,0.10426 2.57927,0.34727 5.50001,0.54001 2.92074,0.19274 5.45745,0.49745 5.63713,0.67713 0.17968,0.17968 0.96749,0.3267 1.75069,0.3267 h 1.424 z"
         id="path6"
         transform="translate(-34.668208,-29.361318)" />
      <path
         style="fill:#552200"
         d="m 469.1949,361.8 c -0.18838,-1.914 -0.3723,-3.50471 -0.40871,-3.5349 -0.33905,-0.28113 -94.91917,-0.86251 -183.1862,-1.12604 -20.988,-0.0627 -44.964,-0.25459 -53.28,-0.4265 -8.316,-0.17191 -18.954,-0.25369 -23.64,-0.18174 l -8.52,0.13083 v 4.0675 4.06749 l 66.84,0.12337 c 36.762,0.0679 97.37192,0.17661 134.68871,0.24168 l 67.84872,0.11831 z"
         id="path11"
         transform="translate(-34.668208,-29.361318)" />
      <path
         style="fill:#552200"
         d="m 361.91999,104.4185 c 0,-1.51731 -0.1562,-1.70184 -1.8,-2.12635 -0.99,-0.25567 -38.70578,-8.608257 -83.81285,-18.561313 -67.04794,-14.794399 -82.08945,-17.975522 -82.43265,-17.433652 -0.23089,0.364548 -0.42233,1.634814 -0.42542,2.822814 l -0.006,2.16 7.07827,1.575457 c 3.89305,0.866501 8.37427,1.778783 9.95827,2.027293 2.88935,0.453303 11.04441,2.108793 48.48,9.841509 11.088,2.290343 21.672,4.448057 23.52,4.79492 9.36726,1.7582 43.345,8.932937 44.30259,9.354929 0.60642,0.267241 1.69935,0.485892 2.42873,0.485892 0.72938,0 5.52521,0.888851 10.65741,1.975221 5.1322,1.08637 10.41127,2.16472 11.73127,2.39633 1.32,0.2316 3.804,0.83027 5.52,1.33037 4.58661,1.33668 4.8,1.30807 4.8,-0.64342 z"
         id="path37"
         transform="translate(-34.668208,-29.361318)" />
    </g>
    <path
       style="display:inline;fill:#ffcc00"
       d="m 347.75999,426.1861 c -15.32533,-0.42236 -37.16749,-1.39473 -96.48,-4.29508 -58.61549,-2.86626 -76.14407,-4.33402 -149.01645,-12.47788 -19.793196,-2.212 -56.440977,-8.19087 -57.642514,-9.40404 -0.661492,-0.6679 -1.163451,-12.45498 -0.546635,-12.8362 0.289833,-0.17912 12.216961,1.31027 26.504728,3.30977 14.287767,1.9995 32.294041,4.27497 40.013941,5.0566 7.71991,0.78163 20.50061,2.16784 28.40156,3.08047 27.82715,3.21426 52.48285,5.54894 71.00537,6.72358 39.92213,2.53173 74.81721,4.08938 107.52,4.79949 90.93535,1.97458 96.81534,1.9966 126.48,0.47383 7.524,-0.38623 22.86,-1.13386 34.08,-1.66139 36.44232,-1.71341 78.0895,-5.16201 110.38243,-9.14023 12.81366,-1.57853 24.97172,-3.12571 27.01792,-3.43818 5.18375,-0.79159 5.20412,-0.75635 3.53027,6.10663 -0.74031,3.03535 -1.51695,5.62447 -1.72587,5.75359 -0.20892,0.12912 -12.44546,1.95382 -27.1923,4.05489 -22.27965,3.17431 -31.03209,4.18929 -51.77246,6.00379 -29.12538,2.54808 -80.4334,6.07983 -108.35614,7.45861 -20.90361,1.03218 -54.09258,1.2065 -82.20385,0.43175 z"
       id="path3"
       transform="translate(-34.668208,-29.361318)" />
    <path
       style="display:inline;fill:#ff0000"
       d="m 429.00384,423.83435 c 27.92323,-1.37881 79.23115,-4.91056 108.35614,-7.45863 20.6906,-1.81018 29.50907,-2.8318 51.55497,-5.97268 14.62723,-2.08394 26.73882,-4.02174 26.91464,-4.30623 0.42704,-0.69096 2.07315,-7.71405 1.8584,-7.9288 -0.0928,-0.0928 -1.24859,0.0367 -2.56839,0.28787 -1.31979,0.25115 -12.88352,1.73747 -25.69718,3.30293 -32.6075,3.98368 -74.21688,7.41688 -110.62243,9.12749 -11.352,0.5334 -26.58,1.27945 -33.84,1.65789 -29.26219,1.52535 -37.45251,1.49467 -128.4,-0.48106 -32.70092,-0.71039 -67.60551,-2.26857 -107.52,-4.79981 -18.52103,-1.17455 -43.11214,-3.50331 -71.06856,-6.73014 -7.93572,-0.91597 -20.65997,-2.29606 -28.27612,-3.06686 -7.61615,-0.7708 -25.045361,-2.96398 -38.731578,-4.87374 -13.686217,-1.90976 -25.015531,-3.34079 -25.176252,-3.18006 -0.160721,0.16072 -0.106654,2.29019 0.120149,4.73215 l 0.41237,4.43994 5.759999,1.08183 c 17.922345,3.36613 36.060987,6.14257 51.120002,7.82482 82.9408,9.26538 93.51452,10.04067 209.99999,15.39783 46.59851,2.14306 85.17009,2.4579 115.80385,0.94526 z"
       id="path4"
       transform="translate(-34.668208,-29.361318)" />
    <g
       id="layer4"
       inkscape:label="02"
       style="fill:#ff9955">
      <path
         style="fill:#ff9955"
         d="m 585.72861,381.12 c -0.53051,-0.6196 -1.42241,-0.96248 -2.5153,-0.96699 -0.93133,-0.004 -26.42506,-3.33698 -56.65273,-7.40697 -46.39792,-6.24723 -55.01929,-7.29297 -55.34385,-6.71302 -0.24694,0.44126 -1.17712,0.68698 -2.60059,0.68698 -3.51188,0 -1.94966,0.62332 1.90202,0.7589 3.10645,0.10935 103.58082,13.85419 104.76182,14.33137 0.264,0.10666 2.90789,0.21099 5.87531,0.23183 5.35084,0.0376 5.38852,0.03 4.57332,-0.9221 z"
         id="path8"
         transform="translate(-34.668208,-29.361318)" />
      <path
         style="fill:#ff9955"
         d="m 590.78967,380.99448 c 0.092,-0.47779 -0.132,-0.83448 -0.52408,-0.83448 -0.37663,0 -51.69997,-61.25039 -114.05188,-136.11198 C 394.84183,146.35046 362.61425,107.98078 362.0233,108.09459 c -0.47498,0.0915 -0.82331,0.59761 -0.82331,1.19632 0,0.67817 38.5858,47.16298 111.35716,134.15342 61.24644,73.21362 112.54644,134.34817 114,135.85455 2.64701,2.74322 3.93165,3.25786 4.23252,1.6956 z"
         id="path9"
         transform="translate(-34.668208,-29.361318)" />
      <path
         style="fill:#ff9955"
         d="m 61.411604,350.52 c 0.333134,-0.726 27.36005,-62.46899 60.059816,-137.20665 l 59.45411,-135.886648 -0.0361,-3.313351 -0.0361,-3.313352 -0.90255,1.92 C 175.06176,83.120421 58.136616,351.06328 58.342028,351.39564 c 0.601095,0.97259 2.465539,0.44073 3.069576,-0.87564 z"
         id="path30"
         transform="translate(-34.668208,-29.361318)" />
    </g>
    <g
       id="layer5"
       inkscape:label="03"
       style="fill:#ffff00">
      <path
         style="fill:#0000ff"
         d="m 214.55999,354.56948 c 0,-0.0828 -0.32177,-2.59018 -0.71505,-5.57199 -2.48114,-18.8117 -3.10046,-28.55914 -2.99117,-47.07749 l 0.10622,-18 h 1.92 1.92 l 0.3727,4.56 c 0.20499,2.508 0.24519,9.852 0.0893,16.32 -0.23793,9.87429 -0.12421,13.33783 0.70918,21.6 1.09024,10.80858 2.80692,25.54312 3.17366,27.24 0.23233,1.07499 0.27669,1.08 9.57227,1.08 h 9.33885 l -0.22987,-1.32 c -0.12643,-0.726 -0.56152,-4.02 -0.96686,-7.32 -0.82682,-6.7313 -3.54425,-21.75908 -5.25121,-29.04 -0.71591,-3.05364 -1.32439,-7.85614 -1.67246,-13.2 -0.30091,-4.62 -1.08463,-14.556 -1.74158,-22.08 -0.65695,-7.524 -1.61313,-18.972 -2.12484,-25.44 -0.51171,-6.468 -1.25813,-15 -1.65871,-18.96 -0.40058,-3.96 -0.7334,-10.872 -0.73961,-15.36 -0.006,-4.56558 -0.34837,-10.80296 -0.77652,-14.16 -0.51029,-4.00097 -0.88323,-12.47688 -1.11937,-25.44 -0.19477,-10.692 -0.63758,-34.668 -0.98402,-53.28 -0.50137,-26.93538 -0.50987,-35.446572 -0.0417,-41.713904 0.46223,-6.187401 0.46302,-7.951284 0.004,-8.235175 -0.97912,-0.605131 -9.08361,-2.040281 -9.45007,-1.673427 -0.18858,0.188784 -0.38349,16.903078 -0.43313,37.142876 -0.0497,20.23979 -0.26565,37.98763 -0.48,39.43963 l -0.38975,2.64 h -1.92 -1.92 l 0.0634,-3.84 c 0.0348,-2.112 0.0975,-20.25113 0.1392,-40.30918 l 0.0758,-36.469177 -6.13372,-1.296299 c -3.37355,-0.712965 -6.19671,-1.233312 -6.27369,-1.156328 -0.20853,0.208523 5.70196,278.732714 5.94161,279.990984 0.20242,1.06278 0.32031,1.08 7.39655,1.08 3.95497,0 7.19085,-0.0677 7.19085,-0.15052 z"
         id="path26"
         transform="translate(-34.668208,-29.361318)" />
      <path
         style="fill:#008000"
         d="m 257.75999,354.93558 c 0,-0.14543 -0.74023,-3.22343 -1.64497,-6.84 -2.39706,-9.58196 -3.99968,-18.76699 -4.37174,-25.05558 -0.17963,-3.036 -0.83961,-7.85783 -1.46664,-10.71517 -1.52814,-6.96375 -2.68158,-16.18591 -2.50256,-20.00887 L 247.91999,289.2 h 1.92 c 1.85007,0 1.92463,0.0612 2.04716,1.68 0.36358,4.80336 1.70189,13.97318 2.70949,18.56483 0.62703,2.85734 1.28648,7.67917 1.46547,10.71517 0.37041,6.28305 2.31425,17.06173 4.97743,27.6 l 1.81955,7.2 7.77045,0.13189 c 5.10761,0.0867 7.77045,-0.0379 7.77045,-0.36362 0,-0.27253 -0.64372,-2.70788 -1.43049,-5.41189 -1.69751,-5.83406 -3.83078,-18.342 -5.50484,-32.27638 -0.66605,-5.544 -2.07748,-15.048 -3.1365,-21.12 -1.05902,-6.072 -3.44391,-22.92 -5.29974,-37.44 -1.85584,-14.52 -4.11778,-31.8 -5.02653,-38.4 -3.4941,-25.37674 -4.08776,-31.53358 -5.9936,-62.16 -1.74632,-28.06281 -1.92668,-32.92196 -1.92745,-51.92597 l -8.5e-4,-20.965969 -2.76,-0.559775 c -1.518,-0.307877 -4.056,-0.825369 -5.64,-1.149982 l -2.88,-0.590207 0.0371,14.435951 c 0.0204,7.939772 0.18637,16.595952 0.36876,19.235952 0.18239,2.64 0.65381,10.092 1.04761,16.56 0.3938,6.468 1.15604,14.69397 1.69388,18.27993 0.53784,3.58596 0.9137,8.12196 0.83525,10.08 l -0.14265,3.56007 h -1.92 -1.92 l -0.12873,-2.16 c -0.0708,-1.188 -0.55466,-5.076 -1.07524,-8.64 -0.88632,-6.06791 -1.60256,-15.73064 -2.91751,-39.36 -0.30303,-5.44541 -0.40129,-12.78137 -0.22001,-16.426058 0.18016,-3.622331 0.17691,-8.835163 -0.007,-11.584071 l -0.33479,-4.998014 -3.8733,-0.77687 c -2.13032,-0.427278 -4.02229,-0.614446 -4.20437,-0.415929 -0.18209,0.198518 -0.59999,4.248941 -0.92867,9.000941 -0.47839,6.916553 -0.47547,14.767811 0.0147,39.360001 0.33675,16.896 0.77333,39.576 0.97018,50.4 0.23881,13.13044 0.61196,21.67681 1.12126,25.68 0.42567,3.34588 0.76832,9.6096 0.77461,14.16 0.006,4.488 0.33903,11.4 0.73961,15.36 0.40058,3.96 1.147,12.492 1.65871,18.96 0.51171,6.468 1.46789,17.916 2.12484,25.44 0.65695,7.524 1.44066,17.46 1.74158,22.08 0.34807,5.34386 0.95655,10.14636 1.67246,13.2 1.94728,8.30597 4.48522,22.7183 5.53644,31.44 0.55684,4.62 1.09635,8.67 1.19891,9 0.13868,0.44624 2.09692,0.6 7.64153,0.6 4.10028,0 7.45506,-0.11899 7.45506,-0.26442 z"
         id="path21"
         transform="translate(-34.668208,-29.361318)" />
      <path
         style="fill:#0000ff"
         d="m 298.0729,354.84 c -0.004,-0.198 -0.34457,-1.764 -0.75703,-3.48 -0.41247,-1.716 -1.69067,-8.088 -2.84044,-14.16 -1.14978,-6.072 -3.30267,-16.872 -4.78419,-24 -1.48153,-7.128 -2.63014,-13.716 -2.55247,-14.64 0.12812,-1.52414 0.29161,-1.69438 1.76226,-1.83497 0.89157,-0.0852 1.80069,0.0247 2.02028,0.24429 0.45189,0.45189 4.71411,20.671 7.92418,37.59068 1.17704,6.204 2.62559,13.332 3.21899,15.84 l 1.07891,4.56 8.2683,0.13133 c 4.54757,0.0722 8.2683,0.0148 8.2683,-0.12757 0,-0.1424 -2.5793,-10.5695 -5.73178,-23.17134 -3.92708,-15.69828 -5.98124,-24.87713 -6.52407,-29.15242 -0.85111,-6.7032 -5.9506,-31.1588 -10.95982,-52.56 -5.44138,-23.24757 -10.1957,-56.1778 -13.0631,-90.48 -1.17441,-14.04927 -1.28898,-17.60431 -1.3426,-41.66023 -0.0577,-25.883854 -0.0738,-26.303659 -1.01863,-26.516871 -5.44877,-1.229612 -9.97366,-2.1429 -10.61702,-2.1429 -0.71149,0 -0.7617,0.888476 -0.52223,9.24 0.75289,26.256391 2.14023,44.912861 4.95421,66.622191 0.46355,3.5762 0.7016,6.8702 0.529,7.32 -0.34121,0.88915 -3.42329,1.18026 -3.92369,0.37059 -0.54757,-0.88598 -2.70665,-18.1938 -3.83628,-30.75278 -0.53211,-5.91586 -1.81807,-31.94724 -2.12065,-42.927889 l -0.30334,-11.007888 -5.04,-1.08048 c -2.772,-0.594264 -5.202,-1.094715 -5.4,-1.112112 -0.198,-0.0174 -0.35962,8.554368 -0.35915,19.048369 7.4e-4,16.80228 0.23084,22.77592 1.92745,50.04 1.90584,30.62642 2.4995,36.78326 5.9936,62.16 0.90875,6.6 3.17069,23.88 5.02653,38.4 1.85583,14.52 4.24072,31.368 5.29974,37.44 1.05902,6.072 2.47045,15.576 3.1365,21.12 1.8105,15.07004 3.84619,26.55793 6.06036,34.2 l 1.98178,6.84 h 7.1266 c 3.91962,0 7.1234,-0.162 7.1195,-0.36 z"
         id="path24"
         transform="translate(-34.668208,-29.361318)" />
      <path
         style="fill:#008000"
         d="m 341.58106,354.84 c -0.13399,-0.462 -1.5374,-5.268 -3.1187,-10.68 -4.60249,-15.75207 -11.17723,-41.61414 -11.01282,-43.31946 0.13732,-1.42433 0.30732,-1.57353 1.94762,-1.70935 1.49811,-0.12404 1.87407,0.0357 2.25937,0.96 0.25421,0.60984 2.21543,7.91281 4.35827,16.22881 3.40781,13.2252 8.11187,30.04485 10.37039,37.08 l 0.73195,2.28 h 7.88143 c 4.33478,0 7.88142,-0.0934 7.88142,-0.20748 0,-0.11411 -1.06941,-2.93104 -2.37646,-6.25985 -1.30705,-3.32881 -4.11362,-11.74552 -6.23683,-18.70379 -2.12321,-6.95828 -4.69799,-14.99534 -5.72175,-17.86015 -3.36562,-9.4181 -7.67592,-23.77668 -9.84886,-32.80873 -1.17499,-4.884 -3.35311,-13.308 -4.84027,-18.72 -3.9187,-14.26081 -10.33583,-40.46007 -10.33583,-42.19817 0,-0.81935 -0.52096,-3.70195 -1.15769,-6.40578 -0.66249,-2.8132 -1.39266,-8.09853 -1.707,-12.35605 -0.30212,-4.092 -1.06795,-11.976 -1.70185,-17.52 -0.63391,-5.544 -1.49271,-14.076 -1.90846,-18.96 -0.41575,-4.884 -1.22181,-12.336 -1.79126,-16.56 -0.92346,-6.85009 -1.03664,-9.91484 -1.0473,-28.36116 l -0.012,-20.681165 -5.33038,-1.038838 c -2.93171,-0.571361 -5.61811,-1.038838 -5.96978,-1.038838 -0.52832,0 -0.58588,4.357491 -0.33133,25.080001 0.29941,24.37395 0.47314,27.75601 2.51031,48.86854 0.47278,4.8997 0.71947,9.2737 0.54821,9.72 -0.32628,0.85026 -3.41516,1.18312 -3.88747,0.41891 -0.13344,-0.21591 -0.57736,-3.61791 -0.98649,-7.56 -1.95959,-18.88106 -2.28788,-25.37439 -2.59508,-51.32745 l -0.31248,-26.400001 -5.43703,-1.122964 c -2.99037,-0.617631 -5.58237,-0.977186 -5.76,-0.799012 -0.17763,0.178174 -0.29642,11.159507 -0.26397,24.402967 0.053,21.63146 0.18948,25.6403 1.34261,39.43901 2.86596,34.29503 7.62093,67.23066 13.06272,90.48 5.03028,21.49117 10.11394,45.87281 10.95895,52.56 0.54898,4.34451 2.64827,13.67616 6.91089,30.72 l 6.12238,24.48 4.53173,0.26812 c 2.49244,0.14746 6.32828,0.30946 8.52407,0.36 3.59853,0.0828 3.96831,0.009 3.74872,-0.74812 z"
         id="path15"
         transform="translate(-34.668208,-29.361318)" />
      <path
         style="fill:#0000ff"
         d="m 380.1743,354.74673 c -0.27471,-0.5133 -0.6973,-1.05553 -0.93909,-1.20496 -0.61952,-0.38289 -1.34759,-2.5166 -6.23133,-18.26177 -2.37468,-7.656 -5.52423,-17.16 -6.99898,-21.12 -1.79306,-4.81471 -2.63558,-7.75657 -2.54314,-8.88 0.13304,-1.61696 0.21027,-1.68 2.05823,-1.68 h 1.92 l 2.53824,6.72 c 1.39603,3.696 4.5908,13.308 7.09949,21.36 5.67868,18.22655 5.3692,17.40673 7.91764,20.97412 l 2.12463,2.97412 6.84,0.0259 c 3.762,0.0142 6.84,-0.056 6.84,-0.15612 0,-0.1001 -0.52322,-1.3421 -1.16271,-2.76 -0.6395,-1.4179 -3.79631,-8.41 -7.01514,-15.538 -13.65353,-30.23533 -15.32221,-34.27939 -20.69721,-50.16 -3.39109,-10.01911 -5.43863,-17.28676 -9.98983,-35.45855 -1.87595,-7.4902 -4.02688,-15.81249 -4.77983,-18.49399 -3.00061,-10.68613 -4.07725,-16.68902 -9.4094,-52.46299 -1.72355,-11.56346 -3.6534,-24.15647 -4.28854,-27.98447 -0.63515,-3.828 -2.59911,-16.572 -4.36435,-28.32 -1.76525,-11.748 -3.28135,-21.44004 -3.36913,-21.53787 -0.28937,-0.3225 -5.67934,-1.46665 -5.8947,-1.25129 -0.65732,0.65732 2.56867,35.27541 4.76276,51.10916 2.65683,19.17313 3.46078,26.8196 3.23548,30.77337 L 337.67999,186 h -1.92 -1.92 l -0.56615,-6.48 c -0.31138,-3.564 -1.65968,-14.364 -2.99623,-24 -1.66348,-11.99298 -2.81136,-22.66846 -3.63866,-33.84 -0.66471,-8.976 -1.32808,-17.43903 -1.47415,-18.80674 l -0.26558,-2.48674 -2.39324,-0.513262 c -1.31628,-0.282293 -2.67647,-0.513259 -3.02263,-0.513259 -0.49143,0 -0.70581,2.471861 -0.97803,11.277231 -0.4125,13.34303 -0.0485,23.64185 1.19604,33.84277 0.49925,4.092 1.24788,11.436 1.66363,16.32 0.41575,4.884 1.27455,13.416 1.90846,18.96 0.6339,5.544 1.39915,13.428 1.70056,17.52 0.35651,4.83992 1.03693,9.50558 1.947,13.35058 0.76944,3.25082 1.39898,6.57706 1.39898,7.39164 0,1.72507 5.93678,25.94886 9.8566,40.21778 1.48673,5.412 3.66398,13.836 4.83833,18.72 2.09338,8.70611 7.07122,25.27913 9.87579,32.88 0.77928,2.112 3.12828,9.456 5.21999,16.32 2.09171,6.864 5.2625,16.31312 7.0462,20.99804 l 3.24309,8.51805 6.13689,0.002 c 5.92983,0.002 6.12003,-0.0295 5.63742,-0.93131 z"
         id="path18"
         transform="translate(-34.668208,-29.361318)" />
      <path
         style="fill:#008000"
         d="m 447.44435,353.58821 c -1.4984,-1.41448 -4.06315,-3.41411 -5.69945,-4.44363 -3.14744,-1.98029 -5.77628,-4.81405 -13.5299,-14.58458 -2.61879,-3.3 -7.79281,-9.672 -11.49784,-14.16 -8.17715,-9.90521 -11.30224,-15.55638 -16.19179,-29.28 -1.78714,-5.016 -5.04845,-13.41851 -7.24736,-18.67225 -2.19891,-5.25373 -3.99802,-9.87697 -3.99802,-10.27387 0,-1.0236 -5.58011,-18.25988 -9.5816,-29.5964 -3.03616,-8.60165 -3.5784,-10.71438 -5.29739,-20.64 -1.05325,-6.08162 -2.89883,-15.59348 -4.10129,-21.13748 -1.20245,-5.544 -3.89118,-18.504 -5.97494,-28.8 -2.08377,-10.296 -4.32452,-21.204 -4.97945,-24.24 -0.7391,-3.42618 -1.57624,-10.16282 -2.20697,-17.76 -0.55891,-6.732 -1.09844,-12.48273 -1.19896,-12.77939 -0.10051,-0.29667 -0.97134,-0.68733 -1.93516,-0.86815 -0.96383,-0.18081 -2.06107,-0.4472 -2.43833,-0.59196 -0.55641,-0.21352 -0.68531,0.40352 -0.68273,3.26814 0.003,3.68313 0.4276,6.41558 4.01403,25.85136 1.19352,6.468 2.83231,16.512 3.64175,22.32 0.80945,5.808 2.24265,15.01105 3.1849,20.45123 0.94225,5.44018 1.64184,10.51618 1.55466,11.28 -0.13975,1.22434 -0.37174,1.40641 -1.95937,1.53779 -1.51497,0.12537 -1.86474,-0.027 -2.2034,-0.96 -0.59743,-1.64587 -3.21663,-17.39047 -4.89567,-29.42902 -0.81006,-5.808 -2.44935,-15.852 -3.64287,-22.32 -3.74575,-20.2992 -4.01073,-22.12467 -4.01403,-27.65374 l -0.003,-5.33373 -2.72001,-0.54626 c -1.496,-0.30044 -2.79454,-0.47172 -2.88563,-0.38064 -0.17004,0.17005 5.38098,37.46091 7.04904,47.35437 0.51188,3.036 2.34043,14.98101 4.06345,26.54447 5.32789,35.75645 6.4071,41.77427 9.40843,52.46299 0.75295,2.6815 2.90387,11.00379 4.77983,18.49399 4.5512,18.17179 6.59874,25.43944 9.98983,35.45855 5.37158,15.8705 7.14102,20.15936 20.59528,49.92 3.16277,6.996 6.60542,14.664 7.65032,17.04 l 1.89982,4.32 8.48482,0.13107 c 5.34043,0.0825 8.48482,-0.0442 8.48482,-0.34183 0,-0.2601 -1.90547,-2.47909 -4.23436,-4.93108 -6.86689,-7.22982 -12.81312,-16.44175 -19.51325,-30.23 -4.87806,-10.03861 -7.57078,-17.06875 -7.36314,-19.22366 0.13796,-1.43176 0.30465,-1.57721 1.96456,-1.7143 2.02931,-0.1676 2.03514,-0.1587 4.87001,7.42186 1.8088,4.83681 8.73148,18.74824 12.02659,24.16794 4.27349,7.02891 8.56963,12.95909 11.30147,15.6 1.36546,1.32 3.76708,4.074 5.33695,6.12 l 2.85431,3.72 h 9.78279 9.7828 z"
         id="path13"
         transform="translate(-34.668208,-29.361318)" />
    </g>
    <g
       id="layer1"
       inkscape:label="04"
       transform="translate(-34.668208,-29.361318)"
       style="fill:#c8b7b7">
      <path
         style="fill:#c8b7b7"
         d="m 208.94884,113.28 c 0.0501,-20.460001 -0.0684,-35.904001 -0.26341,-34.320001 -0.19501,1.584 -0.32246,17.568 -0.28321,35.520001 0.0392,17.952 -0.0621,34.476 -0.22522,36.72 -0.25682,3.53321 -0.23108,3.75836 0.19206,1.68 0.30165,-1.48166 0.5235,-16.63434 0.57978,-39.6 z"
         id="path36" />
      <path
         style="fill:#c8b7b7"
         d="m 240.03729,152.23561 c -1.70725,-11.43294 -3.48411,-43.53141 -3.10459,-56.083402 0.1502,-4.967715 0.0911,-10.204044 -0.13125,-11.636288 -0.48432,-3.119175 -0.47292,28.45763 0.0124,34.28408 0.17591,2.112 0.65237,9.348 1.0588,16.08 0.40642,6.732 1.15934,14.97957 1.67316,18.32794 0.51381,3.34837 0.97314,7.02037 1.02072,8.16 l 0.0865,2.07206 0.18159,-2.32439 c 0.0999,-1.27842 -0.25892,-5.27442 -0.79733,-8.88 z"
         id="path35" />
      <path
         style="fill:#c8b7b7"
         d="m 272.67236,163.85503 c -0.9045,-6.60168 -1.97368,-16.16483 -2.64915,-23.69503 -0.40875,-4.55676 -1.74752,-30.31345 -2.18306,-42.000001 l -0.37567,-10.08 0.15553,11.04 c 0.23317,16.552261 1.40545,37.541481 2.89532,51.840001 1.26824,12.17145 2.49214,20.67252 2.91531,20.24935 0.12061,-0.12061 -0.22062,-3.43005 -0.75828,-7.35432 z"
         id="path34" />
      <path
         style="fill:#c8b7b7"
         d="M 302.93105,168.16296 C 301.03082,148.82658 300.83427,144.98601 300.46627,120 L 300.09512,94.799999 300.26448,121.2 c 0.16861,26.28037 0.39617,31.07709 2.37692,50.10206 0.39522,3.79613 0.71859,7.01813 0.71859,7.16 0,0.14187 0.12467,0.13327 0.27704,-0.0191 0.15236,-0.15237 -0.16533,-4.77837 -0.70598,-10.28 z"
         id="path33" />
      <path
         style="fill:#c8b7b7"
         d="m 335.57315,176.35652 c -0.26193,-2.88009 -1.5666,-13.12052 -2.89927,-22.75652 -2.138,-15.45906 -4.83059,-43.73797 -4.83315,-50.76 -4.1e-4,-1.122 -0.19021,-2.04 -0.42178,-2.04 -0.23157,0 -0.33612,0.918 -0.23234,2.04 0.10378,1.122 0.72719,9.276 1.38535,18.12 0.80453,10.8109 1.99108,21.82096 3.62104,33.6 2.20113,15.90659 3.12415,23.62502 3.38668,28.32 0.0937,1.67482 0.0945,1.67542 0.28183,0.19652 0.10334,-0.81591 -0.0264,-3.83991 -0.28836,-6.72 z"
         id="path32" />
      <path
         style="fill:#c8b7b7"
         d="M 360.03512,180.16932 C 359.2287,175.7202 358.01591,167.976 357.34003,162.96 c -1.35198,-10.03357 -3.5921,-23.41635 -6.26703,-37.44 -0.95677,-5.016 -1.89738,-11.712 -2.09025,-14.88 l -0.35066,-5.76 -0.0729,4.8 c -0.0761,5.01518 0.16327,6.6639 3.93798,27.12 1.19352,6.468 2.83206,16.512 3.6412,22.32 1.40385,10.07681 4.12607,26.85803 4.65829,28.71617 0.13802,0.4819 0.35303,0.77409 0.4778,0.64933 0.12477,-0.12477 -0.43295,-3.86705 -1.23937,-8.31618 z"
         id="path31" />
      <path
         style="fill:#c8b7b7"
         d="m 322.37139,353.88 c -0.1393,-0.462 -2.84116,-11.208 -6.00412,-23.88 -3.92861,-15.73949 -6.00189,-25.01722 -6.54313,-29.28 -0.85111,-6.7032 -5.9506,-31.1588 -10.95982,-52.56 -5.43725,-23.22992 -10.18512,-56.10614 -13.06681,-90.48 -1.1728,-13.98969 -1.29258,-17.62959 -1.3426,-40.8 -0.0352,-16.31881 -0.19744,-24.149266 -0.45244,-21.840001 -0.21863,1.98 -0.27756,13.860001 -0.13095,26.400001 0.3519,30.09947 2.05064,51.61145 6.5385,82.8 3.26949,22.72146 4.72391,30.86103 8.15553,45.64193 5.52032,23.77749 9.57878,43.21153 10.5665,50.59807 0.65289,4.88247 2.68696,14.01643 6.81441,30.6 3.23604,13.002 6.06248,23.64 6.28097,23.64 0.21849,0 0.28327,-0.378 0.14396,-0.84 z"
         id="path29" />
      <path
         style="fill:#c8b7b7"
         d="m 239.54744,346.23681 c -1.08524,-8.6025 -3.68555,-23.20937 -5.53939,-31.11681 -0.71591,-3.05364 -1.32439,-7.85614 -1.67246,-13.2 -0.30091,-4.62 -1.08463,-14.556 -1.74158,-22.08 -0.65695,-7.524 -1.61313,-18.972 -2.12484,-25.44 -0.51171,-6.468 -1.25813,-15 -1.65871,-18.96 -0.40058,-3.96 -0.7334,-10.872 -0.73961,-15.36 -0.006,-4.56558 -0.34837,-10.80296 -0.77652,-14.16 -0.51042,-4.002 -0.883,-12.47352 -1.11886,-25.44 -1.56302,-85.926148 -1.56313,-85.937733 -0.88117,-93.720001 0.36436,-4.158 0.52144,-7.56 0.34906,-7.56 -0.17237,0 -0.58967,3.726 -0.92733,8.28 -0.49923,6.733167 -0.49793,14.467331 0.007,41.400001 0.34148,18.216 0.77955,41.868 0.97349,52.56 0.23532,12.97302 0.60719,21.43598 1.11787,25.44 0.42815,3.35704 0.77021,9.59442 0.77652,14.16 0.006,4.488 0.33903,11.4 0.73961,15.36 0.40058,3.96 1.147,12.492 1.65871,18.96 0.51171,6.468 1.46789,17.916 2.12484,25.44 0.65695,7.524 1.44067,17.46 1.74158,22.08 0.34807,5.34386 0.95655,10.14636 1.67246,13.2 1.6955,7.23201 4.41976,22.27811 5.25802,29.04 1.00306,8.09124 1.26765,9.70627 1.54476,9.42916 0.12955,-0.12955 -0.22298,-3.8701 -0.78339,-8.31235 z"
         id="path28" />
      <path
         style="fill:#c8b7b7"
         d="m 216.03787,345.23584 c -2.58749,-20.91568 -3.01226,-27.11499 -2.72126,-39.71584 0.15241,-6.6 0.11653,-13.836 -0.0797,-16.08 -0.24133,-2.75915 -0.39049,1.3588 -0.46074,12.72 -0.10639,17.20795 0.5633,27.48744 2.98882,45.87749 0.39328,2.98181 0.74011,5.7592 0.77073,6.17199 0.0432,0.58264 0.10497,0.56169 0.276,-0.0936 0.12118,-0.46428 -0.22704,-4.46028 -0.7738,-8.87999 z"
         id="path27" />
      <path
         style="fill:#c8b7b7"
         d="m 299.97397,350.58838 c -0.55509,-2.34761 -1.9489,-9.23638 -3.09736,-15.30838 -1.89177,-10.00194 -6.51606,-32.79253 -7.25583,-35.76 -0.16453,-0.66 -0.38626,-0.96679 -0.49272,-0.68176 -0.10646,0.28504 1.01478,6.33304 2.49165,13.44 1.47686,7.10697 3.62627,17.88976 4.77646,23.96176 2.81532,14.8624 3.85051,19.35331 4.34673,18.85709 0.13217,-0.13218 -0.21385,-2.16109 -0.76893,-4.50871 z"
         id="path25" />
      <path
         style="fill:#c8b7b7"
         d="m 280.02136,349.8 c -1.94691,-6.38849 -4.48007,-20.64872 -6.16049,-34.68 -0.66397,-5.544 -2.07369,-15.048 -3.13271,-21.12 -1.05902,-6.072 -3.44391,-22.92 -5.29974,-37.44 -1.85584,-14.52 -4.11778,-31.8 -5.02653,-38.4 -3.37716,-24.52742 -4.10643,-31.82169 -5.83077,-58.32 -1.46332,-22.48716 -1.81721,-31.17886 -2.07166,-50.88 L 252.1926,85.199999 252.09714,105.6 c -0.0888,18.98307 0.0384,22.5504 1.83115,51.36 1.90584,30.62642 2.4995,36.78326 5.9936,62.16 0.90875,6.6 3.17069,23.88 5.02653,38.4 1.85583,14.52 4.24072,31.368 5.29974,37.44 1.05902,6.072 2.47045,15.576 3.1365,21.12 1.37924,11.48035 3.73019,26.09575 4.82563,30 1.80161,6.4211 2.71011,9.12 3.06997,9.12 0.21272,0 -0.35378,-2.43 -1.2589,-5.4 z"
         id="path23" />
      <path
         style="fill:#c8b7b7"
         d="m 258.77409,347.21958 c -2.77737,-11.09885 -3.88009,-17.2477 -4.59456,-25.61958 -0.34922,-4.092 -1.19841,-10.14 -1.88709,-13.44 -0.68868,-3.3 -1.55287,-8.592 -1.92041,-11.76 -0.37062,-3.19455 -0.69136,-4.78437 -0.72014,-3.56948 -0.0728,3.07188 1.17207,12.15155 2.56238,18.68948 0.64561,3.036 1.31042,7.896 1.47736,10.8 0.34691,6.03475 1.94996,15.21246 4.35971,24.96 1.90133,7.69095 2.04066,8.14799 2.38036,7.80829 0.13701,-0.13702 -0.60891,-3.67793 -1.65761,-7.86871 z"
         id="path22" />
      <path
         style="fill:#c8b7b7"
         d="m 403.13095,353.4 c -3.38965,-7.76787 -4.42054,-10.08499 -6.88709,-15.48 -18.9941,-41.54529 -22.94892,-52.4842 -31.90876,-88.25855 -1.87595,-7.4902 -4.02688,-15.81249 -4.77983,-18.49399 -3.00133,-10.68872 -4.08054,-16.70654 -9.40843,-52.46299 -1.72302,-11.56346 -3.55157,-23.50847 -4.06345,-26.54447 -0.51187,-3.036 -2.34008,-14.916 -4.06268,-26.4 -3.23987,-21.5992 -3.52618,-23.29454 -3.87512,-22.9456 -0.19186,0.19186 6.07722,42.38537 7.68419,51.7178 0.38903,2.25929 2.11639,13.56881 3.83857,25.13227 5.32127,35.72924 6.40446,41.77025 9.40692,52.46299 0.75295,2.6815 2.90388,11.00379 4.77983,18.49399 8.95984,35.77435 12.91466,46.71326 31.90876,88.25855 2.42819,5.31111 4.66369,10.33861 6.77654,15.24 0.36986,0.858 0.8779,1.56 1.12897,1.56 0.25108,0 0.009,-1.026 -0.53842,-2.28 z"
         id="path20" />
      <path
         style="fill:#c8b7b7"
         d="m 384.47999,355.52669 c 0,-0.0843 -0.85705,-1.30202 -1.90455,-2.70599 -1.04751,-1.40397 -2.11414,-3.22498 -2.37029,-4.04669 -0.25616,-0.82171 -2.34078,-7.54201 -4.6325,-14.93401 -5.42728,-17.50587 -10.29266,-30.86349 -10.29266,-28.25791 0,0.27174 1.19841,3.71694 2.66314,7.656 1.46473,3.93905 4.61065,13.42591 6.99094,21.08191 2.38029,7.656 4.54132,14.60593 4.8023,15.44429 0.53216,1.70952 3.57932,5.91571 4.28561,5.91571 0.2519,0 0.45801,-0.069 0.45801,-0.15331 z"
         id="path19" />
      <path
         style="fill:#c8b7b7"
         d="m 365.75633,354.6 c -2.51264,-5.86 -5.88902,-15.52193 -9.08963,-26.01112 -2.12321,-6.95828 -4.69799,-14.99534 -5.72175,-17.86015 -3.36562,-9.4181 -7.67592,-23.77668 -9.84886,-32.80873 -1.17499,-4.884 -3.35277,-13.308 -4.8395,-18.72 -3.91982,-14.26892 -9.8566,-38.49271 -9.8566,-40.21778 0,-0.81458 -0.62954,-4.14082 -1.39898,-7.39164 -0.91007,-3.845 -1.59049,-8.51066 -1.947,-13.35058 -0.30141,-4.092 -1.06666,-11.976 -1.70056,-17.52 -0.63391,-5.544 -1.49271,-14.076 -1.90846,-18.96 -0.41575,-4.884 -1.2207,-12.336 -1.78877,-16.56 -0.91102,-6.77407 -1.03559,-10.00146 -1.056,-27.36 -0.0194,-16.47009 -0.0866,-18.388206 -0.41252,-11.76 -0.57586,11.713 -0.0484,31.45909 1.07705,40.32 0.51974,4.092 1.28499,11.436 1.70056,16.32 0.41557,4.884 1.27423,13.416 1.90814,18.96 0.6339,5.544 1.39973,13.428 1.70185,17.52 0.31434,4.25752 1.04451,9.54285 1.707,12.35605 0.63673,2.70383 1.15769,5.58643 1.15769,6.40578 0,1.7381 6.41713,27.93736 10.33583,42.19817 1.48716,5.412 3.66528,13.836 4.84027,18.72 2.17294,9.03205 6.48324,23.39063 9.84886,32.80873 1.02376,2.86481 3.59854,10.90187 5.72175,17.86015 2.12321,6.95827 4.89437,15.30634 6.15813,18.55126 1.26377,3.24492 2.43439,6.27786 2.60139,6.73986 0.167,0.462 0.52179,0.84 0.78841,0.84 0.31994,0 0.32732,-0.36723 0.0217,-1.08 z"
         id="path17" />
      <path
         style="fill:#c8b7b7"
         d="m 341.35212,343.84559 c -1.84617,-6.29507 -5.11418,-18.24959 -7.26222,-26.56559 -4.42166,-17.1181 -4.25956,-16.55035 -4.62201,-16.1879 -0.3511,0.3511 7.16404,29.26176 11.13283,42.8279 3.56053,12.17059 3.49797,11.9813 3.84497,11.63429 0.14471,-0.1447 -1.2474,-5.41362 -3.09357,-11.7087 z"
         id="path16" />
      <path
         style="fill:#c8b7b7"
         d="m 451.19999,352.76915 c -1.98,-1.85428 -5.13285,-4.38791 -7.00633,-5.63028 -3.57461,-2.37047 -6.51594,-5.52001 -13.94649,-14.93367 -2.41604,-3.06086 -7.42437,-9.2372 -11.12961,-13.7252 -8.0926,-9.80222 -11.33769,-15.62404 -15.91939,-28.56 -1.63632,-4.62 -4.78932,-12.77487 -7.00666,-18.12193 -2.21734,-5.34706 -4.03152,-9.96574 -4.03152,-10.26373 0,-0.8632 -6.41104,-20.53335 -10.08535,-30.94357 -3.00955,-8.52677 -3.55767,-10.6651 -5.27364,-20.57329 -1.05325,-6.08162 -2.89883,-15.59348 -4.10129,-21.13748 -1.20245,-5.544 -3.89118,-18.504 -5.97494,-28.8 -2.08377,-10.296 -4.32385,-21.204 -4.97796,-24.24 -1.32322,-6.14167 -2.95176,-23.11184 -2.52194,-26.28 0.2246,-1.65557 0.13392,-2.04 -0.48119,-2.04 -0.63643,0 -0.71133,0.44249 -0.46717,2.76 0.15992,1.518 0.63097,6.864 1.04676,11.88 0.41579,5.016 1.29078,11.604 1.94441,14.64 0.65363,3.036 2.89332,13.944 4.97709,24.24 2.08376,10.296 4.77249,23.256 5.97494,28.8 1.20246,5.544 3.04804,15.05586 4.10129,21.13748 1.71899,9.92562 2.26123,12.03835 5.29739,20.64 4.00149,11.33652 9.5816,28.5728 9.5816,29.5964 0,0.3969 1.79911,5.02014 3.99802,10.27387 2.19891,5.25374 5.46022,13.65625 7.24736,18.67225 4.88981,13.72433 8.01462,19.37487 16.19219,29.28 3.70524,4.488 8.71357,10.66409 11.12961,13.72465 7.3398,9.29779 10.03492,12.23429 12.78602,13.93118 1.44826,0.89329 4.47226,3.29668 6.72,5.34087 2.24774,2.04419 4.4108,3.71381 4.8068,3.71028 0.396,-0.004 -0.9,-1.52356 -2.88,-3.37783 z"
         id="path14" />
      <path
         style="fill:#c8b7b7"
         d="m 427.38358,355.56 c -1.01802,-1.73002 -4.71624,-6.17118 -6.89489,-8.28 -2.7303,-2.64281 -7.02973,-8.5792 -11.29829,-15.6 -3.28011,-5.39504 -10.20481,-19.30333 -12.03279,-24.16794 -2.13985,-5.69452 -2.59772,-6.71196 -2.88932,-6.42036 -0.86715,0.86714 8.61132,21.82263 13.79398,30.49646 4.2949,7.18804 8.59298,13.14957 12.37237,17.16075 2.00494,2.1279 4.31711,4.6659 5.13816,5.64 1.43336,1.70054 2.54562,2.41988 1.81078,1.17109 z"
         id="path12" />
    </g>
  </g>
</svg>
