<?xml version="1.0" encoding="UTF-8" standalone="no"?>
<svg
   version="1.2"
   width="141.57001mm"
   height="147.26001mm"
   viewBox="0 0 14157.001 14726.001"
   preserveAspectRatio="xMidYMid"
   fill-rule="evenodd"
   stroke-width="28.222"
   stroke-linejoin="round"
   xml:space="preserve"
   id="svg7981"
   sodipodi:docname="GrizzlyHead1.svg"
   inkscape:version="1.2.2 (732a01da63, 2022-12-09, custom)"
   xmlns:inkscape="http://www.inkscape.org/namespaces/inkscape"
   xmlns:sodipodi="http://sodipodi.sourceforge.net/DTD/sodipodi-0.dtd"
   xmlns="http://www.w3.org/2000/svg"
   xmlns:svg="http://www.w3.org/2000/svg"
   xmlns:ooo="http://xml.openoffice.org/svg/export"><sodipodi:namedview
   id="namedview7983"
   pagecolor="#ffffff"
   bordercolor="#000000"
   borderopacity="0.25"
   inkscape:showpageshadow="2"
   inkscape:pageopacity="0.0"
   inkscape:pagecheckerboard="0"
   inkscape:deskcolor="#d1d1d1"
   inkscape:document-units="mm"
   showgrid="false"
   inkscape:zoom="1.3692187"
   inkscape:cx="283.37327"
   inkscape:cy="287.02499"
   inkscape:window-width="1920"
   inkscape:window-height="1031"
   inkscape:window-x="0"
   inkscape:window-y="25"
   inkscape:window-maximized="1"
   inkscape:current-layer="svg7981" />
 <defs
   class="ClipPathGroup"
   id="defs7895">
  <clipPath
   id="presentation_clip_path"
   clipPathUnits="userSpaceOnUse">
   <rect
   x="0"
   y="0"
   width="16000"
   height="16000"
   id="rect7889" />
  </clipPath>
  <clipPath
   id="presentation_clip_path_shrink"
   clipPathUnits="userSpaceOnUse">
   <rect
   x="16"
   y="16"
   width="15968"
   height="15968"
   id="rect7892" />
  </clipPath>
 </defs>
 <defs
   class="TextShapeIndex"
   id="defs7899">
  <g
   ooo:slide="id1"
   ooo:id-list="id3 id4 id5 id6 id7"
   id="g7897" />
 </defs>
 <defs
   class="EmbeddedBulletChars"
   id="defs7931">
  <g
   id="bullet-char-template-57356"
   transform="matrix(4.8828125e-4,0,0,-4.8828125e-4,0,0)">
   <path
   d="M 580,1141 1163,571 580,0 -4,571 Z"
   id="path7901" />
  </g>
  <g
   id="bullet-char-template-57354"
   transform="matrix(4.8828125e-4,0,0,-4.8828125e-4,0,0)">
   <path
   d="M 8,1128 H 1137 V 0 H 8 Z"
   id="path7904" />
  </g>
  <g
   id="bullet-char-template-10146"
   transform="matrix(4.8828125e-4,0,0,-4.8828125e-4,0,0)">
   <path
   d="M 174,0 602,739 174,1481 1456,739 Z M 1358,739 309,1346 659,739 Z"
   id="path7907" />
  </g>
  <g
   id="bullet-char-template-10132"
   transform="matrix(4.8828125e-4,0,0,-4.8828125e-4,0,0)">
   <path
   d="M 2015,739 1276,0 H 717 l 543,543 H 174 v 393 h 1086 l -543,545 h 557 z"
   id="path7910" />
  </g>
  <g
   id="bullet-char-template-10007"
   transform="matrix(4.8828125e-4,0,0,-4.8828125e-4,0,0)">
   <path
   d="m 0,-2 c -7,16 -16,29 -25,39 l 381,530 c -94,256 -141,385 -141,387 0,25 13,38 40,38 9,0 21,-2 34,-5 21,4 42,12 65,25 l 27,-13 111,-251 280,301 64,-25 24,25 c 21,-10 41,-24 62,-43 C 886,937 835,863 770,784 769,783 710,716 594,584 L 774,223 c 0,-27 -21,-55 -63,-84 l 16,-20 C 717,90 699,76 672,76 641,76 570,178 457,381 L 164,-76 c -22,-34 -53,-51 -92,-51 -42,0 -63,17 -64,51 -7,9 -10,24 -10,44 0,9 1,19 2,30 z"
   id="path7913" />
  </g>
  <g
   id="bullet-char-template-10004"
   transform="matrix(4.8828125e-4,0,0,-4.8828125e-4,0,0)">
   <path
   d="M 285,-33 C 182,-33 111,30 74,156 52,228 41,333 41,471 c 0,78 14,145 41,201 34,71 87,106 158,106 53,0 88,-31 106,-94 l 23,-176 c 8,-64 28,-97 59,-98 l 735,706 c 11,11 33,17 66,17 42,0 63,-15 63,-46 V 965 c 0,-36 -10,-64 -30,-84 L 442,47 C 390,-6 338,-33 285,-33 Z"
   id="path7916" />
  </g>
  <g
   id="bullet-char-template-9679"
   transform="matrix(4.8828125e-4,0,0,-4.8828125e-4,0,0)">
   <path
   d="M 813,0 C 632,0 489,54 383,161 276,268 223,411 223,592 c 0,181 53,324 160,431 106,107 249,161 430,161 179,0 323,-54 432,-161 108,-107 162,-251 162,-431 0,-180 -54,-324 -162,-431 C 1136,54 992,0 813,0 Z"
   id="path7919" />
  </g>
  <g
   id="bullet-char-template-8226"
   transform="matrix(4.8828125e-4,0,0,-4.8828125e-4,0,0)">
   <path
   d="m 346,457 c -73,0 -137,26 -191,78 -54,51 -81,114 -81,188 0,73 27,136 81,188 54,52 118,78 191,78 73,0 134,-26 185,-79 51,-51 77,-114 77,-187 0,-75 -25,-137 -76,-188 -50,-52 -112,-78 -186,-78 z"
   id="path7922" />
  </g>
  <g
   id="bullet-char-template-8211"
   transform="matrix(4.8828125e-4,0,0,-4.8828125e-4,0,0)">
   <path
   d="M -4,459 H 1135 V 606 H -4 Z"
   id="path7925" />
  </g>
  <g
   id="bullet-char-template-61548"
   transform="matrix(4.8828125e-4,0,0,-4.8828125e-4,0,0)">
   <path
   d="m 173,740 c 0,163 58,303 173,419 116,115 255,173 419,173 163,0 302,-58 418,-173 116,-116 174,-256 174,-419 0,-163 -58,-303 -174,-418 C 1067,206 928,148 765,148 601,148 462,206 346,322 231,437 173,577 173,740 Z"
   id="path7928" />
  </g>
 </defs>
 
 
<g
   inkscape:groupmode="layer"
   id="layer5"
   inkscape:label="Layer 1"
   transform="translate(-511,-413)"><path
     fill="#b85c00"
     stroke="none"
     d="m 13878,6126 -9,1597 -557,1474 -111,263 26,2 -501,992 -775,1030 -1106,1011 -2154,1398 -1304,926 -293,208 -132,-104 9,-136 -680,-1006 -982,-751 -768,-521 -640,-888 -546,-401 -871,-845 -956,-2492 -247,-1604 469,-1272 188,-222 -939,-888 -196,-1571 828,-1305 1417,179 972,606 786,-102 306,-153 92,-92 1020,-369 1248,-208 h 1086 l 936,303 954,538 615,360 274,-482 699,-766 671,-227 983,199 614,945 160,1464 -548,1125 -425,397 -16,392 z m -5197,6208 548,-983 -66,-1606 -645,-86 -606,-34 h -571 l -1141,101 185,1297 375,1452 373,242 z m 1182,-6500 9,-236 -217,-29 -284,180 59,211 130,3 312,-114 z m -3591,-19 -189,-265 -170,-66 -167,61 16,111 230,393 239,-163 104,2 z"
     id="path7940" /><path
     fill="#ffff00"
     stroke="none"
     d="m 9830,5741 c 0,29 -8,58 -22,84 -15,26 -35,47 -60,61 -26,15 -54,23 -83,23 -29,0 -57,-8 -82,-23 -26,-14 -46,-35 -61,-61 -14,-26 -22,-55 -22,-84 0,-29 8,-58 22,-84 15,-26 35,-47 61,-61 25,-15 53,-23 82,-23 29,0 57,8 83,23 25,14 45,35 60,61 14,26 22,55 22,84 z"
     id="path7947" /><path
     fill="#ffff00"
     stroke="none"
     d="m 6126,5719 c 0,29 -8,58 -22,84 -15,26 -35,47 -60,61 -26,15 -54,23 -83,23 -29,0 -57,-8 -82,-23 -26,-14 -46,-35 -61,-61 -14,-26 -22,-55 -22,-84 0,-29 8,-58 22,-84 15,-26 35,-47 61,-61 25,-15 53,-23 82,-23 29,0 57,8 83,23 25,14 45,35 60,61 14,26 22,55 22,84 z"
     id="path7954" /><path
     fill="#ff0000"
     stroke="none"
     d="m 6314,9683 -10,1102 550,1361 1113,388 669,-329 303,-529 140,-637 103,-729 -81,-411 -76,-221 -551,-32 -459,-38 z"
     id="path7961" /><path
     fill="#000000"
     stroke="none"
     d="m 8862,11297 109,-1116 c -40,-145 -76,-256 -94,-284 -60,-66 -762,-238 -987,-238 -99,0 -132,20 -105,79 66,179 105,934 59,1298 -46,383 -46,383 -86,158 -26,-119 -33,-463 -13,-761 40,-721 13,-801 -258,-754 -258,40 -794,205 -881,265 -45,35 -111,341 -168,778 l 132,239 57,331 3,51 36,143 c 86,344 252,569 496,708 245,132 834,126 1145,-13 245,-113 464,-391 470,-589 0,-67 33,-192 80,-285 1,-3 3,-7 5,-10 z m -1991,3524 c -291,-662 -913,-1363 -1343,-1529 -523,-191 -1430,-1012 -1503,-1356 -13,-80 -66,-153 -106,-153 -39,0 -79,-39 -79,-79 0,-53 -53,-86 -139,-86 -99,0 -139,-33 -139,-113 0,-79 -40,-112 -132,-112 -73,0 -153,-40 -166,-86 -20,-46 -79,-79 -139,-79 -66,0 -126,-53 -139,-120 -26,-92 -66,-112 -145,-92 -86,20 -119,0 -126,-93 -13,-73 -66,-126 -152,-139 -106,-13 -126,-40 -93,-152 26,-119 13,-133 -112,-133 -113,0 -139,-33 -139,-145 0,-80 -34,-139 -80,-139 -53,0 -73,-46 -53,-166 13,-99 0,-172 -33,-172 -33,0 -59,-72 -59,-158 0,-106 -34,-173 -100,-186 -86,-26 -106,-99 -112,-496 -14,-384 -33,-483 -119,-543 -60,-40 -153,-192 -206,-337 -53,-146 -132,-285 -172,-312 -39,-26 -72,-92 -72,-152 0,-59 -40,-112 -86,-112 -67,0 -87,-80 -93,-344 -33,-867 20,-1112 410,-1933 119,-258 212,-490 212,-516 0,-106 -298,-338 -364,-285 -66,53 -245,-231 -602,-953 -159,-318 -179,-417 -179,-814 0,-377 26,-496 165,-781 239,-490 695,-920 1152,-1079 635,-225 986,-152 1648,325 126,86 324,205 437,258 112,59 212,132 212,172 0,99 522,92 608,-7 40,-46 192,-119 351,-172 152,-53 371,-179 483,-284 106,-106 252,-199 318,-199 298,-7 841,-66 1377,-152 688,-113 1231,-106 1575,13 132,46 278,86 318,86 39,0 158,33 251,79 99,40 291,120 430,179 139,60 285,139 331,179 46,46 172,139 278,205 113,73 238,172 278,218 46,53 139,93 212,93 106,0 132,-26 132,-139 0,-73 66,-205 139,-285 80,-86 139,-185 139,-225 0,-39 80,-112 166,-158 92,-47 185,-139 205,-206 20,-66 152,-191 291,-278 232,-145 311,-165 708,-165 384,0 503,26 788,159 403,192 767,556 920,913 106,238 245,933 245,1198 -7,530 -67,874 -199,1172 -172,364 -331,536 -629,681 -331,153 -344,245 -112,768 112,252 291,708 397,1013 179,496 192,589 152,893 -26,192 -40,377 -33,417 0,40 -30,66 -73,66 -43,0 -79,40 -86,86 0,47 -10,103 -13,126 -3,23 -33,126 -60,225 -26,126 -72,179 -145,179 -86,0 -113,39 -113,165 0,93 -33,179 -79,192 -60,20 -86,113 -86,252 0,132 -33,231 -73,251 -40,13 -132,212 -212,437 -73,225 -218,543 -317,715 -100,165 -179,311 -179,324 0,66 -755,980 -940,1145 -112,99 -318,225 -450,285 -152,72 -265,165 -298,258 -33,79 -139,225 -238,317 -179,173 -940,702 -1006,702 -20,0 -126,66 -238,139 -119,79 -245,146 -285,146 -73,0 -424,205 -582,344 -47,39 -186,139 -311,212 -120,72 -239,165 -259,205 -26,33 -105,79 -185,99 -86,20 -152,86 -172,172 -33,113 -73,139 -225,139 -99,0 -218,33 -258,73 -40,46 -139,119 -212,165 l -139,93 z m 788,-489 c 384,-364 681,-543 814,-497 79,27 86,20 26,-20 -66,-46 -53,-72 53,-125 662,-351 1046,-695 1331,-1198 l 125,-232 -20,371 -26,377 384,-285 c 437,-311 701,-728 926,-1416 l 126,-391 7,391 c 0,364 6,384 92,285 232,-305 497,-980 596,-1516 13,-60 53,46 99,238 40,192 93,351 113,351 66,0 576,-827 847,-1370 463,-927 649,-1847 543,-2773 -119,-1086 -305,-1489 -1165,-2562 -377,-469 -510,-754 -510,-1125 0,-278 172,-714 351,-906 185,-192 430,-272 496,-153 27,47 93,73 159,53 86,-20 113,14 146,179 40,199 40,199 152,99 66,-53 99,-72 79,-39 -19,39 14,158 73,271 239,430 119,893 -344,1344 -318,311 -337,337 -265,469 93,172 325,404 411,404 132,0 595,-337 748,-549 238,-331 311,-649 284,-1284 -33,-722 -231,-1178 -668,-1522 -351,-278 -444,-305 -1006,-272 -364,20 -483,53 -675,179 -325,212 -483,410 -583,708 -99,285 -139,774 -73,814 20,20 40,63 40,113 0,49 -245,-153 -543,-444 -833,-820 -1078,-959 -1879,-1105 -205,-33 -391,-86 -410,-113 -14,-33 -153,-52 -312,-52 -324,0 -1614,145 -2031,225 -424,86 -1483,734 -1933,1184 l -205,212 -106,-344 c -112,-384 -417,-741 -801,-933 -351,-179 -1065,-172 -1443,20 -529,264 -814,933 -694,1608 72,423 271,867 509,1171 126,166 662,622 874,748 6,7 -113,142 -272,305 -158,162 -350,436 -430,615 -132,278 -145,384 -145,933 0,536 19,662 152,1000 218,562 265,602 384,337 l 99,-218 v 271 c 7,338 265,1536 371,1681 72,106 79,106 132,-26 26,-73 73,-212 93,-305 39,-159 46,-152 92,113 100,576 179,774 497,1257 178,272 350,510 377,530 33,26 73,-66 99,-212 40,-298 106,-331 159,-79 20,99 132,337 258,536 119,192 205,384 185,430 -13,40 0,93 34,112 39,27 46,0 19,-59 -33,-99 -26,-99 86,0 133,119 166,238 53,165 -46,-26 -46,-6 7,53 79,106 146,133 93,40 -67,-99 53,-60 145,53 53,59 80,126 60,146 -20,19 -13,26 20,19 33,-13 258,139 503,325 245,192 556,430 695,536 483,364 741,681 900,1112 l 125,337 100,-159 c 53,-86 231,-284 397,-436 z M 6487,12353 c -192,-325 -271,-709 -311,-1470 -17,-268 -25,-424 -22,-499 l -65,-206 c -11,-12 -23,-32 -32,-56 -17,-51 -20,-72 -6,-66 l -37,-119 c -53,-47 -94,-146 -182,-357 -145,-351 -165,-457 -159,-907 20,-828 298,-1754 675,-2250 172,-225 67,-245 -132,-27 l -146,152 93,-152 c 132,-232 113,-258 -185,-225 -239,20 -285,7 -364,-106 -47,-73 -93,-225 -93,-344 0,-205 0,-212 -205,-212 -159,0 -192,-13 -126,-53 212,-139 391,-39 391,232 0,165 158,437 258,437 73,0 66,-20 -27,-153 -59,-86 -119,-251 -132,-364 -20,-178 -7,-211 79,-211 60,0 159,26 219,59 66,40 106,40 106,0 0,-26 -80,-99 -186,-152 -198,-106 -139,-165 93,-79 79,33 185,139 238,244 172,338 358,543 497,543 185,0 456,-278 628,-642 126,-284 139,-370 119,-781 -19,-364 -59,-536 -205,-847 -119,-258 -139,-344 -66,-245 60,73 152,238 205,364 53,119 100,225 106,238 40,60 192,-79 192,-172 0,-119 7,-119 86,-13 80,106 80,106 93,-26 6,-80 26,159 46,529 27,602 53,715 205,1039 100,199 278,470 391,603 l 218,244 238,-119 c 199,-99 239,-139 239,-284 0,-311 271,-669 503,-669 46,0 0,53 -100,119 -205,133 -238,245 -53,192 67,-20 199,-53 298,-66 172,-33 172,-33 159,199 -13,231 -106,350 -357,463 -60,26 -40,40 59,40 232,6 351,-119 384,-431 27,-271 33,-278 166,-225 99,34 119,67 72,93 -39,27 -125,152 -192,291 -158,311 -370,404 -608,265 -159,-93 -172,-93 -206,0 -19,53 -86,132 -145,185 -80,60 -93,119 -66,212 33,119 46,119 139,40 125,-119 185,-113 145,20 -20,53 27,291 106,516 212,629 265,1046 225,1714 -40,622 -126,966 -278,1112 -46,46 -86,139 -86,205 0,73 -26,477 -53,914 -53,794 -139,1151 -344,1396 -470,543 -662,655 -1191,682 -351,20 -430,6 -649,-119 -291,-172 -456,-345 -662,-695 z M 9148,9454 c 318,-238 377,-430 377,-1198 0,-662 -6,-715 -159,-1026 -172,-331 -575,-748 -1092,-1119 -251,-178 -304,-198 -397,-139 -86,53 -126,53 -179,0 -92,-92 -244,-86 -324,14 -40,46 -119,86 -179,86 -271,0 -694,390 -933,873 -211,417 -443,1708 -390,2178 53,476 13,463 1668,457 1376,-7 1456,-14 1608,-126 z M 7513,9308 c -212,-112 -648,-503 -648,-576 0,-39 66,-86 145,-106 73,-19 139,-66 139,-99 0,-33 -59,-46 -145,-20 -292,67 -404,-211 -192,-470 106,-125 139,-132 436,-86 537,80 1410,14 1410,-106 0,-33 -112,-39 -318,-6 -403,59 -675,59 -1111,0 -331,-46 -345,-40 -517,132 -158,159 -172,166 -132,53 79,-238 384,-331 1138,-364 417,-20 748,-13 834,27 305,119 404,661 166,880 -93,79 -119,79 -285,0 -192,-99 -318,-60 -145,46 297,186 304,192 105,358 -99,86 -278,211 -397,284 l -218,119 20,-264 20,-265 -80,245 c -99,304 -92,291 -225,218 z M 6044,5615 c -33,-33 -106,-46 -152,-26 -80,26 -80,53 -27,152 53,112 66,112 152,26 67,-66 73,-106 27,-152 z m 3521,132 c -13,67 20,100 99,100 80,0 119,-33 119,-119 0,-139 -185,-126 -218,19 z M 7718,5225 c -53,-179 -59,-172 -59,125 -7,172 13,331 33,351 66,66 86,-271 26,-476 z M 4793,9500 c 0,33 -13,46 -26,33 -40,-40 26,-212 79,-212 20,0 106,139 192,305 79,172 126,311 99,311 -33,0 -99,-113 -152,-252 -86,-238 -192,-337 -192,-185 z m 6009,-417 c 40,7 113,-46 153,-126 39,-72 106,-119 145,-106 53,20 106,-72 166,-284 66,-225 119,-311 192,-311 92,0 139,-99 258,-543 20,-73 59,-112 106,-93 112,40 198,-278 198,-754 0,-344 13,-410 80,-384 46,20 99,7 119,-20 39,-73 -80,-734 -159,-840 -53,-73 -53,-73 33,0 146,132 271,714 232,1039 -27,152 -53,245 -67,205 -52,-152 -112,-46 -138,258 -40,351 -245,907 -345,907 -39,0 -99,112 -139,258 -53,172 -99,245 -152,225 -46,-20 -79,7 -79,60 0,139 -245,469 -325,443 -33,-20 -105,46 -152,139 -53,93 -112,152 -145,132 -27,-20 -100,80 -166,212 -59,132 -92,179 -73,99 93,-357 179,-529 258,-516 z M 4237,8812 c 0,-152 -99,-139 -126,20 -13,86 -53,26 -145,-219 -66,-185 -126,-390 -126,-450 0,-99 0,-99 -79,0 -73,93 -86,73 -199,-298 -66,-218 -159,-436 -205,-483 -99,-99 -80,-900 33,-1165 99,-245 132,-139 33,133 -106,304 -112,582 -7,542 60,-19 86,67 106,378 20,225 60,463 86,536 47,126 47,126 119,-47 106,-251 146,-218 146,120 7,178 53,377 119,516 113,212 119,212 159,86 40,-119 53,-93 146,205 99,311 271,582 271,417 0,-106 99,-73 132,46 14,67 0,106 -33,100 -33,-7 -73,39 -86,99 -39,218 -99,192 -218,-113 -73,-172 -126,-357 -126,-423 z M 2496,4073 c -516,-437 -728,-748 -728,-1085 0,-166 80,-265 139,-166 73,113 133,-7 106,-198 -26,-159 -19,-192 53,-166 53,27 113,-7 153,-79 33,-67 92,-106 125,-80 33,20 93,-13 133,-66 72,-99 86,-93 337,60 331,205 636,642 636,900 0,258 -159,556 -457,847 l -245,238 z M 4872,2928 c 60,-33 232,-113 391,-165 159,-60 258,-106 218,-106 -39,0 -72,-20 -72,-47 0,-59 383,-13 423,47 20,33 73,53 119,53 80,0 80,-14 0,-139 -139,-206 -13,-172 232,59 145,139 172,179 79,133 -125,-60 -132,-53 -92,59 33,113 33,119 -93,40 -93,-60 -225,-80 -417,-66 -152,13 -298,19 -318,26 -19,0 -26,33 -13,73 27,59 -40,79 -265,86 -238,7 -278,-7 -192,-53 z m 4124,-93 c 0,-66 218,-403 258,-403 20,0 20,33 6,79 -59,146 27,132 252,-26 126,-93 245,-153 258,-139 20,13 -20,66 -79,105 -86,67 -93,100 -40,153 53,53 73,53 73,6 0,-39 39,-66 86,-66 53,0 73,20 53,53 -20,33 72,60 238,60 344,0 212,79 -225,132 -199,20 -318,13 -318,-20 0,-92 -317,-66 -397,27 -73,86 -165,112 -165,39 z"
     id="path7968" /></g></svg>
