<svg version="1.1" xmlns="http://www.w3.org/2000/svg" xmlns:xlink="http://www.w3.org/1999/xlink" width="146.54018" height="139.77065" viewBox="0,0,146.54018,139.77065"><defs><linearGradient x1="237.05706" y1="112.11469" x2="237.05706" y2="244.50214" gradientUnits="userSpaceOnUse" id="color-1"><stop offset="0" stop-color="#ffffff"/><stop offset="1" stop-color="#b6b6b6"/></linearGradient></defs><g transform="translate(-166.72991,-110.11467)"><g data-paper-data="{&quot;isPaintingLayer&quot;:true}" fill-rule="nonzero" stroke="#000000" stroke-linecap="butt" stroke-linejoin="miter" stroke-miterlimit="10" stroke-dasharray="" stroke-dashoffset="0" style="mix-blend-mode: normal"><path d="M275.8168,202.56347c1.06136,11.65952 18.41162,26.18995 13.34702,33.17772c-1.11963,1.54478 -6.28527,-5.92562 -9.3856,-5.86094c-2.21008,0.04611 -2.41112,7.6058 -3.70448,8.26418c-3.7109,1.88904 -9.43588,-5.39638 -13.88636,-4.43241c-2.82549,0.612 -4.2315,9.74216 -7.18777,9.99749c-3.47574,0.3002 -8.42394,-8.1949 -11.62181,-8.06889c-2.84045,0.11192 -6.79768,12.24471 -9.13868,12.24471c-3.82072,0 -8.86187,-10.64832 -13.41976,-10.18809c-7.41651,0.74889 -7.90532,10.66049 -14.46959,9.32023c-2.10901,-0.43061 -3.65088,-8.32449 -5.43505,-9.25017c-1.83165,-0.95032 -7.79703,3.60243 -9.16329,1.98521c-2.61024,-3.08971 14.76637,-37.56027 11.2558,-38.79392c-0.99355,-0.34914 -5.97769,-9.51896 -7.33331,-9.77006c-9.70171,-1.79703 -26.94402,13.49584 -26.94402,2.77059c0,-4.12098 5.93381,-15.56493 12.23302,-21.63065c9.39454,-9.04632 24.40472,-13.00116 26.25234,-18.19233c7.90365,-22.20644 10.39048,-42.02146 29.84178,-42.02146c18.23211,0 18.25423,21.13498 26.68511,41.11014c2.92528,6.93084 18.93406,3.42229 29.63702,11.36669c7.8306,8.62466 18.54319,20.66382 17.85977,24.04028c-1.18827,5.8707 -21.90218,-3.00576 -26.4489,2.56549c-2.51083,3.07662 -9.16844,9.22198 -8.97325,11.36619z" fill="url(#color-1)" stroke-width="4"/><path d="M231.71763,140.34042c0,5.24463 -2.78588,6.82958 -5.81125,6.82958c-3.02537,0 -5.1446,-1.58495 -5.1446,-6.82958c0,-5.24463 2.45255,-6.49625 5.47792,-6.49625c3.02537,0 5.47792,1.25161 5.47792,6.49625z" fill="#000000" stroke-width="3"/><path d="M251.05097,140.67375c0,5.24463 -2.11921,6.49624 -5.14459,6.49624c-3.02537,0 -5.81125,-1.25161 -5.81125,-6.49624c0,-5.24463 2.45255,-6.82958 5.47792,-6.82958c3.02537,0 5.47792,1.58495 5.47792,6.82958z" fill="#000000" stroke-width="3"/></g></g></svg>