<?xml version="1.0" encoding="UTF-8" standalone="no"?>
<!-- Created with Inkscape (http://www.inkscape.org/) -->

<svg
   version="1.1"
   id="svg198"
   width="1224.6002"
   height="970.1095"
   viewBox="0 0 1224.6002 970.10945"
   sodipodi:docname="Boat10b.svg"
   inkscape:version="1.2.2 (732a01da63, 2022-12-09, custom)"
   xmlns:inkscape="http://www.inkscape.org/namespaces/inkscape"
   xmlns:sodipodi="http://sodipodi.sourceforge.net/DTD/sodipodi-0.dtd"
   xmlns="http://www.w3.org/2000/svg"
   xmlns:svg="http://www.w3.org/2000/svg">
  <defs
     id="defs202" />
  <sodipodi:namedview
     id="namedview200"
     pagecolor="#ffffff"
     bordercolor="#000000"
     borderopacity="0.25"
     inkscape:showpageshadow="2"
     inkscape:pageopacity="0.0"
     inkscape:pagecheckerboard="0"
     inkscape:deskcolor="#d1d1d1"
     showgrid="false"
     inkscape:zoom="0.69665275"
     inkscape:cx="625.84982"
     inkscape:cy="523.93391"
     inkscape:window-width="1920"
     inkscape:window-height="1031"
     inkscape:window-x="0"
     inkscape:window-y="25"
     inkscape:window-maximized="1"
     inkscape:current-layer="layer2" />
  <g
     inkscape:groupmode="layer"
     id="layer2"
     inkscape:label="Layer 1"
     style="display:inline">
    <path
       id="path316"
       style="display:inline;fill:#000000;stroke-width:1.33333"
       d="m 588.08172,0 6.95898,0.054687 c 6.91753,0.054392 6.96308,0.082011 7.67188,4.728516 0.39217,2.570882 0.88883,22.971831 1.10351,45.333984 0.21479,22.362186 0.91521,41.199576 1.55665,41.861326 0.64132,0.66174 83.54674,11.295437 184.23046,23.628907 150.73497,18.46455 186.18377,22.43089 200.73047,22.46289 l 17.66603,0.0391 v 7.33399 7.33203 h -19.01954 -19.01758 l -9.15039,8.25781 c -20.5178,18.51804 -45.59572,49.03986 -60.04297,73.07617 -21.02871,34.98635 -30.99998,66.07578 -34.70508,108.20508 l -0.7793,8.87109 115.69141,112.47071 c 63.62915,61.85813 119.04145,115.6104 123.13865,119.44922 l 7.4512,6.98046 4.2402,-6.54492 c 12.8992,-19.90682 49.6956,-28.05926 82.1934,-18.21093 9.5152,2.88343 18.6066,9.07141 22.9336,15.61132 3.1669,4.78665 3.7223,6.97213 3.6621,14.41016 -0.087,10.73661 -4.0874,18.91221 -14.3613,29.35547 -7.5564,7.68092 -27.2615,22.15261 -28.4903,20.92383 -0.423,-0.42308 1.1047,-6.03824 3.3946,-12.47852 2.2898,-6.44028 4.5488,-14.26904 5.0195,-17.39648 1.6593,-11.02484 -6.2538,-23.3125 -15.0117,-23.3125 -4.9055,0 -17.7285,9.45186 -22.1465,16.32422 -6.9399,10.79493 -4.6165,17.05298 15.4902,41.73437 9.022,11.07463 17.7142,27.18819 21.7246,40.27344 1.9491,6.35935 2.4369,12.23945 2.3789,28.66797 -0.067,18.975 -0.38,21.59435 -3.8242,32 -14.3429,43.33263 -50.9081,84.07479 -99.8789,111.28906 -7.3212,4.06853 -8.7616,5.37499 -7.334,6.65234 0.977,0.87416 6.5767,5.52844 12.4434,10.34375 13.8427,11.36233 36.1586,34.37792 48.8496,50.38086 10.1604,12.8121 27.8164,37.68516 27.8164,39.18555 0,0.44849 -11.0253,0.81445 -24.5019,0.81445 h -24.504 l -8.6855,-9.70508 c -19.2689,-21.52949 -35.8942,-46.58426 -45.8496,-69.09765 -2.7232,-6.15823 -5.4805,-11.90612 -6.127,-12.77344 -0.8723,-1.17018 -4.5072,-0.35499 -14.0879,3.16406 -16.2199,5.95796 -33.2721,11.15286 -49.57613,15.09961 -6.96654,1.68648 -13.19984,3.53253 -13.84961,4.10352 -0.64978,0.57097 1.03027,3.62757 3.73243,6.79101 22.31991,26.1312 46.11721,57.67492 46.11721,61.13086 0,0.77998 -9.4983,1.28711 -24.0996,1.28711 h -24.09769 l -6.71875,-7.35156 c -11.1038,-12.14935 -19.60309,-23.1737 -30.05664,-38.98242 -7.58106,-11.46464 -10.59964,-14.99628 -12.80664,-14.98828 -1.58824,0.006 -9.78749,0.86382 -18.22071,1.90625 -8.43321,1.04242 -24.93476,2.58731 -36.66797,3.43359 -11.7331,0.84628 -21.51623,1.72143 -21.74023,1.94531 -0.22401,0.22388 3.79571,5.64708 8.93359,12.05078 9.72053,12.11535 29.47461,39.69395 29.47461,41.15039 0,0.46011 -11.08407,0.83594 -24.6289,0.83594 h -24.62696 l -10.76562,-12.33398 c -5.92148,-6.78333 -14.48906,-17.65367 -19.03906,-24.15821 -4.5501,-6.50441 -9.17344,-12.89499 -10.27344,-14.20117 -1.81256,-2.15231 -5.90482,-2.44756 -43.66602,-3.14062 -22.9163,-0.4206 -41.66797,-0.29889 -41.66797,0.27148 0,0.57038 4.53163,6.70533 10.07032,13.63281 10.3778,12.98022 25.31619,34.10981 26.74218,37.82618 0.71729,1.86911 -1.90043,2.10351 -23.43359,2.10351 h -24.24219 l -6.90039,-7.54101 C 694.70695,951.42799 685.98658,940.31203 677.2575,927.33008 l -7.76953,-11.55274 -16.41016,-0.63672 c -25.90264,-1.0036 -69.07812,-1.2415 -69.07812,-0.38086 0,0.43035 3.68432,5.19736 8.1875,10.59375 8.88086,10.64195 31.76137,42.13162 31.79297,43.75586 0.0107,0.55 -11.04808,1 -24.57422,1 h -24.59375 l -9.48047,-10.75976 c -10.69024,-12.13165 -23.72556,-29.35749 -28.9082,-38.20118 -1.90661,-3.25327 -4.7962,-6.42098 -6.42188,-7.03906 -3.3525,-1.27467 -83.33594,-1.86122 -83.33594,-0.61133 0,0.44624 5.13485,7.21643 11.41016,15.04493 11.44366,14.27571 26.55694,35.52419 28.06836,39.46289 0.7173,1.86911 -1.90055,2.10351 -23.43359,2.10351 h -24.24219 l -6.90039,-7.5332 c -10.59528,-11.56611 -20.1483,-23.85501 -29.64258,-38.13281 l -8.64453,-13 -52.30664,-0.13282 c -28.76887,-0.073 -54.70924,-0.31666 -57.64258,-0.54101 -2.93333,-0.22436 -13.73345,-0.77548 -24,-1.22461 -34.86792,-1.52536 -67.67712,-6.28176 -97.44142,-14.125 C 84.7769,875.09934 33.5464,828.18459 9.3082999,755.6914 2.2157999,734.47872 -3.0009979e-4,722.39597 -3.0009979e-4,704.93945 -3.0009979e-4,666.64583 13.9362,647.10909 62.8923,616.78125 c 22.8364,-14.14768 29.4443,-19.49363 33.2031,-26.86133 3.2063,-6.284 3.1977,-9.63581 -0.0469,-16.7832 -3.0478,-6.71416 -9.8215,-11.45367 -14.7148,-10.29688 -5.4005,1.27672 -11.6932,8.17852 -11.2598,12.35156 0.2047,1.97117 0.7162,7.28984 1.1367,11.81836 l 0.7657,8.23438 -4.7696,1.57422 c -6.3508,2.09581 -13.0892,8.19156 -18.6328,16.85742 -2.6999,4.22048 -5.4937,7.08942 -6.8906,7.07422 -1.2924,-0.0141 -6.9379,-3.60828 -12.5449,-7.98828 -10.1739,-7.94762 -10.1976,-7.9814 -11.6661,-16.41407 -1.6193,-9.29872 -0.9526,-18.54219 1.9375,-26.83398 2.8674,-8.22657 2.68,-8.5195 -6.1074,-9.51367 -4.4164001,-0.49967 -8.3070001,-1.35693 -8.6465001,-1.90625 -0.3395,-0.54932 4.717,-5.53735 11.2364001,-11.08203 14.1228,-12.01149 18.1598,-17.01928 20.748,-25.73438 2.4537,-8.26268 6.512,-13.7557 16.5117,-22.34961 4.3639,-3.75033 13.4391,-13.26913 20.168,-21.15234 6.7289,-7.88322 12.7698,-14.33203 13.4238,-14.33203 0.654,0 1.3552,9.74946 1.5567,21.66601 l 0.3652,21.66602 9.334,0.84765 c 23.9451,2.17146 39.1819,11.31541 47.2266,28.34375 5.3436,11.31342 7.1269,21.51838 7.0136,40.14258 -0.132,21.68024 -3.7636,39.56388 -14.4883,71.33399 -7.5409,22.33843 -8.8668,27.68991 -9.4101,38 -0.6294,11.94103 0.6274,20.8047 3.0527,21.53515 0.978,0.29456 43.7614,-56.03927 67.1387,-88.40234 l 3.2012,-4.43164 -6.0313,-13.01758 C 183.28,574.31048 175.0376,547.7291 169.7595,517.44336 c -3.0043,-17.23493 -3.4122,-84.07705 -0.629,-102.66797 10.1713,-67.9111 34.2012,-130.19936 72.28325,-187.36524 17.73846,-26.62778 43.62065,-56.06867 60.25195,-68.53515 2.75,-2.06136 5,-4.27754 5,-4.92383 0,-0.64776 -15.55648,-1.17578 -34.66601,-1.17578 H 237.3337 v -7.33203 -7.33399 h 21.24216 c 20.52099,0 26.34108,-0.74816 171,-21.98047 82.36483,-12.08897 151.55793,-22.460707 153.75781,-23.048817 3.82575,-1.02292 4,-1.3875 4,-8.35352 v -7.2832 l -6,-0.33008 c -3.29988,-0.18147 -17.61479,-1.91487 -31.80859,-3.85156 -28.49196,-3.887847 -28.13258,-3.947005 -28.17188,4.64648 -0.0297,6.50348 -3.59824,13.03632 -8.15039,14.92188 -4.22896,1.75162 -9.24628,1.50323 -39.86914,-1.97657 -21.93374,-2.49229 -69.80406,-2.58962 -111.33398,-0.22461 -16.13321,0.91878 -40.0833,1.81171 -53.22266,1.98243 -21.55145,0.27989 -23.7213,0.10605 -22.1582,-1.77735 3.27261,-3.94315 36.72405,-19.26351 52.04687,-23.835936 30.88284,-9.215499 54.30129,-11.553188 115.75391,-11.554688 26.80058,-6.53e-4 46.74993,-0.53253 48.15625,-1.285156 1.42476,-0.762496 2.75921,-3.529874 3.2832,-6.806641 1.30954,-8.189391 4.09369,-12.587434 9.74805,-15.396484 4.54927,-2.260006 8.41659,-2.511719 38.39258,-2.511719 h 33.33398 l 0.37305,-14.722656 z m -2.73828,99.667973 c -2.3673,-0.78909 -252.00977,36.250287 -252.00977,37.390617 0,0.57792 50.63247,1.05078 112.51563,1.05078 h 112.51562 l 14.20899,-18.98047 c 7.81507,-10.43908 13.56137,-19.196977 12.76953,-19.460927 z m 22.87305,0.447257 c -0.47466,0.47465 7.83141,9.18867 18.45898,19.36524 l 19.32422,18.5039 132.33398,0.0625 c 72.78257,0.0345 132.33203,-0.39534 132.33203,-0.95508 0,-1.29846 -301.29223,-38.133657 -302.44921,-36.97656 z m -3.25586,8.66016 c -1.14898,0 -0.087,26.17837 1.14257,28.16797 0.86693,1.40261 27.23047,1.58618 27.23047,0.18945 0,-1.34669 -27.02571,-28.35742 -28.37304,-28.35742 z m -17.98829,4 c -1.57949,0 -18.90918,23.62013 -17.99804,24.53125 1.09648,1.09651 17.02973,1.02106 18.13672,-0.0859 1.24706,-1.24706 1.11541,-24.44531 -0.13868,-24.44531 z m 211.12696,39.93554 c -19.02575,-0.004 -38.20406,0.48697 -38.81446,1.47461 -1.48924,2.4098 12.80326,15.4718 18.71485,17.10352 7.23231,1.99629 11.67479,1.77557 22.76562,-1.13281 10.95623,-2.87317 35.23438,-13.86686 35.23438,-15.95508 0,-0.98774 -18.87464,-1.48671 -37.90039,-1.49024 z m 105.90039,0.0645 c -33.98036,0 -42.66602,0.351 -42.66602,1.72265 0,2.36536 10.36097,12.16629 15.70313,14.85352 5.39329,2.71298 19.1453,3.76634 26.29687,2.01367 15.28195,-3.7451 43.33203,-15.03606 43.33203,-17.4414 0,-0.63128 -19.19952,-1.14844 -42.66601,-1.14844 z m -202.66602,0 c -30.35347,0 -34.66797,0.2574 -34.66797,2.05859 0,3.58532 11.9596,15.13728 17.16797,16.58399 6.48182,1.80036 10.03099,1.59267 19.5,-1.14454 8.90793,-2.57491 32.66602,-14.42924 32.66602,-16.29882 0,-0.67818 -15.04728,-1.19922 -34.66602,-1.19922 z m -344,0 c -18.92905,0 -28,0.46122 -28,1.42187 0,4.1969 7.64947,13.58875 13.59961,16.69727 4.9746,2.59884 8.49583,2.32697 17.43164,-1.34766 8.56831,-3.5234 24.96875,-13.76575 24.96875,-15.59375 0,-0.6472 -12.6001,-1.17773 -28,-1.17773 z m 80.29102,0.0215 c -15.26881,-0.0793 -30.70065,0.16552 -31.34961,0.81446 -2.42119,2.42109 8.72595,15.20415 15.47851,17.75 5.0588,1.90714 8.25606,1.69887 16.91211,-1.09961 11.51168,-3.72186 29.33399,-13.64354 29.33399,-16.33008 0,-0.65233 -15.10629,-1.05549 -30.375,-1.13477 z m 89.52539,0.004 c -3.02798,-0.005 -6.49722,0.008 -10.45117,0.0273 l -28.63477,0.13867 2.20703,3.57227 c 3.84324,6.21507 10.24589,12.49157 14.68555,14.39648 5.49812,2.35923 8.6877,2.24017 17.70898,-0.66015 9.6381,-3.09875 13.11292,-4.97821 18.33399,-9.91992 6.93094,-6.56029 7.34608,-7.52037 -13.84961,-7.55469 z m 53.06641,0.12305 c -3.10858,-0.0186 -5.72875,0.39587 -6.10938,1.01171 -0.43499,0.70384 1.19075,3.87658 3.61328,7.05274 2.42254,3.17615 5.42721,5.97244 6.67578,6.21289 1.24859,0.24137 2.28484,0.24297 2.30274,0.006 0.0178,-0.23709 0.37353,-3.47179 0.79101,-7.1875 l 0.75977,-6.75586 -6.67578,-0.30469 c -0.45893,-0.0209 -0.91334,-0.0325 -1.35742,-0.0351 z m 52.16015,0.0937 c -2.27109,-0.0123 -4.76445,0.004 -7.37695,0.0547 l -19,0.3711 v 8.55468 c 0,4.70555 0.60065,8.70861 1.33398,8.89649 3.70496,0.94921 36.66602,-14.40313 36.66602,-17.07813 0,-0.4592 -4.80986,-0.76191 -11.62305,-0.79882 z m 234.95508,211.75781 c -3.95984,0 3.78781,42.67034 12.58984,69.33398 27.04724,81.93299 85.24846,159.62361 200.07814,267.07813 16.4998,15.44011 31.8661,29.8007 34.1465,31.91211 l 4.1465,3.83789 3.5937,-4.27149 c 5.6413,-6.70436 10.2808,-16.96562 11.0332,-24.40625 0.865,-8.55431 -1.5942,-18.16759 -11.1055,-43.42383 -9.6789,-25.70152 -12.4606,-37.64559 -12.4726,-53.54687 l -0.01,-12.82031 L 989.07781,481.62304 C 922.93788,417.35787 868.15154,364.77539 867.33172,364.77539 Z M 568.23797,610.11133 c -22.91223,-0.1993 -68.98999,2.4769 -96.23828,6.14843 -79.92216,10.76909 -138.1264,36.91597 -169.17774,76 -4.595,5.78376 -9.15334,11.50648 -10.1289,12.7168 -1.57075,1.94873 -1.06266,2.46688 4.43359,4.51953 18.95435,7.07865 35.87847,24.91603 39.48242,41.61328 1.30891,6.06413 2.61026,5.40991 4.58789,-2.30664 0.93599,-3.65195 3.95228,-10.12286 6.70313,-14.3789 22.46977,-34.76512 78.35833,-39.84426 109.67969,-9.96875 7.62082,7.26905 15.7539,20.67894 15.7539,25.97851 0,4.60511 2.75852,1.78361 5.96094,-6.0957 13.74106,-33.8091 58.36124,-49.20488 95.75586,-33.03906 4.68905,2.02703 6.52264,2.3245 6.90039,1.11914 0.28289,-0.90276 0.82712,-23.64569 1.20898,-50.53907 0.59931,-42.19872 0.42144,-49.12299 -1.2871,-50.54101 -0.93406,-0.7752 -5.99738,-1.16013 -13.63477,-1.22656 z m 46.75,2.03906 c -1.96779,-0.006 -3.19054,0.0835 -3.51367,0.2832 -0.69428,0.42909 -0.84129,15.65195 -0.34961,36.20899 0.46656,19.50696 0.85333,50.31689 0.86133,68.46679 0.009,21.10202 0.49504,33 1.34765,33 0.73334,0 1.33203,-0.92055 1.33203,-2.04492 0,-4.37372 7.32614,-16.16075 14.48829,-23.31055 26.43804,-26.39248 74.28434,-26.50714 101.81835,-0.24414 7.43858,7.0952 15.69336,20.83639 15.69336,26.12305 0,2.8774 2.5697,2.73725 3.4668,-0.18945 7.95664,-25.95841 31.79187,-43.40646 61.79883,-45.23633 32.4241,-1.97727 61.14174,15.13585 70.2207,41.8457 2.4073,7.08209 4.51367,9.21327 4.51367,4.56836 0,-5.50379 9.47072,-21.37011 16.69922,-27.97656 31.81601,-29.07803 87.22596,-23.43596 109.31248,11.13086 7.1948,11.26011 9.0443,18.96168 8.2774,34.45312 -0.3689,7.45102 -1.1041,14.89688 -1.6348,16.54688 -1.3504,4.19792 1.0812,3.91998 18.6797,-2.14649 17.5845,-6.06162 31.3536,-12.04915 44.1269,-19.1875 11.4207,-6.38236 27.2071,-17.79916 27.2071,-19.67578 0,-3.16578 -31.4268,-20.4724 -60.668,-33.41015 -88.47555,-39.14622 -216.13258,-73.25822 -336,-89.78711 -33.63081,-4.6375 -83.90325,-9.3763 -97.67773,-9.41797 z M 205.1677,622.40625 c -1.2412,0.43739 -69.13,91.38276 -70.0977,93.90429 -1.1007,2.86849 4.5278,10.50908 14.627,19.85938 6.9947,6.47653 13.1259,10.5691 22.9257,15.30273 14.2279,6.8726 26.902,11.15101 27.961,9.4375 0.3531,-0.57133 1.2961,-3.95774 2.0957,-7.52539 5.8151,-25.94806 29.3467,-45.12159 58.9863,-48.06054 4.95,-0.49083 9,-1.1911 9,-1.55664 0,-0.36558 -5.7446,-6.64994 -12.76562,-13.96485 -16.33893,-17.02283 -30.83648,-35.25178 -42.47068,-53.39648 -5.0673,-7.90312 -9.6853,-14.20312 -10.2617,-14 z m 680.38863,155.70312 c -1.40637,0 -4.34568,9.38985 -3.41211,10.90039 0.38338,0.62031 2.36047,1.0025 4.39258,0.84766 3.51766,-0.26803 3.60907,-0.44494 1.91992,-3.68164 -0.9758,-1.8698 -1.7792,-4.44908 -1.7832,-5.73242 -0.005,-1.28333 -0.5069,-2.33399 -1.11719,-2.33399 z m -137.29102,2.68555 c -0.87808,-0.0236 -1.59961,0.93481 -1.59961,2.64844 0,1.46666 0.5658,2.66601 1.25586,2.66601 1.7898,0 3.0504,-2.42684 2.07813,-4 -0.54433,-0.88075 -1.1715,-1.29931 -1.73438,-1.31445 z" />
    <g
       id="layer1"
       inkscape:label="Oars"
       style="display:inline;fill:#aa4400">
      <path
         style="fill:#aa4400;stroke-width:1.33333"
         d="m 433.33168,954.01646 c -12.56685,-14.26128 -23.77892,-29.50928 -32.73851,-44.52319 -8.18525,-13.7163 -19.611,-38.70604 -18.9945,-41.54365 1.05052,-4.83531 43.32076,32.44361 63.67918,56.15985 12.03412,14.01898 29.38822,37.19355 29.38822,39.2449 0,0.92745 -5.53724,1.42177 -15.92655,1.42177 h -15.92655 z"
         id="path358" />
      <path
         style="fill:#aa4400;stroke-width:1.33333"
         d="m 569.59869,953.58345 c -19.3804,-22.09828 -34.67774,-45.41619 -44.87085,-68.3971 -3.19011,-7.19228 -6.22249,-14.49934 -6.73861,-16.23792 -0.906,-3.05181 -0.71472,-3.00934 5.53588,1.22912 15.88142,10.76907 37.61512,30.37698 53.29149,48.07906 14.43783,16.30346 35.31987,43.88573 34.37839,45.40907 -0.37747,0.61076 -7.7009,1.08941 -16.27428,1.06368 l -15.58798,-0.0468 -9.73404,-11.09913 z"
         id="path356" />
      <path
         style="fill:#aa4400;stroke-width:1.33333"
         d="m 707.64059,955.07145 c -11.87062,-13.26334 -24.33638,-29.99443 -32.85294,-44.09402 -8.07773,-13.37309 -20.46749,-40.20662 -19.85902,-43.01029 1.05488,-4.86056 43.34412,32.43099 63.66637,56.14233 12.72389,14.84583 29.4044,37.03621 29.4044,39.11721 0,1.09009 -4.69504,1.54946 -15.83657,1.54946 h -15.83658 z"
         id="path354" />
      <path
         style="fill:#aa4400;stroke-width:1.33333"
         d="m 847.14853,957.77614 c -14.82994,-15.35697 -30.76028,-37.23049 -41.51268,-57 -5.7484,-10.56908 -15.49032,-33.25724 -14.64366,-34.10391 0.88393,-0.88393 17.78408,11.88356 30.9029,23.34611 13.35818,11.67167 27.69891,26.85244 42.28112,44.7578 11.96374,14.69016 21.28006,28.0987 20.24339,29.13535 -0.47555,0.47556 -7.53515,0.86465 -15.68797,0.86465 h -14.82332 z"
         id="path352" />
      <path
         style="fill:#aa4400;stroke-width:1.33333"
         d="m 980.97392,955.07145 c -19.42756,-21.7069 -36.04799,-46.8258 -46.2778,-69.94092 -6.25341,-14.13011 -8.05647,-20.39227 -5.25121,-18.23792 1.0383,0.79737 6.93137,5.24556 13.0957,9.88482 13.874,10.44156 35.79756,31.43879 49.42018,47.33204 13.16211,15.35598 29.33691,36.84406 29.35671,39.00001 0.012,1.24064 -4.0328,1.66666 -15.8213,1.66666 h -15.83661 z"
         id="path350" />
      <path
         style="fill:#aa4400;stroke-width:1.33333"
         d="m 1120.4819,957.77614 c -21.8672,-22.64423 -42.7011,-54.96059 -53.7241,-83.33333 -1.9269,-4.95978 -2.2394,-6.98964 -1.0723,-6.96447 4.4433,0.0959 38.448,29.23711 53.2826,45.66191 17.2605,19.11085 39.698,47.87747 39.698,50.89607 0,0.4069 -7.0705,0.73982 -15.7123,0.73982 h -15.7122 z"
         id="path348" />
    </g>
    <g
       id="layer7"
       inkscape:label="Body"
       style="display:inline;fill:#552200">
      <path
         style="display:inline;fill:#552200;stroke-width:1.33333"
         d="M 593.64604,50.012605 C 593.45169,27.71436 593.62134,8.61381 594.02308,7.56694 c 0.57368,-1.494984 1.07865,-1.55531 2.35336,-0.281139 1.17937,1.178869 1.7506,12.361151 2.08997,40.913021 0.25686,21.609917 0.10654,40.230121 -0.33404,41.378241 -0.44057,1.14811 -1.55073,1.8378 -2.46701,1.53264 -1.2732,-0.42403 -1.74927,-10.11283 -2.01932,-41.097098 z"
         id="path454" />
      <path
         style="display:inline;fill:#552200;stroke-width:1.33333"
         d="m 593.62513,120.27903 c -0.35349,-16.17988 0.4656,-20.836247 3.66523,-20.836247 1.15317,0 2.93612,35.887227 1.86875,37.614267 -0.40792,0.66003 -1.73574,1.00947 -2.9507,0.77653 -1.89605,-0.3635 -2.26204,-2.85052 -2.58328,-17.55455 z"
         id="path448" />
      <path
         style="display:inline;fill:#552200;stroke-width:1.33333"
         d="m 243.6661,145.44278 c 0.34034,-1.36158 753.85254,-2.70548 757.4178,-1.35085 0.9631,0.36595 1.3771,1.27063 0.9199,2.01041 -1.1496,1.85999 -758.8029,1.20103 -758.3377,-0.65956 z"
         id="path442" />
      <path
         style="display:inline;fill:#552200;stroke-width:1.33333"
         d="m 593.32701,170.76918 c -1.94264,-2.34073 -1.1681,-14.68594 1.06126,-16.9153 0.78753,-0.78754 2.37221,-1.07106 3.5215,-0.63003 1.59442,0.61184 2.08963,2.81301 2.08963,9.28816 0,4.66745 -0.4,8.88629 -0.88889,9.37517 -1.48891,1.48892 -4.02716,0.99826 -5.7835,-1.118 z"
         id="path430" />
      <path
         style="display:inline;fill:#552200;stroke-width:1.33333"
         d="m 600.88287,731.53125 c -1.90899,-2.88468 -5.58871,-6.93468 -8.17715,-9 l -4.70624,-3.75512 0.15196,-36 c 0.0836,-19.8 0.53357,-43.8 0.99996,-53.33333 l 0.848,-17.33334 h 7.33333 7.33334 l 0.81318,28 c 1.28168,44.13086 1.29835,96.66667 0.0307,96.66667 -0.63589,0 -2.71805,-2.3602 -4.62705,-5.24488 z"
         id="path402" />
      <path
         style="fill:#552200;stroke-width:1.33333"
         d="m 1044.7948,831.10947 c -13.6344,-17.05 -24.791,-31.333 -24.7926,-31.73999 -10e-4,-0.407 9.5378,-3.8986 21.1984,-7.75913 41.5202,-13.74616 74.2238,-33.67083 88.8005,-54.10168 8.9547,-12.55108 10.6715,-17.9484 10.6238,-33.3992 -0.038,-12.32447 -0.4785,-14.54398 -5.8208,-29.33334 -14.5929,-40.39887 -16.4197,-46.53036 -17.1265,-57.48487 -1.0061,-15.59108 1.1084,-22.97256 9.0785,-31.69316 7.6394,-8.35872 17.6013,-13.30438 31.2433,-15.51102 23.246,-3.76012 50.6306,5.41904 57.1492,19.1561 2.3957,5.04848 2.0191,9.14195 -1.479,16.07588 -1.9867,3.93811 -13.3582,16.79183 -14.8527,16.78868 -0.4496,-9.4e-4 -0.8372,-4.65094 -0.8613,-10.33333 -0.075,-17.79265 -7.4078,-26.98311 -21.5361,-26.99329 -8.6755,-0.007 -12.6267,1.49352 -21.4192,8.13028 -9.1582,6.91281 -13.6724,15.55933 -13.6545,26.15374 0.017,10.04111 3.8974,18.34172 14.2086,30.39342 4.3846,5.12467 9.7986,12.01757 12.0312,15.31757 31.768,46.9564 20.4981,98.96451 -32.9376,152.00001 -7.758,7.7 -18.9774,17.47336 -24.932,21.71857 -10.2997,7.34315 -37.3352,23.61476 -39.2361,23.61476 -0.4925,0 -12.0508,-13.95 -25.6851,-31 z"
         id="path372" />
      <path
         style="fill:#552200;stroke-width:1.33333"
         d="m 963.85083,885.20511 c -4.66675,-4.16406 -14.06731,-11.71202 -20.89012,-16.77325 -10.99202,-8.15397 -15.1234,-12.59153 -36.26776,-38.95554 -13.12446,-16.36432 -23.4996,-30.11636 -23.05587,-30.56008 0.44372,-0.44373 2.61823,-0.80677 4.83224,-0.80677 3.18436,0 5.71929,1.74124 12.13181,8.33333 14.09263,14.48728 30.52244,21 52.97727,21 19.53437,0 33.07673,-4.52366 47.3734,-15.82454 l 6.7946,-5.3708 24.1265,29.92366 c 13.2696,16.45802 24.1265,30.48254 24.1265,31.16559 0,3.61118 -68.09752,25.16958 -80.16512,25.37878 -2.41951,0.042 -6.11525,-2.27428 -11.98345,-7.51038 z"
         id="path370" />
      <path
         style="fill:#552200;stroke-width:1.33333"
         d="M 267.33273,902.06871 C 203.7191,898.56222 158.4343,889.03207 121.4603,871.36999 71.5678,847.53686 36.4107,807.2751 17.4334,752.23884 10.5131,732.16932 7.9957999,719.58724 8.0151999,705.16568 8.0431999,684.73104 13.6522,670.51623 27.6579,655.38876 c 9.9772,-10.77627 20.1185,-18.40878 44.3415,-33.3719 9.9,-6.11546 20.8083,-13.73949 24.2406,-16.94228 10.8619,-10.13545 13.4416,-24.53341 6.7594,-37.72604 -7.9129,-15.62245 -25.8113,-17.87116 -37.3791,-4.6962 -4.32,4.92023 -4.334,4.98223 -3.4642,15.41215 l 0.8734,10.47204 -5.2727,2.68991 c -5.0681,2.58557 -13.2712,10.53521 -16.1154,15.61744 -1.2563,2.2448 -1.8832,2.03513 -8.1066,-2.71088 -5.7545,-4.38846 -6.9493,-6.09616 -8.1358,-11.62866 -1.4356,-6.69416 -0.6692,-12.56884 3.0086,-23.06154 1.0281,-2.93334 2.2841,-7.58334 2.791,-10.33334 0.8127,-4.40894 0.6086,-5 -1.7268,-5 -4.8159,0 -4.0965,-2.13314 3.1247,-9.26466 6.9626,-6.87605 10.3134,-12.62433 12.0778,-20.71887 0.5942,-2.72611 6.0894,-9.1444 17.409,-20.33334 9.0974,-8.99238 16.8502,-16.3498 17.2284,-16.3498 0.3782,0 0.6877,6.21979 0.6877,13.82174 v 13.82174 l 13,0.67883 c 30.7877,1.60767 47.0411,16.73464 50.8805,47.35438 2.4483,19.52542 -3.9073,55.56414 -14.4971,82.20439 -17.218,43.31456 -10.7524,79.9676 17.9499,101.75692 10.0661,7.64164 29.3204,17.05433 42.9026,20.97344 l 10.4308,3.00977 2.3888,9.11087 c 3.3141,12.64 8.183,20.94236 17.1506,29.24479 13.5558,12.55021 28.38921,17.98145 49.18043,18.00732 19.766,0.0245 37.27338,-5.96207 49.35482,-16.87694 2.93102,-2.648 5.5065,-4.5804 5.72329,-4.29422 0.2168,0.28617 11.50381,14.32592 25.08224,31.19944 17.95008,22.30601 25.44224,32.67717 27.45133,38 1.5198,4.02648 4.61694,11.42681 6.88252,16.44517 2.2656,5.01836 4.11927,9.66836 4.11927,10.33334 0,1.63328 -90.2822,1.50978 -120.66667,-0.16506 z"
         id="path368" />
      <path
         style="fill:#552200;stroke-width:1.33333"
         d="m 429.9994,896.97501 c -12.02496,-11.38788 -24.14988,-21.60264 -35.72907,-30.10031 -8.7823,-6.44511 -14.42601,-12.66292 -36.3638,-40.06294 l -25.96806,-32.43377 2.5405,-6.46759 c 1.39727,-3.55718 3.04908,-6.38768 3.67068,-6.29 0.62162,0.0977 3.33354,4.51952 6.02651,9.82631 8.61984,16.98633 23.61925,28.9914 42.49999,34.01568 9.6081,2.55677 30.67202,2.52504 40.60118,-0.0612 9.43442,-2.45736 21.35418,-8.62777 28.52675,-14.76723 l 5.25977,-4.50216 24.87086,31.03631 c 22.81441,28.47008 25.2944,32.08879 29.99316,43.765 2.81725,7.00078 6.36016,15.15511 7.87312,18.12075 1.51296,2.96563 2.52717,5.61636 2.25381,5.89049 -0.27335,0.27414 -20.19764,0.29782 -44.2762,0.0527 l -43.7792,-0.44586 -8,-7.57616 z"
         id="path366" />
      <path
         style="fill:#552200;stroke-width:1.33333"
         d="m 564.66607,895.47751 c -12.67567,-12.28246 -25.14295,-22.7335 -35.76814,-29.98361 -6.0052,-4.09767 -13.55224,-12.54011 -33.65322,-37.64599 -14.25159,-17.80004 -25.91198,-33.00283 -25.91198,-33.78396 0,-2.90267 4.1352,-9.28781 6.01504,-9.28781 1.07062,0 3.81255,3.69646 6.09318,8.21436 7.80944,15.47042 23.6042,27.63297 42.1627,32.46685 4.2256,1.10063 13.40923,1.98545 20.60706,1.98545 15.56293,0 29.91258,-3.98096 40.73609,-11.30125 4.95249,-3.34953 8.39823,-4.69252 12,-4.67708 4.9672,0.0213 5.43767,0.50017 27.83501,28.33333 16.53072,20.5427 23.5346,30.32401 25.52354,35.64501 1.50761,4.03333 5.1474,12.54145 8.08844,18.90692 2.94102,6.36548 4.96824,11.95266 4.50493,12.41598 -0.46331,0.46331 -20.3552,0.43856 -44.20419,-0.0551 l -43.3618,-0.89739 -10.66666,-10.3358 z"
         id="path364" />
      <path
         style="fill:#552200;stroke-width:1.33333"
         d="m 836.13612,893.77614 c -12.71564,-12.26469 -28.73255,-25.36476 -37.25145,-30.4676 -3.91342,-2.34415 -56.37871,-67.26119 -55.26218,-68.37772 0.45175,-0.45174 3.09254,-0.82135 5.86842,-0.82135 4.44776,0 5.51622,0.68192 8.99829,5.74293 5.55999,8.08118 13.436,14.8415 22.79488,19.56584 11.60063,5.85598 21.44479,8.02456 36.42703,8.02456 19.30692,0 36.49886,-6.27282 48.60165,-17.73328 2.37235,-2.24645 4.52961,-3.82545 4.79393,-3.50892 0.26432,0.31655 11.55055,14.37554 25.08051,31.2422 23.82423,29.69967 24.80335,31.16206 31.05128,46.37701 3.54825,8.64068 6.22101,15.9388 5.93948,16.21804 -1.49124,1.47904 -56.54999,6.873 -73.69229,7.21942 l -9.18039,0.18554 z"
         id="path362" />
      <path
         style="fill:#552200;stroke-width:1.33333"
         d="m 700.99691,894.77319 c -7.5153,-7.0859 -20.48491,-18.03486 -28.82138,-24.33098 -13.95782,-10.5417 -16.88558,-13.60467 -37,-38.70878 l -21.8428,-27.26125 v -7.18135 c 0,-3.94975 0.55392,-7.18136 1.23094,-7.18136 0.67702,0 3.92982,4.05 7.22846,9 12.4976,18.75412 32.10638,28.28497 58.26047,28.31751 19.72007,0.0245 33.20945,-4.46062 47.58051,-15.82028 l 6.80918,-5.38235 24.97566,31.09564 c 18.9667,23.61428 25.69045,32.98356 27.94664,38.94256 1.63404,4.31582 5.44534,13.18083 8.46957,19.70006 3.02421,6.51921 5.49857,12.16233 5.49857,12.54026 0,0.37792 -19.50112,0.34214 -43.33582,-0.0795 l -43.33583,-0.76666 -13.66417,-12.88349 z"
         id="path360" />
    </g>
    <g
       id="layer6"
       inkscape:label="Shields"
       style="display:inline;fill:#ffd42a">
      <path
         style="fill:#ffd42a;stroke-width:1.33333"
         d="m 241.3327,809.856 c -11.4663,-5.61082 -21.6298,-15.90925 -27.0226,-27.38142 -3.6797,-7.8278 -4.2417,-10.45368 -4.2161,-19.69844 0.041,-14.58945 3.6894,-23.53358 14.1731,-34.74069 9.4111,-10.06041 20.34995,-16.02412 33.53473,-18.28257 23.69389,-4.05859 49.02816,9.06043 60.05292,31.0976 5.90502,11.80346 7.0943,20.82067 4.22381,32.0253 -8.94044,34.89793 -48.22925,52.89156 -80.74586,36.98022 z"
         id="path384" />
      <path
         style="fill:#ffd42a;stroke-width:1.33333"
         d="m 378.99803,810.14858 c -10.69327,-5.00399 -21.44299,-15.19032 -27.16524,-25.74151 -4.258,-7.85129 -4.50006,-9.01477 -4.50006,-21.63093 0,-11.96364 0.39086,-14.12931 3.80476,-21.08183 10.9174,-22.23354 37.71284,-36.20611 61.09436,-31.85787 18.7546,3.48777 35.19042,15.80483 42.95506,32.19069 3.68405,7.77451 4.14573,10.08561 4.14496,20.74901 -10e-4,14.66196 -3.25184,22.68669 -13.90328,34.32109 -16.82576,18.37851 -43.74496,23.66721 -66.43056,13.05135 z"
         id="path382" />
      <path
         style="fill:#ffd42a;stroke-width:1.33333"
         d="m 514.94705,809.99384 c -11.50129,-5.62745 -21.9658,-16.16345 -27.27794,-27.4643 -3.70728,-7.88675 -4.26746,-10.49536 -4.24175,-19.7534 0.0405,-14.58945 3.68941,-23.53358 14.17311,-34.74069 9.41102,-10.06041 20.34992,-16.02412 33.53469,-18.28257 23.69389,-4.05859 49.02816,9.06043 60.05292,31.0976 5.90503,11.80346 7.09431,20.82067 4.22381,32.0253 -8.91392,34.7944 -48.18737,52.91106 -80.46484,37.11806 z"
         id="path380" />
      <path
         style="fill:#ffd42a;stroke-width:1.33333"
         d="m 652.33136,810.14858 c -11.33451,-5.30407 -21.98211,-15.64511 -27.35379,-26.56627 -3.94354,-8.01761 -4.3115,-9.84844 -4.3115,-21.45261 0,-11.25275 0.43009,-13.56281 3.80476,-20.43539 10.9174,-22.23354 37.71284,-36.20611 61.09436,-31.85787 18.29544,3.40237 34.29984,15.06381 42.63558,31.06595 4.13054,7.92941 4.44942,9.44863 4.45706,21.23512 0.008,11.62325 -0.35566,13.43388 -4.30327,21.45261 -13.66429,27.75612 -47.90321,39.71738 -76.0232,26.55846 z"
         id="path378" />
      <path
         style="fill:#ffd42a;stroke-width:1.33333"
         d="m 788.28039,809.99384 c -23.43542,-11.46668 -36.68608,-37.3823 -30.31648,-59.29293 3.12521,-10.75036 7.42174,-17.66032 16.06192,-25.83184 22.32889,-21.11775 55.42504,-21.07832 78.5905,0.0936 8.77828,8.02285 16.09018,21.67042 17.45263,32.57516 2.70535,21.65283 -14.008,46.29899 -37.16351,54.80277 -13.9336,5.11708 -31.22954,4.20751 -44.62506,-2.34677 z"
         id="path376" />
      <path
         style="fill:#ffd42a;stroke-width:1.33333"
         d="m 925.66469,810.14858 c -11.3345,-5.30407 -21.9821,-15.64511 -27.35378,-26.56627 -3.95027,-8.03128 -4.30994,-9.82867 -4.29275,-21.45261 0.0167,-11.22126 0.45841,-13.58746 3.82441,-20.48231 10.77307,-22.06742 37.78168,-36.13924 61.05595,-31.81095 18.29325,3.40197 35.12555,15.76795 43.08618,31.6536 3.5834,7.15073 3.9868,9.23222 4,20.63966 0.014,11.61968 -0.348,13.42428 -4.2968,21.45261 -13.65445,27.76084 -47.8985,39.7274 -76.02321,26.56627 z"
         id="path374" />
    </g>
    <g
       id="layer5"
       inkscape:label="Sail"
       style="display:inline;fill:#ff0000">
      <path
         style="fill:#ff0000;stroke-width:1.33333"
         d="m 371.80517,366.05472 c 14.81366,-58.02179 43.51794,-116.37917 87.27324,-177.43131 17.95278,-25.04964 22.28251,-30.353 23.10708,-28.30311 2.18508,5.43218 9.17438,13.68804 13.77903,16.276 6.43501,3.61668 17.13745,4.93006 25.13147,3.08407 4.81281,-1.11139 5.64277,-1.01687 5.03264,0.57312 -0.40186,1.0472 -36.29532,49.43116 -79.76327,107.51992 -63.85309,85.33065 -79.10849,104.97034 -79.42764,102.25459 -0.21725,-1.84874 1.97309,-12.63672 4.86745,-23.97328 z"
         id="path422" />
      <path
         style="fill:#ff0000;stroke-width:1.33333"
         d="m 268.05127,515.10946 c -4.78584,-22.29784 -6.01616,-57.26513 -2.84998,-81 8.5878,-64.37707 38.38644,-135.07939 90.47476,-214.66668 15.275,-23.33914 40.73179,-59.98929 41.65668,-59.97318 0.36667,0.007 2.29542,2.96521 4.28612,6.57518 8.78527,15.9314 30.26296,18.94366 52.98243,7.43083 3.65355,-1.85139 7.26704,-3.36616 8.03,-3.36616 0.76295,0 -1.91024,4.45877 -5.94043,9.9084 -10.75948,14.54897 -30.99537,45.86529 -40.98374,63.42494 -29.23824,51.401 -47.19406,99.43431 -55.38711,148.16513 l -2.38157,14.16512 -43.30284,58.13135 c -23.81658,31.97226 -43.70314,58.14794 -44.19238,58.16822 -0.48922,0.0203 -1.5656,-3.11315 -2.39194,-6.96315 z"
         id="path420" />
      <path
         style="fill:#ff0000;stroke-width:1.33333"
         d="m 509.68249,593.4428 c -18.71716,-29.66524 -38.10674,-77.62375 -44.20336,-109.33334 -14.5819,-75.84311 1.07086,-150.65151 50.73788,-242.48886 17.2989,-31.9867 47.34192,-81.25198 49.13128,-80.56666 0.5584,0.21387 3.06135,3.08884 5.56211,6.38884 11.94245,15.75919 32.54932,17.38794 59.42233,4.6967 5.31667,-2.5109 9.66667,-4.23043 9.66667,-3.8212 0,0.40922 -4.18725,6.33945 -9.30501,13.17828 -63.477,84.82393 -83.65843,171.36318 -65.28502,279.94623 5.96736,35.26591 20.39523,85.80767 35.2221,123.38541 3.3162,8.40469 6.03061,15.8832 6.03202,16.61888 10e-4,0.86862 -15.96701,1.33612 -45.5448,1.33333 l -45.54736,-0.004 -5.88884,-9.33333 z"
         id="path418" />
      <path
         style="fill:#ff0000;stroke-width:1.33333"
         d="m 201.3031,591.88569 c -16.187,-36.90897 -24.0838,-69.11628 -26.5309,-108.2069 -5.2826,-84.38877 25.4623,-183.35347 81.00908,-260.75913 10.22008,-14.2419 30.02261,-37.25285 39.44877,-45.84026 9.18872,-8.37112 22.78887,-18.97123 24.33474,-18.96678 0.6057,0.001 2.85701,3.3632 5.0029,7.46991 5.75272,11.00924 11.72596,14.52692 24.66767,14.52692 8.62616,0 11.43051,-0.63137 19.24707,-4.33333 5.03233,-2.38334 9.65974,-4.33334 10.28313,-4.33334 0.6234,0 -3.63692,6.88578 -9.46736,15.30172 -62.93301,90.84071 -97.48973,166.68301 -108.76027,238.69829 -3.53,22.5557 -3.14529,64.37172 0.78508,85.33334 1.65003,8.8 3.05107,16.9 3.11343,18 0.12147,2.14352 -54.74314,76 -56.45694,76 -0.5627,0 -3.5671,-5.80071 -6.6764,-12.89044 z"
         id="path416" />
      <path
         style="fill:#ff0000;stroke-width:1.33333"
         d="m 656.87925,606.88862 c -12.83777,-1.16186 -26.427,-2.11249 -30.19828,-2.11249 -9.20997,0 -11.6984,-1.61916 -15.41944,-10.03309 -6.18654,-13.98888 -20.44332,-54.97299 -26.42592,-75.96691 -35.64353,-125.07879 -24.77269,-220.03802 35.5197,-310.2724 13.9641,-20.89887 35.22833,-49.06095 37.04425,-49.06095 0.55721,0 2.60329,2.71344 4.54684,6.02986 9.75433,16.6445 31.06285,19.54222 58.19147,7.91338 6.15717,-2.6393 12.09486,-5.17253 13.19486,-5.62938 1.18314,-0.49138 0.57366,1.05118 -1.49222,3.77674 -1.92072,2.53407 -7.57323,11.20035 -12.56114,19.2584 -55.50382,89.66746 -66.49144,182.82636 -35.18929,298.35377 7.2418,26.72742 19.02451,61.53693 32.42485,95.79227 6.13298,15.67774 10.961,28.84092 10.72895,29.25151 -0.23204,0.4106 -10.9072,-0.58877 -23.72256,-2.22083 -12.81537,-1.63205 -33.80431,-3.918 -46.64207,-5.07988 z"
         id="path414" />
      <path
         style="fill:#ff0000;stroke-width:1.33333"
         d="m 410.05647,603.10946 c -26.1334,-40.35132 -43.03807,-88.63439 -47.49907,-135.66667 -1.71736,-18.10605 -0.80623,-53.13249 1.49392,-57.43035 1.98939,-3.7172 171.63668,-230.53647 175.78247,-235.02203 3.35196,-3.62667 10.60066,-8.22368 11.5191,-7.30524 0.24147,0.24145 -3.4941,6.73571 -8.30125,14.43165 -24.47171,39.17768 -47.90471,83.84459 -60.30436,114.94939 -18.72561,46.97365 -26.44879,81.67806 -27.67891,124.37658 -1.14818,39.85416 4.23738,73.86652 17.52308,110.66667 5.50336,15.24378 20.08131,45.7557 29.17055,61.05448 3.956,6.65866 5.58505,10.54883 4.53781,10.83634 -0.89856,0.24669 -13.03374,1.74102 -26.96708,3.32073 -13.93333,1.57972 -32.23333,4.28451 -40.66666,6.01067 -8.43334,1.72614 -16.32898,3.2073 -17.54588,3.29145 -1.42006,0.0983 -5.38287,-4.74213 -11.06372,-13.51367 z"
         id="path412" />
      <path
         style="fill:#ff0000;stroke-width:1.33333"
         d="m 798.66607,627.46381 c -15.03334,-2.91235 -35.36438,-6.65849 -45.1801,-8.32476 l -17.84676,-3.02959 -11.88,-30 c -26.59256,-67.15293 -41.79564,-120.13675 -48.5882,-169.33334 -3.16738,-22.9405 -3.21804,-68.36228 -0.0997,-89.41117 7.57593,-51.1379 25.31648,-96.08509 56.27949,-142.58883 12.20662,-18.33326 19.12906,-26.78332 20.10151,-24.53743 2.48951,5.74957 9.57731,12.84532 15.94081,15.95869 13.8363,6.76947 32.48239,5.42766 54.02952,-3.88806 5.81721,-2.51504 10.57676,-4.40695 10.57676,-4.20424 0,0.2027 -4.71111,6.68546 -10.46912,14.40614 -64.39164,86.34007 -76.93417,190.79634 -36.77461,306.26491 15.06521,43.31618 41.21917,94.73903 69.69212,137.02583 4.57698,6.79753 8.6256,13.15088 8.99693,14.11853 0.48559,1.26544 -4.67592,0.50713 -18.38509,-2.70107 -10.48312,-2.45324 -31.36023,-6.84326 -46.39356,-9.75561 z"
         id="path410" />
      <path
         style="fill:#ff0000;stroke-width:1.33333"
         d="m 317.29947,619.38381 c -18.22512,-23.9052 -32.11308,-48.98052 -40.54591,-73.20739 l -4.76005,-13.67531 41.63166,-55.86249 c 22.89742,-30.72437 41.94874,-55.8604 42.33628,-55.85784 0.38754,0.003 0.75724,12.15256 0.82156,27 0.0937,21.62809 0.71571,30.44159 3.12848,44.32868 7.21252,41.51268 23.90184,83.75362 46.58147,117.89847 6.09976,9.18336 6.06133,9.25807 -6.49356,12.62176 -12.25096,3.28227 -40.52211,14.63727 -50,20.08231 l -8,4.59599 -8.51553,-8.93259 c -4.68354,-4.91294 -11.96652,-13.45915 -16.1844,-18.99159 z"
         id="path408" />
      <path
         style="fill:#ff0000;stroke-width:1.33333"
         d="M 275.34785,693.406 C 258.02996,678.20173 231.8063,646.14583 217.9912,623.2931 l -6.3327,-10.47542 27.0277,-36.06838 c 14.86517,-19.8376 27.58752,-35.88173 28.27183,-35.65363 0.68432,0.22811 3.52265,6.45299 6.3074,13.83309 9.97697,26.44082 25.5029,53.02581 43.90637,75.1807 5.17785,6.23334 11.21471,13.49747 13.4152,16.14254 l 4.00091,4.8092 -11.80279,8.8138 c -12.75621,9.52577 -25.69239,22.75605 -33.14752,33.90113 -2.57532,3.85 -4.95525,7 -5.28873,7 -0.33347,0 -4.38394,-3.31656 -9.00102,-7.37013 z"
         id="path406" />
      <path
         style="display:inline;fill:#ff0000;stroke-width:1.33333"
         d="m 1072.1408,712.18111 c -36.6214,-18.55746 -109.02469,-44.23387 -173.26444,-61.44484 -11.98435,-3.21082 -22.71592,-6.60654 -23.84795,-7.54603 -3.04189,-2.52455 -27.90682,-40.56404 -39.05457,-59.74744 -5.32688,-9.16667 -14.70036,-26.8368 -20.82996,-39.26698 -61.52769,-124.77148 -63.58231,-235.84531 -6.1288,-331.32548 10.36207,-17.22038 39.75443,-54.82558 42.75764,-54.70502 0.49133,0.0197 2.39335,2.48585 4.22668,5.48028 6.19909,10.12513 20.73615,17.15052 35.48817,17.15052 8.85603,0 22.5015,-2.8512 34.6939,-7.24924 5.21064,-1.87959 9.89268,-3.41743 10.40454,-3.41743 0.51186,0 -3.12501,4.65 -8.08193,10.33333 -60.2312,69.05791 -81.734,143.32759 -65.1748,225.11069 18.00427,88.92 82.26016,183.39835 199.30872,293.05269 9.8846,9.26015 17.5147,16.83664 16.9557,16.83664 -0.559,0 -3.9128,-1.46776 -7.4529,-3.26169 z"
         id="path404" />
    </g>
    <g
       id="layer3"
       inkscape:label="Pennant"
       style="display:inline">
      <path
         style="fill:#ff0000;stroke-width:1.33333"
         d="m 557.9994,68.684592 c -18.83145,-2.965898 -41.539,-3.629262 -45.81927,-1.338534 -1.47705,0.7905 -2.96286,0.98565 -3.3018,0.433666 -1.24677,-2.030477 3.1769,-22.442348 5.56327,-25.670272 5.11968,-6.925154 7.70405,-7.369375 40.17203,-6.905086 16.47116,0.235537 30.42116,0.720947 31,1.078689 1.27184,0.786036 1.42561,33.008784 0.16354,34.270838 -1.5208,1.5208 -9.78325,0.96478 -27.77777,-1.869301 z"
         id="path460" />
      <path
         style="fill:#ff0000;stroke-width:1.33333"
         d="m 469.9994,84.692693 c -18.31932,-1.79782 -76.04275,-1.41802 -114,0.75009 -39.87337,2.27756 -46.66667,2.4006 -46.66667,0.84518 0,-1.65783 15.88386,-8.51088 30.72747,-13.25728 29.75575,-9.514728 55.81624,-12.243728 116.98104,-12.250008 36.51228,-0.0037 44.50035,0.321621 45.08157,1.836264 0.38852,1.012451 -0.23032,6.778732 -1.37517,12.813954 -1.14487,6.03523 -2.08157,11.28436 -2.08157,11.66474 0,0.38037 -3.75,0.2603 -8.33334,-0.26684 -4.58333,-0.52714 -13.73333,-1.48838 -20.33333,-2.1361 z"
         id="path458" />
      <path
         style="fill:#ff0000;stroke-width:1.33333"
         d="m 504.97341,87.972353 c -2.22293,-2.22294 7.26424,-16.03041 9.89668,-14.40347 2.4546,1.51702 0.97356,7.56811 -2.76813,11.3098 -3.87929,3.8793 -5.59732,4.62489 -7.12855,3.09367 z"
         id="path456" />
    </g>
  </g>
</svg>
