<?xml version="1.0" encoding="UTF-8" standalone="no"?>
<!-- Created with Inkscape (http://www.inkscape.org/) -->

<svg
   version="1.1"
   id="svg198"
   width="1780.9078"
   height="1701.2092"
   viewBox="0 0 1780.9078 1701.2092"
   sodipodi:docname="Horse8c.svg"
   inkscape:version="1.2.2 (732a01da63, 2022-12-09, custom)"
   xmlns:inkscape="http://www.inkscape.org/namespaces/inkscape"
   xmlns:sodipodi="http://sodipodi.sourceforge.net/DTD/sodipodi-0.dtd"
   xmlns="http://www.w3.org/2000/svg"
   xmlns:svg="http://www.w3.org/2000/svg">
  <defs
     id="defs202" />
  <sodipodi:namedview
     id="namedview200"
     pagecolor="#ffffff"
     bordercolor="#000000"
     borderopacity="0.25"
     inkscape:showpageshadow="2"
     inkscape:pageopacity="0.0"
     inkscape:pagecheckerboard="0"
     inkscape:deskcolor="#d1d1d1"
     showgrid="false"
     inkscape:zoom="0.45368304"
     inkscape:cx="830.97662"
     inkscape:cy="833.1808"
     inkscape:window-width="1920"
     inkscape:window-height="1031"
     inkscape:window-x="0"
     inkscape:window-y="25"
     inkscape:window-maximized="1"
     inkscape:current-layer="layer1" />
  <g
     inkscape:groupmode="layer"
     id="layer1"
     inkscape:label="Layer 1">
    <path
       id="path316"
       style="display:inline;fill:#000000;stroke-width:1.33333"
       d="m 1094.9448,63.458938 c -8.6468,1.005375 -17.0002,4.672102 -22.5937,10.714844 -2.1438,2.315928 -6.0459,7.660298 -8.67,11.876953 -2.6242,4.216655 -5.5168,7.667969 -6.4277,7.667969 -0.9108,0 -6.4805,2.413927 -12.377,5.365234 -20.1419,10.081422 -39.0462,31.657302 -51.58785,58.876952 l -5.33203,11.57422 -11.33398,2.64063 c -6.2333,1.4522 -17.63399,4.00951 -25.33399,5.68359 l -14,3.04492 -7.60156,15.40625 c -4.18162,8.474 -7.99374,17.62962 -8.4707,20.3457 l -0.86719,4.93946 4.4707,-0.56836 c 8.06917,-1.02379 69.31451,-3.57606 69.97461,-2.91602 0.3545,0.35455 -0.2576,4.16119 -1.35937,8.45899 -3.4764,13.56038 -10.31694,49.79225 -9.61524,50.92773 0.6778,1.09673 15.68396,8.73788 19.5508,9.95508 1.468,0.46211 2.5815,3.92505 3.7793,11.75 0.9341,6.10196 3.1686,15.74564 4.9648,21.43164 3.6878,11.67362 3.266,11.4029 22.4688,14.42969 5.1122,0.8058 9.4998,1.66981 9.75,1.91992 0.2501,0.25011 -2.3713,9.36851 -5.8262,20.26172 -5.5521,17.50587 -6.976,20.58017 -12.2637,26.47265 -18.2446,20.3315 -47.75545,73.3611 -57.50192,103.33204 -9.26147,28.47955 -12.11914,49.97535 -12.11914,91.13867 0,24.93618 -0.27186,28.68195 -2.12891,29.39453 -8.84882,3.39559 -82.97362,18.43926 -112.25586,22.7832 -18.16328,2.69448 -29.71279,8.53901 -51.77539,26.19531 -1.0362,0.82925 -2.79761,-2.54236 -5.75781,-11.01953 -12.03872,-34.47531 -33.12817,-71.82187 -57.87891,-102.49218 -11.39985,-14.12633 -39.23815,-41.61052 -54.2793,-53.58985 -28.16671,-22.43305 -61.24053,-41.72193 -89.73242,-52.33203 -18.44764,-6.86971 -44.63978,-13.2935 -68.85742,-16.88867 -29.26825,-4.34496 -77.14363,-4.36052 -105.19141,-0.0332 -53.21348,8.20996 -100.91725,25.69585 -151.6582,55.58984 l -4.18359,2.46484 -7.51758,-6.87109 c -4.87736,-4.45764 -13.2405,-9.74368 -23.81641,-15.05274 -8.96497,-4.50033 -17.80553,-9.60469 -19.64648,-11.34375 -3.18564,-3.00933 -3.66824,-3.08035 -10,-1.46679 l -6.6543,1.69531 -1.10156,9.24805 c -2.05111,17.22427 -0.31732,36.86742 4.81445,54.58008 4.4287,15.28585 4.6042,16.70579 3.95508,31.79101 -0.38324,8.90632 0.004,20.82299 0.88867,27.33399 1.47394,10.8471 1.28024,13.47295 -3.23242,43.54296 -11.33441,75.52683 -11.17701,91.39358 1.08789,109.61914 l 4.36914,6.49219 5.03516,47.27735 c 2.76941,26.00242 6.75346,57.47672 8.85351,69.94336 4.07484,24.18932 11.89575,56.57496 15.4961,64.1621 4.14449,8.73393 13.45072,17.48141 24.46093,22.99219 19.46144,9.74077 39.55703,10.24533 55.95313,1.40625 12.45088,-6.7122 12.92656,-7.24371 10.96289,-12.24804 -6.84678,-17.44881 -10.01148,-29.19645 -10.58398,-39.28125 l -0.62305,-10.97071 3.72851,-1.41797 c 2.0509,-0.77976 4.50318,-1.12084 5.44922,-0.75781 3.0187,1.15838 9.71356,16.28411 13.08203,29.55859 4.48425,17.67147 8.86196,21.89063 22.7168,21.89063 9.39774,0 18.59541,-4.44697 27.39258,-13.24414 5.29523,-5.29524 6.62744,-7.6618 7.97852,-14.16992 2.80396,-13.50668 0.22511,-23.57999 -9.46094,-36.95117 -2.13865,-2.95233 -3.88867,-6.33203 -3.88867,-7.50977 0,-1.58798 9.90655,-5.80234 38.33398,-16.31055 l 38.33203,-14.16992 0.44336,5.51172 c 0.24329,3.03122 -0.23848,12.11109 -1.07031,20.17773 -1.40545,13.62934 -2.02279,15.7027 -8.73438,29.33204 -12.02125,24.41183 -16.622,46.54593 -16.625,80 -0.003,40.0702 10.00984,84.55106 28.38477,126.09766 l 2.10742,4.7637 -30.25391,3.6855 c -61.49934,7.4901 -80.83681,7.6195 -101.95312,0.6875 -10.48367,-3.4415 -14.0065,-3.007 -27.29492,3.3613 -30.18677,14.4666 -60.56935,44.3481 -67.50196,66.3887 -2.01291,6.3996 -2.17246,9.0118 -1.01757,16.6367 2.84522,18.7849 3.11594,44.6641 1.01562,97.0469 -2.83028,70.5886 -2.88189,71.2498 -6.8789,86.666 -8.52198,32.8686 -4.32408,58.235 12.43164,75.1113 6.75069,6.7993 41.70907,38.8913 66.83984,61.3594 25.71626,22.9916 44.06931,36.1606 65.07422,46.6934 12.42028,6.2282 29.15194,12.1699 34.26953,12.1699 h 3.42969 l -0.002,-20.334 c -0.003,-21.9584 -1.36529,-43.8408 -4.86328,-78.1133 -2.18314,-21.39 -2.28671,-21.8026 -5.67968,-22.9921 -1.90017,-0.6662 -6.83312,-3.0161 -10.9629,-5.2227 -9.64729,-5.1544 -17.33098,-7.8861 -26.49023,-9.416 -7.07553,-1.1817 -7.61308,-1.0516 -15.30664,3.6972 -10.46821,6.4614 -20.72528,7.5595 -28.08984,3.0079 -5.71446,-3.5317 -9.9266,-9.8282 -9.9336,-14.8516 -0.005,-3.3045 0.87961,-3.85 12.45117,-7.7051 13.52183,-4.5048 17.82807,-7.8357 21.41993,-16.5664 2.6842,-6.5245 2.77496,-6.1674 -1.54102,-6.1914 -5.25134,-0.029 -5.87166,-0.6326 -15.05469,-14.6504 -4.56225,-6.9642 -12.53311,-16.7795 -17.71093,-21.8105 l -9.41407,-9.1465 1.54102,-16.8535 c 0.847,-9.269 3.96152,-31.2302 6.92187,-48.8028 2.96037,-17.5726 5.38282,-33.8122 5.38282,-36.0898 0,-2.2777 0.88298,-7.1175 1.96289,-10.7539 3.9315,-13.2389 16.68394,-20.926 44.83398,-27.0235 l 12.79883,-2.7714 10.39844,4.0039 c 33.41745,12.8679 103.35146,28.5526 158.67187,35.5859 18.45467,2.3462 18.66554,2.4101 18.47461,5.6856 -2.63565,45.214 -3.27493,67.121 -2.5293,86.6464 l 0.89063,23.334 -4.80469,9.6602 c -8.42846,16.9492 -10.51566,27.2574 -10.59766,52.3398 -0.0598,18.3162 0.44954,24.3636 3.04102,36.1113 l 3.11328,14.1114 -6.88086,22.9804 c -21.58464,72.0845 -37.34574,102.73 -63.37304,123.2266 -5.86667,4.62 -21.46508,19.764 -34.66407,33.6524 -34.51945,36.3222 -48.06132,49.7256 -58.91406,58.3125 -5.26788,4.1677 -16.03832,15.2344 -23.93359,24.5917 -7.89529,9.3578 -16.63508,19.55 -19.42188,22.6504 -4.57479,5.0893 -5.0664,6.3518 -5.0664,13 v 7.3633 h 80 80 v -8.6015 c 0,-4.7309 0.9,-12.0561 2,-16.2793 1.09997,-4.2232 2,-10.7775 2,-14.5645 0,-3.7871 -0.90003,-9.4369 -2,-12.5547 -8.77091,-24.8594 9.05243,-54.3944 37.46679,-62.0859 9.84712,-2.6655 9.19157,-2.9427 14.12891,5.9707 1.24428,2.2462 5.08188,5.8715 8.52734,8.0566 5.62322,3.5661 25.73557,12.0586 28.5586,12.0586 0.61675,0 2.74251,-3.3101 4.72265,-7.3574 5.25154,-10.7338 5.79475,-25.2279 1.96289,-52.4063 l -2.99609,-21.2441 7.61133,-30.4961 c 7.45799,-29.8852 22.74277,-82.6858 26.46289,-91.416 1.03436,-2.4273 5.4444,-8.9141 9.80078,-14.4141 26.3596,-33.2792 37.20566,-54.7975 40.3418,-80.0351 3.00746,-24.2023 14.53716,-63.9601 28.73437,-99.0899 6.38243,-15.7925 7.48592,-17.6277 13.01563,-21.6406 3.32298,-2.4115 10.37075,-9.525 15.66211,-15.8086 5.29133,-6.2836 10.0678,-11.4258 10.61523,-11.4258 0.54741,0 8.73253,1.181 18.18945,2.6231 14.60057,2.2265 54.62161,6.7109 59.88867,6.7109 1.15434,0 -0.15033,7.208 -4.32421,23.8867 l -5.97852,23.8848 -12.86133,0.7676 c -39.56548,2.3611 -50.90545,4.4345 -61.69922,11.2812 -7.89453,5.0077 -13.54239,15.6378 -12.91406,24.3067 l 0.41797,5.7558 68,16.5371 c 76.52823,18.6107 66.63831,17.5952 87.11328,8.9493 11.2164,-4.7363 12.7777,-4.0423 11.62695,5.1679 l -0.89648,7.17 9.07812,3.414 c 28.75291,10.8127 34.42949,12.7205 35.24415,11.8457 3.93764,-4.2284 25.12034,-56.4157 25.15234,-61.9668 0.0194,-3.3643 1.47422,-3.0279 17.14453,3.9668 l 14.11328,6.3008 -5.62109,1.1113 c -3.3046,0.6535 -5.62305,1.8585 -5.62305,2.9239 0,0.9968 -0.33168,2.6806 -0.73828,3.7402 -0.5202,1.3556 3.13306,4.1515 12.33203,9.4394 7.18997,4.133 13.90869,8.0545 14.92969,8.7129 1.4632,0.9438 -0.30169,4.3387 -8.33399,16.0352 -5.60417,8.161 -10.18945,15.3286 -10.18945,15.9297 0,0.601 1.18567,2.167 2.63477,3.4785 2.55217,2.3097 3.17948,2.1417 19.96102,-5.3242 12.774,-5.6832 17.7727,-7.3343 19.0312,-6.2871 0.9387,0.7812 5.9077,6.5641 11.041,12.8515 5.1334,6.2874 10.1211,11.4434 11.086,11.4434 0.9649,0.01 2.9155,-0.61 4.3339,-1.3692 2.3378,-1.2511 2.5801,-2.932 2.5801,-17.9765 v -16.5977 l 20.6211,0.8516 20.6211,0.8496 1.416,-3.7246 c 0.7789,-2.0488 1.2488,-3.8514 1.0449,-4.0059 -0.2038,-0.1546 -7.5713,-5.2533 -16.371,-11.33 -8.8,-6.077 -16.5188,-11.5177 -17.1543,-12.0899 -0.6354,-0.5721 2.7828,-8.787 7.5976,-18.2559 l 8.7559,-17.2167 -2.8047,-2.8028 -2.8028,-2.8027 -15.7753,7.9082 c -8.6765,4.3493 -16.3878,7.9062 -17.1368,7.9062 -0.749,0 -4.5079,-6.3272 -8.3535,-14.0605 -6.5362,-13.1436 -7.2089,-14.0052 -10.3125,-13.2266 -1.826,0.4581 -3.6597,1.3848 -4.0761,2.0586 -0.4164,0.6738 -2.4887,8.4252 -4.6036,17.2266 -2.1148,8.8014 -4.4797,16.0095 -5.2558,16.0195 -0.7761,0.01 -12.30428,-4.8653 -25.61725,-10.8301 l -24.20508,-10.8457 -0.96289,-17.9902 c -0.52996,-9.8947 -0.43788,-23.4707 0.20508,-30.1699 l 1.16992,-12.1817 15.33203,-0.9121 c 50.91559,-3.0349 134.42539,-12.7221 164.79889,-19.1152 2.4035,-0.5059 3.3272,0.7738 6.5351,9.0527 5.1279,13.2336 10.5556,23.9628 27.6075,54.5703 25.8487,46.398 32.3499,65.4361 31.3242,91.7383 -0.7637,19.5851 -4.7073,33.3326 -16.2578,56.666 -11.7665,23.77 -23,38.8536 -47.9864,64.4317 -34.9993,35.8284 -64.128,60.12 -103.3535,86.1894 -13.5666,9.0165 -31.2673,20.1461 -39.334,24.7325 -17.00387,9.6674 -21.04031,12.7631 -42.66602,32.7089 -28.82267,26.5842 -44.58424,38.5353 -63.10156,47.8477 -13.13921,6.6077 -54.85927,44.8111 -59.29102,54.293 -1.36405,2.9184 -2.27539,8.125 -2.27539,13 v 8.1308 h 77.33399 77.33398 v -7.2949 c 0,-4.9425 1.103,-9.78 3.42187,-15 5.1802,-11.6609 5.5285,-18.3596 1.35743,-26.1094 -4.1577,-7.7252 -4.36899,-14.1799 -0.71289,-21.7324 3.19857,-6.6076 12.06626,-15.1825 19.75981,-19.1074 6.5376,-3.3353 19.1577,-6.7559 24.9277,-6.7559 4.1846,0 4.1939,0.02 4.9922,8.5684 1.6283,17.4376 7.7582,25.5376 21.1524,27.9609 4.8334,0.8744 5.0232,0.7387 14.3144,-10.2949 15.2571,-18.118 22.1463,-31.2905 26.0117,-49.7305 1.4968,-7.1409 3.1336,-10.0861 11.2871,-20.3105 21.3003,-26.7102 49.5134,-49.4915 80.5879,-65.0762 8.0646,-4.0445 17.0796,-8.8802 20.0352,-10.7461 2.9555,-1.8657 20.1243,-10.9986 38.1523,-20.2949 36.6518,-18.8994 45.8441,-24.6646 55.0645,-34.5352 9.7315,-10.4178 10.565,-14.4866 7.0019,-34.207 -6.8397,-37.8559 3.2052,-79.7823 29.1426,-121.6328 6.4693,-10.4382 28.0953,-41.2099 31.5215,-44.8516 0.5952,-0.6327 5.6356,2.8218 11.2012,7.6758 19.715,17.194 54.0707,41.6878 83.4472,59.4961 30.4784,18.4761 48.7355,44.3126 59.3457,83.9785 3.031,11.3316 3.86,17.6856 4.3496,33.334 1.0285,32.8781 -3.4916,84.1493 -9.9238,112.5606 -2.3216,10.254 -11.2113,26.7623 -25.4707,47.2968 -18.4206,26.5263 -40.0125,49.2068 -65.8125,69.1289 -25.9149,20.0113 -38.4883,36.5737 -38.4883,50.6993 v 6.9804 h 69.334 69.3321 v -7.2441 c 0,-5.8356 0.8334,-8.5834 4.2792,-14.127 3.3211,-5.3425 4.3885,-8.7174 4.7735,-15.0879 0.4521,-7.4819 0.1058,-8.7894 -3.916,-14.8086 -5.572,-8.3396 -5.5792,-13.8675 -0.035,-25.1289 4.3784,-8.894 17.2983,-24.2489 21.5352,-25.5937 1.58,-0.5015 4.4838,0.4654 7.625,2.539 6.2297,4.1123 15.4489,7.4512 20.5722,7.4512 4.4394,0 9.1661,-4.1311 9.1661,-8.0117 0,-1.4735 2.5081,-8.5228 5.5722,-15.666 6.731,-15.6916 8.0568,-28.4659 4.5235,-43.5449 -4.0996,-17.4954 -5.4322,-40.3436 -3.6875,-63.2188 2.828,-37.0785 12.1323,-85.1024 20.58,-106.2246 19.6465,-49.1224 27.4723,-86.8796 23.2149,-112 -1.0129,-5.9773 -2.1644,-7.662 -11.1348,-16.293 -12.2132,-11.7512 -21.0549,-17.7206 -32.2656,-21.7832 -21.319,-7.7258 -32.7878,-24.617 -29.3731,-43.2578 1.6634,-9.0808 9.9139,-25.4256 22.3496,-44.2734 33.103,-50.1707 41.7086,-70.0299 43.6915,-100.8457 1.0085,-15.6723 -0.3444,-23.6275 -8.7618,-51.5215 -2.9832,-9.8858 -5.799,-21.1695 -6.2578,-25.0742 -0.9599,-8.1666 -3.1403,-7.8125 17.5489,-2.8477 38.8927,9.3332 68.4072,29.5497 85.4921,58.5625 10.2273,17.3674 11.7433,22.553 11.6993,40 -0.06,23.4246 -5.059,38.8256 -28.5528,87.9688 -23.025,48.1624 -28.5988,65.9267 -28.4609,90.6972 0.1475,26.471 8.4359,46.1983 29.6406,70.543 l 7.4414,8.543 2.9297,-14.6074 c 3.155,-15.7234 6.4018,-26.0146 10.875,-34.4786 l 2.8184,-5.332 0.08,14 c 0.1941,34.1744 4.5174,72.7069 10.8946,97.0879 10.0789,38.5334 27.6289,69.5612 53.2617,94.1641 25.7245,24.6908 58.6196,42.2237 100.2148,53.416 l 11.6661,3.1386 3.3339,-5.6875 c 1.8332,-3.1282 3.334,-6.1187 3.334,-6.6464 0,-0.5278 -3.4876,-5.1024 -7.75,-10.1661 -19.3658,-23.0064 -33.5992,-46.4248 -40.2754,-66.2675 -3.9447,-11.7238 -4.4519,-14.9893 -5.0215,-32.3731 l -0.6328,-19.334 6.5059,6.0567 c 15.044,14.002 21.6837,17.1482 61.7051,29.2402 21.6203,6.5321 27.442,7.8574 28.3847,6.4609 0.6523,-0.9662 2.3458,-3.9479 3.7618,-6.625 l 2.5742,-4.8671 -6.293,-5.7051 c -20.0176,-18.1519 -38.6538,-42.1608 -49.0781,-63.2266 -11.3483,-22.9328 -13.0852,-31.0724 -13.086,-61.334 -6e-4,-30.7547 2.1361,-42.2856 16.6719,-90 22.1937,-72.8518 24.4076,-83.5842 24.4766,-118.666 0.071,-35.8129 -5.5686,-62.529 -19.3789,-91.8066 -26.0225,-55.1677 -74.633,-94.32453 -136.5957,-110.03127 -23.2786,-5.9008 -37.4413,-7.69642 -66.6504,-8.44727 -30.0157,-0.77159 -48.3265,0.45668 -77.4375,5.19141 l -17.4492,2.83789 -11.8829,-9.67383 c -26.7753,-21.79858 -70.6729,-48.49439 -118.5488,-72.09375 -31.6716,-15.61197 -51.3321,-23.69313 -72,-29.5957 -9.8612,-2.81626 -13.0847,-3.03543 -42.6679,-2.89844 -17.9756,0.0832 -42.81,1.13026 -56.6661,2.38867 -48.4931,4.40415 -68.9756,5.95932 -90.1035,6.84571 l -21.4375,0.90039 -8.1562,-20.47461 c -25.2322,-63.33389 -33.4657,-91.63748 -35.6309,-122.47656 -1.402,-19.96932 2.9566,-60.28768 8.1797,-75.67188 1.1272,-3.32008 10.5863,-23.23431 21.0215,-44.25391 19.1455,-38.56494 27.4356,-59.58695 32.4297,-82.22656 3.3253,-15.07448 3.2698,-50.57295 -0.1016,-65.17969 -5.4416,-23.57627 -19.1386,-51.7506 -39.0273,-80.27734 -16.8645,-24.18857 -20.0239,-36.90898 -18.6485,-75.05664 1.0033,-27.82635 2.4182,-38.64616 6.8028,-52 10.503,-31.98815 10.4555,-60.71057 -0.1348,-81.60938 -4.5888,-9.0555 -17.6234,-21.82211 -28.3066,-27.724605 -7.79,-4.303879 -8.6951,-5.287242 -11.6504,-12.660156 -3.8804,-9.680749 -6.7535,-13.72359 -12.5606,-17.675781 -6.767,-4.605549 -15.7067,-6.261235 -24.3535,-5.25586 z M 404.7573,690.59175 c 1.05123,-0.0508 2.55456,0.65265 4.86914,1.4375 8.75882,2.97004 21.03047,15.56228 26.73828,27.4375 7.83763,16.30635 12.33032,37.7524 14.30078,68.25195 l 0.86133,13.33204 -39.66406,14.66796 c -21.81518,8.06666 -40.26073,14.89777 -40.99023,15.17969 -2.35025,0.90829 0.0286,-30.24625 3.65234,-47.84375 1.88741,-9.16547 3.43164,-17.11498 3.43164,-17.66406 0,-0.54908 1.99018,-3.24984 4.42383,-6.00195 2.43367,-2.7521 5.69513,-7.11189 7.24805,-9.68946 4.15629,-6.89871 9.1695,-25.48643 10.96875,-40.66601 1.72686,-14.5689 1.84744,-18.3296 4.16015,-18.44141 z m 461.64258,6.61328 2.07422,3.25781 c 1.14142,1.79103 4.35883,5.59133 7.14844,8.44727 l 5.07226,5.19336 10.10156,-0.85352 c 9.39084,-0.79381 57.18202,-7.92147 64.33985,-9.5957 3.10327,-0.72588 3.1609,-0.585 2.3164,5.78125 -1.38874,10.46883 -4.47061,20.91929 -10.34179,35.06641 -3.01672,7.26902 -6.16049,13.18458 -6.98633,13.14648 -3.00043,-0.13883 -17.96041,-6.2192 -24.31836,-9.88476 -7.93646,-4.57564 -16.41506,-11.13198 -24.86524,-19.22657 l -6.34765,-6.08007 -15.04688,15.0039 -15.04687,15.00586 -11.8086,-5.5332 -11.80859,-5.53321 9.39844,-8.49414 c 6.6744,-6.0315 11.82042,-12.43388 17.75781,-22.0957 z M 831.603,1241.7187 h 9.64063 c 5.30318,0 14.23311,0.387 19.84375,0.8613 l 10.20117,0.8633 v 10.5 c 0,10.3988 -0.0511,10.5576 -5.33594,16.291 -6.2599,6.7913 -16.80945,11.9025 -30.51367,14.7852 -12.78359,2.6892 -15.15913,2.6403 -14.36914,-0.3008 0.34471,-1.2834 2.8559,-11.4847 5.58008,-22.668 z"
       transform="translate(-182.30027,-63.175735)" />
    <g
       id="layer9"
       inkscape:label="Horse"
       style="display:inline">
      <path
         id="path347"
         style="display:inline;fill:#666666;stroke-width:1.33333"
         d="m 359.86277,1435.5078 c -0.15013,0 -0.26036,0.018 -0.32617,0.059 -0.77597,0.4796 -1.3638,1.9088 -1.30664,3.1777 0.0927,2.056 -0.69744,10.4027 -2.30078,24.3066 -0.29597,2.5667 -0.89495,7.9667 -1.33008,12 -0.43514,4.0333 -1.01606,9.1716 -1.29102,11.418 -3.49565,28.5598 -3.44281,29.8729 1.31446,32.7168 6.3599,3.8018 30.55034,15.8637 31.81836,15.8652 0.63427,6e-4 0.75033,-8.5344 0.25976,-19 -0.48985,-10.45 -1.1446,-22.2987 -1.45508,-26.332 -1.00308,-13.031 -2.02434,-24.5265 -2.72461,-30.668 -1.52173,-13.346 -1.74848,-14.9527 -2.14843,-15.1699 -6.96552,-3.7838 -18.25775,-8.3529 -20.50977,-8.373 z m 31.86133,268.5175 -3.88477,3.1758 c -6.03875,4.9401 -19.3901,18.5626 -24.55078,25.0489 -2.56667,3.2258 -6.30754,7.7258 -8.3125,10 -2.00495,2.274 -3.65429,4.4479 -3.66601,4.83 -0.012,0.3823 27.36323,0.6816 60.83203,0.666 l 60.85156,-0.027 1.78516,-6.666 v 0 c 3.61715,-13.5069 3.64353,-15.1668 0.25195,-15.9961 -12.9144,-3.1581 -24.73317,-6.1451 -26.4082,-6.6738 -1.1,-0.347 -8.00067,-2.1519 -15.33399,-4.0117 -13.49654,-3.4231 -16.12633,-4.1123 -20.33203,-5.3223 -1.28333,-0.3693 -6.58613,-1.6511 -11.7832,-2.8476 z m 496.19531,4.7579 c -2.4358,0.02 -3.56157,1.109 -6.16211,3.5976 -2.45714,2.3515 -7.10683,6.4651 -10.33203,9.1406 -3.22522,2.6755 -6.53747,5.4639 -7.35938,6.1973 -11.26782,10.0537 -15.16494,13.7468 -17.21679,16.3106 l -2.44141,3.0488 61,-0.3457 61,-0.3477 3.13867,-5.9355 c 3.8035,-7.1932 4.59289,-13.5915 1.74219,-14.1172 -1.1,-0.203 -4.09932,-0.7447 -6.66601,-1.2051 -2.5667,-0.4604 -5.66974,-1.1405 -6.89454,-1.5117 -2.22417,-0.6741 -3.16273,-0.8851 -14.43945,-3.2305 -3.3,-0.6864 -7.49869,-1.5864 -9.33203,-2 -1.83333,-0.4136 -6.03399,-1.3136 -9.33398,-2 -3.3,-0.6864 -7.50066,-1.5864 -9.33399,-2 -1.83334,-0.4136 -6.03203,-1.3136 -9.33203,-2 -3.3,-0.6864 -7.20131,-1.5268 -8.66797,-1.8691 -4.78866,-1.1174 -7.47463,-1.7484 -9.36914,-1.7324 z m 547.50589,9.9863 -9.0684,7.623 c -4.9873,4.1929 -10.5557,9.5073 -12.373,11.8086 -1.8172,2.3013 -4.0672,4.9762 -5,5.9453 -0.9327,0.9691 -1.6953,2.3732 -1.6953,3.1192 0,0.9105 16.9822,1.0817 51.6679,0.5215 l 51.666,-0.836 2.9961,-3.6152 c 3.1447,-3.7963 7.5508,-12.1934 6.7852,-12.9316 -0.538,-0.5189 -7.3209,-1.6048 -16.5527,-2.6504 -3.7242,-0.4217 -8.1438,-1.0308 -9.8204,-1.3536 -1.6767,-0.323 -6.4302,-0.9786 -10.5625,-1.455 -4.1324,-0.4764 -8.6324,-1.0752 -10,-1.3321 -1.3677,-0.2569 -5.8677,-0.8575 -10,-1.3339 -4.1324,-0.4764 -8.7131,-1.0945 -10.1796,-1.3731 -1.4667,-0.2788 -6.0864,-0.8739 -10.2657,-1.3223 z"
         transform="translate(-182.30027,-63.175735)" />
      <path
         style="display:inline;fill:#ff7f2a;stroke-width:1.33333"
         d="m 749.28906,690.7693 c 2.2,-0.761 5.2,-3.2184 6.66666,-5.46088 1.46667,-2.24248 4.22014,-5.01764 6.11883,-6.167 6.98873,-4.23061 13.16988,-8.79241 13.67141,-10.08976 0.7,-1.81067 -6.374,-23.67465 -10.47309,-32.36979 -1.82443,-3.87004 -3.32177,-7.47004 -3.32743,-8 -0.012,-1.14025 -11.38273,-23.68573 -16.30909,-32.3376 -5.51355,-9.68309 -22.06035,-33.85914 -27.01396,-39.46933 -0.73333,-0.83053 -3.39777,-4.13053 -5.92097,-7.33333 -5.15043,-6.53766 -35.46256,-37.0122 -42.93147,-43.16151 -15.90843,-13.09773 -23.45083,-18.56199 -42.48089,-30.77616 -9.02628,-5.79339 -16.7643,-10.05672 -26.66667,-14.69224 -9.71475,-4.54768 -11.11583,-5.16225 -19.12139,-8.38741 -5.53177,-2.22856 -19.82788,-6.9986 -22.59809,-7.54011 -1.31239,-0.25652 -6.71239,-1.62684 -12,-3.04515 -5.28761,-1.4183 -11.71385,-2.95048 -14.28052,-3.40484 -2.56667,-0.45434 -6.16667,-1.1228 -8,-1.48544 -1.83333,-0.36264 -6.03333,-1.02686 -9.33333,-1.47605 -3.3,-0.4492 -7.08415,-1.02232 -8.40923,-1.2736 -21.9264,-4.15815 -89.02328,-2.47047 -107.59077,2.70623 -1.1,0.30668 -4.32002,0.90042 -7.15559,1.31944 -2.83557,0.419 -5.54825,1.0045 -6.02817,1.30112 -0.47992,0.2966 -3.53966,0.93708 -6.79942,1.42326 -3.25976,0.48619 -7.14708,1.53704 -8.63849,2.33522 -1.49141,0.79818 -2.86436,1.33909 -3.051,1.20204 -1.52299,-1.11848 -29.98365,8.50045 -49.66067,16.78396 -8.02394,3.37786 -36.352,17.61068 -43.33333,21.77189 -3.66667,2.18551 -7.96968,4.63409 -9.56224,5.44129 -2.53273,1.28375 -2.70776,1.90628 -1.39669,4.96788 0.82438,1.92512 1.62866,3.7015 1.78729,3.9475 0.15863,0.24601 2.58713,-0.56518 5.39669,-1.8026 2.80955,-1.23744 6.30828,-2.72755 7.77495,-3.31134 1.46667,-0.58378 4.85735,-2.02261 7.53484,-3.19738 2.67749,-1.17478 5.70749,-2.13595 6.73333,-2.13595 1.02584,0 2.43516,-0.52575 3.13183,-1.16832 1.11607,-1.02941 16.67825,-6.52885 20.98317,-7.41513 3.63462,-0.74828 9.93003,-2.47711 15.02831,-4.12703 2.97631,-0.9632 8.06364,-2.14684 11.30516,-2.63031 3.24153,-0.48346 6.28635,-1.12172 6.76627,-1.41832 0.47992,-0.29661 3.1926,-0.88669 6.02817,-1.3113 2.83557,-0.42462 7.25559,-1.28964 9.82225,-1.9223 17.17032,-4.23228 80.53712,-4.75025 99.49771,-0.81332 1.55707,0.32331 4.85707,0.92958 7.33333,1.34724 8.26274,1.3937 12.45932,2.24039 17.83563,3.59852 6.13631,1.55011 25.91873,8.20067 36.66667,12.32679 9.43308,3.62135 42.51822,20.31917 45.36476,22.89525 1.1982,1.08436 2.61422,1.97156 3.14672,1.97156 1.03417,0 16.47633,10.2396 18.99181,12.59336 0.82681,0.77366 2.83277,2.30664 4.45769,3.40664 1.62492,1.1 4.03076,2.9 5.34631,4 1.31555,1.1 4.66519,3.8 7.44363,6 12.47237,9.87575 37.99285,34.7343 51.33141,50 3.52416,4.03334 7.71536,8.83334 9.31379,10.66667 1.59842,1.83333 4.48478,5.43333 6.41413,8 1.92935,2.56667 3.83931,4.96667 4.24436,5.33333 0.83567,0.7565 11.69129,15.19567 14.659,19.4981 9.11089,13.20846 21.28639,31.49861 21.28639,31.9766 0,0.32428 2.16532,3.72513 4.81181,7.55745 2.64651,3.83232 5.35288,8.16785 6.01419,9.63452 0.6613,1.46667 2.7087,5.06667 4.54976,8 1.84105,2.93333 3.70573,6.10121 4.1437,7.03973 0.79559,1.70482 2.26634,1.51928 10.48054,-1.32209 z"
         transform="translate(-182.30027,-63.175735)"
         id="path407" />
      <path
         id="path353"
         style="display:inline;fill:#aa4400;stroke-width:1.33333"
         d="m 198.95261,462.20113 c -1.52696,0.77618 0.18475,27.39331 2.33008,34.84961 1.26597,4.39998 3.16953,11.00131 4.23047,14.66796 1.06095,3.66666 2.27115,7.86537 2.6875,9.33204 0.41635,1.46665 0.56668,4.46798 0.33594,6.66796 -0.23075,2.2 -0.44774,11.49938 -0.48242,20.66602 -0.0691,18.25922 1.00181,25.0409 3.62304,22.94922 0.88646,-0.70736 4.61264,-2.22461 8.2793,-3.37305 9.98404,-3.12712 22.15915,-7.48458 26.66602,-9.54297 2.19998,-1.00478 5.8,-2.27502 8,-2.82226 4.78938,-1.19132 15.33398,-5.74716 15.33398,-6.625 0,-0.34231 -0.52998,-1.66412 -1.17773,-2.9375 -1.10211,-2.16651 -2.22716,-4.82476 -5.49024,-12.98242 -0.73334,-1.83333 -1.9327,-4.83268 -2.66601,-6.66602 -0.73333,-1.83333 -2.01425,-4.98333 -2.84571,-7 -0.83144,-2.01666 -2.10149,-5.16666 -2.82226,-7 -0.72078,-1.83333 -1.84053,-4.37505 -2.48828,-5.64844 -0.64777,-1.27339 -1.17774,-2.94773 -1.17774,-3.7207 0,-2.15228 -5.23486,-9.12399 -13.2207,-17.60742 -5.83292,-6.19636 -10.18893,-9.11894 -22.66602,-15.20703 -8.49521,-4.14519 -15.82605,-7.74142 -16.29101,-7.99219 -0.0561,-0.0303 -0.10895,-0.0328 -0.15821,-0.008 z m 218.40625,9.39453 c -17.88914,9e-5 -35.45979,0.92013 -44.68359,2.75781 -1.80397,0.35941 -5.70333,0.99329 -8.66602,1.41016 -2.96268,0.41688 -8.98673,1.63576 -13.38671,2.70898 -4.4,1.07321 -9.50066,2.27916 -11.33399,2.67773 -1.83334,0.39857 -3.9327,0.8944 -4.66601,1.10352 -0.73333,0.20912 -3.13399,0.86144 -5.33399,1.44922 -4.85872,1.29814 -34.54848,11.12684 -39.27539,13.00195 -1.86507,0.73985 -4.89128,1.94442 -6.72461,2.67578 -1.83334,0.73136 -4.92461,2.15535 -6.87109,3.16602 -1.94648,1.01067 -4.49778,1.83789 -5.66797,1.83789 -1.17018,0 -2.12695,0.29191 -2.12695,0.64844 0,0.70632 16.05648,41.16246 16.53125,41.65234 1.17341,1.21078 14.88652,1.87496 46.9707,2.27734 20.44042,0.25636 38.66472,0.75233 40.49805,1.10157 1.83331,0.34925 6.52896,1.05993 10.43554,1.58008 9.24692,1.23115 31.05102,6.777 37.31836,9.49218 40.58412,17.58219 59.59594,41.00952 67.5625,83.24805 3.21629,17.05274 3.25054,56.5077 0.0645,76.11328 -0.2879,1.77168 -0.86893,5.92072 -1.28907,9.2207 -0.42013,3.3 -1.01754,7.29524 -1.32812,8.87891 -0.31057,1.58366 -1.03061,5.78433 -1.59961,9.33398 -0.569,3.54967 -1.09852,6.75248 -1.17774,7.11915 -0.0792,0.36665 -0.62952,3.36798 -1.22265,6.66796 -0.59314,3.3 -1.31382,7.19936 -1.60156,8.66602 -0.28777,1.46667 -0.81056,4.16667 -1.16211,6 -1.06521,5.55518 -1.70551,8.49044 -2.69727,12.375 -1.03266,4.0447 -1.41074,4.06653 9.36328,-0.50391 3.53916,-1.50133 13.616,-5.04676 18.9336,-6.66211 2.34616,-0.71269 5.94619,-2.17286 7.99999,-3.24414 2.05383,-1.07128 4.66412,-1.95251 5.80079,-1.95703 1.13667,-0.004 2.63537,-0.55163 3.33203,-1.21679 0.69667,-0.66519 3.36692,-1.8293 5.93359,-2.58594 6.65635,-1.96226 16.21447,-5.38674 19.33399,-6.92774 1.46665,-0.72452 4.46601,-1.86387 6.66601,-2.53125 2.2,-0.66736 7.30066,-2.50622 11.33399,-4.08593 4.03331,-1.57974 9.43333,-3.48685 12,-4.23829 2.56665,-0.75142 5.26667,-1.84101 6,-2.42187 0.73331,-0.58085 3.43333,-1.67044 6,-2.42188 2.56665,-0.75142 7.96667,-2.66121 12,-4.24414 4.03331,-1.58292 9.43333,-3.4927 12,-4.24414 2.56665,-0.75144 5.26667,-1.84299 6,-2.42382 0.73331,-0.58085 3.43333,-1.67044 6,-2.42188 2.56665,-0.75144 7.96667,-2.6612 12,-4.24414 4.03331,-1.58293 9.43333,-3.4927 12,-4.24414 2.56665,-0.75144 5.26667,-1.84103 6,-2.42188 0.73331,-0.58086 3.43333,-1.67043 6,-2.42187 2.56665,-0.75144 7.96667,-2.66318 12,-4.24609 4.03331,-1.58293 9.43333,-3.49271 12,-4.24415 2.56665,-0.75142 5.26667,-1.84101 6,-2.42187 0.73331,-0.58085 3.43333,-1.67044 6,-2.42188 2.56665,-0.75142 7.96667,-2.65855 12,-4.23828 4.03331,-1.57973 9.03654,-3.40075 11.11914,-4.04687 6.37655,-1.97831 11.54687,-4.55173 11.54687,-5.7461 0,-0.62446 -1.10188,-2.72731 -2.44922,-4.67382 -1.34734,-1.94654 -2.85357,-4.43907 -3.34765,-5.53907 -0.49407,-1.1 -2.08464,-3.8 -3.53516,-6 -1.45052,-2.19998 -3.04449,-4.9 -3.54102,-6 -0.49653,-1.1 -2.51374,-4.40064 -4.48242,-7.33398 -1.96866,-2.93333 -6.16206,-9.41824 -9.31836,-14.41016 -3.1563,-4.99189 -7.29599,-11.07378 -9.19922,-13.51562 -1.90319,-2.44184 -4.35898,-5.77574 -5.45898,-7.4082 -1.8823,-2.79348 -7.46888,-10.20482 -11.05664,-14.66993 -0.88582,-1.10242 -3.70171,-4.70242 -6.25781,-8 -2.55612,-3.29756 -5.25612,-6.66743 -6,-7.48828 -0.74388,-0.82085 -4.03071,-4.72021 -7.30274,-8.66601 -6.16865,-7.43894 -36.45066,-37.99352 -43.45117,-43.8418 -2.19455,-1.83331 -6.10412,-5.134 -8.68945,-7.33398 -2.58535,-2.2 -6.38965,-5.19935 -8.45313,-6.66602 -2.06347,-1.46666 -4.44904,-3.32296 -5.30078,-4.125 -1.38785,-1.30688 -3.59587,-2.8367 -15.48828,-10.72461 -1.83333,-1.216 -4.83464,-3.22366 -6.66797,-4.46289 -9.23434,-6.24184 -31.522,-17.53878 -47.33203,-23.99023 -13.26618,-5.41341 -16.92343,-6.75698 -21.45508,-7.88672 -2.86718,-0.71478 -9.11225,-2.29187 -13.8789,-3.50391 -4.76667,-1.21205 -9.26669,-2.35559 -10,-2.54102 -1.51143,-0.38216 -8.70761,-1.756 -14.66602,-2.79882 -10.49938,-1.83759 -28.7085,-2.75595 -46.59766,-2.75586 z m -204.13671,8.05664 c 0.77805,-0.0467 1.21906,0.4806 1.66406,1.67578 0.87781,2.35763 5.138,8.87659 7.73633,11.83789 0.73332,0.83578 3.7418,4.1518 6.68554,7.36914 5.70392,6.23405 9.98047,12.3433 9.98047,14.25586 0,0.64142 -1.35271,1.78299 -3.00781,2.53711 -2.65072,1.20775 -3.37526,0.79586 -6.08008,-3.45313 -1.68888,-2.65307 -6.06183,-8.02763 -9.7168,-11.94336 -7.84502,-8.40474 -13.6099,-17.12919 -12.50195,-18.92187 0.43392,-0.7021 1.96368,-1.90687 3.40039,-2.67578 0.7835,-0.41932 1.37301,-0.65362 1.83985,-0.68164 z m 120.61328,76.94336 c -2.6836,0.0974 -3.6526,0.41186 -3.31446,0.95898 0.50865,0.82302 1.78702,1.49609 2.83985,1.4961 2.57031,0 23.72507,11.04321 29.76758,15.53906 9.81823,7.30513 23.52574,22.74389 28.43945,32.03125 9.48842,17.93396 13.5459,34.49767 13.30078,54.29297 -0.13797,11.14265 1.1593,15.4707 4.63672,15.4707 1.16754,0 5.90463,1.86193 10.52539,4.13672 8.21027,4.0419 18.40474,13.36346 23.91016,21.86328 7.67541,11.85012 15.04553,31.61889 17.46484,46.8418 0.42212,2.6561 1.02407,6.10308 1.33594,7.66015 0.87864,4.38692 2.2382,19.0874 3.02734,32.72071 0.22343,3.85982 1.11864,3.29674 1.99023,-1.25196 0.34815,-1.81681 1.56365,-7.8047 2.70118,-13.30468 1.13755,-5.5 2.3998,-12.09935 2.80468,-14.66602 0.40487,-2.56666 1.03595,-6.16666 1.40235,-8 1.3861,-6.93539 1.93204,-10.05163 2.67578,-15.2793 0.42151,-2.96267 0.9927,-6.88736 1.26953,-8.7207 0.62643,-4.1486 1.8348,-14.55405 2.70898,-23.33398 0.84045,-8.44119 0.94237,-44.41001 0.13672,-48.13086 -0.33316,-1.53866 -1.00482,-5.95037 -1.49414,-9.80469 -1.32624,-10.44669 -8.93657,-31.85409 -14.26172,-40.1211 -4.33794,-6.73445 -13.82722,-16.86609 -22.83007,-24.375 -3.5466,-2.95804 -18.46981,-10.96294 -24.25,-13.00781 -10.41831,-3.6857 -15.89394,-5.28864 -24.59961,-7.19922 -9.28844,-2.03844 -12.04484,-2.49694 -24.06641,-4.0039 -2.56666,-0.32174 -12.69831,-0.98172 -22.51367,-1.4668 -6.52502,-0.32246 -10.92383,-0.44315 -13.60742,-0.3457 z m -67.61133,148.125 c -0.30186,-0.0205 -0.74569,0.16062 -1.33594,0.41797 -6.87521,2.99751 -16.73626,5.94699 -20.87109,6.24218 -3.96906,0.28335 -4.72235,0.83632 -4.72461,3.46485 -0.007,8.50159 -9.37786,15.26814 -21.38672,15.44336 l -6.5625,0.0957 0.57226,4.66602 c 0.31518,2.56664 0.92805,8.26798 1.36133,12.66796 0.43326,4.4 1.06376,10.54935 1.40039,13.66602 0.33661,3.11667 0.888,8.21734 1.22461,11.33398 0.33663,3.11667 0.94209,8.96669 1.34571,13 0.40361,4.03334 0.98549,9.43336 1.29492,12 0.30944,2.56667 0.94376,7.96669 1.4082,12 0.46446,4.03334 1.08256,8.83269 1.375,10.66602 0.29243,1.83333 0.83128,5.73268 1.19727,8.66602 0.77353,6.19975 2.06623,14.45388 2.89843,18.5039 0.31994,1.55707 0.90662,4.92943 1.30274,7.4961 0.39612,2.56664 1.01047,5.66978 1.36523,6.89453 0.35475,1.22476 0.87567,3.32411 1.15625,4.66601 0.46161,2.20779 5.67475,23.21816 6.56055,26.43946 3.01695,10.97145 4.02054,12.80469 10.14062,18.52929 6.94638,6.49755 15.7287,11.02329 23.87891,12.30469 2.63857,0.41484 4.97894,0.92914 5.20117,1.14258 0.45809,0.44004 11.88199,-0.40123 14.92969,-1.09961 10.61864,-2.43328 10.54101,-2.2813 6.75781,-13.27735 -1.41651,-4.11714 -2.91052,-9.46068 -3.31836,-11.875 -0.40782,-2.4143 -1.10427,-6.19062 -1.54882,-8.39062 -2.82037,-13.95694 0.16199,-31.07754 6.42968,-36.90625 2.08003,-1.93433 3.89163,-5.7389 4.83594,-10.1582 2.08064,-9.73726 2.0181,-9.93274 -2.42187,-7.63672 -4.49373,2.3238 -9.13541,8.0182 -14.43165,17.70312 -3.54803,6.48811 -3.80426,6.66851 -7.3457,5.19336 l -3.66797,-1.52929 3.93555,-8 c 2.16527,-4.4 6.05143,-10.22369 8.63477,-12.94336 4.80408,-5.05764 13.74288,-10.38868 17.41992,-10.38868 1.32614,0 2.0884,-1.29962 2.15429,-3.66796 0.0561,-2.01667 0.32863,-4.86538 0.60547,-6.33204 2.40549,-12.74416 5.0695,-47.33658 3.64453,-47.32617 -3.98461,0.0291 -11.37041,3.32888 -14.55078,6.5 -4.4491,4.43617 -14.66996,8.16137 -22.37109,8.1543 -6.8878,-0.007 -13.71114,-4.10877 -16.03711,-9.64063 -2.37123,-5.63948 -1.67437,-19.84062 1.71875,-35.02148 1.47519,-6.59998 3.0174,-14.09936 3.42773,-16.66602 0.41034,-2.56665 1.0632,-6.16667 1.44922,-8 1.4868,-7.06121 1.85284,-8.93657 0.94727,-8.99804 z m 476.4375,5 c -2.05469,0.10311 -4.16511,0.77659 -6.43946,1.96289 -2.0538,1.07128 -5.65382,2.51933 -8,3.21875 -2.34615,0.69886 -7.56629,2.56551 -11.5996,4.14844 -4.03333,1.58291 -9.25346,3.45099 -11.59961,4.15039 -2.34618,0.69939 -5.9462,2.14747 -8,3.21875 -2.05383,1.07126 -4.46368,1.95251 -5.35547,1.95703 -0.89179,0.004 -3.59179,0.86712 -6,1.91601 -2.40821,1.0489 -7.97891,3.23797 -12.37891,4.86524 -4.39998,1.62727 -9.89034,3.76926 -12.20117,4.75976 -2.31083,0.9905 -4.84015,1.80078 -5.62109,1.80078 -0.78096,0 -3.39062,0.85735 -5.79883,1.90625 -2.40821,1.04889 -7.97891,3.23798 -12.37891,4.86524 -4.39998,1.62727 -9.89034,3.76927 -12.20117,4.75976 -2.31083,0.99051 -4.84015,1.80078 -5.62109,1.80079 -0.78096,0 -3.39062,0.85931 -5.79883,1.9082 -2.40821,1.04889 -7.97891,3.22985 -12.37891,4.8457 -4.39998,1.61585 -9.19936,3.44124 -10.66601,4.05664 -3.96039,1.66173 -14.02195,5.16255 -19.33399,6.72852 -2.56667,0.75664 -5.23692,1.92075 -5.93359,2.58594 -0.69666,0.66516 -2.10502,1.20898 -3.13086,1.20898 -1.02584,0 -3.75558,0.87418 -6.06641,1.94141 -4.76355,2.19998 -13.9576,5.55399 -20.86914,7.61328 -2.56667,0.76475 -5.26667,1.86446 -6,2.44531 -0.73334,0.58086 -3.43334,1.67045 -6,2.42187 -2.56667,0.75144 -7.96667,2.65855 -12,4.23829 -4.03332,1.57971 -9.13203,3.41857 -11.33203,4.08593 -2.2,0.66738 -5.20131,1.76464 -6.66797,2.4375 -2.62652,1.205 -15.14994,5.86185 -19.62695,7.29883 -1.26148,0.40489 -2.63844,2.41287 -3.06055,4.46094 -0.4221,2.04807 -1.65474,7.32266 -2.74023,11.72266 -1.0855,4.39998 -2.17884,9.20131 -2.42969,10.66796 -0.25086,1.46666 -0.81597,4.76537 -1.25586,7.33204 -0.43991,2.56665 -1.14932,7.36798 -1.57617,10.66796 -0.42685,3.3 -0.92259,6.9 -1.10156,8 -0.17896,1.1 -3.71827,8.89871 -7.86329,17.33204 -6.75582,13.74516 -8.91037,19.70632 -11.09179,30.66796 -0.36484,1.83333 -0.95076,4.14237 -1.30078,5.13086 -3.62693,10.24302 -3.60491,59.92119 0.0352,78.86914 1.71333,8.9186 4.41895,21.6874 5.29688,25 4.1435,15.6345 7.69699,27.6532 9.24023,31.252 1.04111,2.4278 3.52786,8.3133 5.52539,13.08 4.5857,10.9426 13.21561,28.5513 17.0293,34.7461 1.6064,2.6093 4.68287,7.7081 6.83789,11.3321 2.15503,3.624 5.15633,8.1635 6.66797,10.0879 1.51164,1.9243 3.94112,5.225 5.39844,7.3339 5.0377,7.2899 24.04508,25.4213 32.01562,30.5391 7.85348,5.0426 30,16.7212 30,15.8203 0,-0.2523 -1.8,-4.388 -4,-9.1914 -2.2,-4.8034 -4,-9.4987 -4,-10.4336 0,-0.935 -0.56815,-2.2702 -1.26367,-2.9668 -1.16008,-1.162 -3.57471,-8.9989 -6.96289,-22.5996 -2.64876,-10.6325 -3.67683,-16.0873 -4.64844,-24.668 -1.59806,-14.1132 -0.57344,-47.2436 1.56836,-50.7089 0.28834,-0.4665 0.88044,-2.8975 1.31445,-5.4024 0.84035,-4.8501 5.10612,-17.8039 8.15235,-24.7559 1.01256,-2.3108 1.83984,-4.7117 1.83984,-5.3359 0,-1.4241 11.74784,-21.38212 15.33399,-26.05077 1.46665,-1.90938 3.85214,-5.18369 5.30078,-7.27539 5.82022,-8.40394 37.18525,-38.24182 44.52343,-42.35547 1.19636,-0.67066 2.47513,-1.61658 2.8418,-2.10156 0.96306,-1.27381 11.13597,-8.01368 12.0957,-8.01367 0.70576,0 3.9043,5.96206 3.9043,7.27734 0,0.26642 -3.74869,2.86764 -8.33203,5.78125 -4.58333,2.91361 -9.63088,6.41831 -11.21484,7.78711 -1.58399,1.36878 -5.26075,4.43569 -8.17188,6.81445 -22.47151,18.36211 -39.72459,41.44721 -52.10937,69.72851 -2.23866,5.1121 -4.38944,12.8006 -7.63477,27.2793 -0.93226,4.1591 -2.49306,20.7556 -2.50781,26.666 -0.0156,6.2604 1.60319,23.8759 2.63476,28.666 0.39481,1.8333 1.06518,5.4333 1.49024,8 0.70548,4.2598 7.1929,24.9298 9.83398,31.334 0.60485,1.4667 3.90596,8.6654 7.33594,15.9961 6.73308,14.3902 6.52258,12.5535 3.98242,34.6699 -1.48694,12.9465 -1.98992,17.9456 -2.74414,27.334 -0.44182,5.5 -1.01126,11.8 -1.26562,14 -2.30117,19.9035 -3.10699,71.9913 -1.48633,96.0059 0.53866,7.9818 0.23419,11.594 -1.1836,14.0371 -4.77861,8.2345 -10.03798,20.3494 -11.3789,26.209 -0.80752,3.5288 -1.77189,7.6153 -2.14258,9.082 -1.26218,4.9937 -1.59953,33.3105 -0.46875,39.332 0.61971,3.3 1.46451,8.1013 1.87891,10.668 0.41442,2.5666 1.32948,6.6265 2.0332,9.0234 0.70372,2.397 1.23021,4.4983 1.16992,4.668 -0.0603,0.1697 0.33603,1.7132 0.88086,3.4297 0.91723,2.8899 -0.25221,7.7636 -6.60937,27.5449 -0.94269,2.9334 -2.46178,8.034 -3.375,11.334 -1.74263,6.2969 -14.07847,43.5979 -16.31446,49.332 -0.71489,1.8333 -1.75998,4.5333 -2.32422,6 -8.85619,23.0205 -31.40035,57.0335 -41.62304,62.7989 -6.52972,3.6825 -22.38458,18.8511 -44.37305,42.4531 -9.52278,10.2216 -22.58111,23.9535 -29.01953,30.5156 -6.43844,6.5622 -11.40797,12.2306 -11.04297,12.5957 0.60331,0.6032 22.04177,6.1001 30.08203,7.7129 1.83333,0.3677 4.23399,1.0119 5.33399,1.4316 1.09998,0.4198 6.5,1.9113 12,3.3145 5.49998,1.4031 10.9,2.8212 12,3.1523 1.09998,0.3312 4.99934,1.47 8.66601,2.5293 3.66666,1.0592 6.80161,1.9794 6.9668,2.045 0.16518,0.065 -0.33727,-1.5322 -1.11719,-3.5489 -2.12534,-5.4956 -2.4124,-19.7758 -0.55273,-27.5019 7.54707,-31.3548 35.22742,-52.8963 68.60546,-53.3906 l 7.23438,-0.1055 0.52539,4.4922 c 0.80947,6.9431 5.60625,13.101 13.37109,17.1621 6.04698,3.1625 7.21226,3.3971 8.30274,1.6777 1.24615,-1.965 0.89686,-26.7977 -0.46875,-33.332 -0.38315,-1.8333 -1.02464,-5.4333 -1.42578,-8 -0.40113,-2.5666 -1.30353,-8.0924 -2.00586,-12.2793 -1.04707,-6.2421 -0.81846,-9.2222 1.27734,-16.5508 1.40579,-4.9158 2.88777,-11.0902 3.29102,-13.7207 0.70518,-4.6 4.82834,-20.5424 12.78906,-49.4492 0.70684,-2.5666 1.53813,-5.7435 1.84766,-7.0586 0.70581,-2.9987 3.18841,-10.7347 5.55273,-17.3047 0.99542,-2.7661 2.42484,-7.7771 3.17773,-11.1367 1.98509,-8.8579 8.91011,-26.239 11.65235,-29.2481 1.29563,-1.4216 3.54558,-4.1511 5,-6.0644 1.45441,-1.9135 5.32868,-7.0142 8.61133,-11.334 20.67643,-27.2102 27.35351,-42.0126 31.20312,-69.1875 0.41553,-2.9333 1.07799,-6.8326 1.47266,-8.666 0.39465,-1.8333 0.99487,-4.8418 1.33398,-6.6856 0.55449,-3.0149 4.4249,-18.2057 7.29883,-28.6484 1.89925,-6.9011 10.87689,-33.1387 12.84375,-37.5352 1.0338,-2.3109 1.88086,-4.8677 1.88086,-5.6835 0,-0.8158 0.52997,-2.5255 1.17773,-3.7989 1.11522,-2.1923 3.20307,-7.0516 5.58008,-12.9824 5.37701,-13.416 6.61217,-15.2763 13.53516,-20.3906 3.98153,-2.9414 9.89043,-8.5569 13.13086,-12.4785 3.24041,-3.9216 8.29659,-9.735 11.23437,-12.918 5.72701,-6.2049 14.31442,-18.0522 23.58594,-32.5352 3.16482,-4.9437 6.09219,-8.9937 6.50391,-9 0.41172,-0.01 2.10487,1.2535 3.76367,2.7989 3.00162,2.7964 3.00469,2.8227 0.4043,5.666 -1.43708,1.5712 -5.36825,7.0581 -8.73633,12.1914 -3.36809,5.1334 -7.10966,10.682 -8.31446,12.332 -1.74,2.383 -1.81438,3.0225 -0.36132,3.1035 1.00611,0.056 2.72812,0.2922 3.82812,0.5254 5.19089,1.1009 15.1389,2.5764 27.33399,4.0528 3.66665,0.4438 8.46601,1.04 10.66601,1.3261 5.61374,0.7298 25.63307,2.2951 31.9082,2.4942 l 5.24219,0.166 15.76953,-62.668 c 15.18731,-60.354 15.73832,-63.035 14.92969,-72.666 -0.46178,-5.5 -1.01862,-15.6993 -1.23633,-22.666 -0.2177,-6.9666 -0.70152,-13.8673 -1.07617,-15.334 -0.37467,-1.4667 -2.54192,-10.1674 -4.81641,-19.334 -2.27447,-9.1667 -4.3988,-17.566 -4.7207,-18.666 -3.1486,-10.759 -8.77925,-35.01854 -9.02344,-38.87695 -0.16973,-2.68199 -0.53963,-4.65073 -0.82031,-4.37695 -0.92373,0.90104 -5.41893,-5.6935 -8.02344,-11.76953 -2.87043,-6.69651 -6.18402,-18.92896 -7.73632,-28.56055 -2.0326,-12.61162 -1.20406,-50.22337 1.40429,-63.75 1.00228,-5.19768 2.31651,-12.65308 2.34375,-13.29688 0.0152,-0.35912 0.62142,-2.61484 1.34766,-5.01171 0.72625,-2.39691 1.52762,-5.25743 1.7793,-6.35743 3.32514,-14.53289 16.82339,-46.10263 28.89257,-67.57421 1.72327,-3.06577 2.84084,-5.84764 2.48438,-6.18165 -0.35646,-0.33402 -7.83048,-4.24574 -16.60938,-8.69335 -11.37716,-5.76397 -16.24686,-7.62578 -16.95312,-6.48438 -0.58928,0.95236 -4.11994,1.59116 -8.71094,1.57813 -14.8378,-0.0423 -33.27142,-11.7366 -45.10351,-28.61329 -8.07273,-11.51445 -13.73437,-16.33864 -19.89844,-16.02929 z m -379.31641,53.23047 -9.30273,0.83984 c -9.90202,0.89477 -19.05247,1.59911 -23.41992,1.80273 -1.81451,0.0845 -2.69113,1.0837 -2.74414,3.125 -0.13525,5.20701 -2.06835,30.28903 -2.51954,32.69532 -0.23759,1.26706 -0.82049,5.68599 -1.29687,9.81836 -0.47639,4.13235 -1.13653,8.90835 -1.46484,10.61328 -0.32835,1.70494 -0.91703,5.24767 -1.3086,7.87304 -0.39158,2.62538 -1.01143,6.24877 -1.3789,8.05274 -0.3675,1.80397 -1.0028,5.28584 -1.41211,7.73633 -0.84627,5.06669 -1.02391,5.06617 12.79101,-0.0527 4.03333,-1.49448 8.30398,-3.20212 9.49024,-3.79492 1.18626,-0.5928 4.58486,-1.73209 7.55273,-2.53125 4.84389,-1.30433 5.47679,-1.962 6.17969,-6.43164 0.43065,-2.73857 0.69407,-8.57852 0.58398,-12.97852 -0.18337,-7.32861 0.72866,-18.44621 2.09375,-25.49804 0.30141,-1.55707 0.88739,-4.85773 1.30078,-7.33399 1.01883,-6.10288 1.88772,-10.27658 2.69532,-12.9414 0.37118,-1.22475 1.00963,-4.20021 1.41796,-6.61133 z m 1016.66211,67.40039 c -17.3165,-0.12394 -39.2265,0.78057 -61.6172,2.74414 -18.2002,1.59608 -22.3223,1.96212 -30.1035,2.66992 -4.5826,0.41685 -10.6389,0.99873 -13.457,1.29492 -14.0726,1.47907 -39.6841,2.84933 -58.5528,3.13086 l -13.0117,0.19336 1.0117,9 c 2.2987,20.45009 0.7761,34.63096 -6.1543,57.35547 -2.2889,7.50493 -13.4813,28.65509 -19.2148,36.31055 -10.8775,14.52388 -37.3044,38.90647 -49.7422,45.89257 -2.1328,1.19795 -6.2776,3.65628 -9.2109,5.46289 -5.1057,3.14457 -25.0842,13.1011 -30.666,15.2832 -1.4666,0.5734 -5.1378,2.0693 -8.1563,3.3242 -5.302,2.2042 -20.3297,6.7068 -27.1777,8.1426 -1.8333,0.3844 -6.6328,1.5273 -10.666,2.5391 -23.2997,5.8443 -65.38865,7.1983 -86.47271,2.7812 -2.97157,-0.6225 -3.08862,-0.3952 -2.19726,4.291 0.51787,2.7226 1.20271,6.4499 1.52344,8.2832 0.32075,1.8333 0.97282,4.5333 1.44922,6 1.27428,3.923 1.27402,3.9232 5.7871,22 7.5779,30.3529 7.7894,31.7894 7.2168,49.334 -0.2992,9.1667 -0.82903,18.466 -1.17773,20.666 -0.3487,2.2 -0.98777,7.3007 -1.41797,11.334 -0.4303,4.0334 -0.99355,8.8327 -1.25195,10.666 -0.2585,1.8333 -0.91158,6.934 -1.45118,11.334 -0.5396,4.4 -1.1597,8.9589 -1.3789,10.1309 -0.2193,1.172 -0.78988,5.3727 -1.26758,9.334 -0.4776,3.9613 -1.09419,8.7018 -1.37109,10.5351 -0.2768,1.8334 -0.81557,5.7327 -1.19727,8.666 -0.3817,2.9333 -1.05198,7.9217 -1.48828,11.084 l -0.79297,5.75 14.41016,-0.8359 c 7.92548,-0.4594 17.41152,-1.0922 21.07812,-1.4063 3.6667,-0.3141 10.56535,-0.8964 15.33205,-1.2929 11.3507,-0.9443 20.8898,-1.8563 26.668,-2.5508 2.5665,-0.3085 8.6734,-0.9287 13.5722,-1.3789 4.8987,-0.4501 9.9994,-1.0229 11.334,-1.2735 1.3346,-0.2506 6.0258,-0.8575 10.4258,-1.3476 4.4,-0.4902 9.5007,-1.1235 11.334,-1.4082 1.8333,-0.2846 6.034,-0.8884 9.334,-1.3399 3.2998,-0.4514 7.4986,-1.0501 9.332,-1.332 1.8333,-0.2819 5.758,-0.8578 8.7207,-1.2793 2.9627,-0.4215 6.8387,-1.0469 8.6133,-1.3887 1.7746,-0.3417 5.3746,-0.9404 8,-1.332 2.6254,-0.3916 6.2254,-0.9922 8,-1.334 1.7746,-0.3417 5.3746,-0.9424 8,-1.334 4.6999,-0.701 8.0918,-1.3072 14.666,-2.6211 1.8333,-0.3664 5.134,-0.97 7.334,-1.3418 2.2,-0.3717 5.4987,-0.9873 7.332,-1.3691 1.8334,-0.3818 5.134,-1.009 7.334,-1.3945 2.2,-0.3854 4.9,-0.9446 6,-1.2422 1.1,-0.2977 4.4007,-0.8952 7.334,-1.3281 2.9333,-0.4329 6.8326,-1.0293 8.666,-1.3243 5.9124,-0.9513 13.88,-2.1279 18.666,-2.7578 2.5667,-0.3378 6.7673,-0.897 9.334,-1.2422 10.459,-1.4066 29.532,-2.4787 43.6289,-2.4511 10.5674,0.021 14.7198,-0.4053 14.1367,-1.4492 -0.4541,-0.813 -2.2952,-3.4645 -4.0918,-5.8926 -11.3226,-15.3024 -8.0472,-35.5769 13.1289,-81.252 6.9808,-15.0567 12.0774,-26.2844 13.3145,-29.334 2.8436,-7.0099 3.7064,-9.3132 5.623,-15 3.3577,-9.9627 5.6528,-21.3627 6.1074,-30.332 0.124,-2.4395 0.9323,-3 4.3243,-3 h 4.1718 l -0.8164,8.334 c -1.0898,11.1228 -2.2071,17.1959 -3.6601,19.9121 -0.6606,1.2351 -1.2045,3.3345 -1.209,4.666 0,1.3316 -0.9044,4.1397 -2,6.2402 -1.0955,2.1005 -1.9922,4.3332 -1.9922,4.961 0,1.1501 -4.1701,10.9016 -9.9297,23.2187 -15.2592,32.6321 -16.632,35.873 -20.2969,47.9043 -4.0265,13.2186 -4.4015,14.8997 -4.6367,20.7637 -0.4341,10.8232 2.3457,16.564 13.8711,28.6504 3.505,3.6754 9.6652,11.6315 13.6895,17.6797 4.0241,6.0482 8.4775,12.3482 9.8964,14 1.4189,1.6518 3.859,4.5026 5.4239,6.3359 10.1107,11.845 31.6399,35.5128 39.9863,43.959 5.2276,5.2899 25.3321,22.97 33.1543,29.1563 2.4699,1.9533 8.1611,6.4844 12.6484,10.0683 4.4875,3.5839 10.567,8.0228 13.5098,9.8652 2.9428,1.8424 5.6509,3.729 6.0176,4.1915 0.3666,0.4624 6.6666,4.7547 14,9.539 23.238,15.1604 23.9268,15.5953 30.8203,19.459 2.8494,1.597 6.9688,4.297 9.1562,6 4.4456,3.4611 20.2568,19.1225 23.375,23.1543 7.8032,10.0891 22.6485,37.8749 22.6485,42.3906 0,0.9747 0.45,2.2196 1,2.7656 0.55,0.546 2.9201,8.5957 5.2676,17.8887 l 4.2695,16.8965 -0.5059,37.332 c -0.2782,20.5333 -0.8472,39.7346 -1.2636,42.668 -0.945,6.6568 -1.8651,14.0478 -2.8204,22.666 -0.4065,3.6667 -0.9974,7.566 -1.3125,8.666 -0.3149,1.1 -0.9351,4.3271 -1.3789,7.17 -0.4439,2.843 -1.0795,6.443 -1.4121,8 -0.3328,1.5571 -1.2214,6.0203 -1.9746,9.9179 -1.3062,6.7586 -2.591,9.6242 -11.164,24.9121 -5.7966,10.3375 -23.878,37.2396 -27.8086,41.375 -0.86,0.9048 -3.661,4.266 -6.2246,7.4688 -5.7549,7.1896 -32.6555,34.4243 -37.7188,38.1875 -4.7245,3.5112 -4.182,3.7056 17.7129,6.3437 3.3,0.3976 7.5006,0.9731 9.334,1.2774 1.8333,0.3042 6.3333,0.9009 10,1.3262 3.6666,0.4255 8.1666,1.0163 10,1.3125 1.8333,0.2961 6.6327,0.933 10.666,1.416 4.0334,0.4829 7.4847,1.0216 7.668,1.1972 0.1833,0.1757 1.1708,0.3184 2.1953,0.3184 1.4447,0 1.2442,-1.1856 -0.8926,-5.2852 v 0 c -7.8579,-15.0754 -0.052,-38.052 19.6015,-57.6933 6.316,-6.3124 19.2337,-15.2442 22.0488,-15.2442 0.6858,0 1.7261,0.7927 2.3125,1.7598 1.1976,1.9748 11.8507,9.3502 15.3321,10.6152 1.5798,0.574 2.5417,-0.064 3.1816,-2.1093 0.5045,-1.6126 2.6516,-6.7291 4.7695,-11.3711 5.7992,-12.7096 6.1642,-20.9013 1.7911,-40.2266 -2.3821,-10.5275 -3.1286,-23.4492 -2.6582,-46 0.2908,-13.9334 0.8224,-27.134 1.1816,-29.334 0.3592,-2.2 1.0236,-7.6 1.4766,-12 0.4529,-4.4 1.0638,-8.9 1.3593,-10 0.2953,-1.1 0.8698,-4.0994 1.2754,-6.666 0.4056,-2.5667 1.036,-6.1667 1.4024,-8 0.9719,-4.8627 1.8782,-9.4626 2.7578,-14 0.4265,-2.2 0.924,-4.6006 1.1055,-5.334 0.1814,-0.7333 0.7781,-3.7327 1.3242,-6.666 0.5463,-2.9334 1.5223,-7.134 2.1699,-9.334 0.6477,-2.2 1.5123,-5.9902 1.9219,-8.4219 0.4094,-2.4316 1.989,-7.2309 3.5097,-10.666 1.5208,-3.4349 3.2319,-7.4454 3.8008,-8.9121 0.5691,-1.4666 1.65,-4.2186 2.4043,-6.1152 4.3522,-10.9449 14.5575,-43.8272 15.6543,-50.4395 0.4155,-2.505 0.9869,-4.9248 1.2676,-5.3789 1.6869,-2.7296 2.9052,-28.8533 1.791,-38.4062 -0.444,-3.8066 -27.2397,-25.6602 -31.4629,-25.6602 -1.0216,0 -5.5537,-1.7288 -10.0723,-3.8418 -13.4809,-6.3039 -27.498,-21.8883 -30.8945,-34.3515 -2.6776,-9.8251 -1.1382,-26.6863 3.2695,-35.8067 0.7088,-1.4666 2.1953,-4.7673 3.3028,-7.334 1.1073,-2.5667 3.5308,-7.0667 5.3847,-10 1.8537,-2.9333 3.7926,-6.232 4.3086,-7.332 0.516,-1.1 5.3201,-8.3882 10.6758,-16.1953 5.3556,-7.8072 9.7364,-14.614 9.7364,-15.127 0,-0.513 1.35,-2.8226 3,-5.1328 7.3899,-10.3475 19.4939,-35.2604 22.1269,-45.5449 5.6181,-21.946 4.7201,-41.848 -2.8691,-63.6426 -2.0491,-5.8843 -5.5289,-17.1848 -5.6524,-18.3574 -0.039,-0.3667 -0.466,-1.8673 -0.9512,-3.334 -1.6768,-5.0693 -2.5212,-10.7034 -3.0195,-20.1523 -0.5715,-10.8381 0.6981,-17.15866 3.461,-17.22659 1.8796,-0.0463 24.732,3.98809 29.9043,5.27929 1.4664,0.3661 6.2687,1.5462 10.6699,2.6231 4.4013,1.077 9.8013,2.8964 12,4.0429 2.1988,1.1465 4.755,2.0873 5.6816,2.0918 0.9266,0 2.7266,0.5757 4,1.2696 1.2734,0.694 5.3157,2.7066 8.9824,4.4726 16.1063,7.7571 23.4976,13.0454 36.6856,26.2422 12.9342,12.9426 16.6453,18.0224 23.8828,32.6914 6.994,14.1754 8.068,16.7268 9.2637,22 1.0448,4.6069 0.9936,33.1073 -0.068,38 -2.8492,13.1259 -5.4344,22.674 -7.3184,27.0313 -1.1817,2.733 -2.7449,6.4674 -3.4746,8.3007 -0.7299,1.8333 -1.8043,4.5333 -2.3867,6 -0.5824,1.4667 -4.6313,10.1674 -8.998,19.334 -20.7852,43.6328 -28.4338,61.981 -29.7227,71.2988 -0.049,0.3536 -0.8489,3.5218 -1.7773,7.0411 -3.6013,13.6519 -1.5696,40.0085 3.8906,50.4785 1.104,2.1168 2.0134,4.4483 2.0215,5.1816 0.025,2.2964 6.5673,9.5361 6.6269,7.334 0.073,-2.7138 5.5983,-16.1065 8.4219,-20.416 1.2577,-1.9195 2.2871,-3.8477 2.2871,-4.2832 0,-1.1551 7.7973,-10.9753 14.2793,-17.9844 4.9106,-5.3101 13.8761,-17.9262 18.4668,-25.9844 0.8356,-1.4667 3.4059,-5.9667 5.711,-10 4.7478,-8.3074 17.1355,-33.3084 21.4707,-43.332 1.5859,-3.6667 3.4146,-7.8673 4.0644,-9.334 2.916,-6.5821 8.2474,-24.5487 8.9024,-30 0.8072,-6.7181 1.1899,-7.3223 5.4375,-8.6054 2.6269,-0.7937 3,-0.4296 3,2.9375 0,6.6696 -2.7424,19.2488 -6.8868,31.5878 -5.2161,15.5297 -6.1487,17.584 -27.5761,60.7461 l -18.2032,36.668 0.022,26 c 0.02,24.1152 1.2478,53.4961 2.5625,61.332 0.3076,1.8333 0.9057,6.034 1.3301,9.334 0.9684,7.5303 1.8905,13.0542 2.8945,17.334 0.4301,1.8333 1.0433,4.8327 1.3614,6.666 1.2816,7.3883 6.3863,23.4418 11.2363,35.334 6.953,17.0485 18.0753,35.5039 27.7812,46.0977 2.9739,3.246 5.4238,6.2982 5.4434,6.7832 0.029,0.739 11.4161,10.8328 20.8867,18.5136 2.4622,1.9969 11.779,8.264 17.1699,11.5508 5.6547,3.4477 30.18,15.0547 31.8106,15.0547 0.9472,0 2.1425,0.4198 2.6562,0.9336 0.5137,0.5137 4.2194,1.9511 8.2344,3.1934 l 7.3008,2.2578 -4.1465,-5.5254 c -14.1224,-18.8246 -30.2363,-48.3664 -33.1973,-60.8594 -0.7821,-3.3 -1.7109,-7.2013 -2.0644,-8.668 -0.3536,-1.4667 -0.9882,-4.466 -1.4102,-6.666 -0.9718,-5.0677 -0.9249,-34.4746 0.064,-40.666 1.2573,-7.8624 1.0201,-19.6316 -0.4512,-22.3809 -1.6236,-3.0336 -3.2242,-9.2471 -7.457,-28.9531 -1.9861,-9.2466 -2.1227,-47.3193 -0.1992,-55.2793 0.4358,-1.804 1.1123,-5.4293 1.5039,-8.0547 0.3916,-2.6254 0.9903,-6.2254 1.332,-8 0.3418,-1.7746 0.9629,-5.6505 1.3789,-8.6132 0.4159,-2.9627 1.0032,-6.2868 1.3066,-7.3868 0.5083,-1.8412 0.9297,-4.1821 2.754,-15.332 0.36,-2.2 1.5852,-8.5 2.7226,-14 1.1376,-5.5 2.338,-11.5006 2.668,-13.334 0.3299,-1.8333 1.1282,-5.134 1.7734,-7.334 0.6452,-2.2 1.6197,-6.3987 2.166,-9.332 0.5461,-2.9334 1.1504,-5.9347 1.3418,-6.668 0.6096,-2.3358 4.5868,-22.4916 5.3614,-27.1679 0.4101,-2.4762 0.9986,-5.7769 1.3066,-7.334 2.6113,-13.2008 3.55,-51.5743 1.5527,-63.457 -1.1681,-6.9494 -4.0189,-15.1546 -8.7636,-25.2149 -3.2771,-6.9484 -3.3048,-7.2319 -0.8868,-9 4.0146,-2.9356 5.1174,-2.211 8.9278,5.8633 7.9856,16.9214 10.971,31.302 11,52.9785 0.013,9.8388 -1.258,26.9827 -2.4707,33.332 -0.2801,1.4667 -0.8987,5.5634 -1.375,9.1036 -0.7259,5.3946 -4.6218,25.116 -6.8946,34.8964 -0.7645,3.2899 -3.1582,14.8305 -4.0097,19.334 -0.3465,1.8334 -0.9321,4.3358 -1.3008,5.5606 -0.3687,1.2247 -0.9376,3.6254 -1.2656,5.334 -0.328,1.7084 -1.8106,9.106 -3.293,16.4394 -3.5252,17.4399 -3.8248,19.0261 -4.666,24.666 -0.3916,2.6254 -1.0121,6.2488 -1.3789,8.0528 -1.0706,5.2649 -2.6211,26.5282 -2.6211,35.9472 0,23.4378 4.8176,45.8582 13.2715,61.7578 3.8896,7.3153 6.8918,10.9592 18.2539,22.17 10.3647,10.2265 16.9902,13.9614 34.4746,19.4296 4.0333,1.2614 9.6902,3.1162 12.5703,4.1211 2.8802,1.0049 5.382,1.6805 5.5605,1.502 0.1784,-0.1786 -1.8783,-2.7708 -4.5703,-5.7598 -6.6793,-7.4161 -13.6877,-16.1242 -16.8945,-20.9941 -10.8626,-16.4969 -14.9338,-23.8702 -21.2754,-38.5235 -8.8305,-20.4048 -11.9771,-59.9372 -6.8359,-85.8671 0.3087,-1.5571 0.9027,-4.8577 1.3203,-7.334 1.3956,-8.2737 2.2246,-12.4833 2.9004,-14.7285 0.3687,-1.2247 0.9344,-3.3242 1.2578,-4.6661 2.5691,-10.6587 5.2327,-20.0399 11.1992,-39.4414 1.5223,-4.95 4.0129,-13.05 5.5352,-18 4.9784,-16.1883 6.7476,-22.2248 8.6933,-29.666 1.0547,-4.0333 2.2434,-8.5333 2.6406,-10 1.1752,-4.3404 1.371,-5.1427 2.295,-9.334 5.1468,-23.3478 5.7369,-56.4589 1.4609,-82 -1.3159,-7.8601 -7.2029,-29.5986 -9.3711,-34.6035 -5.7749,-13.3311 -14.7366,-30.5981 -19.332,-37.248 -2.8431,-4.1141 -6.2126,-8.9812 -7.4863,-10.8145 -3.5047,-5.0434 -26.9507,-28.32111 -32.9161,-32.67967 -19.0512,-13.92008 -47.461,-28.24985 -64.8711,-32.7207 -5.9101,-1.51766 -26.9986,-6.13816 -33.2148,-7.27734 -20.1232,-3.68787 -74.7695,-3.65212 -98.1387,0.0644 -9.2841,1.47652 -12.246,1.9116 -18.5273,2.71484 -3.6667,0.46888 -7.0169,1.06036 -7.4453,1.31641 -0.4283,0.25607 -2.8289,0.81342 -5.334,1.23828 -2.5049,0.42487 -5.5841,1.08645 -6.8438,1.46875 -1.5439,0.46852 -4.5869,-1.64107 -9.3339,-6.4707 -3.8736,-3.94082 -9.4436,-8.9028 -12.377,-11.02735 -2.9333,-2.12454 -6.0236,-4.48423 -6.8691,-5.24414 -6.1856,-5.5604 -37.9723,-25.92923 -58.4629,-37.46289 -1.4667,-0.82554 -5.0667,-2.89445 -8,-4.5957 -19.8311,-11.50138 -43.1134,-23.14958 -70.668,-35.35742 -7.4105,-3.2832 -22.626,-8.80584 -27.8379,-10.10352 -2.8451,-0.70836 -6.1658,-1.81757 -7.3789,-2.4668 -4.0222,-2.1526 -16.746,-3.30574 -34.0625,-3.42968 z M 355.95652,852.4355 c -0.73333,0.0223 -3.73464,1.19833 -6.66797,2.61524 -2.93334,1.41689 -6.0633,2.59816 -6.95508,2.62304 -1.31018,0.0365 -10.14754,3.62412 -12.22461,4.96289 -0.28266,0.18219 0.46103,1.81854 1.65235,3.63672 3.54342,5.40798 11.26626,27.92761 12.15625,35.44531 0.45893,3.87662 6.67632,5.21274 13.02539,2.79883 1.7382,-0.66085 5.74826,-3.54625 8.91211,-6.41015 5.29145,-4.78983 5.78802,-5.79963 6.18164,-12.61914 0.31401,-5.44048 -0.29792,-8.8816 -2.29883,-12.92579 -1.49964,-3.03101 -3.13568,-5.51171 -3.63477,-5.51171 -0.49908,0 -2.68708,-3.29737 -4.86132,-7.32813 -2.17428,-4.03077 -4.55182,-7.30943 -5.28516,-7.28711 z m -104.07617,20.54688 c 1.00123,-0.0199 1.99386,0.0395 2.9375,0.18945 9.51974,1.51292 20.61514,9.24605 24.35742,16.97656 3.96566,8.19197 3.60447,13.20615 -1.35742,18.85742 -4.89846,5.57904 -5.57426,5.7015 -8.31055,1.52539 -1.9326,-2.94951 -1.89412,-3.36002 0.51367,-5.53906 5.89275,-5.33285 2.29564,-13.96864 -8.44531,-20.27539 -12.3516,-7.25249 -16.5727,-2.91481 -8.25781,8.48633 1.91608,2.62726 1.82656,2.9694 -1.32617,5.03516 -3.36773,2.20662 -3.40158,2.19039 -7.37696,-4.07813 -3.91295,-6.17008 -5.20751,-13.7997 -2.94531,-17.35742 1.37178,-2.15737 5.87226,-3.73428 10.21094,-3.82031 z m 204.23047,226.29692 c -1.4808,0.055 -3.35683,0.1984 -5.79492,0.4003 -5.69775,0.4721 -12.15938,1.0864 -14.35938,1.3653 -2.2,0.2789 -7.30067,0.882 -11.33398,1.3398 -4.03333,0.4577 -9.13399,1.1061 -11.33399,1.4414 -19.0005,2.8961 -32.7458,3.8935 -53.33203,3.8692 -22.23874,-0.026 -31.16206,-1.023 -42,-4.6875 l -7.33398,-2.4785 -10.98243,5.291 c -22.95154,11.0573 -48.06298,33.808 -56.26953,50.9804 -3.41757,7.1514 -3.61443,9.4924 -1.92383,22.918 1.44699,11.4908 1.52175,68.257 0.12891,98 -0.56664,12.1 -1.3372,30.3994 -1.71289,40.666 -0.87421,23.8909 -1.41303,29.0432 -3.96875,38 -4.08266,14.3082 -5.06232,20.524 -5.04297,32 0.0371,21.9968 2.7781,26.5013 32.44922,53.334 6.89273,6.2333 14.3946,13.132 16.66992,15.332 3.4656,3.3509 19.15063,17.6648 30.6836,28 16.3936,14.6911 30.41442,25.8828 31.54882,25.1817 0.50393,-0.3115 0.86966,-1.6042 0.8125,-2.8731 -0.0927,-2.056 0.69744,-10.4047 2.30079,-24.3086 0.29595,-2.5667 0.89494,-7.9667 1.33007,-12 0.43514,-4.0333 1.01606,-9.1696 1.29102,-11.416 0.27496,-2.2466 0.87041,-7.6466 1.32422,-12 0.45383,-4.3536 1.01438,-9.5673 1.24414,-11.584 0.50202,-4.4065 0.103,-4.4601 -5.88281,-0.8086 -21.09259,12.8664 -43.39794,7.8146 -55.22461,-12.5078 -5.53037,-9.5031 -5.28081,-20.5134 0.59765,-26.33 2.43384,-2.4083 11.99491,-7.1018 18.97266,-9.3125 3.20663,-1.016 4.68081,-2.151 4.0918,-3.1485 -8.70301,-14.7386 -24.4551,-33.3482 -32.92579,-38.8984 l -3.47265,-2.2754 0.55469,-18.8594 c 0.30571,-10.3725 0.83024,-20.0587 1.16601,-21.5254 0.33578,-1.4666 0.97854,-5.366 1.42774,-8.666 0.44918,-3.3 1.10598,-7.4772 1.45898,-9.2812 0.35299,-1.804 0.96195,-5.4274 1.35352,-8.0528 0.39157,-2.6254 0.99222,-6.2254 1.33398,-8 0.34176,-1.7746 0.94045,-5.3746 1.33203,-8 0.39157,-2.6254 0.99223,-6.2254 1.33399,-8 0.34176,-1.7746 0.9652,-5.6506 1.38671,-8.6133 0.42151,-2.9627 0.98592,-6.8874 1.25391,-8.7207 0.268,-1.8333 0.86347,-6.7823 1.32227,-11 0.45879,-4.2177 1.55958,-9.3185 2.44531,-11.3339 2.11506,-4.8132 9.03008,-14.9981 10.18359,-14.9981 0.49761,0 2.06863,-1.0655 3.49024,-2.3672 5.38054,-4.9269 22.04337,-11.8073 34.58398,-14.2812 2.2,-0.434 5.00181,-1.0923 6.22656,-1.461 13.45238,-4.0497 18.93437,-3.8991 30.76563,0.8438 6.05487,2.4273 14.90912,5.536 19.67578,6.9082 4.76667,1.3722 10.46602,3.0263 12.66602,3.6758 9.5029,2.8057 24.35983,6.6096 28.66601,7.3398 2.56666,0.4351 7.06563,1.429 9.9961,2.207 2.93046,0.7781 6.53048,1.6554 8,1.9512 1.46951,0.2959 3.87122,0.7938 5.33789,1.1055 5.99773,1.2748 17.58658,3.5206 21.33398,4.1347 2.2,0.3604 5.49869,0.9559 7.33203,1.3223 6.93539,1.386 10.0536,1.932 15.28125,2.6758 2.96269,0.4215 6.88541,0.9954 8.71875,1.2773 1.83333,0.2819 6.03399,0.8826 9.33399,1.334 3.29998,0.4515 7.50065,1.0546 9.33398,1.3399 1.83334,0.2853 7.08269,0.8877 11.66602,1.3398 8.03649,0.7928 8.33622,0.7129 8.44335,-2.2617 0.0611,-1.6964 0.26785,-4.2853 0.45899,-5.752 0.19113,-1.4667 0.76976,-6.6235 1.28516,-11.4609 l 0.9375,-8.7949 -13.0625,-6.4102 c -22.44774,-11.0165 -28.12599,-15.0524 -45.0625,-32.0254 -10.36685,-10.3892 -32.55559,-40.38 -32.71094,-44.2129 -0.0244,-0.602 -1.21278,-2.4974 -2.64063,-4.2109 -1.83299,-2.1996 -2.71777,-2.8224 -7.16015,-2.6562 z m 400.49023,46.4394 c -0.12386,-0.3667 -4.85816,17.6333 -10.51953,40 l -10.29297,40.666 13.41797,0.7403 c 7.3792,0.4065 14.82229,0.8565 16.54102,1 3.01575,0.2519 3.09451,0.01 2.28515,-6.92 -0.46126,-3.9491 -1.10287,-8.5518 -1.42578,-10.2285 -0.32289,-1.6767 -0.90343,-5.7947 -1.29102,-9.1523 -0.38757,-3.3577 -0.93642,-7.3068 -1.21875,-8.7735 -0.28231,-1.4667 -0.88087,-5.366 -1.33007,-8.666 -0.44919,-3.3 -1.04788,-7.1994 -1.33203,-8.666 -0.28413,-1.4667 -0.91505,-5.6673 -1.40235,-9.334 -1.35552,-10.1997 -2.76776,-18.7019 -3.43164,-20.666 z m 440.26955,51.332 -27.125,0.035 c -23.2658,0.03 -40.1335,0.9216 -48.9004,2.582 -1.223,0.2317 -4.9227,0.7891 -8.2227,1.2383 -3.3,0.4492 -7.275,1.0657 -8.832,1.3711 -1.5571,0.3054 -5.1571,0.9249 -8,1.375 -2.843,0.4502 -6.968,1.1674 -9.168,1.5937 -2.2,0.4262 -4.7493,0.8067 -5.666,0.8458 -0.9166,0.039 -1.6679,0.5242 -1.6679,1.0781 0,2.2066 21.668,20.7161 28.9296,24.7129 6.9181,3.8077 8.7257,4.221 17.0704,3.9082 7.9099,-0.2964 10.7578,-1.1233 18.6679,-5.4219 v 0 c 9.6867,-5.2639 28.4517,-14.6589 36.8125,-18.4296 2.6475,-1.1939 8.0475,-2.853 12,-3.6856 10.5324,-2.2187 10.945,-2.6287 7.2696,-7.2344 z m -129.9844,12.0059 c -0.8784,0.2935 -3.9163,0.8695 -6.7519,1.2812 -2.8356,0.4118 -5.6301,1.0407 -6.209,1.3985 -3.4025,2.1029 10.0469,31.8822 30.7031,67.9824 1.6784,2.9333 6.7285,12.532 11.2227,21.332 20.6876,40.5082 24.8107,61.8379 18.6914,96.668 -1.7062,9.7112 -10.4671,33.4159 -16.5079,44.666 -6.3839,11.8892 -18.67,30.6962 -26.6816,40.8399 -5.9463,7.5288 -51.697,53.2621 -61.9004,61.8769 -4.3103,3.6394 -9.1117,7.7178 -10.668,9.0645 -1.5563,1.3468 -4.8623,4.0468 -7.3476,6 -2.4852,1.9533 -5.1852,4.1514 -6,4.8847 -0.8147,0.7333 -3.8812,3.1117 -6.8145,5.2852 -2.9333,2.1733 -6.0091,4.574 -6.8359,5.334 -0.8268,0.7599 -2.8469,2.2808 -4.4883,3.3808 -1.6414,1.1 -4.3469,3.0398 -6.0117,4.3106 -4.5958,3.508 -35.7692,24.3688 -38.0215,25.4433 -1.0869,0.5184 -3.7767,2.1296 -5.9765,3.5801 -2.2,1.4506 -4.9,3.0494 -6,3.5528 -1.1,0.5036 -5.6634,3.2111 -10.1426,6.0156 -4.47935,2.8044 -8.68001,5.0987 -9.33401,5.0996 -0.6541,9e-4 -2.76114,1.3509 -4.68164,3 -1.9205,1.6491 -5.30318,4.4987 -7.51758,6.332 -3.8847,3.2162 -25.09769,22.4973 -32.27344,29.334 -1.92425,1.8333 -6.09251,5.4333 -9.26367,8 -3.17116,2.5666 -6.44763,5.3108 -7.28125,6.0996 -3.2272,3.0537 -23.11264,16.2551 -27.92578,18.5391 -5.49136,2.6058 -5.17569,4.1352 1.08789,5.2734 6.66449,1.2111 10.10215,1.9429 12.43945,2.6465 1.22474,0.3687 3.72722,0.9542 5.56055,1.3008 4.3613,0.8245 15.77367,3.187 20,4.1406 3.36939,0.7602 13.89527,2.9585 19.96875,4.1699 1.8168,0.3624 3.56657,0.922 3.88867,1.2442 1.6159,1.6158 4.25646,0.3561 3.66406,-1.7481 -2.17258,-7.7162 -2.20777,-11.59 -0.17187,-18.6445 5.42638,-18.8023 18.85814,-31.803 40.65037,-39.3477 8.1871,-2.8345 12.416,-3.4595 23.3321,-3.4511 13.8709,0.013 21.0056,0.8136 20.1171,2.2636 -0.7635,1.2461 -2.3036,10.7204 -2.7324,16.8106 -0.3926,5.5777 1.9794,14.3 4.0567,14.916 2.7171,0.8056 12.4936,-10.4585 18.5566,-21.3809 2.8135,-5.0684 10.2124,-24.1102 10.0371,-25.832 -0.4911,-4.8231 0.6678,-8.8694 3.6328,-12.6836 2.0167,-2.5943 4.6872,-6.1264 5.9356,-7.8496 5.869,-8.1006 10.8045,-13.5876 25.041,-27.8398 8.4459,-8.4553 17.0719,-16.5553 19.1699,-18 2.0979,-1.4446 4.4986,-3.2276 5.334,-3.961 5.4505,-4.7845 27.8557,-18.4096 43.2871,-26.3242 10.0277,-5.1434 18.8351,-9.8262 19.5723,-10.4062 0.7372,-0.5799 10.9365,-5.8828 22.666,-11.7833 11.7294,-5.9002 26.7262,-13.738 33.3262,-17.4179 6.5998,-3.6797 12.9,-7.1104 14,-7.6231 3.0163,-1.406 9.3669,-5.9885 14.1582,-10.2187 6.7276,-5.9402 7.5538,-9.2945 5.3261,-21.5957 -1.9452,-10.7405 -2.1526,-50.8369 -0.3008,-57.9649 0.4763,-1.8333 1.2112,-5.4333 1.6348,-8 0.6912,-4.1887 5.7191,-20.444 8.4531,-27.332 5.8684,-14.7844 20.1291,-40.8688 30.6172,-56 3.0499,-4.4 6.5724,-9.4996 7.8281,-11.332 1.2557,-1.8324 6.3333,-8.6496 11.2833,-15.1504 4.9498,-6.5008 9,-12.2604 9,-12.7969 0,-0.5366 -4.0666,-4.8168 -9.0372,-9.5137 -7.8325,-7.4014 -14.5346,-14.4872 -30.7832,-32.541 -1.98,-2.2 -6.2806,-7.7549 -9.5566,-12.3457 -5.78,-8.0996 -6.1057,-8.328 -10.9785,-7.7031 -7.5005,0.9619 -23.4721,6.9548 -36.6328,13.7461 -33.8475,17.4665 -34.1474,17.5813 -44.8672,17.0469 -6.5783,-0.3279 -9.7833,-1.3703 -16.6719,-5.42 -10.1634,-5.9749 -12.1585,-7.5926 -25.7851,-20.9218 -5.7716,-5.6456 -11.2115,-10.024 -12.0899,-9.7305 z"
         transform="translate(-182.30027,-63.175735)" />
      <path
         id="path377"
         style="display:inline;fill:#000000;stroke-width:1.33333"
         d="m 884.66941,742.99214 -11.25195,11.22656 c -6.18877,6.17485 -12.2071,13.0715 -13.37305,15.32618 -1.16595,2.25467 -3.66011,6.36649 -5.54297,9.13671 -1.88287,2.77024 -6.28252,11.03582 -9.77734,18.36915 -11.78034,24.71917 -11.31036,23.4818 -18.6836,49.33398 -1.46405,5.13333 -3.03138,11.65902 -3.48242,14.50195 -0.45104,2.84293 -1.07284,6.44293 -1.38086,8 -1.69591,8.57305 -2.45095,19.36362 -2.43945,34.83203 0.0155,20.86448 1.37512,31.7445 5.41797,43.33204 1.15136,3.29999 2.30943,6.75129 2.57226,7.66796 0.76754,2.67697 2.64096,1.91903 2.87305,-1.16211 0.34496,-4.57953 4.39749,-19.80196 6.66016,-25.01757 4.24351,-9.78161 16.45816,-34.31769 19.6582,-39.48828 1.81541,-2.93333 4.27016,-7.05648 5.45508,-9.16407 2.02134,-3.59528 15.83881,-24.08243 25.60937,-37.96875 14.98975,-21.30403 35.09669,-51.2831 41.02735,-61.17187 l 5.78125,-9.63867 -6.61133,-1.96485 c -11.70323,-3.47548 -30.16849,-14.36202 -39.53516,-23.30859 z m 302.76169,77.81641 c -0.1771,0.0258 -0.3388,0.15989 -0.4883,0.40429 -0.3939,0.64417 -3.1168,5.73624 -6.0507,11.31446 -6.2417,11.86719 -14.9587,23.65595 -23.127,31.28125 -7.2005,6.72191 -22.6086,16.12205 -29.7715,18.16211 -2.9538,0.84127 -6.2711,1.80145 -7.3711,2.13281 -4.1761,1.25798 -31.676,1.49013 -36.0703,0.30469 -2.528,-0.68197 -6.0964,-1.54075 -7.9297,-1.90821 -1.8333,-0.36744 -4.6446,-1.05251 -6.2461,-1.52343 -2.7676,-0.81383 -7.3194,2.79954 -24.4531,19.4082 -1.1348,1.1 -5.566,4.99935 -9.8457,8.66602 -4.2797,3.66666 -9.1077,7.86732 -10.7285,9.33398 -1.6209,1.46667 -5.5963,4.86069 -8.8359,7.54102 -6.0369,4.99466 -6.8249,5.66454 -20.55668,17.51171 -14.54499,12.54884 -41.02714,40.20098 -43.04492,44.94727 -2.1964,5.16649 -2.81011,26.04148 -0.82227,27.95708 1.41865,1.367 7.0946,2.3778 19.86719,3.539 5.13339,0.4667 9.48859,0.9773 9.67969,1.1348 0.5781,0.4765 25.76159,-0.4397 34.36719,-1.25 4.4261,-0.4168 9.299,-0.9981 10.8301,-1.293 1.531,-0.2948 4.8108,-0.8772 7.2871,-1.2949 12.8495,-2.1673 20.5062,-4.1919 38.5019,-10.1758 10.876,-3.6164 33.1443,-13.7828 43.9239,-20.05468 5.843,-3.39965 25.9632,-17.70649 30.7285,-21.84961 11.4118,-9.92178 24.6831,-25.14413 30.2461,-34.69141 2.3189,-3.97973 11.2764,-22.27519 12.414,-25.35546 4.8967,-13.25892 5.6843,-18.15842 6.1289,-38.08399 0.3426,-15.35498 -0.057,-19.89841 -2.6503,-30.0918 -2.809,-11.03939 -4.7423,-16.24684 -5.9825,-16.0664 z"
         transform="translate(-182.30027,-63.175735)" />
      <path
         id="path397"
         style="fill:#0000ff;stroke-width:1.33333"
         d="m 294.80222,563.99019 c -2.5522,-0.2259 -2.44367,0.94382 -0.95507,4.66601 2.43287,6.08339 13.3096,38.37575 15.85156,47.0625 2.96615,10.13636 6.51961,24.30653 7.66211,30.55469 0.39098,2.13829 0.93464,4.24948 1.20898,4.69336 0.27432,0.44388 0.85925,3.21882 1.29883,6.16602 0.43957,2.94719 1.07816,6.81132 1.41992,8.58593 0.34176,1.77461 0.96716,5.6506 1.38867,8.61329 0.4215,2.96268 1.00914,6.88542 1.30664,8.71875 2.38233,14.68145 4.24539,40.5697 4.4961,62.48828 l 0.14258,12.48828 12.33398,-0.83594 c 6.78333,-0.45984 13.53334,-1.08227 15,-1.38477 1.46667,-0.30252 3.96359,-0.59623 5.55078,-0.65234 3.67145,-0.12973 12.8016,-8.57774 16.37891,-15.1543 3.57063,-6.56431 6.3771,-18.42471 8.65039,-36.56836 2.90467,-23.18285 3.67988,-51.85273 1.68555,-62.31835 -5.26815,-27.64543 -25.46191,-52.74935 -51.59961,-64.14649 -2.56667,-1.11917 -5.86733,-2.58027 -7.33399,-3.24609 -2.56418,-1.16407 -19.20523,-6.38934 -23.33203,-7.32617 -1.1,-0.24971 -4.55131,-1.03924 -7.66797,-1.75586 -1.48934,-0.34246 -2.63559,-0.57314 -3.48633,-0.64844 z m -20.02929,1.30273 c -1.35117,-0.11715 -3.7765,0.46896 -6.88282,1.68946 -3.63079,1.42655 -9.90025,3.77118 -13.93359,5.21093 -17.30412,6.17688 -27.73534,10.01368 -33.58203,12.35547 -3.43595,1.37618 -7.14981,2.50196 -8.25391,2.50196 -2.74274,0 -3.14577,0.92784 -4.05859,9.35156 -0.43601,4.02373 -1.0768,8.79172 -1.42578,10.5957 -0.34896,1.80397 -0.98084,5.70333 -1.40235,8.66602 -0.74763,5.25489 -1.31765,8.91761 -2.55078,16.38672 -0.33295,2.01666 -0.99878,6.66732 -1.48047,10.33398 -0.48171,3.66667 -1.09949,7.84647 -1.37304,9.28711 -2.15906,11.37086 -3.08845,38.86716 -1.57813,46.71289 1.2621,6.55627 3.54036,11.42156 8.53711,18.22852 4.19864,5.71967 5.28813,6.4375 9.74805,6.4375 7.16383,0 13.15268,-2.42105 14.28711,-5.77735 1.83224,-5.42081 0.61672,-12.7017 -3.08594,-18.49414 -8.95103,-14.00307 -10.94025,-21.76585 -7.64453,-29.82031 2.19893,-5.374 13.19815,-15.22191 24.375,-21.82227 3.38504,-1.999 10.29531,-6.47236 15.35742,-9.9414 8.43071,-5.77754 9.38339,-6.1289 11.33399,-4.17774 1.87843,1.87897 1.89314,2.2714 0.1289,3.32813 -1.1,0.65888 -4.7,3.0726 -8,5.36328 -3.3,2.29066 -10.79936,7.21657 -16.66601,10.94726 -19.24449,12.23779 -24.56114,20.54386 -19.95899,31.17969 l 2.25586,5.21485 1.97461,-5.70118 c 2.07848,-6.00359 6.94983,-11.72386 15.60352,-18.32422 2.86481,-2.18505 9.7328,-8.23684 15.26171,-13.44726 11.6656,-10.9936 14.7592,-11.5508 15.03516,-2.70508 0.0945,3.03114 0.3551,7.31172 0.57813,9.51172 0.22303,2.2 0.48951,9.40001 0.59375,16 0.16976,10.74855 -0.26851,15.9318 -2.13282,25.16992 -0.31423,1.55707 -0.89113,4.63008 -1.28125,6.83008 -0.3901,2.2 -2.78465,14.49025 -5.32031,27.31055 -5.12229,25.89835 -5.53092,31.70871 -2.625,37.32812 3.48611,6.74139 13.94977,5.72641 26.33008,-2.55273 4.20607,-2.81275 10.43019,-5.93287 13.83203,-6.9336 l 6.18555,-1.81836 -0.82813,-27.33398 c -0.45474,-15.03332 -1.05339,-29.13399 -1.33203,-31.33398 -0.27864,-2.2 -0.90699,-7.29871 -1.39648,-11.33204 -0.48949,-4.03333 -1.19126,-9.13398 -1.5586,-11.33398 -0.36733,-2.2 -0.96732,-5.8 -1.33398,-8 -0.93774,-5.62639 -2.06992,-11.76211 -2.45899,-13.33398 -0.18152,-0.73333 -0.81065,-3.73268 -1.39843,-6.66602 -4.80508,-23.97995 -22.78469,-80.62649 -26.89649,-84.73828 -0.1975,-0.19751 -0.52813,-0.31447 -0.97851,-0.35352 z"
         transform="translate(-182.30027,-63.175735)" />
      <path
         style="fill:#00ffff;stroke-width:1.33333"
         d="m 257.15474,702.30909 c 6.08297,-2.96056 10.5017,-7.32795 13.12386,-12.9714 1.91703,-4.12584 2.22982,-7.80807 1.79022,-21.0747 -0.29298,-8.84145 -0.73827,-16.27333 -0.98955,-16.5153 -0.25128,-0.24198 -4.35688,3.19268 -9.12355,7.63256 -5.22252,4.86446 -7.98474,8.30841 -6.95073,8.66616 4.20101,1.45341 9.58767,7.49086 10.36093,11.6127 1.40831,7.50698 -6.05844,15.39255 -14.57501,15.39255 -3.73475,0 -11.50185,-5.93257 -11.50185,-8.78519 0,-2.3224 -2.61654,-2.52336 -2.79683,-0.21481 -0.45975,5.88721 -0.0153,10.51905 1.4292,14.89608 l 1.6538,5.01108 6.72259,-0.81879 c 3.69742,-0.45033 8.58304,-1.72426 10.85692,-2.83094 z"
         transform="translate(-182.30027,-63.175735)"
         id="path403" />
    </g>
    <g
       id="layer6"
       inkscape:label="Rider"
       style="display:inline">
      <path
         style="fill:#f2f2f2;stroke-width:1.33333"
         d="m 1041.7031,1375.8469 -0.414,-15.2048 4.6666,0.4574 c 8.8234,0.8649 27.9674,1.0959 28.7168,0.3466 0.4126,-0.4126 -2.4299,-2.6987 -6.3167,-5.0803 -3.8867,-2.3816 -7.3667,-4.7619 -7.7334,-5.2895 -0.3667,-0.5276 -3.2167,-2.5565 -6.3333,-4.5087 -3.1167,-1.9521 -5.6419,-3.9918 -5.6116,-4.5326 0.03,-0.5408 3.1802,-7.3535 7,-15.1393 l 6.9449,-14.1559 -4.6667,1.9768 c -2.5666,1.0873 -8.7017,4.0075 -13.6334,6.4893 -4.9316,2.4819 -9.5597,4.5125 -10.2846,4.5125 -0.7248,0 -3.8373,-5.4226 -6.9165,-12.0501 -3.0793,-6.6275 -6.0516,-11.5775 -6.6052,-11 -0.5535,0.5775 -1.3206,2.8501 -1.7046,5.0501 -2.4588,14.0877 -6.5672,28.6568 -8.1127,28.7686 -0.7753,0.056 -2.6096,0.3299 -4.0763,0.6085 -1.4667,0.2785 -5.3667,0.8588 -8.66671,1.2895 -9.6268,1.2566 -10.5491,1.4381 -11.3424,2.2313 -0.4141,0.4142 1.2185,1.7557 3.6281,2.9812 2.4095,1.2256 6.781,3.7145 9.7143,5.531 2.93341,1.8164 6.68341,3.8774 8.33341,4.5799 1.65,0.7025 3,1.5121 3,1.799 0,0.287 -3.8657,6.2631 -8.5904,13.2803 l -8.59031,12.7585 5.0809,-1.7926 c 2.79451,-0.986 6.21011,-2.4043 7.59031,-3.1518 1.3802,-0.7474 5.3829,-2.6669 8.8948,-4.2653 l 6.3853,-2.9063 2.4936,2.8751 c 2.3315,2.6883 8.836,10.5651 13.4024,16.23 1.1,1.3645 2.4864,2.4891 3.0808,2.4988 0.5944,0.013 0.8944,-6.8245 0.6666,-15.1872 z"
         id="path359"
         transform="translate(-182.30027,-63.175735)" />
      <path
         id="path365"
         style="display:inline;fill:#000000;stroke-width:1.33333"
         d="M 863.728 1067.1523 C 862.3443 1067.1006 862.10663 1068.0089 862.5366 1070.0507 C 862.88404 1071.7007 863.50672 1077.5507 863.92136 1083.0507 C 864.33599 1088.5507 864.93895 1095.0227 865.25925 1097.4316 C 866.65423 1107.9237 867.45757 1113.1839 867.95261 1115.0507 C 868.24432 1116.1507 868.84057 1120.7555 869.27683 1125.2832 C 869.71307 1129.8108 870.34315 1134.9114 870.67722 1136.6171 C 871.0113 1138.3228 871.65186 1142.4187 872.10105 1145.7187 C 872.55025 1149.0187 873.15091 1152.9181 873.43504 1154.3847 C 873.71919 1155.8514 874.31788 1159.7507 874.76707 1163.0507 C 875.21627 1166.3507 875.76597 1170.0115 875.98777 1171.1835 C 876.20958 1172.3555 876.79479 1176.4954 877.28855 1180.3847 C 877.78231 1184.2741 878.38297 1188.4747 878.62254 1189.7187 C 878.86211 1190.9627 879.46276 1195.1614 879.95652 1199.0507 C 880.45028 1202.94 881.04897 1207.1407 881.28855 1208.3847 C 881.52812 1209.6287 882.12878 1213.8293 882.62254 1217.7187 C 883.1163 1221.608 883.71386 1225.7958 883.95066 1227.0253 C 884.86389 1231.7674 886.4093 1252.1386 886.51316 1260.8007 C 886.63582 1271.0303 886.10041 1270.4389 901.28855 1277.1289 C 905.68855 1279.0669 911.68921 1281.7614 914.62254 1283.1152 C 923.71092 1287.31 934.52798 1292.0096 936.62254 1292.6738 C 939.59261 1293.6156 940.52568 1289.6768 939.08543 1282.2832 C 937.77152 1275.5382 938.33712 1264.3815 941.24363 1239.7187 C 941.58931 1236.7853 942.22273 1231.084 942.64988 1227.0507 C 943.07702 1223.0174 943.66015 1218.2181 943.94675 1216.3847 C 944.23335 1214.5514 944.77989 1210.652 945.1616 1207.7187 C 945.54331 1204.7853 946.17605 1199.984 946.56589 1197.0507 C 946.95575 1194.1174 947.59994 1189.0187 947.99754 1185.7187 C 948.39515 1182.4187 948.96866 1178.2181 949.27293 1176.3847 C 949.57721 1174.5514 950.17373 1170.0514 950.5991 1166.3847 C 951.02448 1162.7181 951.60999 1158.2181 951.89988 1156.3847 C 952.48643 1152.6752 953.3707 1145.3673 954.80222 1132.3847 C 955.88802 1122.5376 956.13035 1102.6922 955.22605 1097.748 C 954.75042 1095.1476 953.20394 1093.9857 947.95652 1092.2871 C 939.67753 1089.607 930.84112 1087.1196 929.95652 1087.2207 C 929.58986 1087.2627 926.88986 1086.4123 923.95652 1085.33 C 918.77165 1083.417 908.35135 1080.3831 906.30418 1080.1914 C 905.74608 1080.1394 903.1892 1079.3466 900.62254 1078.4296 C 894.96225 1076.4074 884.73836 1073.2709 876.62254 1071.0683 C 873.32254 1070.1726 869.24453 1068.9029 867.56004 1068.246 C 865.80164 1067.5602 864.55823 1067.1833 863.728 1067.1523 z M 875.38035 1284.625 C 873.44139 1284.5624 872.0069 1285.5005 869.4155 1287.3847 C 862.32388 1292.5412 848.52196 1298.1963 839.28855 1299.7285 C 836.72188 1300.1544 832.90261 1300.7963 830.80027 1301.1562 C 828.69794 1301.5161 824.94076 1301.8888 822.45066 1301.9824 C 819.96056 1302.0764 817.40893 1302.804 816.78074 1303.6015 C 815.36094 1305.4039 807.86993 1336.1239 808.69089 1336.7773 C 809.01964 1337.039 818.74797 1339.7022 830.30808 1342.6972 L 851.32566 1348.1425 L 856.30808 1345.7089 C 859.04796 1344.3702 862.78921 1342.6996 864.62254 1341.996 C 866.45586 1341.2924 869.53215 1340.0881 871.45847 1339.3203 C 875.2413 1337.8126 888.48739 1337.9869 891.06199 1339.5781 C 893.34836 1340.9912 896.82994 1348.1839 897.53269 1352.9472 C 898.26674 1357.9226 900.82083 1360.053 908.31199 1361.9433 C 911.44113 1362.7329 914.32661 1363.9057 914.7241 1364.5488 C 915.68681 1366.1065 919.28855 1366.0512 919.28855 1364.4785 C 919.28855 1363.7963 921.12796 1359.1457 923.37449 1354.1445 C 925.62102 1349.1434 927.95972 1343.8514 928.57175 1342.3847 C 929.18377 1340.9181 930.59925 1337.6174 931.71824 1335.0507 C 933.71639 1330.4674 938.35307 1312.2382 937.64793 1311.7382 C 937.04445 1311.3103 919.66198 1303.493 909.62254 1299.1347 C 900.42003 1295.1397 892.96994 1291.8146 884.37254 1287.8671 C 879.76308 1285.7507 877.31931 1284.6875 875.38035 1284.625 z M 797.8198 1303.4414 C 796.91355 1303.4203 795.66355 1303.4968 794.28855 1303.6777 C 791.53855 1304.0396 782.98854 1304.6537 775.28855 1305.041 C 759.87566 1305.8162 755.04996 1306.4545 745.28855 1309.0175 C 740.9526 1310.156 732.62254 1315.8277 732.62254 1317.6406 C 732.62254 1318.2563 737.2732 1319.9994 742.95652 1321.5156 C 752.65459 1324.1027 756.21617 1324.918 764.77879 1326.5078 C 766.69848 1326.8643 773.29979 1328.5522 779.44675 1330.2578 C 785.59372 1331.9634 791.0302 1332.99 791.52879 1332.539 C 792.02738 1332.088 793.97803 1325.6087 795.86277 1318.1425 C 797.74752 1310.6763 799.28855 1304.2207 799.28855 1303.7949 C 799.28855 1303.582 798.72605 1303.4624 797.8198 1303.4414 z "
         transform="translate(-182.30027,-63.175735)" />
      <path
         style="display:inline;fill:#cccccc;stroke-width:1.33333"
         d="m 952.59954,1084.0517 c -0.012,-0.1833 -1.2342,-4.8333 -2.71474,-10.3333 -3.75042,-13.9324 -3.62478,-13.482 -5.20669,-18.6667 -1.31055,-4.2953 -5.69183,-24.9306 -7.64352,-36 -0.45255,-2.5667 -0.84195,-9.8381 -0.86536,-16.1587 -0.0499,-13.45681 2.49535,-21.61707 9.42093,-30.20534 7.92822,-9.83157 34.53703,-35.77569 50.44703,-49.18691 3.6219,-3.05298 8.08521,-6.85508 9.91851,-8.44909 1.8334,-1.59401 6.0334,-5.19401 9.3334,-8 11.2464,-9.56287 12.6728,-10.82653 24.5427,-21.74379 6.5318,-6.00758 12.9818,-11.7069 14.3333,-12.66514 3.5586,-2.52312 3.1568,-3.23468 -3.876,-6.86391 -11.5987,-5.98543 -18.2307,-11.08448 -30.3334,-23.32216 -13.4254,-13.57521 -13.4972,-13.6624 -22.42221,-27.21875 -9.3359,-14.18072 -15.865,-26.2056 -22.1817,-40.85292 -1.5813,-3.66666 -3.4044,-7.86666 -4.0514,-9.33333 -0.647,-1.46667 -2.5642,-6.40787 -4.2605,-10.98043 -2.8013,-7.55129 -5.0842,-10.64644 -5.0842,-6.89321 0,2.27101 -15.59835,32.83469 -21.37047,41.87364 -1.40488,2.2 -3.75239,6.1 -5.21668,8.66667 -1.4643,2.56666 -5.39292,8.56666 -8.7303,13.33333 -3.33736,4.76667 -8.74316,12.56667 -12.01286,17.33333 -3.26971,4.76667 -7.90799,11.4722 -10.3073,14.90119 -4.17024,5.95996 -33.23561,49.64733 -36.68114,55.13444 -1.70426,2.71408 -14.42716,28.56151 -16.39018,33.29771 -1.06693,2.57421 -4.13434,11.93317 -4.80702,14.66666 -0.18047,0.73334 -0.72706,2.83334 -1.21464,4.66667 -1.44599,5.43692 -1.91472,26.54913 -0.66258,29.84255 0.6369,1.67513 1.5169,5.39585 1.95559,8.26824 0.43868,2.8724 1.38189,6.72254 2.09604,8.55588 0.71415,1.83333 2.23105,7.23337 3.37089,11.99997 1.13984,4.7667 2.32792,9.5667 2.64016,10.6667 2.97642,10.4856 5.6361,21.3334 5.23058,21.3334 -0.2754,0 0.0648,1.4874 0.75596,3.3053 0.69117,1.8179 1.40373,5.4888 1.58346,8.1576 0.35108,5.2131 0.85687,5.5817 11.76052,8.5709 3.3,0.9048 8.4,2.4052 11.33334,3.3344 2.93333,0.9291 8.03333,2.4291 11.33333,3.3333 3.3,0.9042 8.4,2.4042 11.33333,3.3333 2.93334,0.9292 8.03334,2.4292 11.33334,3.3334 3.3,0.9041 8.4,2.4041 11.33333,3.3333 2.93333,0.9291 8.03333,2.4243 11.33333,3.3225 3.3,0.8982 6.6,1.8128 7.33334,2.0326 1.83716,0.5505 3.33785,0.6759 3.31048,0.2767 z"
         transform="translate(-182.30027,-63.175735)"
         id="path373" />
      <path
         id="path385"
         style="display:inline;fill:#ff0000;stroke-width:1.33333"
         d="m 1147.7866,285.96675 c -0.6479,0.0963 -2.8581,1.15792 -5.3398,2.58399 -2.8362,1.62976 -8.1576,4.56083 -11.8243,6.51367 -3.6667,1.95284 -9.5167,5.14825 -13,7.10156 -3.4833,1.95332 -9.034,5.05144 -12.3339,6.88477 -3.3,1.83332 -8.7001,4.83463 -12,6.66796 -11.2063,6.2257 -17.3196,9.592 -24,13.2168 -6.5909,3.57616 -6.721,3.77519 -11.5665,17.5332 -2.6957,7.65388 -4.6673,13.91602 -4.3808,13.91602 0.2866,0 6.0913,-3.3891 12.9004,-7.53125 6.8091,-4.14215 15.3802,-9.26899 19.0469,-11.39258 7.0347,-4.07427 43.5049,-22.13681 57.7363,-28.5957 l 8.4023,-3.81445 -0.6758,-5.33204 c -1.2594,-9.9359 -2.4207,-17.33208 -2.7851,-17.73242 -0.025,-0.0274 -0.087,-0.0333 -0.1797,-0.0195 z m 9.709,37.08399 c -0.738,0 -5.5855,2.05261 -10.7735,4.56054 -5.188,2.50793 -16.3322,7.87769 -24.7656,11.9336 -17.7987,8.56004 -40.5848,20.8915 -42.9199,23.22656 -0.8877,0.8877 -2.0143,1.61328 -2.5039,1.61328 -1.0841,0 -17.2237,10.76191 -24.5762,16.38672 -15.2983,11.70359 -26.8575,27.06808 -48.3535,64.2793 -3.7812,6.54556 -10.61694,21.0759 -15.99414,34 -5.15529,12.39082 -10.96807,33.54299 -13.04687,47.4707 -0.4267,2.8584 -1.08424,6.69597 -1.46094,8.5293 -1.0349,5.03591 -2.2703,70.21769 -1.375,72.55078 0.696,1.81374 1.39707,1.81854 6.50586,0.0391 3.1486,-1.09671 14.72461,-4.93597 25.72459,-8.53125 27.3383,-8.9353 28.6362,-9.50725 28.8379,-12.68359 0.095,-1.48922 0.3015,-4.20769 0.459,-6.04102 0.1575,-1.83333 0.72,-8.43268 1.25,-14.66602 0.5299,-6.23332 1.1998,-14.03398 1.4883,-17.33398 0.2884,-3.3 0.8626,-9.89935 1.2773,-14.66602 0.7492,-8.61092 1.7652,-17.61837 2.7071,-24 0.2706,-1.83332 0.8363,-5.758 1.2578,-8.7207 0.4215,-2.96269 1.0548,-6.86205 1.4062,-8.66601 0.3514,-1.80398 1.0201,-5.3806 1.4863,-7.94727 6.3963,-35.21401 21.1708,-66.80158 38.6719,-82.67969 25.2529,-22.91092 58.178,-24.75574 78.5313,-4.40234 18.2661,18.26612 24.8863,51.07991 16.3593,81.08203 -0.8337,2.93333 -1.6645,5.93268 -1.8457,6.66602 -0.5813,2.35188 -9.581,29.21399 -10.9453,32.66796 -1.5886,4.02195 -5.5472,14.31197 -6.9238,18 -0.5474,1.46667 -1.6746,4.31537 -2.5059,6.33204 -0.8315,2.01665 -2.1124,5.16666 -2.8457,7 -0.7333,1.83332 -1.9326,4.83464 -2.666,6.66796 -0.7333,1.83334 -2.0143,4.98335 -2.8457,7 -0.8315,2.01667 -1.9512,4.86537 -2.4883,6.33204 -0.5371,1.46665 -1.7364,4.46797 -2.666,6.66796 -0.9295,2.2 -2.2105,5.35001 -2.8457,7 -2.1313,5.53615 -3.4807,8.97546 -5.0019,12.75586 -0.8313,2.06577 -3.6735,10.16578 -6.3164,18 -5.3664,15.90779 -6.823,19.04652 -13.7071,29.54493 -9.1353,13.93153 -18.8909,24.5724 -24.4843,26.70312 -2.3713,0.90329 -6.1126,2.42821 -8.3125,3.38867 -2.2,0.96044 -10.5994,3.25892 -18.6661,5.10938 -16.3489,3.75036 -22.4214,4.8814 -36.666,6.83008 -3.3,0.45143 -7.8,1.12772 -10,1.50195 -2.2,0.37423 -6.0514,0.94924 -8.5586,1.27734 -5.0476,0.6605 -11.02955,1.60872 -16.10935,2.55469 -1.8334,0.3414 -5.4334,0.98691 -8,1.43359 -2.5667,0.4467 -5.39942,0.93989 -6.29492,1.09571 -2.7084,0.47134 -3.14992,1.53376 -3.69922,8.91211 -0.5692,7.64527 -1.86213,16.28624 -3.07812,20.55859 -1.5192,5.33792 -0.79322,16.11119 1.39257,20.66602 1.2318,2.56665 3.228,7.66731 4.4375,11.33398 2.1269,6.44731 3.73786,10.16673 12.40625,28.66602 9.61509,20.5195 20.60089,36.51216 34.80669,50.66796 12.3088,12.26558 21.3916,18.79752 36.6972,26.39063 12.3416,6.12262 15.6964,7.27659 26.666,9.16992 2.2,0.37971 4.1599,0.84345 4.3555,1.03125 0.9929,0.95332 21.0094,0.2964 25.9512,-0.85156 23.3476,-5.42348 44.4465,-26.39364 57.0742,-56.72656 4.5933,-11.03372 4.5682,-14.86717 -0.168,-25.27344 -1.4001,-3.07643 -2.5468,-6.40682 -2.5468,-7.40039 0,-0.99356 -0.5438,-2.37755 -1.209,-3.07422 -0.6651,-0.69666 -1.8346,-3.36693 -2.5996,-5.93359 -0.7651,-2.56667 -3.2682,-9.76668 -5.5625,-16 -3.7533,-10.19743 -8.2702,-25.72799 -10.0801,-34.66602 -0.3712,-1.83333 -1.214,-5.43333 -1.8731,-8 -4.1265,-16.0689 -4.5977,-61.39916 -0.8398,-80.66602 0.2861,-1.46666 0.9636,-5.94104 1.5058,-9.94336 0.8828,-6.51609 4.2674,-18.81662 7.17,-26.05664 0.588,-1.46666 9.0627,-18.86798 18.834,-38.66796 9.7712,-19.79999 18.3477,-37.49871 19.0566,-39.33204 0.709,-1.83333 1.7866,-4.53334 2.3965,-6 2.7163,-6.53203 7.6853,-23.73475 10.0137,-34.66796 2.3851,-11.19996 3.1427,-36.26721 1.4511,-48 -1.7833,-12.36899 -2.5226,-15.98984 -3.7285,-18.24415 -0.6606,-1.23511 -1.2012,-3.24412 -1.2012,-4.46484 0,-3.55075 -12.544,-30.23654 -19.4101,-41.29101 -1.822,-2.93333 -3.689,-6.23204 -4.1485,-7.33204 -0.4596,-1.1 -2.2847,-3.96146 -4.0566,-6.35742 -4.9389,-6.67859 -14.1632,-20.67776 -16.2773,-24.70508 -1.0406,-1.98234 -2.4963,-3.60546 -3.2344,-3.60546 z M 1126.06,391.8105 c -9.9976,0.0805 -12.5514,0.62505 -20.289,4.33008 -18.4765,8.84724 -31.7031,24.13216 -41.1719,47.57812 -4.9242,12.19305 -9.9313,28.19353 -11.2656,36 -0.376,2.2 -0.9952,5.49871 -1.377,7.33204 -1.9646,9.434 -3.9337,23.26993 -5.3359,37.5 -0.4608,4.67569 -1.0733,10.6013 -1.3613,13.16796 -0.2879,2.56666 -0.8737,9.16602 -1.3028,14.66602 -0.429,5.49999 -1.0189,12.09935 -1.3105,14.66602 -0.2916,2.56666 -0.9122,9.75009 -1.3789,15.96093 -0.4667,6.21086 -1.1264,11.7395 -1.4649,12.28711 -0.3384,0.54762 -9.4418,3.77794 -20.2304,7.17774 -10.7888,3.39978 -28.31598,9.06316 -38.94926,12.58593 -17.94279,5.94436 -35.56204,10.90641 -44.34571,12.48829 -2.02295,0.36432 -4.72295,0.97798 -6,1.36328 -1.27704,0.38529 -3.82097,0.98913 -5.65429,1.34375 -2.82807,0.54701 -12.49275,2.5043 -26.66602,5.40039 -6.46705,1.32144 -10.04226,2.01251 -14,2.70508 -10.36439,1.81366 -12.08006,2.24702 -13.17188,3.33203 -0.67069,0.66651 0.26977,5.33303 2.20118,10.92773 1.85371,5.36962 5.91482,17.6843 9.02539,27.36719 5.22232,16.25666 7.31245,19.8308 10.67187,18.25 0.40001,-0.18823 3.70067,-0.68441 7.33399,-1.10352 3.63331,-0.41911 7.80481,-0.99305 9.27148,-1.27539 1.46666,-0.28233 5.36797,-0.88088 8.66797,-1.33008 3.3,-0.44919 7.47533,-1.10598 9.2793,-1.45898 1.80398,-0.35299 5.42734,-0.96195 8.05273,-1.35352 2.62538,-0.39158 6.22538,-0.99222 8,-1.33398 1.77461,-0.34176 5.37461,-0.94242 8,-1.33398 2.62538,-0.39157 6.2254,-0.99028 8,-1.33204 1.7746,-0.34176 5.65059,-0.96107 8.61328,-1.37695 2.9627,-0.41588 6.38848,-1.05138 7.61328,-1.41211 2.7684,-0.81539 6.91913,-1.62194 13.10743,-2.54492 2.62539,-0.39157 6.00828,-0.94957 7.51757,-1.24023 1.5093,-0.29066 5.92709,-0.93203 9.81639,-1.42579 3.8894,-0.49376 8.3306,-1.14535 9.8692,-1.44726 1.5387,-0.30191 5.4968,-0.91605 8.7968,-1.36524 3.3,-0.4492 6.9,-0.97884 8,-1.17773 1.1,-0.1989 4.7,-0.80416 8,-1.34375 3.3,-0.53958 7.1994,-1.22017 8.6661,-1.51367 1.4665,-0.29348 4.6823,-0.87174 7.1464,-1.28321 5.978,-0.99819 25.1379,-7.45016 30.3672,-10.22656 2.2986,-1.22037 6.4974,-4.98059 9.3321,-8.35547 2.8348,-3.37489 6.3968,-7.62047 7.914,-9.43554 4.1798,-5.00047 12.0488,-21.30451 15.6973,-32.51953 1.7893,-5.5 3.9942,-11.80001 4.8984,-14 0.9042,-2.2 2.1086,-5.19935 2.6778,-6.66602 0.5692,-1.46666 6.7146,-17.06603 13.6562,-34.66602 15.285,-38.75378 13.9975,-35.44488 17.9082,-46 3.073,-8.29409 9.2036,-27.42078 10.3652,-32.33789 0.3039,-1.28609 0.8378,-2.80053 1.1856,-3.36328 1.3559,-2.19396 2.7266,-13.40562 2.7266,-22.29883 0,-14.83797 -1.9606,-22.87333 -8.7872,-36 -4.6371,-8.91638 -10.9053,-15.31983 -19.6503,-20.07226 -6.4685,-3.51517 -8.4338,-3.91838 -18.6661,-3.83594 z"
         transform="translate(-182.30027,-63.175735)" />
      <path
         id="path417"
         style="display:inline;fill:#fff6d5;stroke-width:1.33333"
         d="m 1153.6401,208.52339 c -0.1617,-0.007 -0.4122,0.15305 -0.7461,0.35938 -0.5836,0.36072 -10.0336,1.06286 -21,1.56054 -10.9663,0.49769 -22.2998,1.02443 -25.1855,1.16993 l -5.2461,0.26562 -17.7539,53.24023 c -9.7643,29.28242 -17.752,53.69699 -17.752,54.25391 0,1.73548 2.7726,1.11611 6.461,-1.44336 1.9465,-1.35074 5.339,-3.37443 7.539,-4.49609 4.2903,-2.18736 12.554,-6.68038 24,-13.04883 3.9182,-2.18002 10.0197,-5.53692 13.5606,-7.45898 3.5409,-1.92208 9.1394,-5.02197 12.4394,-6.88868 3.3,-1.8667 8.3025,-4.58955 11.1172,-6.05273 2.8147,-1.46319 5.3253,-3.32284 5.5801,-4.13086 0.2549,-0.80801 0.7496,-9.86813 1.0996,-20.13477 0.35,-10.26665 0.9895,-20.31731 1.4199,-22.33398 0.4305,-2.01666 1.0416,-5.01602 1.3594,-6.66602 0.3178,-1.64998 1.2178,-6.23155 2,-10.18164 1.2763,-6.44564 1.5926,-7.99162 1.1074,-8.01367 z m -31.1269,3.94922 c 3.6358,-0.0624 6.7234,0.95024 9.3339,3.03906 3.4969,2.79811 3.9175,3.97764 4.168,11.66016 0.4611,14.13724 -5.4428,26.38076 -16.8515,34.94726 -5.7695,4.33212 -14.555,5.09795 -14.5215,1.26563 0.03,-3.4367 1.5582,-5.15361 5.4297,-6.09961 8.741,-2.13582 16.4971,-13.6406 18.039,-26.75977 0.8313,-7.07275 0.7228,-7.43545 -2.7324,-9.00976 -2.968,-1.35228 -4.6374,-1.25608 -9.502,0.54687 -5.6314,2.08716 -5.9613,2.0726 -7.2441,-0.32421 -2.1632,-4.04201 -1.6586,-4.87059 4.3672,-7.17188 3.5246,-1.34607 6.6858,-2.04521 9.5137,-2.09375 z m -40.1641,0.68164 c -3.018,-0.0301 -9.7808,0.3143 -24.3926,1.14258 -4.7666,0.2702 -11.3681,0.57098 -14.6679,0.66797 l -6,0.17578 3.1484,2.62305 c 1.7312,1.44224 3.8672,2.62109 4.748,2.62109 0.8809,0 2.9227,1.78706 4.5371,3.9707 l 2.9356,3.97071 -4.3516,-0.82618 c -2.3932,-0.4536 -5.3606,-1.33871 -6.5957,-1.96875 -4.5187,-2.30496 -6.0268,-1.36441 -5.6972,3.55469 0.1868,2.78761 -0.5748,5.79727 -1.8711,7.39453 -4.4432,5.47477 -9.085,-2.96313 -6.3575,-11.55664 0.7267,-2.28976 -9e-4,-3.17176 -4.1406,-4.99414 -2.7623,-1.21734 -6.4633,-2.362 -8.2246,-2.54492 -3.5811,-0.37194 -3.9186,0.41705 -7.5683,17.66602 -1.1638,5.49998 -2.3717,11.20131 -2.6836,12.66796 -1.0093,4.74673 -3.2981,16.39963 -3.7969,19.33204 -0.4582,2.69369 9.5415,6.69767 17.5859,7.04101 0.9167,0.0391 1.7575,1.32183 1.8692,2.84961 0.1117,1.52778 0.3414,3.37605 0.5117,4.10938 0.1704,0.73331 0.3802,2.98333 0.4648,5 0.1044,2.48777 0.8748,3.66796 2.3985,3.66796 2.6589,0 13.5046,-4.96159 16.5742,-7.58203 1.8744,-1.60017 2.4457,-1.38647 4.4355,1.65039 2.1699,3.31159 2.1638,3.58221 -0.1504,5.41407 -3.9255,3.10718 -15.5159,8.57977 -18.7402,8.84765 -2.6966,0.22402 -2.8912,0.74122 -2.1172,5.625 0.9757,6.15628 3.9857,13.99222 5.4375,14.1543 3.0045,0.33541 8.9783,1.44312 9.25,1.71484 0.1741,0.17411 2.5864,0.44966 5.3594,0.61328 l 5.041,0.29688 17.666,-53.05274 c 9.7161,-29.17892 17.666,-53.39473 17.666,-53.8125 0,-0.26434 -0.4626,-0.41555 -2.2734,-0.43359 z m -220.56446,429.64258 -6.24804,0.7832 c -3.43623,0.43085 -7.6591,1.06523 -9.38477,1.41016 -1.72566,0.34492 -5.85016,0.94621 -9.16406,1.33594 -3.31389,0.38975 -8.20089,1.99647 -10.86133,3.57031 -6.38177,3.77529 -15.11374,9.48629 -17.05469,11.1543 -0.85331,0.73331 -3.30002,2.66802 -5.43554,4.29882 -2.13553,1.63079 -5.39301,4.33079 -7.23828,6 -6.99794,6.33015 -11.37466,9.91192 -19.77539,16.17774 -9.82411,7.32746 -10.78252,8.98365 -8.98438,15.52344 4.11517,14.96673 21.47924,32.97987 35.27734,36.59375 l 6.37305,1.66796 6.66797,-6.79687 c 3.66667,-3.73845 9.45948,-8.89819 12.87305,-11.46484 3.41356,-2.56667 8.76179,-8.56538 11.88476,-13.33204 21.15472,-32.28878 19.67408,-30.53358 25.03906,-29.71093 2.67809,0.41065 5.61849,1.33721 6.53516,2.05859 2.40672,1.89396 2.16639,0.72301 -2.91992,-14.21289 -2.52275,-7.40795 -5.26155,-16.07508 -6.08594,-19.26172 z"
         transform="translate(-182.30027,-63.175735)" />
      <path
         style="display:inline;fill:#cccccc;stroke-width:1.33333"
         d="m 1120.6224,97.881159 c 0,-2.463955 -3.9907,-10.311744 -6.9294,-13.626612 -5.8122,-6.556439 -18.5055,-8.250916 -25.417,-3.393018 -5.803,4.078766 -7.2524,5.580662 -10.7576,11.146563 l -3.5411,5.6231 14.9892,0.425225 c 8.2441,0.233875 18.7392,0.55348 23.3226,0.710235 4.5833,0.156755 8.3333,-0.241717 8.3333,-0.885493 z"
         transform="translate(-182.30027,-63.175735)"
         id="path423" />
      <path
         style="display:inline;fill:#ff0000;stroke-width:1.33333"
         d="m 969.95569,203.72599 c 10.6334,-0.45245 23.2334,-1.05389 28,-1.33653 4.76671,-0.28264 15.56671,-0.86137 24.00001,-1.28608 8.4334,-0.42471 21.3334,-1.07392 28.6667,-1.44269 7.3333,-0.36878 18.4333,-0.94838 24.6667,-1.28799 6.2333,-0.3396 17.0333,-0.90157 24,-1.24881 54.9047,-2.73658 61.5037,-3.12648 62.0206,-3.66447 0.2155,-0.22427 0.7381,-2.50776 1.1614,-5.07443 0.4233,-2.56666 1.1202,-6.16666 1.5487,-8 0.933,-3.99152 1.0455,-27.55333 0.1496,-31.33333 -1.6755,-7.0692 -6.708,-18.25521 -10.1763,-22.61958 -4.9474,-6.2255 -8.1128,-8.67325 -18.8461,-14.573 l -8.7461,-4.80742 h -32.0597 c -35.1357,0 -35.8796,0.13092 -48.9841,8.62044 -10.7813,6.98448 -23.1049,19.96539 -29.8807,31.47445 -2.5972,4.41155 -9.6733,18.60541 -15.0269,30.14252 -2.56791,5.53387 -3.13791,5.8745 -12.93361,7.72904 -1.7086,0.32347 -4.1086,0.89182 -5.3334,1.26299 -1.2247,0.37117 -4.2763,1.02248 -6.7812,1.44735 -2.505,0.42486 -4.905,0.98706 -5.3334,1.24933 -0.4283,0.26225 -2.8788,0.82169 -5.4455,1.2432 -2.5667,0.42149 -6.6278,1.34213 -9.02467,2.04585 -2.39689,0.70372 -4.79689,1.2146 -5.33333,1.13528 -0.53643,-0.0793 -2.57996,2.20939 -4.54116,5.086 -3.16412,4.641 -3.31432,5.33087 -1.33333,6.12368 1.22786,0.4914 3.13249,0.67823 4.23249,0.41516 1.1,-0.26308 10.7,-0.8485 21.3333,-1.30096 z"
         transform="translate(-182.30027,-63.175735)"
         id="path421" />
    </g>
  </g>
</svg>
