<?xml version="1.0" encoding="UTF-8" standalone="no"?>
<!-- Created with Inkscape (http://www.inkscape.org/) -->

<svg
   version="1.1"
   id="svg1"
   width="1310.3096"
   height="2113.1519"
   viewBox="0 0 1310.3096 2113.1519"
   sodipodi:docname="78c.svg"
   inkscape:version="1.3.2 (091e20ef0f, 2023-11-25)"
   xmlns:inkscape="http://www.inkscape.org/namespaces/inkscape"
   xmlns:sodipodi="http://sodipodi.sourceforge.net/DTD/sodipodi-0.dtd"
   xmlns="http://www.w3.org/2000/svg"
   xmlns:svg="http://www.w3.org/2000/svg">
  <defs
     id="defs1" />
  <sodipodi:namedview
     id="namedview1"
     pagecolor="#ffffff"
     bordercolor="#000000"
     borderopacity="0.25"
     inkscape:showpageshadow="2"
     inkscape:pageopacity="0.0"
     inkscape:pagecheckerboard="0"
     inkscape:deskcolor="#d1d1d1"
     showgrid="false"
     inkscape:zoom="0.1866066"
     inkscape:cx="664.49955"
     inkscape:cy="452.82429"
     inkscape:window-width="1920"
     inkscape:window-height="1011"
     inkscape:window-x="0"
     inkscape:window-y="0"
     inkscape:window-maximized="1"
     inkscape:current-layer="layer1" />
  <g
     inkscape:groupmode="layer"
     id="layer1"
     inkscape:label="Layer 1"
     transform="translate(-96.379887,-159.24926)"
     style="fill:#0000ff">
    <path
       style="fill:#000000"
       d="m 732,2272.2727 c -53.12918,-2.1953 -101.43477,-33.3516 -125.25603,-80.7879 -10.40703,-20.724 -14.6708,-37.6981 -15.44815,-61.4992 -0.61255,-18.7553 0.92355,-31.7413 5.62538,-47.5562 l 2.74476,-9.2322 -6.58298,-0.6699 c -35.07258,-3.5691 -70.04918,-21.0413 -93.45193,-46.6831 -23.5681,-25.8229 -36.363,-56.1473 -39.17419,-92.8442 -1.17734,-15.3688 2.74012,-41.9698 8.35821,-56.7554 l 1.93469,-5.0917 -6.12488,-2.643 c -23.08252,-9.9605 -47.37178,-30.3778 -61.81703,-51.9627 -11.4897,-17.1685 -18.61851,-34.149 -22.90019,-54.5472 -2.9048,-13.8386 -3.17775,-39.7644 -0.56853,-54 2.03007,-11.0758 8.20939,-30.1817 12.5293,-38.7394 l 3.01546,-5.9736 -9.43548,-0.6632 c -38.20775,-2.6857 -71.45747,-18.1772 -97.70237,-45.5206 -19.19273,-19.9961 -31.78301,-43.612 -37.90703,-71.1032 -2.02405,-9.0861 -2.33901,-13.1931 -2.33901,-30.5 0,-15.5165 0.40629,-21.9055 1.81237,-28.5 2.51358,-11.7886 7.81884,-27.3165 12.5436,-36.7135 l 3.97753,-7.911 -16.70301,0.4346 c -28.91518,0.7523 -48.18853,-3.3708 -72.53756,-15.5177 -39.84891,-19.8793 -68.4282,-57.2535 -78.220958,-102.2924 -2.625487,-12.0752 -2.664126,-45.8261 -0.06626,-57.8747 10.780408,-49.9986 44.245188,-90.1146 90.554688,-108.5526 4.75178,-1.892 9.91826,-3.7539 11.48107,-4.1377 3.25524,-0.7993 3.32422,0.015 -1.24564,-14.7074 -8.52966,-27.4797 -7.98564,-61.3506 1.43621,-89.4178 11.40691,-33.9806 37.27483,-64.83595 68.87095,-82.14954 33.51676,-18.36604 75.08727,-23.06744 111.26521,-12.58348 30.83814,8.93654 58.79016,27.99142 77.26751,52.67322 2.36752,3.1625 4.46986,5.75 4.67186,5.75 0.20201,0 1.99709,-3.2625 3.98907,-7.25 11.39879,-22.81782 32.75727,-45.75092 54.90336,-58.95101 19.83937,-11.82518 42.12745,-19.06762 63.43832,-20.61408 l 9.43832,-0.68491 6.06168,-12.00647 c 7.24723,-14.35471 14.07511,-24.4201 23.51493,-34.66476 l 6.99066,-7.58668 -13.72916,-18.87104 C 593.64761,820.97746 573.96427,796.09323 514.17492,723.10521 475.44028,675.8198 468.47625,667.1034 469.10877,666.69898 c 0.21518,-0.13758 3.99123,-1.74072 8.39123,-3.56255 4.4,-1.82182 11.69036,-4.86267 16.20079,-6.75745 4.93174,-2.07175 10.71252,-3.67959 14.50174,-4.03343 11.83257,-1.10494 26.09966,4.37358 41.99154,16.12462 l 8.43059,6.2339 14.74829,28.25596 c 26.16361,50.12634 47.08388,87.32925 71.76677,127.62418 l 12.91526,21.08421 9.75903,-4.76962 c 11.29596,-5.52076 21.48075,-9.1022 33.16261,-11.66147 l 8.27096,-1.81201 -7.37379,-5.90403 C 609.09797,753.23785 560.02063,653.24434 560.02063,538.5 c 0,-52.77805 9.52272,-102.21656 30.66541,-159.20374 l 7.49575,-20.20375 13.29765,12.2616 c 9.30112,8.57645 15.24642,13.22097 19.78182,15.45374 8.30646,4.08926 9.17642,4.0832 8.3042,-0.0578 -3.16141,-15.00952 -3.89956,-21.55927 -3.85992,-34.25 0.0808,-25.85932 5.92996,-44.3071 21.92603,-69.15265 l 5.86843,-9.11502 10.3112,9.27669 c 14.47737,13.02486 26.599,18.43779 41.3753,18.4762 l 5.68651,0.0148 5.65686,-8.50174 C 733.57754,282.90627 738.3884,271.71624 742.00638,257.5 746.69805,239.06488 747.5,229.6128 747.5,192.75019 c 0,-18.5624 0.32064,-33.6374 0.71254,-33.5 0.3919,0.1374 8.92661,6.32481 18.96603,13.74981 36.27412,26.82779 53.96568,48.42316 63.85749,77.94824 8.77041,26.17793 9.46231,64.17759 1.90122,104.41631 -1.12283,5.9755 -1.83046,11.0756 -1.57251,11.33356 0.73509,0.73508 8.59005,-3.00339 18.04763,-8.58956 4.75693,-2.8097 8.99894,-5.10855 9.42669,-5.10855 1.15109,0 8.99093,22.40534 10.67224,30.5 0.79967,3.85 1.4679,9.25 1.48496,12 0.0651,10.49887 0.88616,10.40186 5.97902,-0.70648 C 905.36766,332.86531 936.83445,290.31281 979.5,256.14948 l 14,-11.21014 0.67588,4.28033 c 0.37173,2.35418 0.74258,7.43033 0.82412,11.28033 0.0815,3.85 0.45239,8.93376 0.82412,11.29724 l 0.67588,4.29724 8,-7.19681 c 26.5493,-23.88383 54.7822,-43.07201 85.9569,-58.41969 C 1102.041,204.775 1149.9428,184 1151.5083,184 c 0.1604,0 -2.0882,7.3125 -4.9968,16.25 -6.448,19.81321 -7.0446,22.18538 -5.2982,21.06498 0.7077,-0.454 7.5419,-4.98226 15.1871,-10.06281 15.9168,-10.57724 39.2928,-22.4586 54.5996,-27.75141 C 1231.3169,176.47558 1255.0169,172 1271.9012,172 h 7.7989 l 5.0754,5.83535 c 17.1909,19.76483 27.9078,41.07876 33.425,66.47624 3.1996,14.72865 3.1777,47.34134 -0.044,66.18841 -2.7295,15.96602 -8.3537,39.36406 -15.0783,62.72952 -2.7928,9.70401 -5.0778,18.13076 -5.0778,18.72611 0,3.01989 17.7477,-4.32529 30.1292,-12.46946 14.9788,-9.85263 29.077,-18.61369 29.4111,-18.27702 0.8533,0.85999 7.4856,23.15845 8.3948,28.22451 2.8142,15.68059 0.3487,32.63091 -6.8095,46.81634 -2.1509,4.2625 -3.6973,7.75 -3.4364,7.75 0.2608,0 3.1937,-1.5938 6.5174,-3.54179 3.3237,-1.94798 6.2204,-3.36451 6.4371,-3.14785 0.2167,0.21667 1.8198,5.97297 3.5625,12.79179 2.8864,11.29379 3.1742,13.82269 3.2312,28.39785 0.072,18.44806 -0.969,23.38699 -8.0112,38 -5.4024,11.21062 -12.0961,20.10027 -22.5154,29.90198 -4.8911,4.60115 -7.4116,7.59802 -6.3903,7.59802 0.9276,0 10.0008,-2.73913 20.1627,-6.08695 10.1619,-3.34783 18.679,-5.88423 18.9267,-5.63646 0.7609,0.76086 -13.4541,39.29766 -18.7587,50.85506 -12.3337,26.87157 -26.687,48.6342 -45.1735,68.49261 -6.5493,7.03531 -23.004,21.19806 -31.0405,26.71689 -4.0152,2.75739 -4.0488,2.8256 -1.1372,2.31361 1.65,-0.29014 9.8526,-1.76611 18.2279,-3.27992 8.3753,-1.51381 15.4303,-2.55 15.6776,-2.30265 1.1936,1.19359 3.6683,24.73761 3.6712,34.92781 0,11.7098 -1.4886,20.0283 -4.7093,26.25648 -0.9127,1.76489 -1.2066,3.29713 -0.6669,3.47701 4.0935,1.36452 32.4817,15.98552 39.2995,20.24078 23.0079,14.36014 39.1934,30.85777 46.4548,47.35075 2.3364,5.30676 7.9551,27.59846 7.1573,28.39624 -0.2443,0.24427 -5.2851,-0.0431 -11.2018,-0.63857 -14.5284,-1.4622 -29.7409,-1.33248 -42.4689,0.36214 -11.1504,1.48458 -33.9547,6.51565 -33.9222,7.48391 0.011,0.31419 2.8963,2.25347 6.4128,4.3095 11.3635,6.64395 25.7558,18.07694 41.9406,33.31684 l 15.8249,14.90101 -23.4071,4.63102 c -46.0099,9.10294 -80.4062,20.99861 -142.7869,49.38166 -12.923,5.87996 -23.6239,10.81833 -23.7798,10.97416 -0.1558,0.15583 2.762,2.25742 6.4841,4.6702 35.1724,22.80015 59.1742,59.52587 65.8694,100.78807 2.0153,12.4203 1.9614,35.4207 -0.1121,47.8729 -2.8039,16.8376 -11.3857,39.6353 -20.1412,53.5049 -1.3576,2.1505 -2.3233,4.0544 -2.1461,4.231 0.1772,0.1765 4.0819,1.2807 8.6771,2.4536 53.8339,13.741 95.1493,57.1361 107.6372,113.0555 2.2266,9.9703 3.1438,39.1207 1.5786,50.167 -6.7614,47.7168 -36.5431,89.4742 -79.3125,111.2056 -8.2245,4.1789 -21.3557,9.105 -32.4719,12.1818 -0.827,0.2288 -0.1412,2.6895 2.1516,7.7209 4.5962,10.0857 9.2317,24.9009 11.2582,35.982 2.3304,12.7429 2.31,39.0544 -0.04,51.2236 -9.2093,47.6951 -40.1091,87.9844 -82.7307,107.87 -18.3629,8.5674 -34.2524,12.4753 -54.1757,13.324 -7.5625,0.3222 -13.75,0.6905 -13.75,0.8187 0,0.1281 1.5265,4.9026 3.3922,10.6101 5.1496,15.7534 6.9823,27.8528 6.949,45.8772 -0.034,18.4142 -1.7955,29.5154 -7.3171,46.1123 -13.8935,41.7613 -45.3195,75.0007 -86.0241,90.9881 -4.675,1.8362 -8.577,3.3542 -8.671,3.3734 -0.094,0.019 0.6876,3.6329 1.7371,8.0305 7.6724,32.1508 3.2165,69.1001 -11.9774,99.3193 -15.28993,30.4102 -42.07913,55.7799 -73.11487,69.2409 -16.53893,7.1733 -37.5744,11.9231 -52.84046,11.9315 -6.53969,0 -7.31019,0.2004 -6.86386,1.754 0.27652,0.9625 1.6824,5.7495 3.12417,10.6379 9.68837,32.8485 6.1876,71.3251 -9.48802,104.2818 -11.92912,25.0799 -36.02643,50.5218 -60.68609,64.0722 -24.29028,13.3474 -50.92955,19.6585 -78.21957,18.5308 z"
       id="path1" />
    <path
       id="path2"
       style="fill:#ff5555"
       d="M 744.49903 857.53246 L 732.49903 857.57348 C 718.46292 857.62258 709.1174 859.07112 695.99903 863.22973 C 684.47496 866.88293 672.65023 872.65001 673.28809 874.3059 C 673.98194 876.10715 693.1147 903.82076 703.45215 917.99926 C 720.15373 940.90655 722.49336 943.91688 723.62012 943.95824 C 724.23572 943.98084 729.53469 939.0344 735.39747 932.96606 C 753.95967 913.75301 763.37937 899.07358 768.51465 881.35278 C 770.49718 874.51146 770.76556 872.46622 769.76856 871.82543 C 769.07037 871.37669 763.09902 867.97729 756.49903 864.27074 L 744.49903 857.53246 z M 645.22168 893.86254 L 638.417 902.42309 C 632.29626 910.12156 621.99903 926.31359 621.99903 928.24145 C 621.99903 928.65839 623.01153 929.00179 624.24903 929.00317 C 632.08542 929.01217 660.89624 939.54338 671.98145 946.45239 C 674.99639 948.33148 677.63548 949.6968 677.84668 949.48559 C 678.05788 949.27439 675.40358 944.01556 671.94825 937.80004 C 665.67506 926.5157 652.19532 904.12425 647.63379 897.41137 L 645.22168 893.86254 z M 810.87793 899.27465 C 810.80433 899.26427 810.74492 899.26726 810.7002 899.28442 C 808.63293 900.07771 795.78407 915.69712 789.5459 924.99926 C 784.65259 932.29601 769.99903 960.2613 769.99903 962.30395 C 769.99903 963.51676 770.7138 963.11835 778.31153 957.66723 C 793.56215 946.7254 817.18958 936.87038 835.77442 933.69848 C 840.32487 932.92185 844.29409 932.03818 844.59668 931.73559 C 845.82591 930.50636 841.82218 925.14907 835.84473 920.0266 C 832.35538 917.03637 825.56296 911.03508 820.75098 906.68871 C 816.23975 902.61399 811.98199 899.43033 810.87793 899.27465 z M 596.42872 952.2141 C 584.37114 952.32969 572.11268 954.2415 559.99903 958.12621 C 523.5881 969.80278 492.89873 1000.8343 481.38965 1037.6106 L 478.85059 1045.7219 L 481.45801 1054.2688 C 482.89193 1058.9699 484.72534 1066.1197 485.53223 1070.1575 C 487.66903 1080.8506 488.45741 1102.8065 487.09864 1113.7922 L 485.94825 1123.0832 L 490.46387 1131.7922 C 498.06268 1146.4467 497.72899 1146.1974 511.08692 1147.0989 C 531.63291 1148.4857 548.48076 1153.0839 567.49903 1162.4934 C 579.44116 1168.402 596.17942 1180.4274 604.96582 1189.4114 C 609.67403 1194.2255 610.94999 1194.9993 614.1709 1194.9993 C 617.66959 1194.9993 618.30085 1194.4877 623.97754 1187.0305 C 632.1472 1176.2984 645.19336 1163.5682 655.78614 1155.9914 C 666.19909 1148.5432 685.24302 1138.9244 696.57325 1135.3918 L 704.76075 1132.8391 L 707.87989 1126.4407 C 709.59576 1122.9215 712.14191 1116.6388 713.53809 1112.4797 C 715.97612 1105.2169 716.05016 1104.3061 715.3877 1089.4563 C 714.93984 1079.4173 715.13781 1069.3486 715.95215 1060.7473 L 717.20606 1047.4993 L 714.00489 1037.4993 C 697.17902 984.93887 648.6782 951.71322 596.42872 952.2141 z M 863.05567 957.09887 C 860.99784 957.12346 858.81586 957.18501 856.49903 957.28246 C 803.17092 959.52561 757.60211 996.74863 744.38184 1048.8645 C 738.3819 1072.517 739.78812 1099.2729 748.18457 1121.2493 C 751.03872 1128.7196 751.26177 1128.9993 754.39551 1128.9993 C 760.68536 1128.9993 776.61752 1132.2325 787.41504 1135.7004 C 817.1642 1145.2551 845.4676 1166.2963 862.70411 1191.6711 C 865.81551 1196.2516 868.57553 1199.9993 868.83887 1199.9993 C 869.10221 1199.9993 873.85922 1195.5919 879.40918 1190.2043 C 899.85148 1170.36 925.30173 1157.0151 953.31153 1151.4524 C 961.88088 1149.7506 961.99039 1149.6897 964.90918 1145.1164 C 966.52981 1142.5772 969.42932 1137.3493 971.35254 1133.4993 C 974.75752 1126.6831 974.82089 1126.3418 973.76465 1120.4993 C 973.16806 1117.1993 972.67101 1107.7493 972.66114 1099.4993 C 972.64154 1083.1005 974.47167 1070.0263 978.63965 1056.7786 L 981.06934 1049.0579 L 978.47754 1041.2786 C 973.5767 1026.5684 965.92051 1012.7094 955.99903 1000.5832 C 952.72463 996.58117 949.86489 994.33457 945.49903 992.3352 C 928.45565 984.53013 906.829 972.54741 891.91895 962.6477 C 885.79521 958.58176 877.46049 956.92672 863.05567 957.09887 z M 340.542 975.97387 C 332.57306 975.96888 324.57665 976.48139 318.99903 977.51489 C 248.78499 990.52502 204.60955 1059.5436 222.47754 1128.3137 C 223.82534 1133.5011 225.95637 1140.0599 227.21387 1142.8899 L 229.49903 1148.0364 L 245.49903 1148.3957 C 269.41075 1148.9346 287.46749 1153.1817 307.49903 1162.9758 C 330.67691 1174.3083 351.76982 1192.3621 364.4795 1211.7493 C 367.4013 1216.2062 368.75974 1216.6757 373.72559 1214.9446 C 375.7663 1214.2332 378.88809 1211.0303 383.31739 1205.0989 C 396.5842 1187.3329 416.58548 1171.0421 437.54004 1160.9348 L 447.70801 1156.0305 L 451.24707 1148.2649 C 463.8537 1120.6007 465.60308 1087.5069 455.9795 1058.7825 C 441.86823 1016.6631 406.35765 985.98904 361.92676 977.54223 C 356.45408 976.50181 348.51093 975.97886 340.542 975.97387 z M 1161.8545 984.99926 C 1160.9421 984.99926 1153.9651 987.42298 1146.3486 990.38403 C 1108.532 1005.086 1079.9823 1011.6841 1049.7139 1012.72 L 1032.9268 1013.2961 L 1027.7998 1019.3977 C 1020.8858 1027.6287 1012.6526 1040.3567 1009.0518 1048.3821 C 995.41259 1078.7812 994.37845 1112.6529 1006.1533 1143.2297 C 1009.0398 1150.7253 1009.2563 1150.9889 1013.3154 1152.0051 C 1032.3561 1156.7721 1049.5241 1164.144 1063.499 1173.55 C 1079.0248 1184.0001 1094.3753 1199.3144 1103.7803 1213.7375 C 1106.8353 1218.4224 1109.1581 1220.9791 1110.3662 1220.9875 C 1111.3927 1220.9975 1114.7909 1218.6368 1117.917 1215.7493 C 1139.5543 1195.7636 1171.9544 1182.2907 1205.0986 1179.4973 L 1212.6982 1178.8586 L 1216.2588 1174.1789 C 1244.6537 1136.8748 1249.7557 1087.8601 1229.5557 1046.4485 C 1220.6172 1028.1238 1208.205 1013.196 1191.5947 1000.7981 C 1183.7454 994.93942 1165.0338 984.99926 1161.8545 984.99926 z M 991.90918 1007.761 L 994.15332 1012.3801 C 995.38778 1014.921 996.64729 1016.9931 996.9502 1016.9836 C 997.2531 1016.9736 998.50699 1015.525 999.73731 1013.7649 C 1002.2609 1010.1545 1001.8557 1009.6245 995.70411 1008.4719 L 991.90918 1007.761 z M 744.45411 1154.093 C 700.16034 1153.3217 656.7002 1177.1983 635.167 1216.9329 L 631.14161 1224.3606 L 633.167 1228.3313 C 637.01127 1235.8667 642.06189 1250.1006 644.54004 1260.384 C 650.36008 1284.5348 649.27765 1316.3502 641.90723 1337.7727 L 639.98145 1343.3704 L 642.61036 1347.1633 C 645.43215 1351.2352 644.85942 1351.0467 660.15332 1352.9661 C 689.32861 1356.6278 718.37976 1370.5884 740.99903 1391.8157 C 744.57402 1395.1707 748.17403 1397.9313 748.99903 1397.9524 C 749.82403 1397.9734 754.7776 1397.3478 760.00489 1396.5598 C 778.14764 1393.8247 793.62538 1387.7747 809.49903 1377.218 C 819.58104 1370.513 834.01794 1356.9979 839.30176 1349.3176 L 842.1045 1345.2454 L 839.59082 1336.3743 C 835.37952 1321.5204 834.49796 1314.4777 834.54004 1296.0032 C 834.59554 1271.6262 837.76454 1256.7166 847.64161 1234.3489 L 852.12403 1224.1946 L 849.15332 1218.3489 C 835.1776 1190.8604 806.52802 1167.8065 774.99317 1158.6731 C 764.94189 1155.762 754.67574 1154.271 744.45411 1154.093 z M 501.38184 1172.6067 C 492.62266 1172.5109 484.06891 1172.9233 479.49903 1173.884 C 456.14769 1178.7931 438.31669 1187.4382 420.99903 1202.2493 C 377.41658 1239.5237 366.33324 1304.285 394.96973 1354.3352 C 413.18876 1386.1779 445.04201 1408.4736 480.97364 1414.5305 C 491.6595 1416.3317 510.00408 1416.2793 521.07325 1414.4172 C 570.97316 1406.0232 609.9323 1368.228 620.69629 1317.7688 C 623.30777 1305.5268 623.06195 1280.6596 620.20606 1268.22 C 609.2619 1220.5498 571.72088 1183.7395 524.49903 1174.3743 C 519.10568 1173.3047 510.14102 1172.7024 501.38184 1172.6067 z M 242.99903 1173.9993 C 196.74326 1173.9993 154.55589 1200.1313 134.07911 1241.4661 C 125.21045 1259.3684 121.60769 1275.1429 121.62207 1295.9993 C 121.63307 1311.8889 123.10457 1321.015 127.9834 1335.4485 C 142.00357 1376.9256 180.73862 1409.7229 222.99903 1415.8977 C 227.12402 1416.5004 231.62403 1417.1903 232.99903 1417.4309 C 237.77714 1418.2668 259.04895 1417.0079 266.75098 1415.4329 C 306.62181 1407.2792 339.1859 1380.9294 355.14942 1343.9016 L 359.02832 1334.8997 L 357.60059 1329.2004 C 352.34685 1308.2382 352.05139 1287.0535 356.67676 1262.925 L 358.32715 1254.3118 L 352.81739 1242.9055 C 332.23889 1200.31 290.3063 1173.9993 242.99903 1173.9993 z M 979.18848 1174.3606 C 935.54557 1175.2285 893.76145 1199.6798 872.25098 1242.5071 C 864.06154 1258.8123 859.99903 1276.7142 859.99903 1296.4993 C 859.99903 1317.4079 864.55346 1336.0777 873.91504 1353.5539 L 878.70606 1362.4993 L 886.10254 1363.2473 C 907.94952 1365.4553 925.15538 1369.8536 941.50879 1377.4094 C 956.93312 1384.5359 977.07498 1399.5328 987.83301 1411.9016 L 993.09278 1417.9485 L 997.7959 1417.3411 C 1000.3828 1417.0065 1006.6912 1415.686 1011.8135 1414.4075 C 1023.0518 1411.6024 1034.5815 1406.7361 1045.2022 1400.3157 C 1053.7461 1395.1506 1067.6477 1383.6167 1072.1006 1377.9993 L 1074.876 1374.4993 L 1071.9854 1363.3625 C 1062.3653 1326.2931 1067.8777 1286.5357 1087.2881 1252.9993 L 1092.208 1244.4993 L 1088.9717 1238.4993 C 1079.8461 1221.5837 1062.5824 1203.0857 1046.6553 1193.1575 C 1025.4208 1179.921 1002.0491 1173.906 979.18848 1174.3606 z M 1214.8682 1204.9407 C 1202.3485 1204.9263 1189.6681 1206.8608 1177.249 1210.9192 C 1146.5429 1220.9535 1120.2837 1243.6406 1105.5772 1272.845 C 1096.8171 1290.2405 1093.4784 1305.5646 1093.5596 1327.9993 C 1093.6096 1341.7113 1094.0111 1346.1045 1095.9365 1353.9993 C 1098.6448 1365.1038 1102.6987 1375.7933 1107.7881 1385.2493 L 1111.4209 1391.9993 L 1118.46 1392.0207 C 1122.3318 1392.0317 1130.3612 1392.6872 1136.3018 1393.4778 C 1170.308 1398.004 1199.0621 1412.5275 1223.4678 1437.5051 L 1233.4365 1447.7063 L 1241.7568 1445.8899 C 1246.3324 1444.89 1254.2213 1442.4266 1259.2881 1440.4172 C 1326.302 1413.8396 1356.1361 1335.4868 1323.5498 1271.6497 C 1302.2365 1229.8966 1259.5814 1204.992 1214.8682 1204.9407 z M 638.99903 1377.0637 C 623.85742 1377.1457 622.89528 1377.4962 617.21387 1384.9993 C 610.23555 1394.2151 593.91612 1409.5111 583.96778 1416.1594 C 572.10827 1424.085 558.73351 1430.55 545.13184 1434.9329 L 533.49903 1438.6809 L 530.77637 1443.5911 C 517.02571 1468.3843 513.93036 1505.6915 523.12989 1535.7473 C 528.08976 1551.9517 539.22783 1570.5821 551.30176 1582.8704 C 557.34093 1589.0167 558.70335 1589.8928 564.76075 1591.5207 C 580.17828 1595.664 596.77599 1603.6754 610.71778 1613.7024 C 619.35346 1619.9132 622.09243 1620.6258 638.21192 1620.8684 L 646.92286 1620.9993 L 655.05176 1615.4641 C 671.23231 1604.4464 692.01922 1595.865 710.88575 1592.4133 L 719.96192 1590.7532 L 727.88575 1582.4993 C 732.24371 1577.96 736.99472 1572.4534 738.44434 1570.2629 L 741.07911 1566.2805 L 738.46192 1558.4797 C 733.5453 1543.8333 731.91557 1534.3779 731.31348 1516.9993 C 730.44601 1491.9607 733.53801 1474.359 742.55957 1452.9719 C 745.00206 1447.1816 746.99903 1442.05 746.99903 1441.5676 C 746.99903 1439.0257 733.09912 1420.4092 725.85059 1413.2434 C 714.8154 1402.334 707.67644 1397.094 694.99903 1390.595 C 677.01081 1381.3734 658.731 1376.9563 638.99903 1377.0637 z M 880.26075 1389.1965 C 869.78515 1389.1418 858.61886 1390.1111 850.99903 1391.968 C 803.34249 1403.5816 768.7765 1439.258 758.43848 1487.4993 C 756.06613 1498.5695 756.00638 1521.5723 758.31934 1533.2102 C 762.9494 1556.5069 772.5035 1575.3893 789.26465 1594.3625 C 793.73199 1599.4195 796.83442 1601.7062 805.14942 1606.0735 C 810.8323 1609.0583 819.44689 1614.3456 824.29395 1617.8235 C 829.14099 1621.3014 834.56282 1624.7544 836.34082 1625.4973 C 841.13625 1627.501 854.81478 1630.8507 862.63575 1631.9368 C 872.55515 1633.3142 893.96786 1632.3584 903.99903 1630.0911 C 960.45936 1617.3295 999.97255 1568.4426 999.99512 1511.3215 C 1000.0031 1491.7441 996.41775 1475.909 987.95215 1458.1379 C 981.9442 1445.5258 976.03001 1437.0077 966.06348 1426.6086 C 947.61303 1407.3574 923.7047 1394.7501 897.45801 1390.4329 C 892.58405 1389.6311 886.5461 1389.2294 880.26075 1389.1965 z M 391.07325 1392.9739 L 385.28614 1393.5637 C 373.93719 1394.7222 362.65525 1397.1529 353.64551 1400.3782 C 346.29639 1403.0089 342.79786 1405.0184 335.83301 1410.6125 C 331.06569 1414.4416 323.0377 1420.0183 317.99512 1423.0032 C 301.0006 1433.0628 287.72884 1450.9065 279.15137 1475.2258 C 274.29676 1488.9899 272.62065 1499.5343 272.6709 1515.9993 C 272.718 1531.4301 274.12362 1540.4131 278.58497 1553.7961 C 290.6153 1589.8842 319.52415 1618.8356 355.59668 1630.9192 C 370.13741 1635.79 378.49422 1636.9645 396.65723 1636.6887 L 412.81348 1636.4426 L 420.90137 1628.7161 C 438.33249 1612.0625 459.1475 1599.5395 480.4209 1592.9055 L 491.34082 1589.4993 L 496.12793 1582.1868 C 498.76065 1578.1649 502.13701 1572.3749 503.63184 1569.3196 C 506.07546 1564.325 506.22186 1563.4485 505.08106 1560.6321 C 496.40388 1539.2105 493.15207 1525.1384 492.31543 1505.3938 C 491.63775 1489.4008 492.90139 1476.617 496.6084 1461.9993 L 499.01856 1452.4993 L 495.25098 1446.9993 C 492.0195 1442.2825 490.98519 1441.4645 487.99122 1441.2454 C 471.93647 1440.0705 450.57633 1433.9203 434.71973 1425.9075 C 419.56412 1418.249 411.01131 1412.145 398.28614 1399.9094 L 391.07325 1392.9739 z M 1119.8643 1417.9582 C 1096.1256 1417.4793 1072.0538 1423.8733 1050.9482 1437.4797 C 1042.0475 1443.2179 1031.3141 1452.5983 1024.6162 1460.4934 C 1019.7691 1466.2069 1019.1834 1467.3492 1019.9971 1469.4895 C 1020.5098 1470.8381 1021.9369 1477.0186 1023.1689 1483.2219 C 1024.9459 1492.1688 1025.4072 1497.9109 1025.4014 1510.9993 C 1025.3904 1535.9124 1021.6017 1552.574 1010.8154 1575.1399 L 1004.7744 1587.7786 L 1008.1377 1594.0559 L 1011.499 1600.3332 L 1021.499 1603.636 C 1047.1794 1612.121 1071.3931 1628.4878 1087.9033 1648.5207 C 1091.7628 1653.2038 1095.3297 1657.7652 1095.8291 1658.6575 C 1097.7872 1662.1566 1124.9882 1662.6749 1140.3272 1659.5051 C 1173.2106 1652.7095 1200.5343 1634.5424 1218.5127 1607.5227 C 1247.124 1564.5224 1245.7451 1508.0743 1215.0772 1466.9368 C 1212.8478 1463.9464 1207.3067 1457.7488 1202.7627 1453.1633 C 1180.3561 1430.5515 1150.3854 1418.574 1119.8643 1417.9582 z M 526.2959 1612.0481 C 515.02527 1612.0391 502.94111 1613.2 494.99903 1615.3332 C 419.9005 1635.5048 382.09878 1715.5802 414.53418 1785.7825 C 422.52782 1803.0836 438.14774 1821.7452 453.99903 1832.9329 C 460.30606 1837.3842 479.98168 1848.0032 481.91114 1847.9973 C 482.2349 1847.9963 483.84769 1845.8588 485.49512 1843.2473 C 490.90464 1834.6721 502.71991 1821.3359 511.18457 1814.2493 C 534.6835 1794.5759 558.05299 1783.8473 586.52637 1779.6633 C 593.13179 1778.6927 595.4658 1777.9702 595.37207 1776.9231 C 595.30207 1776.1407 594.48728 1771.8993 593.56153 1767.4993 C 586.06387 1731.8637 592.5058 1693.1561 611.06739 1662.2981 C 613.78068 1657.7873 615.99903 1653.6987 615.99903 1653.2122 C 615.99903 1651.8276 603.16533 1639.8207 596.30372 1634.7864 C 582.44339 1624.6173 563.03918 1616.5752 544.63575 1613.3704 C 539.5281 1612.4809 533.05828 1612.0535 526.2959 1612.0481 z M 735.88575 1615.759 C 717.72245 1616.0073 699.72202 1620.1128 683.92872 1628.0481 C 668.20694 1635.9475 650.39639 1650.9558 639.48536 1665.4993 C 630.0961 1678.0143 621.25872 1698.4714 617.88575 1715.4993 C 616.08383 1724.596 616.09205 1750.2882 617.89942 1759.4993 C 627.08665 1806.3213 662.27581 1843.9769 707.70606 1855.5989 C 717.63331 1858.1385 734.12324 1860.1139 739.37598 1859.3938 C 740.95723 1859.177 743.24591 1858.9993 744.46387 1858.9993 C 745.91248 1858.9993 747.108 1858.0482 747.91895 1856.2493 C 751.1413 1849.1012 763.34626 1832.5388 771.89551 1823.7122 C 792.40156 1802.5407 814.79001 1789.5047 842.88379 1782.3782 C 848.09494 1781.0562 852.5201 1779.8141 852.71582 1779.6184 C 852.91155 1779.4227 854.47631 1773.9167 856.19434 1767.3821 C 859.13687 1756.1901 859.31934 1754.4552 859.31934 1737.4993 C 859.31934 1720.5168 859.14103 1718.8233 856.17286 1707.5305 C 846.8301 1671.9846 821.43714 1641.4781 788.82129 1626.6145 C 772.37544 1619.1199 754.04904 1615.5108 735.88575 1615.759 z M 981.34278 1621.9993 C 976.32059 1621.9993 975.4118 1622.4016 968.22364 1627.8079 C 957.63328 1635.7728 952.07667 1639.1501 940.99317 1644.3547 C 925.73986 1651.5174 910.46332 1655.8985 894.99903 1657.5481 C 887.47897 1658.3503 885.67226 1659.6855 877.83887 1670.2297 L 872.83887 1676.9602 L 875.83106 1684.7297 C 883.50364 1704.6536 886.81042 1727.8665 884.96778 1748.8645 C 884.08256 1758.9521 881.78904 1772.7824 880.39942 1776.4036 C 880.02263 1777.3855 882.15397 1777.8748 889.08106 1778.3977 C 915.91362 1780.4233 942.24274 1789.9837 964.24707 1805.6887 C 980.54195 1817.3187 997.79588 1836.5769 1006.708 1853.0832 C 1010.3015 1859.7386 1010.6552 1860.0766 1013.4385 1859.5403 C 1015.0542 1859.2289 1020.9616 1856.7845 1026.5674 1854.1067 C 1050.1025 1842.8642 1067.6417 1826.8451 1080.6689 1804.6907 C 1097.7218 1775.6903 1101.6891 1737.7431 1091.0029 1705.8469 C 1076.5451 1662.6935 1039.9953 1631.1509 995.61817 1623.5266 C 990.73363 1622.6874 984.31053 1621.9993 981.34278 1621.9993 z M 605.69629 1803.718 L 596.59864 1804.3293 C 579.54352 1805.4752 559.10614 1812.332 543.24512 1822.2278 C 532.88334 1828.6926 517.57029 1842.909 510.00879 1853.0852 C 495.27936 1872.908 487.36148 1895.6064 486.31934 1920.9993 C 484.75994 1958.9956 500.63185 1994.8917 529.62207 2018.9348 C 551.5891 2037.1533 578.01414 2047.0228 607.08301 2047.8664 L 611.667 2047.9993 L 619.57129 2037.3743 C 641.51772 2007.8673 674.5571 1986.8155 709.24317 1980.2414 L 717.98536 1978.5852 L 720.91309 1971.5422 C 731.09226 1947.0471 732.57384 1917.4583 724.9209 1891.4993 L 722.85645 1884.4973 L 712.67872 1882.8293 C 670.89252 1875.9805 633.00409 1849.6245 610.45801 1811.7219 L 605.69629 1803.718 z M 880.78028 1803.8879 C 867.15658 1803.5833 853.45777 1805.4809 840.49903 1809.6868 C 797.87811 1823.5197 766.75831 1859.4805 757.89161 1905.1438 C 756.05425 1914.6061 756.30418 1937.7853 758.35645 1948.2747 C 760.24303 1957.9172 764.83323 1971.7215 768.73731 1979.4993 C 777.67231 1997.2997 795.14239 2016.9712 811.39942 2027.5364 C 838.13744 2044.913 870.13622 2051.2944 901.08692 2045.4231 C 944.52749 2037.1826 980.48842 2005.324 994.37793 1962.7747 C 1000.7969 1943.1109 1001.7482 1916.3272 996.71387 1896.9993 C 988.4782 1865.3804 971.10292 1840.8354 944.52637 1823.2727 C 925.987 1811.0212 903.48644 1804.3956 880.78028 1803.8879 z M 743.32325 2002.9016 C 733.82967 2002.9338 718.26164 2004.2969 711.05567 2006.011 C 640.15903 2022.8754 599.26343 2096.7535 623.14942 2164.8137 C 638.39048 2208.2414 676.86183 2239.6506 722.49903 2245.925 C 732.02719 2247.235 752.79535 2246.5 762.33497 2244.5149 C 806.66985 2235.2892 842.9255 2201.9232 855.36036 2158.9055 C 862.79489 2133.1861 861.30604 2104.2086 851.25098 2078.9368 C 847.86888 2070.4364 847.89781 2070.4574 833.49903 2066.1028 C 803.85439 2057.1375 777.54656 2038.0115 758.02832 2011.2356 C 754.7287 2006.709 751.79982 2003.7362 750.25684 2003.3489 C 748.97649 2003.0275 746.48777 2002.8909 743.32325 2002.9016 z " />
    <path
       style="fill:#00aa00"
       d="m 1055.6048,986.96568 c 16.3886,-1.31452 38.2424,-5.70483 54.8952,-11.02818 23.6005,-7.5443 36.9361,-13.1022 102.8969,-42.88447 42.7104,-19.28438 79.4909,-33.20986 105.8504,-40.07603 6.915,-1.80123 8.5216,-2.5505 7.6698,-3.57693 -1.6793,-2.02341 -18.5017,-12.66226 -27.9171,-17.65543 -4.675,-2.47923 -16.9375,-8.03862 -27.25,-12.35418 -10.3125,-4.31557 -18.75,-8.15511 -18.75,-8.5323 0,-1.12484 44.5483,-18.45612 57.3675,-22.31851 15.2634,-4.59885 33.1404,-8.16049 47.533,-9.47004 6.2703,-0.57052 11.6274,-1.26421 11.9048,-1.54154 1.1275,-1.12755 -14.9978,-15.5476 -24.3234,-21.75112 -18.8221,-12.5208 -34.5194,-19.93171 -71.9819,-33.98379 -13.2,-4.95128 -24.8364,-9.32078 -25.8586,-9.71001 -1.2475,-0.47496 4.9445,-2.64903 18.8294,-6.61119 15.1728,-4.3297 21.3151,-6.53062 23.0404,-8.25584 2.6307,-2.63074 4.4888,-9.77753 4.4888,-17.26534 0,-4.10331 -0.3086,-4.95078 -1.8025,-4.95078 -3.4969,0 -30.2044,6.98787 -42.3744,11.08704 -14.1907,4.77975 -31.4417,12.22561 -51.0276,22.02439 -7.5375,3.77099 -16.8631,7.73163 -20.7236,8.80143 -32.1961,8.92198 -63.5686,-4.40378 -58.9337,-25.03257 3.17,-14.10871 17.6365,-22.13356 49.3981,-27.40206 37.4119,-6.20576 65.6754,-16.01619 90.4246,-31.38688 22.788,-14.15264 43.9299,-35.00923 58.8862,-58.09135 5.5378,-8.54654 18.1576,-31.90921 18.1474,-33.59567 0,-0.49738 -2.8406,-0.92231 -6.3058,-0.94429 -14.6287,-0.0928 -24.66,-9.07625 -24.6831,-22.1047 0,-1.72957 0.9052,-6.09364 2.0185,-9.69794 1.985,-6.42659 2.2063,-6.69018 11.4472,-13.63581 19.7798,-14.86681 29.108,-29.45696 31.7073,-49.59296 1.3768,-10.6659 1.064,-11.42863 -4.6871,-11.42863 -7.8727,0 -14.8337,-4.78812 -18.0089,-12.3874 -1.8879,-4.51835 -2.1731,-19.45386 -0.4336,-22.7042 0.6144,-1.14801 2.8833,-4.40955 5.042,-7.24785 2.1587,-2.8383 4.8631,-7.63555 6.0099,-10.66055 2.0528,-5.41467 4.4817,-17.75075 3.6574,-18.57508 -0.2321,-0.2321 -3.9852,1.61046 -8.3402,4.09458 -19.2914,11.00401 -35.7069,14.20998 -61.1938,11.9512 -6.9645,-0.61723 -8.1989,-0.98989 -7.7913,-2.35207 0.2665,-0.89025 2.3309,-8.36863 4.5876,-16.61863 2.2567,-8.25 6.2971,-22.65 8.9787,-32 6.5875,-22.96856 11.4663,-42.56413 14.1917,-57 1.9397,-10.27382 2.2613,-15.23659 2.2364,-34.5 -0.027,-21.10112 -0.1922,-23.10118 -2.6503,-32.16954 -3.6446,-13.44552 -8.6029,-24.37645 -16.305,-35.94591 L 1268.8917,198 h -4.3465 c -8.2892,0 -28.0239,4.05875 -41.2923,8.49243 -23.1002,7.71898 -47.8414,21.25032 -71.1117,38.89219 l -10.3589,7.8533 -6.4963,-1.75848 c -3.573,-0.96716 -8.3615,-3.17593 -10.6412,-4.90837 -4.38,-3.32864 -9.5822,-11.58063 -9.6214,-15.26205 -0.013,-1.20504 -0.4524,-2.45609 -0.9766,-2.78011 -0.5243,-0.32402 -7.2118,2.54611 -14.8611,6.37807 -31.4842,15.77214 -56.3527,33.25922 -83.083,58.42247 L 1003.7053,305 h -5.17451 c -7.58086,0 -14.2125,-2.62908 -19.192,-7.60858 l -4.2962,-4.2962 -10.18152,11.20239 c -23.87538,26.26931 -41.86031,53.64581 -59.91522,91.20239 -11.6972,24.33172 -25.37249,59.4741 -35.02257,90 -5.52728,17.48435 -11.6963,26.87502 -21.00082,31.96815 C 833.81596,525.73718 818,516.23639 818,498.89275 c 0,-7.28333 2.17635,-13.87941 10.52288,-31.89275 12.57858,-27.14688 18.31594,-49.62221 17.17252,-67.27104 -0.31879,-4.92058 -0.7823,-9.1492 -1.03003,-9.39692 -0.24772,-0.24772 -3.05253,0.30606 -6.23291,1.23062 -14.12163,4.10527 -27.85399,-2.62571 -33.03512,-16.19231 -1.58985,-4.16296 -1.5524,-4.83628 0.97904,-17.59946 11.3063,-57.00489 7.73162,-94.48176 -11.78114,-123.51307 -6.56654,-9.76978 -19.27378,-23.12013 -20.4075,-21.44033 -0.48906,0.72462 -1.16154,6.57462 -1.49441,13 -1.92377,37.13429 -13.67973,70.15224 -33.26473,93.42778 l -6.36997,7.57031 -8.77932,0.73513 c -15.94211,1.33491 -33.18846,-2.20023 -47.16448,-9.66774 -4.06185,-2.17028 -7.53642,-3.79472 -7.72127,-3.60987 -1.36206,1.36207 -5.66125,15.32063 -6.89144,22.37509 -3.12987,17.94803 -1.38052,34.25234 5.98797,55.80893 2.43596,7.12641 4.33471,13.03086 4.21946,13.121 -0.11525,0.0901 -3.92199,2.06229 -8.45941,4.38257 -10.58154,5.41102 -18.60945,6.89924 -28.27544,5.2417 -7.23563,-1.24077 -17.69861,-5.44548 -23.07254,-9.27206 -1.72092,-1.2254 -3.42469,-1.79483 -3.89951,-1.30329 -1.03324,1.06963 -7.999,24.23811 -11.38677,37.87296 -14.5287,58.47407 -15.7431,119.45589 -3.45511,173.5 16.89384,74.30124 58.63031,139.14261 122.67029,190.57937 22.13855,17.78163 56.01289,38.82462 83.07753,51.60835 11.46007,5.41307 13.28564,6.68095 23.88248,16.58668 44.97924,42.04578 81.04255,68.54082 119.25406,87.61374 30.23221,15.09013 55.79553,22.46792 86.45487,24.95162 8.5832,0.69532 13.6834,0.62224 26.1048,-0.37408 z"
       id="path3" />
  </g>
</svg>
