<?xml version="1.0" encoding="UTF-8" standalone="no"?>
<!-- Created with Inkscape (http://www.inkscape.org/) -->

<svg
   version="1.1"
   id="svg2708"
   width="516.12274"
   height="565.47736"
   viewBox="0 0 516.12275 565.47735"
   sodipodi:docname="p3.svg"
   inkscape:version="1.2.2 (732a01da63, 2022-12-09, custom)"
   xmlns:inkscape="http://www.inkscape.org/namespaces/inkscape"
   xmlns:sodipodi="http://sodipodi.sourceforge.net/DTD/sodipodi-0.dtd"
   xmlns="http://www.w3.org/2000/svg"
   xmlns:svg="http://www.w3.org/2000/svg">
  <defs
     id="defs2712" />
  <sodipodi:namedview
     id="namedview2710"
     pagecolor="#ffffff"
     bordercolor="#000000"
     borderopacity="0.25"
     inkscape:showpageshadow="2"
     inkscape:pageopacity="0.0"
     inkscape:pagecheckerboard="0"
     inkscape:deskcolor="#d1d1d1"
     showgrid="false"
     inkscape:zoom="1.2671137"
     inkscape:cx="180.72569"
     inkscape:cy="221.76383"
     inkscape:window-width="1920"
     inkscape:window-height="1031"
     inkscape:window-x="0"
     inkscape:window-y="25"
     inkscape:window-maximized="1"
     inkscape:current-layer="layer1" />
  <g
     inkscape:groupmode="layer"
     id="layer1"
     inkscape:label="Layer 1"
     transform="translate(112.25489,132.08431)">
    <path
       style="fill:#000000;stroke-width:1.06747"
       d="m 92.93985,430.82585 c -1.797923,-3.946 0.508773,-9.72149 6.501582,-16.2786 2.868028,-3.13806 4.539638,-5.70557 3.714708,-5.70557 -0.82492,0 -4.569635,2.16163 -8.3216,4.80363 -4.502919,3.17078 -7.936639,4.80362 -10.101644,4.80362 -1.803933,0 -4.952566,1.12945 -6.996966,2.50989 -4.054575,2.7378 -8.943429,4.45006 -15.248181,5.34052 -4.924832,0.69557 -5.85444,-0.8382 -4.085847,-6.74121 1.291916,-4.31208 5.719556,-8.39389 11.985883,-11.0498 l 3.631068,-1.53896 -2.935543,-1.17238 c -3.409721,-1.36173 -3.43025,-1.44202 -1.38137,-5.40414 1.877725,-3.6311 5.177623,-5.24892 19.795243,-9.70478 11.191687,-3.41154 20.367367,-7.23516 23.587187,-9.82908 0.93721,-0.755 2.49839,-2.91009 3.46929,-4.78904 1.5457,-2.99136 1.75084,-7.83727 1.64939,-38.9627 -0.0637,-19.55054 -0.424,-38.37312 -0.8006,-41.828 l -0.68475,-6.28156 -5.33736,-1.68951 c -3.59251,-1.13722 -7.01158,-3.35857 -10.45867,-6.79499 -2.816721,-2.80799 -5.337239,-5.10542 -5.601159,-5.10542 -0.263893,0 -2.473052,1.80136 -4.909236,4.00302 l -4.429434,4.00301 -12.687191,0.33293 c -11.716938,0.30757 -12.990745,0.14411 -16.656222,-2.13494 -4.421922,-2.74947 -9.947374,-3.3508 -43.169061,-4.69788 -15.7981222,-0.64061 -18.9891449,-0.51995 -19.3489051,0.73145 -0.2369466,0.82423 -1.103552,3.86458 -1.9257817,6.75635 -0.8222298,2.89179 -2.0415593,5.44 -2.7096162,5.66268 -0.668054,0.22284 -2.798707,-1.90313 -4.734769,-4.72407 -4.921246,-7.17043 -7.165498,-8.78832 -12.247918,-8.82955 -4.722857,-0.0383 -8.495718,2.21924 -19.641515,11.75296 -8.539503,7.30437 -9.994233,7.89398 -15.602444,6.32376 -5.373407,-1.50443 -5.681105,-2.23191 -2.092363,-4.94669 2.476569,-1.87344 10.542365,-14.26899 9.780555,-15.03079 -0.40119,-0.4012 -33.878153,-2.55947 -43.32437,-2.79314 -5.78347,-0.14311 -5.86779,-0.19115 -5.64962,-3.23053 0.35662,-4.96815 5.668748,-9.46554 14.034338,-11.88186 1.382494,-0.39931 4.656586,-0.12604 7.275757,0.60728 4.085953,1.144 4.997183,1.09827 6.417547,-0.32223 1.495577,-1.4956 1.442704,-1.76927 -0.547586,-2.83445 -1.211654,-0.64845 -8.497358,-3.29798 -16.190458,-5.88779 -16.325258,-5.49571 -19.217108,-7.1178 -19.217108,-10.77937 0,-9.37313 13.771501,-9.19439 32.829532,0.42606 3.666801,1.851 6.666908,2.91503 6.666908,2.36452 0,-2.28179 -13.56028,-17.17681 -15.637589,-17.17681 -2.567976,0 -2.832802,-2.49392 -0.468153,-4.4087 7.959796,-6.44546 15.780465,-2.63692 35.338407,17.20925 7.935965,8.05289 15.861938,15.36794 17.613275,16.25564 7.144606,3.62137 14.596122,4.37616 44.1045892,4.46766 l 29.1781738,0.0904 2.191184,-3.00801 c 1.205135,-1.65441 4.647457,-4.09615 7.649585,-5.42612 3.002115,-1.32997 6.08415,-3.17597 6.848945,-4.10216 1.625585,-1.96872 2.140979,-1.75406 -12.065258,-5.02523 -26.999236,-6.21688 -51.1189964,-18.35772 -64.502331,-32.46766 -8.230611,-8.67734 -16.320345,-16.77345 -26.864505,-26.88557 -15.429745,-14.79747 -24.679797,-31.81159 -28.456096,-52.34083 l -1.807727,-9.82738 -3.499811,0.56794 c -4.6652,0.75705 -4.53309,-0.82485 0.636256,-7.61883 4.678958,-6.14946 6.957531,-10.17652 6.19149,-10.942561 -0.286082,-0.28607 -2.366527,-0.008 -4.623237,0.619211 -5.049797,1.40216 -6.771794,1.44457 -6.771794,0.16676 0,-0.54145 3.602714,-5.189558 8.006033,-10.329169 4.40332,-5.139597 8.006035,-9.74956 8.006035,-10.244359 0,-0.494773 -1.166108,-0.606936 -2.591352,-0.249215 -1.425246,0.357707 -3.398195,0.19885 -4.384336,-0.353014 -1.545801,-0.865071 -0.861405,-2.092423 4.964492,-8.902957 3.716608,-4.344754 7.130645,-8.059678 7.586748,-8.255377 0.456101,-0.195699 0.829275,-1.024446 0.829275,-1.841653 0,-1.153854 -0.61177,-1.253239 -2.738169,-0.444781 -2.906538,1.105072 -7.936543,1.414635 -7.936543,0.488457 0,-0.303926 4.069725,-7.096471 9.043831,-15.094549 4.974105,-7.998065 8.827,-14.892788 8.561983,-15.3216 -0.265,-0.4288 -1.897904,-1.062858 -3.628638,-1.408998 -1.730736,-0.34614 -4.918574,-2.40115 -7.084093,-4.566659 -3.670221,-3.670224 -3.893215,-4.258931 -3.287411,-8.678752 0.984631,-7.1836907 3.937951,-12.6330643 12.85139,-23.7130053 l 8.118272,-10.0915167 -2.835,-2.260554 c -2.51698,-2.006962 -2.749252,-2.731018 -2.070584,-6.454294 0.639992,-3.511021 2.60051,-5.971304 12.04289,-15.112755 7.132928,-6.905602 10.734298,-11.093408 9.797999,-11.393488 -0.814258,-0.260963 -5.074375,-0.791537 -9.466946,-1.179049 -4.392557,-0.387511 -9.556449,-1.360545 -11.475316,-2.162296 -6.148044,-2.568819 -4.182519,-4.860711 6.118405,-7.134328 l 6.938563,-1.531477 -5.748983,-0.687172 c -3.161946,-0.37794 -6.030209,-0.968382 -6.373915,-1.312092 -0.94296,-0.942953 1.975142,-2.527768 7.121722,-3.867795 2.533344,-0.659611 4.214611,-1.527982 3.736149,-1.929718 -0.478453,-0.401736 -4.35254,-2.06057 -8.609082,-3.686302 -6.402069,-2.445189 -7.739166,-3.366141 -7.739166,-5.330508 0,-5.561121 10.082726,-11.313831 19.829656,-11.313831 5.894993,0 6.007024,-0.05608 5.348992,-2.677888 -1.491772,-5.943665 3.466346,-11.008885 18.186562,-18.579455 5.772831,-2.96895 10.8476331,-6.65572 15.178384,-11.02689 3.5783037,-3.61169 6.8418384,-6.23087 7.2522898,-5.82041 0.4104647,0.41046 0.2244978,3.0266 -0.4132701,5.81364 -0.6377546,2.78703 -0.9998495,5.22706 -0.8046422,5.42227 0.5661042,0.56611 4.9540159,-1.99625 10.0316555,-5.85809 2.579644,-1.96196 5.581905,-3.5672 6.671686,-3.5672 2.380422,0 2.360571,-0.27548 0.38402,5.32666 -1.492282,4.22957 -1.474719,4.4896 0.266871,3.95026 1.025351,-0.31754 7.388458,-2.52195 14.140211,-4.8987 19.964391,-7.02784 22.279663,-5.64996 10.917388,6.49723 l -4.804705,5.13662 6.284024,-0.004 c 3.456216,-0.002 10.607292,-1.21215 15.891281,-2.68929 5.283988,-1.47713 13.3246,-3.50533 17.868045,-4.5071 7.575195,-1.67023 8.402679,-1.67953 9.970149,-0.11205 1.536065,1.53605 1.546515,2.02038 0.103174,4.77759 -2.373361,4.53379 -7.867754,9.33097 -15.461843,13.49982 -5.648875,3.101 -6.363758,3.794281 -4.433104,4.299154 2.537963,0.663691 9.426941,-0.32768 20.653028,-2.972074 4.042516,-0.95225 8.846131,-1.5857 10.674711,-1.40765 8.36895,0.81486 1.71141,12.083992 -10.614162,17.966445 -3.7822,1.805107 -6.876787,3.387636 -6.876787,3.516734 0,1.055716 19.794349,-0.420346 24.018099,-1.791024 6.40403,-2.078208 11.21112,-2.258808 11.20143,-0.42083 -0.0106,1.98532 -3.39478,6.749077 -6.56802,9.245155 -1.53576,1.208018 -3.10354,3.436551 -3.48395,4.9523 -0.74057,2.95064 -5.96053,5.817632 -10.59221,5.817632 -1.415017,0 -3.231794,0.990859 -4.0373,2.20191 -0.943649,1.418755 -3.078126,2.417915 -6.001291,2.80923 -4.230877,0.566376 -4.53834,0.831747 -4.560198,3.936051 -0.03231,4.605307 -3.396744,11.578904 -6.92497,14.354212 -5.775144,4.542721 -13.461705,2.762285 -23.2697,-5.389929 -2.822902,-2.346346 -5.430892,-3.967728 -5.79554,-3.603069 -1.146607,1.146614 2.44105,7.303318 8.664286,14.86852 3.299965,4.011577 5.999948,7.974565 5.999948,8.806639 0,2.067658 -8.106146,2.00424 -12.131085,-0.09491 -1.681653,-0.877048 -3.272815,-1.594637 -3.535897,-1.594637 -1.428955,0 6.314086,11.950715 11.104405,17.138699 3.068115,3.3228324 5.269775,6.3501292 4.892563,6.7273281 -1.210932,1.2109453 -6.688612,0.7337761 -10.669157,-0.929409 -2.126168,-0.8883652 -4.13786,-1.3431045 -4.470425,-1.0105393 -0.98783,0.9878303 3.841791,9.2330093 9.515676,16.2452652 2.911651,3.598467 5.29392,6.809803 5.29392,7.136292 0,1.197277 -7.64787,0.548926 -11.242746,-0.953102 -2.855344,-1.193036 -3.701854,-1.240821 -3.701854,-0.208982 0,2.164074 6.047347,11.072256 11.404156,16.799124 6.190024,6.61764 5.38949,8.271903 -3.04494,6.292135 -3.129793,-0.734641 -6.531178,-1.769498 -7.558616,-2.299677 -3.438028,-1.774098 -1.61084,2.004845 4.952474,10.242565 1.696424,2.129212 2.761795,4.193887 2.367511,4.588198 -0.394311,0.394297 -2.927726,0.125644 -5.629823,-0.59711 -2.702111,-0.722701 -5.12198,-1.104939 -5.377524,-0.849395 -1.215678,1.215678 4.495966,9.540964 9.358747,13.64133 5.1173,4.314971 5.306963,4.649212 3.177405,5.599442 -2.177914,0.971809 -2.109614,1.148296 1.782102,4.604219 6.631361,5.88877 23.659344,16.918001 33.936039,21.980763 18.242864,8.987285 38.535914,14.536375 56.042234,15.324645 10.92462,0.49191 11.34361,0.42471 16.54581,-2.65386 2.93555,-1.7372 9.90079,-6.56948 15.47833,-10.738389 11.70806,-8.75116 20.37082,-13.536999 33.73053,-18.634821 15.55088,-5.933948 26.07558,-7.641156 46.86355,-7.601721 17.27406,0.03271 18.69743,0.198877 29.58884,3.453172 24.79506,7.408614 44.51436,21.478929 60.88205,43.441109 9.23343,12.38942 20.59399,37.11352 22.61138,49.20936 0.71457,4.28445 0.79546,4.35049 6.86548,5.60422 3.3783,0.69778 8.81671,1.26869 12.08538,1.26869 13.77531,0 8.13329,9.04765 -7.67272,12.30407 l -5.87109,1.20962 0.0707,21.798 c 0.0391,11.9889 0.46288,24.768 0.94233,28.39793 1.67583,12.68729 -0.55818,12.56537 -9.00804,-0.4917 l -5.06169,-7.82153 -2.78753,8.9405 c -1.53313,4.91731 -6.84666,16.83149 -11.80784,26.476 -10.71177,20.82363 -18.83329,36.99708 -20.06216,39.95234 -2.69656,6.48512 -7.2604,27.69541 -7.2604,33.74287 0,2.93014 -0.45908,4.15236 -1.5596,4.15236 -2.4149,0 -5.81429,-4.26098 -6.55672,-8.21845 -0.92679,-4.94036 -1.00966,-22.8997 -0.14443,-31.27798 0.5903,-5.71556 0.50954,-6.37411 -0.45832,-3.73616 -0.64622,1.76134 -1.54369,3.68277 -1.99436,4.26988 -1.00096,1.30395 -6.12249,24.17265 -6.5743,29.35546 -0.20515,2.35488 -0.88372,3.73616 -1.83511,3.73616 -6.58553,0 -9.23683,-32.59265 -3.86416,-47.50248 3.10234,-8.60942 14.51785,-31.16989 17.90373,-35.38317 1.81767,-2.26183 3.07479,-4.34248 2.79362,-4.62365 -0.99432,-0.99435 -11.78599,12.91735 -17.47765,22.53064 -7.59472,12.82761 -14.31491,18.49825 -16.17562,13.64932 -0.35711,-0.93056 0.93804,-5.85427 2.87807,-10.94157 8.55582,-22.43581 8.48326,-22.13559 5.34986,-22.13559 -1.64487,0 -2.33695,1.12565 -3.21802,5.23392 -3.21643,14.99766 -11.57906,34.62956 -17.84081,41.8825 -4.66529,5.40377 -7.5033,7.52193 -8.60379,6.42143 -0.27287,-0.27286 0.70283,-4.48721 2.16803,-9.36548 5.03743,-16.77182 9.3327,-38.18319 9.27425,-46.23105 -0.0527,-7.25216 -1.99676,-1.83332 -4.3116,12.01779 -3.58678,21.46178 -8.40421,32.92352 -18.13928,43.15716 -2.88858,3.03653 -4.72637,4.0697 -7.23909,4.0697 -1.85223,0 -3.36771,-0.31824 -3.36771,-0.70713 0,-0.38896 1.46384,-2.98836 3.25299,-5.77649 3.64402,-5.67874 7.86636,-18.05294 9.64483,-28.26567 1.3723,-7.88037 -0.0343,-24.13263 -3.13619,-36.23755 l -1.91478,-7.4723 -0.75667,10.67472 c -0.91215,12.86796 -2.24526,18.29789 -4.83228,19.68243 -1.71286,0.91669 -2.09657,0.33595 -3.28404,-4.97011 -2.44837,-10.94052 -12.73142,-40.73363 -14.93472,-43.27041 -0.38399,-0.44211 -0.74149,6.28296 -0.7945,14.9446 -0.10875,17.78296 -1.65427,25.35567 -5.17473,25.35567 -1.862,0 -2.17594,-1.06216 -2.90062,-9.8136 -1.31849,-15.92277 -2.21384,-16.12635 -4.7318,-1.07584 -1.22492,7.32156 -2.88034,14.65282 -3.67871,16.29175 -2.88654,5.92549 -3.77164,4.17171 -4.51273,-8.94161 -0.39423,-6.97542 -1.38044,-14.79701 -2.19156,-17.3813 l -1.47477,-4.69871 -0.10543,5.53474 c -0.11076,5.81508 -1.56694,11.01106 -3.08566,11.01106 -0.49393,0 -1.4999,-3.02788 -2.23552,-6.72863 -2.22607,-11.1994 -3.28981,-10.86802 -3.30776,1.03051 -0.0267,17.80626 -4.78177,37.18852 -9.12328,37.18852 -1.93925,0 -2.12303,-0.86544 -2.38022,-11.20844 -0.32525,-13.08193 -3.29491,-32.04913 -4.64117,-29.64354 -0.48606,0.86852 -1.42757,5.08433 -2.09227,9.36843 -1.44342,9.30304 -4.55036,17.07269 -6.82705,17.07269 -1.20641,0 -1.65651,-1.19763 -1.70495,-4.53675 -0.0363,-2.49521 -0.67811,-7.65911 -1.42648,-11.47532 l -1.36063,-6.93856 -1.36158,6.40483 c -3.01754,14.19413 -5.47557,19.00753 -8.69148,17.01999 -0.53413,-0.33025 -0.9785,-4.29462 -0.98748,-8.8101 -0.009,-4.51544 -0.482,-8.93043 -1.05114,-9.8111 -0.88853,-1.3749 -1.03709,-1.34231 -1.05113,0.23051 -0.0254,2.85131 -3.503,9.45923 -4.76028,9.04528 -0.61993,-0.20415 -1.2697,-3.04499 -1.44397,-6.31313 l -0.31679,-5.94204 -2.95635,1.11588 c -2.85774,1.07868 -2.9459,1.34398 -2.64341,7.95642 0.17208,3.76231 0.52289,7.18032 0.77955,7.59561 0.25666,0.41528 -0.62668,6.27182 -1.96296,13.01453 -2.14771,10.83724 -2.45459,15.85969 -2.64521,43.29183 -0.1186,17.06781 0.0824,32.22002 0.44679,33.67168 0.53854,2.14569 2.29828,3.24809 9.4087,5.89421 10.35966,3.85531 11.7045,6.05834 4.82861,7.9098 -2.52182,0.67905 -6.39482,1.95874 -8.60665,2.84375 -3.84579,1.53879 -4.0208,1.82553 -4.00575,6.56368 0.0234,7.32112 1.80212,9.80699 10.15498,14.1911 7.64621,4.01322 14.47355,9.97247 17.08549,14.9131 0.81419,1.54009 1.17929,3.10127 0.81128,3.46928 -1.44505,1.44506 -14.04063,0.55349 -22.43727,-1.58819 l -8.8498,-2.25731 -5.59564,4.69721 c -3.07761,2.58341 -7.03672,5.59915 -8.79806,6.70162 -1.76133,1.10242 -6.80513,5.46905 -11.20844,9.70354 -4.65284,4.47448 -10.18657,8.64879 -13.212227,9.96652 -2.863401,1.24707 -5.308187,2.26741 -5.432874,2.26741 -0.124713,0 -0.753148,-1.15544 -1.396606,-2.56768 z"
       id="path3189" />
    <path
       id="path3232"
       style="fill:#ff6600;stroke-width:1.06747"
       d="M 25.403313 60.960612 C 24.8146 61.06573 24.226651 61.426335 23.62011 62.032878 C 22.387667 63.265318 23.361253 67.601798 27.602532 79.782878 C 28.735004 83.035396 29.131548 85.633529 28.551751 85.991862 C 28.003357 86.330795 24.969226 85.424733 21.809563 83.97819 C 15.790996 81.222786 7.9235987 72.765885 6.6474537 67.681315 C 5.7827301 64.235954 2.2219549 64.299173 0.89745375 67.782878 C -0.15993215 70.564026 0.82012217 77.991836 2.9990162 83.714518 C 4.7368931 88.279041 3.6843242 90.065254 -0.27637438 89.273112 C -7.4250245 87.843374 -12.904391 81.073436 -13.047859 73.493815 C -13.105309 70.461765 -13.252882 70.259148 -14.020515 72.157878 C -16.405892 78.058083 -35.153587 94.873587 -37.635749 93.339518 C -38.121301 93.039421 -38.043012 91.543716 -37.461921 90.015299 C -36.880824 88.486896 -36.552542 87.088738 -36.733406 86.907878 C -36.914274 86.727004 -41.355264 90.875874 -46.602546 96.128581 C -51.849831 101.38128 -56.579567 105.67936 -57.112312 105.67936 C -57.645062 105.67936 -57.779791 104.17106 -57.41114 102.3278 L -56.739265 98.976237 L -61.813484 103.67936 C -64.603943 106.26574 -68.288586 109.46814 -70.000984 110.7946 C -72.800262 112.96294 -73.114038 113.82152 -73.104499 119.31608 C -73.092129 126.34801 -70.537424 137.31251 -66.583015 147.31217 C -63.331884 155.53344 -56.004526 167.58782 -54.249031 167.60319 C -53.56777 167.61019 -52.10148 169.65106 -50.991218 172.1403 C -49.548715 175.3744 -48.84031 176.12908 -48.508796 174.78483 C -47.944937 172.49848 -46.071296 173.40097 -46.071296 175.95866 C -46.071296 176.9676 -45.275093 178.93038 -44.301765 180.31999 C -42.686044 182.62675 -42.418063 182.69101 -41.225593 181.06022 C -40.068336 179.47759 -39.606828 179.7944 -37.166999 183.84147 C -35.605857 186.43102 -34.395691 187.62653 -34.372078 186.60319 C -34.276198 182.45117 -32.140705 183.99272 -29.338874 190.236 C -27.550223 194.22167 -26.201808 196.16388 -25.989265 195.06022 C -25.331297 191.64361 -22.970223 193.17318 -20.385749 198.69108 C -18.086829 203.59939 -17.755043 203.90481 -17.190437 201.62663 C -16.621819 199.33226 -16.279201 199.63034 -13.684578 204.68717 C -10.83057 210.24953 -8.3968625 212.25305 -9.4677806 208.15788 C -10.504527 204.19337 -7.6531735 205.97263 -4.3388744 211.35905 C -0.90322572 216.94268 0.13600858 217.88427 -0.38965563 214.93913 C -0.56215229 213.9726 -0.10401867 212.97311 0.62987562 212.71647 C 1.3637567 212.45996 1.96386 212.77517 1.96386 213.4196 C 1.96386 215.17001 6.5569992 221.90399 8.1865162 222.54264 C 9.2608994 222.96373 9.4357116 222.32217 8.9033131 219.89811 C 7.8888004 215.27907 9.4880377 215.94546 14.034172 222.03483 C 16.22575 224.97037 18.74579 227.37077 19.635735 227.37077 C 20.904674 227.37077 21.016005 226.92556 20.149407 225.30632 C 17.338929 220.05487 19.705443 219.54399 23.034172 224.68327 C 25.423551 228.37226 31.854485 232.68651 31.854485 230.60124 C 31.854485 229.99905 31.494029 229.50338 31.053704 229.49967 C 30.613364 229.49667 29.414152 228.02048 28.389641 226.22038 C 26.645343 223.15561 26.642068 222.96986 28.348626 223.2985 C 29.350973 223.49165 31.631539 225.63862 33.415032 228.06999 C 35.198513 230.50137 37.794423 233.03477 39.184563 233.70085 L 41.711907 234.91178 L 39.409172 231.00749 C 35.961221 225.16364 37.539775 225.36241 43.368157 231.50553 C 49.828123 238.31436 53.827869 239.15301 48.127922 232.50358 C 47.276308 231.51014 46.766198 230.13564 46.99511 229.44889 C 47.234433 228.73095 49.862644 230.2922 53.178704 233.12272 C 60.140954 239.0656 62.299112 239.55149 57.264641 234.04264 C 44.460194 220.03176 39.868626 215.62858 38.05761 215.62858 C 34.978905 215.62858 29.717766 212.58221 29.717766 210.7985 C 29.717766 208.77453 30.785816 208.81031 33.819329 210.93522 C 37.392938 213.43827 37.845763 212.01057 35.291985 206.28678 C 34.048494 203.49974 32.747116 200.17751 32.399407 198.90592 C 31.632939 196.10302 33.756077 194.40601 34.598626 197.14811 C 36.446736 203.16291 40.717287 210.57628 42.62011 211.07389 C 43.797269 211.38178 45.691769 213.4618 46.831047 215.69499 C 48.860378 219.67283 51.631868 222.60836 50.450188 219.52897 C 50.12334 218.67719 50.352628 217.67389 50.959954 217.2985 C 51.581991 216.91408 53.541344 219.54439 55.448235 223.32194 C 58.647453 229.65956 58.888613 229.8838 59.809563 227.39421 C 60.740047 224.87891 60.947795 225.05256 64.442376 231.25358 C 68.851285 239.07705 71.350579 241.58138 71.350579 238.17741 C 71.350579 234.5372 72.817782 235.51453 76.74511 241.76921 C 80.572494 247.86473 82.013679 248.95603 82.041985 245.78483 C 82.053955 244.48953 83.356367 245.38961 86.293938 248.72038 C 88.624031 251.36236 90.53867 253.85571 90.547844 254.26139 C 90.586274 255.9614 88.417104 256.07803 84.80761 254.56999 C 80.494999 252.76807 79.940719 253.66845 83.05761 257.40983 C 84.818834 259.52397 85.16258 259.62932 85.192376 258.06217 C 85.256996 254.66253 87.287689 256.11873 90.030266 261.53092 C 93.066478 267.52264 95.403564 268.69115 94.299797 263.66569 C 93.029251 257.88096 95.894194 260.1518 99.27636 267.611 C 102.62246 274.99067 107.20437 281.81217 108.81542 281.81217 C 109.32074 281.81217 108.24743 279.70101 106.4287 277.12077 C 101.35352 269.92056 103.22113 269.35094 110.32323 275.93327 C 120.63395 285.48932 123.5615 286.28141 116.708 277.65983 C 110.38274 269.70272 111.97456 268.85137 119.85253 275.97819 C 122.75127 278.60053 125.72589 280.74577 126.46191 280.74577 C 129.22168 280.74577 129.12883 278.33352 126.25292 275.33171 C 122.55662 271.4736 123.65669 269.94623 127.88183 273.06999 C 129.60387 274.34319 131.75604 275.10041 132.66503 274.75163 C 134.09232 274.20391 134.01168 273.68684 132.07324 270.96452 C 129.33677 267.1215 130.10985 265.95494 133.79394 268.36882 C 137.9229 271.07424 138.98799 269.36685 135.78808 265.17155 C 132.6828 261.10031 132.91452 259.56057 136.31347 261.68327 C 139.77098 263.84249 140.33433 261.80871 137.18847 258.52507 C 134.06542 255.26531 133.36461 252.39118 135.93261 253.37663 C 138.36148 254.30865 137.85038 252.59403 134.86425 249.78874 C 131.74718 246.8604 131.47823 245.51921 134.00683 245.51921 C 135.35995 245.51921 134.88688 244.5582 132.13769 241.71452 C 129.07116 238.54263 128.73177 237.75409 130.09863 236.98405 C 132.27819 235.75612 131.98081 231.15094 129.54784 228.46257 C 127.64537 226.36032 127.65454 226.30436 129.8955 226.30436 C 132.90426 226.30436 132.80042 225.11065 129.52636 222.03483 C 126.54024 219.22951 126.0311 217.5149 128.45995 218.44694 C 132.30736 219.92331 128.81928 214.01149 124.53613 211.79655 C 121.49397 210.2234 121.26639 210.22355 121.8662 211.78678 C 122.79297 214.20193 119.61 213.98402 115.64941 211.361 C 111.57773 208.66445 110.46992 208.66445 111.91308 211.361 C 113.49745 214.32143 111.4409 214.12378 106.04198 210.7985 C 101.09941 207.7543 99.998665 207.5343 100.85253 209.75944 C 101.79022 212.20302 99.03406 211.70154 94.465813 208.59733 C 90.446572 205.86618 87.924741 205.52341 91.073235 208.13639 C 91.9681 208.87907 92.700188 209.90831 92.700188 210.4235 C 92.700188 212.23493 90.267136 211.32409 85.227532 207.62467 C 79.676789 203.55008 76.184218 202.51943 79.192376 205.84342 C 82.402467 209.39052 79.72842 209.18667 73.87011 205.43913 C 68.222483 201.82641 65.887265 200.95595 66.139641 202.55436 C 66.517572 204.94789 65.555336 204.70304 61.055657 201.26725 C 58.329248 199.18548 55.687246 197.4821 55.184563 197.4821 C 53.874367 197.4821 54.058168 198.97877 55.551751 200.47233 C 58.532042 203.45264 53.830611 201.55453 48.143547 197.4821 C 41.605217 192.80012 37.53097 191.59504 40.926751 195.34733 C 43.256244 197.9214 42.450131 198.04888 38.090813 195.7946 C 36.15648 194.79434 33.741937 194.37927 32.165032 194.77507 C 28.650401 195.65581 22.247063 193.48641 22.247063 191.41374 C 22.247063 190.27755 22.8142 190.01526 24.114251 190.55046 C 32.114095 193.84383 31.333836 191.57537 22.643547 186.27311 C 12.970377 180.37125 -0.093846745 166.38281 -4.8935619 156.78874 C -8.3432147 149.8933 -8.707591 148.3242 -8.6845775 140.49577 C -8.6605525 132.28547 -7.5110666 124.40624 -6.1357494 123.03092 C -4.6227928 121.51797 -4.3910096 124.07593 -5.4931713 130.15397 C -6.4673981 135.52651 -6.3757825 137.89628 -4.9834056 143.34147 C 0.20742541 163.64148 16.340824 181.61353 28.122063 180.22038 C 29.762601 180.02623 31.633938 178.9963 32.280266 177.92936 C 33.254028 176.32192 32.906579 175.53781 30.252922 173.3571 C 28.491592 171.90969 24.576726 169.29207 21.553704 167.54069 C 16.571936 164.65457 13.928808 161.67727 15.211907 160.39421 C 15.480706 160.1254 17.294545 161.09661 19.241204 162.55436 C 25.680734 167.37659 30.651157 169.23992 35.856438 168.77897 C 36.590319 168.71397 37.190422 167.46593 37.190422 166.00553 C 37.190422 163.78812 35.957956 162.72813 29.717766 159.58561 C 25.608009 157.51597 22.247063 155.16842 22.247063 154.36882 C 22.247063 153.26072 23.301362 153.43711 26.680657 155.10905 C 29.119214 156.31555 33.682321 157.5167 36.821282 157.77702 C 41.598442 158.17318 42.528313 157.96387 42.528313 156.49382 C 42.528313 155.52787 41.207313 154.22092 39.592766 153.58952 C 33.053013 151.03201 29.717766 149.0341 29.717766 147.67546 C 29.717766 145.98613 32.031026 145.77971 33.581047 147.32975 C 35.762641 149.51134 40.972548 150.28805 44.196282 148.91178 L 47.331047 147.57194 L 44.327141 146.37467 C 42.674384 145.71558 40.992928 145.17376 40.590813 145.17155 C 40.188713 145.16855 38.233542 144.17753 36.247063 142.96647 C 31.563212 140.11097 33.18029 137.74564 38.083001 140.28092 C 46.032428 144.39174 51.543654 140.69194 46.875969 134.37858 C 45.039293 131.89438 44.91635 131.2985 46.233391 131.2985 C 47.994867 131.2985 52.135735 134.96112 52.135735 136.51921 C 52.135735 138.03367 60.103591 140.82167 73.790032 144.09538 C 80.762773 145.7632 86.749088 147.4099 87.092766 147.75358 C 89.114333 149.77517 84.796579 149.46659 73.741204 146.7985 C 51.340727 141.39247 51.051836 141.3468 49.936516 143.08366 C 47.52209 146.8435 49.250808 148.33274 59.073235 150.95671 C 62.595882 151.89773 71.646877 154.30681 79.184563 156.31022 C 92.804487 159.93019 94.667514 160.64172 93.52636 161.78288 C 92.89693 162.41231 62.777759 155.87087 53.788079 153.15202 C 49.255265 151.78109 48.289633 151.76559 47.006829 153.0485 C 42.604207 157.45113 49.848051 160.47765 82.024407 167.67741 C 100.52746 171.81763 100.61673 171.84484 99.334954 173.12663 C 98.643033 173.81854 95.403782 173.61053 89.885735 172.51921 C 74.778398 169.53132 51.679942 164.49844 47.872063 163.36491 C 42.62288 161.80236 41.459954 161.96836 41.459954 164.27507 C 41.459954 166.39064 44.160207 167.72503 55.33886 171.13835 C 73.184186 176.58727 84.215619 179.35917 98.836907 182.06608 C 114.72254 185.00711 119.3282 186.80631 110.96386 186.80632 C 104.97128 186.80632 92.237938 184.26316 64.971672 177.62077 C 41.036597 171.78987 37.197583 171.26038 36.403313 173.6735 C 35.572202 176.1985 50.373059 181.92496 69.215813 186.37077 C 78.60911 188.58704 116.56368 196.04959 122.83105 196.91178 C 127.53418 197.5588 130.86107 199.47602 127.72167 199.73014 C 122.50049 200.15279 91.966132 194.9398 74.018547 190.56217 C 63.137133 187.90809 49.802688 184.57249 42.186516 182.59928 C 35.218961 180.7941 34.809096 180.79569 32.581047 182.611 L 30.252922 184.50749 L 33.454094 185.77116 C 41.483335 188.94175 68.636207 197.57218 78.288079 200.02116 C 84.159153 201.51085 93.287303 203.21488 98.571282 203.80827 C 103.85525 204.40168 112.26054 205.37772 117.25097 205.97624 C 122.24137 206.57472 130.27915 207.35734 135.1123 207.71647 L 143.89941 208.37077 L 142.46972 203.72624 C 139.83277 195.16184 133.55555 179.85044 128.58495 169.86296 C 125.87457 164.41653 123.65527 159.69821 123.65527 159.37663 C 123.65527 157.72898 127.1607 162.11035 130.91699 168.4528 C 136.2533 177.46318 147.89022 205.65644 148.7373 211.62858 C 152.38444 237.3419 154.39322 242.06682 154.52441 225.236 C 154.59311 216.41032 149.87354 195.6013 144.01464 178.90202 C 141.20228 170.88615 141.20262 170.88794 144.95409 174.4821 C 146.6869 176.14221 148.40568 178.87361 148.77441 180.55241 C 149.14314 182.23124 150.08221 183.60514 150.86034 183.60514 C 151.8943 183.60514 152.1348 184.82674 151.75683 188.14225 C 151.3768 191.47583 151.53444 192.25559 152.34863 191.08561 C 154.21103 188.40929 155.98695 191.20094 154.65331 194.70866 C 154.04438 196.31026 153.57844 198.91165 153.61816 200.48796 C 153.68956 203.31982 153.70406 203.32398 154.84863 200.95085 C 156.473 197.58271 158.20183 197.9459 157.39941 201.486 C 157.03343 203.10055 156.43911 206.10299 156.07909 208.15788 C 155.46097 211.68589 155.51489 211.77388 157.06542 209.75944 C 159.34788 206.7941 160.00795 207.98955 158.84863 212.98991 C 158.30798 215.32187 157.86935 218.1907 157.87402 219.36491 C 157.88302 221.46426 157.90822 221.4657 159.43847 219.44303 C 162.03748 216.00774 162.45964 218.37841 160.57909 225.86491 C 158.58993 233.78386 158.90795 235.48763 161.52636 230.93522 L 163.26855 227.90592 L 162.63574 232.17546 C 159.93405 250.40953 161.40445 252.59324 165.23534 236.03678 C 167.31999 227.02748 167.44111 224.93448 166.44433 215.22038 C 165.51628 206.17591 159.77681 180.30946 157.23925 173.7321 C 156.84285 172.70465 156.93807 171.86296 157.45019 171.86296 C 158.42845 171.86296 159.7425 175.34824 165.19628 192.40007 C 169.03005 204.38676 172.39664 222.82396 173.42675 237.47819 C 173.82012 243.07435 174.5068 247.65397 174.95214 247.65397 C 175.3975 247.65397 176.10673 245.13082 176.52831 242.0485 C 176.94997 238.9662 177.70934 235.35037 178.21581 234.01139 C 178.7223 232.67238 179.19416 227.38838 179.26464 222.26921 C 179.41242 211.54082 177.6469 205.51062 165.15917 174.1071 C 161.09748 163.89292 158.01158 155.29958 158.30175 155.00944 C 159.28319 154.02799 162.94991 159.54377 167.55175 168.92741 C 170.07112 174.0646 172.68577 178.26725 173.36425 178.26725 C 174.10551 178.26725 174.3944 179.33637 174.08691 180.94499 C 173.80536 182.41733 174.17731 185.0752 174.91308 186.85124 C 176.18493 189.92177 176.34757 189.99251 178.24316 188.27702 C 180.16862 186.53451 180.21354 186.63822 179.56542 191.36686 C 179.19634 194.05952 179.21929 197.55678 179.6162 199.13835 C 180.28224 201.79209 180.44651 201.86809 181.72558 200.11882 C 184.97539 195.6744 188.05993 202.57839 190.47558 219.69499 C 192.36459 233.08007 192.86539 251.99552 191.58105 261.53092 C 190.42475 270.11576 192.64456 265.87261 194.13769 256.64421 C 196.0844 244.6124 196.45573 232.6528 195.11425 225.24186 C 192.34346 209.93495 188.36836 196.29737 182.97558 183.60514 C 176.32943 167.96302 175.47733 165.45866 176.80566 165.45866 C 178.35064 165.45866 186.46322 183.9267 190.9287 197.60905 C 193.15495 204.43034 195.78669 211.5761 196.77636 213.48991 C 197.76604 215.40375 199.2707 219.31126 200.12011 222.17155 C 200.96952 225.03184 202.04245 227.37077 202.50488 227.37077 C 203.86003 227.37077 202.74663 208.32844 200.97949 201.27897 C 198.36726 190.85917 194.82204 183.31139 184.27441 165.72428 C 181.15419 160.52167 183.9122 161.54828 187.64941 166.98014 C 195.82373 178.86111 206.13715 203.05965 209.5205 218.2985 C 210.56332 222.99538 211.80272 228.27937 212.27441 230.04069 L 213.13183 233.24186 L 213.22753 229.76139 C 213.28063 227.84624 211.87348 220.72887 210.10058 213.94694 C 208.32765 207.16502 207.19267 201.10538 207.57909 200.48014 C 208.59059 198.84351 209.6281 201.11882 211.56347 209.22428 C 213.67243 218.05675 215.458 230.26917 215.458 235.84928 C 215.458 238.232 215.9553 240.18131 216.56152 240.18132 C 217.687 240.18132 217.21133 219.30314 215.89745 211.03483 C 214.98946 205.32108 206.9289 185.53928 199.94628 171.88835 C 195.76191 163.70794 192.52833 158.93436 188.82714 155.47233 C 182.25738 149.32724 181.67924 148.37858 184.50292 148.37858 C 191.1251 148.37858 221.72526 185.78968 234.38769 209.36686 C 240.31817 220.40929 246.5318 236.31922 248.61034 245.78483 C 249.35163 249.16071 250.31056 251.9235 250.74316 251.9235 C 253.47513 251.9235 252.41646 221.20423 249.58691 218.37467 C 249.01676 217.80451 248.5498 215.97645 248.5498 214.31413 C 248.5498 212.61226 247.84984 211.0234 246.94824 210.67741 C 246.06759 210.33945 245.34863 209.50175 245.34863 208.81413 C 245.34863 205.32397 237.07443 191.15021 228.15527 179.35905 C 219.30167 167.65459 200.0787 147.05342 192.30566 140.93913 C 190.46343 139.49005 190.09018 138.77116 191.1787 138.77116 C 195.86773 138.77116 214.43142 156.17678 227.6123 172.93132 C 240.57803 189.41241 248.88599 202.70808 256.44433 219.06803 C 263.9711 235.35962 264.96651 240.24287 264.9912 260.99772 C 265.0113 278.79789 264.9469 279.32802 261.5537 288.75163 C 256.84494 301.82916 256.76405 302.09538 257.40917 302.09538 C 257.72107 302.09538 259.62053 299.81188 261.62988 297.02311 C 266.72099 289.95711 272.41485 272.2579 271.76659 265.51139 C 271.49639 262.70019 271.68579 260.1443 272.18847 259.83366 C 273.42588 259.06889 273.29875 250.3315 271.96581 244.5485 C 271.29334 241.63117 271.25956 239.46165 271.87792 238.84342 C 272.95656 237.76478 272.15571 233.94764 268.80175 224.1696 C 267.69414 220.9405 266.27134 215.95472 265.63964 213.08952 C 263.39938 202.92892 253.37348 184.70492 235.1748 157.71842 C 229.7308 149.64569 225.82885 143.0536 226.50488 143.06803 C 227.18091 143.08243 231.28209 147.62838 235.61816 153.17155 C 256.76143 180.20085 272.13631 211.59501 275.44824 234.50163 C 276.15453 239.38653 277.11739 243.38444 277.58691 243.38444 C 278.80354 243.38444 278.64261 237.64953 277.32909 234.19499 C 276.00308 230.70726 276.8827 226.98823 278.43847 229.50553 C 280.67252 233.12026 280.27157 229.48543 277.8623 224.28483 C 274.46787 216.95841 274.34515 214.50104 277.51464 217.33171 C 279.35475 218.97511 279.14908 218.22242 276.44628 213.40788 C 272.46449 206.3151 272.34571 205.54257 275.49902 207.23014 C 277.81078 208.46737 277.80011 208.38189 275.15527 204.86491 C 271.38876 199.85644 270.60829 197.4821 272.72949 197.4821 C 274.0473 197.4821 273.77034 196.62625 271.48534 193.63053 C 269.12769 190.53945 268.83848 189.59931 270.0205 188.86882 C 271.15816 188.16569 270.40995 186.85513 266.7373 183.11296 C 263.86346 180.18476 262.61976 178.26725 263.59277 178.26725 C 264.47826 178.26725 265.77887 178.84396 266.48339 179.5485 C 267.47972 180.54481 267.76464 180.53123 267.76464 179.48796 C 267.76464 178.07786 261.48144 171.86296 260.05566 171.86296 C 259.59942 171.86296 259.22558 171.14206 259.22558 170.26139 C 259.22558 168.3503 259.73383 168.28582 262.62597 169.83366 C 265.09763 171.15645 265.28083 171.58242 259.46386 162.43327 C 257.4732 159.30227 256.06652 156.51809 256.33886 156.24577 C 256.61108 155.97342 259.10836 158.77545 261.88769 162.47233 C 273.33817 177.70291 279.4451 194.68402 283.25878 221.90397 C 285.86245 240.48738 285.02937 259.24184 280.69628 279.611 C 278.89307 288.08757 277.60561 295.2117 277.83495 295.44108 C 278.39934 296.00547 283.1201 287.84243 286.02636 281.27897 C 287.33519 278.32318 288.44186 273.55898 288.50488 270.60319 C 288.58758 266.71956 289.03764 265.26725 290.15722 265.26725 C 292.12371 265.26725 293.44088 259.51933 293.21581 251.9235 C 293.12011 248.69442 293.62308 244.63821 294.333 242.90983 C 295.09721 241.04946 295.36137 237.78317 294.97949 234.90397 C 294.62467 232.22901 294.37647 228.17713 294.4287 225.90007 C 294.4807 223.62298 293.7211 219.05988 292.73925 215.75944 C 291.75742 212.45898 291.03437 207.83638 291.13378 205.48796 C 291.23328 203.13953 290.37917 198.33676 289.23534 194.81413 C 288.09153 191.29147 286.59098 186.24713 285.90136 183.60514 C 284.84286 179.54967 279.90456 169.15446 268.48534 146.94499 C 267.32532 144.68875 264.04567 141.10403 261.19824 138.97819 C 258.35075 136.85236 255.73848 134.21762 255.39159 133.12467 C 252.42371 123.77366 270.22189 142.03386 283.29784 161.75553 C 287.95651 168.78193 292.13058 174.69262 292.57519 174.88835 C 293.01979 175.08415 293.38378 176.05172 293.38378 177.04069 C 293.38378 178.0297 294.6302 180.67423 296.15331 182.91569 C 297.67639 185.15714 298.69121 187.87231 298.40917 188.95085 C 298.12728 190.02936 298.83306 192.44901 299.97558 194.3278 C 301.11815 196.20654 301.78648 198.43705 301.46191 199.28288 C 301.13733 200.12868 301.58939 202.20705 302.46581 203.90202 C 304.30039 207.44972 304.54127 209.64906 302.9912 208.69108 C 301.54424 207.7968 301.64084 210.96949 303.1455 213.78092 C 304.07291 215.51383 304.05851 216.16346 303.09081 216.486 C 302.17433 216.79158 302.30936 217.65966 303.57128 219.58561 C 304.83984 221.5217 305.00332 222.58518 304.15917 223.42936 C 303.51739 224.07114 302.9912 226.87247 302.9912 229.65592 C 302.9912 235.24606 301.44143 237.71364 301.30566 232.33952 C 301.22626 229.19317 300.64972 224.29968 299.14745 214.02897 C 298.16436 207.30775 293.65313 191.37575 289.99902 181.71842 C 286.20609 171.69415 284.77403 170.3751 288.09081 179.96061 C 294.96536 199.82791 298.38819 216.59371 298.15331 229.23991 C 298.07421 233.49644 298.46279 236.97819 299.01464 236.97819 C 299.56659 236.97819 299.71682 237.76285 299.34863 238.72233 C 298.39351 241.21138 299.81958 247.82122 301.21191 247.3571 C 304.00453 246.4262 307.6986 236.38998 308.1748 228.43913 C 309.3827 208.27073 308.28781 188.48645 305.56933 181.36686 C 304.58215 178.78149 303.61993 174.24021 303.43066 171.27507 C 303.24151 168.3099 302.34731 164.46771 301.44433 162.736 C 300.54131 161.00431 299.79952 158.72228 299.79589 157.66569 C 299.76919 150.35292 287.45582 139.93028 264.48925 127.78483 C 255.45446 123.00695 248.3572 120.34673 233.74316 116.25553 C 224.66557 113.71429 224.79268 111.80713 233.94238 113.27507 C 248.8348 115.66437 274.40513 127.69522 290.69238 139.97624 C 293.707 142.24934 296.29029 143.52281 296.66308 142.9196 C 297.02448 142.33487 300.83855 145.48583 305.13964 149.92155 C 309.44071 154.35726 313.31413 157.986 313.74706 157.986 C 314.17996 157.986 314.28262 157.02546 313.97558 155.85124 C 313.10062 152.5054 314.12934 153.27051 319.00292 159.58757 C 323.62764 165.58201 326.08764 167.14766 324.87402 163.32389 C 324.50134 162.14966 324.48123 161.18913 324.82909 161.18913 C 325.17702 161.18913 328.56011 164.07079 332.34667 167.59342 C 336.13326 171.11608 339.79833 173.99772 340.4912 173.99772 C 341.23527 173.99772 340.96042 173.12382 339.81933 171.86296 C 338.20028 170.0739 338.15163 169.72819 339.52245 169.72819 C 340.42222 169.72819 341.79148 170.48939 342.56347 171.4196 C 344.14623 173.32666 352.62624 179.33561 353.73534 179.33561 C 354.13269 179.33561 354.18263 178.61472 353.84472 177.73405 C 352.94394 175.38662 354.24901 175.80339 358.95605 179.36491 C 363.20786 182.582 365.97167 183.41151 365.97167 181.47038 C 365.97167 179.80729 367.92389 180.20484 371.08691 182.51335 C 375.1196 185.45652 389.6237 185.15765 394.30761 182.03483 L 397.46191 179.93132 L 392.65917 179.04264 C 376.16325 175.99397 360.44851 171.44662 352.63378 167.45866 C 343.44901 162.77153 325.17103 150.54632 304.59277 135.3278 C 290.67116 125.03217 273.03228 115.78191 256.02245 109.85514 C 247.11466 106.75139 244.25595 106.27073 232.51074 105.90007 C 218.80599 105.46753 218.61361 105.49648 195.17675 111.67155 C 188.96619 113.30788 195.23876 109.82711 205.32324 106.04069 C 215.40166 102.25654 216.67344 102.03501 228.26855 102.04655 C 241.03204 102.05985 248.53461 103.21087 260.29199 106.96257 C 269.26409 109.82551 284.49513 116.92869 293.73534 122.55827 C 297.74446 125.00078 300.86575 126.57669 300.67284 126.06217 C 299.97436 124.19899 291.13741 115.24979 286.10839 111.31217 C 283.27722 109.09544 276.57527 105.15336 271.21581 102.55241 C 265.85636 99.951473 261.70861 97.440987 261.99706 96.974284 C 262.64475 95.926306 275.25017 100.5894 281.20605 104.07975 C 290.15471 109.32402 305.55363 124.5491 312.04784 134.57389 C 315.10154 139.28776 320.07128 142.89369 320.07128 140.39616 C 320.07128 139.50198 319.43359 138.77116 318.65527 138.77116 C 317.87694 138.77116 316.1123 137.57097 314.73339 136.10319 C 312.65809 133.89415 312.53519 133.43327 314.01464 133.43327 C 314.99764 133.43327 315.80175 133.99439 315.80175 134.67936 C 315.80175 135.36431 316.12231 135.60291 316.51464 135.21061 C 317.46355 134.26171 314.65386 129.08776 313.55761 129.7653 C 312.36764 130.50074 305.48357 124.18116 306.43652 123.22819 C 306.86224 122.80245 307.94204 123.06167 308.83691 123.80436 C 310.94912 125.55735 310.90786 124.43022 308.73925 121.12077 C 307.6955 119.52794 307.48194 118.48991 308.19628 118.48991 C 310.01567 118.48991 316.28951 127.67964 321.14941 137.46257 C 324.41118 144.02859 326.54714 146.93991 329.47558 148.81217 C 331.64198 150.19726 333.55135 151.21057 333.71777 151.06413 C 334.32173 150.53273 322.84025 132.73413 317.71191 126.25163 C 310.1239 116.66005 300.32748 108.15179 292.0498 103.96257 C 284.99678 100.39311 282.97335 98.206706 286.72167 98.206706 C 289.70268 98.206706 305.92585 109.60409 313.12988 116.75944 C 319.88425 123.46816 325.67794 130.52971 328.57128 135.5778 C 340.45064 156.30404 340.83721 156.83755 346.02831 159.66569 C 348.8567 161.20662 351.43394 162.20539 351.75488 161.88444 C 352.07579 161.56351 349.63751 155.76366 346.33495 148.99772 C 338.64184 133.23675 327.03946 117.74128 316.86425 109.63444 C 306.53612 101.40575 301.94088 98.837177 289.7373 94.476237 C 277.39802 90.066807 273.85671 88.171582 279.71581 89.111003 C 288.74643 90.558967 302.0954 95.990048 310.67675 101.70866 C 329.43515 114.20924 347.31644 137.11547 355.26464 158.82585 C 356.61609 162.51734 358.61755 166.01749 359.71191 166.60319 C 362.20043 167.93501 362.19448 167.22496 359.65331 159.83952 C 351.99926 137.59263 333.05275 111.63728 316.42675 100.62467 C 303.79969 92.260854 283.34163 86.503481 263.45605 85.716471 C 245.05995 84.988414 230.37208 87.136031 212.55566 93.155924 C 200.1076 97.361943 195.59898 97.849606 200.05761 94.50944 C 203.97103 91.577706 227.50248 85.413996 242.6787 83.345378 C 265.69399 80.208251 289.14384 83.532681 310.07909 92.900065 C 328.07536 100.95243 345.98863 120.21351 356.70995 143.04069 C 360.83153 151.81608 365.97167 165.29228 365.97167 167.32389 C 365.97167 168.73089 371.06571 172.46224 371.87792 171.65007 C 372.4758 171.05219 370.31164 163.85667 367.24902 156.25944 C 365.79442 152.65113 365.40572 150.4387 366.10449 149.73991 C 367.53661 148.30779 363.81941 141.33132 358.25292 135.00749 C 354.90871 131.20827 354.21806 129.83217 355.31542 129.15397 C 357.32207 127.91378 349.75677 118.05784 342.62206 112.61686 C 339.62515 110.33137 337.64132 108.1719 338.21386 107.81803 C 339.63352 106.94064 331.53594 100.32923 323.76855 96.023112 C 320.26654 94.081706 316.58435 91.661789 315.58495 90.646159 C 314.58557 89.63053 311.34926 88.280042 308.39355 87.646159 C 305.43786 87.012273 302.0522 85.527481 300.87011 84.345378 C 299.55201 83.027138 297.30622 82.194987 295.06152 82.194987 C 293.04858 82.194987 290.76702 81.561429 289.9912 80.786784 C 287.58982 78.389069 278.46705 76.674317 264.87206 76.066081 C 242.94526 75.08506 228.8691 78.396891 205.31738 90.075846 C 188.96468 98.184901 179.47553 104.17001 172.80566 110.57975 C 166.11956 117.00505 160.65489 118.17304 144.70605 116.58366 C 110.53413 113.17848 81.740068 99.464306 53.264641 73.034831 C 47.72092 67.889407 43.012142 64.20057 42.799797 64.837565 C 42.587467 65.474573 43.106137 68.65285 43.954094 71.900065 C 44.802054 75.14728 45.228301 78.07117 44.90136 78.398112 C 42.250058 81.049427 35.113779 75.26563 31.223626 67.312174 C 28.940593 62.644498 27.169455 60.645256 25.403313 60.960612 z M -61.358406 114.29655 C -60.756016 114.25215 -59.802953 114.94405 -58.594734 116.35514 C -57.589341 117.52936 -55.802032 118.48991 -54.622078 118.48991 C -52.068467 118.48991 -51.775442 120.12762 -54.165046 121.0446 C -56.392608 121.89939 -56.069151 121.99833 -59.270515 119.48014 C -60.817459 118.26331 -62.083015 116.58186 -62.083015 115.74382 C -62.083015 114.81094 -61.82693 114.33107 -61.358406 114.29655 z M -34.178718 117.44108 C -33.731381 117.45238 -33.163009 117.78532 -32.727546 118.48991 C -32.364695 119.07703 -30.415741 119.55632 -28.395515 119.55632 C -25.84215 119.55632 -24.721687 120.0448 -24.721687 121.15788 C -24.721687 123.01469 -28.355526 123.18058 -31.866218 121.48405 C -33.152969 120.86223 -34.457223 119.69457 -34.766609 118.88835 C -35.129033 117.94386 -34.753869 117.42654 -34.178718 117.44108 z M -31.893562 129.37077 C -31.63749 129.37177 -31.17094 129.74931 -30.327156 130.50358 C -29.299717 131.4217 -27.257817 132.33648 -25.790046 132.53678 C -24.322277 132.73709 -23.120124 133.582 -23.120124 134.41374 C -23.120124 136.79551 -24.967976 136.78389 -28.725593 134.37858 C -30.633695 133.15722 -32.194343 131.40977 -32.194343 130.49577 C -32.194343 129.74514 -32.149633 129.36968 -31.893562 129.37077 z M -47.284187 137.92546 C -46.837979 137.93246 -46.124301 138.17185 -45.165046 138.68522 C -43.979141 139.31991 -41.297587 139.83952 -39.204109 139.83952 C -35.279132 139.83952 -34.107306 141.25157 -37.084968 142.39421 C -40.348882 143.64668 -43.959539 143.01964 -46.16114 140.81803 C -47.959459 139.01972 -48.265844 137.90978 -47.284187 137.92546 z M -54.612312 143.63444 L -52.950203 146.00553 C -51.873029 147.5434 -50.18214 148.37858 -48.145515 148.37858 C -46.182109 148.37858 -45.00489 148.93232 -45.00489 149.85514 C -45.00489 152.32137 -49.048024 152.60116 -51.930671 150.33366 C -53.405424 149.17362 -54.612312 147.1916 -54.612312 145.92936 L -54.612312 143.63444 z M -22.610359 145.24186 C -22.117197 145.25676 -21.15338 145.94569 -19.858406 147.37663 C -18.730625 148.62279 -17.039651 149.36064 -15.958015 149.0778 C -14.791581 148.77277 -14.047859 149.163 -14.047859 150.07975 C -14.047859 151.01034 -15.178093 151.58171 -17.020515 151.58171 C -19.191 151.58171 -20.502385 150.71713 -21.883796 148.37858 C -23.101349 146.31741 -23.244423 145.22265 -22.610359 145.24186 z M -39.354499 153.08757 C -39.117154 153.08657 -38.70408 153.45868 -37.989265 154.1735 C -37.066676 155.0961 -34.664324 155.85124 -32.651374 155.85124 C -30.246924 155.85124 -28.991218 156.35764 -28.991218 157.3278 C -28.991218 159.58446 -32.656671 160.04746 -36.352546 158.25749 C -38.375293 157.27785 -39.666999 155.84193 -39.666999 154.57389 C -39.666999 153.57039 -39.623489 153.08905 -39.354499 153.08757 z M 303.7412 155.85124 C 303.45398 155.85124 304.36304 159.45739 305.76269 163.86491 C 310.97067 180.26491 312.95531 209.11816 310.60644 234.31022 C 309.90185 241.867 308.31883 247.84788 303.19238 262.33171 C 296.71747 280.62522 295.76715 286.99018 301.46386 273.91374 C 303.26789 269.77271 304.95384 267.27882 305.74316 267.58171 C 307.54475 268.27307 308.52911 266.37726 310.5537 258.3278 C 311.51356 254.51159 312.80701 251.49636 313.42675 251.62663 C 315.57474 252.0781 317.61949 243.24271 316.56933 238.04655 C 315.45492 232.53256 315.46369 231.79002 316.7705 220.96647 C 318.17861 209.30432 317.38615 192.3325 314.76074 177.88639 C 313.49667 170.93091 312.04713 164.14519 311.53808 162.80632 C 310.74225 160.71312 305.2919 155.85124 303.7412 155.85124 z M 253.09277 159.05436 C 253.97344 159.05436 255.29156 159.7733 256.02245 160.65397 C 257.10323 161.95623 257.05311 162.25553 255.75097 162.25553 C 254.8703 162.25553 253.55021 161.53464 252.81933 160.65397 C 251.73855 159.35171 251.79062 159.05436 253.09277 159.05436 z M -45.538093 161.18913 C -45.244539 161.18913 -44.04434 162.14966 -42.870124 163.32389 C -41.695909 164.4981 -39.772856 165.45866 -38.59864 165.45866 C -37.424423 165.45866 -36.463874 165.93796 -36.463874 166.52507 C -36.463874 168.41416 -41.73257 167.66262 -43.936531 165.45866 C -45.918224 163.47696 -46.776645 161.18913 -45.538093 161.18913 z M -23.958015 164.736 C -23.417552 164.7237 -22.528617 165.05835 -21.37989 165.86296 C -19.665812 167.06353 -17.752085 167.35825 -14.764656 166.88053 C -11.439723 166.34886 -10.664724 166.51962 -11.053718 167.70085 C -11.862957 170.15813 -19.654665 170.18319 -22.670906 167.73796 C -24.757122 166.04668 -24.989808 164.75946 -23.958015 164.736 z M 318.0498 165.56413 C 317.34753 165.5564 317.73272 166.73372 319.48339 169.02897 C 322.31105 172.73623 323.41344 176.69924 320.9248 174.21061 C 317.87143 171.15722 318.11926 173.34208 321.35449 178.00163 L 324.87402 183.07194 L 325.20605 177.20085 C 325.51194 171.79777 325.27758 171.09574 322.25488 168.39421 C 320.13594 166.50046 318.66945 165.57095 318.0498 165.56413 z M 330.4287 172.99967 C 330.34237 173.01764 330.27103 173.05496 330.21386 173.11296 C 330.02306 173.30663 329.5644 180.42996 329.19628 188.94303 C 328.50864 204.84657 327.23884 217.29651 325.30761 227.06022 C 324.03402 233.499 319.66257 247.63078 317.95995 250.81217 C 316.32233 253.87208 318.07371 253.46906 320.42089 250.24577 C 327.4767 240.55701 335.68443 222.43558 337.5498 212.42741 C 339.15908 203.79305 338.93117 183.63369 337.17675 179.39811 C 336.08896 176.77201 331.72368 172.73013 330.4287 172.99967 z M 204.80956 173.15007 C 204.79265 173.16017 204.78417 173.18086 204.78417 173.21452 C 204.78417 173.49895 206.04569 176.55465 207.58691 180.00358 C 216.46083 199.86173 222.47152 217.78913 225.17089 232.44303 C 227.32151 244.11789 228.66595 241.95753 227.82909 228.17155 C 226.64794 208.71433 224.28904 199.27077 218.43066 190.52311 C 213.79383 183.59948 205.33383 172.83675 204.80956 173.15007 z M -6.59864 174.37272 C -6.0684951 174.37772 -5.1514696 174.51551 -3.7627025 174.73014 C 1.2214155 175.50045 1.8501186 175.94395 -0.20215563 177.24186 C -2.559778 178.73288 -3.9130559 178.48433 -5.9990306 176.17936 C -7.2131834 174.83773 -7.6107347 174.36371 -6.59864 174.37272 z M -30.641609 175.74577 C -30.088164 175.74677 -29.102667 176.11869 -27.657234 176.99577 C -25.321622 178.413 -23.055345 178.92633 -20.719734 178.56413 C -17.134158 178.00808 -16.302793 179.03001 -18.530281 181.25749 C -20.337623 183.06485 -23.794829 182.84734 -26.885749 180.7321 C -30.648519 178.15708 -32.055966 175.74204 -30.641609 175.74577 z M 343.49316 179.33561 C 342.94071 179.33561 342.4873 180.5358 342.4873 182.00358 C 342.4873 184.98966 344.04574 185.58065 345.04589 182.97428 C 345.7719 181.08236 345.02653 179.33561 343.49316 179.33561 z M 352.22753 182.53874 C 350.46694 182.53874 350.3013 183.75842 350.2998 196.68132 C 350.2968 210.86455 349.20546 217.0811 343.99511 232.56999 C 341.76373 239.20326 334.74308 253.52809 330.20409 260.70866 C 327.00949 265.76253 326.07722 266.59588 324.833 265.51139 C 323.56471 264.40596 323.82818 263.76617 326.50292 261.4528 C 330.09508 258.34596 330.46405 257.26139 327.9287 257.26139 C 326.81209 257.26139 328.04031 255.52767 331.32324 252.47038 C 334.15217 249.83596 336.15138 247.36689 335.76659 246.9821 C 335.38179 246.5973 334.35643 246.87214 333.4873 247.59342 C 332.61819 248.31473 331.48739 248.64605 330.97558 248.32975 C 329.89433 247.66151 320.77959 263.21607 320.78613 265.71842 C 320.78913 266.64428 320.17916 267.88131 319.43066 268.46842 C 318.68219 269.05551 316.31884 273.05928 314.1787 277.36491 C 306.05839 293.70185 303.37788 305.78316 305.13183 318.15007 C 306.14003 325.25882 306.81477 327.71452 307.76074 327.71452 C 307.96655 327.71452 308.69274 324.23081 309.37402 319.97428 C 311.8403 304.56571 314.52331 298.76085 332.18456 270.60319 C 352.9478 237.5 356.64574 227.28506 356.72753 202.81999 C 356.78153 186.59303 355.88209 182.53874 352.22753 182.53874 z M 320.86034 183.56608 C 319.60621 183.57268 320.01955 185.87492 322.39355 188.76335 L 324.87402 191.78288 L 325.21581 189.25944 C 325.43698 187.62417 324.68596 186.02639 323.08105 184.71647 C 322.09664 183.91301 321.35109 183.5635 320.86034 183.56608 z M 3.9697194 183.60514 C 4.4849266 183.60514 5.5044681 184.32605 6.2353444 185.20671 C 6.9662338 186.08736 9.30675 186.81487 11.436516 186.82389 C 14.329627 186.83719 14.902352 187.10144 13.706047 187.87467 C 11.446383 189.33497 7.1024726 189.12907 4.8994069 187.45671 C 2.9387212 185.96835 2.3689342 183.60514 3.9697194 183.60514 z M 348.15136 185.20671 L 345.85253 187.23991 C 344.30974 188.60522 343.55566 190.52485 343.55566 193.08171 C 343.55566 196.78496 343.59896 196.8269 345.16894 194.58561 C 346.05684 193.31795 347.09182 190.68911 347.46777 188.74382 L 348.15136 185.20671 z M 361.90917 185.73991 C 360.16645 185.73991 360.02576 186.63074 360.41699 195.08171 C 361.53318 219.19226 357.68307 233.58179 343.23144 259.32585 C 327.07985 288.09815 323.48446 297.11729 322.5498 311.22233 C 321.88886 321.19626 322.85681 335.18717 324.208 335.18717 C 324.62971 335.18717 325.50834 330.98257 326.15917 325.84538 L 326.16113 325.84538 C 327.47197 315.4982 330.34526 307.57014 340.3623 286.66178 C 345.13545 276.6989 347.03053 271.49879 347.13964 268.06999 C 347.22674 265.3293 347.85776 263.1207 348.62597 262.86491 C 349.36372 262.61939 349.97521 263.29461 349.99316 264.37663 C 350.02326 266.2009 350.09855 266.20931 351.10058 264.48991 C 351.69183 263.47527 352.20635 259.99057 352.24511 256.74577 C 352.31741 250.69998 353.91122 247.80572 354.95995 251.81608 C 355.28252 253.04938 355.91408 254.05827 356.36425 254.05827 C 357.82228 254.05827 358.46441 249.38915 357.79394 243.65007 C 357.25213 239.01228 357.42477 238.04655 358.79784 238.04655 C 359.71041 238.04655 360.67051 238.64665 360.93261 239.38053 C 361.1948 240.11443 361.78534 240.36545 362.24316 239.93913 C 362.70093 239.51277 362.53036 236.45932 361.8662 233.15202 C 361.1204 229.43845 361.03194 226.47423 361.63183 225.40202 C 362.44134 223.95547 362.72426 224.1524 363.33495 226.58561 C 363.73808 228.19187 364.49705 229.50749 365.0205 229.50749 C 366.69931 229.50749 365.99204 222.71677 363.81347 217.91569 C 362.65215 215.35633 361.70214 212.59353 361.70214 211.77702 C 361.70214 209.499 363.60439 210.0149 364.3955 212.50749 C 364.78221 213.72593 365.36459 214.45831 365.68847 214.13444 C 366.01238 213.81054 365.1988 210.34965 363.87988 206.44499 C 362.00728 200.90122 361.77621 199.16404 362.82909 198.51335 C 363.90917 197.84581 363.91475 197.04293 362.85058 194.47624 C 361.87618 192.12377 361.82947 190.69608 362.6787 189.10905 C 364.24879 186.17526 364.14908 185.73991 361.90917 185.73991 z M 367.77441 186.49186 L 368.51074 195.45671 C 368.91562 200.38701 369.50235 207.54284 369.81542 211.35905 C 370.42807 218.82734 372.70791 227.20986 375.3955 231.87467 C 376.3153 233.47118 377.16315 234.67335 377.27831 234.5446 C 377.39345 234.4159 377.16366 224.35184 376.76855 212.18132 C 376.37332 200.01079 375.58436 189.59824 375.01464 189.04069 C 374.4449 188.48313 372.58215 187.6812 370.87597 187.25944 L 367.77441 186.49186 z M -7.8369213 187.24772 C -4.6249899 187.24172 -3.9429734 188.07408 -6.083015 189.63835 C -8.5366561 191.43248 -11.692207 191.41951 -14.971687 189.60124 C -17.36763 188.27282 -17.209078 188.16773 -11.881843 187.53678 C -10.259795 187.34467 -8.907565 187.24958 -7.8369213 187.24772 z M 320.72558 191.32585 C 320.61011 191.31807 320.50073 191.35929 320.40722 191.4528 C 319.60768 192.25234 323.37462 199.61686 324.583 199.61686 C 325.03661 199.61686 325.40917 198.41665 325.40917 196.94889 C 325.40917 195.37946 324.79535 194.28092 323.92089 194.28092 C 323.10304 194.28092 322.13095 193.48974 321.76074 192.52507 C 321.4831 191.80155 321.072 191.34917 320.72558 191.32585 z M 9.448235 196.45085 C 9.9785165 196.42425 10.603926 196.78118 11.083001 197.55632 C 11.47094 198.18398 13.782293 198.55249 16.217766 198.37663 C 19.560151 198.13545 20.645501 198.44543 20.645501 199.63835 C 20.645501 201.57456 13.03508 202.29719 10.237297 200.62663 C 9.2098486 200.01316 8.37011 198.81402 8.37011 197.96257 C 8.37011 197.00267 8.8472493 196.48095 9.448235 196.45085 z M 348.20214 196.80632 C 347.72364 196.77659 346.87406 197.36487 345.66113 198.5778 C 344.28252 199.9564 343.11536 202.73715 342.82128 205.33952 L 342.32128 209.75749 L 344.51855 207.08952 C 345.72622 205.62174 347.25136 202.82797 347.90917 200.88053 C 348.80971 198.21447 348.90149 196.84976 348.20214 196.80632 z M -3.3720775 198.0153 C 1.8805557 198.0153 3.890402 199.71832 0.27636 201.10514 C -1.9889971 201.97447 -3.4482591 201.82793 -6.3076244 200.44889 C -9.9966286 198.66974 -9.2074308 198.0153 -3.3720775 198.0153 z M 320.76269 199.96452 C 319.95129 200.05617 320.08425 201.06509 321.50097 202.63053 C 323.73678 205.1011 323.74312 206.02311 321.52441 206.02311 C 320.03545 206.02311 319.85976 206.96584 320.34863 212.3571 C 320.66454 215.84108 320.61937 218.99484 320.24706 219.36686 C 318.73986 220.87403 317.11458 232.17858 318.20995 233.53483 C 318.8141 234.28293 319.50039 234.70337 319.73534 234.46842 C 319.97018 234.23358 321.34341 227.66271 322.78613 219.86686 C 325.96446 202.69259 325.96461 202.61281 323.16894 200.86686 C 322.07594 200.18428 321.24953 199.90952 320.76269 199.96452 z M 183.81738 204.08757 C 183.61379 204.07133 183.41695 204.52686 183.06542 205.44303 C 182.15809 207.80742 183.30984 214.56217 184.62011 214.56217 C 185.14192 214.56217 185.53638 213.00152 185.49511 211.09342 C 185.45371 209.18533 185.05743 206.69737 184.61425 205.56608 C 184.23246 204.59145 184.02096 204.1038 183.81738 204.08757 z M 46.395501 205.67741 C 46.908312 205.67341 47.757085 205.94662 48.924797 206.55046 C 50.812332 207.52654 53.212962 207.92822 54.795891 207.53092 C 57.65398 206.81361 58.292467 207.9777 56.192376 210.0778 C 54.257843 212.01235 50.682088 211.61928 48.067376 209.18327 C 45.764449 207.03778 45.267313 205.68543 46.395501 205.67741 z M 348.12988 208.93522 L 344.77441 211.41569 C 342.92951 212.77966 341.42089 214.72607 341.42089 215.74186 C 341.42089 216.75766 341.12885 218.35031 340.77245 219.27897 C 339.75626 221.92717 341.71945 221.1466 344.29199 217.88053 C 345.57751 216.24844 346.9673 213.56933 347.37988 211.92546 L 348.12988 208.93522 z M 10.569329 209.2321 C 11.533957 209.2381 12.899052 209.8535 13.782219 210.91764 C 14.726676 212.05567 16.171412 212.41404 18.184563 212.01139 C 21.611682 211.32598 22.186296 212.88097 19.114251 214.52507 C 17.978641 215.13281 16.897275 215.59093 16.711907 215.5446 C 16.526525 215.4982 15.655072 215.19653 14.774407 214.87272 C 12.626398 214.08288 9.4365162 211.24665 9.4365162 210.12663 C 9.4365162 209.50853 9.9093196 209.22784 10.569329 209.2321 z M 133.38574 211.35905 C 131.9029 211.35905 131.90218 211.52362 133.38769 213.00944 C 135.26625 214.88799 145.38715 221.76799 145.83105 221.46842 C 145.99164 221.36006 145.82516 220.49869 145.46191 219.55241 L 145.46386 219.55241 C 144.65953 217.45646 135.67155 211.35905 133.38574 211.35905 z M 143.38574 211.71647 C 143.07758 211.72484 142.87011 211.95683 142.87011 212.36491 C 142.87011 212.98668 143.35138 213.49382 143.93847 213.49382 C 144.52559 213.49382 145.00488 213.282 145.00488 213.02311 C 145.00488 212.76424 144.52559 212.25705 143.93847 211.89421 C 143.73666 211.76948 143.54715 211.71209 143.38574 211.71647 z M 69.668938 211.861 C 70.036806 211.8717 70.699726 212.2826 71.895501 213.06608 C 73.673969 214.23136 75.676342 214.60484 77.842766 214.17155 C 80.556958 213.62871 81.0492 213.83176 80.756829 215.37467 C 80.34191 217.56428 74.016716 218.39016 71.083001 216.63835 C 70.055551 216.02482 69.215813 214.57624 69.215813 213.41764 C 69.215813 212.35292 69.252024 211.84884 69.668938 211.861 z M 56.161126 216.91764 C 56.598583 216.90164 57.456475 217.31115 58.709954 218.18913 C 60.052762 219.12967 62.524467 219.90006 64.204094 219.90007 C 68.337013 219.90007 67.40609 222.4649 63.118157 222.89225 C 60.616576 223.14144 59.323566 222.54307 57.581047 220.3278 C 55.8683 218.15039 55.432029 216.94424 56.161126 216.91764 z M 93.545891 216.94108 C 94.013709 216.92078 94.818627 217.18383 95.930657 217.77897 C 97.220963 218.46952 99.392801 218.82095 100.75683 218.56022 C 103.7544 217.98719 106.05859 219.21505 105.0498 220.84733 C 103.78623 222.89183 97.15983 222.22498 94.74511 219.81022 C 92.985683 218.05081 92.652787 216.97979 93.545891 216.94108 z M 187.2705 217.12272 C 187.11454 217.12579 186.90762 217.34762 186.63769 217.7653 C 185.2818 219.86341 185.2818 223.10124 186.63769 223.10124 C 187.2248 223.10124 187.69749 221.54059 187.68847 219.63249 C 187.67974 217.90484 187.56824 217.11685 187.2705 217.12272 z M 133.49316 217.7985 C 132.38698 217.70449 137.3618 222.61041 141.8037 225.89811 C 146.68036 229.50755 148.208 230.17139 148.208 228.67741 C 148.208 225.69048 142.50999 221.4231 133.79784 217.88639 C 133.66809 217.83372 133.5669 217.80477 133.49316 217.7985 z M 114.65136 221.50163 C 114.99195 221.50463 115.48211 221.65746 116.11425 221.99577 C 117.24987 222.60353 119.41062 223.10124 120.91698 223.10124 C 122.63988 223.10124 123.65722 223.69554 123.65722 224.7028 C 123.65722 226.87444 117.91829 226.81942 115.72558 224.62663 C 113.94231 222.84335 113.62958 221.49374 114.65136 221.50163 z M 343.85449 223.18717 C 343.31366 223.20185 342.49981 223.59415 341.42089 224.47038 C 339.54234 225.99599 336.93067 232.70866 338.21581 232.70866 C 338.69973 232.70866 340.33839 231.23182 341.85839 229.42546 C 344.75131 225.98739 345.3497 223.1466 343.85449 223.18717 z M 80.502922 225.02311 C 80.973078 225.01281 81.751367 225.26608 82.825188 225.82585 C 84.624597 226.76385 87.102909 227.1059 89.229485 226.71061 C 92.806364 226.04571 93.65987 227.05171 91.418938 229.29264 C 89.44259 231.26901 84.396023 230.81075 82.024407 228.43913 C 79.927249 226.34196 79.468583 225.04578 80.502922 225.02311 z M 135.71386 226.59538 C 135.35844 226.61935 135.77075 227.25009 136.55761 228.43717 C 137.48838 229.84139 139.1629 231.49736 140.28027 232.11686 C 141.39761 232.73633 143.45578 234.07595 144.85253 235.09538 C 147.96269 237.3654 150.0759 236.43136 147.71972 233.8278 C 146.7879 232.79815 143.51569 230.58922 140.44628 228.9196 C 137.50549 227.31991 136.11667 226.56821 135.71386 226.59538 z M 103.72753 227.37077 C 104.47234 227.37077 105.6402 227.92991 106.32323 228.61296 C 107.00627 229.29599 109.26446 229.79058 111.34081 229.71257 C 115.48128 229.55679 116.28242 230.94255 113.05175 232.67155 C 110.43629 234.0713 109.86464 234.02642 106.43652 232.16374 C 103.33292 230.4774 101.57679 227.37077 103.72753 227.37077 z M 188.6455 229.38053 C 187.89862 229.44004 187.66655 231.22562 188.31738 233.46061 L 189.18652 236.44499 L 189.59277 233.41178 C 189.8166 231.74357 189.72365 230.10305 189.38574 229.7653 C 189.104 229.48356 188.85463 229.36387 188.6455 229.38053 z M 340.53808 233.96257 C 338.8292 233.87937 335.42008 237.38704 333.1748 241.77507 L 330.44628 247.10514 L 335.13378 242.93132 C 337.71109 240.63639 340.2555 237.873 340.78808 236.79069 C 341.32065 235.70837 341.48779 234.55485 341.15917 234.22624 C 340.99284 234.0599 340.7822 233.97445 340.53808 233.96257 z M 136.92284 234.361 C 136.09111 234.33156 136.47127 235.14549 138.33495 236.56022 C 140.16921 237.95264 142.87011 238.53702 142.87011 237.54069 C 142.87011 237.26216 141.43027 236.28745 139.66894 235.37663 C 138.35794 234.69868 137.42188 234.37867 136.92284 234.361 z M 94.190422 236.36491 C 94.525971 236.37951 95.109647 236.73073 96.098626 237.4235 C 97.388105 238.32668 99.482937 238.79159 100.78613 238.46452 C 103.52898 237.77609 105.40769 239.98146 103.24511 241.35124 C 101.12126 242.69648 98.90827 242.43985 96.168938 240.52897 C 94.847946 239.60748 93.766594 238.16431 93.766594 237.32194 C 93.766594 236.6722 93.854875 236.3503 94.190422 236.36491 z M 112.76269 242.45085 C 113.15407 242.43285 113.74454 242.68664 114.4912 243.30632 C 115.52856 244.16721 117.68308 244.3563 120.92089 243.87077 C 126.08992 243.09562 127.55762 244.49766 123.72558 246.5485 C 120.40481 248.32571 115.6154 247.83917 113.50878 245.51139 C 112.00086 243.84514 111.90165 242.49044 112.76269 242.45085 z M 64.145501 242.73014 C 61.814884 242.56522 59.626075 244.05467 56.852532 247.26139 C 55.04307 249.35342 51.198926 252.34811 48.311516 253.91569 C 41.071818 257.84619 41.541832 259.90728 52.053704 270.33757 C 60.345555 278.56505 64.132597 280.94041 61.694329 276.38444 C 59.84361 272.92636 61.449734 272.59258 64.747063 275.75163 C 69.292552 280.10646 70.928005 279.19787 67.143547 274.4196 C 63.257738 269.51335 64.422471 267.80194 69.016594 271.66764 C 73.182769 275.17325 80.866528 278.57861 82.874016 277.80827 C 83.948706 277.39585 82.926254 276.41945 79.702141 274.78092 C 74.302313 272.03662 71.762091 269.53451 73.37011 268.54069 C 73.95145 268.18139 77.33856 269.41249 80.895501 271.27702 C 86.131858 274.02183 87.819975 274.45906 89.764641 273.5778 C 92.063039 272.53625 91.983298 272.41207 87.934563 270.70475 C 82.673222 268.48607 79.870806 266.02231 80.561516 264.22233 C 80.852067 263.46517 79.619217 260.45487 77.821282 257.53288 C 76.023361 254.61088 74.551751 251.72923 74.551751 251.12858 C 74.551751 250.52796 72.585553 248.25827 70.180657 246.08561 C 67.857013 243.98634 65.958203 242.85842 64.145501 242.73014 z M 190.31933 244.22624 C 190.17031 244.24436 190.06214 244.89653 190.04784 246.05241 C 190.02444 247.81373 190.24774 248.6638 190.54003 247.94108 C 190.83259 247.21837 190.84962 245.77657 190.57909 244.73796 C 190.4861 244.38093 190.39739 244.21674 190.31933 244.22624 z M 100.06152 252.111 C 100.5069 252.12 101.0355 252.36038 101.46972 252.7946 C 102.16446 253.48935 104.55902 254.05827 106.79003 254.05827 C 111.4415 254.05827 112.13488 255.75594 108.10839 257.28678 C 104.58404 258.62673 105.02939 258.73115 101.56542 255.74967 C 99.918136 254.33189 98.93953 252.80432 99.389641 252.35319 C 99.558433 252.18401 99.794286 252.10542 100.06152 252.111 z M 123.14941 260.99772 C 126.86612 260.99772 127.9098 261.36529 127.67675 262.59733 C 127.31036 264.53432 122.77059 265.14531 120.18652 263.60514 C 117.1318 261.78448 118.02701 260.99772 123.14941 260.99772 z M 341.42089 267.93522 C 342.00799 267.93522 342.4873 269.34918 342.4873 271.07585 C 342.4873 272.80253 342.00799 274.51181 341.42089 274.87467 C 340.78561 275.26729 340.35253 273.99498 340.35253 271.73405 C 340.35253 269.64451 340.83378 267.93522 341.42089 267.93522 z " />
    <path
       id="path3362"
       style="display:inline;fill:#ffcc00;stroke-width:1.06747"
       d="M -42.893562 -90.066732 C -46.07516 -90.010657 -48.021964 -89.418555 -49.924812 -88.000326 C -54.250424 -84.776362 -54.15273 -83.552821 -49.506843 -82.767904 C -47.225849 -82.382533 -41.315157 -79.719934 -36.374031 -76.851888 C -31.432912 -73.983846 -27.238116 -71.610815 -27.051765 -71.578451 C -26.865425 -71.546091 -26.974941 -72.361557 -27.293953 -73.388997 C -27.612991 -74.416437 -27.991311 -76.875703 -28.135749 -78.855794 C -28.322456 -81.415155 -29.1024 -82.777145 -30.831062 -83.564779 C -33.93818 -84.98047 -33.952028 -86.43901 -30.860359 -86.551107 C -26.082809 -86.724305 -35.707306 -89.911776 -41.452156 -90.058919 C -41.960611 -90.071942 -42.439048 -90.074743 -42.893562 -90.066732 z M -26.393562 -63.402669 C -28.424116 -63.434657 -31.824965 -63.005481 -37.413093 -62.070638 C -43.96769 -60.974112 -49.677673 -59.70624 -50.102546 -59.252279 C -50.527423 -58.798314 -46.55254 -58.832681 -41.268562 -59.328451 C -35.984584 -59.824231 -29.619243 -60.235492 -27.124031 -60.242513 C -22.355375 -60.255863 -21.63922 -60.863619 -24.041999 -62.857747 C -24.451079 -63.197252 -25.175229 -63.383477 -26.393562 -63.402669 z M -81.282234 218.63835 C -81.785243 218.64702 -82.231428 218.76012 -82.627937 218.97233 C -84.625734 220.04153 -84.56859 220.20074 -81.520515 222.05436 C -79.653807 223.18958 -78.373964 224.82755 -78.467781 225.95866 C -78.578933 227.29887 -77.548197 228.22468 -75.16114 228.92741 C -73.253037 229.48917 -71.690437 230.56573 -71.690437 231.31999 C -71.690437 232.07426 -70.729888 233.29176 -69.555671 234.02507 C -68.381453 234.75838 -67.420906 236.44267 -67.420906 237.76921 C -67.420906 239.46944 -66.791152 240.18132 -65.28614 240.18132 C -64.111922 240.18132 -63.151374 240.87966 -63.151374 241.7321 C -63.151374 243.69473 -56.48942 248.1673 -45.538093 253.56022 C -40.841715 255.87293 -37.772939 257.91535 -38.717781 258.09733 C -40.33379 258.40855 -46.056577 256.15948 -72.493171 244.82194 C -97.976744 233.89308 -103.6727 232.53489 -107.03614 236.58757 C -108.86041 238.78569 -107.35279 239.655 -104.20411 238.22038 C -99.993987 236.3021 -98.119014 236.61912 -98.91114 239.11491 C -99.449033 240.80965 -99.103674 241.24967 -97.233406 241.24967 C -95.937571 241.24967 -94.291031 242.05 -93.575203 243.02897 C -92.859377 244.00791 -91.125463 244.94559 -89.721687 245.11296 C -84.246671 245.76583 -80.231453 246.86818 -80.231453 247.71842 C -80.231453 248.66607 -70.104875 254.05827 -68.325203 254.05827 C -67.744395 254.05827 -66.586294 254.74053 -65.752937 255.57389 C -64.91958 256.40725 -60.990825 257.42474 -57.022468 257.83561 C -45.440107 259.03482 -41.231425 259.91788 -41.801765 261.02702 C -42.095319 261.59784 -44.256066 261.99989 -46.604499 261.9196 C -48.952934 261.8392 -60.241818 261.41723 -71.690437 260.9821 L -92.506843 260.19108 L -95.174812 263.08366 L -97.844734 265.97428 L -94.909187 265.23796 C -92.911673 264.73691 -91.97364 264.91663 -91.97364 265.80046 C -91.97364 266.64105 -91.063469 266.87192 -89.393562 266.4528 C -87.959039 266.09276 -86.646574 266.303 -86.438484 266.92741 C -86.196868 267.65223 -85.163063 267.71779 -83.522468 267.111 C -82.124593 266.59392 -78.769798 266.51972 -76.06739 266.94694 C -73.364983 267.37413 -68.763229 267.56182 -65.842781 267.36491 C -62.922339 267.16809 -60.041622 267.40578 -59.440437 267.89225 C -58.839249 268.37893 -56.185942 268.64193 -53.543953 268.47624 C -50.901964 268.31044 -48.232395 268.58522 -47.610359 269.08561 C -46.988311 269.58613 -45.06526 269.89116 -43.338874 269.7653 C -39.144987 269.45974 -39.131415 272.31273 -43.319343 273.78092 C -46.520293 274.90313 -52.477546 280.16023 -52.477546 281.86296 C -52.477546 282.38732 -53.917392 283.88302 -55.678718 285.18522 C -58.6964 287.41631 -59.992007 290.35319 -57.958015 290.35319 C -57.450083 290.35319 -55.647833 289.29336 -53.954109 287.99772 L -53.954109 287.99577 C -52.260387 286.70009 -47.344343 282.37861 -43.028328 278.3903 C -35.312866 271.26064 -35.081177 271.13835 -29.299812 271.13835 C -23.733081 271.13835 -23.107965 271.42376 -17.573249 276.4821 C -12.285493 281.3148 -9.7783275 282.33428 -9.7783275 279.65202 C -9.7783275 279.11999 -11.303988 276.946 -13.168953 274.82194 L -16.559578 270.96061 L -4.3623119 271.51921 C 8.0221091 272.08551 23.010128 272.8857 39.204094 273.84538 C 46.614031 274.28451 47.952205 274.12904 46.967766 272.94303 C 46.103228 271.90131 39.181247 271.14124 21.618157 270.15983 C 7.5040989 269.37113 -4.1576535 268.21533 -6.426765 267.38053 C -9.2862167 266.32854 -9.6934524 265.932 -7.9716869 265.87663 C -6.6853443 265.83523 -5.3482005 265.33807 -4.9990306 264.77311 C -4.6024124 264.13137 -3.3480948 264.20873 -1.6552806 264.98014 C 0.44184061 265.93566 1.5487858 265.90759 3.2372975 264.85319 C 4.8021195 263.87596 5.7447279 263.81777 6.573235 264.64616 C 8.1585988 266.23152 13.422332 266.10388 13.99511 264.46647 C 14.340532 263.47896 14.988874 263.59879 16.487297 264.92546 C 18.015836 266.27878 18.993971 266.44733 20.481438 265.61491 C 21.859842 264.84352 22.805689 264.865 23.629876 265.68913 C 25.216077 267.27536 28.358407 267.18497 28.956047 265.53483 C 29.339109 264.47707 29.928564 264.48893 31.797844 265.59538 C 33.497525 266.60134 34.541754 266.67025 35.538079 265.84342 C 36.298326 265.2125 37.702137 264.99645 38.657219 265.36296 C 40.839825 266.20051 40.926663 264.36822 38.788079 262.59342 C 37.636926 261.63804 28.335096 261.03525 5.9619069 260.46452 C -22.005799 259.75107 -25.827724 259.43785 -30.743171 257.45866 C -40.308195 253.60729 -47.931404 247.8927 -59.708015 235.74577 C -71.44369 223.64105 -77.761166 218.57761 -81.282234 218.63835 z M 134.54394 283.11882 C 133.57815 282.65418 133.14347 291.61903 132.96191 313.36491 C 132.8348 328.59551 132.32755 341.68063 131.83495 342.44303 C 130.01633 345.25776 128.24984 341.80037 128.54589 336.00553 C 128.70641 332.86339 128.28215 329.73887 127.57909 328.88639 C 126.61408 327.71624 126.63142 327.2635 127.65917 326.91764 C 129.24149 326.38504 129.46825 323.44303 127.92675 323.44303 C 126.38627 323.44303 126.60956 320.50645 128.19238 319.9528 C 129.16137 319.61384 128.99429 318.88614 127.58105 317.29264 C 125.69798 315.16943 125.69798 315.05976 127.58105 313.93327 C 129.46241 312.80783 129.46333 312.73068 127.58495 311.6071 C 125.70654 310.48328 125.70654 310.39467 127.58495 308.93717 C 129.42672 307.50811 129.43033 307.37189 127.65917 306.31022 C 125.37011 304.93802 125.21863 303.16178 127.39159 303.16178 C 129.56453 303.16178 129.41526 301.3865 127.12597 300.01335 C 125.34686 298.94622 125.34686 298.83829 127.12597 297.77116 C 129.63196 296.268 129.49174 294.62272 126.85839 294.62272 C 125.68417 294.62272 124.72363 294.14147 124.72363 293.55436 C 124.72363 292.96725 125.44452 292.48796 126.32519 292.48796 C 127.20586 292.48796 127.92675 292.00671 127.92675 291.4196 C 127.92675 290.83249 127.20586 290.35319 126.32519 290.35319 C 124.20079 290.35319 124.29969 289.30724 126.59081 287.56803 C 128.32514 286.2515 128.2918 286.14838 126.11816 286.11686 C 122.02353 286.05746 120.89818 289.18113 121.66113 298.49186 C 122.03998 303.11512 122.28339 322.29184 122.20214 341.10514 C 122.03918 378.83752 122.12914 378.30792 114.93456 384.13249 C 112.67665 385.96046 112.13281 387.00279 112.93261 387.96647 C 113.53681 388.69449 113.71345 389.60557 113.32714 389.99186 C 112.10721 391.21181 110.84667 390.75523 110.84667 389.09342 C 110.84667 386.85722 109.82644 387.04502 101.80566 390.75749 C 97.925834 392.55331 92.201619 394.43774 89.084954 394.94499 C 83.123961 395.91519 75.62011 398.63624 75.62011 399.8278 C 75.62011 400.21413 76.370982 400.24125 77.290032 399.88835 C 78.572799 399.3961 78.804657 399.74283 78.286126 401.37663 C 77.775984 402.98398 78.098977 403.50358 79.604485 403.50358 C 80.700859 403.50358 82.054544 403.05254 82.612297 402.50163 C 83.170051 401.95068 87.60307 399.54026 92.46386 397.14421 C 99.714507 393.57008 101.69055 392.9967 103.46972 393.94889 C 106.21497 395.41813 105.52403 397.74094 102.47363 397.2985 C 100.95491 397.07833 100.17089 397.53199 100.17089 398.63249 C 100.17089 399.70036 99.211124 400.30241 97.502922 400.30241 C 96.035147 400.30241 94.834954 400.78171 94.834954 401.36882 C 94.834954 401.95591 93.632793 402.43717 92.165032 402.43717 C 90.697256 402.43717 89.497063 402.91646 89.497063 403.50358 C 89.497063 404.09069 88.857583 404.57194 88.077141 404.57194 C 86.496193 404.57194 71.951767 412.50678 65.74511 416.75553 C 60.890569 420.07874 60.369305 422.56108 65.096672 419.84342 C 67.609741 418.39872 68.570271 418.25006 68.922844 419.24967 C 69.608197 421.19283 71.063654 420.90178 74.889641 418.05827 C 76.75856 416.66927 79.729875 415.26348 81.491204 414.93327 C 83.252521 414.60302 88.536524 412.17148 93.233391 409.53092 C 97.930247 406.89035 103.76836 404.20827 106.208 403.56999 C 108.64762 402.93171 111.66006 401.57413 112.90136 400.55436 C 115.39853 398.50285 124.03439 379.36207 123.12597 377.89225 C 122.15143 376.3154 124.72905 375.4935 126.37206 376.8571 C 128.38155 378.52479 128.35941 380.01921 126.32519 380.01921 C 125.43563 380.01921 124.72363 380.96791 124.72363 382.15397 C 124.72363 383.32819 125.20489 384.28874 125.79198 384.28874 C 126.37909 384.28874 126.85839 384.77 126.85839 385.3571 C 126.85839 385.94421 126.07808 386.42546 125.12402 386.42546 C 123.76597 386.42546 123.52883 387.11944 124.03027 389.62663 C 124.52618 392.10623 124.2882 392.82975 122.97948 392.82975 C 121.70961 392.82975 121.45674 393.49274 121.95995 395.49772 C 122.44366 397.42497 122.20041 398.16764 121.083 398.16764 C 120.23198 398.16764 119.38194 399.24706 119.19433 400.56803 C 119.00673 401.88903 118.31059 402.97038 117.64745 402.97038 C 116.3107 402.97038 103.43332 414.92324 98.836907 420.43132 C 97.22236 422.36605 95.90136 424.9576 95.90136 426.18913 C 95.90136 428.37918 95.960773 428.37271 98.625969 425.86882 C 100.86511 423.76527 101.51841 423.57926 102.29003 424.8278 C 103.03284 426.0297 104.02461 425.48029 107.03027 422.19889 C 109.12003 419.91738 111.0701 417.30045 111.36425 416.38249 C 111.65842 415.4645 114.18456 413.29019 116.97753 411.55241 C 124.22323 407.04428 132.19162 400.04466 132.21386 398.16764 C 132.22446 397.28698 133.39528 395.46337 134.81542 394.11686 C 136.23556 392.77032 137.54718 390.71069 137.73144 389.53874 C 138.24175 386.29316 139.89925 386.58707 141.08105 390.13249 C 141.66285 391.8779 143.51262 394.75955 145.19042 396.53678 C 147.66782 399.16102 148.4224 399.48063 149.20995 398.236 C 149.92741 397.1021 150.54927 397.0063 151.59667 397.86882 C 153.48288 399.42203 163.15331 400.83429 163.15331 399.55632 C 163.15331 397.75472 157.36878 393.04591 151.33105 389.93327 C 144.63358 386.48056 134.33185 378.04802 134.33105 376.01725 C 134.33076 375.28337 135.125 374.68327 136.09667 374.68327 C 137.74055 374.68327 137.74055 374.5465 136.09667 372.73014 C 133.90633 370.30986 133.86055 369.34538 135.93261 369.34538 C 138.01881 369.34538 137.95576 368.37793 135.708 365.89421 C 134.16283 364.18683 134.11601 363.73425 135.39941 362.94108 C 136.67741 362.15121 136.61514 361.67288 135.01074 359.90007 C 133.1833 357.88074 133.18533 357.75181 135.0537 356.69108 C 136.66809 355.77449 136.78235 355.23226 135.72753 353.50749 C 135.02821 352.364 134.70645 351.17699 135.01269 350.87077 C 135.82685 350.05662 136.0992 287.92522 135.30175 284.90592 C 135.01905 283.83558 134.76681 283.22603 134.54394 283.11882 z M 142.17284 354.40007 C 141.96948 354.40007 141.8037 356.0483 141.8037 358.06217 C 141.8037 361.68417 141.8399 361.71234 145.26464 360.73014 C 147.16886 360.18402 148.85032 359.73796 149.00097 359.73796 C 149.15161 359.73796 149.27636 359.29378 149.27636 358.74967 C 149.27636 357.94174 143.49264 354.40007 142.17284 354.40007 z M 124.0537 357.88053 C 124.38633 357.87153 124.98631 358.22505 126.05761 358.93522 C 128.56798 360.59928 129.92799 364.00749 128.08105 364.00749 C 127.49283 364.00749 126.25559 363.25235 125.333 362.32975 C 124.4104 361.40715 123.65722 359.90808 123.65722 358.99772 C 123.65722 358.25945 123.72112 357.88926 124.0537 357.88053 z M 125.23339 365.40788 C 125.61871 365.41848 126.07891 365.71234 126.51855 366.39225 C 127.56814 368.01544 127.81972 375.74967 126.82323 375.74967 C 126.43736 375.74967 125.32613 374.87217 124.35448 373.7985 C 122.15377 371.36673 122.11868 370.41178 124.22753 370.41178 C 125.51842 370.41178 125.63151 369.97412 124.75878 368.34342 C 123.89618 366.73165 124.3857 365.38457 125.23339 365.40788 z M 108.05956 391.05827 C 108.2976 391.05794 108.56873 391.13977 108.86034 391.31999 C 110.07293 392.06941 110.04488 394.96452 108.82519 394.96452 C 108.30089 394.96452 107.61376 394.29168 107.29784 393.46842 C 106.77652 392.10987 107.20944 391.05945 108.05956 391.05827 z " />
    <path
       id="path3340"
       style="display:inline;fill:#d45500;stroke-width:1.06747"
       d="m -1.4990306,-96.349935 c -7.4722726,-0.20129 -14.4270604,1.376125 -18.5742184,4.943359 -3.833961,3.297836 -2.543987,5.407479 2.683593,4.392579 7.299843,-1.417214 15.4735207,-0.960332 19.8886722,1.111328 3.8044264,1.785094 3.9971802,2.04757 1.7734375,2.408203 -1.9689309,0.319305 -2.3720762,0.899806 -1.9082031,2.748047 0.8035378,3.201469 -5.6518049,10.292968 -9.3691406,10.292968 -6.337944,0 -11.017203,-4.733221 -9.990234,-10.105468 0.339027,-1.773556 0.09765,-2.645533 -0.66211,-2.396485 -0.65691,0.21533 -1.351018,1.795671 -1.542969,3.511719 -0.594774,5.317227 -2.097697,5.260009 -3.671875,-0.138672 -1.130868,-3.878325 -1.638935,-4.605009 -2.068359,-2.96289 -1.861784,7.119473 2.87519,23.833984 6.753906,23.833984 4.756615,0 5.295235,8.724552 1.296875,21.003906 -1.371899,4.213275 -2.49414,8.640937 -2.49414,9.837891 0,3.734345 -3.302437,12.269345 -5.826172,15.060547 -1.327133,1.467771 -3.31588,4.349409 -4.419922,6.4042965 -1.104042,2.0548741 -2.733929,4.6587448 -3.621094,5.78710938 -1.242267,1.58001894 -1.269902,1.85035102 -0.123047,1.17578125 1.16304,-0.68408942 1.371351,-0.2570813 0.949219,1.95117187 -0.653281,3.4174024 0.11596,3.5322036 3.878906,0.5722656 2.987421,-2.34990533 4.5086,-2.13616937 3.5,0.4921875 -0.656823,1.7116595 -12.22985,7.7115559 -13.132812,6.8085939 -0.317406,-0.317395 0.216998,-2.1155926 1.189453,-3.9960939 3.394972,-6.56514176 -0.427411,-2.0183913 -5.441406,6.4726559 -4.972243,8.420355 -6.648301,14.894692 -3.855469,14.894532 0.763037,-4e-5 2.837409,-0.749691 4.609375,-1.666016 6.107115,-3.15811 5.584315,-0.865924 -0.699219,3.064453 -6.498534,4.064849 -9.611592,4.870301 -10.34375,2.673828 -0.334848,-1.004263 -14.701172,20.590219 -14.701172,22.097657 0,0.220229 2.641997,-0.76725 5.871094,-2.195313 3.229097,-1.428063 5.871094,-2.305291 5.871094,-1.947266 0,0.35804 0.799605,-0.0077 1.777344,-0.8125 1.627819,-1.341521 1.720162,-1.043591 1.095703,3.546875 l -0.681641,5.013672 4.375,-1.542968 c 2.406698,-0.84913 5.139607,-1.544922 6.072266,-1.544922 3.229013,0 -1.133348,3.072041 -7.580078,5.33789 -7.951269,2.794646 -9.275608,2.753107 -8.554688,-0.267578 0.31527,-1.320993 -2.131725,1.165683 -5.4375,5.525391 -3.305776,4.359707 -6.011719,8.087835 -6.011719,8.285156 0,0.197322 1.921097,0.05128 4.269532,-0.324219 2.632447,-0.42094 4.271484,-0.265659 4.271484,0.404297 0,0.597694 -3.593719,5.343252 -7.986328,10.544922 -4.392611,5.201656 -7.548319,9.60662 -7.011719,9.789063 0.536605,0.182443 2.493921,-0.454447 4.349609,-1.414063 1.855691,-0.959616 3.665926,-1.451258 4.023438,-1.09375 0.357513,0.357521 -1.124376,4.234532 -3.292969,8.617188 -2.195383,4.436792 -3.396969,7.968752 -2.71289,7.968752 0.675729,0 3.725644,-1.88588 6.779296,-4.19141 4.959054,-3.744113 14.479347,-14.906968 15.75,-18.468749 1.155653,-3.239414 1.759891,0.347894 0.865235,5.136719 -0.539107,2.885695 -0.848337,5.380177 -0.685547,5.542969 1.175275,1.175272 17.121883,-16.668157 19.34375,-21.644531 1.335011,-2.990054 1.400826,-2.723737 0.988281,4.003906 -0.24812,4.045995 -0.0063,7.205078 0.550781,7.205078 1.60383,0 17.020931,-15.679914 17.988282,-18.294922 0.762023,-2.059927 1.241208,-1.379602 3.4550779,4.904297 2.2898501,6.49954 7.8524632,14.333084 9.2128906,12.972656 0.28211176,-0.282108 -0.078363,-3.82949 -0.8027344,-7.882812 -1.7484419,-9.783681 -0.2724154,-13.423585 5.6425781,-13.914063 2.794912,-0.231744 3.9960938,0.09972 3.9960938,1.101563 0,0.787702 2.918938,4.298471 6.486328,7.802734 l 6.484375,6.371094 -0.796875,-5.335938 c -1.735034,-11.60568 -0.218464,-15.37043 6.224609,-15.445312 2.374995,-0.02766 3.231579,0.706933 4.578125,3.929687 1.84007,4.403902 4.278923,7.437639 7.267579,9.03711 2.220219,1.188221 2.194674,0.966374 -1.136719,-9.5 -0.975438,-3.064614 -1.479931,-5.863833 -1.121094,-6.222657 0.826633,-0.826632 4.91568,1.262743 8.041016,4.109375 3.145067,2.864609 3.034783,2.012349 -0.800782,-6.191406 -1.761332,-3.767252 -3.203125,-7.588997 -3.203125,-8.49414 0,-1.897587 2.420704,-2.139876 5.408204,-0.541016 2.658086,1.422571 2.604534,0.959635 -0.605469,-5.375 -2.396946,-4.730165 -3.49488,-9.607422 -2.164063,-9.607422 0.276817,0 3.232287,1.206258 6.56836,2.681641 3.336099,1.475368 6.317709,2.432289 6.625,2.125 0.307289,-0.307264 -0.676753,-1.875957 -2.185547,-3.484375 -5.20853,-5.552477 -10.73575,-15.453678 -11.269531,-20.1894535 -0.59933,-5.3171692 0.09293,-5.6066791 5.613281,-2.3496094 2.113509,1.247002 4.097336,2.0120383 4.408203,1.7011719 C 53.102852,8.9954487 52.188466,6.890256 50.760735,4.6285806 46.292787,-2.4491096 43.529623,-8.8956139 42.83886,-13.849935 l -0.666016,-4.775391 2.845703,1.839844 c 1.56562,1.012301 4.156627,2.681546 5.757813,3.708985 l 2.912109,1.86914 -2.208984,-3.736328 c -6.311141,-10.677084 -7.875715,-13.985468 -8.519531,-18.011719 -0.387424,-2.422793 -0.282959,-4.399656 0.232422,-4.392578 0.51538,0.0073 2.858588,1.110758 5.207031,2.453125 7.957971,4.548778 8.308444,4.210808 3.140625,-3.03125 -3.157219,-4.42443 -5.155283,-8.475773 -5.519531,-11.191406 -0.55459,-4.134764 -0.480929,-4.25586 2.59375,-4.255859 4.80849,0 4.803482,-0.886004 -0.02734,-5.15625 -5.531204,-4.889238 -7.24443,-6.993952 -13.488281,-16.558594 -2.749907,-4.212435 -7.282036,-9.666743 -10.070313,-12.121094 -6.45696,-5.683645 -16.920136,-8.881823 -26.5273436,-9.140625 z M 34.172844,-65.11556 c 0.485426,0 0.882813,0.618475 0.882813,1.375 0,0.756523 0.960544,3.261292 2.134765,5.564453 1.174221,2.303161 2.134766,4.324727 2.134766,4.494141 0,1.086769 -3.282497,-0.188441 -6.851562,-2.66211 -4.098022,-2.840281 -6.077781,-5.568359 -4.041016,-5.568359 0.564149,0 1.622625,0.718946 2.353516,1.599609 2.137426,2.575446 3.481427,1.853554 2.974609,-1.599609 -0.258495,-1.761325 -0.0732,-3.203125 0.412109,-3.203125 z m 0.197266,19.765625 c 0.138878,-0.01095 0.335171,0.353637 0.617187,1.050781 1.586442,3.921691 2.444728,11.207031 1.320313,11.207032 -0.588813,0 -3.03136,-2.228481 -5.429688,-4.953125 -4.151071,-4.715861 -5.256463,-6.789063 -3.61914,-6.789063 0.408217,0 2.089658,1.291527 3.736328,2.869141 l 2.994141,2.86914 0.06641,-3.669922 c 0.03229,-1.751028 0.111477,-2.567982 0.314453,-2.583984 z m -8.585938,21.695313 c 0.449898,3.55e-4 1.859225,1.593698 3.400391,3.890625 3.685098,5.492219 4.753716,5.969718 4.470703,2 -0.110487,-1.550424 0.372062,-3.020928 1.072266,-3.269532 1.198991,-0.425686 2.122591,2.679446 2.748047,9.248047 0.302636,3.1783061 -2.025404,3.9458805 -5.203125,1.714844 -2.279478,-1.600375 -7.225956,-11.677405 -6.619141,-13.484375 0.02268,-0.06755 0.06659,-0.09966 0.130859,-0.09961 z M 23.819329,0.2985025 c 0.111775,-0.006372 0.249877,0.0430586 0.414062,0.14453125 0.668375,0.41305695 1.217791,1.56385205 1.220703,2.55664065 0.0027,0.9927885 1.187121,3.2445405 2.63086,5.0058594 l 2.625,3.2031252 0.03711,-3.4687502 c 0.02101,-1.9080899 0.40966,-3.4707032 0.863281,-3.4707032 0.708023,0 2.945148,6.9780774 3.728516,11.6289064 0.410452,2.436898 -1.863558,2.45907 -4.927734,0.04883 C 26.946285,13.221498 24.828596,9.3377534 23.791985,3.8121744 23.339426,1.3998142 23.334968,0.32611304 23.819329,0.2985025 Z m 6.046875,27.5019535 c 0.498152,-0.02961 1.036121,0.713793 1.375,2.355468 1.238918,6.001751 1.733307,12.54012 0.945312,12.509766 -0.476304,-0.01835 -3.738823,-2.629454 -7.25,-5.802734 -6.420524,-5.802635 -7.80208,-9.668062 -1.585937,-4.4375 4.393983,3.697302 5.300781,3.536548 5.300781,-0.935547 0,-2.335195 0.574362,-3.65139 1.214844,-3.689453 z" />
    <path
       id="path3364"
       style="display:inline;fill:#e9afaf;stroke-width:1.06747"
       d="m -7.7470775,-85.308919 c -1.1769259,0.02263 -2.4637275,0.546831 -3.9277345,1.572265 -2.806505,1.965752 -3.066788,5.409994 -0.613281,8.121094 2.09382,2.313653 6.6465584,1.844437 8.6464842,-0.890625 1.8119462,-2.477988 1.6802734,-4.607974 -0.4296875,-6.939453 -1.1487956,-1.269404 -2.3419319,-1.888932 -3.6757812,-1.863281 z m 3.0136719,3.335937 c 0.2737636,0.02238 0.2929687,0.526859 0.2929687,1.533203 0,3.566449 -4.5058946,6.191367 -6.7597661,3.9375 -0.391407,-0.39134 -0.71289,-1.650574 -0.71289,-2.798828 0,-1.746191 0.265096,-1.867569 1.621094,-0.742187 1.3267476,1.101106 2.0055637,0.997963 3.7363277,-0.56836 1.0198606,-0.92296 1.5485021,-1.383711 1.8222657,-1.361328 z" />
    <path
       id="path3352"
       style="fill:#ff0000;stroke-width:1.06747"
       d="M 43.801751 -123.8265 C 43.23598 -123.8265 38.755461 -122.34712 33.844719 -120.53939 C 23.157528 -116.60522 17.116529 -115.03121 15.80761 -115.84017 C 15.277353 -116.16788 15.12681 -117.84825 15.471672 -119.57259 L 16.098626 -122.70736 L 7.5361256 -118.99642 C 2.8271721 -116.95577 -1.552698 -115.28743 -2.1982494 -115.28743 C -3.6647283 -115.28743 -3.7369153 -117.07084 -2.3056713 -117.9554 C -1.7185636 -118.31825 -1.2373119 -119.32675 -1.2373119 -120.19564 C -1.2373119 -121.43618 -1.713142 -121.33362 -3.4482494 -119.71712 C -4.6635294 -118.58491 -9.6881613 -115.39596 -14.614265 -112.63118 C -28.367172 -104.91237 -31.721648 -100.69577 -29.389656 -94.064779 C -27.960718 -90.001611 -25.922549 -90.183543 -19.594734 -94.941732 C -16.481033 -97.283069 -12.218562 -99.521087 -10.122078 -99.914388 C -3.8099481 -101.09856 7.5158031 -99.606614 15.016594 -96.603841 C 26.937955 -91.831397 30.722477 -88.78489 38.260735 -77.892904 C 42.075368 -72.381171 47.719429 -65.165906 50.801751 -61.859701 C 55.06676 -57.284881 56.405266 -55.058193 56.405266 -52.537435 C 56.405266 -49.778832 57.163958 -48.770768 60.942376 -46.506185 C 65.245877 -43.926903 67.081048 -43.234704 67.081047 -44.193685 C 67.081047 -44.429262 65.399592 -45.614087 63.344719 -46.826497 C 60.977241 -48.223344 59.608391 -49.84607 59.608391 -51.254232 C 59.608391 -53.587677 59.739032 -53.518014 71.504876 -44.951497 C 72.625582 -44.135534 73.782484 -43.707616 74.075188 -44.000326 C 74.367906 -44.293044 71.931128 -46.596678 68.661126 -49.119466 C 64.762278 -52.127404 63.077853 -54.067434 63.766594 -54.756185 C 64.455351 -55.444934 65.98572 -54.822754 68.211907 -52.949544 C 72.178656 -49.611749 77.724782 -46.581552 78.481438 -47.338216 C 78.77139 -47.628135 77.644966 -48.711902 75.979485 -49.746419 C 71.531072 -52.509535 67.080819 -56.779663 67.665032 -57.724935 C 67.94484 -58.177694 70.617081 -56.903272 73.604485 -54.892904 C 79.165291 -51.15076 80.958001 -50.498168 80.958001 -52.211263 C 80.958001 -53.239275 75.682356 -57.97222 72.637688 -59.676107 C 69.358776 -61.511076 72.150298 -62.107137 75.62011 -60.312826 C 77.490557 -59.345582 79.262048 -58.792659 79.555657 -59.086263 C 80.097268 -59.627878 72.266909 -65.67241 69.946282 -66.504232 C 69.250454 -66.753653 69.025102 -67.326985 69.444329 -67.777669 C 69.863567 -68.228352 72.778859 -67.553725 75.922844 -66.277669 C 79.066818 -65.001625 83.766725 -63.856401 86.368157 -63.734701 C 90.713315 -63.531416 91.071439 -63.709783 90.764641 -65.916341 C 90.459879 -68.10823 90.861115 -68.318685 95.354485 -68.318685 C 101.10928 -68.318685 106.77319 -70.83639 105.93456 -73.02181 C 105.57357 -73.962537 106.95306 -75.398379 109.70605 -76.945638 C 115.75681 -80.346365 115.12566 -81.337119 108.45995 -78.900716 C 98.01679 -75.08361 79.889641 -76.803684 79.889641 -81.611654 C 79.889641 -82.434686 81.45029 -84.33831 83.358391 -85.842122 C 85.322148 -87.389794 86.149414 -88.581515 85.264641 -88.588216 C 82.807629 -88.606896 85.801471 -91.059928 92.475579 -94.498372 C 99.213411 -97.969652 98.975342 -99.066588 91.928704 -97.019857 C 89.123092 -96.204958 82.637476 -95.539396 77.514641 -95.541341 C 69.415452 -95.544441 67.900972 -95.844455 65.909172 -97.836263 C 63.069909 -100.67553 63.750437 -101.83485 70.155266 -105.0804 C 75.356079 -107.71586 86.77767 -116.22753 86.067376 -116.93783 C 85.848382 -117.15683 81.846484 -116.09243 77.174797 -114.57259 C 69.748715 -112.15665 66.738749 -111.79281 53.227532 -111.68001 C 35.364283 -111.53086 34.67444 -111.9608 40.977532 -119.32454 C 43.096702 -121.8003 44.367521 -123.8265 43.801751 -123.8265 z M 17.772454 -112.84212 C 20.499618 -112.84228 23.750886 -112.28298 28.063469 -111.09993 C 38.635494 -108.19955 43.548663 -105.64415 49.475579 -99.965169 C 53.800433 -95.821235 54.270501 -94.888172 54.270501 -90.447591 C 54.270501 -85.948743 52.962067 -83.106345 51.815422 -85.113607 C 51.558391 -85.563514 51.030811 -87.689878 50.643547 -89.838216 C 49.115969 -98.312338 31.902946 -108.55749 17.344719 -109.65853 C 8.7914568 -110.30541 7.8933941 -111.5628 15.200188 -112.65853 C 16.012906 -112.7804 16.863399 -112.84207 17.772454 -112.84212 z M -37.899421 -70.859701 C -38.766856 -70.856927 -39.773939 -70.632348 -41.165046 -70.205404 C -43.806202 -69.394811 -44.619882 -68.73294 -43.696296 -68.14681 C -42.352436 -67.29395 -32.194343 -66.866307 -32.194343 -67.662435 C -32.194343 -67.888472 -33.336815 -68.821575 -34.733406 -69.736654 C -35.90021 -70.501175 -36.784148 -70.863267 -37.899421 -70.859701 z M -19.545906 -55.283529 C -19.814749 -55.275194 -20.156869 -54.85938 -20.760749 -54.033529 C -21.891937 -52.48653 -22.358242 -52.437395 -24.057624 -53.680013 C -25.856515 -54.995394 -27.105078 -54.050003 -37.760749 -43.308919 C -53.103925 -27.842748 -53.303185 -27.539772 -50.456062 -23.920247 C -48.878768 -21.915036 -48.432571 -20.285808 -48.924812 -18.324544 C -49.488116 -16.080179 -57.075401 -4.8634516 -63.485359 3.2027994 C -64.185192 4.0834521 -65.662009 6.8287193 -66.768562 9.3043619 C -68.664208 13.545419 -68.677375 13.964306 -66.989265 16.54069 C -66.003857 18.044604 -65.486269 19.741656 -65.838874 20.312174 C -66.77179 21.821659 -63.827316 21.584137 -62.159187 20.015299 C -60.992598 18.918139 -60.86372 19.203123 -61.432624 21.616862 C -62.261676 25.13434 -61.765753 25.23195 -57.711921 22.345378 C -54.959706 20.38562 -54.612312 20.339097 -54.612312 21.941081 C -54.612312 25.145446 -52.001449 21.905482 -42.252937 6.60319 C -29.222148 -13.851449 -27.567945 -16.358668 -26.057624 -17.955404 C -25.324625 -18.730344 -24.52616 -20.411791 -24.282234 -21.691732 C -24.038316 -22.971669 -22.800686 -28.101699 -21.532234 -33.092122 C -18.872972 -43.554228 -17.817817 -51.598077 -18.776374 -54.096029 C -19.082455 -54.893668 -19.277062 -55.291863 -19.545906 -55.283529 z " />
  </g>
</svg>
