<?xml version="1.0" encoding="UTF-8" standalone="no"?>
<svg
   version="1.2"
   width="198.15999mm"
   height="172.28322mm"
   viewBox="0 0 19816 17228.321"
   preserveAspectRatio="xMidYMid"
   fill-rule="evenodd"
   stroke-width="28.222"
   stroke-linejoin="round"
   xml:space="preserve"
   id="svg1186"
   sodipodi:docname="1b.svg"
   inkscape:version="1.2.2 (732a01da63, 2022-12-09, custom)"
   xmlns:inkscape="http://www.inkscape.org/namespaces/inkscape"
   xmlns:sodipodi="http://sodipodi.sourceforge.net/DTD/sodipodi-0.dtd"
   xmlns="http://www.w3.org/2000/svg"
   xmlns:svg="http://www.w3.org/2000/svg"
   xmlns:ooo="http://xml.openoffice.org/svg/export"><sodipodi:namedview
   id="namedview1188"
   pagecolor="#ffffff"
   bordercolor="#000000"
   borderopacity="0.25"
   inkscape:showpageshadow="2"
   inkscape:pageopacity="0.0"
   inkscape:pagecheckerboard="0"
   inkscape:deskcolor="#d1d1d1"
   inkscape:document-units="mm"
   showgrid="false"
   inkscape:zoom="1.0212334"
   inkscape:cx="370.14064"
   inkscape:cy="349.57728"
   inkscape:window-width="1920"
   inkscape:window-height="1031"
   inkscape:window-x="0"
   inkscape:window-y="25"
   inkscape:window-maximized="1"
   inkscape:current-layer="layer1" />
 <defs
   class="ClipPathGroup"
   id="defs1121">
  <clipPath
   id="presentation_clip_path"
   clipPathUnits="userSpaceOnUse">
   <rect
   x="0"
   y="0"
   width="19818"
   height="21452"
   id="rect1115" />
  </clipPath>
  <clipPath
   id="presentation_clip_path_shrink"
   clipPathUnits="userSpaceOnUse">
   <rect
   x="19"
   y="21"
   width="19779"
   height="21410"
   id="rect1118" />
  </clipPath>
 </defs>
 <defs
   class="TextShapeIndex"
   id="defs1125">
  <g
   ooo:slide="id1"
   ooo:id-list="id3 id4"
   id="g1123" />
 </defs>
 <defs
   class="EmbeddedBulletChars"
   id="defs1157">
  <g
   id="bullet-char-template-57356"
   transform="matrix(4.8828125e-4,0,0,-4.8828125e-4,0,0)">
   <path
   d="M 580,1141 1163,571 580,0 -4,571 Z"
   id="path1127" />
  </g>
  <g
   id="bullet-char-template-57354"
   transform="matrix(4.8828125e-4,0,0,-4.8828125e-4,0,0)">
   <path
   d="M 8,1128 H 1137 V 0 H 8 Z"
   id="path1130" />
  </g>
  <g
   id="bullet-char-template-10146"
   transform="matrix(4.8828125e-4,0,0,-4.8828125e-4,0,0)">
   <path
   d="M 174,0 602,739 174,1481 1456,739 Z M 1358,739 309,1346 659,739 Z"
   id="path1133" />
  </g>
  <g
   id="bullet-char-template-10132"
   transform="matrix(4.8828125e-4,0,0,-4.8828125e-4,0,0)">
   <path
   d="M 2015,739 1276,0 H 717 l 543,543 H 174 v 393 h 1086 l -543,545 h 557 z"
   id="path1136" />
  </g>
  <g
   id="bullet-char-template-10007"
   transform="matrix(4.8828125e-4,0,0,-4.8828125e-4,0,0)">
   <path
   d="m 0,-2 c -7,16 -16,29 -25,39 l 381,530 c -94,256 -141,385 -141,387 0,25 13,38 40,38 9,0 21,-2 34,-5 21,4 42,12 65,25 l 27,-13 111,-251 280,301 64,-25 24,25 c 21,-10 41,-24 62,-43 C 886,937 835,863 770,784 769,783 710,716 594,584 L 774,223 c 0,-27 -21,-55 -63,-84 l 16,-20 C 717,90 699,76 672,76 641,76 570,178 457,381 L 164,-76 c -22,-34 -53,-51 -92,-51 -42,0 -63,17 -64,51 -7,9 -10,24 -10,44 0,9 1,19 2,30 z"
   id="path1139" />
  </g>
  <g
   id="bullet-char-template-10004"
   transform="matrix(4.8828125e-4,0,0,-4.8828125e-4,0,0)">
   <path
   d="M 285,-33 C 182,-33 111,30 74,156 52,228 41,333 41,471 c 0,78 14,145 41,201 34,71 87,106 158,106 53,0 88,-31 106,-94 l 23,-176 c 8,-64 28,-97 59,-98 l 735,706 c 11,11 33,17 66,17 42,0 63,-15 63,-46 V 965 c 0,-36 -10,-64 -30,-84 L 442,47 C 390,-6 338,-33 285,-33 Z"
   id="path1142" />
  </g>
  <g
   id="bullet-char-template-9679"
   transform="matrix(4.8828125e-4,0,0,-4.8828125e-4,0,0)">
   <path
   d="M 813,0 C 632,0 489,54 383,161 276,268 223,411 223,592 c 0,181 53,324 160,431 106,107 249,161 430,161 179,0 323,-54 432,-161 108,-107 162,-251 162,-431 0,-180 -54,-324 -162,-431 C 1136,54 992,0 813,0 Z"
   id="path1145" />
  </g>
  <g
   id="bullet-char-template-8226"
   transform="matrix(4.8828125e-4,0,0,-4.8828125e-4,0,0)">
   <path
   d="m 346,457 c -73,0 -137,26 -191,78 -54,51 -81,114 -81,188 0,73 27,136 81,188 54,52 118,78 191,78 73,0 134,-26 185,-79 51,-51 77,-114 77,-187 0,-75 -25,-137 -76,-188 -50,-52 -112,-78 -186,-78 z"
   id="path1148" />
  </g>
  <g
   id="bullet-char-template-8211"
   transform="matrix(4.8828125e-4,0,0,-4.8828125e-4,0,0)">
   <path
   d="M -4,459 H 1135 V 606 H -4 Z"
   id="path1151" />
  </g>
  <g
   id="bullet-char-template-61548"
   transform="matrix(4.8828125e-4,0,0,-4.8828125e-4,0,0)">
   <path
   d="m 173,740 c 0,163 58,303 173,419 116,115 255,173 419,173 163,0 302,-58 418,-173 116,-116 174,-256 174,-419 0,-163 -58,-303 -174,-418 C 1067,206 928,148 765,148 601,148 462,206 346,322 231,437 173,577 173,740 Z"
   id="path1154" />
  </g>
 </defs>
 
 
<g
   inkscape:groupmode="layer"
   id="layer1"
   inkscape:label="Layer 1"
   transform="translate(0,-1482.2917)"><path
     fill="#2a6099"
     stroke="none"
     d="m 12452,17372 c -75,0 -136,-61 -136,-136 0,-75 61,-135 136,-135 75,0 136,60 136,135 0,75 -61,136 -136,136 z m 369,166 c 0,71 -57,129 -128,129 -71,0 -128,-58 -128,-129 0,-70 57,-128 128,-128 71,0 128,58 128,128 z m 23,742 c -54,0 -98,-43 -98,-97 0,-53 44,-97 98,-97 53,0 97,44 97,97 0,54 -44,97 -97,97 z m 245,-472 c 0,66 -54,119 -119,119 -66,0 -119,-53 -119,-119 0,-66 53,-119 119,-119 65,0 119,53 119,119 z m 173,564 c 0,44 -36,79 -79,79 -44,0 -80,-35 -80,-79 0,-44 36,-79 80,-79 43,0 79,35 79,79 z m 129,-338 c 0,60 -49,108 -108,108 -60,0 -109,-48 -109,-108 0,-60 49,-108 109,-108 59,0 108,48 108,108 z m 215,467 c 0,31 -26,57 -57,57 -32,0 -58,-26 -58,-57 0,-32 26,-57 58,-57 31,0 57,25 57,57 z m 117,-295 c 0,52 -42,95 -95,95 -52,0 -95,-43 -95,-95 0,-52 43,-95 95,-95 53,0 95,43 95,95 z m 240,361 c 0,17 -14,31 -32,31 -17,0 -31,-14 -31,-31 0,-17 14,-32 31,-32 18,0 32,15 32,32 z m 116,-251 c 0,45 -36,81 -81,81 -45,0 -81,-36 -81,-81 0,-45 36,-81 81,-81 45,0 81,36 81,81 z m -1655,-372 c 0,-62 51,-113 113,-113 63,0 114,51 114,113 0,63 -51,113 -114,113 -62,0 -113,-50 -113,-113 z m -283,-278 c 0,-69 56,-126 125,-126 70,0 126,57 126,126 0,70 -56,126 -126,126 -69,0 -125,-56 -125,-126 z m -248,-307 c 0,-76 61,-137 136,-137 75,0 136,61 136,137 0,75 -61,136 -136,136 -75,0 -136,-61 -136,-136 z m -66,-476 c 79,0 143,65 143,144 0,79 -64,144 -143,144 -80,0 -144,-65 -144,-144 0,-79 64,-144 144,-144 z m -152,-363 c 83,0 150,68 150,150 0,82 -67,149 -150,149 -82,0 -149,-67 -149,-149 0,-83 67,-150 149,-150 z m -101,-378 c 85,0 153,68 153,153 0,84 -68,152 -153,152 -84,0 -152,-68 -152,-152 0,-85 68,-153 152,-153 z m -56,-387 c 85,0 154,70 154,155 0,86 -69,155 -154,155 -86,0 -155,-69 -155,-155 0,-85 69,-155 155,-155 z m 133,-232 c 0,86 -70,155 -156,155 -86,0 -156,-69 -156,-155 0,-87 70,-156 156,-156 86,0 156,69 156,156 z m -382,-4237 c 0,-28 23,-51 51,-51 29,0 52,23 52,51 0,29 -23,52 -52,52 -28,0 -51,-23 -51,-52 z m -137,-354 c 0,-15 12,-28 28,-28 15,0 28,13 28,28 0,16 -13,28 -28,28 -16,0 -28,-12 -28,-28 z m 240,723 c 0,-39 32,-72 71,-72 39,0 71,33 71,72 0,40 -32,71 -71,71 -39,0 -71,-31 -71,-71 z m 69,378 c 0,-48 40,-88 88,-88 49,0 89,40 89,88 0,49 -40,89 -89,89 -48,0 -88,-40 -88,-89 z m 142,489 c -58,0 -104,-47 -104,-104 0,-57 46,-104 104,-104 57,0 103,47 103,104 0,57 -46,104 -103,104 z m 54,-913 c 0,-17 14,-31 31,-31 18,0 32,14 32,31 0,17 -14,32 -32,32 -17,0 -31,-15 -31,-32 z m -29,1314 c -65,0 -117,-53 -117,-117 0,-64 52,-117 117,-117 64,0 116,53 116,117 0,64 -52,117 -116,117 z m 114,-943 c 0,-31 25,-57 57,-57 31,0 57,26 57,57 0,32 -26,56 -57,56 -32,0 -57,-24 -57,-56 z m 68,375 c 0,-43 36,-79 79,-79 44,0 79,36 79,79 0,44 -35,79 -79,79 -43,0 -79,-35 -79,-79 z m 51,380 c 0,-53 44,-96 97,-96 54,0 97,43 97,96 0,54 -43,97 -97,97 -53,0 -97,-43 -97,-97 z m 28,384 c 0,-62 51,-112 113,-112 62,0 113,50 113,112 0,63 -51,113 -113,113 -62,0 -113,-50 -113,-113 z m 7,386 c 0,-69 56,-125 125,-125 70,0 126,56 126,125 0,69 -56,126 -126,126 -69,0 -125,-57 -125,-126 z m -16,387 c 0,-75 61,-136 136,-136 75,0 136,60 136,136 0,75 -61,135 -136,135 -75,0 -136,-59 -136,-135 z m 245,2306 c 0,85 -68,154 -153,154 -85,0 -154,-69 -154,-154 0,-85 69,-153 154,-153 85,0 153,68 153,153 z m -64,-380 c 0,86 -70,155 -156,155 -85,0 -155,-69 -155,-155 0,-86 70,-156 155,-156 86,0 156,70 156,156 z m 6,-772 c 0,85 -69,154 -154,154 -85,0 -154,-69 -154,-154 0,-85 69,-154 154,-154 85,0 154,69 154,154 z m -77,-913 c 80,0 144,65 144,144 0,80 -64,144 -144,144 -79,0 -143,-64 -143,-144 0,-79 64,-144 143,-144 z m 112,529 c 0,82 -67,150 -150,150 -83,0 -150,-68 -150,-150 0,-83 67,-150 150,-150 83,0 150,67 150,150 z m -55,770 c 0,86 -70,155 -156,155 -86,0 -155,-69 -155,-155 0,-86 69,-156 155,-156 86,0 156,70 156,156 z m -417,-2365 c 71,0 128,57 128,127 0,71 -57,128 -128,128 -70,0 -127,-57 -127,-128 0,-70 57,-127 127,-127 z m -150,516 c 0,-75 61,-136 136,-136 76,0 137,61 137,136 0,75 -61,136 -137,136 -75,0 -136,-61 -136,-136 z m -31,388 c 0,-79 64,-144 143,-144 79,0 143,64 143,144 0,79 -64,143 -143,143 -79,0 -143,-63 -143,-143 z m -35,387 c 0,-82 67,-149 149,-149 83,0 149,67 149,149 0,82 -66,149 -149,149 -82,0 -149,-67 -149,-149 z m 103,931 c -85,0 -154,-70 -154,-155 0,-86 69,-155 154,-155 86,0 155,69 155,155 0,85 -69,155 -155,155 z m -133,-543 c 0,-84 68,-153 152,-153 84,0 153,69 153,153 0,84 -69,152 -153,152 -84,0 -152,-68 -152,-152 z m 1024,2165 c 0,79 -64,143 -144,143 -79,0 -143,-64 -143,-143 0,-79 64,-144 143,-144 80,0 144,65 144,144 z m -464,-347 c 0,-82 67,-149 150,-149 82,0 149,67 149,149 0,83 -67,150 -149,150 -83,0 -150,-67 -150,-150 z M 9801,13044 c 0,-26 21,-47 47,-47 25,0 46,21 46,47 0,25 -21,46 -46,46 -26,0 -47,-21 -47,-46 z m -25,386 c 0,-32 26,-59 59,-59 32,0 59,27 59,59 0,33 -27,59 -59,59 -33,0 -59,-26 -59,-59 z m -45,386 c 0,-39 32,-71 71,-71 39,0 70,32 70,71 0,39 -31,71 -70,71 -39,0 -71,-32 -71,-71 z m -66,383 c 0,-45 37,-81 82,-81 45,0 81,36 81,81 0,45 -36,82 -81,82 -45,0 -82,-37 -82,-82 z m -88,379 c 0,-50 41,-91 91,-91 50,0 91,41 91,91 0,50 -41,91 -91,91 -50,0 -91,-41 -91,-91 z m -113,373 c 0,-55 44,-100 100,-100 55,0 100,45 100,100 0,55 -45,100 -100,100 -56,0 -100,-45 -100,-100 z m -139,364 c 0,-60 49,-108 109,-108 60,0 108,48 108,108 0,60 -48,109 -108,109 -60,0 -109,-49 -109,-109 z m -166,353 c 0,-63 52,-115 115,-115 64,0 116,52 116,115 0,64 -52,115 -116,115 -63,0 -115,-51 -115,-115 z m -196,337 c 0,-67 54,-121 122,-121 67,0 121,54 121,121 0,68 -54,122 -121,122 -68,0 -122,-54 -122,-122 z m -229,317 c 0,-71 58,-128 129,-128 71,0 128,57 128,128 0,71 -57,129 -128,129 -71,0 -129,-58 -129,-129 z m -260,291 c 0,-74 60,-134 134,-134 74,0 134,60 134,134 0,74 -60,134 -134,134 -74,0 -134,-60 -134,-134 z m 91,-640 c 75,0 136,61 136,136 0,75 -61,136 -136,136 -75,0 -136,-61 -136,-136 0,-75 61,-136 136,-136 z m -385,898 c 0,-77 62,-139 139,-139 77,0 139,62 139,139 0,77 -62,139 -139,139 -77,0 -139,-62 -139,-139 z m 260,-472 c 0,77 -63,140 -141,140 -77,0 -140,-63 -140,-140 0,-78 63,-141 140,-141 78,0 141,63 141,141 z m -584,689 c 0,-79 64,-143 143,-143 79,0 143,64 143,143 0,79 -64,143 -143,143 -79,0 -143,-64 -143,-143 z m 284,-441 c 0,80 -64,144 -144,144 -80,0 -145,-64 -145,-144 0,-80 65,-144 145,-144 80,0 144,64 144,144 z m -2344,-383 c -96,-199 -141,-469 -127,-707 1,-9 1,-17 2,-26 11,-116 56,-211 118,-340 246,-454 558,-913 764,-1398 409,-257 790,-560 1154,-884 558,-512 1140,-1168 1486,-1899 -36,-592 -21,-1196 -60,-1784 -17,-279 -39,-559 -97,-832 -2,-7 -4,-14 -5,-22 -29,-128 -69,-255 -143,-367 49,50 89,111 122,175 40,86 72,174 100,264 118,385 137,800 158,1199 15,418 0,836 -23,1253 -5,94 -11,187 -17,281 175,1467 -28,3198 -694,4399 -165,280 -347,515 -568,684 -104,81 -218,147 -342,197 -576,230 -1502,511 -1828,-193 z m 1710,574 c 0,-82 66,-148 148,-148 81,0 148,66 148,148 0,82 -67,148 -148,148 -82,0 -148,-66 -148,-148 z m -1,418 c 0,-80 65,-146 146,-146 81,0 146,66 146,146 0,81 -65,147 -146,147 -81,0 -146,-66 -146,-147 z m -226,-454 c 83,0 150,67 150,150 0,83 -67,151 -150,151 -83,0 -151,-68 -151,-151 0,-83 68,-150 151,-150 z m -147,569 c 0,-83 66,-150 149,-150 82,0 150,67 150,150 0,82 -68,149 -150,149 -83,0 -149,-67 -149,-149 z m -385,56 c 0,-84 68,-152 152,-152 83,0 151,68 151,152 0,83 -68,151 -151,151 -84,0 -152,-68 -152,-151 z m 141,-596 c 85,0 154,69 154,153 0,85 -69,154 -154,154 -85,0 -154,-70 -154,-154 0,-85 69,-153 154,-153 z m -392,-16 c 86,0 155,69 155,155 0,86 -69,155 -155,155 -86,0 -155,-69 -155,-155 0,-86 69,-155 155,-155 z m -138,611 c 0,-86 69,-154 154,-154 85,0 154,69 154,154 0,86 -69,155 -154,155 -85,0 -154,-70 -154,-155 z m -247,-684 c 86,0 155,69 155,155 0,86 -69,156 -155,156 -86,0 -156,-70 -156,-156 0,-86 70,-155 156,-155 z m -136,622 c 0,-86 69,-155 155,-155 85,0 156,69 156,155 0,86 -71,156 -156,156 -86,0 -155,-70 -155,-156 z m -362,-134 c 0,-86 69,-156 155,-156 86,0 156,70 156,156 0,86 -70,155 -156,155 -86,0 -155,-69 -155,-155 z m -321,-214 c 0,-85 69,-154 154,-154 85,0 155,69 155,154 0,86 -70,155 -155,155 -85,0 -154,-69 -154,-155 z m -100,-441 c 83,0 151,68 151,151 0,84 -68,152 -151,152 -84,0 -152,-68 -152,-152 0,-83 68,-151 152,-151 z m -158,-348 c 81,0 147,67 147,148 0,82 -66,147 -147,147 -82,0 -148,-66 -148,-147 0,-82 66,-148 148,-148 z m 101,-236 c 0,79 -63,142 -142,142 -78,0 -142,-63 -142,-142 0,-78 64,-142 142,-142 79,0 142,64 142,142 z m 73,-377 c 0,74 -60,134 -134,134 -74,0 -133,-60 -133,-134 0,-74 59,-134 133,-134 74,0 134,60 134,134 z m 128,-359 c 0,65 -53,118 -118,118 -65,0 -117,-53 -117,-118 0,-65 52,-117 117,-117 65,0 118,52 118,117 z m 175,-334 c 0,54 -43,98 -97,98 -55,0 -98,-44 -98,-98 0,-54 43,-97 98,-97 54,0 97,43 97,97 z m -47,-1232 c 60,0 109,49 109,109 0,60 -49,109 -109,109 -60,0 -108,-49 -108,-109 0,-60 48,-109 108,-109 z m -87,-369 c 81,0 147,66 147,147 0,81 -66,147 -147,147 -81,0 -146,-66 -146,-147 0,-81 65,-147 146,-147 z m -397,596 c 0,-62 50,-112 112,-112 62,0 112,50 112,112 0,62 -50,112 -112,112 -62,0 -112,-50 -112,-112 z m 24,-507 c 83,0 150,67 150,150 0,83 -67,150 -150,150 -83,0 -150,-67 -150,-150 0,-83 67,-150 150,-150 z m -410,581 c 0,-62 51,-114 114,-114 63,0 113,52 113,114 0,63 -50,113 -113,113 -63,0 -114,-50 -114,-113 z m 27,-558 c 84,0 153,68 153,152 0,85 -69,153 -153,153 -84,0 -153,-68 -153,-153 0,-84 69,-152 153,-152 z m -418,564 c 0,-63 51,-115 114,-115 64,0 115,52 115,115 0,64 -51,115 -115,115 -63,0 -114,-51 -114,-115 z m 35,-599 c 85,0 155,70 155,155 0,86 -70,154 -155,154 -86,0 -155,-68 -155,-154 0,-85 69,-155 155,-155 z m -421,527 c 0,-64 52,-116 117,-116 64,0 116,52 116,116 0,64 -52,117 -116,117 -65,0 -117,-53 -117,-117 z m 51,-630 c 86,0 156,70 156,156 0,86 -70,156 -156,156 -87,0 -156,-70 -156,-156 0,-86 69,-156 156,-156 z m -411,479 c 0,-64 52,-116 117,-116 64,0 116,52 116,116 0,65 -52,117 -116,117 -65,0 -117,-52 -117,-117 z m 76,-665 c 86,0 155,69 155,155 0,86 -69,155 -155,155 -86,0 -155,-69 -155,-155 0,-86 69,-155 155,-155 z m -394,441 c 0,-64 52,-115 115,-115 64,0 115,51 115,115 0,63 -51,115 -115,115 -63,0 -115,-52 -115,-115 z m 284,-565 c 0,85 -68,153 -153,153 -84,0 -153,-68 -153,-153 0,-84 69,-153 153,-153 85,0 153,69 153,153 z m -310,-499 c 83,0 150,67 150,150 0,83 -67,149 -150,149 -82,0 -149,-66 -149,-149 0,-83 67,-150 149,-150 z m -236,776 c 0,-63 51,-114 114,-114 63,0 113,51 113,114 0,62 -50,113 -113,113 -63,0 -114,-51 -114,-113 z m -78,-452 c 62,0 112,50 112,112 0,62 -50,112 -112,112 -62,0 -112,-50 -112,-112 0,-62 50,-112 112,-112 z m -105,-372 c 60,0 108,48 108,108 0,60 -48,108 -108,108 -60,0 -108,-48 -108,-108 0,-60 48,-108 108,-108 z m 99,-282 c 0,58 -46,104 -104,104 -57,0 -104,-46 -104,-104 0,-57 47,-104 104,-104 58,0 104,47 104,104 z m 96,-377 c 0,55 -44,100 -99,100 -55,0 -99,-45 -99,-100 0,-54 44,-99 99,-99 55,0 99,45 99,99 z m 191,-335 c 0,50 -40,91 -90,91 -51,0 -91,-41 -91,-91 0,-50 40,-91 91,-91 50,0 90,41 90,91 z m -8,955 c -80,0 -144,-64 -144,-144 0,-79 64,-144 144,-144 79,0 144,65 144,144 0,80 -65,144 -144,144 z m 61,-386 c -76,0 -137,-61 -137,-137 0,-75 61,-137 137,-137 75,0 137,62 137,137 0,76 -62,137 -137,137 z m 288,-485 c 0,71 -57,128 -128,128 -71,0 -128,-57 -128,-128 0,-70 57,-128 128,-128 71,0 128,58 128,128 z m -86,-372 c 0,45 -36,82 -81,82 -46,0 -82,-37 -82,-82 0,-45 36,-82 82,-82 45,0 81,37 81,82 z m 321,78 c 0,64 -52,117 -117,117 -64,0 -116,-53 -116,-117 0,-65 52,-117 116,-117 65,0 117,52 117,117 z m -41,-339 c 0,39 -32,70 -70,70 -39,0 -70,-31 -70,-70 0,-38 31,-70 70,-70 38,0 70,32 70,70 z m 1220,197 c -354,71 -697,228 -1000,401 -171,101 -335,213 -494,332 40,-62 93,-121 157,-177 298,-270 577,-567 816,-893 167,123 341,236 521,337 z m -907,-118 c 0,58 -47,105 -105,105 -58,0 -105,-47 -105,-105 0,-58 47,-105 105,-105 58,0 105,47 105,105 z m -90,-281 c -32,0 -57,-25 -57,-57 0,-31 25,-57 57,-57 31,0 57,26 57,57 0,32 -26,57 -57,57 z m 276,-375 c 23,0 41,19 41,41 0,23 -18,41 -41,41 -23,0 -41,-18 -41,-41 0,-22 18,-41 41,-41 z m 85,400 c 0,49 -40,89 -89,89 -50,0 -89,-40 -89,-89 0,-50 39,-89 89,-89 49,0 89,39 89,89 z m -46,-1066 c 24,0 46,7 66,18 -44,80 -93,159 -144,235 -37,-25 -61,-67 -61,-114 0,-77 62,-139 139,-139 z m -270,-282 c 70,0 126,56 126,126 0,70 -56,127 -126,127 -70,0 -127,-57 -127,-127 0,-70 57,-126 127,-126 z m -345,-197 c 0,-62 49,-111 111,-111 61,0 111,49 111,111 0,61 -50,111 -111,111 -62,0 -111,-50 -111,-111 z m -171,-351 c 0,-51 41,-92 92,-92 50,0 91,41 91,92 0,50 -41,92 -91,92 -51,0 -92,-42 -92,-92 z m -46,-442 c 37,0 67,30 67,67 0,38 -30,68 -67,68 -37,0 -68,-30 -68,-68 0,-37 31,-67 68,-67 z m -41,-327 c 0,1 1,2 1,3 0,20 -17,37 -38,37 -8,0 -16,-3 -22,-8 19,-12 39,-22 59,-32 z m -177,-864 c 0,22 -17,40 -39,40 -22,0 -40,-18 -40,-40 0,-22 18,-39 40,-39 22,0 39,17 39,39 z m 121,-373 c 0,38 -30,69 -68,69 -37,0 -68,-31 -68,-69 0,-37 31,-68 68,-68 38,0 68,31 68,68 z m 175,-352 c 0,49 -40,89 -89,89 -49,0 -89,-40 -89,-89 0,-49 40,-89 89,-89 49,0 89,40 89,89 z m 221,-324 c 0,57 -47,103 -104,103 -57,0 -103,-46 -103,-103 0,-57 46,-104 103,-104 57,0 104,47 104,104 z m 509,1445 c -76,29 -152,51 -229,68 -165,-30 -331,-33 -484,-3 -8,-216 14,-440 69,-671 60,-247 155,-495 288,-716 184,480 447,882 710,1143 -110,72 -229,133 -354,179 z M 6925,1917 c 655,-13 1336,30 1936,318 435,205 796,572 949,1030 -104,-211 -244,-402 -416,-555 -526,-468 -1258,-573 -1938,-579 -197,-2 -410,9 -607,22 -250,22 -494,92 -728,191 -821,348 -1552,1021 -1809,1891 -400,1383 -57,2960 1574,3197 -1086,-23 -1778,-779 -1921,-1823 -97,-719 15,-1496 390,-2125 530,-864 1545,-1530 2570,-1567 z m 1504,7767 c 0,11 -9,20 -20,20 -11,0 -20,-9 -20,-20 0,-11 9,-20 20,-20 11,0 20,9 20,20 z m -1334,279 c 92,0 194,-8 265,-75 -123,150 -387,125 -558,91 -237,-54 -485,-190 -598,-421 -95,-180 -146,-503 151,-485 149,15 281,97 397,185 -137,-74 -543,-269 -555,8 7,132 66,268 151,371 182,210 472,316 747,326 z M 6464,6809 c 44,-9 90,-20 127,-48 -62,74 -165,98 -254,121 -654,139 -1394,-206 -1666,-824 343,440 830,715 1386,763 135,11 273,13 407,-12 z M 4671,4052 c 502,-995 1516,-1695 2613,-1134 134,71 259,156 371,255 -251,-156 -525,-274 -815,-323 -944,-162 -1654,490 -2169,1202 z m 3273,2271 c 27,15 60,28 90,30 100,10 160,-86 175,-180 16,52 15,113 -13,169 -54,109 -199,129 -300,79 -75,-37 -119,-114 -151,-180 -48,-109 -79,-221 -56,-342 44,-178 211,-116 300,-13 -72,-24 -208,-90 -210,28 -3,90 33,193 72,277 25,52 52,102 93,132 z M 9003,3293 c -46,-104 -91,-202 -147,-293 -166,-274 -402,-506 -700,-635 455,2 859,485 847,928 z m -239,3766 c 15,-368 -56,-735 -189,-1075 -211,-551 -719,-1194 -1371,-887 -425,229 7,883 216,1142 -293,-273 -758,-935 -266,-1232 493,-259 978,12 1257,437 307,471 444,1060 353,1615 z m -1192,5115 c -36,0 -66,-29 -66,-65 0,-36 30,-66 66,-66 36,0 65,30 65,66 0,36 -29,65 -65,65 z m -59,-750 c 0,-49 39,-89 89,-89 49,0 90,40 90,89 0,50 -41,90 -90,90 -50,0 -89,-40 -89,-90 z m -107,-906 c 0,-54 44,-98 98,-98 10,0 19,2 28,5 -23,60 -48,119 -76,178 -29,-17 -50,-49 -50,-85 z m -115,1228 c 0,-56 45,-101 100,-101 55,0 100,45 100,101 0,55 -45,100 -100,100 -55,0 -100,-45 -100,-100 z m 114,670 c 0,41 -34,75 -75,75 -41,0 -74,-34 -74,-75 0,-41 33,-74 74,-74 41,0 75,33 75,74 z m -242,-470 c 61,0 110,49 110,109 0,61 -50,110 -110,110 -61,0 -110,-49 -110,-110 0,-60 50,-109 110,-109 z m -12,761 c 0,45 -37,82 -83,82 -45,0 -82,-37 -82,-82 0,-46 37,-83 82,-83 46,0 83,37 83,83 z m -233,-473 c 65,0 117,53 117,118 0,65 -52,117 -117,117 -65,0 -117,-52 -117,-117 0,-65 52,-118 117,-118 z m -132,655 c 50,0 89,40 89,89 0,49 -39,89 -89,89 -49,0 -89,-40 -89,-89 0,-49 40,-89 89,-89 z m -64,396 c 0,16 -13,29 -29,29 -16,0 -29,-13 -29,-29 0,-16 13,-29 29,-29 16,0 29,13 29,29 z m -68,-779 c 69,0 125,56 125,125 0,69 -56,125 -125,125 -69,0 -125,-56 -125,-125 0,-69 56,-125 125,-125 z m -100,1093 c 29,0 53,24 53,53 0,29 -24,53 -53,53 -29,0 -53,-24 -53,-53 0,-29 24,-53 53,-53 z m -680,-282 c 0,79 -64,143 -143,143 -79,0 -143,-64 -143,-143 0,-79 64,-143 143,-143 79,0 143,64 143,143 z m -989,-1910 c -61,0 -110,-50 -110,-111 0,-61 49,-111 110,-111 61,0 111,50 111,111 0,61 -50,111 -111,111 z m 93,-941 c 0,-85 70,-155 155,-155 86,0 156,70 156,155 0,86 -70,156 -156,156 -85,0 -155,-70 -155,-156 z m 273,937 c -65,0 -117,-52 -117,-117 0,-64 52,-117 117,-117 64,0 117,53 117,117 0,65 -53,117 -117,117 z m 356,72 c -62,0 -111,-50 -111,-111 0,-61 49,-111 111,-111 61,0 111,50 111,111 0,61 -50,111 -111,111 z m 156,-858 c 0,-84 68,-151 151,-151 84,0 151,67 151,151 0,83 -67,151 -151,151 -83,0 -151,-68 -151,-151 z m 153,1032 c -51,0 -92,-41 -92,-92 0,-51 41,-92 92,-92 50,0 92,41 92,92 0,51 -42,92 -92,92 z m 253,-1017 c 0,-79 65,-144 144,-144 80,0 144,65 144,144 0,80 -64,144 -144,144 -79,0 -144,-64 -144,-144 z m 95,2816 c 0,56 -46,101 -101,101 -56,0 -101,-45 -101,-101 0,-55 45,-100 101,-100 55,0 101,45 101,100 z m -213,-1583 c 0,-32 25,-58 57,-58 31,0 58,26 58,58 0,32 -27,57 -58,57 -32,0 -57,-25 -57,-57 z m -229,1880 c -58,0 -104,-47 -104,-105 0,-57 46,-104 104,-104 58,0 105,47 105,104 0,58 -47,105 -105,105 z m 240,-762 c 76,0 138,62 138,138 0,76 -62,138 -138,138 -76,0 -138,-62 -138,-138 0,-76 62,-138 138,-138 z m 422,339 c -52,0 -95,-43 -95,-96 0,-53 43,-96 95,-96 53,0 96,43 96,96 0,53 -43,96 -96,96 z m -247,-432 c 0,-73 59,-133 132,-133 73,0 132,60 132,133 0,73 -59,132 -132,132 -73,0 -132,-59 -132,-132 z m 304,-976 c -49,-91 -104,-178 -165,-262 117,21 235,37 352,48 -60,72 -123,143 -187,214 z m 39,-1292 c 0,-73 59,-133 133,-133 73,0 133,60 133,133 0,74 -60,133 -133,133 -74,0 -133,-59 -133,-133 z m 530,-154 c 65,0 118,53 118,118 0,65 -53,117 -118,117 -65,0 -117,-52 -117,-117 0,-65 52,-118 117,-118 z m -1593,-51 c 86,0 155,70 155,155 0,86 -69,155 -155,155 -85,0 -155,-69 -155,-155 0,-85 70,-155 155,-155 z m -785,-682 c 16,0 28,14 28,29 0,16 -12,28 -28,28 -16,0 -28,-12 -28,-28 0,-15 12,-29 28,-29 z m -48,429 c 26,-22 59,-35 96,-35 84,0 153,68 153,153 0,84 -69,153 -153,153 -85,0 -153,-69 -153,-153 0,-5 1,-10 1,-15 19,-34 38,-69 56,-103 z m -94,-96 c 29,0 52,23 52,52 0,29 -23,52 -52,52 -29,0 -52,-23 -52,-52 0,-29 23,-52 52,-52 z m -143,370 c 0,40 -33,72 -73,72 -39,0 -72,-32 -72,-72 0,-40 33,-72 72,-72 40,0 73,32 73,72 z m -91,-364 c -13,0 -23,-10 -23,-23 0,-12 10,-22 23,-22 12,0 22,10 22,22 0,13 -10,23 -22,23 z m -70,-1769 c 218,230 227,554 147,855 -31,106 -69,209 -114,309 -441,-399 -756,-900 -864,-1470 283,-30 648,113 831,306 z m 242,2978 c 51,0 92,42 92,92 0,51 -41,92 -92,92 -50,0 -92,-41 -92,-92 0,-50 42,-92 92,-92 z m -337,177 c 32,0 57,25 57,57 0,32 -25,57 -57,57 -32,0 -57,-25 -57,-57 0,-32 25,-57 57,-57 z m 1728,441 c 89,136 158,285 200,440 -403,373 -844,690 -1261,853 -561,174 -1274,-240 -1533,-749 -36,-71 -59,-140 -70,-207 37,-25 74,-50 111,-75 403,-268 831,-507 1297,-618 463,-114 1007,-97 1256,356 z m -44,2358 c 22,0 41,18 41,41 0,22 -19,41 -41,41 -23,0 -41,-18 -41,-41 0,-22 18,-41 41,-41 z m 67,292 c 59,0 107,47 107,106 0,59 -48,106 -107,106 -58,0 -106,-47 -106,-106 0,-59 48,-106 106,-106 z m -214,317 c 65,0 118,53 118,118 0,65 -53,118 -118,118 -65,0 -118,-53 -118,-118 0,-65 53,-118 118,-118 z m -80,-327 c 40,0 73,32 73,72 0,41 -33,73 -73,73 -40,0 -73,-32 -73,-73 0,-40 33,-72 73,-72 z m -238,789 c 0,-71 58,-129 130,-129 72,0 129,58 129,129 0,72 -57,130 -129,130 -72,0 -130,-58 -130,-130 z m 498,1407 c 0,85 -69,154 -154,154 -86,0 -155,-69 -155,-154 0,-85 69,-154 155,-154 85,0 154,69 154,154 z m -276,-278 c 0,83 -68,151 -151,151 -83,0 -151,-68 -151,-151 0,-83 68,-151 151,-151 83,0 151,68 151,151 z m -227,-899 c 76,0 138,62 138,138 0,77 -62,139 -138,139 -76,0 -138,-62 -138,-139 0,-76 62,-138 138,-138 z m 107,527 c 0,81 -65,146 -145,146 -81,0 -146,-65 -146,-146 0,-80 65,-145 146,-145 80,0 145,65 145,145 z m 650,-1665 c -50,0 -90,-40 -90,-90 0,-50 40,-91 90,-91 50,0 91,41 91,91 0,50 -41,90 -91,90 z m 210,-349 c -41,0 -74,-33 -74,-73 0,-41 33,-74 74,-74 40,0 73,33 73,74 0,40 -33,73 -73,73 z m 1420,-2232 c -31,0 -55,-25 -55,-55 0,-31 24,-56 55,-56 31,0 55,25 55,56 0,30 -24,55 -55,55 z m -73,-748 c 0,-44 35,-79 79,-79 44,0 79,35 79,79 0,44 -35,79 -79,79 -44,0 -79,-35 -79,-79 z m 271,399 c -24,0 -44,-19 -44,-44 0,-24 20,-43 44,-43 24,0 44,19 44,43 0,25 -20,44 -44,44 z m -78,-739 c 0,-36 30,-66 66,-66 36,0 66,30 66,66 0,37 -30,66 -66,66 -36,0 -66,-29 -66,-66 z m -307,-546 c -6,22 -13,45 -20,68 -730,322 -1674,118 -2385,-219 -128,-61 -252,-130 -371,-204 251,-607 319,-1415 -230,-1883 -87,-74 -191,-139 -305,-192 141,-48 277,-112 404,-191 126,88 248,138 355,141 1310,38 2116,301 2535,642 l 20,219 c -53,81 -94,170 -121,262 -336,172 -829,182 -1173,31 -752,-331 -662,434 -117,1007 446,467 1233,454 1455,68 -6,65 -18,137 -37,213 -1,4 -2,9 -3,13 13,-9 26,-18 33,-23 15,-12 48,-41 62,-53 12,-12 45,-46 57,-59 l 34,-42 c 189,-246 256,-562 264,-867 7,-292 -38,-582 -126,-858 -133,-419 -363,-808 -661,-1134 348,278 611,661 760,1084 104,292 153,604 138,913 -19,405 -183,883 -568,1064 z m 537,146 c 29,0 52,23 52,52 0,29 -23,53 -52,53 -29,0 -53,-24 -53,-53 0,-29 24,-52 53,-52 z m 53,745 c 0,17 -14,31 -31,31 -17,0 -31,-14 -31,-31 0,-17 14,-31 31,-31 17,0 31,14 31,31 z m 55,-1049 c 0,-20 16,-37 37,-37 20,0 37,17 37,37 0,20 -17,37 -37,37 -21,0 -37,-17 -37,-37 z m 76,686 c 0,10 -7,17 -17,17 -9,0 -16,-7 -16,-17 0,-9 7,-17 16,-17 10,0 17,8 17,17 z m 1294,899 c 0,-10 8,-18 18,-18 10,0 18,8 18,18 0,10 -8,17 -18,17 -10,0 -18,-7 -18,-17 z m 59,832 c -27,0 -48,-22 -48,-49 0,-26 21,-48 48,-48 27,0 48,22 48,48 0,27 -21,49 -48,49 z m -44,-441 c 0,-18 15,-33 34,-33 18,0 33,15 33,33 0,19 -15,33 -33,33 -19,0 -34,-14 -34,-33 z m -26,785 c 0,-34 27,-61 60,-61 34,0 61,27 61,61 0,33 -27,60 -61,60 -33,0 -60,-27 -60,-60 z m -43,391 c 0,-40 33,-72 73,-72 40,0 72,32 72,72 0,40 -32,73 -72,73 -40,0 -73,-33 -73,-73 z m -62,390 c 0,-47 38,-84 84,-84 46,0 83,37 83,84 0,45 -37,83 -83,83 -46,0 -84,-38 -84,-83 z m -82,385 c 0,-51 42,-92 93,-92 51,0 93,41 93,92 0,52 -42,93 -93,93 -51,0 -93,-41 -93,-93 z m -1,279 c 56,0 102,46 102,102 0,57 -46,103 -102,103 -57,0 -103,-46 -103,-103 0,-56 46,-102 103,-102 z m -118,366 c 61,0 110,50 110,111 0,61 -49,110 -110,110 -61,0 -110,-49 -110,-110 0,-61 49,-111 110,-111 z m -142,359 c 64,0 117,54 117,118 0,65 -53,117 -117,117 -65,0 -118,-52 -118,-117 0,-64 53,-118 118,-118 z m -367,942 c -72,0 -131,-58 -131,-131 0,-72 59,-131 131,-131 73,0 131,59 131,131 0,73 -58,131 -131,131 z m 198,-594 c 68,0 124,56 124,124 0,69 -56,124 -124,124 -69,0 -124,-55 -124,-124 0,-68 55,-124 124,-124 z m 824,-3075 c 10,0 18,8 18,17 0,10 -8,18 -18,18 -9,0 -17,-8 -17,-18 0,-9 8,-17 17,-17 z m 57,403 c 0,18 -14,33 -32,33 -18,0 -33,-15 -33,-33 0,-18 15,-32 33,-32 18,0 32,14 32,32 z M 9284,4495 c -32,106 -30,277 -34,389 -5,134 -2,267 7,399 31,496 210,969 652,1204 41,22 84,42 130,59 -68,-13 -134,-35 -197,-63 -190,-83 -355,-224 -464,-401 -223,-355 -260,-792 -241,-1202 15,-208 5,-449 176,-602 184,-144 459,17 535,207 -68,-108 -200,-183 -324,-197 -132,-16 -212,88 -240,207 z m 686,1051 c 42,13 90,40 93,91 -5,81 -108,106 -174,115 -181,6 -246,-216 -231,-357 5,-61 35,-208 116,-198 -19,7 -25,24 -29,40 -11,50 -5,104 3,155 17,91 36,195 110,244 36,19 99,9 137,-2 31,-6 -13,-70 -25,-88 z m 2192,4029 c 0,35 -29,64 -64,64 -33,0 -60,-25 -64,-57 41,-13 81,-26 120,-39 5,9 8,20 8,32 z m 127,-3768 c -315,-232 -656,-474 -850,-826 -61,-118 -98,-250 -92,-383 6,132 52,258 120,368 213,331 553,547 873,768 433,298 918,565 1233,1002 671,986 -275,2211 -1251,2522 880,-381 1782,-1518 1155,-2456 -301,-420 -776,-689 -1188,-995 z m 1621,1786 c 50,179 146,347 301,490 249,232 569,347 888,436 256,72 572,115 899,114 -570,565 -1320,997 -1992,1073 -526,57 -1053,-59 -1523,-295 655,-301 1272,-825 1403,-1564 15,-84 22,-169 24,-254 z m 2857,-1324 c -303,-249 -673,-390 -1060,-370 -600,23 -1307,400 -1489,1005 74,-666 862,-1118 1487,-1116 402,-8 809,174 1062,481 z m -613,2201 c -141,-5 -278,-17 -403,-36 -297,-46 -585,-132 -857,-257 -436,-191 -755,-527 -634,-1025 82,-334 309,-673 589,-874 302,-185 668,-269 1019,-240 400,33 833,228 982,612 81,228 56,463 -14,704 -120,381 -366,768 -682,1116 z m 884,-1227 c 0,35 -28,62 -62,62 -34,0 -62,-27 -62,-62 0,-34 28,-62 62,-62 34,0 62,28 62,62 z m 3,-391 c 0,19 -15,35 -34,35 -19,0 -34,-16 -34,-35 0,-19 15,-34 34,-34 19,0 34,15 34,34 z m -246,772 c 0,-47 38,-86 85,-86 48,0 86,39 86,86 0,47 -38,86 -86,86 -47,0 -85,-39 -85,-86 z m -169,363 c 0,-58 47,-105 105,-105 58,0 105,47 105,105 0,58 -47,105 -105,105 -58,0 -105,-47 -105,-105 z m -210,341 c 0,-66 55,-120 121,-120 67,0 120,54 120,120 0,67 -54,121 -120,121 -67,0 -121,-54 -121,-121 z m 59,1391 c -64,0 -117,-52 -117,-117 0,-65 53,-117 117,-117 65,0 117,52 117,117 0,65 -52,117 -117,117 z m 477,-223 c 0,62 -50,113 -113,113 -62,0 -113,-51 -113,-113 0,-62 51,-113 113,-113 63,0 113,51 113,113 z m 1084,936 c 72,370 -35,741 -268,1036 -252,325 -628,559 -1008,716 -165,66 -332,96 -500,99 -72,1 -144,-2 -217,-10 -44,-49 -86,-100 -126,-153 -326,-429 -527,-1053 -235,-1540 283,-461 867,-716 1393,-748 41,-2 82,-3 123,-2 397,9 776,178 838,602 z m -718,-967 c 0,56 -45,101 -101,101 -56,0 -101,-45 -101,-101 0,-56 45,-101 101,-101 56,0 101,45 101,101 z m 354,57 c 0,45 -36,80 -80,80 -44,0 -80,-36 -80,-80 0,-45 36,-81 80,-81 44,0 80,37 80,81 z m 318,145 c 0,27 -22,48 -48,48 -27,0 -49,-21 -49,-48 0,-27 22,-48 49,-48 26,0 48,21 48,48 z m 19,2053 c -48,0 -89,-39 -89,-88 0,-49 41,-89 89,-89 49,0 88,40 88,89 0,49 -39,88 -88,88 z m 225,-435 c 0,36 -29,65 -65,65 -36,0 -65,-29 -65,-65 0,-35 29,-64 65,-64 36,0 65,29 65,64 z m 65,-369 c 0,20 -16,35 -36,35 -20,0 -36,-15 -36,-35 0,-19 16,-36 36,-36 20,0 36,17 36,36 z m -624,1024 c 0,-60 48,-108 108,-108 60,0 108,48 108,108 0,59 -48,107 -108,107 -60,0 -108,-48 -108,-107 z m -300,253 c 0,-68 55,-123 123,-123 68,0 123,55 123,123 0,68 -55,123 -123,123 -68,0 -123,-55 -123,-123 z m -344,190 c 0,-75 61,-136 136,-136 75,0 135,61 135,136 0,74 -60,135 -135,135 -75,0 -136,-61 -136,-135 z m -370,125 c 0,-80 65,-145 145,-145 80,0 145,65 145,145 0,80 -65,145 -145,145 -80,0 -145,-65 -145,-145 z m -381,69 c 0,-84 67,-152 151,-152 83,0 151,68 151,152 0,83 -68,151 -151,151 -84,0 -151,-68 -151,-151 z m -386,14 c 0,-85 70,-155 155,-155 86,0 155,70 155,155 0,86 -69,155 -155,155 -85,0 -155,-69 -155,-155 z m -380,-40 c 0,-86 69,-155 155,-155 86,0 156,69 156,155 0,86 -70,156 -156,156 -86,0 -155,-70 -155,-156 z m 29,-2389 c 45,0 80,36 80,80 0,44 -35,80 -80,80 -44,0 -80,-36 -80,-80 0,-44 36,-80 80,-80 z m -399,2302 c 0,-84 69,-153 153,-153 85,0 154,69 154,153 0,85 -69,154 -154,154 -84,0 -153,-69 -153,-154 z m -355,-126 c 0,-82 66,-148 148,-148 82,0 148,66 148,148 0,82 -66,148 -148,148 -82,0 -148,-66 -148,-148 z m -339,-160 c 0,-77 63,-140 140,-140 77,0 140,63 140,140 0,77 -63,140 -140,140 -77,0 -140,-63 -140,-140 z m -320,-189 c 0,-70 58,-128 128,-128 71,0 128,58 128,128 0,71 -57,127 -128,127 -70,0 -128,-56 -128,-127 z m -299,-217 c 0,-62 51,-112 112,-112 62,0 113,50 113,112 0,62 -51,112 -113,112 -61,0 -112,-50 -112,-112 z m -275,-243 c 0,-51 41,-92 92,-92 51,0 93,41 93,92 0,52 -42,93 -93,93 -51,0 -92,-41 -92,-93 z m -248,-268 c 0,-38 31,-68 69,-68 37,0 68,30 68,68 0,38 -31,68 -68,68 -38,0 -69,-30 -69,-68 z m -209,-297 c 0,-21 17,-38 38,-38 21,0 38,17 38,38 0,21 -17,38 -38,38 -21,0 -38,-17 -38,-38 z m 2003,-1480 c 86,0 155,70 155,156 0,86 -69,156 -155,156 -86,0 -156,-70 -156,-156 0,-86 70,-156 156,-156 z m 214,1109 c -27,0 -48,-21 -48,-48 0,-26 21,-48 48,-48 26,0 48,22 48,48 0,27 -22,48 -48,48 z m 505,-710 c 13,0 24,2 35,6 39,14 66,51 66,95 0,55 -45,101 -101,101 -53,0 -96,-42 -100,-94 0,-2 -1,-5 -1,-7 0,-56 46,-101 101,-101 z m -69,-532 c -83,0 -150,-67 -150,-149 0,-83 67,-150 150,-150 82,0 149,67 149,150 0,82 -67,149 -149,149 z m 289,-273 c -79,0 -143,-63 -143,-142 0,-79 64,-143 143,-143 78,0 142,64 142,143 0,79 -64,142 -142,142 z m 263,-566 c 74,0 133,59 133,133 0,73 -59,133 -133,133 -73,0 -133,-60 -133,-133 0,-74 60,-133 133,-133 z m -170,1369 c -62,0 -113,-50 -113,-113 0,-5 1,-9 2,-14 7,-56 54,-98 111,-98 62,0 113,50 113,112 0,63 -51,113 -113,113 z m -694,-594 c 85,0 154,69 154,154 0,85 -69,154 -154,154 -85,0 -154,-69 -154,-154 0,-85 69,-154 154,-154 z m -698,355 c 85,0 154,69 154,154 0,86 -69,155 -154,155 -86,0 -155,-69 -155,-155 0,-85 69,-154 155,-154 z m -376,116 c 83,0 151,68 151,152 0,83 -68,151 -151,151 -84,0 -152,-68 -152,-151 0,-84 68,-152 152,-152 z m -387,75 c 80,0 145,65 145,145 0,80 -65,145 -145,145 -80,0 -145,-65 -145,-145 0,-80 65,-145 145,-145 z m -392,32 c 75,0 136,60 136,136 0,75 -61,136 -136,136 -75,0 -136,-61 -136,-136 0,-76 61,-136 136,-136 z m 1627,450 c -287,572 -182,1240 204,1806 -752,-292 -1441,-774 -2055,-1343 270,7 540,-15 808,-70 366,-73 716,-213 1043,-393 z m -2019,-464 c 69,0 124,55 124,123 0,69 -55,124 -124,124 -68,0 -124,-55 -124,-124 0,-68 56,-123 124,-123 z m -385,-62 c 60,0 109,48 109,108 0,60 -49,108 -109,108 -59,0 -108,-48 -108,-108 0,-60 49,-108 108,-108 z m -280,-25 c 0,50 -40,89 -89,89 -49,0 -89,-39 -89,-89 0,-49 40,-88 89,-88 49,0 89,39 89,88 z m 1916,8600 c 0,35 -29,64 -65,64 -35,0 -64,-29 -64,-64 0,-36 29,-65 64,-65 36,0 65,29 65,65 z m 368,-8 c 0,26 -21,46 -47,46 -25,0 -46,-20 -46,-46 0,-26 21,-47 46,-47 26,0 47,21 47,47 z m 421,-1877 c 12,0 25,2 37,5 -55,-57 -107,-117 -155,-181 3,12 5,25 5,38 0,82 -66,149 -148,149 -82,0 -149,-67 -149,-149 0,-82 67,-149 149,-149 30,0 58,10 82,25 -16,-23 -32,-46 -47,-70 -210,-360 -269,-815 -136,-1204 27,-79 62,-153 116,-218 292,-348 886,-390 1283,-202 242,113 418,317 486,575 70,279 71,624 -19,876 -150,415 -517,698 -913,929 -60,-34 -120,-69 -177,-107 12,21 20,44 20,70 0,75 -62,137 -138,137 -75,0 -137,-62 -137,-137 0,-76 62,-137 137,-137 8,0 16,1 24,2 -64,-47 -125,-97 -184,-150 4,13 7,27 7,41 0,80 -64,144 -143,144 -80,0 -144,-65 -144,-144 0,-79 64,-143 144,-143 z m -473,-610 c 84,0 152,68 152,152 0,84 -68,152 -152,152 -84,0 -152,-68 -152,-152 0,-84 68,-152 152,-152 z m -140,-359 c 86,0 155,69 155,155 0,85 -69,154 -155,154 -85,0 -154,-69 -154,-154 0,-86 69,-155 154,-155 z m 139,-226 c 0,86 -70,155 -156,155 -86,0 -155,-69 -155,-155 0,-86 69,-156 155,-156 86,0 156,70 156,156 z m 93,-372 c 0,86 -69,155 -155,155 -86,0 -156,-69 -156,-155 0,-86 70,-156 156,-156 86,0 155,70 155,156 z m 169,-344 c 0,86 -69,155 -154,155 -85,0 -154,-69 -154,-155 0,-85 69,-154 154,-154 85,0 154,69 154,154 z m 254,-284 c 0,84 -68,152 -152,152 -84,0 -151,-68 -151,-152 0,-83 67,-151 151,-151 84,0 152,68 152,151 z m 334,-176 c 0,81 -66,147 -148,147 -81,0 -147,-66 -147,-147 0,-82 66,-148 147,-148 82,0 148,66 148,148 z m 374,-26 c 0,78 -63,141 -141,141 -78,0 -142,-63 -142,-141 0,-78 64,-141 142,-141 78,0 141,63 141,141 z m 357,121 c 0,74 -61,135 -136,135 -74,0 -135,-61 -135,-135 0,-75 61,-135 135,-135 75,0 136,60 136,135 z m 304,221 c 0,71 -57,128 -127,128 -70,0 -127,-57 -127,-128 0,-70 57,-127 127,-127 70,0 127,57 127,127 z m 248,284 c 0,65 -52,117 -117,117 -65,0 -117,-52 -117,-117 0,-65 52,-117 117,-117 65,0 117,52 117,117 z m 65,444 c -59,0 -107,-48 -107,-107 0,-59 48,-108 107,-108 59,0 108,49 108,108 0,59 -49,107 -108,107 z m 76,362 c -52,0 -94,-42 -94,-94 0,-52 42,-94 94,-94 52,0 94,42 94,94 0,52 -42,94 -94,94 z m -117,287 c 0,-45 36,-81 80,-81 45,0 81,36 81,81 0,44 -36,80 -81,80 -44,0 -80,-36 -80,-80 z m -86,1679 c 0,-53 43,-96 97,-96 53,0 96,43 96,96 0,53 -42,96 -96,96 -53,0 -97,-43 -97,-96 z m 31,-1385 c 36,0 64,29 64,64 0,36 -28,64 -64,64 -35,0 -64,-28 -64,-64 0,-35 29,-64 64,-64 z m -257,384 c 0,-25 20,-46 46,-46 25,0 46,21 46,46 0,25 -21,46 -46,46 -26,0 -46,-21 -46,-46 z m -157,899 c 0,-61 49,-110 110,-110 60,0 109,49 109,110 0,60 -49,109 -109,109 -61,0 -110,-49 -110,-109 z m -99,-633 c 0,-14 11,-25 25,-25 14,0 25,11 25,25 0,13 -11,25 -25,25 -14,0 -25,-12 -25,-25 z m -270,497 c 0,-66 53,-119 119,-119 66,0 120,53 120,119 0,66 -54,119 -120,119 -66,0 -119,-53 -119,-119 z m -354,-170 c 0,-72 58,-130 129,-130 72,0 130,58 130,130 0,71 -58,129 -130,129 -71,0 -129,-58 -129,-129 z m -601,1233 c 0,-15 11,-26 25,-26 14,0 26,11 26,26 0,13 -12,25 -26,25 -14,0 -25,-12 -25,-25 z m 2263,-753 c 0,46 -37,82 -82,82 -46,0 -82,-36 -82,-82 0,-45 36,-82 82,-82 45,0 82,37 82,82 z m 365,44 c 0,36 -30,65 -66,65 -36,0 -65,-29 -65,-65 0,-37 29,-66 65,-66 36,0 66,29 66,66 z m 365,17 c 0,26 -21,47 -47,47 -26,0 -47,-21 -47,-47 0,-27 21,-48 47,-48 26,0 47,21 47,48 z m 363,-8 c 0,15 -12,26 -26,26 -14,0 -26,-11 -26,-26 0,-14 12,-25 26,-25 14,0 26,11 26,25 z M 11548,9701 c 233,271 457,554 641,863 28,47 55,94 81,142 219,397 372,826 475,1266 876,654 1863,1179 2825,1315 363,51 723,47 1071,-26 79,-17 156,-40 232,-66 381,121 787,161 1184,104 437,-62 877,-205 1216,-496 340,-286 543,-718 543,-1148 -6,107 -30,212 -62,314 -94,301 -289,572 -544,754 -339,247 -760,347 -1173,373 -260,19 -520,-8 -770,-75 143,-75 280,-161 412,-251 753,-508 1314,-1378 1151,-2318 -62,-427 -279,-834 -658,-1060 -265,-157 -562,-229 -866,-234 -269,-5 -542,44 -802,131 244,-263 472,-560 653,-877 72,-33 141,-70 207,-111 151,-95 281,-212 379,-354 56,-89 94,-189 106,-292 -20,102 -65,197 -126,278 -98,122 -220,219 -358,295 -47,26 -96,50 -147,71 54,-102 102,-205 145,-310 158,-389 233,-798 176,-1206 -51,-366 -236,-662 -493,-876 -312,-262 -731,-406 -1150,-413 -471,-12 -948,121 -1330,399 -193,154 -327,334 -448,540 -137,233 -230,500 -246,764 -61,-282 -193,-548 -384,-761 -395,-447 -907,-677 -1362,-994 -492,-333 -769,-716 -660,-1319 55,-483 425,-640 864,-705 524,-76 1070,-30 1604,-70 272,-23 561,-58 793,-219 239,-160 291,-462 250,-727 0,-5 -1,-11 -2,-16 0,5 0,9 1,14 7,130 -1,262 -44,382 -142,407 -633,438 -1003,440 -733,12 -1854,-262 -2466,218 -191,149 -302,377 -353,608 -56,221 -77,448 -38,680 116,755 851,1193 1400,1610 371,287 711,590 730,1066 36,800 -876,1234 -1613,1346 -199,-203 -374,-430 -526,-672 -569,-1430 218,-3790 -1637,-5877 -881,-990 -3738,-1198 -5312,948 -570,777 -671,1645 -535,2415 -55,50 -106,104 -154,158 -412,468 -662,1061 -739,1676 -155,-110 -291,-250 -401,-418 -208,-298 -332,-650 -407,-1006 72,589 321,1203 793,1569 -19,228 -14,457 16,684 -183,287 -314,589 -509,866 -214,314 -503,573 -858,721 -43,18 -87,35 -131,50 -138,48 -281,81 -426,105 158,-9 302,-31 435,-62 857,-204 1223,-834 1557,-1317 55,218 133,432 235,635 195,388 463,747 782,1064 -250,278 -538,525 -828,742 -523,384 -731,994 -582,1597 -7,5 -13,11 -19,16 -289,240 -591,467 -951,575 -481,148 -988,-52 -1392,-323 199,153 414,289 655,376 515,195 1030,35 1475,-246 100,-63 199,-128 296,-195 219,570 645,1018 1169,1306 117,64 240,121 365,169 446,170 954,190 1419,49 -25,35 -50,69 -74,103 -147,212 -303,431 -402,680 -34,87 -62,177 -79,272 -91,569 -4,1176 342,1655 617,844 1754,813 2651,555 756,-176 1337,-668 1775,-1278 345,-481 603,-1036 789,-1567 347,-975 596,-2370 557,-3701 -2,41 -5,82 -11,123 -25,-174 -61,-341 -112,-504 -50,-164 -114,-323 -179,-482 -65,-159 -135,-319 -190,-486 -16,-47 -30,-95 -42,-143 -32,-125 -48,-254 -23,-380 17,152 64,293 121,429 55,128 118,253 176,381 24,51 46,102 66,155 84,202 154,418 182,638 3,26 6,51 8,76 309,856 415,1823 406,2743 -4,372 -29,745 -75,1115 -17,129 -41,296 -52,424 -27,307 -24,621 18,931 47,339 140,672 293,983 589,1246 2100,1893 3422,1536 166,-45 332,-108 493,-193 l 358,-195 c 220,-122 445,-252 663,-395 325,66 657,101 988,114 549,19 1095,-16 1637,-90 110,-16 194,-113 189,-227 -5,-121 -107,-215 -228,-209 -578,22 -1277,18 -1944,-97 165,-163 313,-344 433,-550 283,-475 356,-1061 268,-1597 -45,-304 -145,-597 -321,-856 -460,-683 -1337,-955 -2118,-783 -240,53 -470,147 -677,284 -244,162 -459,409 -570,689 -32,82 -59,166 -80,251 -75,298 -83,612 -34,907 104,684 533,1248 1090,1624 -145,72 -314,153 -438,174 -375,82 -812,20 -1160,-148 -544,-252 -875,-774 -927,-1369 -11,-103 -14,-210 -11,-319 4,-162 22,-328 50,-487 37,-200 71,-421 96,-622 94,-768 123,-1668 26,-2559 4,4 9,7 14,11 -75,-210 -152,-419 -243,-622 -139,-324 -298,-597 -465,-841 -202,-293 -417,-543 -626,-787 -221,-257 -435,-506 -620,-791 -279,-428 -493,-935 -569,-1668 140,670 339,1148 657,1615 163,238 356,473 588,728 28,32 55,64 83,96 z"
     id="path1166"
     style="display:inline" /><path
     fill="#81d41a"
     stroke="none"
     d="m 10745,10168 c -20,-53 -42,-104 -66,-155 -58,-128 -121,-253 -176,-381 -57,-136 -104,-277 -121,-429 -25,126 -9,255 23,379 12,49 26,97 42,144 55,167 125,327 190,486 65,159 129,318 179,482 51,163 87,330 112,504 6,-41 9,-82 11,-123 3,-64 1,-128 -4,-193 -2,-25 -5,-50 -8,-76 -28,-220 -98,-436 -182,-638 z M 6591,6762 c -37,28 -83,39 -127,48 -134,25 -272,23 -407,12 -556,-48 -1043,-323 -1386,-763 272,618 1012,963 1666,824 89,-23 192,-47 254,-121 z M 9003,3293 c 12,-443 -392,-926 -847,-928 298,129 534,361 700,635 56,91 101,189 147,293 z m 993,2341 c -38,11 -102,21 -138,2 -74,-49 -93,-153 -110,-244 -8,-51 -14,-105 -3,-155 4,-16 10,-33 29,-40 -81,-10 -111,137 -116,198 -15,141 50,363 232,357 66,-9 169,-34 174,-115 -3,-51 -51,-78 -93,-91 12,18 56,82 25,88 z M 7655,3173 c -112,-99 -237,-184 -371,-255 -1097,-561 -2111,139 -2613,1134 515,-712 1225,-1364 2169,-1202 290,49 564,167 815,323 z m 1595,1711 c 4,-112 2,-283 34,-389 28,-119 108,-223 240,-207 124,14 256,89 324,197 -76,-190 -351,-351 -535,-207 -170,153 -161,394 -176,602 -19,410 18,847 241,1203 109,177 274,318 464,401 63,28 130,50 198,63 -46,-17 -89,-37 -130,-59 -443,-235 -622,-709 -653,-1205 -9,-132 -12,-265 -7,-399 z M 7275,7147 c 298,326 528,715 661,1134 88,276 133,566 126,858 -8,305 -75,621 -264,867 l -34,42 c -12,13 -45,47 -57,59 -14,12 -47,41 -62,54 -7,4 -20,13 -33,22 -14,10 -28,19 -35,25 -17,8 -56,31 -74,40 36,-11 70,-25 102,-40 385,-181 549,-659 568,-1064 15,-309 -34,-621 -138,-913 -149,-423 -412,-806 -760,-1084 z m 759,-793 c -30,-2 -63,-15 -90,-30 -42,-30 -68,-80 -93,-132 -39,-84 -75,-187 -72,-278 2,-118 138,-52 210,-28 -89,-103 -256,-165 -300,13 -23,122 8,234 56,343 32,66 76,143 151,180 101,50 246,30 300,-79 28,-56 29,-117 13,-169 -15,94 -75,190 -175,180 z m 377,-910 c -279,-425 -764,-696 -1257,-437 -492,297 -27,960 266,1233 -209,-259 -641,-914 -216,-1143 652,-307 1160,336 1371,888 133,341 204,707 189,1075 91,-555 -46,-1145 -353,-1616 z m 8356,826 c -253,-307 -660,-490 -1062,-482 -625,-2 -1413,451 -1487,1117 182,-605 889,-983 1489,-1006 387,-20 757,122 1060,371 z M 6166,11866 c 0,-32 -26,-58 -58,-58 -31,0 -57,26 -57,58 0,32 26,57 57,57 32,0 58,-25 58,-57 z m -250,-216 c 50,0 92,-41 92,-92 0,-51 -42,-92 -92,-92 -51,0 -92,41 -92,92 0,51 41,92 92,92 z m -420,-285 c 0,61 49,111 111,111 61,0 111,-50 111,-111 0,-61 -50,-111 -111,-111 -62,0 -111,50 -111,111 z m -362,-78 c 0,65 52,117 117,117 64,0 117,-52 117,-117 0,-64 -53,-117 -117,-117 -65,0 -117,53 -117,117 z m -138,10 c 0,-61 -50,-111 -111,-111 -61,0 -110,50 -110,111 0,61 49,111 110,111 61,0 111,-50 111,-111 z m -468,-13 c -50,0 -92,42 -92,92 0,51 42,92 92,92 51,0 92,-41 92,-92 0,-50 -41,-92 -92,-92 z m -280,234 c 0,-32 -25,-57 -57,-57 -32,0 -57,25 -57,57 0,32 25,57 57,57 32,0 57,-25 57,-57 z m 64,-7283 c 257,-870 988,-1543 1809,-1891 234,-99 478,-169 728,-191 197,-13 410,-24 607,-22 680,6 1412,111 1938,579 172,153 312,344 416,555 C 9657,2807 9296,2440 8861,2235 8261,1947 7580,1904 6925,1917 5900,1954 4885,2620 4355,3484 3980,4113 3868,4890 3965,5609 4108,6654 4800,7410 5886,7433 4255,7196 3912,5618 4312,4235 Z m 2783,5729 c -275,-10 -565,-116 -747,-326 -85,-103 -144,-239 -151,-371 12,-277 418,-82 555,-8 -116,-88 -248,-170 -397,-185 -297,-18 -246,305 -151,485 113,231 361,367 598,421 171,34 435,59 558,-91 -71,67 -173,75 -265,75 z m 4373,-4998 c -68,-110 -114,-236 -120,-368 -6,133 31,265 92,383 194,352 535,594 850,826 411,307 886,576 1187,996 627,938 -275,2075 -1154,2456 975,-311 1921,-1536 1250,-2522 -315,-437 -800,-704 -1232,-1003 -320,-221 -660,-437 -873,-768 z m 568,5543 c 167,244 326,517 464,841 91,203 168,412 243,622 1,3 2,6 3,9 0,-3 -1,-5 -1,-8 -103,-440 -255,-869 -474,-1266 -26,-48 -53,-96 -81,-142 -184,-308 -408,-592 -641,-863 -28,-32 -55,-64 -83,-96 -232,-255 -425,-490 -588,-728 -318,-467 -517,-945 -657,-1615 76,733 290,1240 569,1668 185,285 399,534 620,791 209,244 424,494 626,787 z M 9010,8181 c -33,-64 -73,-125 -122,-175 74,112 114,239 143,367 1,8 3,15 5,22 58,273 80,553 97,832 39,588 24,1192 60,1784 7,110 15,219 26,328 3,-54 6,-107 9,-161 6,-94 12,-187 17,-281 23,-417 38,-835 23,-1253 -21,-399 -40,-814 -158,-1199 -28,-90 -60,-178 -100,-264 z m 8932,1439 c -27,0 -48,21 -48,48 0,27 21,48 48,48 26,0 48,-21 48,-48 0,-27 -22,-48 -48,-48 z m -270,-97 c 0,-45 -36,-81 -80,-81 -44,0 -80,36 -80,81 0,44 36,80 80,80 44,0 80,-36 80,-80 z m -354,-57 c 0,-56 -45,-101 -101,-101 -56,0 -101,45 -101,101 0,56 45,101 101,101 56,0 101,-45 101,-101 z m -479,144 c 63,0 113,-51 113,-113 0,-62 -50,-113 -113,-113 -62,0 -113,51 -113,113 0,62 51,113 113,113 z m -481,-7 c 0,65 53,117 117,117 65,0 117,-52 117,-117 0,-65 -52,-117 -117,-117 -64,0 -117,52 -117,117 z m -111,166 c 0,-62 -51,-112 -113,-112 v -1 c -57,0 -104,43 -111,99 -1,5 -2,9 -2,14 0,63 51,113 113,113 62,0 113,-50 113,-113 z m -325,216 c 0,-44 -27,-81 -66,-95 -11,-4 -22,-6 -35,-6 -55,0 -101,45 -101,101 0,2 1,5 1,7 4,52 47,94 100,94 56,0 101,-46 101,-101 z m -379,178 c -44,0 -80,36 -80,80 0,44 36,80 80,80 45,0 80,-36 80,-80 0,-44 -35,-80 -80,-80 z m -227,431 c 26,0 48,-22 48,-48 0,-27 -22,-48 -48,-48 -27,0 -48,21 -48,48 0,26 21,48 48,48 z m 1725,-3741 c 0,-19 -15,-34 -34,-34 -19,0 -34,15 -34,34 0,19 15,35 34,35 19,0 34,-16 34,-35 z m -3,391 c 0,-34 -28,-62 -62,-62 -34,0 -62,28 -62,62 0,35 28,62 62,62 34,0 62,-27 62,-62 z m -72,381 c 0,-47 -38,-86 -86,-86 -47,0 -85,39 -85,86 0,47 38,86 85,86 48,0 86,-39 86,-86 z m -235,258 c -58,0 -105,47 -105,105 0,58 47,105 105,105 58,0 105,-47 105,-105 0,-58 -47,-105 -105,-105 z m -194,326 c -67,0 -121,54 -121,120 0,67 54,121 121,121 66,0 120,-54 120,-121 0,-66 -54,-120 -120,-120 z m -233,304 c -73,0 -133,59 -133,133 0,73 60,133 133,133 74,0 133,-60 133,-133 0,-74 -59,-133 -133,-133 z m -121,424 c 0,-79 -64,-143 -142,-143 -79,0 -143,64 -143,143 0,79 64,142 143,142 78,0 142,-63 142,-142 z m -282,266 c 0,-83 -66,-150 -149,-150 -82,0 -150,67 -150,150 0,82 68,149 150,149 83,0 149,-67 149,-149 z m -307,239 c 0,-85 -69,-154 -154,-154 -85,0 -154,69 -154,154 0,85 69,154 154,154 85,0 154,-69 154,-154 z m -492,43 c -86,0 -156,70 -156,156 0,86 70,155 156,155 86,0 155,-69 155,-155 0,-86 -69,-156 -155,-156 z m -515,312 c 0,86 69,155 155,155 85,0 154,-69 154,-155 0,-85 -69,-154 -154,-154 -86,0 -155,69 -155,154 z m -70,114 c 0,-84 -68,-152 -151,-152 -84,0 -152,68 -152,152 0,83 68,151 152,151 83,0 151,-68 151,-151 z m -683,68 c 0,80 65,145 145,145 80,0 145,-65 145,-145 0,-80 -65,-145 -145,-145 -80,0 -145,65 -145,145 z m -247,-113 c -75,0 -136,60 -136,136 0,75 61,136 136,136 75,0 136,-61 136,-136 0,-76 -61,-136 -136,-136 z m -268,109 c 0,-69 -55,-123 -124,-123 -68,0 -124,54 -124,123 0,68 56,124 124,124 69,0 124,-56 124,-124 z m -509,-185 c -59,0 -108,48 -108,108 0,60 49,108 108,108 60,0 109,-48 109,-108 0,-60 -49,-108 -109,-108 z m -368,-113 c -49,0 -89,38 -89,88 0,49 40,89 89,89 49,0 88,-40 88,-89 0,-50 -39,-88 -88,-88 z m -287,-133 c -39,13 -79,26 -120,39 4,32 31,57 64,57 35,0 64,-29 64,-64 0,-12 -3,-23 -8,-32 z m 6072,1373 c 0,19 16,35 36,35 20,0 36,-16 36,-35 0,-20 -16,-36 -36,-36 -20,0 -36,16 -36,36 z m -123,369 c 0,36 29,65 65,65 36,0 65,-29 65,-65 0,-35 -29,-64 -65,-64 -36,0 -65,29 -65,64 z m -95,259 c -48,0 -89,39 -89,88 0,49 41,88 89,88 49,0 88,-39 88,-88 0,-49 -39,-88 -88,-88 z m -334,396 c 0,59 48,107 108,107 60,0 108,-48 108,-107 0,-60 -48,-108 -108,-108 -60,0 -108,48 -108,108 z m -300,253 c 0,68 55,123 123,123 68,0 123,-55 123,-123 0,-68 -55,-123 -123,-123 -68,0 -123,55 -123,123 z m -208,54 c -75,0 -136,61 -136,136 0,74 61,135 136,135 75,0 135,-61 135,-135 0,-75 -60,-136 -135,-136 z m -216,261 c 0,-80 -65,-145 -145,-145 -80,0 -145,65 -145,145 0,80 65,145 145,145 80,0 145,-65 145,-145 z m -369,69 c 0,-84 -67,-152 -151,-152 -83,0 -151,68 -151,152 0,83 68,151 151,151 84,0 151,-68 151,-151 z m -533,-141 c -85,0 -155,69 -155,155 0,85 70,155 155,155 86,0 155,-70 155,-155 0,-86 -69,-155 -155,-155 z m -380,-40 c -86,0 -155,69 -155,155 0,86 69,156 155,156 86,0 156,-70 156,-156 0,-86 -70,-155 -156,-155 z m -372,-85 c -84,0 -153,69 -153,153 0,85 69,154 153,154 85,0 154,-69 154,-154 0,-84 -69,-153 -154,-153 z m -360,175 c 82,0 148,-66 148,-148 0,-82 -66,-148 -148,-148 -82,0 -148,66 -148,148 0,82 66,148 148,148 z m -347,-168 c 77,0 140,-63 140,-140 0,-77 -63,-140 -140,-140 -77,0 -140,63 -140,140 0,77 63,140 140,140 z m -332,-457 c -70,0 -128,57 -128,128 0,70 58,127 128,127 71,0 128,-57 128,-127 0,-71 -57,-128 -128,-128 z m -315,-201 c -61,0 -112,50 -112,112 0,62 51,112 112,112 62,0 113,-50 113,-112 0,-62 -51,-112 -113,-112 z m -387,-131 c 0,52 41,93 92,93 51,0 93,-41 93,-93 0,-51 -42,-92 -93,-92 -51,0 -92,41 -92,92 z m -248,-268 c 0,38 31,68 69,68 37,0 68,-30 68,-68 0,-38 -31,-68 -68,-68 -38,0 -69,30 -69,68 z m -133,-297 c 0,-21 -17,-38 -38,-38 -21,0 -38,17 -38,38 0,21 17,37 38,37 21,0 38,-16 38,-37 z m -7300,3376 c 22,0 41,-19 41,-41 0,-23 -19,-41 -41,-41 -23,0 -41,19 -41,41 0,23 18,41 41,41 z m -227,200 c -40,0 -73,32 -73,72 0,41 33,73 73,73 40,0 73,-32 73,-73 0,-40 -33,-72 -73,-72 z m -137,380 c 0,-54 -43,-97 -97,-97 -55,0 -98,43 -98,97 0,54 43,98 98,98 54,0 97,-44 97,-98 z m -293,217 c -65,0 -117,52 -117,117 0,65 52,118 117,118 65,0 118,-53 118,-118 0,-65 -53,-117 -118,-117 z m -10,476 c 0,-74 -61,-134 -134,-134 -74,0 -133,60 -133,134 0,74 59,134 133,134 73,0 134,-60 134,-134 z m -73,377 c 0,-78 -63,-142 -142,-142 -78,0 -141,64 -141,142 0,79 63,142 141,142 79,0 142,-63 142,-142 z m -101,236 c -82,0 -148,66 -148,148 0,81 66,147 148,147 81,0 147,-66 147,-147 0,-82 -66,-148 -147,-148 z m 158,348 c -84,0 -152,68 -152,151 0,84 68,152 152,152 83,0 151,-68 151,-152 0,-83 -68,-151 -151,-151 z m 100,441 c 0,86 69,155 154,155 85,0 154,-69 154,-155 0,-85 -69,-154 -154,-154 -85,0 -154,69 -154,154 z m 321,214 c 0,85 69,155 155,155 86,0 156,-70 156,-155 0,-86 -70,-156 -156,-156 -86,0 -155,70 -155,156 z m 362,134 c 0,86 69,156 155,156 85,0 156,-70 156,-156 0,-86 -71,-155 -156,-155 -86,0 -155,69 -155,155 z m 383,62 c 0,86 69,155 154,155 85,0 154,-69 154,-155 0,-85 -69,-154 -154,-154 -85,0 -154,69 -154,154 z m 389,1 c 0,83 68,151 152,151 83,0 151,-68 151,-151 0,-84 -68,-152 -151,-152 -84,0 -152,68 -152,152 z m 385,-56 c 0,82 67,149 149,149 83,0 150,-67 150,-149 0,-83 -67,-150 -150,-150 -82,0 -149,67 -149,150 z m 373,-115 c 0,81 65,147 146,147 81,0 146,-66 146,-147 0,-80 -65,-146 -146,-146 -81,0 -146,66 -146,146 z m 351,-168 c 0,79 64,143 143,143 79,0 143,-64 143,-143 0,-79 -64,-143 -143,-143 -79,0 -143,64 -143,143 z m 324,-217 c 0,77 62,139 139,139 76,0 139,-62 139,-139 0,-77 -63,-139 -139,-139 -77,0 -139,62 -139,139 z m 294,-258 c 0,74 60,134 134,134 74,0 134,-60 134,-134 0,-74 -60,-134 -134,-134 -74,0 -134,60 -134,134 z m 260,-291 c 0,71 58,129 129,129 71,0 128,-58 128,-129 0,-71 -57,-128 -128,-128 -71,0 -129,57 -129,128 z m 229,-317 c 0,68 54,122 122,122 67,0 122,-54 122,-122 0,-67 -55,-121 -122,-121 -68,0 -122,54 -122,121 z m 196,-337 c 0,64 52,115 115,115 64,0 116,-51 116,-115 0,-63 -52,-115 -116,-115 -63,0 -115,52 -115,115 z m 166,-353 c 0,60 49,109 109,109 60,0 108,-49 108,-109 0,-59 -48,-108 -108,-108 -60,0 -109,49 -109,108 z m 139,-364 c 0,55 45,100 100,100 56,0 100,-45 100,-100 0,-55 -44,-100 -100,-100 -55,0 -100,45 -100,100 z m 113,-373 c 0,50 41,91 91,91 50,0 91,-41 91,-91 0,-50 -41,-91 -91,-91 -50,0 -91,41 -91,91 z m 88,-379 c 0,45 37,82 82,82 45,0 81,-37 81,-82 0,-45 -36,-81 -81,-81 -45,0 -82,36 -82,81 z m 66,-383 c 0,39 32,71 71,71 39,0 70,-32 70,-71 0,-39 -31,-71 -70,-71 -39,0 -71,32 -71,71 z m 45,-386 c 0,33 26,59 59,59 32,0 59,-26 59,-59 0,-32 -27,-59 -59,-59 -33,0 -59,27 -59,59 z m 25,-385 c 0,25 21,46 47,46 25,0 46,-21 46,-46 0,-26 -21,-47 -46,-47 -26,0 -47,21 -47,47 z m 40,-355 c 18,0 32,-15 32,-33 0,-18 -14,-32 -32,-32 -18,0 -33,14 -33,32 0,18 15,33 33,33 z m -42,-419 c 0,10 8,18 17,18 10,0 18,-8 18,-18 0,-9 -8,-17 -18,-17 -9,0 -17,8 -17,17 z m -3135,1015 c 0,16 13,28 29,28 16,0 29,-12 29,-28 0,-16 -13,-29 -29,-29 -16,0 -29,13 -29,29 z m -57,366 c 0,-29 -24,-53 -53,-53 -29,0 -53,24 -53,53 0,29 24,53 53,53 29,0 53,-24 53,-53 z m -236,274 c -40,0 -73,34 -73,74 0,41 33,73 73,73 41,0 74,-32 74,-73 0,-40 -33,-74 -74,-74 z m -299,406 c 0,50 40,90 90,90 50,0 91,-40 91,-90 0,-50 -41,-91 -91,-91 -50,0 -90,41 -90,91 z m -130,219 c -59,0 -106,47 -106,106 0,59 47,106 106,106 58,0 107,-47 107,-106 0,-59 -49,-106 -107,-106 z m -332,435 c 0,65 53,118 118,118 65,0 118,-53 118,-118 0,-65 -53,-118 -118,-118 -65,0 -118,53 -118,118 z m -70,215 c -72,0 -130,58 -130,129 0,72 58,130 130,130 72,0 129,-58 129,-130 0,-71 -57,-129 -129,-129 z m -135,636 c 76,0 138,-62 138,-139 0,-76 -62,-138 -138,-138 -76,0 -138,62 -138,138 0,77 62,139 138,139 z m 107,250 c 0,-80 -65,-145 -145,-145 -81,0 -146,65 -146,145 0,81 65,146 146,146 80,0 145,-65 145,-146 z m 120,372 c 0,-83 -68,-151 -151,-151 -83,0 -151,68 -151,151 0,83 68,151 151,151 83,0 151,-68 151,-151 z m 276,278 c 0,-85 -69,-154 -154,-154 -86,0 -155,69 -155,154 0,85 69,154 155,154 85,0 154,-69 154,-154 z m 358,160 c 0,-86 -69,-155 -155,-155 -86,0 -156,69 -156,155 0,86 70,156 156,156 86,0 155,-70 155,-156 z m 385,73 c 0,-86 -69,-155 -155,-155 -86,0 -155,69 -155,155 0,86 69,155 155,155 86,0 155,-69 155,-155 z m 391,14 c 0,-84 -69,-153 -154,-153 -85,0 -154,69 -154,153 0,85 69,154 154,154 85,0 154,-69 154,-154 z m 387,-32 c 0,-83 -67,-150 -150,-150 -83,0 -151,67 -151,150 0,83 68,151 151,151 83,0 150,-68 150,-151 z m 77,-114 c 0,82 66,148 148,148 81,0 148,-66 148,-148 0,-82 -67,-148 -148,-148 -82,0 -148,66 -148,148 z m 634,-191 c 0,-80 -64,-145 -144,-145 -80,0 -145,65 -145,145 0,80 65,144 145,144 80,0 144,-64 144,-144 z m 300,-248 c 0,-78 -63,-141 -141,-141 -77,0 -140,64 -140,141 0,78 63,140 140,140 78,0 141,-63 141,-140 z m 125,-426 c -75,0 -136,61 -136,136 0,75 61,136 136,136 75,0 136,-61 136,-136 0,-75 -61,-136 -136,-136 z m 360,-182 c 0,-72 -58,-131 -131,-131 -72,0 -131,59 -131,131 0,73 59,131 131,131 73,0 131,-58 131,-131 z m 67,-463 c -69,0 -124,56 -124,124 0,69 55,124 124,124 68,0 124,-55 124,-124 0,-68 -56,-124 -124,-124 z m 169,-348 c -65,0 -118,53 -118,118 0,64 53,117 118,117 64,0 117,-53 117,-117 0,-65 -53,-118 -117,-118 z m 142,-138 c 61,0 110,-49 110,-110 0,-61 -49,-111 -110,-111 -61,0 -110,50 -110,111 0,61 49,110 110,110 z m 118,-382 c 56,0 102,-46 102,-103 0,-56 -46,-102 -102,-102 -57,0 -103,46 -103,102 0,57 46,103 103,103 z m 94,-391 c 51,0 93,-41 93,-93 0,-51 -42,-92 -93,-92 -51,0 -93,41 -93,92 0,52 42,93 93,93 z m 73,-395 c 46,0 83,-38 83,-83 0,-47 -37,-84 -83,-84 -46,0 -84,37 -84,84 0,45 38,83 84,83 z m 51,-399 c 40,0 72,-33 72,-73 0,-40 -32,-72 -72,-72 -40,0 -73,32 -73,72 0,40 33,73 73,73 z m 91,-464 c 0,-34 -28,-61 -61,-61 -34,0 -60,27 -60,61 0,33 26,60 60,60 33,0 61,-27 61,-60 z m -51,-344 c 27,0 48,-22 48,-49 0,-26 -21,-48 -48,-48 -27,0 -48,22 -48,48 0,27 21,49 48,49 z m -44,-441 c 0,19 15,33 34,33 18,0 33,-14 33,-33 0,-18 -15,-33 -33,-33 -19,0 -34,15 -34,33 z m -15,-391 c 0,10 8,18 18,18 10,0 18,-8 18,-18 0,-10 -8,-18 -18,-18 -10,0 -18,8 -18,18 z M 4356,10030 c -13,0 -23,10 -23,22 0,13 10,23 23,23 12,0 22,-10 22,-23 0,-12 -10,-22 -22,-22 z m -242,370 c 23,0 41,-19 41,-41 0,-23 -18,-41 -41,-41 -23,0 -41,18 -41,41 0,22 18,41 41,41 z m -276,179 c -32,0 -57,26 -57,57 0,32 25,57 57,57 31,0 57,-25 57,-57 0,-31 -26,-57 -57,-57 z m -223,316 c 0,-39 -32,-70 -70,-70 -39,0 -70,31 -70,70 0,38 31,70 70,70 38,0 70,-32 70,-70 z m -361,343 c 45,0 81,-37 81,-82 0,-45 -36,-82 -81,-82 -46,0 -82,37 -82,82 0,45 36,82 82,82 z m -174,206 c 0,-50 -40,-91 -91,-91 -50,0 -90,41 -90,91 0,50 40,91 90,91 51,0 91,-41 91,-91 z m -191,335 c 0,-54 -44,-99 -99,-99 -55,0 -99,45 -99,99 0,55 44,100 99,100 55,0 99,-45 99,-100 z m -96,377 c 0,-58 -46,-104 -104,-104 -57,0 -104,47 -104,104 0,58 47,104 104,104 58,0 104,-47 104,-104 z m -99,282 c -60,0 -108,48 -108,108 0,60 48,108 108,108 60,0 108,-48 108,-108 0,-60 -48,-108 -108,-108 z m 105,372 c -62,0 -112,50 -112,112 0,62 50,112 112,112 62,0 112,-50 112,-112 0,-62 -50,-112 -112,-112 z m 78,452 c 0,62 51,112 114,112 63,0 113,-51 113,-112 0,-63 -50,-114 -113,-114 -63,0 -114,51 -114,114 z m 262,287 c 0,63 52,115 115,115 64,0 115,-52 115,-115 0,-64 -51,-115 -115,-115 -63,0 -115,51 -115,115 z m 318,224 c 0,65 52,117 117,117 64,0 116,-52 116,-117 0,-64 -52,-116 -116,-116 -65,0 -117,52 -117,116 z m 360,151 c 0,64 52,117 117,117 64,0 116,-53 116,-117 0,-64 -52,-116 -116,-116 -65,0 -117,52 -117,116 z m 386,72 c 0,64 51,115 114,115 64,0 115,-51 115,-115 0,-63 -51,-115 -115,-115 -63,0 -114,52 -114,115 z m 391,-6 c 0,62 51,113 114,113 63,0 113,-51 113,-113 0,-63 -50,-114 -113,-114 -63,0 -114,51 -114,114 z m 498,38 c 62,0 112,-50 112,-112 0,-62 -50,-112 -112,-112 -62,0 -112,50 -112,112 0,62 50,112 112,112 z m 372,-121 c 60,0 109,-49 109,-109 0,-60 -49,-109 -109,-109 -60,0 -108,49 -108,109 0,60 48,109 108,109 z m 254,-267 c 0,58 46,105 104,105 58,0 105,-47 105,-105 0,-57 -47,-104 -105,-104 -58,0 -104,47 -104,104 z m 344,-192 c 0,56 45,101 101,101 55,0 101,-45 101,-101 0,-55 -46,-101 -101,-101 -56,0 -101,46 -101,101 z m 518,-221 c 0,-53 -43,-96 -96,-96 -52,0 -95,43 -95,96 0,53 43,95 95,95 53,0 96,-42 96,-95 z m 206,-337 c -50,0 -89,39 -89,89 0,49 39,89 89,89 49,0 89,-40 89,-89 0,-50 -40,-89 -89,-89 z m 200,-182 c 0,45 37,82 82,82 46,0 83,-37 83,-82 0,-46 -38,-83 -83,-83 -46,0 -82,37 -82,83 z m 419,-291 c 0,-41 -34,-74 -75,-74 -41,0 -74,33 -74,74 0,41 33,75 74,75 41,0 75,-34 75,-75 z m 167,-242 c 36,0 65,-29 65,-65 0,-36 -29,-66 -65,-66 -36,0 -66,30 -66,66 0,36 30,65 66,65 z m 165,-388 c 0,30 24,55 55,55 31,0 55,-25 55,-55 0,-31 -24,-56 -55,-56 -31,0 -55,25 -55,56 z m 209,-338 c 0,25 20,44 44,44 24,0 44,-19 44,-44 0,-24 -20,-43 -44,-43 -24,0 -44,19 -44,43 z m 218,-381 c -17,0 -31,14 -31,31 0,17 14,31 31,31 17,0 31,-14 31,-31 0,-17 -14,-31 -31,-31 z m 162,-332 c 0,-9 -7,-17 -17,-17 -9,0 -16,8 -16,17 0,10 7,17 16,17 10,0 17,-7 17,-17 z M 4732,9736 c -16,0 -28,13 -28,29 0,15 12,28 28,28 16,0 28,-13 28,-28 0,-16 -12,-29 -28,-29 z m -194,385 c 0,29 23,52 52,52 29,0 52,-23 52,-52 0,-29 -23,-52 -52,-52 -29,0 -52,23 -52,52 z m -164,390 c 40,0 73,-32 73,-72 0,-40 -33,-72 -73,-72 -39,0 -72,32 -72,72 0,40 33,72 72,72 z m -175,207 c 0,-50 -40,-89 -89,-89 -50,0 -89,39 -89,89 0,49 39,89 89,89 49,0 89,-40 89,-89 z m -376,361 c 58,0 105,-47 105,-105 0,-58 -47,-105 -105,-105 -58,0 -105,47 -105,105 0,58 47,105 105,105 z m -167,155 c 0,-65 -52,-117 -117,-117 -64,0 -116,52 -116,117 0,64 52,117 116,117 65,0 117,-53 117,-117 z m -363,166 c -71,0 -128,58 -128,128 0,71 57,128 128,128 71,0 128,-57 128,-128 0,-70 -57,-128 -128,-128 z m -160,339 c -76,0 -137,62 -137,137 0,76 61,137 137,137 75,0 137,-61 137,-137 0,-75 -62,-137 -137,-137 z m -61,660 c 79,0 144,-64 144,-144 0,-80 -65,-144 -144,-144 -80,0 -144,64 -144,144 0,80 64,144 144,144 z m 41,87 c -82,0 -149,67 -149,150 0,83 67,149 149,149 83,0 150,-66 150,-149 0,-83 -67,-150 -150,-150 z m 310,499 c 0,-85 -68,-153 -153,-153 -84,0 -153,68 -153,153 0,84 69,153 153,153 85,0 153,-69 153,-153 z m 110,124 c -86,0 -155,69 -155,155 0,85 69,154 155,154 86,0 155,-69 155,-154 0,-86 -69,-155 -155,-155 z m 335,186 c -87,0 -156,69 -156,155 0,86 69,156 156,156 86,0 156,-70 156,-156 0,-86 -70,-155 -156,-155 z m 370,102 c -86,0 -155,69 -155,155 0,85 69,154 155,154 85,0 155,-68 155,-154 0,-85 -70,-155 -155,-155 z m 383,35 c -84,0 -153,68 -153,152 0,85 69,153 153,153 84,0 153,-68 153,-153 0,-84 -69,-152 -153,-152 z m 533,127 c 0,-83 -67,-150 -150,-150 -83,0 -150,67 -150,150 0,83 67,150 150,150 83,0 150,-67 150,-150 z m 77,-92 c 0,81 65,147 146,147 81,0 147,-66 147,-147 0,-81 -66,-147 -147,-147 -81,0 -146,66 -146,147 z m 500,-7 c 79,0 143,-64 143,-143 0,-78 -64,-142 -143,-142 -79,0 -143,64 -143,142 0,79 64,143 143,143 z m 469,-338 c 0,-76 -62,-138 -138,-138 -76,0 -138,62 -138,138 0,76 62,138 138,138 76,0 138,-62 138,-138 z m 301,-231 c 0,-73 -59,-133 -132,-133 -73,0 -132,60 -132,133 0,73 59,132 132,132 73,0 132,-59 132,-132 z m 153,-384 c -69,0 -125,56 -125,125 0,69 56,125 125,125 69,0 125,-56 125,-125 0,-69 -56,-125 -125,-125 z m 381,-154 c 0,-65 -52,-118 -117,-118 -65,0 -118,53 -118,118 0,65 53,117 118,117 65,0 117,-52 117,-117 z m 238,-297 c 0,-60 -49,-109 -110,-109 -60,0 -110,49 -110,109 0,61 49,110 110,110 60,0 110,-49 110,-110 z m 18,-309 c 0,55 45,100 100,100 55,0 100,-45 100,-100 0,-56 -45,-101 -100,-101 -55,0 -100,45 -100,101 z m 311,-412 c -50,0 -89,41 -89,90 0,50 39,90 89,90 49,0 90,-40 90,-90 0,-49 -41,-90 -90,-90 z m 196,-162 c 44,0 79,-35 79,-79 0,-44 -35,-79 -79,-79 -44,0 -79,35 -79,79 0,44 35,79 79,79 z m 114,-419 c 0,37 30,66 66,66 36,0 66,-29 66,-66 0,-36 -30,-66 -66,-66 -36,0 -66,30 -66,66 z m 282,-348 c 0,-29 -23,-52 -52,-52 -29,0 -53,23 -53,52 0,29 24,53 53,53 29,0 52,-24 52,-53 z m 93,-393 c -21,0 -37,17 -37,37 0,20 16,37 37,37 20,0 37,-17 37,-37 0,-20 -17,-37 -37,-37 z m 122,-308 c 11,0 20,-9 20,-20 0,-11 -9,-20 -20,-20 -11,0 -20,9 -20,20 0,11 9,20 20,20 z m 10020,7900 c 0,15 12,26 26,26 14,0 26,-11 26,-26 0,-14 -12,-25 -26,-25 -14,0 -26,11 -26,25 z m -405,8 c 0,26 21,47 47,47 26,0 47,-21 47,-47 0,-27 -21,-48 -47,-48 -26,0 -47,21 -47,48 z m -402,-17 c 0,37 29,65 65,65 36,0 66,-29 66,-65 0,-37 -30,-66 -66,-66 -36,0 -65,30 -65,66 z m -398,-44 c 0,46 36,82 82,82 45,0 82,-36 82,-82 0,-45 -37,-82 -82,-82 -46,0 -82,37 -82,82 z m -392,-72 c 0,53 43,96 97,96 53,0 96,-43 96,-96 0,-53 -43,-96 -96,-96 -54,0 -97,43 -97,96 z m -383,-102 c 0,60 49,109 110,109 60,0 109,-49 109,-109 0,-61 -49,-110 -109,-110 -61,0 -110,49 -110,110 z m -369,-136 c 0,66 53,119 119,119 66,0 120,-53 120,-119 0,-66 -54,-119 -120,-119 -66,0 -119,53 -119,119 z m -354,-170 c 0,71 58,129 129,129 72,0 130,-58 130,-129 0,-72 -58,-129 -130,-129 -71,0 -129,57 -129,129 z m -195,-343 c -75,0 -137,61 -137,137 0,76 62,137 137,137 76,0 138,-61 138,-137 0,-26 -8,-49 -20,-70 -20,-34 -54,-58 -94,-65 -8,-1 -16,-2 -24,-2 z m -296,-250 c -80,0 -144,64 -144,143 0,80 64,144 144,144 79,0 143,-64 143,-144 0,-14 -3,-28 -7,-41 -14,-47 -52,-84 -99,-97 -12,-3 -25,-5 -37,-5 z m -179,-262 c -24,-15 -52,-25 -82,-25 -82,0 -149,67 -149,149 0,82 67,149 149,149 82,0 148,-67 148,-149 0,-13 -2,-26 -5,-38 -10,-36 -32,-66 -61,-86 z m -294,-348 c -84,0 -152,68 -152,152 0,84 68,152 152,152 84,0 152,-68 152,-152 0,-84 -68,-152 -152,-152 z m -140,-359 c -85,0 -154,70 -154,155 0,86 69,154 154,154 86,0 155,-69 155,-154 0,-86 -69,-155 -155,-155 z m 139,-226 c 0,-86 -70,-156 -156,-156 -86,0 -155,70 -155,156 0,86 69,155 155,155 86,0 156,-69 156,-155 z m 93,-372 c 0,-86 -69,-156 -155,-156 -86,0 -155,70 -155,156 0,86 69,155 155,155 86,0 155,-69 155,-155 z m 15,-498 c -85,0 -154,69 -154,154 0,86 69,155 154,155 85,0 154,-69 154,-155 0,-85 -69,-154 -154,-154 z m 256,-281 c -84,0 -151,68 -151,151 0,84 67,152 151,152 84,0 152,-68 152,-152 0,-83 -68,-151 -152,-151 z m 486,-25 c 0,-82 -66,-148 -148,-148 -81,0 -147,66 -147,148 0,81 66,147 147,147 82,0 148,-66 148,-147 z m 91,-26 c 0,78 64,141 142,141 78,0 141,-63 141,-141 0,-78 -63,-141 -141,-141 -78,0 -142,63 -142,141 z m 369,121 c 0,74 61,135 135,135 75,0 136,-61 136,-135 0,-75 -61,-135 -136,-135 -74,0 -135,60 -135,135 z m 448,94 c -70,0 -127,57 -127,127 0,71 57,128 127,128 70,0 127,-57 127,-128 0,-70 -57,-127 -127,-127 z m 258,294 c -65,0 -117,52 -117,117 0,65 52,117 117,117 65,0 117,-52 117,-117 0,-65 -52,-117 -117,-117 z m 182,561 c 59,0 108,-47 108,-107 0,-59 -49,-108 -108,-108 -59,0 -107,49 -107,108 0,60 48,107 107,107 z m -18,268 c 0,52 42,94 94,94 52,0 94,-42 94,-94 0,-52 -42,-94 -94,-94 -52,0 -94,42 -94,94 z m -23,381 c 0,44 36,80 80,80 45,0 81,-36 81,-80 0,-45 -36,-81 -81,-81 -44,0 -80,36 -80,81 z m -55,294 c -35,0 -64,29 -64,64 0,36 29,64 64,64 36,0 64,-28 64,-64 0,-35 -28,-64 -64,-64 z m -257,384 c 0,25 20,46 46,46 25,0 46,-21 46,-46 0,-25 -20,-46 -46,-46 -25,0 -46,21 -46,46 z m -256,266 c 0,13 11,25 25,25 14,0 25,-12 25,-25 0,-14 -11,-26 -25,-26 -14,0 -25,12 -25,26 z m -1225,1560 c 0,13 11,25 25,25 14,0 26,-12 26,-25 0,-15 -12,-26 -26,-26 -14,0 -25,11 -25,26 z m -404,51 c 0,26 21,46 46,46 26,0 47,-20 47,-46 0,-26 -21,-47 -47,-47 -25,0 -46,21 -46,47 z m -404,8 c 0,35 29,64 64,64 36,0 65,-29 65,-64 0,-36 -29,-65 -65,-65 -35,0 -64,29 -64,65 z m -400,-48 c 0,45 36,81 81,81 45,0 81,-36 81,-81 0,-45 -36,-81 -81,-81 -45,0 -81,36 -81,81 z m -384,-110 c 0,52 43,95 95,95 53,0 95,-43 95,-95 0,-52 -42,-95 -95,-95 -52,0 -95,43 -95,95 z m -359,-172 c 0,60 49,108 109,108 59,0 108,-48 108,-108 0,-60 -49,-108 -108,-108 -60,0 -109,48 -109,108 z m -323,-226 c 0,66 53,119 119,119 65,0 119,-53 119,-119 0,-66 -53,-119 -119,-119 -65,0 -119,53 -119,119 z m -158,-398 c -71,0 -128,58 -128,128 0,71 57,129 128,129 71,0 128,-58 128,-129 0,-70 -57,-128 -128,-128 z m -105,-174 c 0,-75 -61,-135 -135,-135 -75,0 -136,60 -136,135 0,75 61,136 136,136 74,0 135,-61 135,-136 z m -199,-325 c 0,-79 -64,-144 -144,-144 -79,0 -143,65 -143,144 0,79 64,143 143,143 80,0 144,-64 144,-143 z m -165,-347 c 0,-82 -67,-149 -149,-149 -83,0 -150,67 -150,149 0,83 67,150 150,150 82,0 149,-67 149,-150 z m -118,-366 c 0,-85 -68,-153 -153,-153 -85,0 -154,68 -154,153 0,85 69,154 154,154 85,0 153,-69 153,-154 z m -64,-380 c 0,-86 -70,-156 -156,-156 -85,0 -155,70 -155,156 0,86 70,155 155,155 86,0 156,-69 156,-155 z m -14,-386 c 0,-86 -70,-156 -156,-156 -86,0 -155,70 -155,156 0,86 69,155 155,155 86,0 156,-69 156,-155 z m -288,-386 c 0,85 69,154 154,154 85,0 154,-69 154,-154 0,-85 -69,-154 -154,-154 -85,0 -154,69 -154,154 z m 43,-384 c 0,82 67,150 150,150 83,0 150,-68 150,-150 0,-83 -67,-150 -150,-150 -83,0 -150,67 -150,150 z m 45,-385 c 0,80 64,144 143,144 80,0 144,-64 144,-144 0,-79 -64,-144 -144,-144 -79,0 -143,65 -143,144 z m 33,-385 c 0,75 61,135 136,135 75,0 136,-60 136,-135 0,-75 -61,-136 -136,-136 -75,0 -136,61 -136,136 z m 16,-387 c 0,70 56,126 125,126 70,0 126,-56 126,-126 0,-69 -56,-125 -126,-125 -69,0 -125,56 -125,125 z m -7,-385 c 0,63 51,113 113,113 62,0 113,-50 113,-113 0,-62 -51,-112 -113,-112 -62,0 -113,50 -113,112 z m -28,-384 c 0,54 43,97 97,97 53,0 97,-43 97,-97 0,-53 -44,-96 -97,-96 -54,0 -97,43 -97,96 z m -51,-380 c 0,44 36,79 79,79 44,0 79,-35 79,-79 0,-44 -35,-79 -79,-79 -43,0 -79,35 -79,79 z m -68,-375 c 0,31 25,56 57,56 31,0 57,-25 57,-56 0,-32 -26,-57 -57,-57 -32,0 -57,25 -57,57 z m -85,-371 c 0,17 14,32 32,32 17,0 31,-15 31,-32 0,-17 -14,-31 -31,-31 -18,0 -32,14 -32,31 z m 2262,6957 c 0,17 14,31 31,31 18,0 32,-14 32,-31 0,-17 -14,-32 -32,-32 -17,0 -31,15 -31,32 z m -409,-66 c 0,32 26,57 58,57 31,0 57,-25 57,-57 0,-31 -26,-57 -57,-57 -32,0 -58,26 -58,57 z m -388,-129 c 0,44 36,79 80,79 43,0 79,-35 79,-79 0,-44 -36,-79 -79,-79 -44,0 -80,35 -80,79 z m -357,-189 c 0,54 44,97 97,97 54,0 98,-43 98,-97 0,-53 -44,-97 -98,-97 -53,0 -97,44 -97,97 z m -321,-239 c 0,63 50,113 112,113 63,0 114,-50 114,-113 0,-62 -51,-113 -114,-113 -62,0 -112,51 -112,113 z m -283,-278 c 0,70 56,126 125,126 70,0 126,-56 126,-126 0,-70 -56,-126 -126,-126 -69,0 -125,56 -125,126 z m -248,-307 c 0,75 61,136 136,136 75,0 136,-61 136,-136 0,-76 -61,-136 -136,-136 -75,0 -136,60 -136,136 z m -66,-476 c -80,0 -144,65 -144,144 0,79 64,144 144,144 79,0 143,-65 143,-144 0,-79 -64,-144 -143,-144 z m -152,-363 c -82,0 -149,68 -149,150 0,83 67,149 149,149 83,0 150,-67 150,-149 0,-83 -67,-150 -150,-150 z m -101,-378 c -84,0 -152,68 -152,153 0,84 68,152 152,152 85,0 153,-68 153,-152 0,-85 -68,-153 -153,-153 z m -56,-387 c -86,0 -155,70 -155,155 0,86 69,155 155,155 85,0 154,-69 154,-155 0,-85 -69,-155 -154,-155 z m 133,-233 c 0,-86 -70,-155 -156,-155 -86,0 -156,69 -156,155 0,87 70,156 156,156 86,0 156,-69 156,-156 z m -308,-388 c 0,85 69,155 155,155 85,0 154,-70 154,-155 0,-86 -69,-155 -154,-155 -86,0 -155,69 -155,155 z m 21,-388 c 0,84 68,152 152,152 84,0 153,-68 153,-152 0,-85 -69,-153 -153,-153 -84,0 -152,68 -152,153 z m 30,-388 c 0,82 66,149 149,149 82,0 149,-67 149,-149 0,-82 -67,-149 -149,-149 -83,0 -149,67 -149,149 z m 35,-387 c 0,79 64,143 143,143 79,0 143,-63 143,-143 0,-79 -64,-144 -143,-144 -79,0 -143,64 -143,144 z m 31,-388 c 0,75 61,136 136,136 76,0 137,-61 137,-136 0,-75 -61,-136 -137,-136 -75,0 -136,61 -136,136 z m 23,-388 c 0,71 57,127 127,127 71,0 128,-56 128,-127 0,-70 -57,-127 -128,-127 -70,0 -127,57 -127,127 z m 8,-388 c 0,64 52,117 117,117 64,0 116,-53 116,-117 0,-64 -52,-117 -116,-117 -65,0 -117,53 -117,117 z m 92,-284 c 57,0 103,-47 103,-104 0,-57 -46,-104 -103,-104 -58,0 -104,47 -104,104 0,57 46,104 104,104 z m -142,-489 c 0,49 40,89 88,89 49,0 89,-40 89,-89 0,-48 -40,-88 -89,-88 -48,0 -88,40 -88,88 z m -69,-378 c 0,39 32,71 71,71 39,0 71,-32 71,-71 0,-40 -32,-72 -71,-72 -39,0 -71,32 -71,72 z m -52,-420 c -28,0 -51,22 -51,51 0,28 23,52 51,52 29,0 52,-23 52,-52 0,-28 -23,-51 -52,-51 z m -188,-303 c 0,16 12,28 28,28 15,0 28,-12 28,-28 0,-15 -13,-28 -28,-28 -16,0 -28,13 -28,28 z M 3243,8093 c 21,0 38,-16 38,-37 0,-1 -1,-2 -1,-3 -20,10 -40,20 -59,32 6,5 14,8 22,8 z m 145,354 c 0,-37 -30,-67 -67,-67 -37,0 -68,30 -68,67 0,38 31,68 68,68 37,0 67,-30 67,-68 z m 71,283 c -51,0 -92,41 -92,92 0,50 41,92 92,92 50,0 91,-42 91,-92 0,-51 -41,-92 -91,-92 z m 190,554 c 61,0 111,-50 111,-111 0,-62 -50,-111 -111,-111 -62,0 -111,49 -111,111 0,61 49,111 111,111 z m 360,212 c 0,-70 -56,-126 -126,-126 -70,0 -127,56 -127,126 0,70 57,127 127,127 70,0 126,-57 126,-127 z m 5,295 c 0,47 24,89 60,114 52,-76 101,-155 145,-235 -20,-11 -42,-18 -67,-18 -76,0 -138,62 -138,139 z m 919,492 c 0,-85 -69,-153 -153,-153 -37,0 -70,13 -96,35 -18,34 -37,69 -56,103 0,5 -1,10 -1,15 0,84 68,153 153,153 84,0 153,-69 153,-153 z m 45,184 c 0,85 70,156 155,156 86,0 156,-71 156,-156 0,-86 -70,-155 -156,-155 -85,0 -155,69 -155,155 z m 384,106 c 0,86 70,155 155,155 86,0 155,-69 155,-155 0,-85 -69,-155 -155,-155 -85,0 -155,70 -155,155 z m 552,196 c 84,0 151,-68 151,-151 0,-84 -67,-151 -151,-151 -83,0 -151,67 -151,151 0,83 68,151 151,151 z m 543,-136 c 0,-79 -64,-144 -144,-144 -79,0 -144,65 -144,144 0,80 65,144 144,144 80,0 144,-64 144,-144 z m 256,-143 c -74,0 -133,60 -133,133 0,74 59,133 133,133 73,0 132,-59 132,-133 0,-73 -59,-133 -132,-133 z m 397,-21 c -65,0 -117,53 -117,118 0,65 52,117 117,117 65,0 118,-52 118,-117 0,-65 -53,-118 -118,-118 z m 296,50 c 0,36 21,68 50,85 28,-59 53,-118 76,-178 -9,-3 -18,-5 -28,-5 -54,0 -98,44 -98,98 z M 3620,6140 c 0,-57 -47,-104 -104,-104 -57,0 -103,47 -103,104 0,57 46,103 103,103 57,0 104,-46 104,-103 z m -221,324 c 0,-49 -40,-89 -89,-89 -49,0 -89,40 -89,89 0,49 40,89 89,89 49,0 89,-40 89,-89 z m -175,352 c 0,-37 -30,-68 -68,-68 -37,0 -68,31 -68,68 0,38 31,69 68,69 38,0 68,-31 68,-69 z m -160,334 c 22,0 39,17 39,39 0,22 -17,40 -39,40 -22,0 -40,-18 -40,-40 0,-22 18,-39 40,-39 z"
     id="path1173"
     style="display:inline" /></g></svg>
