<?xml version="1.0" encoding="UTF-8" standalone="no"?>
<!-- Created with Inkscape (http://www.inkscape.org/) -->

<svg
   version="1.1"
   id="svg3445"
   width="1117.3333"
   height="1930.6667"
   viewBox="0 0 1117.3333 1930.6667"
   sodipodi:docname="v2.svg"
   inkscape:version="1.2.2 (732a01da63, 2022-12-09, custom)"
   xmlns:inkscape="http://www.inkscape.org/namespaces/inkscape"
   xmlns:sodipodi="http://sodipodi.sourceforge.net/DTD/sodipodi-0.dtd"
   xmlns="http://www.w3.org/2000/svg"
   xmlns:svg="http://www.w3.org/2000/svg">
  <defs
     id="defs3449" />
  <sodipodi:namedview
     id="namedview3447"
     pagecolor="#ffffff"
     bordercolor="#000000"
     borderopacity="0.25"
     inkscape:showpageshadow="2"
     inkscape:pageopacity="0.0"
     inkscape:pagecheckerboard="0"
     inkscape:deskcolor="#d1d1d1"
     showgrid="false"
     inkscape:zoom="0.42886739"
     inkscape:cx="559.61355"
     inkscape:cy="965.33337"
     inkscape:window-width="1920"
     inkscape:window-height="1031"
     inkscape:window-x="0"
     inkscape:window-y="25"
     inkscape:window-maximized="1"
     inkscape:current-layer="layer10" />
  <g
     inkscape:groupmode="layer"
     id="layer10"
     inkscape:label="Layer 1">
    <path
       style="fill:#000000;stroke-width:1.33333"
       d="m 480.66665,1861.759 c -19.91608,-1.0044 -64.79344,-4.75 -86.58078,-7.2263 -23.25251,-2.6428 -24.41447,-2.9233 -42,-10.1423 -36.35619,-14.9244 -52.53773,-19.1481 -73.45337,-19.1729 -14.23389,-0.017 -25.07855,2.7513 -34.78705,8.8801 -5.51459,3.4812 -7.84546,3.3186 -7.84546,-0.5472 0,-4.2129 -8.91144,-20.8085 -14.63433,-27.2533 -10.58067,-11.9153 -22.90307,-19.3349 -60.60141,-36.4899 -10.213,-4.6476 -22.70935,-10.9097 -27.76965,-13.916 -13.68929,-8.1326 -26.37621,-20.7409 -32.39448,-32.1937 l -5.051638,-9.6133 2.29763,-16.6758 c 7.573778,-54.9692 21.379168,-108.6073 37.596778,-146.075 l 6.34835,-14.6667 0.95116,-25.3333 c 0.52314,-13.9334 0.7715,-25.532 0.5519,-25.7747 -0.21958,-0.2428 -1.61118,0.2072 -3.09245,1 -1.48127,0.7927 -5.41155,1.4413 -8.73395,1.4413 -4.6077,0 -6.36818,-0.6118 -7.42099,-2.579 -1.91399,-3.5763 -1.68078,-16.0844 0.53427,-28.6548 1.72095,-9.7664 1.65177,-11.6355 -0.913,-24.6667 -1.54092,-7.8292 -2.81895,-19.7609 -2.87378,-26.8299 -0.12432,-16.0276 3.16943,-23.7006 12.85057,-29.9362 7.35859,-4.7396 7.34137,-4.616 3.57197,-25.6699 -3.62696,-20.2582 -3.16345,-37.943 1.25376,-47.8374 2.45911,-5.5084 4.12748,-7.3248 8.56623,-9.3264 3.03179,-1.3671 8.54143,-5.4888 12.24365,-9.1594 13.65493,-13.5379 19.38608,-30.6623 19.38608,-57.9245 0,-16.3628 0.12293,-17.0794 4.48149,-26.1201 8.81008,-18.2742 24.58716,-35.36 48.18518,-52.1822 21.13804,-15.0686 24.38014,-22.4213 22.51882,-51.0701 -1.80344,-27.758 -1.3286,-35.0279 2.84514,-43.5587 2.18242,-4.4607 5.33142,-8.4427 8.0884,-10.2279 2.48305,-1.6079 4.52205,-3.5957 4.53113,-4.4174 0.009,-0.8217 -1.18839,-8.4327 -2.66103,-16.9134 -1.79914,-10.361 -2.2821,-16.4321 -1.47218,-18.5061 4.92824,-12.61992 4.60986,-19.31931 -1.06238,-22.355 -2.95825,-1.5832 -10.7879,-23.8553 -10.7879,-30.68707 0,-3.39568 -0.60152,-4.03649 -4.47023,-4.76227 -2.57169,-0.48245 -9.75855,0.24546 -16.92185,1.7139 -13.7307,2.8147 -20.62164,2.30914 -26.4188,-1.93823 -10.82082,-7.92803 -10.89706,-27.15903 -0.19184,-48.39121 8.46158,-16.7823 13.27424,-42.84166 13.297,-72.00001 0.0149,-19.21272 -1.91135,-25.09717 -11.89408,-36.33333 -4.59804,-5.17536 -6.44348,-6.33333 -10.09339,-6.33333 -12.15387,0 -13.93075,-4.47758 -7.46676,-18.81558 5.48453,-12.16546 6.00264,-15.79274 3.39464,-23.76624 -4.95239,-15.14108 -13.13183,-22.1307 -32.97029,-28.17433 -32.58019,-9.92529 -39.01447,-13.22739 -47.21761,-24.23231 -2.77574,-3.72377 -6.68327,-8.92473 -8.68342,-11.55769 -7.383568,-9.71959 -9.517015,-24.06976 -5.581859,-37.54519 4.864059,-16.65632 19.872559,-36.2472 37.291179,-48.67687 l 8.13996,-5.80856 0.19559,-21.8499 c 0.62339,-69.63771 18.632,-141.7123 52.27088,-209.19998 26.1821,-52.52757 57.82896,-96.38264 99.90658,-138.44687 89.34376,-89.31533 188.0832,-132.034589 326.74762,-141.366178 28.64084,-1.927419 83.1179,-0.846176 102.66666,2.037695 32.14257,4.741736 61.59095,14.764139 82.89337,28.211763 l 4.99202,3.15133 6.39064,-3.96804 c 23.04118,-14.306597 57.11698,-15.048016 83.46973,-1.81613 18.53128,9.30468 30.49726,21.09619 38.94224,38.37444 7.66226,15.67685 9.32363,24.10184 9.22517,46.78196 -0.078,17.97091 -0.44858,21.09279 -3.6524,30.77121 -5.98393,18.07682 -13.817,28.39172 -32.32636,42.56876 -16.67181,12.76958 -47.49785,22.97564 -73.35708,24.28751 -11.02428,0.55927 -12.98556,0.26529 -22.26228,-3.33687 -12.58054,-4.88504 -29.42166,-15.96177 -42.06276,-27.66548 l -9.58485,-8.8741 -6.53955,5.47522 c -18.86582,15.79536 -38.82227,42.52102 -49.5723,66.38715 -5.49183,12.1924 -11.59035,32.0861 -13.9048,45.35816 -2.99988,17.20259 -5.10211,86.79464 -3.37407,111.69511 0.76338,11 1.63919,24.8 1.94626,30.66667 1.59001,30.37785 3.60241,51.44792 5.40057,56.54445 1.10459,3.13074 2.92284,13.88899 4.04057,23.90723 1.11772,10.01824 2.3491,19.41499 2.73638,20.88165 0.38728,1.46667 1.01736,13.76667 1.40016,27.33334 0.3828,13.56666 1.25073,26.46666 1.92872,28.66666 0.678,2.2 2.70188,11.23919 4.4975,20.08707 1.84172,9.07495 5.54088,21.57034 8.48656,28.66667 2.87197,6.91879 6.17464,15.5796 7.33927,19.24627 1.16461,3.66666 4.25344,12.96666 6.86405,20.66666 2.6106,7.7 4.75464,15.2 4.76451,16.66667 0.009,1.46667 2.14978,7.46667 4.75534,13.33333 2.60556,5.86667 5.58095,13.77956 6.61196,17.58422 1.03103,3.80465 4.63454,12.10745 8.0078,18.45066 5.54424,10.42562 22.43855,51.85863 31.92616,78.29846 l 3.708,10.33333 -3.51836,9.66667 c -1.93509,5.31667 -3.51546,11.58739 -3.51193,13.93495 0.009,6.28717 3.65195,19.23268 6.50015,23.10176 4.14908,5.63622 9.50628,17.99684 9.50628,21.93372 0,3.85265 11.7506,25.72284 15.48644,28.82332 1.17001,0.971 4.56634,5.3897 7.5474,9.8192 8.45955,12.5701 28.36517,38.8447 39.43586,52.0537 15.69628,18.7282 56.53325,58.833 74.26043,72.9291 24.28174,19.3081 33.97259,31.3554 37.25078,46.3088 0.55117,2.5142 3.85071,8.5142 7.33228,13.3334 22.40033,31.0062 36.29263,68.2128 43.59703,116.7621 3.4624,23.0136 3.3603,103.0602 -0.1964,154 -1.6621,23.8046 -2.5708,51.1657 -2.5904,78 -0.03,40.6377 0.6821,51.1849 5.328,78.9454 1.9541,11.6763 1.9302,12.5596 -0.4874,18 -1.3982,3.1467 -4.2037,7.687 -6.2344,10.0895 -4.9112,5.8107 -28.0928,25.7272 -41.3963,35.5657 -13.39516,9.9064 -31.83572,24.6982 -56.66666,45.4542 -51.57609,43.112 -82.32133,66.5246 -111.10985,84.6106 -10.63123,6.679 -16.41269,9.2298 -30.57915,13.4911 -56.57361,17.0179 -115.60847,27.182 -184.75039,31.8091 -18.12107,1.2125 -102.41556,1.5265 -123.5606,0.46 z"
       id="path3455" />
    <g
       id="layer11"
       inkscape:label="01"
       style="fill:#ff0000">
      <path
         style="fill:#ff0000;stroke-width:1.33333"
         d="m 259.38311,1754.6667 c 9.50198,-19.2645 15.28355,-34.7927 15.28355,-41.0485 0,-2.6466 -1.52443,-5.5282 -4.71313,-8.9092 -7.43336,-7.8816 -10.31988,-14.7331 -10.97158,-26.0423 -0.72768,-12.628 2.66667,-22.4296 10.96295,-31.6571 8.61069,-9.5772 18.75064,-14.1417 31.66382,-14.2537 l 10.2754,-0.089 2.24,-6 c 1.232,-3.3 8.00208,-17.2418 15.04463,-30.9816 l 12.80461,-24.9815 -2.40074,-3.6852 c -7.7614,-11.9135 -9.57263,-17.9087 -9.57263,-31.6849 0,-11.8976 0.40117,-14.1503 3.72565,-20.9202 4.64319,-9.4552 15.50992,-19.6038 24.36303,-22.753 4.25507,-1.5138 10.46248,-2.3376 17.57799,-2.3334 6.05,0 11,-0.506 11,-1.1325 0,-0.6264 5.45081,-9.6952 12.1129,-20.1528 6.66209,-10.4576 13.22109,-21.5992 14.57555,-24.7589 l 2.46264,-5.7451 -5.43394,-10.6357 c -6.58788,-12.8944 -8.12456,-25.5647 -4.57949,-37.7594 5.15259,-17.7242 17.57565,-27.2736 40.86233,-31.41 5.99388,-1.0646 6.00646,-1.0786 12.32086,-13.7324 8.20214,-16.4366 16.72982,-39.7256 25.78482,-70.4179 6.91159,-23.4271 7.76535,-29.5821 4.10332,-29.5821 -0.88621,0 -5.94992,2.7 -11.25268,6 -5.30274,3.3 -10.23724,6 -10.9655,6 -0.72828,0 -1.32415,1.4453 -1.32415,3.2118 0,1.7665 -3.28671,9.6221 -7.3038,17.4569 -4.48119,8.7399 -7.64356,16.8063 -8.18295,20.8725 l -0.87914,6.6273 -4.32246,-4.1895 c -2.81984,-2.7331 -6.13642,-4.4328 -9.54062,-4.8894 -5.00407,-0.6712 -5.59887,-0.3209 -14.49462,8.5345 -7.24473,7.2119 -12.70766,11.0385 -24.94308,17.4718 -8.61666,4.5306 -22.50409,11.846 -30.86093,16.2564 -17.91096,9.4528 -31.41737,13.3144 -46.56853,13.3144 -12.41088,0 -11.85056,-0.2663 -42.90386,20.3921 -43.55654,28.9764 -76.92762,56.382 -91.40708,75.067 -5.23688,6.758 -5.29383,6.9613 -11.19878,40 -14.71679,82.3418 -29.82197,146.8644 -44.81506,191.43 -7.03284,20.9044 -8.05412,29.0061 -4.34659,34.4809 5.97173,8.8184 20.21207,20.8451 31.1348,26.2951 10.48642,5.2321 17.62745,7.5709 58.40747,19.1285 8.30945,2.3549 20.00945,6.7685 26,9.8077 5.99054,3.0394 11.0187,5.4706 11.17369,5.4028 0.15499,-0.068 4.25059,-8.1697 9.10133,-18.0041 z"
         id="path3486" />
      <path
         style="fill:#ff0000;stroke-width:1.33333"
         d="m 687.99998,1821.3356 c 14.65925,-2.0941 39.29646,-8.5836 56.37304,-14.8488 44.21449,-16.2216 84.83408,-40.2962 160.96029,-95.3988 43.58121,-31.5456 57.14541,-40.8077 71.1325,-48.5721 5.75623,-3.1953 11.69639,-7.5379 13.20036,-9.65 2.69321,-3.7823 2.70132,-4.0645 0.53628,-18.6864 -6.96933,-47.0685 -6.70376,-90.4789 1.13085,-184.8461 6.31732,-76.0915 7.68684,-123.9255 4.55526,-159.1039 -1.46746,-16.4845 -6.68924,-49.6931 -9.16338,-58.2755 -3.76988,-13.0772 -15.37,-24.2357 -30.72521,-29.5554 -11.09334,-3.8432 -29.11036,-4.0232 -65.10565,-0.6503 -40.65217,3.8091 -52.72611,8.033 -71.9666,25.1762 -48.77997,43.4629 -80.54242,104.6152 -96.82045,186.4089 -7.98553,40.1256 -11.84629,73.7445 -18.75701,163.3333 -9.3402,121.0841 -16.27801,178.0264 -28.08549,230.5125 -3.96395,17.6204 -3.95415,17.0195 -0.26479,16.2283 1.65,-0.3537 7.5,-1.2861 13,-2.0719 z"
         id="path3484" />
      <path
         style="fill:#ff0000;stroke-width:1.33333"
         d="m 599.99998,1832.779 c 9.16667,-1.928 18.37131,-4.1875 20.45475,-5.021 5.48349,-2.1937 9.2704,-8.9516 15.40458,-27.4901 6.76519,-20.4456 11.57044,-52.4476 22.163,-147.6012 4.08176,-36.6667 8.85311,-76.5667 10.603,-88.6667 1.74991,-12.1 5.61083,-38.8 8.57984,-59.3333 8.32099,-57.5471 16.47826,-95.4645 28.70759,-133.4419 21.6282,-67.1649 51.51786,-116.0817 95.11741,-155.6672 22.00644,-19.9804 40.4462,-29.4558 69.2894,-35.6049 15.47389,-3.2989 53.69138,-4.8004 74.34709,-2.9209 7.33333,0.6673 13.59037,1.0011 13.90453,0.7418 0.31416,-0.2594 -6.58584,-7.5233 -15.33333,-16.1421 -11.04723,-10.8847 -25.67747,-22.9628 -47.90453,-39.5478 -23.9894,-17.9 -36.17219,-28.0534 -48.66667,-40.5598 -11.18874,-11.1994 -17.76225,-16.7985 -20,-17.0353 -7.93434,-0.8399 -19.67741,-0.428 -40.77697,1.4302 -27.19164,2.3948 -39.14787,4.5801 -54.74575,10.0064 -6.49583,2.2598 -21.59506,7.4099 -33.55385,11.4446 -11.95877,4.0347 -25.15877,9.0438 -29.33333,11.1314 -12.49053,6.2461 -39.86383,16.9211 -56.92342,22.1988 -38.69659,11.9717 -64.30107,30.9393 -82.2219,60.9095 -9.01968,15.0842 -13.01276,26.8656 -13.06554,38.5492 -0.0951,21.0305 -4.21752,36.27 -22.68036,83.8413 -18.04081,46.484 -22.99161,60.5775 -21.83149,62.1483 12.43004,16.8289 15.32686,24.3731 15.25657,39.7316 -0.0984,21.5076 -6.99576,33.6877 -23.06063,40.7236 -8.17389,3.5799 -17.05892,4.5711 -25.24218,2.816 -6.65667,-1.4275 -7.2013,-1.3421 -9.31491,1.4599 -3.60433,4.7784 -17.04185,31.7922 -19.77072,39.7456 -2.45147,7.1449 -2.45087,7.3632 0.0297,10.8468 6.50075,9.1294 8.39936,15.9866 8.45263,30.5282 0.0681,18.6042 -2.98479,26.6663 -14.43453,38.1183 -9.86806,9.8701 -18.01168,13.1715 -32.39493,13.1327 l -9.61158,-0.025 -6.66409,12.0542 c -3.66524,6.6297 -10.60751,20.2666 -15.42725,30.3042 l -8.76318,18.2503 4.00452,6.5081 c 5.74059,9.3296 8.52086,21.4116 7.7376,33.6248 -1.62757,25.3787 -16.03753,41.2636 -37.56862,41.4139 l -6.76248,0.047 -7.1688,17.6194 c -9.29264,22.8395 -18.81793,50.1386 -18.82536,53.9528 -0.005,2.9844 0.1032,3 21.00233,3 34.70288,0 55.15112,2.9363 122.32516,17.5652 48.69388,10.6044 70.85886,14.8802 87.99999,16.9752 6.6,0.8068 13.5,1.7174 15.33334,2.0236 1.83333,0.3063 17.13333,0.3687 34,0.1387 26.99037,-0.3681 32.66465,-0.8385 47.33333,-3.9237 z"
         id="path3482" />
      <path
         style="fill:#ff0000;stroke-width:1.33333"
         d="M 617.56198,1095.3334 C 639.01734,1084.6125 649.64113,1080 652.87846,1080 c 2.54659,0 5.89705,-0.678 7.44548,-1.5067 1.54841,-0.8287 6.27181,-2.313 10.49644,-3.2986 4.22464,-0.9855 11.46829,-4.1817 16.09704,-7.1025 10.83095,-6.8346 18.88183,-10.5592 26.40021,-12.2138 10.68259,-2.3508 24.51323,-6.7119 31.34901,-9.8851 8.0206,-3.7232 25.63315,-8.6599 30.89552,-8.6599 3.82279,0 15.11676,-5.2501 19.43782,-9.0358 1.28333,-1.1243 2.33333,-3.4512 2.33333,-5.1709 0,-2.2378 0.75811,-3.1267 2.66667,-3.1267 2.00114,0 2.66666,-0.8889 2.66666,-3.5617 0,-1.9589 -0.79372,-4.5089 -1.76381,-5.6666 -3.07907,-3.6747 -14.96031,-23.27807 -16.62984,-27.43835 -0.88285,-2.2 -2.14953,-6.7 -2.81483,-10 -0.66529,-3.3 -3.60153,-11.7 -6.52497,-18.66667 -3.87987,-9.24588 -5.58053,-15.50458 -6.29733,-23.17508 l -0.98199,-10.5084 -11.49361,0.71567 c -6.3215,0.39361 -14.11906,1.67239 -17.32792,2.84173 -3.20887,1.16935 -9.35887,2.12608 -13.66667,2.12608 -4.3078,0 -7.83228,0.45 -7.83217,1 9e-5,0.55 1.49109,5.8 3.31332,11.66667 1.82223,5.86667 3.32215,11.66737 3.33315,12.89045 0.0319,3.54687 -6.54766,15.65896 -11.46007,21.09642 -2.47835,2.74322 -5.40011,7.12738 -6.4928,9.74257 -1.09269,2.61519 -2.60439,5.13661 -3.35931,5.60319 -0.75492,0.46656 -2.53702,3.1308 -3.96022,5.9205 -2.97203,5.82562 -15.58483,15.61102 -30.79871,23.89442 -9.27817,5.0517 -52.06328,22.8398 -64.57554,26.8476 -8.28328,2.6532 -12.04936,6.0008 -15.3382,13.6339 -2.72727,6.3296 -3.04722,9.2844 -3.1804,29.3707 -0.0815,12.2833 0.34896,22.3333 0.95645,22.3334 0.60748,10e-5 14.91335,-6.8998 31.79081,-15.3331 z"
         id="path3498" />
    </g>
    <g
       id="layer12"
       inkscape:label="02"
       style="fill:#0000ff">
      <path
         style="fill:#0000ff;stroke-width:1.33333"
         d="m 388.05126,1559.3074 c 7.34366,-3.7214 10.88242,-7.7595 14.03582,-16.0166 3.04645,-7.9769 2.10173,-18.8745 -2.18967,-25.2581 -7.19314,-10.7003 -22.99999,-16.9733 -35.09506,-13.9277 -19.00993,4.7868 -29.30748,27.0252 -20.38288,44.0186 3.24471,6.1784 13.79128,13.8082 20.73096,14.9978 6.45991,1.1072 16.48365,-0.5622 22.90083,-3.814 z"
         id="path3490" />
      <path
         style="fill:#0000ff;stroke-width:1.33333"
         d="m 312.67636,1703.5316 c 18.72167,-8.7182 23.51466,-29.889 10.60007,-46.821 -4.44383,-5.8262 -15.45229,-11.3795 -22.53823,-11.3698 -23.67551,0.032 -35.59718,21.3524 -24.3111,43.4762 8.1435,15.9634 21.72689,21.4773 36.24926,14.7146 z"
         id="path3488" />
      <path
         style="fill:#0000ff;stroke-width:1.33333"
         d="m 458.66665,1430.6063 c 17.6215,-8.8615 21.5551,-36.0447 7.16814,-49.5356 -2.10915,-1.9777 -6.06554,-4.5277 -8.79198,-5.6667 -6.13704,-2.5634 -19.64934,-2.6886 -25.5187,-0.2362 -13.5196,5.6488 -20.09932,28.2006 -12.61936,43.2526 6.87285,13.8303 25.27636,19.4704 39.7619,12.1859 z"
         id="path3496" />
    </g>
    <path
       id="path3492"
       style="fill:#ffcc00;stroke-width:1.33333"
       d="M 506.20703 820.00977 L 502.93164 825.67188 C 497.54741 834.9749 494.68891 846.25592 494.67773 858.24609 C 494.66573 870.80401 493.54219 874.50724 487.61133 881.53711 C 474.87319 896.63569 473.52509 899.31379 476.61719 903.40234 C 477.69729 904.83054 478.60497 906.9 478.63281 908 C 478.66071 909.1 479.5803 911.71786 480.67578 913.81836 C 483.49349 919.22105 483.19849 932.73712 480.11914 939.33398 C 478.74989 942.26731 473.38062 948.83345 468.1875 953.92578 C 457.81396 964.09793 457.92456 964.05817 433.63477 966.17578 C 422.97389 967.10521 419.70535 965.65175 418.10352 959.26953 C 416.46089 952.72481 407.85391 941.93195 397.9707 934.02344 C 394.32063 931.10266 391.13055 928.24431 390.88281 927.67188 C 390.63508 927.09945 385.43512 924.24576 379.32617 921.33008 C 368.27231 916.05429 356.89447 906.5948 349.04492 896.1543 L 345.65234 891.64062 L 336.96484 899.72266 C 327.44956 908.57471 319.47322 913.27914 313.7207 913.43164 C 311.25241 913.49714 304.61829 917.45036 294.00586 925.17969 L 278.01367 936.82617 L 276.99805 943.87891 C 275.8027 952.18494 277.68918 965.64171 280.68945 970.2207 C 283.75357 974.89714 288.28577 976.64544 292.89648 974.92969 C 294.97031 974.15798 304.96857 970.5152 315.11523 966.83398 C 341.40786 957.29499 347.98433 951.45958 347.99414 937.66602 C 347.99914 929.58853 348.99288 929.14415 356.07031 934.04883 C 366.41965 941.22091 374.68515 957.64692 374.64648 970.9668 C 374.61738 980.98995 373.36614 982.4895 367.61914 979.39453 L 363.05273 976.93555 L 355.41406 982.00391 C 348.33016 986.70593 345.05981 990.46897 337.91211 1002.1406 C 331.67964 1012.3177 325.70697 1016.8064 308.10352 1024.543 C 292.50945 1031.3965 289.98041 1033.4882 286.55664 1042.3633 C 283.99574 1049.0017 283.48446 1053.7441 282.64258 1078.666 C 281.51948 1111.9126 280.62434 1115.7908 270.54297 1131.1387 C 260.38162 1146.6083 252.08902 1154.2079 236.32422 1162.4961 C 215.65426 1173.3631 209.66221 1181.5314 204.41602 1206 C 201.21779 1220.9168 203.86011 1251.2242 208.12891 1248.5859 C 208.79082 1248.1768 209.33398 1246.1742 209.33398 1244.1348 C 209.33398 1237.9302 214.44882 1219.8104 218.59375 1211.334 C 223.46879 1201.3644 230.12934 1193.4904 238.2207 1188.1309 C 246.18809 1182.8535 247.61974 1182.9087 243.55859 1188.334 C 237.19639 1196.8332 235.57717 1201.7025 234.47461 1215.6582 C 233.4022 1229.2324 230.76581 1237.3773 226.22656 1241.1445 C 225.14451 1242.0426 223.21886 1247.022 221.94727 1252.2109 L 219.63672 1261.6465 L 187.00977 1283.1562 L 154.38086 1304.666 L 155.33008 1327.334 C 156.8923 1364.6837 155.92219 1370.9493 146.83594 1382.2559 C 140.03883 1390.714 138.97261 1399.0543 142.51953 1416 C 147.71626 1440.8279 149.37586 1451.0996 148.58984 1453.5762 C 147.96134 1455.5563 148.56229 1456 151.87891 1456 C 154.82196 1456 156.58866 1455.0065 158.30273 1452.3867 C 160.32298 1449.2991 160.68628 1445.3723 160.80664 1425.3867 C 160.96446 1399.1787 160.88434 1399.5284 173.09375 1371.9922 C 181.55122 1352.918 184.14316 1342.0858 183.68555 1327.7129 C 183.381 1318.1474 183.77921 1315.792 186.66211 1310.1465 C 191.28858 1301.0869 202.65415 1291.2978 219.91797 1281.5 C 250.66146 1264.052 256.28094 1257.8018 265.47461 1230.8281 C 269.79305 1218.1581 272.14376 1213.2781 275.59375 1209.8281 C 281.55436 1203.8675 284.64228 1203.8032 283.45898 1209.666 C 282.97796 1212.0493 281.13164 1222.4221 279.35547 1232.7168 C 275.61843 1254.3766 272.40837 1263.6734 265.56836 1272.6445 C 260.81705 1278.8761 260.2877 1279.1632 248.29102 1282.0215 C 224.70254 1287.6418 208.35281 1298.4155 201.8457 1312.6289 C 199.05226 1318.7306 198.57406 1321.9686 198.26953 1336.8359 L 197.91797 1354 L 190.11914 1372 C 183.85813 1386.452 182.18418 1391.8309 181.62695 1399.291 L 180.93359 1408.584 L 187.74609 1402.8789 C 195.36647 1396.4986 205.3597 1383.8246 210.01953 1374.6289 C 214.05997 1366.6555 216.82814 1356.771 219.2168 1341.791 C 222.05814 1323.9723 223.62261 1319.1906 228.37891 1313.7734 C 232.41373 1309.178 241.16813 1304.0934 245.15625 1304.0293 C 246.41136 1304.0093 246.7143 1304.9336 246.13086 1307 C 245.66498 1308.65 243.24216 1319.7684 240.74805 1331.707 C 235.83781 1355.2108 231.18086 1367.1767 223.10742 1377.0293 C 219.72551 1381.1565 218.11929 1384.6112 217.65039 1388.7715 C 217.28496 1392.0135 217.26998 1394.666 217.61719 1394.666 C 219.85803 1394.666 234.74659 1388.7587 239.44727 1386.0039 C 251.12397 1379.1609 255.3671 1371.8348 260.68555 1349.334 C 261.81224 1344.5673 264.32393 1337.3673 266.26562 1333.334 C 271.2032 1323.0775 285.97861 1308.7626 300.66602 1300.0078 C 321.16629 1287.7879 331.32259 1280.4783 337.7793 1273.2969 C 341.201 1269.4912 344 1265.8435 344 1265.1895 C 344 1264.5354 344.66747 1264 345.48242 1264 C 346.46597 1264 346.66076 1265.6811 346.0625 1269 C 344.31857 1278.6748 339.97752 1285.1776 328.23633 1295.6992 C 304.40669 1317.0534 296 1327.0541 296 1334.0527 C 296 1336.7209 299.55288 1336.1036 316.66602 1330.4629 C 332.41214 1325.2728 343.85515 1318.7523 352.64453 1309.9629 C 362.70689 1299.9005 367.04261 1289.9552 371.37695 1266.9902 C 375.18835 1246.796 377.71545 1241.334 383.24805 1241.334 C 385.87205 1241.334 386.42412 1242.2067 387.15234 1247.5195 C 388.61118 1258.1629 388.03668 1277.606 385.97656 1287.332 C 384.8893 1292.465 384 1296.8375 384 1297.0469 C 384 1298.2492 389.92303 1293.9263 393.92969 1289.8008 C 400.22118 1283.3227 403.75256 1273.2151 405.41992 1256.9082 C 409.36111 1218.3628 410.32925 1214.2253 417.24023 1206.4375 L 422 1201.0742 L 422.00391 1220.2031 C 422.00691 1241.3731 424.13095 1251.5874 429.92578 1258.2871 C 432.96477 1261.8007 433.18345 1261.857 433.99219 1259.334 C 436.37647 1251.8958 441.07101 1243.5754 448.66211 1233.334 C 463.58777 1213.1971 466.62577 1204.5954 466.65039 1182.4082 C 466.66479 1169.4136 466.91641 1167.9759 469.48633 1166.1758 C 474.79592 1162.4568 477.35157 1165.8341 480.09375 1180.1855 C 482.02395 1190.2874 483.41192 1193.334 486.08008 1193.334 C 490.59379 1193.334 494.23139 1175.347 496.05664 1144 C 496.84659 1130.4334 497.92604 1115.1334 498.45508 1110 L 499.41602 1100.666 L 505.58398 1106.7012 C 512.57263 1113.5379 514.37092 1118.3988 518.58008 1141.8145 C 520.01176 1149.7789 521.52408 1156.6354 521.93945 1157.0508 C 522.35483 1157.4662 524.48939 1156.0866 526.68359 1153.9844 C 539.76573 1141.451 539.65661 1119.2055 526.39062 1094.666 C 520.83576 1084.3905 518.37595 1076.9743 519.5293 1073.9688 C 520.01647 1072.6993 521.61728 1073.0785 525.75977 1075.4473 C 528.8254 1077.2003 532.31037 1078.6416 533.50391 1078.6504 C 534.69745 1078.6604 536.46118 1079.6155 537.42383 1080.7754 C 538.38648 1081.9354 541.05664 1083.886 543.35742 1085.1094 C 545.65819 1086.3328 550.46132 1089.2827 554.03125 1091.666 C 557.60119 1094.0493 560.93875 1096 561.44727 1096 C 561.95579 1096 563.78828 1094.8516 565.51953 1093.4492 C 568.50997 1091.0266 568.6704 1090.0773 568.75195 1074.4492 C 568.79915 1065.4016 569.27957 1055.0006 569.81836 1051.334 C 571.35812 1040.8552 576.23503 1027.1613 579.05469 1025.4004 C 580.46464 1024.5199 586.50485 1022.5697 592.47656 1021.0664 C 630.91526 1011.39 662.92565 986.21502 673.91406 957.02148 C 676.7702 949.43348 676.90445 948.14083 675.31641 943.52148 C 671.48657 932.38125 663.96974 927.94373 641.00977 923.26758 C 632.06812 921.44648 622.33163 918.82541 619.375 917.44336 C 616.41836 916.06131 608.60861 912.44341 602.01953 909.4043 C 568.08918 893.75443 533.68001 863.15567 512.35938 829.67188 L 506.20703 820.00977 z M 314.86523 1226.666 C 315.57136 1226.666 317.41443 1229.5167 318.95898 1233 C 325.07136 1246.7849 321.25525 1262.0603 308.3418 1275.5 C 302.77084 1281.2979 289.33398 1291.7265 289.33398 1290.252 C 289.33398 1289.9534 291.37391 1285.2754 293.86914 1279.8555 C 296.36436 1274.4355 300.03039 1264.6 302.01367 1258 C 306.5872 1242.78 313.1954 1226.666 314.86523 1226.666 z " />
    <g
       id="layer14"
       inkscape:label="03"
       style="fill:#ffeeaa">
      <path
         style="fill:#ffeeaa;stroke-width:1.33333"
         d="m 300.95339,1016.5033 c 9.7792,-3.316 31.98537,-19.19226 40.93347,-29.26527 4.33777,-4.88311 9.65988,-9.9566 11.82688,-11.27443 l 3.94001,-2.39606 -4.094,-2.1171 c -2.25169,-1.1644 -6.81744,-2.11709 -10.14609,-2.11709 -5.38654,0 -6.85614,0.72813 -13.36335,6.62111 -8.01203,7.25572 -11.86837,9.4229 -28.55963,16.04992 -10.48889,4.16445 -21.49069,12.15542 -21.49069,15.60942 0,2.2372 5.49503,8.5249 8.51749,9.7461 4.05836,1.6398 5.33282,1.552 12.43591,-0.8566 z"
         id="path3500" />
      <path
         id="path3502"
         style="fill:#ffeeaa;stroke-width:1.33333"
         d="m 402.76953,649.62305 c -7.47513,-0.0211 -15.16183,0.29271 -25.43555,0.86133 -49.37817,2.73291 -80.69008,11.21596 -148,40.0957 -24.73983,10.61478 -24.68882,10.55262 -24.625,29.41992 0.0625,18.50036 5.45117,29.34806 17.29102,34.8125 9.44433,4.35884 9.82824,4.01572 9.73438,-8.69922 -0.12093,-16.37956 4.8508,-25.53495 15.2871,-28.1543 l 3.29883,-0.82812 -4.49414,8.92773 c -4.97153,9.87792 -5.9963,19.40268 -2.5039,23.26172 2.36637,2.61483 4.69557,13.93648 4.63476,22.5293 -0.024,3.38324 -1.26156,9.45104 -2.75,13.48437 -7.10143,19.2432 -12.84626,58.50877 -11.45117,78.27735 0.94549,13.39777 -0.30151,17.52151 -9.75195,32.2539 -7.75974,12.09674 -9.43047,18.42633 -6.17774,23.39063 4.84768,7.39849 25.53357,8.06295 39.14649,1.25781 6.17494,-3.08688 8.28904,-5.02682 10.70507,-9.81836 l 3.00977,-5.9707 24.32227,-3.76367 c 29.30582,-4.53445 35.50318,-6.97527 37.97461,-14.96094 0.9078,-2.93334 2.00378,-9.36682 2.43554,-14.29688 l 0.78516,-8.96484 3.56445,2.23438 c 9.17441,5.74736 17.77205,13.43841 27.61133,24.70117 9.33556,10.68618 12.07062,12.92427 21.25195,17.38867 5.79562,2.81811 12.37445,6.59184 14.61914,8.38477 5.84756,4.67066 6.35309,5.01544 10.40039,7.10351 2.00881,1.03638 7.88859,6.25385 13.06641,11.59375 8.29526,8.55494 10.07922,9.76798 15.01367,10.21485 3.08002,0.27891 6.61829,0.61211 7.86133,0.74023 1.30243,0.13424 4.83215,-2.92618 8.33203,-7.22266 3.36163,-4.12674 6.07422,-8.84988 6.07422,-10.58007 0,-1.71921 -1.8742,-7.9165 -4.16602,-13.77149 -3.63035,-9.27466 -4.04761,-11.60818 -3.23437,-18.11719 0.84564,-6.76825 1.80114,-8.47978 10.16601,-18.1914 L 476,866.49805 l 0.0332,-12.25 c 0.0223,-8.29995 0.8278,-14.62308 2.5,-19.61719 3.85231,-11.50509 11.66077,-26.0654 15.4668,-28.83789 l 3.45898,-2.51758 -4.58203,-10.05469 c -5.89603,-12.93796 -13.23133,-35.78117 -16.66211,-51.88672 -4.34633,-20.40357 -5.88284,-38.5548 -5.3457,-63.18554 l 0.50391,-23.03321 -22.01953,-2.23437 c -22.25716,-2.25797 -34.12543,-3.22264 -46.58399,-3.25781 z m -13.71094,35.71093 c 7.71758,0 22.9568,8.73855 20.9375,12.00586 -0.45123,0.73009 -4.93477,1.32618 -9.96484,1.32618 -16.12363,0 -17.00444,1.9859 -5.36523,12.10937 8.77809,7.63495 10.41371,11.2626 4.33398,9.61523 -2.01667,-0.54643 -10.56668,-0.98539 -19,-0.9746 -14.56231,0.0187 -16.13854,0.30136 -31.33398,5.625 -8.8,3.08301 -21.9987,6.84226 -29.33204,8.35351 -20.9637,4.3202 -28.63743,6.53551 -35.90625,10.36328 -3.71901,1.95846 -7.11333,3.73223 -7.54492,3.94141 -0.43158,0.20917 -0.2716,-3.38297 0.35742,-7.98242 1.65709,-12.11694 7.59014,-23.94509 14.53321,-28.97461 7.90896,-5.72923 15.70434,-7.70697 39.70703,-10.08008 23.23216,-2.29692 36.45947,-5.40869 48.21289,-11.3418 4.34301,-2.19235 9.0083,-3.98633 10.36523,-3.98633 z m -36.03906,64.48243 c 6.35146,0.19592 13.86707,1.5982 23.625,4.08984 13.59387,3.47115 21.48072,4.75977 29.11133,4.75977 5.75631,0 10.26232,0.45 10.01367,1 -0.24864,0.55 -2.01706,4.0013 -3.92969,7.66796 -1.91261,3.66666 -6.00576,13.0739 -9.09765,20.90625 -6.74267,17.08046 -12.16366,26.01986 -16.86328,27.80665 -14.13783,5.37519 -40.66906,7.95813 -54.46094,5.30273 -5.74524,-1.10616 -13.65621,-8.7808 -17.88477,-17.34961 -1.2666,-2.56666 -6.35725,-8.80289 -11.3125,-13.85742 -5.04718,-5.14831 -8.83623,-10.13137 -8.61523,-11.33203 0.33222,-1.80494 12.02679,-8.70192 25.05469,-14.77539 1.83007,-0.85316 5.13073,-2.92436 7.33398,-4.60157 9.0905,-6.92006 16.43963,-9.94372 27.02539,-9.61718 z" />
    </g>
    <path
       style="fill:#00ffff;stroke-width:1.33333"
       d="m 385.42319,805.33335 c 7.94089,-15.10184 9.79024,-22.6325 5.5768,-22.70907 -1.28333,-0.0233 -3.49801,-0.92333 -4.92151,-2 -1.42349,-1.07668 -4.42349,-1.973 -6.66666,-1.99183 -2.24318,-0.0188 -9.1785,-1.20342 -15.41183,-2.63244 -6.23333,-1.42901 -13.37632,-2.61361 -15.87332,-2.63244 -4.37597,-0.0329 -4.45719,0.0572 -2.24801,2.49836 2.5951,2.86758 6.0817,14.76694 6.1055,20.8374 0.009,2.22018 -0.98548,5.46623 -2.2093,7.21348 l -2.22512,3.17682 7.89178,-0.77503 c 4.3405,-0.42627 10.25499,-0.37232 13.14334,0.11987 8.89456,1.51566 15.69494,1.06936 16.83833,-1.10512 z"
       id="path3506" />
    <g
       id="layer16"
       inkscape:label="04">
      <path
         style="fill:#008000;stroke-width:1.33333"
         d="m 725.36331,889.32766 c 3.88335,-0.73646 9.41101,-1.97191 12.28371,-2.74544 l 5.22308,-1.40644 -2.21896,-3.38655 c -2.82642,-4.31367 -6.5478,-15.04402 -10.79359,-31.12255 -1.91948,-7.26899 -5.30012,-15.87641 -7.93328,-20.19895 -2.52365,-4.14276 -6.30354,-12.54276 -8.39974,-18.66666 -2.09622,-6.12391 -6.30395,-17.43439 -9.35052,-25.13439 -3.04659,-7.7 -7.6549,-20.75699 -10.2407,-29.01553 -2.5858,-8.25855 -6.17862,-17.19227 -7.98405,-19.85274 -2.05884,-3.03386 -3.28261,-6.72004 -3.28261,-9.88769 0,-5.45127 -3.11319,-8.95383 -10.27876,-11.56435 -2.04668,-0.74564 -7.92124,-2.93482 -13.05458,-4.86485 -5.13333,-1.93004 -10.53333,-3.71212 -12,-3.96019 -1.46666,-0.24805 -5.36666,-1.72865 -8.66666,-3.29021 -3.3,-1.56157 -7.95,-2.85239 -10.33334,-2.86849 -2.38333,-0.0161 -4.33333,-0.5338 -4.33333,-1.15044 0,-0.61664 -3.45,-1.87823 -7.66667,-2.80352 -4.21666,-0.9253 -24.86441,-7.31738 -45.88387,-14.20462 -44.16404,-14.47079 -59.83396,-18.61196 -61.32114,-16.20567 -2.65978,4.30364 -4.46034,22.26093 -4.44542,44.33497 0.0136,20.19709 0.50745,26.20594 3.11626,37.92168 7.38934,33.18426 22.0036,62.98332 44.03096,89.78085 18.43119,22.4226 63.216,41.10064 106.16988,44.27943 10.53087,0.77933 17.99192,2.00791 36.66667,6.03769 6.97276,1.50464 22.69754,1.49166 30.69666,-0.0253 z"
         id="path3510" />
      <path
         style="fill:#008000;stroke-width:1.33333"
         d="m 195.29721,562.0426 c 7.13486,-1.80991 21.46181,-6.39182 31.83764,-10.18203 32.60105,-11.90891 41.13054,-14.62803 55.88985,-17.81715 19.33498,-4.17782 20.34074,-4.94454 22.2861,-16.98922 7.17167,-44.40341 20.23851,-84.63885 38.23099,-117.72086 42.80743,-78.70825 105.68608,-148.46796 178.20294,-197.7044 76.63976,-52.03575 158.2917,-79.78614 243.58858,-82.78649 l 24.66667,-0.86767 -6.66667,-3.50292 c -18.0696,-9.49447 -44.50159,-15.944746 -76.13576,-18.579628 -28.01989,-2.333838 -85.69161,-0.904318 -109.19757,2.706703 -38.38441,5.896675 -93.61032,20.173195 -126.66666,32.744775 -156.19401,59.40179 -274.04917,218.18636 -291.2999,392.46423 -2.05035,20.71392 -1.81867,41.5254 0.46228,41.5254 1.00596,0 7.66664,-1.48084 14.80151,-3.29074 z"
         id="path3514" />
      <path
         style="fill:#008000;stroke-width:1.33333"
         d="m 646.19883,555.00001 c -8.95405,-40.98031 -10.66973,-57.73679 -9.79524,-95.66667 0.92131,-39.96061 4.88664,-64.84292 15.74775,-98.81636 9.89507,-30.95168 21.32612,-55.23427 37.91677,-80.54528 15.21734,-23.21586 29.41102,-39.2664 60.10812,-67.9717 10.97471,-10.2626 14.9458,-16.53293 16.14827,-25.49801 0.51834,-3.86459 0.17402,-5.31685 -1.40418,-5.92247 -5.22532,-2.00514 -43.34831,9.54914 -73.42898,22.25479 -49.96043,21.10257 -89.35682,47.10723 -124.96322,82.48533 -27.19219,27.01786 -40.83096,45.10541 -59.09339,78.36885 -31.8703,58.04901 -48.73437,110.14182 -48.76021,150.61945 -0.008,11.66836 0.14803,12.34468 2.99213,13.01522 1.65,0.38901 22.5009,4.88588 46.33532,9.99304 63.02463,13.50469 108.07873,20.82613 130.49801,21.20633 l 8.5,0.14415 z"
         id="path3516" />
    </g>
    <g
       id="layer9"
       inkscape:label="05"
       style="fill:#008080">
      <path
         style="fill:#008080;stroke-width:1.33333"
         d="m 430.58029,492.33334 c 17.27772,-68.77969 32.92154,-108.14255 58.27096,-146.62103 50.12057,-76.07915 129.51036,-136.0672 222.48206,-168.11064 26.88927,-9.2676 31.36923,-10.21021 48.66667,-10.23981 16.54982,-0.0283 29.59496,1.91889 33.88857,5.05845 1.67076,1.22169 2.58311,5.18435 3.59367,15.60855 2.33629,24.09944 11.99264,38.74272 32.73681,49.64348 28.2424,14.84096 55.96662,10.73198 78.554,-11.64239 26.71713,-26.46523 26.93698,-66.26341 0.51261,-92.79935 -15.20048,-15.26467 -32.79997,-22.03266 -54.55411,-20.97909 -9.6611,0.46789 -12.61745,1.20387 -19.39822,4.82916 -4.4,2.35243 -11.38725,7.0241 -15.52723,10.38147 l -7.52722,6.10433 -23.13944,-0.14303 c -76.75155,-0.47442 -161.08351,25.28539 -235.33425,71.88452 -98.47769,61.80379 -174.30114,157.55321 -204.92623,258.77969 -4.7113,15.57244 -10.65983,40.88239 -12.27919,52.24569 l -0.90255,6.33334 32.48474,0.16561 c 26.98375,0.13757 42.08381,0.79496 52.63001,2.29127 0.86458,0.12266 4.92112,-13.49426 9.76834,-32.79022 z"
         id="path3518" />
      <path
         style="fill:#008080;stroke-width:1.33333"
         d="m 192.07414,681.55684 c 43.98275,-22.21735 75.35753,-34.5758 115.62056,-45.54263 43.91044,-11.96032 76.38689,-15.30419 138.85825,-14.29723 57.52009,0.92715 91.1643,4.7107 198.02595,22.26954 4.35175,0.71505 8.22469,0.98766 8.60655,0.6058 0.87154,-0.87155 0.68849,-10.87679 -0.74986,-40.98391 -1.24842,-26.13173 -1.28116,-26.21813 -9.94712,-26.25465 -12.55885,-0.0529 -51.49129,-6.55618 -111.82182,-18.67864 -36.3,-7.29392 -72.9,-13.97402 -81.33333,-14.84467 -22.71653,-2.34523 -76.6611,-1.99135 -100.99425,0.66255 -65.76627,7.17277 -120.62081,23.14084 -175.00574,50.94389 -27.82147,14.22308 -39.23735,21.84111 -42.59639,28.42536 -6.58247,12.90272 -6.41533,27.19677 0.49451,42.28985 4.24445,9.27112 16.4918,22.14038 25.20035,26.48003 3.71714,1.85234 6.82401,3.36788 6.90414,3.36788 0.0801,0 13.01232,-6.49942 28.7382,-14.44317 z"
         id="path3512" />
    </g>
  </g>
</svg>
