<?xml version="1.0" encoding="UTF-8" standalone="no"?>
<!-- Created with Inkscape (http://www.inkscape.org/) -->

<svg
   version="1.1"
   id="svg488955"
   width="800"
   height="800"
   viewBox="0 0 800 800"
   sodipodi:docname="penguin-mascot-publicdomainvectors.org.svg"
   inkscape:version="1.2 (dc2aedaf03, 2022-05-15)"
   xmlns:inkscape="http://www.inkscape.org/namespaces/inkscape"
   xmlns:sodipodi="http://sodipodi.sourceforge.net/DTD/sodipodi-0.dtd"
   xmlns="http://www.w3.org/2000/svg"
   xmlns:svg="http://www.w3.org/2000/svg">
  <defs
     id="defs488959">
    <clipPath
       clipPathUnits="userSpaceOnUse"
       id="clipPath488971">
      <path
         d="M 0,600 H 600 V 0 H 0 Z"
         id="path488969" />
    </clipPath>
  </defs>
  <sodipodi:namedview
     id="namedview488957"
     pagecolor="#ffffff"
     bordercolor="#000000"
     borderopacity="0.25"
     inkscape:showpageshadow="2"
     inkscape:pageopacity="0.0"
     inkscape:pagecheckerboard="0"
     inkscape:deskcolor="#d1d1d1"
     showgrid="false"
     inkscape:zoom="1.04625"
     inkscape:cx="400"
     inkscape:cy="400.4779"
     inkscape:window-width="1920"
     inkscape:window-height="1017"
     inkscape:window-x="-8"
     inkscape:window-y="-8"
     inkscape:window-maximized="1"
     inkscape:current-layer="g488963">
    <inkscape:page
       x="0"
       y="0"
       id="page488961"
       width="800"
       height="800" />
  </sodipodi:namedview>
  <g
     id="g488963"
     inkscape:groupmode="layer"
     inkscape:label="Page 1"
     transform="matrix(1.3333333,0,0,-1.3333333,0,800)">
    <g
       id="g488965">
      <g
         id="g488967"
         clip-path="url(#clipPath488971)">
        <g
           id="g488973"
           transform="translate(285.1172,445.1436)">
          <path
             d="M 0,0 C -0.037,2.388 -5.943,1.761 -9.246,1.026 -2.348,-4.036 0.045,-2.862 0,0 m 98.472,-192.21 c -9.202,26.73 -28.362,52.312 -43.898,62.187 1.51,-8.81 3.142,-23.53 4.288,-34.825 21.612,-9.552 41.66,-62.826 47.873,-58.266 0.365,4.904 -3.524,17.135 -8.263,30.904 m -153.511,65.712 c -0.072,-0.068 -0.143,-0.139 -0.215,-0.208 -26.407,-25.325 -48.075,-74.728 -44.882,-94.423 6.01,6.745 16.003,27.396 27.356,41.995 0.076,0.1 0.155,0.197 0.232,0.296 4.743,6.056 9.719,11.027 14.738,13.474 -0.138,19.742 2.771,38.866 2.771,38.866 m 14.705,-59.147 c 2.074,-61.284 22.9,-110.337 46.518,-109.565 23.617,0.772 41.081,51.079 39.006,112.362 -2.073,61.285 -22.899,110.339 -46.517,109.568 -23.618,-0.774 -41.082,-51.08 -39.007,-112.365 m -14.92,58.939 c 0.103,5.757 0.359,11.231 0.826,16.431 1.973,4.022 -0.024,13.283 6.454,26.024 7.604,17.61 27.932,32.029 40.672,33.233 17.33,1.64 38.684,-0.005 56.08,-48.775 0.267,-2.401 1.287,-4.753 2.354,-6.424 1.162,-6.474 2.095,-13.333 2.825,-20.514 -0.181,0.86 -0.357,1.615 -0.531,2.24 0,0 2.355,-46.685 2.355,-61.337 0.022,-0.026 0.043,-0.045 0.064,-0.069 -0.021,-0.919 -0.04,-1.838 -0.064,-2.762 -0.027,-1.028 -0.055,-2.056 -0.086,-3.08 -4.195,-62.938 -21.84,-129.657 -33.814,-131.008 -13.764,-1.555 -12.596,12.071 -15.762,14.65 1.332,-12.43 -9.297,-17.425 -13.765,-12.876 -29.394,29.944 -40.418,89.294 -44.383,127.837 l -3.01,66.638 c -0.072,-0.068 -0.143,-0.139 -0.215,-0.208 M 17.885,-7.837 c -0.444,-6.835 -16.437,0.07 -14.153,-12.654 2.332,-12.988 21.805,-3.554 20.029,1.331 -2.279,5.88 -4.892,12.572 -6.634,15.259 0.554,-1.417 0.834,-2.756 0.758,-3.936 m -85.249,9.768 c 0.001,10e-4 0.002,10e-4 0.003,10e-4 h -0.003 V 1.931 m 15.207,-4.39 c 0.343,-0.273 0.708,-0.552 1.084,-0.837 -5.349,3.041 -10.545,5.203 -14.274,5.367 16.7,0.647 46.859,-10.375 47.711,-13.572 0.888,-3.33 -24.21,8.929 -34.521,9.042"
             style="fill:#bcbdbd;fill-opacity:1;fill-rule:nonzero;stroke:none"
             id="path488975" />
        </g>
        <g
           id="g488977"
           transform="translate(392.792,223.4072)">
          <path
             d="m 0,0 c -0.265,-0.67 -0.58,-1.114 -0.94,-1.378 -6.212,-4.559 -26.261,48.715 -47.871,58.267 -1.148,11.295 -2.779,26.015 -4.29,34.824 -0.209,1.22 -0.415,2.325 -0.617,3.292 -0.18,0.862 -0.357,1.616 -0.53,2.241 0,0 2.354,-46.685 2.354,-61.337 0.022,-0.025 0.043,-0.046 0.064,-0.07 0.064,-0.072 0.128,-0.142 0.19,-0.204 -0.101,-1.875 -0.214,-3.755 -0.339,-5.638 -4.196,-62.937 -21.84,-129.656 -33.815,-131.009 -13.764,-1.553 -12.596,12.073 -15.762,14.653 1.332,-12.432 -9.296,-17.428 -13.765,-12.876 -29.394,29.941 -40.417,89.293 -44.383,127.836 l -3.01,66.638 c 0,0 -2.909,-19.124 -2.77,-38.867 -5.02,-2.446 -9.995,-7.418 -14.739,-13.474 -0.078,-0.098 -0.155,-0.197 -0.232,-0.295 -11.353,-14.6 -21.346,-35.25 -27.356,-41.995 -2.273,-2.55 -3.977,-3.119 -4.968,-0.608 -9.213,35.076 41.586,99.963 50.182,110.668 0.19,0.236 0.352,0.502 0.495,0.793 1.972,4.022 -0.025,13.284 6.454,26.024 7.604,17.611 27.931,32.03 40.672,33.234 17.33,1.639 38.683,-0.006 56.079,-48.776 0.267,-2.401 1.289,-4.752 2.354,-6.424 0.505,-0.793 1.02,-1.434 1.469,-1.853 C -50.079,109.003 13.319,34.965 0,0 m -107.675,221.736 c 0.046,-2.862 -2.347,-4.036 -9.245,1.028 3.302,0.733 9.208,1.361 9.245,-1.028 m 95.84,-149.73 c -27.056,49.162 -26.928,62.148 -43.997,77.011 -3.965,7.397 -10.092,32.562 -28.082,53.559 1.776,-4.885 -17.697,-14.318 -20.028,-1.332 -2.284,12.726 13.709,5.82 14.152,12.655 0.077,1.179 -0.204,2.519 -0.758,3.936 -2.653,6.793 -11.729,15.405 -19.444,17.136 -9.324,2.09 -25.253,0.477 -30.081,-7.418 -12.988,0.166 -33.634,5.327 -34.966,-3.886 v 0.001 h 0.003 c 0.645,0.068 1.319,0.113 2.014,0.14 16.7,0.645 46.859,-10.375 47.712,-13.572 0.888,-3.331 -24.21,8.928 -34.522,9.041 0.343,-0.272 0.708,-0.552 1.084,-0.837 7.141,-5.39 20.046,-12.912 25.002,-22.19 1.668,-3.124 4.495,-12.155 2.164,-15.151 -1.979,-2.545 -18.068,-19.135 -23.771,-30.464 -17.454,-9.665 -17.752,-28.042 -45.592,-78.629 -10.961,-19.916 -21.742,-55.976 -18.272,-88.656 1.076,-10.138 4.884,-20.868 10.545,-24.865 4.96,-3.501 4.013,9.792 10.545,34.41 2.731,10.293 15.201,46.897 32.708,59.702 0.009,-0.331 0.018,-0.663 0.03,-0.994 -2.718,-20.26 -9.71,-89.116 38.524,-152.615 2.032,-2.163 5.107,-3.762 8.779,-4.884 0.35,-4.038 -0.635,-8.581 -3.443,-10.699 -1.408,-1.062 -14.202,-4.833 -15.188,-7.003 -0.987,-2.169 -3.001,-4.436 -1.825,-6.164 2.747,2.831 3.304,4.439 6.263,4.439 2.958,0 5.967,1.133 6.115,-1.529 0.148,-2.664 -1.726,-3.945 -0.247,-4.686 1.924,1.184 3.009,4.833 8.877,5.623 4.235,0.568 6.953,-1.332 7.397,-3.256 0.444,-1.923 2.071,-3.254 2.071,-3.254 0,0 0.591,3.55 2.071,5.178 1.479,1.628 5.325,4.608 1.479,6.51 -4.655,2.301 -8.121,8.817 -7.505,13.484 6.127,-0.952 13.048,-0.952 19.349,-0.248 0.893,-4.687 -2.643,-11.531 -7.438,-13.902 -3.846,-1.901 0,-4.882 1.478,-6.509 1.48,-1.629 2.071,-5.179 2.071,-5.179 0,0 1.628,1.332 2.073,3.255 0.442,1.924 3.16,3.823 7.396,3.255 5.868,-0.79 6.953,-4.439 8.876,-5.623 1.48,0.741 -0.393,2.022 -0.246,4.686 0.147,2.662 3.156,1.529 6.114,1.529 2.96,0 3.518,-1.608 6.264,-4.439 1.175,1.728 -0.838,3.995 -1.825,6.164 -0.986,2.17 -13.781,5.941 -15.188,7.003 -2.811,2.12 -3.795,6.669 -3.443,10.71 6.021,1.216 10.82,3.117 12.734,5.416 9.847,11.828 37.884,84.5 25.621,154.314 17.94,-12.238 30.758,-49.83 33.532,-60.284 6.532,-24.618 5.586,-37.911 10.545,-34.41 5.662,3.997 9.468,14.727 10.545,24.865 3.471,32.68 -7.312,68.74 -18.272,88.656"
             style="fill:#110f0d;fill-opacity:1;fill-rule:nonzero;stroke:none"
             id="path488979" />
        </g>
      </g>
    </g>
  </g>
</svg>
