<?xml version="1.0" encoding="UTF-8" standalone="no"?>
<!-- Created with Inkscape (http://www.inkscape.org/) -->

<svg
   version="1.1"
   id="svg1"
   width="510.32718"
   height="490.09842"
   viewBox="0 0 510.32718 490.09842"
   sodipodi:docname="lb4.svg"
   inkscape:version="1.3.2 (091e20ef0f, 2023-11-25)"
   xmlns:inkscape="http://www.inkscape.org/namespaces/inkscape"
   xmlns:sodipodi="http://sodipodi.sourceforge.net/DTD/sodipodi-0.dtd"
   xmlns="http://www.w3.org/2000/svg"
   xmlns:svg="http://www.w3.org/2000/svg">
  <defs
     id="defs1" />
  <sodipodi:namedview
     id="namedview1"
     pagecolor="#ffffff"
     bordercolor="#000000"
     borderopacity="0.25"
     inkscape:showpageshadow="2"
     inkscape:pageopacity="0.0"
     inkscape:pagecheckerboard="0"
     inkscape:deskcolor="#d1d1d1"
     showgrid="false"
     inkscape:zoom="1.5333333"
     inkscape:cx="247.5"
     inkscape:cy="187.5"
     inkscape:window-width="1920"
     inkscape:window-height="1011"
     inkscape:window-x="0"
     inkscape:window-y="0"
     inkscape:window-maximized="1"
     inkscape:current-layer="layer2" />
  <g
     inkscape:groupmode="layer"
     id="layer2"
     inkscape:label="Layer 1">
    <path
       style="fill:#000000"
       d="m 88.976077,506.38335 c -4.384067,-1.48309 -8.997212,-6.63422 -7.030105,-7.84996 0.455016,-0.28121 1.138812,-2.17179 1.519547,-4.20128 0.498256,-2.65594 2.462913,-5.53141 7.010831,-10.26105 3.475222,-3.61408 6.974455,-8.1573 7.776073,-10.09604 0.801618,-1.93874 4.042467,-5.76374 7.201887,-8.5 13.16409,-11.40094 12.45626,-10.36972 11.83331,-17.23968 -0.50989,-5.62315 -0.20747,-6.92091 3.7118,-15.92863 2.3468,-5.39369 4.60404,-10.25671 5.0161,-10.80671 0.41206,-0.55 4.15679,-7.65955 8.32161,-15.79899 4.16483,-8.13944 8.91369,-16.49249 10.55302,-18.56231 1.79953,-2.2721 6.22122,-5.50751 11.15873,-8.16501 4.49797,-2.42092 8.39174,-4.95836 8.65283,-5.63874 0.42641,-1.11122 -3.16441,-11.50935 -5.85762,-16.96221 -1.09707,-2.22119 -12.35458,-5.5506 -35.34409,-10.45301 -14.7418,-3.14361 -15.1953,-3.46883 -24.010578,-17.21866 -8.550298,-13.33651 -10.516029,-25.53333 -5.716247,-35.46773 1.097726,-2.27203 1.747831,-4.379 1.444678,-4.68215 C 94.128354,287.46169 83.389174,288.05348 78,289.5 70.733875,291.45031 67.457647,291.37797 65.288955,289.21935 60.954021,284.90454 58.731983,284.57084 49.59496,286.86247 44.907539,288.03811 40.021092,289 38.736188,289 c -1.284903,0 -2.861436,0.52525 -3.503405,1.16722 -0.889624,0.88962 -1.283489,0.83016 -1.656108,-0.25 -0.894162,-2.59204 -1.090433,-15.92176 -0.234404,-15.91947 0.463249,10e-4 1.986435,-0.89775 3.384858,-1.99775 2.010216,-1.58124 4.032372,-1.995 9.65773,-1.97614 3.913327,0.0131 8.915141,0.46488 11.115141,1.00392 2.2,0.53903 7.15,1.23558 11,1.54787 3.85,0.3123 12.004182,1.66054 18.120405,2.99608 C 92.736628,276.90728 98.69267,278 99.856054,278 c 1.163386,0 4.207366,0.55956 6.764396,1.24346 5.89715,1.57725 9.03727,5.53766 10.45001,13.17987 1.01448,5.48783 0.18458,17.22907 -1.65517,23.41704 l -0.69582,2.34037 16.05882,-0.34037 c 8.83235,-0.1872 16.40051,-0.6829 16.81812,-1.10156 0.41761,-0.41865 -0.17198,-2.44365 -1.31021,-4.5 -2.82088,-5.09628 -18.76226,-53.93856 -20.64018,-63.23881 -1.74701,-8.65193 -3.82812,-33.70347 -4.07196,-49.01655 -0.0921,-5.7841 -0.48096,-11.0238 -0.86412,-11.64377 -0.38317,-0.61996 -0.0247,-2.73556 0.7967,-4.70133 0.82135,-1.96576 1.49336,-5.21187 1.49336,-7.21358 0,-7.14309 7.91072,-39.71794 12.47083,-51.35251 3.16104,-8.06502 4.17964,-11.7885 3.46156,-12.65372 -0.55961,-0.67429 -3.47333,-2.71439 -6.47493,-4.53355 -5.31533,-3.22142 -5.45792,-3.42577 -5.475,-7.84628 -0.0172,-4.443452 -0.18611,-4.679814 -8.04878,-11.261825 -4.41718,-3.697713 -10.50234,-8.197713 -13.52258,-10 -3.36187,-2.006149 -5.717766,-4.173505 -6.075226,-5.589027 -0.773434,-3.062749 2.285606,-8.643937 6.508626,-11.874945 2.87135,-2.196852 3.99393,-2.469841 7.93504,-1.929652 7.74125,1.061056 8.96899,2.398734 21.53271,23.460739 2.77116,4.645624 3.96504,5.654347 9.13563,7.71879 3.27133,1.306134 5.99503,2.276334 6.05266,2.156 2.54511,-5.314279 21.16845,-28.184541 29.12658,-35.768699 13.11159,-12.495445 25.63608,-21.501963 36.87612,-26.518075 16.04957,-7.162468 27.43527,-9.919959 49.27904,-11.934833 15.69118,-1.447359 17.39521,-1.332016 20.55804,1.391541 1.66745,1.435871 1.94925,1.437894 3,0.02153 1.94076,-2.616048 5.30923,-2.847064 20.53741,-1.408495 17.85706,1.686913 24.27721,2.836936 34.62227,6.20179 26.7978,8.716305 46.6435,23.573504 69.18781,51.796447 4.39336,5.5 8.49582,10.9 9.11657,12 2.68847,4.764075 2.62659,4.741767 7.29256,2.629152 2.42168,-1.096468 5.11925,-2.207593 5.99458,-2.469167 0.87534,-0.261575 4.2485,-5.127455 7.49592,-10.813068 3.24741,-5.685613 7.18074,-11.791172 8.74074,-13.567909 2.81037,-3.200834 7.85061,-5.287653 12.67182,-5.24653 3.42861,0.02924 8.74264,4.676809 10.92762,9.557117 2.24136,5.006231 1.57817,6.131733 -6.46798,10.976873 -3.15644,1.900708 -9.02069,6.263316 -13.03167,9.694683 -7.08609,6.062106 -7.29461,6.371363 -7.36033,10.916453 -0.0673,4.65138 -0.10266,4.69855 -6.31764,8.417 -3.4375,2.05667 -6.42141,3.87316 -6.63092,4.03665 -0.20951,0.16349 1.68394,5.60084 4.20765,12.083 4.66873,11.99166 10.95348,37.2214 12.6966,50.96979 0.52959,4.17693 1.35102,8.09427 1.82542,8.70519 0.93336,1.20198 0.79029,23.76777 -0.16045,25.30609 -0.31793,0.51442 -1.06969,7.65592 -1.67059,15.87 -0.60089,8.21407 -1.58426,17.85968 -2.18526,21.43468 -1.40506,8.35789 -17.88439,59.54085 -20.89497,64.89745 -1.26125,2.2441 -1.97381,4.39955 -1.58347,4.7899 1.1943,1.19429 30.67294,1.6857 31.82807,0.53057 0.71172,-0.71172 0.63585,-2.23075 -0.24354,-4.87586 -2.0867,-6.27655 -1.74632,-21.08846 0.59356,-25.82886 2.49229,-5.04918 7.08354,-8.13109 12.42502,-8.34039 2.28781,-0.0896 8.52088,-1.11157 13.85127,-2.27095 5.33038,-1.15937 13.74161,-2.47964 18.69161,-2.93391 4.95,-0.45428 10.57203,-1.30791 12.4934,-1.89696 1.92137,-0.58904 7.01848,-1.07099 11.32692,-1.07099 7.32477,0 8.02337,0.18984 10.7566,2.92308 2.98674,2.98674 3.27098,3.9639 2.93114,10.07692 -0.36971,6.65049 -3.21544,7.36038 -15.94043,3.97646 C 516.31919,284.11817 513.40841,284.30955 511.5,288 c -1.80872,3.49767 -3.8305,3.73406 -13,1.52 -6.14374,-1.48346 -16.67281,-2.01386 -17.79049,-0.89618 -0.3431,0.3431 0.36161,2.4806 1.56603,4.75 1.72046,3.24175 2.19355,5.84095 2.20715,12.12618 0.0157,7.26584 -0.32728,8.68827 -3.73763,15.5 -5.68609,11.3572 -11.45785,19.283 -15.60353,21.42681 -1.46675,0.75849 -7.38612,2.36883 -13.15417,3.57855 -5.76805,1.20972 -14.31236,3.22731 -18.98736,4.48352 -4.675,1.25622 -9.7375,2.5687 -11.25,2.91663 -1.5125,0.34793 -2.75,1.29902 -2.75,2.11354 0,0.81452 -0.60377,1.48095 -1.34171,1.48095 -0.73794,0 -1.91308,1.9125 -2.61142,4.25 -0.69833,2.3375 -2.1148,5.91025 -3.14771,7.93944 l -1.87801,3.68943 2.73942,1.90639 c 1.50669,1.04851 5.57243,3.39938 9.03497,5.22416 3.52384,1.85708 7.65593,5.0354 9.38547,7.21912 1.69946,2.14574 8.66058,15.00962 15.46915,28.5864 L 459.0294,440.5 l -0.14317,7.48811 -0.14316,7.48812 3.83886,3.01188 c 7.88549,6.1868 13.74597,12.10999 15.0561,15.21724 0.74333,1.76295 4.05848,6.03795 7.367,9.5 4.31805,4.51843 6.43587,7.68622 7.50524,11.22615 0.81935,2.71233 1.48973,5.4402 1.48973,6.06194 0,2.25997 -6.14326,5.67329 -11.02723,6.12696 l -4.88251,0.45354 -4.29513,-8.78697 c -3.77621,-7.72536 -4.71799,-8.92141 -7.79513,-9.89971 -4.46016,-1.41799 -6.84898,-4.94996 -11.54505,-17.06984 -3.31125,-8.54585 -4.5257,-10.45735 -10.14375,-15.96586 -3.51018,-3.44174 -7.25999,-8.24222 -8.33291,-10.66774 -2.62174,-5.92688 -5.69631,-19.48788 -6.50801,-28.70492 -0.3643,-4.1366 -1.18164,-8.22919 -1.81632,-9.09463 -0.7533,-1.0272 -3.41081,-1.76697 -7.65396,-2.13064 -3.575,-0.30641 -8.71781,-1.5579 -11.42846,-2.7811 -2.71291,-1.22422 -7.15875,-2.27986 -9.88971,-2.34827 l -4.96126,-0.12426 -4.23096,5.99593 c -6.37447,9.03363 -11.3582,11.18885 -19.39475,8.38729 -2.75501,-0.9604 -3.40157,-0.85538 -4.61742,0.75 -0.77761,1.02673 -1.42814,3.06678 -1.44564,4.53345 -0.0175,1.46666 -0.41505,2.81666 -0.88347,3 C 362.26528,422.51228 360.78466,438 361.63467,438 c 0.26424,0 2.36704,-1.05311 4.67289,-2.34025 2.30584,-1.28714 5.99244,-2.92395 8.19244,-3.63737 2.2,-0.71342 5.8,-2.09125 8,-3.06185 5.34371,-2.35755 9.88781,-3.08206 14.6023,-2.32818 L 401,427.25562 v 5.2904 c 0,6.81999 -0.68576,8.45398 -3.54797,8.45398 -1.2837,0 -2.61211,0.45 -2.95203,1 -0.33992,0.55 -1.68992,1 -3,1 -1.31008,0 -2.61939,0.38416 -2.90958,0.85369 -0.29018,0.46953 -4.68801,1.42224 -9.77296,2.11713 -5.08494,0.69489 -10.16613,1.86675 -11.29153,2.60414 -4.0155,2.63106 -18.96852,5.52793 -31.52593,6.10757 -6.875,0.31734 -12.96398,0.94192 -13.53106,1.38797 -0.56708,0.44604 -2.14208,1.02469 -3.5,1.28588 -1.35792,0.2612 -4.26894,1.29822 -6.46894,2.30449 -3.41507,1.56205 -6.7053,1.83029 -22.5,1.83436 -17.90561,0.005 -18.71036,-0.0832 -25.0473,-2.73277 -5.66969,-2.37058 -7.65418,-2.6969 -14.80496,-2.4344 -4.5417,0.16672 -8.48447,-0.0639 -8.76171,-0.51247 -0.27724,-0.44857 -1.49001,-0.81967 -2.69505,-0.82465 -3.57715,-0.0148 -23.59865,-4.79839 -26.82966,-6.41024 -1.64213,-0.8192 -6.67021,-2.01692 -11.17351,-2.66159 -4.5033,-0.64467 -8.63781,-1.51432 -9.18781,-1.93256 -0.55,-0.41823 -2.871,-1.06884 -5.15777,-1.4458 -6.4384,-1.06133 -7.63378,-2.42328 -8.12838,-9.26103 l -0.4332,-5.98903 3.87785,-0.62009 c 5.12473,-0.81948 10.72019,0.1319 16.8415,2.8635 2.75,1.22717 6.09492,2.56551 7.43315,2.97408 1.33824,0.40857 4.44276,1.81137 6.89894,3.11734 2.45618,1.30596 4.73627,2.37455 5.06685,2.37462 0.33058,8e-5 0.44123,-3.85291 0.24589,-8.56221 -0.28285,-6.81894 -0.86021,-9.46597 -2.8355,-13.00015 C 213.94516,413.997 212.63569,412 212.39941,412 c -0.23628,0 -3.1184,0.74755 -6.4047,1.66123 -9.95188,2.76686 -14.06883,0.50441 -22.99471,-12.63665 -1.30004,-1.91397 -2.13307,-2.13575 -6.24901,-1.6637 -2.61196,0.29956 -6.88696,1.51013 -9.5,2.69015 -2.61304,1.18002 -7.67599,2.38483 -11.25099,2.67735 -3.575,0.29251 -7.00504,0.93071 -7.62231,1.41821 -0.61727,0.48749 -1.44017,4.59144 -1.82865,9.11988 -0.88731,10.34297 -2.82669,19.72785 -5.619,27.19096 -1.61754,4.32327 -3.89349,7.53513 -8.95378,12.63574 -4.62644,4.6633 -7.33609,8.36091 -8.51739,11.62291 -3.04564,8.41006 -7.70801,18.2458 -9.25919,19.53316 -0.82699,0.68634 -2.89773,1.69854 -4.60165,2.24933 -2.57572,0.83259 -3.8567,2.51878 -7.59803,10.00143 -4.997271,9.99454 -5.637541,10.3821 -13.023923,7.88335 z"
       id="path1"
       transform="translate(-32.793297,-17.577024)" />
    <path
       id="path20"
       style="fill:#ff0000"
       d="M 278.89291 20.133665 C 276.9269 20.002856 274.30617 20.181334 270.80306 20.411008 C 251.62012 21.668702 236.07381 25.402394 220.50033 32.49304 C 202.30406 40.777843 183.38214 56.805867 165.59603 79.000852 C 157.53343 89.062038 149.00033 101.14143 149.00033 102.49304 C 149.00033 102.74282 147.46881 106.09227 145.59798 109.9364 C 138.46918 124.58452 132.94391 140.76448 128.98666 158.57312 C 126.35581 170.41259 125.178 177.85912 125.51791 180.50085 C 125.80097 182.70085 125.67696 188.59525 125.24447 193.60046 C 124.81199 198.60569 124.7699 204.21687 125.14877 206.06921 C 125.52762 207.92155 125.49612 210.12522 125.08041 210.96765 C 124.04001 213.0762 125.65132 234.75332 127.57259 244.50085 C 129.63167 254.94749 145.4619 303.20092 148.73275 309.00085 C 150.12851 311.47585 152.38406 314.9993 153.74642 316.83093 L 156.22494 320.16101 L 158.13314 317.02038 C 159.18353 315.29317 161.60012 313.22922 163.50228 312.43445 C 165.40444 311.63968 167.64723 309.94215 168.48666 308.66101 C 169.32609 307.37987 171.24752 305.69341 172.75619 304.91491 C 174.26486 304.13644 178.20014 301.34233 181.50033 298.70593 C 184.80051 296.06952 190.42533 292.53131 194.00033 290.84265 C 197.57531 289.15399 201.62533 286.99542 203.00033 286.04577 C 204.37533 285.09612 209.55033 283.09965 214.50033 281.61023 C 219.45031 280.12082 226.87533 277.61138 231.00033 276.0321 C 239.27413 272.86446 251.08594 270.00085 255.87533 270.00085 C 260.70292 270.00085 273.02504 268.0292 278.13509 266.44031 C 280.68391 265.64779 283.6924 265.00085 284.82064 265.00085 C 286.80072 265.00085 286.86801 264.48832 286.77572 250.25085 C 286.72312 242.13837 287.0796 233.70085 287.56869 231.50085 C 289.01674 224.98728 287.93006 91.755569 286.22298 66.500852 C 285.59099 57.15087 285.00833 43.69029 284.92806 36.590696 C 284.78228 23.696799 284.79092 20.526088 278.89291 20.133665 z M 298.90658 20.225462 C 294.33462 20.11436 293.69995 20.640971 291.36166 22.715696 L 288.22298 25.500852 L 289.08236 49.000852 C 289.55434 61.925826 290.46723 77.675864 291.11166 84.000852 C 292.66861 99.282253 292.46445 222.22376 290.85775 237.00085 C 290.19011 243.14129 290.01657 251.07806 290.43783 256.11804 L 291.15853 264.73718 L 296.32845 265.27429 C 299.17262 265.57016 304.91232 267.1698 309.08236 268.82898 C 313.84358 270.7234 319.42399 272.07953 324.08236 272.47351 C 333.41735 273.26303 345.15027 275.78326 351.00033 278.25671 C 353.47533 279.30317 358.20033 281.08059 361.50033 282.20593 C 364.80031 283.33127 369.00219 285.37431 370.83822 286.74499 C 372.67425 288.11567 377.78601 290.99932 382.19759 293.15515 C 386.60918 295.31099 390.79563 297.65162 391.50033 298.35632 C 392.20502 299.06102 395.90632 301.52642 399.72689 303.83484 C 403.54745 306.14324 409.55916 310.72409 413.08627 314.01257 C 416.61336 317.30106 419.95033 319.84525 420.50033 319.66687 C 421.05033 319.4885 421.95033 318.47734 422.50033 317.42077 C 423.05033 316.36422 425.00273 312.90129 426.83822 309.72546 C 429.88484 304.45412 445.55609 258.40766 447.97103 247.63171 C 450.04758 238.36578 451.0551 223.84903 451.2015 201.11609 L 451.35384 177.50085 L 447.14681 159.00085 C 443.17983 141.55923 437.26157 123.86233 432.99838 116.69616 C 431.95284 114.93869 429.68236 110.80085 427.95345 107.50085 C 426.22455 104.20087 424.17722 100.78908 423.40463 99.920774 C 422.63202 99.052469 422.00033 97.561669 422.00033 96.606321 C 422.00033 93.930249 420.32513 91.313481 411.68978 80.500852 C 393.03776 57.146011 374.09024 40.957068 355.50033 32.49304 C 339.80999 25.349196 323.85112 21.563139 305.00033 20.514524 C 302.39244 20.369455 300.43056 20.262494 298.90658 20.225462 z M 251.00033 37.000852 C 262.85531 37.000852 272.13295 42.808268 277.37338 53.510618 C 282.5676 64.118609 280.27629 77.869116 271.8558 86.623899 C 263.75448 95.046847 248.78049 97.639351 238.50033 92.39929 C 227.62143 86.854031 222.00033 77.861788 222.00033 66.000852 C 222.00033 49.314739 234.3142 37.000852 251.00033 37.000852 z M 348.00033 48.000852 C 359.85531 48.000852 369.13295 53.808268 374.37338 64.510618 C 379.5676 75.118609 377.27629 88.869116 368.8558 97.623899 C 360.75448 106.04685 345.78049 108.63935 335.50033 103.39929 C 324.62143 97.854035 319.00033 88.861788 319.00033 77.000852 C 319.00033 60.314739 331.3142 48.000852 348.00033 48.000852 z M 178.00033 102.00085 C 189.85531 102.00085 199.13295 107.80827 204.37338 118.51062 C 209.5676 129.11861 207.27629 142.86912 198.8558 151.6239 C 190.75448 160.04685 175.78049 162.63935 165.50033 157.39929 C 154.62143 151.85405 149.00033 142.86179 149.00033 131.00085 C 149.00033 114.31474 161.3142 102.00085 178.00033 102.00085 z M 344.00033 130.00085 C 355.85531 130.00085 365.13295 135.80827 370.37338 146.51062 C 375.5676 157.11861 373.27629 170.86912 364.8558 179.6239 C 356.75448 188.04685 341.78049 190.63935 331.50033 185.39929 C 320.62143 179.85405 315.00033 170.86179 315.00033 159.00085 C 315.00033 142.31474 327.3142 130.00085 344.00033 130.00085 z M 241.00033 144.00085 C 252.85531 144.00085 262.13295 149.80827 267.37338 160.51062 C 272.5676 171.11861 270.27629 184.86912 261.8558 193.6239 C 253.75448 202.04685 238.78049 204.63935 228.50033 199.39929 C 217.62143 193.85405 212.00033 184.86179 212.00033 173.00085 C 212.00033 156.31474 224.3142 144.00085 241.00033 144.00085 z M 413.00033 154.00085 C 424.85531 154.00085 434.13295 159.80827 439.37338 170.51062 C 444.5676 181.11861 442.27629 194.86912 433.8558 203.6239 C 425.75448 212.04685 410.78049 214.63935 400.50033 209.39929 C 389.62143 203.85405 384.00033 194.86179 384.00033 183.00085 C 384.00033 166.31474 396.3142 154.00085 413.00033 154.00085 z M 175.00033 225.00085 C 186.85531 225.00085 196.13295 230.80827 201.37338 241.51062 C 206.5676 252.11861 204.27629 265.86912 195.8558 274.6239 C 187.75448 283.04685 172.78049 285.63935 162.50033 280.39929 C 151.62143 274.85405 146.00033 265.86179 146.00033 254.00085 C 146.00033 237.31474 158.3142 225.00085 175.00033 225.00085 z M 398.00033 230.00085 C 409.85531 230.00085 419.13295 235.80827 424.37338 246.51062 C 429.5676 257.11861 427.27629 270.86912 418.8558 279.6239 C 410.75448 288.04685 395.78049 290.63935 385.50033 285.39929 C 374.62143 279.85405 369.00033 270.86179 369.00033 259.00085 C 369.00033 242.31474 381.3142 230.00085 398.00033 230.00085 z "
       transform="translate(-32.793297,-17.577024)" />
    <path
       id="path34"
       style="fill:#ffffff"
       d="M 287.31088 268.10827 C 284.51281 268.1843 282.64947 268.6761 279.81478 269.77429 C 276.89153 270.90679 271.57532 272.15657 268.00033 272.55163 C 264.42533 272.94669 259.02533 273.54729 256.00033 273.88562 L 250.50033 274.50085 L 256.00033 276.66882 C 259.02533 277.86164 264.20033 279.59697 267.50033 280.52624 C 270.80032 281.45551 274.62533 282.59718 276.00033 283.06335 C 277.37533 283.52953 288.40034 283.8192 300.50033 283.70593 L 322.50033 283.50085 L 327.32845 280.66101 C 329.98412 279.10002 331.99879 277.66532 331.80502 277.47156 C 331.61125 277.27779 327.63881 276.64525 322.97689 276.06531 C 315.14782 275.09135 304.23913 271.69549 302.95345 269.83288 C 302.65332 269.39805 298.52145 268.74499 293.76986 268.37976 C 291.00528 268.16725 288.98972 268.06266 287.31088 268.10827 z M 167.50228 316.03796 C 163.42309 316.02198 162.7748 316.4822 161.66048 318.07312 C 160.79258 319.31223 160.37397 320.79579 160.72884 321.36999 C 161.08372 321.94419 161.62814 330.38447 161.93783 340.12585 L 162.50033 357.83679 L 170.00033 372.50671 C 174.12532 380.57475 179.89117 390.17453 182.81478 393.83874 C 185.73839 397.50296 189.02436 401.93902 190.11556 403.69812 C 191.20676 405.45722 192.97647 407.17602 194.04916 407.51648 C 195.12185 407.85694 196.00033 408.74117 196.00033 409.48327 C 196.00033 412.24829 200.34792 412.64452 205.97884 410.39148 C 209.16366 409.11717 210.00033 408.266 210.00033 406.29577 C 210.00033 403.24164 213.35517 398.33869 216.02572 397.49109 C 217.11139 397.14651 220.02529 394.37906 222.50033 391.3407 L 227.00033 385.81726 L 227.00033 372.55749 C 227.00033 365.265 226.49852 357.76887 225.88509 355.89929 C 222.03252 344.15771 215.08162 334.69482 207.36361 330.68054 C 205.78821 329.86115 203.40987 328.02186 202.0765 326.5946 C 200.74312 325.16735 199.10467 324.00085 198.43588 324.00085 C 197.76709 324.00085 193.90753 322.32497 189.8597 320.2782 C 183.16907 316.89511 181.62427 316.5234 172.86947 316.18835 C 170.60266 316.1016 168.86201 316.04329 167.50228 316.03796 z M 411.59994 320.58288 C 411.03411 320.56724 410.41982 320.5974 409.75814 320.67273 C 395.7217 322.27072 370.92584 332.46869 367.6683 337.98327 C 366.75041 339.53713 366.00033 342.11839 366.00033 343.7196 C 366.00033 345.3208 364.42533 351.48947 362.50033 357.42859 C 358.58647 369.50385 358.34048 372.30649 360.57064 379.50085 C 363.57585 389.19547 367.00033 403.0535 367.00033 405.52624 C 367.00033 407.27609 367.97752 408.62486 370.25033 410.01062 C 375.42031 413.16281 377.8336 412.60035 383.06869 407.02429 C 385.63775 404.2879 388.00893 400.70197 388.33822 399.05554 C 388.6675 397.40912 389.80607 395.26179 390.86752 394.2821 C 391.92895 393.30241 393.85552 391.53835 395.14877 390.36413 C 396.442 389.18991 399.75033 383.78991 402.50033 378.36413 C 405.25033 372.93836 407.77394 368.27585 408.1097 368.00085 C 409.33416 366.99796 411.82235 361.3688 413.41244 356.00085 C 414.43446 352.55067 415.0578 346.6889 415.08431 340.27429 C 415.10751 334.65021 415.50382 328.72765 415.96713 327.11218 C 417.14545 323.0036 415.5607 320.69238 411.59994 320.58288 z M 223.49838 420.42859 C 222.67219 420.40535 222.07573 420.52506 221.78548 420.81531 C 219.59694 423.00385 219.72518 429.89504 222.06283 435.72156 C 225.37871 443.98631 227.60697 446.59467 233.39291 448.99109 C 236.20216 450.15463 239.40033 451.51729 240.50033 452.01843 C 245.32542 454.21663 251.62066 453.60424 256.39877 450.47351 C 258.01447 449.41486 258.86819 448.10376 258.58431 447.11804 C 258.32798 446.22801 257.62833 443.59767 257.02767 441.27234 C 256.36706 438.71495 254.92948 436.34426 253.39095 435.27234 C 251.99201 434.29768 248.06979 431.45384 244.67416 428.95202 C 239.10215 424.8467 227.9598 420.55404 223.49838 420.42859 z M 358.72689 420.72937 L 351.20736 421.36609 C 345.36026 421.86035 342.9587 422.55723 340.41048 424.50085 C 338.6081 425.8756 336.84546 427.00085 336.49447 427.00085 C 336.14349 427.00085 335.25221 427.56335 334.514 428.25085 C 333.77579 428.93835 331.80189 430.5478 330.12728 431.82898 C 326.23696 434.80531 321.00033 442.68148 321.00033 445.55554 C 321.00033 447.76051 324.52042 450.85713 328.50033 452.15124 C 332.38682 453.41497 336.67655 452.97427 341.06283 450.86413 C 349.15139 446.97291 353.67542 443.22133 356.22689 438.28796 C 359.45432 432.04762 360.2175 428.68022 359.39681 424.30554 L 358.72689 420.72937 z "
       transform="translate(-32.793297,-17.577024)" />
  </g>
</svg>
