<?xml version="1.0" encoding="UTF-8" standalone="no"?>
<!-- Created with Inkscape (http://www.inkscape.org/) -->

<svg
   version="1.1"
   id="svg2708"
   width="896.34656"
   height="819.98187"
   viewBox="0 0 896.34656 819.98187"
   sodipodi:docname="King1b.svg"
   inkscape:version="1.2.2 (732a01da63, 2022-12-09, custom)"
   xmlns:inkscape="http://www.inkscape.org/namespaces/inkscape"
   xmlns:sodipodi="http://sodipodi.sourceforge.net/DTD/sodipodi-0.dtd"
   xmlns="http://www.w3.org/2000/svg"
   xmlns:svg="http://www.w3.org/2000/svg">
  <defs
     id="defs2712" />
  <sodipodi:namedview
     id="namedview2710"
     pagecolor="#ffffff"
     bordercolor="#000000"
     borderopacity="0.25"
     inkscape:showpageshadow="2"
     inkscape:pageopacity="0.0"
     inkscape:pagecheckerboard="0"
     inkscape:deskcolor="#d1d1d1"
     showgrid="false"
     inkscape:zoom="0.69129388"
     inkscape:cx="624.91512"
     inkscape:cy="396.3582"
     inkscape:window-width="1920"
     inkscape:window-height="1031"
     inkscape:window-x="0"
     inkscape:window-y="25"
     inkscape:window-maximized="1"
     inkscape:current-layer="svg2708" />
  <g
     inkscape:groupmode="layer"
     id="layer1"
     inkscape:label="Layer 1"
     transform="translate(-28.688171,-10.666666)">
    <path
       id="path3189"
       style="fill:#000000;stroke-width:1.33333"
       d="M 662.10223 10.666666 C 660.69267 10.666666 651.31971 26.559694 648.47723 33.768228 C 643.67716 45.942493 643.23274 48.637424 637.4245 100.76432 C 634.48885 127.11057 630.57398 161.86739 628.72528 178.00065 C 626.87657 194.1339 625.35633 207.75473 625.34833 208.27018 C 625.34006 208.78562 622.42461 208.86307 618.86981 208.44206 L 612.40692 207.67643 L 611.53778 214.02409 C 611.05924 217.51529 610.66573 221.93791 610.66473 223.85221 L 610.66083 227.33268 L 596.66473 227.43815 L 582.66669 227.54362 L 582.66669 219.68424 C 582.66669 209.89404 581.2675 207.20091 575.62958 206.14323 C 572.04266 205.47032 570.64113 204.18464 568.35028 199.4694 C 566.78969 196.25723 563.62003 191.47453 561.30731 188.84049 C 557.22435 184.19025 556.99127 184.10886 553.28387 186.02604 C 546.61525 189.47454 543.62243 188.58028 540.81512 182.29948 C 539.26728 178.83639 532.90294 171.38501 524.28973 162.95378 C 508.87033 147.86013 508.92798 148.08608 519.33856 143.38151 C 523.96041 141.29288 539.72827 124.82028 541.48309 120.24674 C 543.31177 115.48079 542.9008 113.33268 540.16278 113.33268 C 537.03279 113.33268 535.15606 111.12573 533.92059 105.99284 C 533.39206 103.79694 532.04537 100.20065 530.92841 98.00065 C 529.6604 95.503237 528.84498 89.992457 528.75848 83.332682 C 528.66236 75.935741 527.87551 71.154253 526.19012 67.733072 C 523.7804 62.841452 523.79415 62.645212 527.87958 44.561197 C 533.33198 20.426044 533.44097 21.498397 525.66669 22.754557 C 518.19057 23.962529 514.66669 25.218154 514.66669 26.674478 C 514.66669 27.255512 511.8308 27.957498 508.36591 28.233072 C 503.63028 28.609712 501.47903 28.145001 499.69989 26.365885 C 498.39816 25.064154 495.93983 24.00065 494.237 24.00065 C 491.54427 24.00065 484.88571 17.74711 481.16278 11.723307 C 480.34127 10.394087 473.08873 17.351244 470.2663 22.176432 C 469.67986 23.178989 467.62823 24.00065 465.70575 24.00065 C 463.78327 24.00065 461.07815 25.025389 459.69403 26.277994 C 456.65871 29.024902 447.10104 28.754852 443.83661 25.830728 C 442.08098 24.258116 428.06099 20.935691 427.05731 21.854166 C 426.906 21.992624 428.89571 31.381862 431.47723 42.7194 C 436.09638 63.005498 436.1341 63.40817 433.82294 68.00065 C 432.26208 71.102178 431.38702 76.243477 431.21551 83.332682 C 431.07319 89.21519 430.06686 96.09307 428.97137 98.666666 C 427.87886 101.23333 426.02193 105.58268 424.84637 108.33268 C 423.34714 111.8399 421.87469 113.33268 419.91473 113.33268 C 417.45706 113.33268 417.23535 113.8543 418.07098 117.65885 C 419.00223 121.8988 425.13363 130.39017 430.5827 134.98698 C 432.09547 136.26314 433.3327 137.82726 433.3327 138.46354 C 433.3327 139.09981 429.59579 141.92739 425.02801 144.74674 C 413.93663 151.59278 401.06819 164.88604 396.50848 174.20573 C 391.30168 184.84806 390.50223 201.04944 394.58856 213.13346 C 397.89236 222.9033 398.08117 221.93984 387.82489 247.53581 C 383.91632 257.29016 381.3444 265.78071 381.362 268.86979 C 381.43984 282.50945 394.50918 295.74767 410.22333 298.10417 L 416.00067 298.9694 L 416.00067 307.53776 C 416.00067 313.51371 416.81829 317.70907 418.7038 321.40495 C 420.75064 325.41714 421.07514 327.326 420.03778 329.26432 C 419.28422 330.67236 418.66669 335.20371 418.66669 339.33463 C 418.66669 345.86415 418.36118 346.75629 416.3327 346.15104 C 405.16084 342.81753 400.89287 342.3048 399.46747 344.12565 C 398.28108 345.64119 391.60911 346.02463 364.66669 346.12956 C 327.26167 346.27528 319.48239 347.54965 300.19403 356.68815 C 291.60833 360.75592 289.09895 361.33268 280.00848 361.33268 C 268.79743 361.33268 254.91325 358.76648 226.66669 351.47135 C 194.24622 343.09828 178.04446 342.25202 161.47137 348.06901 C 138.40358 356.16562 122.65614 376.19908 103.88544 421.33268 C 80.226461 478.22 65.417028 503.52562 40.98114 528.8151 C 24.589709 545.77915 24.588441 543.54691 40.986999 551.82487 C 56.466718 559.63899 77.626394 562.19723 92.979187 558.11003 C 103.69156 555.25818 116.39441 547.48051 123.66864 539.31901 C 129.58314 532.68309 131.44319 531.54976 143.43231 527.27604 C 168.48561 518.34544 181.09065 509.15847 189.08661 494.00065 C 192.53308 487.46726 192.6173 486.69301 193.30145 455.33268 C 193.99365 423.60383 194.03148 423.26771 197.74872 415.69792 C 201.66793 407.71672 205.59933 404.11574 213.19989 401.53776 C 218.79991 399.63833 232.33726 399.55257 238.90106 401.37565 L 243.80145 402.73698 L 237.84833 412.36784 C 224.4456 434.05531 222.63066 453.00695 231.19208 481.88542 C 237.42486 502.90916 237.23759 506.09055 228.72919 523.71354 C 221.21963 539.26766 213.2771 551.91247 195.66669 576.34049 C 183.63809 593.02584 181.60759 595.17548 173.16669 600.1901 C 160.81601 607.52753 156.39905 613.02634 155.19989 622.55338 C 154.26135 630.00986 156.39483 666.70436 158.01044 670.89128 C 158.4827 672.11512 163.02249 676.20473 168.09833 679.97917 C 181.74251 690.12509 182.18287 696.79045 170.46747 715.83268 L 163.3913 727.33268 L 163.54559 740.66667 C 163.68318 752.58485 167.23002 788.74958 168.67645 792.98698 C 169.04484 794.06618 172.18046 792.58677 177.69598 788.73112 C 186.04085 782.89764 201.94874 774.37454 207.53973 772.74088 C 209.74952 772.09523 211.09337 772.8561 213.35614 776.03385 C 216.13203 779.93224 216.21614 780.73092 214.81708 790.13737 C 214.00139 795.62174 213.3327 804.31495 213.3327 809.45573 L 213.3327 818.80338 L 217.81903 820.67643 C 220.28583 821.70712 231.16047 824.05101 241.98505 825.88542 C 252.80962 827.71979 261.99186 829.54655 262.38934 829.94401 C 263.57714 831.13181 267.99264 830.76396 270.83856 829.24088 C 273.27924 827.9347 273.43105 826.90781 272.67255 816.90885 C 271.54784 802.08258 269.63279 793.71381 265.84833 787.09245 C 263.26248 782.56821 262.91487 780.85531 263.99872 778.00456 C 266.44037 771.58253 265.50689 767.38061 260.00067 760.00065 C 257.06733 756.06909 254.66669 752.65572 254.66669 752.41667 C 254.66669 748.66199 250.25168 724.38231 249.21747 722.44987 C 248.4423 721.00143 244.80495 716.49992 241.13544 712.44792 C 233.44871 703.95996 230.94655 698.69813 226.05341 680.73698 C 222.94811 669.3385 222.69244 666.91142 223.92841 660.55729 C 228.51274 636.98885 227.85617 638.76179 232.73505 636.72331 C 245.6797 631.31466 280.72776 609.34834 292.96551 598.97331 C 297.77039 594.89981 301.26618 593.00597 304.23114 592.86784 L 308.52997 592.66667 L 310.95966 604.00065 C 312.91378 613.11173 313.31915 620.13203 313.02801 639.80729 L 312.66669 664.2819 L 318.93231 669.96159 C 324.57483 675.07764 340.84093 683.91532 359.52606 692.01628 C 370.0207 696.5662 371.14494 700.56339 366.43426 716.57487 C 363.58172 726.27078 363.57247 726.6114 365.82294 738.0651 C 368.4839 751.60822 374.43716 767.778 379.49676 775.20573 L 383.04364 780.41276 L 384.72919 777.20573 C 386.97895 772.92793 391.44681 769.79184 407.3327 761.34245 C 414.666 757.442 421.86604 753.19277 423.3327 751.89909 C 425.106 750.33505 427.24207 749.78967 429.70575 750.27018 C 432.79251 750.87222 433.24948 751.46489 432.44989 753.82878 C 431.92206 755.38923 429.89291 762.96667 427.94012 770.66667 L 424.38934 784.66667 L 428.52801 789.09049 C 433.97179 794.9095 451.32763 803.34257 464.66669 806.64909 C 481.51233 810.82479 480.79419 811.17168 481.79364 798.33268 C 483.17716 780.56012 482.80691 769.07103 480.59637 761.28971 C 479.45729 757.27994 477.67176 747.99996 476.62958 740.66667 C 475.21385 730.70473 473.5446 724.92474 470.02997 717.80729 C 462.80784 703.18185 454.09034 695.94685 427.7663 682.73307 C 389.55319 663.55144 367.35006 643.22808 372.09442 631.77409 C 374.04886 627.05566 378.13081 623.9232 394.04755 614.93229 C 400.67395 611.1892 408.37318 605.84882 411.15692 603.0651 C 419.76449 594.45752 426.40434 577.44543 431.46942 551.02018 C 432.42385 546.04081 437.9917 545.70227 449.3327 549.93229 C 476.30735 559.99349 485.46369 562.93323 503.00262 567.17057 C 513.45146 569.69499 526.50071 572.44657 532.00067 573.28581 C 551.43293 576.25093 549.73905 575.18586 548.68426 583.80338 C 547.73817 591.5333 542.93529 616.17539 542.23895 616.87174 C 541.24123 617.86946 531.031 614.13174 528.58075 611.87174 C 526.95585 610.37306 523.89732 609.33268 521.11395 609.33268 C 516.09623 609.33268 507.99328 611.67996 508.00848 613.12956 C 508.01349 613.60782 510.0902 615.40953 512.62176 617.13346 C 516.30722 619.64314 518.62951 620.1865 524.27801 619.85807 C 528.15806 619.63246 533.58121 619.93827 536.3288 620.53776 L 541.32489 621.6276 L 540.56708 630.48112 C 539.94978 637.69822 540.2854 640.18993 542.37958 643.96745 C 545.75511 650.05635 554.50789 654.66667 562.69012 654.66667 C 572.17641 654.66667 583.75711 661.23383 594.24091 672.55729 C 602.75587 681.75424 602.91117 681.8481 610.71747 682.41276 C 615.05206 682.7263 621.91451 682.56735 625.96551 682.0612 C 632.19622 681.28272 633.45092 680.6619 634.112 678.02799 C 634.80933 675.24959 635.92123 674.81281 644.44598 673.97135 C 655.07651 672.92203 658.66669 671.55446 658.66669 668.55338 C 658.66669 665.45993 654.87798 658.76262 648.5495 650.66667 C 643.38485 644.0596 642.89137 642.7948 643.55341 637.90299 C 644.76002 628.98704 641.67316 617.40748 636.78973 612.52409 L 632.55536 608.28971 L 635.612 604.73698 C 639.15786 600.61468 639.50469 595.25393 636.66669 588.46159 C 635.56669 585.82891 634.66669 583.53825 634.66669 583.37174 C 634.66669 583.20524 640.21737 582.69323 647.00067 582.23307 C 653.78396 581.7729 661.17905 580.85262 663.43426 580.1901 L 667.53387 578.98698 L 672.62176 592.49284 C 675.41988 599.92154 679.21063 609.9 681.04559 614.66667 C 683.70634 621.57848 684.4556 626.18991 684.74481 637.43815 C 685.13286 652.53007 686.32107 658.5154 691.54755 671.68229 C 694.39588 678.85804 694.65113 680.67072 693.362 684.57682 C 690.96323 691.84511 684.63137 699.51476 676.99286 704.40104 C 664.52068 712.37939 660.74952 718.96157 653.91864 744.66667 C 650.90086 756.02267 647.46741 775.9127 648.36981 776.8151 C 648.59907 777.04437 655.06253 775.19695 662.73309 772.70963 C 670.40369 770.22234 680.62622 767.45976 685.44989 766.57096 C 693.72437 765.04632 694.6253 765.13852 701.37176 768.19987 L 708.52216 771.44401 L 708.72333 792.05534 C 708.83354 803.39149 709.36245 813.92797 709.89911 815.4694 C 711.78723 820.89268 719.20279 822.99715 738.45184 823.57096 C 756.07178 824.0962 756.31981 824.06137 765.30341 819.92057 L 774.37176 815.74088 L 771.05731 804.86979 C 766.72782 790.6638 760.32436 775.26217 757.91473 773.26237 C 756.86219 772.38882 756.00067 769.77268 756.00067 767.44987 C 756.00067 760.47042 752.50244 749.20931 746.41669 736.59049 L 740.66669 724.66667 L 740.74481 707.33268 C 740.81746 691.29463 741.08738 689.49005 744.34247 683.18229 C 750.21975 671.79313 750.28127 667.69958 745.17059 628.96159 C 743.63756 617.34156 743.70688 614.73119 745.80341 604.96159 C 748.26237 593.50292 751.21104 576.88983 752.60028 566.66667 C 753.25945 561.81591 754.24276 560.12802 757.73309 557.85612 C 760.80035 555.85963 762.88997 555.35777 764.94989 556.11979 C 774.04806 559.48544 790.29631 561.58363 816.00067 562.71354 C 831.7673 563.40661 848.20331 564.72906 852.52606 565.65299 L 860.38544 567.33268 L 863.79755 577.08854 C 868.75883 591.27363 866.35883 593.75439 845.61005 595.90104 C 838.98159 596.58681 831.83649 598.0389 829.73114 599.1276 C 821.86269 603.19656 788.11771 642.47268 788.02801 647.66667 C 788.00941 648.74252 790.00863 649.33359 793.66669 649.33659 C 806.26051 649.34407 837.51715 660.46624 835.25067 664.13346 C 834.83837 664.80058 830.7956 667.86233 826.2663 670.93815 C 821.73695 674.01398 815.47345 678.88755 812.34833 681.76823 C 806.91114 686.78002 806.66669 687.34037 806.66669 694.77018 C 806.66669 715.20996 815.34445 733.50121 827.61786 738.93034 L 833.52411 741.54362 L 840.94989 737.10417 C 850.20873 731.5702 858.03335 721.9212 860.69989 712.7487 C 862.13329 707.81799 863.68105 705.29837 865.89911 704.28776 C 869.86673 702.47997 875.50964 695.17218 877.53583 689.21549 C 878.38668 686.71414 881.05478 682.45303 883.46551 679.74674 C 888.20904 674.42173 892.00067 663.81935 892.00067 655.87565 C 892.00067 640.17178 901.32766 611.49938 909.81903 601.10221 C 918.59399 590.35777 919.74298 588.095 921.39325 578.3112 C 924.00302 562.83875 919.34471 539.87207 912.00067 532.00651 C 910.03521 529.90147 904.83599 527.17557 899.3327 525.36393 C 887.22683 521.37883 874.45791 514.9516 860.24872 505.6901 C 853.92232 501.56663 843.44197 496.30676 836.74872 493.89713 C 830.10395 491.50501 821.32464 488.05542 817.24091 486.23112 L 809.81708 482.91471 L 810.90692 473.1237 C 811.50699 467.739 812.26873 455.8333 812.59833 446.66667 C 812.92795 437.50005 813.82755 426.7691 814.59833 422.81901 C 815.3691 418.86892 816.00067 413.41707 816.00067 410.70573 C 816.00067 406.23965 816.67999 405.3089 823.23309 400.79557 C 831.95936 394.78558 850.88796 375.27463 857.3327 365.64713 C 861.56374 359.32672 862.37407 358.73947 866.00067 359.36979 C 868.20067 359.75216 873.00002 359.27921 876.66669 358.31901 C 882.24406 356.8584 884.58487 356.88 890.98895 358.44792 C 897.87871 360.13471 898.9828 360.09996 902.03778 358.09831 C 909.73776 353.05307 926.49539 325.43741 924.93231 320.36979 C 924.53029 319.06637 922.5712 314.09935 920.5788 309.33268 C 916.17253 298.79131 909.24225 275.52617 905.22528 257.78581 C 903.09462 248.37608 902.1586 239.44712 901.91278 226.20182 C 901.5715 207.81348 901.55282 207.70917 897.27606 201.53385 C 894.91399 198.12322 888.83309 191.73268 883.76434 187.33268 C 875.76173 180.38591 874.66254 178.89515 875.41278 176.00065 C 875.88797 174.16731 876.3905 171.97548 876.52997 171.13151 C 876.66942 170.28752 879.00762 167.13573 881.72528 164.1276 C 884.44295 161.1195 886.66669 158.10939 886.66669 157.43815 C 886.66669 156.7669 887.03015 155.26996 887.47528 154.11003 C 888.15397 152.34139 887.0786 152.00065 880.80926 152.00065 C 876.6975 152.00065 873.3327 151.75472 873.3327 151.45573 C 873.3327 151.15673 874.8541 147.98327 876.71161 144.40299 C 878.56911 140.82276 880.21846 136.11669 880.37762 133.94596 L 880.66669 130.00065 L 869.69989 130.22135 C 860.98991 130.39653 857.14944 131.16551 851.03778 133.96354 C 846.80524 135.90127 842.13942 138.57487 840.67059 139.90495 C 839.20176 141.23503 835.39912 142.65188 832.21942 143.05143 C 825.81231 143.85654 826.67975 144.90248 820.85419 129.33268 C 819.61947 126.03268 816.93034 121.31253 814.87762 118.84245 L 811.1452 114.35026 L 806.65497 116.67253 C 799.92062 120.15496 788.93964 131.79729 785.25848 139.35612 C 782.07455 145.89405 781.69893 146.16563 768.66669 151.43815 C 757.76329 155.84942 755.39302 157.30413 755.65692 159.41667 C 755.90643 161.41386 753.33299 163.44259 744.31903 168.35612 C 722.05763 180.49083 698.42357 202.14249 678.95184 228.23893 C 669.35584 241.09973 667.16658 243.36192 666.37567 241.23698 C 665.24739 238.20555 666.42154 234.35874 668.14911 235.42643 C 669.77992 236.43432 670.31 234.31017 671.21942 223.12565 L 671.99676 213.58268 L 665.60809 212.70378 L 659.21942 211.82487 L 660.84833 194.24674 C 674.55373 46.284591 674.44125 48.342798 669.78192 29.332682 C 667.86672 21.518643 663.4017 10.666666 662.10223 10.666666 z M 609.09637 281.33463 L 614.21551 281.34245 C 618.48759 281.34949 619.70406 282.00207 621.57684 285.29362 C 622.81096 287.46266 625.26906 289.60165 627.03778 290.04557 C 629.38574 290.63487 631.08551 292.85857 633.33661 298.28971 C 636.31636 305.47887 636.33547 305.79036 633.9538 307.5319 C 632.59839 308.52299 631.14381 309.33463 630.72137 309.33463 C 630.29894 309.33463 626.81464 306.58799 622.97723 303.23112 C 617.62772 298.55147 616.00067 296.24188 616.00067 293.33268 C 616.00067 291.19595 614.49139 287.74632 612.54755 285.4362 L 609.09637 281.33463 z M 805.16278 293.75065 C 806.50702 293.8107 809.94182 294.98209 813.42645 296.60417 C 817.4089 298.45795 822.89533 299.97998 825.61981 299.98698 C 829.24757 299.99652 831.8362 301.10684 835.28778 304.13737 C 837.87997 306.41334 840.00067 309.12182 840.00067 310.15495 C 840.00067 312.27108 830.17769 318.8662 817.55536 325.22721 C 803.294 332.41425 802.79481 332.5092 801.19989 328.3151 C 796.90873 317.03078 796.77431 314.12501 800.07489 304.05729 C 801.82401 298.72201 803.9135 294.10484 804.71942 293.79557 C 804.82016 293.75692 804.97075 293.74207 805.16278 293.75065 z M 842.06317 342.09635 C 842.8055 342.07444 842.55034 342.7262 841.80731 343.88346 C 837.26214 350.96264 831.32189 358.24039 823.48309 366.33268 C 819.04335 370.91602 814.97245 374.66667 814.43817 374.66667 C 813.34378 374.66667 810.05655 359.26127 810.8327 357.77018 C 811.10788 357.2415 818.68917 353.12476 827.67841 348.62174 C 836.81841 344.0432 840.82595 342.13288 842.06317 342.09635 z M 595.77216 581.35026 C 596.26385 581.36006 597.66348 584.51006 598.88153 588.35026 C 600.09957 592.19044 600.97551 595.45719 600.8288 595.60807 C 600.6821 595.75895 598.86178 594.52666 596.78387 592.86979 C 593.54205 590.28483 593.13885 589.25143 593.94208 585.5944 C 594.4569 583.25037 595.28042 581.34126 595.77216 581.35026 z " />
    <path
       style="fill:#ffcc00;stroke-width:1.33333"
       d="m 478.66668,60.079333 c 13.0614,-0.02473 29.03893,1.534757 33.58089,3.277672 1.54694,0.593615 2.89855,-2.730588 6.27782,-15.439913 2.36853,-8.908018 4.04393,-16.458894 3.7231,-16.779725 -0.32082,-0.320831 -2.03425,1.140993 -3.8076,3.248497 -2.69854,3.207044 -3.70576,3.616978 -6.17729,2.514147 -2.02167,-0.902092 -4.00996,-0.836104 -6.3042,0.209224 -2.70444,1.232224 -3.18959,2.170748 -2.51387,4.863075 1.09592,4.366475 -2.28081,5.764197 -6.78914,2.810219 -4.01247,-2.629067 -4.25971,-4.787238 -0.65638,-5.729531 3.3616,-0.87908 3.36943,-2.35024 0.0303,-5.689424 -2.64347,-2.643464 -5.32667,-2.496082 -9.28619,0.510072 -1.46361,1.111205 -1.67997,1.055986 -0.90628,-0.231296 1.06204,-1.767083 -3.84589,-10.975684 -5.84977,-10.975684 -1.87637,0 -6.6547,6.852871 -6.6547,9.543882 0,2.32065 -0.23992,2.360394 -3.06693,0.50806 -2.73791,-1.793945 -3.3816,-1.789132 -6,0.04487 -3.706,2.595787 -3.76133,5.375575 -0.12587,6.326256 3.50428,0.916391 2.71679,3.639652 -1.78682,6.179112 -2.87126,1.619014 -3.78308,1.644593 -5.5762,0.156428 -1.59868,-1.326778 -1.77134,-2.22773 -0.67911,-3.543772 0.80551,-0.970579 1.11857,-2.324504 0.69571,-3.008723 -1.28911,-2.08582 -7.36006,-3.020477 -10.09876,-1.554764 -2.07092,1.108322 -2.86496,0.856315 -4.0032,-1.270506 -0.78094,-1.459183 -2.52642,-3.245262 -3.87886,-3.969064 -2.30326,-1.232671 -2.26586,-0.622479 0.59066,9.636109 1.67729,6.023662 3.69065,13.390497 4.47413,16.370745 l 1.42452,5.418633 9.68205,-1.699043 c 5.32508,-0.934472 15.98202,-1.710972 23.68202,-1.725553 z"
       id="path3449" />
    <path
       style="fill:#000000;stroke-width:1.33333"
       d="m 484.05312,55.397316 c -2.11999,-2.554425 -0.59839,-7.044551 2.74705,-8.106351 3.01028,-0.955426 9.19984,2.502562 9.19984,5.139771 0,4.61284 -8.77272,6.791228 -11.94689,2.96658 z"
       id="path3463" />
    <path
       style="fill:#ff00ff;stroke-width:1.33333"
       d="m 491.33917,53.323915 c 0.45642,-0.738512 -0.13405,-1.712636 -1.31216,-2.164718 -2.55285,-0.979626 -3.97561,0.09989 -2.74849,2.085427 1.10717,1.791441 2.97988,1.828008 4.06065,0.07929 z"
       id="path3465" />
    <path
       style="fill:#000000;stroke-width:1.33333"
       d="m 465.60001,55.733332 c -2.47388,-2.473873 -1.91303,-4.800092 1.73333,-7.189276 3.08783,-2.023223 3.57884,-2.023223 6.66667,0 3.78274,2.478539 3.84474,2.675696 1.9531,6.210264 -1.56433,2.922961 -7.81781,3.514304 -10.3531,0.979012 z"
       id="path3459" />
    <path
       style="fill:#ff00ff;stroke-width:1.33333"
       d="m 473.02778,52.249999 c 0.29482,-0.884444 -0.69833,-1.583334 -2.25,-1.583334 -2.76976,0 -3.5999,1.400091 -1.8611,3.13889 1.23529,1.235295 3.46162,0.392901 4.1111,-1.555556 z"
       id="path3461" />
    <path
       style="fill:#000000;stroke-width:1.33333"
       d="m 503.53037,58.308949 c -1.52617,-1.115968 -2.27681,-3.02066 -1.99032,-5.050321 0.38463,-2.724883 1.20054,-3.258629 4.98131,-3.258629 5.41603,0 8.28961,3.351228 6.00233,6.999999 -1.88369,3.004932 -5.87872,3.586398 -8.99332,1.308951 z"
       id="path3455" />
    <path
       style="fill:#ff00ff;stroke-width:1.33333"
       d="m 509.02779,54.416665 c -0.8241,-2.472297 -3.69444,-2.882346 -3.69444,-0.527777 0,1.16111 0.95,2.11111 2.1111,2.11111 1.16112,0 1.87362,-0.7125 1.58334,-1.583333 z"
       id="path3457" />
    <path
       style="fill:#000000;stroke-width:1.33333"
       d="m 448.21669,58.828794 c -2.29399,-1.454058 -1.51273,-6.828821 1.24361,-8.555631 1.16984,-0.73288 3.71984,-0.932726 5.66667,-0.4441 2.62371,0.658505 3.53971,1.732293 3.53971,4.149426 0,4.733917 -6.13859,7.583111 -10.44999,4.850305 z"
       id="path3451" />
    <path
       style="fill:#ff00ff;stroke-width:1.33333"
       d="m 454.66668,53.888888 c 0,-1.161112 -0.71251,-1.873612 -1.58334,-1.583333 -2.47229,0.824098 -2.88234,3.694443 -0.52777,3.694443 1.16111,0 2.11111,-0.95 2.11111,-2.11111 z"
       id="path3453" />
    <path
       style="fill:#c87137;stroke-width:1.33333"
       d="m 520.76899,75.26627 c -0.4069,-1.621195 -1.99376,-3.275544 -3.52638,-3.676332 -2.2205,-0.580675 -2.59317,-0.274471 -1.8345,1.507344 2.54269,5.971843 4.503,11.826889 4.76632,14.236049 0.1603,1.466667 0.52612,0.0148 0.81292,-3.226383 0.2868,-3.241178 0.18853,-7.219482 -0.21836,-8.840678 z"
       id="path3447" />
    <path
       style="fill:#c87137;stroke-width:1.33333"
       d="m 439.9796,83.948587 c 0.0107,-1.128276 1.1739,-4.313912 2.58372,-7.07919 l 2.5633,-5.027779 -2.84197,0.412523 c -3.17912,0.461461 -4.6248,4.201458 -4.79799,12.412523 -0.0823,3.902434 0.23428,4.796746 1.18002,3.333334 0.71088,-1.1 1.30169,-2.923135 1.31292,-4.051411 z"
       id="path3445" />
    <path
       style="fill:#c87137;stroke-width:1.33333"
       d="m 523.41907,103.3328 c -1.74199,-2.56696 -5.0608,-9.916956 -7.37515,-16.333332 -5.08419,-14.095566 -7.26487,-17.666137 -10.78937,-17.666137 -2.567,0 -2.53715,0.216127 0.68481,4.957654 1.85284,2.726709 4.92531,9.631386 6.82769,15.343726 2.18392,6.557736 4.92946,11.856659 7.44848,14.375679 5.39631,5.3963 7.08326,5.03949 3.20354,-0.67759 z"
       id="path3443" />
    <path
       style="fill:#c87137;stroke-width:1.33333"
       d="m 438.46858,104.62875 c 2.20358,-1.85419 5.0329,-6.204191 6.28739,-9.66667 3.8188,-10.54022 8.58452,-20.760002 10.84631,-23.25925 1.97494,-2.182297 1.965,-2.369499 -0.12595,-2.369499 -3.33728,0 -8.08899,5.743346 -10.15816,12.278077 -3.09163,9.763788 -7.99347,20.225922 -10.95201,23.375142 -3.83919,4.08663 -0.87192,3.82783 4.10242,-0.3578 z"
       id="path3441" />
    <path
       style="fill:#fff6d5;stroke-width:1.33333"
       d="m 482.96991,103.33333 c -0.58542,-10.738475 -1.63762,-15.333332 -3.51126,-15.333332 -1.74634,0 -3.42224,8.956415 -3.44705,18.421892 -0.0107,4.03953 0.30548,4.38542 3.65508,4 3.51196,-0.40409 3.65133,-0.70319 3.30323,-7.08856 z"
       id="path3439" />
    <path
       style="fill:#fff6d5;stroke-width:1.33333"
       d="m 467.01217,114.2143 c 2.75668,-0.96005 4.71489,-2.04281 4.35156,-2.40613 -0.36332,-0.36333 0.23121,-5.32158 1.32119,-11.01834 1.08996,-5.696761 1.98176,-10.889559 1.98176,-11.53955 0,-1.957174 -7.71415,-5.32074 -12.62635,-5.505408 -2.52989,-0.09511 -4.28852,-0.676613 -3.90804,-1.292233 1.11087,-1.797428 8.8808,-1.293723 15.65644,1.014968 5.74292,1.956811 6.70728,1.956811 11.59783,0 5.62944,-2.252455 15.94679,-2.910428 15.94679,-1.016983 0,0.614512 -2.18215,1.19933 -4.84922,1.299595 -10.59032,0.398131 -12.79104,4.812245 -9.56454,19.184151 0.87242,3.8861 1.47445,7.69222 1.33785,8.45805 -0.27327,1.532 10.34949,4.80188 12.09505,3.72307 0.59914,-0.37029 0.7057,-1.88198 0.2368,-3.35933 -0.70877,-2.23315 -0.39881,-2.54208 1.83823,-1.83207 2.02888,0.64394 2.92472,0.11687 3.64188,-2.14273 0.58413,-1.8404 0.36551,-3.19195 -0.56655,-3.50264 -0.975,-0.325 -0.56148,-1.72151 1.1564,-3.90545 1.47075,-1.869761 2.6741,-4.827737 2.6741,-6.573282 0,-5.064836 -7.9354,-17.736473 -13.7407,-21.941803 -4.74152,-3.434735 -6.41793,-3.858187 -15.27432,-3.858187 -9.71071,0 -10.10555,0.131707 -16.53688,5.516321 -11.54821,9.668711 -15.74623,22.20833 -10.86307,32.448411 1.76979,3.71128 2.81172,4.54412 4.86836,3.89136 2.07016,-0.65704 2.4344,-0.35552 1.74398,1.4437 -0.89256,2.32596 -0.102,4.71608 1.54798,4.68013 0.50672,-0.0111 3.17678,-0.80557 5.93347,-1.76562 z"
       id="path3433" />
    <path
       style="fill:#000000;stroke-width:1.33333"
       d="m 497.23483,96.785368 c 0.92188,-1.110799 1.05062,-2.196939 0.31434,-2.651987 -0.68585,-0.423878 -1.98845,0.122707 -2.89468,1.21463 -0.90621,1.091926 -2.81593,1.98532 -4.24381,1.98532 -1.92964,0 -2.48676,-0.770174 -2.17007,-3 0.52278,-3.680887 7.05554,-4.787007 11.0424,-1.869688 2.22586,1.628717 2.35074,2.234493 0.83675,4.058737 -0.97879,1.179356 -2.3796,2.144284 -3.11293,2.144284 -0.78116,0 -0.68674,-0.779101 0.228,-1.881296 z"
       id="path3437" />
    <path
       style="fill:#000000;stroke-width:1.33333"
       d="m 466.33334,97.229873 c 0.91667,-0.969765 1.66667,-2.243209 1.66667,-2.829876 0,-1.8978 -3.69067,-1.129282 -4.48217,0.933334 -0.91872,2.394161 -3.71832,2.599502 -5.88611,0.431725 -2.38904,-2.389049 0.58591,-5.098392 5.5982,-5.098392 3.99656,0 7.43675,1.952031 7.43675,4.219755 0,0.560865 -1.35,1.714309 -3,2.563209 -2.4758,1.27376 -2.70878,1.235361 -1.33334,-0.219755 z"
       id="path3435" />
    <path
       style="fill:#deaa87;stroke-width:1.33333"
       d="m 532.66668,120 c 0.45839,-0.74168 -0.54052,-1.33334 -2.25108,-1.33334 -1.98407,0 -5.24971,-2.36534 -9.20412,-6.66666 -7.63143,-8.30091 -10.29613,-8.7162 -6.41655,-1 4.32422,8.60052 6.33646,10.33333 11.99971,10.33333 2.7764,0 5.41881,-0.6 5.87204,-1.33333 z"
       id="path3431" />
    <path
       style="fill:#fff6d5;stroke-width:1.33333"
       d="m 482.30839,118.58843 c -1.13403,-1.81587 -1.97892,-2.08181 -3.25344,-1.02405 -2.55311,2.1189 -2.10526,3.08008 1.53278,3.28959 2.8382,0.16346 3.05738,-0.12512 1.72066,-2.26554 z"
       id="path3429" />
    <path
       style="fill:#deaa87;stroke-width:1.33333"
       d="m 443.1326,113.57703 c 2.08958,-3.8993 3.49801,-7.39087 3.12984,-7.75905 -1.20814,-1.20814 -5.52839,2.36777 -9.24976,7.6561 -2.6307,3.7384 -4.61308,5.19258 -7.07868,5.19258 -2.05855,0 -3.07855,0.56008 -2.55698,1.40402 0.47726,0.77221 3.36267,1.22221 6.41203,1 5.19557,-0.37861 5.78325,-0.84993 9.34355,-7.49365 z"
       id="path3427" />
    <path
       style="fill:#deaa87;stroke-width:1.33333"
       d="m 522.46763,127.82838 c -1.97483,-0.72366 -4.26971,-3.07446 -5.20455,-5.33135 -1.70535,-4.11709 -6.85983,-8.45048 -9.06667,-7.62239 -0.6723,0.25228 0.56639,3.60869 2.75264,7.45869 3.8205,6.72788 4.1903,6.99591 9.51299,6.89474 5.16085,-0.0981 5.29743,-0.19341 2.00559,-1.39969 z"
       id="path3425" />
    <path
       style="fill:#deaa87;stroke-width:1.33333"
       d="m 448.5359,122.33333 c 2.48162,-3.85 3.95703,-7.20641 3.27868,-7.45869 -2.12316,-0.7896 -7.6667,3.63851 -9.85664,7.87337 -1.15365,2.23093 -3.41614,4.58725 -5.02774,5.23626 -2.49244,1.00375 -2.18146,1.19266 2.08174,1.26455 4.61747,0.0779 5.36704,-0.46642 9.52396,-6.91549 z"
       id="path3423" />
    <path
       style="fill:#fff6d5;stroke-width:1.33333"
       d="m 486.11421,128.77022 c 1.48916,-1.04305 4.72646,-2.09305 7.194,-2.33333 7.54583,-0.73482 6.06203,-3.14726 -1.64109,-2.6682 -8.86519,0.55133 -14.37948,0.5519 -24.00063,0.003 -4.21677,-0.2408 -7.66677,-0.009 -7.66667,0.51526 3.4e-4,1.67051 5.06376,3.73341 7.1751,2.92321 1.1191,-0.42944 3.39608,0.17271 5.05993,1.33812 3.75482,2.62998 10.29255,2.73478 13.87936,0.22248 z"
       id="path3421" />
    <path
       style="fill:#deaa87;stroke-width:1.33333"
       d="m 517.90477,136.57142 c 2.89951,-2.8995 2.6193,-3.5809 -0.65089,-1.58272 -2.42483,1.48164 -3.1854,1.19024 -6.50061,-2.49057 -2.06498,-2.29269 -4.01463,-4.94892 -4.33256,-5.90273 -1.13046,-3.39136 -4.00554,0.22017 -3.09152,3.88339 1.89264,7.58534 9.78418,10.88403 14.57558,6.09263 z"
       id="path3419" />
    <path
       style="fill:#deaa87;stroke-width:1.33333"
       d="m 451.46708,137.64625 c 3.62105,-2.41785 6.21988,-12.31292 3.23384,-12.31292 -0.71451,0 -2.22071,1.78221 -3.34714,3.96047 -2.44922,4.73629 -6.25948,7.03466 -9.59052,5.7851 -2.13781,-0.80194 -2.20993,-0.64108 -0.6,1.33812 1.86986,2.29872 7.66644,2.99024 10.30382,1.22923 z"
       id="path3417" />
    <path
       style="fill:#deaa87;stroke-width:1.33333"
       d="m 507.67511,143 c 0.31276,-0.95271 -0.57287,-1.66667 -2.06739,-1.66667 -3.21759,0 -5.20663,-2.28104 -5.81328,-6.66667 -0.31932,-2.30837 -1.42183,-3.46936 -3.58555,-3.77571 -2.60866,-0.36935 -2.99386,0.0159 -2.33333,2.33334 0.43511,1.52664 1.16455,4.12571 1.62097,5.77571 0.45642,1.65 1.45531,3.78064 2.21976,4.73476 1.70043,2.12229 9.20262,1.56878 9.95882,-0.73476 z"
       id="path3415" />
    <path
       style="fill:#deaa87;stroke-width:1.33333"
       d="m 461.24408,144.08338 c 1.05089,-0.66501 2.61618,-3.9875 3.47842,-7.38332 l 1.5677,-6.17419 -3.47843,0.40373 c -2.52801,0.29342 -3.41517,1.1172 -3.24692,3.01498 0.37808,4.26448 -2.06384,7.38875 -5.77501,7.38875 -2.9152,0 -3.19251,0.30987 -1.78983,2 1.85149,2.23092 6.32969,2.59427 9.24407,0.75005 z"
       id="path3413" />
    <path
       style="fill:#deaa87;stroke-width:1.33333"
       d="m 491.54,146.89501 c -1.38735,-1.533 -2.20665,-4.74024 -2.20665,-8.63808 0,-6.1292 -0.038,-6.18248 -3.33334,-4.681 -2.69709,1.22888 -3.33333,2.47773 -3.33333,6.54285 0,5.86719 2.77364,9.21455 7.63523,9.21455 3.25274,0 3.32176,-0.13589 1.23809,-2.43832 z"
       id="path3411" />
    <path
       style="fill:#deaa87;stroke-width:1.33333"
       d="m 474.40001,147.73333 c 2.63434,-2.63433 2.00563,-12.17189 -0.92292,-14.0008 -3.41295,-2.13142 -4.14375,-1.03391 -4.14375,6.22303 0,3.39777 -0.72,6.89777 -1.6,7.77777 -1.24444,1.24444 -0.85925,1.6 1.73334,1.6 1.83333,0 4.05333,-0.72 4.93333,-1.6 z"
       id="path3409" />
    <path
       style="fill:#aa4400;stroke-width:1.33333"
       d="m 870.33351,134.8611 c -3.01586,-1.22052 -13.29318,1.65583 -19.12026,5.35124 l -6.46643,4.1009 5.73735,2.92697 5.73733,2.92697 7.63944,-7.41692 c 4.20168,-4.07932 7.11433,-7.62944 6.47257,-7.88916 z"
       id="path3407" />
    <path
       style="fill:#0000ff;stroke-width:1.33333"
       d="m 490.59407,157.54012 c 4.9269,-2.36667 7.83584,-6.79508 3.25454,-4.95455 -1.3834,0.55579 -4.76526,1.3304 -7.51526,1.72136 -2.75,0.39097 -5,1.18277 -5,1.75957 0,0.5768 -0.39076,2.06704 -0.86836,3.31164 -0.71927,1.87438 -0.31864,2.10031 2.33333,1.31584 1.76093,-0.52089 5.26901,-1.94013 7.79575,-3.15386 z"
       id="path3405" />
    <path
       style="fill:#ffcc00;stroke-width:1.33333"
       d="m 472.00001,161.33333 c 1.46667,-1.46667 2.66153,-3.11667 2.65527,-3.66667 -0.012,-1.03476 -14.04107,-5.73458 -16.9886,-5.6912 -2.42048,0.0356 -2.0433,6.73172 0.53998,9.58622 2.98551,3.29894 10.38862,3.17638 13.79335,-0.22835 z"
       id="path3403" />
    <path
       style="fill:#aa4400;stroke-width:1.33333"
       d="m 857.49138,184.58494 c 4.08049,-2.1101 11.73128,-9.67785 11.80289,-11.6748 0.0215,-0.59941 -1.31092,-0.65952 -2.96092,-0.13357 -5.39908,1.72101 -11.87477,0.6882 -17.92832,-2.85943 -5.92392,-3.47164 -7.34414,-6.25061 -1.63216,-3.19365 4.21819,2.25751 18.12935,0.89777 24.5997,-2.40447 5.17712,-2.64222 10.92978,-7.8196 9.8415,-8.85732 -0.30106,-0.28706 -4.14738,0.0589 -8.54738,0.76878 -9.5482,1.54049 -16.18023,0.68177 -24.49935,-3.1722 -3.39203,-1.57143 -9.61732,-3.1245 -13.83399,-3.4513 l -7.66666,-0.59416 v 8.71787 c 0,4.79483 -0.36419,9.66695 -0.80932,10.82692 -0.6068,1.58129 0.0363,2.10905 2.56989,2.10905 3.44375,0 8.04709,4.52636 9.60937,9.44868 1.84515,5.81353 12.23839,8.20132 19.45475,4.4696 z"
       id="path3401" />
    <path
       style="fill:#ff0000;stroke-width:1.33333"
       d="m 534.06141,184.33333 c -2.7453,-5.01532 -5.92356,-8.48989 -11.13297,-12.17095 -4.63407,-3.27449 -4.76988,-3.27202 -18.26176,0.33254 -5.42731,1.45 -9.28635,1.7717 -12,1.0004 l -4,-1.13694 5.33333,-0.9069 c 2.93334,-0.49879 8.03334,-1.94955 11.33334,-3.22388 7.4543,-2.87859 7.85932,-6.09174 1.25094,-9.92428 l -4.74905,-2.75423 -4.13328,3.05587 c -2.4866,1.83842 -6.99084,3.38902 -11.30597,3.89212 -8.72598,1.01734 -15.68369,5.67809 -13.10851,8.78098 2.89429,3.48742 16.09451,11.61673 21.13927,13.01857 3.48866,0.96944 8.62568,0.87359 17.77612,-0.33169 12.2455,-1.61294 13.11828,-1.56054 18,1.08067 2.82176,1.5267 5.29589,2.816 5.49805,2.8651 0.20216,0.0491 -0.53561,-1.56072 -1.63951,-3.57738 z"
       id="path3399" />
    <path
       style="fill:#aa4400;stroke-width:1.33333"
       d="m 808.62039,202.33333 c 1.39078,-2.38334 6.39407,-8.35795 11.11844,-13.27694 8.86032,-9.22526 9.83658,-12.46041 4.00939,-13.28631 -2.95964,-0.41947 -3.11396,-1.04327 -3.9012,-15.77008 -0.82143,-15.36614 -3.29511,-24.88927 -8.54729,-32.90511 l -2.22011,-3.38832 -5.09851,4.97856 c -2.80418,2.73821 -6.67818,8.49855 -8.6089,12.80075 -4.29963,9.58085 -7.81254,25.74884 -6.78483,31.22693 0.91228,4.86288 15.03827,33.95385 16.48731,33.95385 0.55937,0 2.15494,-1.95 3.5457,-4.33333 z"
       id="path3395" />
    <path
       style="fill:#000000;stroke-width:1.33333"
       d="M 796.12286,166.66666 C 795.98415,158.64606 803.91673,136 806.86493,136 c 2.9559,0 6.79386,15.19754 5.50878,21.8136 -0.70616,3.63557 -0.8411,3.51108 -2.89054,-2.66667 -1.1824,-3.56415 -2.72014,-6.48027 -3.41719,-6.48027 -0.69705,0 -2.71364,3.6 -4.48131,8 -5.88829,14.65687 -5.39684,13.75708 -5.46181,10 z"
       id="path3397" />
    <path
       style="fill:#000000;stroke-width:1.33333"
       d="m 652.25995,114 c 0.0272,-2.2 0.326,-2.93858 0.66405,-1.64129 0.33806,1.29729 0.31583,3.09729 -0.0495,4 C 652.50936,117.26142 652.23278,116.2 652.25995,114 Z"
       id="path3393" />
    <path
       style="fill:#999999;stroke-width:1.33333"
       d="m 652.00002,211.4551 c 0,-0.56601 9.68068,-105.88645 12.20544,-132.788435 0.79148,-8.433334 1.11692,-23.133333 0.72322,-32.666666 -1.02512,-24.822693 -2.50784,-27.868646 -7.6858,-15.788938 -4.07844,9.514605 -6.2718,19.731342 -9.11446,42.455604 -2.11384,16.897902 -12.2702,115.065345 -13.79462,133.333325 -0.28377,3.40072 0.17536,4.05934 3.0646,4.39602 l 3.39839,0.396 3.00007,-25.72934 c 1.65004,-14.15114 4.00177,-34.42934 5.22606,-45.06267 1.2243,-10.63334 2.42271,-18.36783 2.66315,-17.18778 0.37915,1.86086 -2.16704,31.93955 -6.30179,74.44419 -0.67357,6.92437 -0.92518,13.07437 -0.55912,13.66666 0.66587,1.07742 7.17486,1.56006 7.17486,0.53203 z"
       id="path3391" />
    <path
       style="fill:#ffcc00;stroke-width:1.33333"
       d="m 823.85943,214.94517 c 2.14379,-4.24682 6.61924,-10.99682 9.94544,-15 l 6.04766,-7.27851 -3.50904,-3.66667 c -1.92998,-2.01666 -4.26692,-3.66666 -5.19323,-3.66666 -3.03533,0 -21.81691,25.34804 -21.81691,29.4446 0,0.52865 1.80791,1.59144 4.01759,2.36173 2.20967,0.77029 4.37385,2.329 4.80932,3.46377 0.43545,1.13478 1.01889,2.06323 1.29655,2.06323 0.27765,0 2.25884,-3.47467 4.40262,-7.72149 z"
       id="path3389" />
    <path
       style="fill:#ffcc00;stroke-width:1.33333"
       d="m 799.01517,220.86363 c 1.725,-1.725 3.93841,-3.40372 4.91869,-3.73048 1.27581,-0.42526 0.44619,-2.47057 -2.91927,-7.19696 -7.6923,-10.80298 -16.87992,-31.90313 -21.01794,-48.26953 C 779.20863,158.55 778.15709,156 777.65987,156 c -0.49721,0 -3.40522,0.95521 -6.46222,2.12269 l -5.5582,2.12269 1.71936,6.21064 c 4.82073,17.41331 12.41994,34.57972 21.2227,47.94147 3.47939,5.28137 6.54467,9.6025 6.81172,9.6025 0.26707,0 1.89694,-1.41136 3.62194,-3.13636 z"
       id="path3387" />
    <path
       style="fill:#c8b7b7;stroke-width:1.33333"
       d="m 663.26572,221.59403 c -0.4236,-0.57349 -35.01049,-4.20217 -40.35844,-4.2342 -3.83344,-0.0229 -4.36902,0.37518 -4,2.9735 0.4076,2.86997 1.35066,3.08668 21.7594,5 21.05358,1.97377 21.3436,1.96502 22.11612,-0.66667 0.43054,-1.46667 0.64786,-2.84935 0.48292,-3.07263 z"
       id="path3385" />
    <path
       style="fill:#ff0000;stroke-width:1.33333"
       d="m 573.93168,228.11057 c 0.41564,-0.67252 1.13256,-3.97222 1.59316,-7.33266 l 0.83745,-6.10989 -5.943,0.81457 c -4.56493,0.6257 -7.21392,0.1662 -11.424,-1.98162 -9.36848,-4.77944 -8.79,-6.6282 1.33806,-4.27624 2.75,0.6386 5,0.97404 5,0.74538 0,-1.63556 -5.7896,-13.42806 -6.94238,-14.14052 -0.79254,-0.48981 -3.17372,-0.28654 -5.29149,0.45172 -2.11779,0.73827 -5.64768,1.07852 -7.84421,0.75615 -2.19654,-0.32239 -3.82756,-0.1788 -3.62448,0.31908 0.20308,0.49788 3.66922,7.89264 7.70256,16.4328 l 7.33333,15.52755 8.25464,0.008 c 4.54005,0.004 8.59472,-0.54203 9.01036,-1.21455 z"
       id="path3383" />
    <path
       style="fill:#ff00ff;stroke-width:1.33333"
       d="m 812.67159,231.99458 c 4.9101,-5.4256 -3.22624,-12.90659 -8.4049,-7.72792 -2.2145,2.21449 -2.00012,5.8094 0.49524,8.30476 2.80022,2.80023 4.99854,2.63991 7.90966,-0.57684 z"
       id="path3381" />
    <path
       style="fill:#fff6d5;stroke-width:1.33333"
       d="m 651.24655,268.03299 c 2.14076,-0.81392 3.42013,-2.32585 3.42013,-4.04184 0,-1.50784 0.95106,-3.10648 2.11346,-3.55253 1.61502,-0.61973 1.91076,-1.89152 1.25396,-5.39256 -0.52906,-2.82012 -0.24563,-5.32121 0.73722,-6.50548 1.2635,-1.52241 1.1228,-2.44763 -0.67414,-4.43323 -1.48847,-1.64474 -1.78156,-2.81169 -0.85068,-3.38701 0.7811,-0.48275 1.42018,-2.01513 1.42018,-3.40528 0,-3.20472 -6.69692,-4.62691 -16.85217,-3.5788 -4.71564,0.48671 -8.78639,0.10973 -11.62587,-1.07672 -4.0166,-1.67824 -4.80836,-1.56389 -9.80572,1.41619 -5.26349,3.13876 -5.4022,3.40102 -4.36274,8.2497 0.59046,2.75435 1.49142,8.80127 2.00214,13.4376 0.51071,4.63635 1.61462,8.68791 2.45314,9.00348 0.8385,0.31558 7.22456,1.39715 14.19122,2.40351 6.96667,1.00635 12.77762,1.90479 12.9132,1.99652 0.1356,0.0917 1.7856,-0.41836 3.66667,-1.13355 z"
       id="path3379" />
    <path
       style="fill:#0000ff;stroke-width:1.33333"
       d="m 588.66668,271.95381 c 11.73333,-0.77926 22.16449,-1.69996 23.18035,-2.04602 3.70229,-1.26118 -0.69593,-24.93082 -6.22734,-33.51324 -0.80406,-1.24757 -5.78106,-1.18196 -22.3272,0.2943 -23.78838,2.12242 -49.49512,2.48718 -56.72917,0.80494 -3.56476,-0.82896 -7.77605,-4.22846 -16.66667,-13.45393 -6.54316,-6.78957 -18.04664,-16.85848 -25.5633,-22.37533 -7.51667,-5.51686 -13.66667,-10.22166 -13.66667,-10.45511 0,-0.23347 2.55,0.47269 5.66667,1.56923 11.13772,3.91856 24.17226,12.95642 35.98702,24.95258 6.47499,6.5744 12.1748,11.55138 12.66624,11.05994 1.98603,-1.98602 1.91408,-18.01048 -0.11186,-24.92171 -1.14564,-3.90811 -1.85298,-7.33567 -1.57186,-7.61677 0.28111,-0.28111 1.80468,2.0245 3.38572,5.1236 1.7528,3.43577 3.44087,10.4737 4.32564,18.03453 1.26098,10.77565 1.81352,12.49716 4.2184,13.14296 3.63554,0.97627 13.44708,0.98873 14.4175,0.0183 2.11112,-2.11111 -16.04198,-42.96911 -19.33167,-43.5107 -0.90848,-0.14957 -10.35179,-0.29957 -20.98512,-0.33333 -17.44387,-0.0555 -20.02128,-0.37229 -26.37257,-3.24247 -4.18296,-1.8903 -9.40531,-5.8127 -12.87035,-9.66666 -3.61572,-4.02155 -6.94416,-6.4856 -8.76076,-6.4856 -2.97418,0 -11.01728,-7.01297 -12.2335,-10.66667 -1.1219,-3.37038 -9.78456,1.69803 -13.81533,8.08318 -5.39297,8.54302 -8.96277,24.75809 -8.4106,38.20343 l 0.46549,11.33472 9.43194,8.856 c 16.43472,15.4312 50.51409,37.7479 70.84561,46.39286 7.55587,3.21276 8.27307,3.26717 33.72007,2.55818 14.3,-0.39842 35.6,-1.36197 47.33333,-2.14122 z"
       id="path3377" />
    <path
       style="fill:#c8b7b7;stroke-width:1.33333"
       d="m 638.40002,282.39999 c 2.82554,-2.82554 1.89856,-8.80957 -1.73334,-11.18928 -3.08782,-2.02321 -3.57884,-2.02321 -6.66666,0 -2.23098,1.4618 -3.33334,3.40856 -3.33334,5.88668 0,4.63142 2.19356,6.9026 6.66667,6.9026 1.90667,0 4.18667,-0.72 5.06667,-1.6 z"
       id="path3375" />
    <path
       style="fill:#ffcc00;stroke-width:1.33333"
       d="m 872.09761,301.33333 h 3.87949 l -3.33539,-8.86132 c -7.01269,-18.63102 -18.27226,-33.01164 -40.16265,-51.29539 l -10.96161,-9.1556 -4.15571,4.15572 c -3.69623,3.69623 -4.80199,4.08287 -10.00083,3.49688 l -5.8451,-0.65883 -1.33555,6.15927 c -2.00707,9.25612 -2.90069,22.06135 -1.99877,28.64151 0.72572,5.2947 1.268,6.00964 5.64402,7.44093 2.66264,0.87088 5.56791,1.88669 6.45614,2.25733 1.19321,0.49792 1.41442,-1.01937 0.84704,-5.81001 -0.70196,-5.92701 1.51098,-33.45459 2.79244,-34.73604 0.97945,-0.97945 25.27058,19.31899 30.74556,25.69195 6.51568,7.58437 15.63337,22.22701 18.08388,29.04194 1.18938,3.30775 2.43776,4.7943 3.63901,4.33334 1.00569,-0.38592 3.57431,-0.70168 5.70803,-0.70168 z"
       id="path3373" />
    <path
       style="fill:#aa4400;stroke-width:1.33333"
       d="m 659.98056,297.66666 c 6.66099,-6.85227 10.29412,-12.18183 15.22455,-22.33333 8.51748,-17.5371 14.08079,-26.80376 24.81473,-41.33334 13.14254,-17.78985 32.66847,-37.58437 47.31722,-47.9681 11.77695,-8.34807 12.7768,-9.39683 11.98105,-12.56729 -0.47749,-1.90252 -1.06126,-3.65223 -1.29726,-3.88822 -0.23599,-0.236 -2.92768,0.84562 -5.98154,2.40358 -5.18547,2.64542 -5.49384,3.11422 -4.66558,7.09301 l 0.88685,4.26036 -3.01043,-2.91717 -3.01041,-2.91719 -5.87994,4.04551 c -3.74294,2.57521 -5.60369,4.72573 -5.11986,5.91717 0.41804,1.02942 1.12426,2.77168 1.5694,3.87168 0.44512,1.1 0.21858,2 -0.50342,2 -0.722,0 -2.05965,-0.9 -2.97257,-2 -2.30128,-2.77288 -2.79088,-2.62411 -9.07983,2.759 -5.53852,4.74076 -5.55182,4.77445 -3.47501,8.79057 2.62956,5.08503 1.8842,5.87989 -2.37332,2.53093 l -3.33525,-2.62352 -4.45339,4.59475 -4.4534,4.59473 2.2302,4.67676 c 2.27112,4.7626 1.27983,6.29938 -1.72667,2.67678 -2.46765,-2.97335 -4.4967,-2.45331 -7.78582,1.99548 -2.80563,3.79481 -2.84678,4.20284 -0.81911,8.1239 2.59735,5.02272 1.79819,6.20095 -2.27219,3.34995 -4.1111,-2.87953 -4.34436,-2.80187 -7.13222,2.37488 -2.39526,4.44772 -2.38752,4.56397 0.55237,8.30145 3.4366,4.36894 1.82213,5.69538 -3.04808,2.50428 -3.28635,-2.15329 -3.38344,-2.10692 -6.74797,3.22283 -4.05456,6.42285 -4.06628,6.52943 -1.08122,9.82789 2.26,2.49727 2.2093,2.56263 -1.6327,2.10499 -3.48651,-0.41531 -4.35002,0.22365 -7.15364,5.29341 l -3.18851,5.76574 3.73733,3.90093 c 4.09059,4.26965 2.38994,5.27969 -3.99294,2.37145 -2.92638,-1.33334 -3.69816,-1.11961 -6.01838,1.66667 -3.23432,3.88399 -3.3444,5.51296 -0.71601,10.59569 2.51228,4.85822 0.80525,5.02898 -4.62187,0.46235 -3.97464,-3.34443 -4.25049,-3.38957 -7.5402,-1.23408 -2.11761,1.38751 -3.12169,3.00076 -2.6434,4.24716 0.42418,1.10539 0.77123,2.51468 0.77123,3.13177 0,1.81386 6.76721,9.32659 8.40108,9.32659 0.82355,0 5.43431,-4.05 10.24613,-9 z"
       id="path3371" />
    <path
       style="fill:#aa4400;stroke-width:1.33333"
       d="m 860.00809,309.31824 c 1.18097,-2.20666 0.33018,-4.82131 -4.80254,-14.75921 -3.43077,-6.6426 -9.24894,-15.37217 -12.92928,-19.39904 -7.84041,-8.57866 -22.92754,-19.7389 -24.97428,-18.47396 -1.82656,1.12888 -0.22736,23.21676 1.8722,25.8586 2.39802,3.01736 11.74902,6.72767 17.0356,6.75942 4.17755,0.0251 5.77935,1.03253 11.1763,7.02928 3.4649,3.85 7.23164,8.94999 8.3705,11.33333 1.13887,2.38333 2.23843,4.33333 2.44347,4.33333 0.20504,0 1.01865,-1.20679 1.80803,-2.68175 z"
       id="path3367" />
    <path
       style="fill:#0000ff;stroke-width:1.33333"
       d="m 570.59341,302.07798 c 4.4134,-4.69785 15.92262,-8.69801 26.14055,-9.08545 4.72669,-0.17923 8.5952,-0.60058 8.59669,-0.93632 10e-4,-0.33575 -2.21908,-2.88575 -4.93457,-5.66667 -4.70344,-4.81676 -5.34333,-5.05621 -13.51197,-5.05621 -10.4614,0 -17.86139,2.07973 -22.41462,6.29952 -4.18873,3.88198 -5.63133,3.00562 -2.61936,-1.59124 l 2.21136,-3.37495 -5.03074,0.15775 c -2.76691,0.0868 -6.7004,0.53677 -8.74111,1 l -3.71037,0.84225 4.37704,6.86511 c 2.40737,3.7758 6.44788,10.03854 8.97889,13.91719 l 4.60185,7.0521 1.4386,-3.51951 c 0.79123,-1.93573 2.86922,-5.04233 4.61776,-6.90357 z"
       id="path3365" />
    <path
       style="fill:#0000ff;stroke-width:1.33333"
       d="m 512.32296,311.93275 c 3.62413,-1.00648 5.21781,-2.29497 5.82352,-4.70828 1.15225,-4.59094 -0.26936,-10.71584 -3.55971,-15.33669 -1.52258,-2.13828 -2.13125,-3.88779 -1.35258,-3.88779 2.45322,0 9.44012,10.9114 10.25665,16.01779 0.69296,4.3335 1.15763,4.8218 4.06047,4.26688 4.69484,-0.89747 7.49828,-5.87324 6.89185,-12.2322 -0.73075,-7.66259 1.47583,-4.46411 2.41999,3.50783 l 0.79226,6.68941 5.22515,-0.95548 c 2.87384,-0.52552 5.53104,-1.26136 5.90488,-1.6352 0.37384,-0.37384 -0.83163,-2.90679 -2.6788,-5.62876 -1.84719,-2.72197 -4.06864,-6.91287 -4.93657,-9.31311 l -1.57807,-4.36405 -13.42689,-0.92476 c -11.0422,-0.76052 -15.20932,-1.71055 -23.46267,-5.34908 -5.51967,-2.43337 -10.21703,-3.95289 -10.43857,-3.37669 -0.22155,0.5762 1.05044,4.55384 2.82665,8.8392 1.7762,4.28536 4.85673,12.74156 6.84564,18.79156 1.98889,6.04999 4.01691,10.99665 4.50668,10.99255 0.48977,-0.004 3.13583,-0.631 5.88012,-1.39313 z"
       id="path3363" />
    <path
       style="fill:#ff00ff;stroke-width:1.33333"
       d="m 877.11013,314.10996 c 0.61254,-3.09165 -2.19008,-6.10997 -5.67336,-6.10997 -6.16266,0 -8.20096,6.37961 -3.16526,9.90676 2.50366,1.75363 3.34167,1.79055 5.66667,0.24963 1.50068,-0.99459 2.92805,-2.81547 3.17195,-4.04642 z"
       id="path3361" />
    <path
       style="fill:#ffcc00;stroke-width:1.33333"
       d="m 538.30177,331.21194 c 13.76736,-3.36676 25.26634,-6.35152 25.55327,-6.6328 0.28693,-0.28128 -1.81307,-3.32942 -4.66667,-6.77363 -2.8536,-3.44421 -5.52076,-6.75459 -5.92704,-7.3564 -0.62941,-0.93233 -43.65326,7.64099 -45.10598,8.98824 -0.50115,0.46475 4.17074,17.89597 4.79644,17.89597 0.17513,0 11.58262,-2.75462 25.34998,-6.12138 z"
       id="path3349" />
    <path
       style="fill:#000000;stroke-width:1.33333"
       d="m 541.97971,321.26934 c -1.67863,-5.28888 5.03076,-9.14743 9.93405,-5.71303 3.30124,2.31228 3.43196,3.57416 0.65768,6.34844 -3.1058,3.1058 -9.52657,2.72061 -10.59173,-0.63541 z"
       id="path3355" />
    <path
       style="fill:#ff00ff;stroke-width:1.33333"
       d="m 549.94307,320.09212 c 0.98606,-1.59546 -1.52216,-3.1763 -3.29814,-2.07869 -1.49114,0.92157 -0.51222,3.31989 1.35508,3.31989 0.64678,0 1.52115,-0.55854 1.94306,-1.2412 z"
       id="path3357" />
    <path
       style="fill:#000000;stroke-width:1.33333"
       d="m 516.88891,329.77776 c -0.4889,-0.48888 -0.8889,-2.26777 -0.8889,-3.95308 0,-3.06218 3.39127,-5.82469 7.15044,-5.82469 2.15414,0 6.1829,3.47519 6.1829,5.33333 0,3.78207 -9.65767,7.23123 -12.44444,4.44444 z"
       id="path3351" />
    <path
       style="fill:#ff00ff;stroke-width:1.33333"
       d="m 524.00001,325.99999 c 0,-1.1 -0.9,-2 -2,-2 -1.1,0 -2,0.9 -2,2 0,1.1 0.9,2 2,2 1.1,0 2,-0.9 2,-2 z"
       id="path3353" />
    <path
       style="fill:#ffcc00;stroke-width:1.33333"
       d="m 821.9883,341.27764 c 7.89788,-3.69729 17.04788,-8.57181 20.33333,-10.83226 5.56699,-3.83019 5.92202,-4.42751 5.21632,-8.77619 -0.41648,-2.56645 -1.0542,-4.96324 -1.41716,-5.3262 -0.36296,-0.36297 -3.23862,1.55024 -6.39034,4.25157 -5.33224,4.57023 -12.42226,8.40511 -28.06376,15.17926 -4.49099,1.945 -6.33334,3.5087 -6.33334,5.37548 0,2.50957 1.24004,6.85069 1.9569,6.85069 0.18604,0 6.80016,-3.02505 14.69805,-6.72235 z"
       id="path3347" />
    <path
       style="fill:#aa4400;stroke-width:1.33333"
       d="m 900.7316,348.31291 c 0.76904,-0.53877 2.1133,-3.37959 2.98725,-6.31292 1.30432,-4.37781 8.69781,-16.9394 14.16261,-24.06233 0.8179,-1.06607 -1.16993,-4.6311 -6.08437,-10.91198 -6.97195,-8.91043 -7.49445,-10.14361 -11.65597,-27.50933 -7.08984,-29.58529 -8.31574,-38.57176 -7.39142,-54.18302 l 0.82892,-14 -4.18386,-5.59308 c -2.30112,-3.07619 -7.93845,-8.54368 -12.52739,-12.14999 l -8.34352,-6.55693 -3.81798,3.04434 c -3.7583,2.99678 -13.65566,6.31674 -15.47646,5.19142 -1.65372,-1.02206 -17.77456,17.25088 -21.78612,24.69452 l -3.89008,7.2182 8.55674,7.32204 c 4.7062,4.02712 14.26746,13.06121 21.24722,20.07576 10.57134,10.62402 13.63632,14.70465 18.35472,24.43694 5.88462,12.13779 12.2416,30.3014 12.27111,35.06193 0.009,1.50984 -0.8639,3.90984 -1.94058,5.33334 -2.14127,2.83101 -2.47195,8.15228 -1.17673,18.93581 0.83658,6.96511 0.8856,7.02757 6.98841,8.90712 6.99922,2.15563 10.85834,2.47273 12.8775,1.05816 z"
       id="path3335" />
    <path
       style="fill:#000000;stroke-width:1.33333"
       d="m 880.87031,258.43399 c -2.7759,-4.97476 -5.0837,-11.30506 -5.62666,-15.434 -0.95967,-7.29776 -1.84276,-8.2945 -4.50583,-5.0857 -2.56139,3.08628 -8.67268,3.76058 -13.981,1.54262 -6.39131,-2.67045 -9.69313,-9.86388 -7.62325,-16.60814 1.32188,-4.30711 1.08812,-4.94512 -3.87962,-10.58876 -2.90742,-3.30302 -5.12897,-6.15979 -4.93674,-6.34838 0.19221,-0.18858 6.64948,0.49115 14.34948,1.51051 7.7,1.01936 16.17653,1.8664 18.83674,1.88229 6.87132,0.0411 8.50155,2.63562 7.85664,12.50412 -0.96432,14.75628 -0.20906,25.37299 2.47839,34.83892 1.4544,5.12279 2.44043,9.5181 2.19119,9.76735 -0.24925,0.24925 -2.57096,-3.34212 -5.15934,-7.98083 z"
       id="path3339" />
    <path
       style="fill:#00ffff;stroke-width:1.33333"
       d="m 869.03667,233.92439 c 3.44964,-2.41622 3.78179,-4.91862 0.96335,-7.25773 -1.55765,-1.29275 -2,-1.29972 -2,-0.0316 0,0.89556 -1.86345,3.36903 -4.14101,5.49659 -4.0745,3.80616 -4.08998,3.86828 -0.96334,3.86828 1.74772,0 4.51118,-0.93403 6.141,-2.0756 z"
       id="path3341" />
    <path
       style="fill:#ffff00;stroke-width:1.33333"
       d="m 860.00002,228.66666 c 1.32425,-1.59563 1.32425,-2.40437 0,-4 -3.33195,-4.01475 -8.08129,-0.94297 -6.18449,4 0.4221,1.1 1.61282,2 2.64605,2 1.03323,0 2.62552,-0.9 3.53844,-2 z"
       id="path3343" />
    <path
       style="fill:#aa4400;stroke-width:1.33333"
       d="m 870.14267,219.22427 c -0.44513,-1.15997 -0.80932,-2.58329 -0.80932,-3.16292 0,-0.57962 -2.42241,-1.44122 -5.38313,-1.91466 -2.96072,-0.47344 -7.78204,-1.6873 -10.71404,-2.69746 -4.79605,-1.65237 -5.15893,-1.6288 -3.61687,0.23488 1.92712,2.32904 16.73431,9.64655 19.52336,9.64816 1.10223,6.4e-4 1.49303,-0.82317 1,-2.108 z"
       id="path3345" />
    <path
       style="fill:#000000;stroke-width:1.33333"
       d="m 899.52354,326.71571 c 1.04815,-5.24069 -0.42449,-10.71572 -2.88225,-10.71572 -2.67163,0 -2.4854,-1.79109 0.46372,-4.46001 3.12097,-2.82444 4.62912,-2.78043 7.3392,0.21417 3.60861,3.98748 3.98633,9.72076 0.96049,14.57917 -3.52005,5.65194 -6.98006,5.87691 -5.88116,0.38239 z"
       id="path3337" />
    <path
       style="fill:#aa4400;stroke-width:1.33333"
       d="m 877.08242,347.07884 c 0.22865,-1.60664 -0.62903,-4.51566 -1.90597,-6.46453 l -2.32171,-3.54337 -3.03377,5.79786 c -1.66859,3.18882 -3.0609,6.28407 -3.09403,6.87835 -0.0332,0.59427 2.18975,0.89427 4.93975,0.66667 3.97213,-0.32876 5.08546,-1.01434 5.41573,-3.33498 z"
       id="path3333" />
    <path
       style="fill:#ffcc00;stroke-width:1.33333"
       d="m 641.39902,340.90492 c 2.83686,-6.57564 4.36246,-20.90221 2.43274,-22.84522 -0.45921,-0.46236 -3.01369,0.19832 -5.67664,1.46818 -4.00933,1.91192 -4.66806,2.78132 -3.83173,5.05715 1.10295,3.00132 0.70481,21.13235 -0.55808,25.41496 -1.60415,5.43987 4.50129,-1.83437 7.63371,-9.09507 z"
       id="path3331" />
    <path
       style="fill:#fff6d5;stroke-width:1.33333"
       d="m 584.00724,349.3261 c 2.41345,-2.41346 2.58909,-3.77706 1.80329,-14 -0.8914,-11.59687 -0.1392,-14.11768 2.29904,-7.70462 0.75728,1.99182 1.79244,3.02174 2.30034,2.28872 1.48537,-2.14377 8.24821,-1.52865 8.31681,0.75646 0.0601,2.00456 12.92318,14.12789 13.92594,13.12514 0.29333,-0.29334 0.004,-2.9165 -0.64391,-5.82924 -1.07411,-4.83189 -1.00586,-5.0645 0.77901,-2.65484 1.07595,1.45259 2.64707,5.05259 3.49138,8 1.93014,6.73798 1.47837,6.30459 5.51577,5.29127 4.80257,-1.20536 5.48724,-4.82307 2.28348,-12.06568 -3.27943,-7.41372 -3.47687,-8.83816 -0.66944,-4.83 2.69356,3.8456 4.1058,3.74496 5.13761,-0.36611 1.33066,-5.30173 -4.86489,-16.02646 -12.17261,-21.07125 -3.39875,-2.34628 -8.10248,-5.91596 -10.45276,-7.93262 -6.80851,-5.8421 -20.64948,-4.48134 -28.83808,2.83517 -3.59696,3.21389 -3.91355,4.0341 -2.54444,6.59229 1.19332,2.22975 1.19532,4.15108 0.008,8.11256 -1.32638,4.42703 -1.1377,6.56549 1.28218,14.5324 1.56058,5.13785 2.8374,11.1984 2.8374,13.46789 0,4.78415 1.57934,5.21368 5.34056,1.45246 z"
       id="path3325" />
    <path
       style="fill:#000000;stroke-width:1.33333"
       d="m 615.33335,321.5084 c 4.42521,-2.7409 5.38684,-2.64168 4.20656,0.43408 -0.45084,1.17487 -2.38043,2.0545 -4.49805,2.0505 l -3.70851,-0.007 4,-2.47755 z"
       id="path3329" />
    <path
       style="fill:#000000;stroke-width:1.33333"
       d="m 604.34796,329.54836 c -0.9472,-0.5854 -0.0524,-1.76782 2.40517,-3.17828 3.21167,-1.84324 3.91355,-1.9069 3.91355,-0.35498 0,2.37254 -4.30332,4.77885 -6.31872,3.53326 z"
       id="path3327" />
    <path
       style="fill:#aa4400;stroke-width:1.33333"
       d="m 778.2519,394.25388 c 3.80521,-1.08325 11.19021,-3.93849 16.41113,-6.34496 l 9.49258,-4.37541 -0.90855,-5.43343 c -0.49969,-2.98838 -4.16187,-18.93342 -8.13817,-35.43342 -3.9763,-16.5 -7.57682,-31.64679 -8.00116,-33.65952 -0.46895,-2.22438 0.3648,-6.698 2.12597,-11.40736 2.31489,-6.18995 2.61621,-8.48767 1.49857,-11.42727 -0.7694,-2.0237 -1.39892,-7.59038 -1.39892,-12.37042 0,-10.13072 -1.15225,-10.44422 -7.56634,-2.05862 -6.4797,8.47134 -7.57843,16.47306 -6.46164,47.05799 0.98548,26.98872 0.0205,37.39156 -4.23728,45.68434 -3.13455,6.10494 -12.48792,15.50846 -18.34147,18.43978 l -5.39327,2.70081 4.79291,-5.14653 c 12.74144,-13.68151 14.67496,-21.19434 15.90843,-61.8132 0.54558,-17.96667 1.66726,-34.83724 2.4926,-37.49017 2.31086,-7.42795 7.03461,-13.54431 13.00694,-16.84154 5.40498,-2.98398 5.43522,-3.0447 6.3075,-12.66666 0.48208,-5.31756 1.36777,-11.4683 1.96822,-13.6683 0.95695,-3.50613 0.44352,-4.74081 -4.15832,-10 -6.2606,-7.15489 -13.50572,-19.5053 -19.75614,-33.67738 -3.05199,-6.91998 -5.14862,-10.12032 -6.33388,-9.66819 -10.14232,3.86895 -35.22835,27.11139 -49.39069,45.76092 -10.31222,13.57955 -23.00153,34.65092 -29.45872,48.91799 -7.70362,17.02104 -9.02238,19.02458 -20.1548,30.62035 -10.30486,10.7338 -10.55738,11.1558 -10.55738,17.64299 0,8.26532 -2.78898,17.77549 -7.14187,24.35316 -2.73939,4.13949 -3.13872,5.85016 -2.26744,9.71333 0.58165,2.57894 1.39361,5.23275 1.80437,5.89736 1.57948,2.55567 28.9938,15.23843 42.96176,19.87551 23.58692,7.8304 37.73155,9.934 62.64318,9.31635 13.24237,-0.32832 23.95729,-1.27591 28.25188,-2.4985 z"
       id="path3313" />
    <path
       style="fill:#000000;stroke-width:1.33333"
       d="m 736.2134,323.92946 c -0.11733,-1.13879 -2.59804,-7.00168 -5.51261,-13.02866 -4.23047,-8.74807 -4.78881,-10.68495 -2.76843,-9.60369 3.93227,2.1045 9.68644,14.98649 9.04171,20.24187 -0.30101,2.45356 -0.64331,3.52928 -0.76067,2.39048 z"
       id="path3321" />
    <path
       style="fill:#000000;stroke-width:1.33333"
       d="m 675.12436,332.49908 c 14.67602,-14.74262 25.36732,-32.27815 38.67354,-63.43106 16.99693,-39.79373 27.04782,-53.59255 43.62381,-59.89093 3.61807,-1.37476 6.57831,-2.29052 6.57831,-2.03502 0,0.2555 -3.59565,3.28946 -7.99036,6.74212 -13.67792,10.746 -21.68798,23.95762 -37.95444,62.60132 -4.86906,11.56726 -11.37336,25.34007 -14.45402,30.60625 -6.791,11.60882 -20.55142,25.5373 -30.36972,30.74066 l -7.23146,3.83241 z"
       id="path3319" />
    <path
       style="fill:#000000;stroke-width:1.33333"
       d="m 729.036,345.99999 c -0.53021,-2.93333 -3.38021,-10.32796 -6.33333,-16.43252 -2.95313,-6.10455 -5.36932,-11.4668 -5.36932,-11.91612 0,-0.44932 1.75645,0.86585 3.90324,2.92261 5.82436,5.58008 9.64468,15.51419 9.164,23.82952 l -0.40057,6.92984 z"
       id="path3317" />
    <path
       style="fill:#000000;stroke-width:1.33333"
       d="m 717.41772,369.99999 c -0.13093,-5.08376 -4.83578,-25.05511 -7.49917,-31.83309 -2.63913,-6.71627 -1.69092,-7.4493 2.48512,-1.92115 6.19779,8.20449 9.6072,27.30523 6.26301,35.08757 -0.98649,2.2957 -1.16024,2.1102 -1.24896,-1.33333 z"
       id="path3315" />
    <path
       style="fill:#ffcc00;stroke-width:1.33333"
       d="m 642.65924,407.66666 c -0.004,-0.91667 -0.63721,-3.93451 -1.40694,-6.7063 -1.20164,-4.32709 -3.01318,-6.08062 -12.81252,-12.40226 -6.27716,-4.04946 -11.61115,-7.1645 -11.85332,-6.92232 -0.24218,0.24217 -1.0149,2.99756 -1.71715,6.12308 -1.46271,6.51 -2.51515,5.43582 15.13071,15.4432 11.60794,6.58313 12.67036,6.95781 12.65922,4.4646 z"
       id="path3311" />
    <path
       style="fill:#ffcc00;stroke-width:1.33333"
       d="m 773.33335,411.8819 c 27.72288,-4.34959 53.4792,-19.76811 71.68096,-42.91042 8.47476,-10.77508 27.02538,-41.99494 25.41206,-42.76737 -0.2345,-0.11227 -2.28671,-1.17476 -4.56047,-2.36111 l -4.13412,-2.15698 -4.33599,8.82365 c -9.97513,20.29919 -26.34781,40.32627 -42.23744,51.66487 -10.27165,7.32969 -27.56741,15.42964 -39.825,18.65082 -11.55176,3.03571 -50.00365,3.48176 -62.66667,0.72695 -38.26826,-8.32516 -72.2038,-25.73356 -108.86207,-55.84452 -5.60746,-4.60596 -10.56112,-8.37447 -11.00812,-8.37447 -0.447,0 -0.57882,3.15 -0.29293,7 0.50128,6.75059 0.81957,7.24947 8.93297,14.00158 28.61659,23.81514 72.11098,45.59464 104.46921,52.31218 18.8666,3.9167 47.04511,4.43274 67.42761,1.23482 z"
       id="path3309" />
    <path
       style="fill:#ffcc00;stroke-width:1.33333"
       d="m 605.18412,395.89338 2.90444,-21.43995 -3.71093,-2.87241 c -2.04103,-1.57983 -6.43432,-5.39552 -9.76291,-8.47931 -3.66756,-3.39787 -6.68411,-5.21621 -7.65647,-4.61525 -0.88249,0.54541 -2.82829,8.97608 -4.324,18.73481 l -2.71948,17.74317 10.37596,11.06048 c 5.70678,6.08327 10.73887,11.11627 11.18244,11.18444 0.44358,0.0681 2.11351,-9.52401 3.71095,-21.31598 z"
       id="path3307" />
    <path
       style="fill:#ffcc00;stroke-width:1.33333"
       d="m 420.85406,410.33332 c -0.43801,-6.78333 -1.17974,-22.32821 -1.6483,-34.54418 l -0.85192,-22.21086 -5.37136,-1.3634 c -4.80112,-1.21865 -5.63404,-1.0547 -7.84566,1.54419 -4.05012,4.75936 -10.11972,18.25781 -13.00632,28.92537 -2.70609,10.00048 -5.94761,31.94287 -4.87702,33.01346 0.83836,0.83836 27.54606,6.68425 31.23842,6.83758 l 3.15856,0.1312 -0.7964,-12.33333 z"
       id="path3305" />
    <path
       style="fill:#ff0000;stroke-width:1.33333"
       d="m 482.03451,415.33332 c 3.40074,-19.485 4.15286,-56.73373 1.45861,-72.23796 -1.16965,-6.73086 -3.09529,-15.13086 -4.2792,-18.66666 -2.86813,-8.56579 -12.84243,-28.77765 -25.8729,-52.42871 -5.8584,-10.63333 -11.66532,-22.03333 -12.90428,-25.33333 -1.3684,-3.64473 -4.98892,-8.61696 -9.22324,-12.66667 -4.69826,-4.49342 -7.44238,-8.40525 -8.41793,-12 -2.03183,-7.48701 -1.77391,-30.31102 0.46171,-40.85863 3.4416,-16.23736 9.11909,-23.87304 20.65437,-27.77812 l 6.66993,-2.25799 -4.04065,-2.98739 c -3.47441,-2.56874 -4.62339,-2.78425 -8.19893,-1.53781 -19.44608,6.77895 -37.00866,29.60415 -37.00866,48.0983 0,7.48118 0.68466,9.32226 9.37951,25.22211 6.94635,12.70243 9.59507,18.97188 10.21045,24.16777 0.61679,5.20782 0.42654,6.766 -0.7382,6.04615 -1.80329,-1.11448 -7.22656,-11.43145 -11.62477,-22.11439 -1.85104,-4.49604 -3.29003,-6.55953 -3.71925,-5.33333 -0.38506,1.1 -3.3655,9.5 -6.6232,18.66667 -3.25772,9.16666 -6.35658,18.70533 -6.88638,21.19704 l -0.96326,4.53038 3.81589,-2.71118 c 3.52313,-2.5032 13.11752,-7.01624 14.91597,-7.01624 0.42594,0 -1.3764,2.25 -4.00518,5 -6.12606,6.4085 -7.76158,9.69546 -7.76158,15.59861 0,3.93623 0.74496,5.22695 4.24542,7.35571 4.76772,2.89942 16.60489,4.80186 21.0666,3.38577 1.6843,-0.53457 3.98352,-3.27588 5.39866,-6.43671 2.44596,-5.46324 2.28226,-9.01284 -0.21026,-4.55894 -1.41971,2.53686 -5.16708,3.18682 -5.16708,0.8962 0,-0.78431 1.89994,-5.98988 4.22209,-11.56795 2.91344,-6.99841 4.20508,-12.23887 4.16721,-16.90731 l -0.0549,-6.76538 1.91485,6 c 1.05316,3.3 2.02791,10.8 2.16611,16.66666 0.22747,9.6556 -0.21781,11.75158 -4.69761,22.11228 -5.96846,13.80362 -7.13431,20.15132 -5.09324,27.73125 1.87344,6.95743 10.00946,16.17371 19.87314,22.51178 5.68311,3.65177 7.40182,4.22877 8.31292,2.7908 2.63923,-4.16547 1.22112,-7.5408 -4.60196,-10.95335 -12.11098,-7.09751 -17.92056,-20.98367 -11.33532,-27.09392 1.71967,-1.59564 4.8947,-3.3403 7.05559,-3.87702 l 3.92892,-0.97588 -2.92892,3.72352 c -4.93072,6.26838 -2.89612,18.48019 3.66391,21.99102 3.62758,1.94141 3.75878,1.86015 4.77954,-2.96048 1.16066,-5.48123 6.00874,-17 7.15507,-17 0.47613,0 -0.61401,13.48375 -2.42255,29.96388 -1.80853,16.48013 -2.86445,30.38767 -2.34648,30.90563 0.96435,0.96434 5.47984,-1.12395 14.90827,-6.89468 10.91352,-6.67968 9.8828,-3.0898 -1.57961,5.50158 -12.07658,9.05179 -19.087,15.6016 -19.087,17.83299 0,0.69704 2.10686,0.0243 4.68193,-1.49508 6.57685,-3.88044 10.35161,-2.57893 13.80051,4.75828 1.53358,3.26255 4.02053,7.07987 5.52656,8.48295 2.39012,2.22673 2.48628,2.76017 0.75636,4.19588 -2.63687,2.1884 -3.69362,1.35057 -7.40975,-5.87478 -5.27569,-10.25762 -12.92732,-9.68284 -20.02183,1.50404 -4.67496,7.37164 -6.32185,14.32219 -4.04392,17.06692 0.87567,1.05512 5.94954,2.88783 11.27526,4.0727 11.95885,2.66058 17.47288,5.90422 20.37208,11.98392 1.22985,2.57902 2.65628,4.23313 3.16983,3.67578 0.51354,-0.55733 1.9809,-7.01334 3.2608,-14.34668 z"
       id="path3303" />
    <path
       style="fill:#aa4400;stroke-width:1.33333"
       d="m 801.12091,432.99999 c 3.44935,-20.61071 3.48188,-21.52137 0.72911,-20.40941 -18.81643,7.60077 -30.37469,9.42281 -59.18334,9.32961 -20.20628,-0.0653 -27.19824,-0.61668 -38.66666,-3.04883 -15.97439,-3.38773 -31.56674,-8.27806 -43.66667,-13.69548 -5.33511,-2.38865 -8.33065,-3.15145 -8.32589,-2.12013 0.0192,4.14796 3.00677,11.70011 5.05089,12.76769 1.25125,0.6535 10.375,3.8969 20.275,7.20756 20.43428,6.83344 41.92924,11.87309 63.33333,14.84897 8.06667,1.12154 16.16667,2.27563 18.00001,2.56467 1.83333,0.28904 11.82174,0.60724 22.19646,0.70711 l 18.86312,0.18157 z"
       id="path3301" />
    <path
       style="fill:#ff0000;stroke-width:1.33333"
       d="m 470.46869,452.10487 c 3.99509,-5.86176 4.36755,-7.1686 3.51432,-12.33076 -1.37804,-8.33748 -9.16052,-15.36892 -22.33007,-20.17512 -11.5187,-4.20373 -15.65293,-8.19511 -15.65293,-15.11208 0,-4.06029 4.51217,-19.26659 9.83768,-33.15359 2.28909,-5.96913 2.87683,-19.33333 0.85023,-19.33333 -0.72164,0 -5.0671,-3.9 -9.65655,-8.66667 -4.58945,-4.76666 -8.79901,-8.66666 -9.35457,-8.66666 -1.55014,0 -1.15052,16.7214 1.50134,62.82129 2.27778,39.5969 2.61898,42.50514 5.62339,47.93184 4.69607,8.4822 13.16136,12.65902 26.53181,13.09096 4.16068,0.1344 5.15119,-0.56016 9.13535,-6.40588 z"
       id="path3299" />
    <path
       style="fill:#ffcc00;stroke-width:1.33333"
       d="m 798.33335,472.54484 4.33334,-0.66569 v -9.83054 c 0,-5.40678 0.3058,-10.6296 0.67957,-11.60624 0.55057,-1.43865 -4.19491,-1.79526 -25,-1.87872 -33.79016,-0.13553 -54.34019,-3.66062 -97.13436,-16.66217 -16.19254,-4.91956 -49.71564,-18.56141 -60.68023,-24.69316 l -8.38332,-4.68822 -0.72316,4.40661 c -0.39775,2.42364 -1.27,7.671 -1.93835,11.66081 -0.9232,5.51114 -0.78228,7.9149 0.58649,10.00389 2.40183,3.66567 26.00058,15.36732 46.98021,23.29559 28.9319,10.93344 64.91377,19.03197 94.94648,21.36984 13.44771,1.04683 37.26677,0.6808 46.33333,-0.712 z"
       id="path3281" />
    <path
       style="fill:#000000;stroke-width:1.33333"
       d="m 633.56576,436.91405 c -8.26468,-8.79736 3.74498,-20.75815 13.17543,-13.12183 2.05363,1.66292 3.0366,3.88823 3.0366,6.87443 0,8.45532 -10.37999,12.45531 -16.21203,6.2474 z"
       id="path3295" />
    <path
       style="fill:#ff00ff;stroke-width:1.33333"
       d="m 642.65259,432.68363 c 2.21547,-2.66946 0.73972,-6.01698 -2.65257,-6.01698 -1.5127,0 -3.09866,0.90764 -3.52435,2.01698 -0.76616,1.9966 1.58208,5.98302 3.52435,5.98302 0.55374,0 1.7474,-0.89236 2.65257,-1.98302 z"
       id="path3297" />
    <path
       style="fill:#000000;stroke-width:1.33333"
       d="m 673.93942,452.72725 c -5.25167,-5.25165 -3.73976,-12.93517 3.05349,-15.51797 11.1008,-4.22051 18.26303,12.38999 7.46401,17.31035 -4.80973,2.19145 -6.88784,1.8373 -10.5175,-1.79238 z"
       id="path3291" />
    <path
       style="fill:#ff00ff;stroke-width:1.33333"
       d="m 683.33335,446.01825 c 0,-2.94154 -4.1452,-4.4064 -6.31867,-2.23293 -2.24101,2.24101 -0.0305,5.78293 3.31271,5.30819 1.96689,-0.27931 3.00596,-1.34232 3.00596,-3.07526 z"
       id="path3293" />
    <path
       style="fill:#000000;stroke-width:1.33333"
       d="m 715.54,464.22833 c -5.24808,-5.79906 -0.81742,-16.22834 6.89427,-16.22834 7.96348,0 12.46331,10.43577 6.89908,16 -3.40473,3.40473 -10.80784,3.52729 -13.79335,0.22834 z"
       id="path3287" />
    <path
       style="fill:#ff00ff;stroke-width:1.33333"
       d="m 725.1931,459.50232 c 2.06188,-2.48443 0.44273,-6.169 -2.71091,-6.169 -2.86421,0 -4.50347,2.95068 -3.33333,6 0.95934,2.50001 4.03821,2.58611 6.04424,0.169 z"
       id="path3289" />
    <path
       style="fill:#000000;stroke-width:1.33333"
       d="m 763.51317,469.23655 c -2.54804,-2.00428 -3.51315,-3.99227 -3.51315,-7.23656 0,-4.89499 4.88741,-10 9.57375,-10 3.93297,0 9.09292,5.96369 9.09292,10.50929 0,4.27665 -5.12759,9.49071 -9.33334,9.49071 -1.26888,0 -3.88796,-1.24355 -5.82018,-2.76344 z"
       id="path3283" />
    <path
       style="fill:#ff00ff;stroke-width:1.33333"
       d="m 772.92517,463.14051 c 0.99472,-2.59216 -2.9459,-5.97136 -5.72142,-4.9063 -1.93194,0.74136 -2.54861,4.64312 -0.9815,6.21022 1.6917,1.69172 5.86492,0.8799 6.70292,-1.30392 z"
       id="path3285" />
    <path
       style="fill:#0000ff;stroke-width:1.33333"
       d="m 598.9746,505.25675 c 2.73589,-1.2485 3.47084,-2.35724 2.95587,-4.4592 -1.00006,-4.08186 -4.44863,-34.72384 -3.96266,-35.2098 0.585,-0.58502 6.84763,19.93265 9.55108,31.29132 2.0034,8.41737 2.67836,9.62341 5.70989,10.20269 4.40181,0.84112 15.81474,-0.92528 17.61592,-2.72645 2.79338,-2.79339 -9.20007,-38.68727 -19.94415,-59.68866 -4.70818,-9.20305 -8.95698,-14.95233 -18.22899,-24.66666 -19.83233,-20.77843 -26.30463,-28.2684 -33.72161,-39.02389 -6.17898,-8.96024 -11.89448,-19.64278 -10.50952,-19.64278 0.26192,0 4.43196,4.65 9.26677,10.33334 4.83481,5.68333 10.94099,12.73333 13.56928,15.66666 l 4.77871,5.33334 -0.44878,-16 c -0.34306,-12.2311 -1.30094,-19.10704 -4.06646,-29.19023 -1.98974,-7.25463 -3.88988,-13.63064 -4.22256,-14.16893 -0.33268,-0.53828 -5.56519,0.15925 -11.62779,1.55008 -14.52659,3.33256 -14.92349,3.49545 -13.38007,5.49152 0.7021,0.90798 1.63482,2.65916 2.07274,3.89149 0.62301,1.75319 -0.26098,1.52319 -4.0635,-1.05728 -5.20154,-3.52987 -10.68278,-3.80148 -9.78726,-0.485 0.29232,1.08259 1.35873,4.96835 2.36978,8.63501 1.84298,6.68371 1.30004,15.97284 -1.01729,17.40504 -0.67876,0.4195 -1.21732,-2.54578 -1.21732,-6.7025 0,-12.97242 -5.03703,-20.66206 -11.58129,-17.68028 -1.69696,0.77318 -3.08538,1.86678 -3.08538,2.43022 0,0.56344 2.3786,10.81714 5.28579,22.78598 9.68068,39.85533 15.53175,77.09279 17.14189,109.09487 l 0.90566,18 8,1.70194 c 7.73385,1.64532 22.63617,1.43966 24.41272,-0.33688 0.4778,-0.4778 1.1804,-8.1804 1.56133,-17.11688 l 0.69261,-16.24818 1,12.53816 c 0.55,6.896 1,16.7326 1,21.85912 v 9.32096 l 9.66667,-0.73324 c 5.31667,-0.40329 11.30523,-1.48098 13.30792,-2.3949 z"
       id="path3279" />
    <path
       style="fill:#0000ff;stroke-width:1.33333"
       d="m 565.0616,535.18767 c 4.44501,-0.889 4.33977,-0.52344 6.39981,-22.22899 l 0.85811,-9.04129 -5.82643,0.98717 c -7.20829,1.22132 -9.23534,1.22597 -18.70692,0.0429 l -7.54717,-0.94269 -0.85179,11.66428 c -0.46848,6.41535 -1.1222,12.96851 -1.4527,14.56259 -0.53298,2.57061 0.19054,3.04266 6.39896,4.17493 8.68257,1.58351 15.44242,1.83824 20.72813,0.78109 z"
       id="path3277" />
    <path
       style="fill:#0000ff;stroke-width:1.33333"
       d="m 600.52631,540.67277 c 5.05612,-1.07117 9.36516,-2.1198 9.57564,-2.33028 0.21048,-0.21048 -1.21458,-6.57146 -3.1668,-14.13552 l -3.5495,-13.75281 -4.02616,0.7844 c -2.21437,0.43143 -8.07614,1.15987 -13.02614,1.61875 l -9,0.83432 v 13.70973 c 0,9.72023 0.485,13.90544 1.66666,14.38225 3.20896,1.29484 12.41288,0.81988 21.5263,-1.11084 z"
       id="path3275" />
    <path
       style="fill:#0000ff;stroke-width:1.33333"
       d="m 641.83434,542.93473 c 0.36209,-0.58589 -1.3318,-7.63589 -3.76423,-15.66666 -3.84375,-12.69031 -4.79219,-14.58895 -7.24635,-14.50618 -1.55305,0.0524 -6.35166,0.20238 -10.66356,0.33334 l -7.83981,0.23809 1.84527,9.66667 c 2.89022,15.1408 3.79716,17.55326 7.26064,19.31368 3.58636,1.82286 19.36845,2.30314 20.40804,0.62106 z"
       id="path3273" />
    <path
       style="fill:#aa4400;stroke-width:1.33333"
       d="m 407.14456,550.10098 c 1.16485,-1.77778 6.09694,-5.19121 10.9602,-7.58538 10.72138,-5.27812 10.15132,-5.63929 -12.17148,-7.71153 -8.7633,-0.81351 -18.03327,-1.82362 -20.59994,-2.24468 -4.62449,-0.75867 -4.69266,-0.69839 -7.54426,6.67084 l -2.87759,7.43642 h 8.33455 c 6.31818,0 9.75621,0.78246 14.21093,3.23427 7.38787,4.06617 7.15753,4.06142 9.68759,0.20006 z"
       id="path3271" />
    <path
       style="fill:#ff0000;stroke-width:1.33333"
       d="m 523.58729,544.3536 c 4.67736,-7.98132 6.91356,-17.52789 7.89087,-33.68695 0.90744,-15.00405 -1.10243,-49.35942 -4.19544,-71.71392 -6.11115,-44.16793 -29.3002,-135.44342 -41.84576,-164.71103 -2.02059,-4.71381 -3.80568,-6.44769 -9.62545,-9.34925 -3.92966,-1.9592 -10.08142,-5.81151 -13.67058,-8.56066 -12.65619,-9.69414 -11.76515,-9.36074 -9.3386,-3.49434 1.17449,2.8394 7.02444,14.46254 12.99989,25.82921 l 10.86446,20.66667 0.66667,-12 0.66666,-12 4.99998,20 c 8.78581,35.14343 10.33336,45.65513 10.33336,70.18941 0,32.32677 -3.83722,65.83582 -9.38582,81.9631 -2.87378,8.3528 -10.88419,19.31977 -25.44116,34.83124 -7.22805,7.70199 -11.092,13.08009 -12.93224,18 l -2.62436,7.01624 8.49609,0.88701 c 15.89635,1.65963 24.57347,5.81042 38.88626,18.6016 10.01347,8.94894 15.63747,12.39752 18.45491,11.31638 3.30924,-1.26988 1.9487,-5.25398 -4.82811,-14.13832 -8.62787,-11.31106 -11.23464,-19.02335 -11.26679,-33.33334 -0.0216,-9.62469 0.61076,-12.94146 4.19454,-22 4.67117,-11.80713 8.44668,-29.45421 8.44668,-39.48062 0,-3.98401 0.59002,-6.51937 1.51717,-6.51937 2.68509,0 0.48873,36.17957 -2.95441,48.66666 -4.15674,15.075 -4.42456,19.05459 -2.05386,30.51809 2.41094,11.65804 5.34863,17.99858 12.06207,26.03404 5.37359,6.43176 5.99456,10.95351 2.76236,20.11454 -1.1,3.11773 -2,5.98615 -2,6.37427 0,1.74591 5.92621,-4.91109 8.92061,-10.02066 z"
       id="path3269" />
    <path
       style="fill:#aa4400;stroke-width:1.33333"
       d="m 548.54731,561.66665 c -3.01647,-13.21674 -4.8299,-17.66666 -7.19952,-17.66666 -1.35466,0 -3.34058,-0.33675 -4.41315,-0.74835 -1.32761,-0.50945 -2.43725,0.64896 -3.47604,3.62884 -1.78925,5.13264 -7.77143,11.78617 -10.59693,11.78617 -4.45991,0 0.22985,1.65153 11.335,3.99172 15.75322,3.31967 15.34113,3.34815 14.35064,-0.99172 z"
       id="path3267" />
    <path
       style="fill:#008080;stroke-width:1.33333"
       d="m 582.63969,597.85521 5.36032,-2.14477 0.0228,-9.5219 c 0.0126,-5.23704 1.20234,-14.02189 2.64387,-19.52189 3.63708,-13.87687 3.54767,-14.66431 -1.66667,-14.67825 -2.38333,-0.007 -7.45322,-0.38639 -11.26644,-0.84447 -6.09842,-0.7326 -7.02537,-1.25291 -7.6994,-4.32174 -0.72221,-3.2882 -1.22453,-3.48887 -8.73356,-3.48887 h -7.96726 v 5.45793 c 0,3.00187 1.24144,9.00187 2.75876,13.33333 2.1814,6.22719 2.66973,10.37291 2.33333,19.80891 l -0.42543,11.93351 4.53051,3.06649 c 5.38771,3.64669 12.48569,3.97204 20.10917,0.92172 z"
       id="path3263" />
    <path
       style="fill:#ffcc00;stroke-width:1.33333"
       d="m 628.99739,599.53821 c 1.12211,-2.46276 0.86404,-4.37781 -1.2128,-9 -1.45101,-3.22936 -4.6864,-13.33012 -7.18973,-22.44615 -3.98351,-14.50618 -7.08918,-21.09362 -8.2991,-17.60324 -0.30469,0.87898 2.05422,12.41838 8.39951,41.08896 0.35435,1.60112 1.84407,3.29194 3.31048,3.75736 2.04648,0.64952 2.47704,1.59995 1.85236,4.08887 -1.04045,4.14548 1.26431,4.22932 3.13928,0.11413 z"
       id="path3261" />
    <path
       style="fill:#ffcc00;stroke-width:1.33333"
       d="m 620.84275,601.66665 c -4.91976,-17.12599 -6.42721,-23.19644 -8.93977,-36 -2.50467,-12.7634 -3.31825,-15 -5.45627,-15 -2.64242,0 -4.81302,4.13812 -6.04996,11.53385 -0.68974,4.12392 1.25192,11.47448 8.48788,32.13282 3.32383,9.48936 3.47069,9.66666 8.00717,9.66666 3.76766,0 4.49744,-0.431 3.95095,-2.33333 z"
       id="path3259" />
    <path
       style="fill:#6c5d53;stroke-width:1.33333"
       d="m 601.51512,607.02321 c -1.98615,-3.68469 -8.06705,-8.91572 -9.12936,-7.85343 -0.52695,0.52696 -0.20887,1.97932 0.70684,3.22748 0.91572,1.24816 2.6364,4.52167 3.82376,7.27446 2.06359,4.78429 2.24064,4.88825 4.01391,2.35656 1.28192,-1.83019 1.46262,-3.37663 0.58485,-5.00507 z"
       id="path3257" />
    <path
       style="fill:#6c5d53;stroke-width:1.33333"
       d="m 595.99503,618.33332 c -0.008,-2.79056 -5.01007,-10.06918 -8.02996,-11.68538 -1.86478,-0.99798 -6.13676,-1.21452 -12.40468,-0.62872 -9.27971,0.86728 -9.71255,0.77247 -14.74371,-3.22953 -2.85084,-2.26767 -5.77403,-4.12304 -6.49597,-4.12304 -2.20375,0 2.34485,5.81029 7.14925,9.13233 4.01683,2.77747 5.53029,3.04258 13.35865,2.33996 7.58006,-0.68032 9.31311,-0.41128 12.25454,1.90244 1.88425,1.48216 3.80181,3.87918 4.26124,5.32672 0.91281,2.87604 4.65868,3.65347 4.65064,0.96522 z"
       id="path3255" />
    <path
       style="fill:#6c5d53;stroke-width:1.33333"
       d="m 586.44752,622.8587 3.11417,-0.87546 -2.87761,-3.6583 c -2.66367,-3.3863 -3.59449,-3.65829 -12.5198,-3.65829 -8.46541,0 -10.42749,-0.49803 -16.07687,-4.08076 -4.56386,-2.89431 -6.19037,-3.44408 -5.59437,-1.89095 0.46217,1.2044 0.84031,4.52358 0.84031,7.37598 0,4.7055 0.40161,5.30212 4.33333,6.43736 4.94763,1.42857 24.11553,1.66196 28.78084,0.35042 z"
       id="path3253" />
    <path
       style="fill:#6c5d53;stroke-width:1.33333"
       d="m 605.11835,627.95636 c -1.15068,-3.30083 -1.93395,-3.88272 -4.26398,-3.1677 -4.33028,1.32886 -4.4556,1.89034 -1.03998,4.65943 4.90865,3.97951 7.00564,3.38972 5.30396,-1.49173 z"
       id="path3251" />
    <path
       style="fill:#6c5d53;stroke-width:1.33333"
       d="m 567.19864,637.66665 c 0.87513,-6.8582 0.82389,-7 -2.52887,-7 -1.88213,0 -5.60892,-0.91372 -8.28172,-2.03049 -5.47825,-2.28896 -6.99818,-1.25706 -7.03429,4.77565 -0.0312,5.21447 2.84304,8.04263 10.06671,9.90527 3.61874,0.93309 6.64826,1.61848 6.73225,1.52306 0.084,-0.0955 0.55465,-3.32349 1.04592,-7.17349 z"
       id="path3249" />
    <path
       style="fill:#6c5d53;stroke-width:1.33333"
       d="m 609.858,655.66665 c 4.13218,-14.96792 4.09147,-31.00228 -0.0828,-32.60409 -3.82193,-1.46662 -3.75948,0.7265 0.30765,10.80366 0.90746,2.2484 0.58582,2.42648 -2.86362,1.58551 -2.13724,-0.52107 -6.11452,-2.40524 -8.8384,-4.18705 -4.61248,-3.01724 -5.43634,-3.13552 -12,-1.72272 -8.61192,1.85366 -11.71416,5.02421 -11.71416,11.97206 0,4.20728 0.58986,5.4429 3.04372,6.37586 1.67404,0.63646 6.02404,3.43902 9.66666,6.2279 6.53996,5.00716 13.78316,8.37643 18.25238,8.49035 1.65293,0.0421 2.83737,-1.90221 4.22856,-6.94148 z"
       id="path3247" />
    <path
       style="fill:#6c5d53;stroke-width:1.33333"
       d="m 643.83335,665.83332 c 5.02197,-1.0044 5.22724,-3.0807 0.92983,-9.40491 l -3.23684,-4.76344 -1.49566,5.83417 c -0.82261,3.2088 -1.7472,6.58418 -2.05465,7.50084 -0.63661,1.89812 0.0471,1.99539 5.85732,0.83334 z"
       id="path3245" />
    <path
       style="fill:#ffcc00;stroke-width:1.33333"
       d="m 627.65982,672.99998 c 5.95344,-7.519 10.36088,-38.00592 7.18617,-49.70786 -2.18167,-8.04162 -4.04888,-9.7362 -11.82831,-10.73475 l -6.98232,-0.89625 2.27972,4.50277 c 4.68256,9.24865 3.6958,29.02047 -2.40077,48.10437 -1.41953,4.44351 -2.58096,8.60095 -2.58096,9.23875 0,1.81648 12.84673,1.36182 14.32647,-0.50703 z"
       id="path3243" />
    <path
       style="fill:#aa4400;stroke-width:1.33333"
       d="m 861.79941,694.88833 c 1.21697,-1.34475 3.09041,-5.40064 4.1632,-9.01308 1.33542,-4.49688 3.84929,-8.4316 7.97178,-12.47752 7.04898,-6.91804 9.54123,-13.59856 10.49309,-28.12672 0.98753,-15.07308 12.63129,-45.07476 20.9334,-53.93769 4.84661,-5.17402 6.97544,-13.34363 7.01074,-26.90458 0.0348,-13.36072 -2.196,-21.85031 -6.84629,-26.05447 -1.93892,-1.75291 -8.02531,-4.57846 -13.52531,-6.279 -12.44332,-3.84734 -17.69515,-6.48806 -32,-16.09024 -14.79572,-9.93168 -17.25829,-11.1398 -32.85196,-16.11706 -7.23143,-2.30814 -17.00649,-5.93873 -21.72239,-8.06797 -4.71588,-2.12923 -8.99213,-3.40979 -9.50277,-2.84567 -0.51063,0.56411 -1.98296,4.32566 -3.27183,8.35899 -1.28888,4.03333 -4.06794,11.17803 -6.17569,15.87709 -2.10776,4.69907 -3.58811,8.78794 -3.28968,9.08638 2.10797,2.10796 21.52791,7.32821 33.52885,9.01284 14.00935,1.96656 30.56999,5.85028 29.50168,6.9186 -0.28772,0.2877 -4.65406,-0.0773 -9.703,-0.8113 -5.04893,-0.73392 -15.58988,-1.9751 -23.42432,-2.7582 -7.91088,-0.79073 -18.4564,-2.85638 -23.71728,-4.64573 l -9.47282,-3.22191 -3.85866,6.27111 c -2.12226,3.44912 -3.87509,6.87112 -3.89517,7.60445 -0.104,3.7964 25.00943,8.68935 51.18837,9.97325 19.51604,0.95714 22.41186,1.43504 33.99406,5.61007 l 12.6607,4.56381 0.85883,6.00391 c 0.47235,3.30216 2.17236,9.05732 3.7778,12.78927 2.67831,6.22588 2.75473,7.09896 0.92693,10.58917 -5.44261,10.39285 -11.43845,13.83415 -25.08681,14.39848 -6.12233,0.25316 -12.33151,0.94531 -13.79817,1.53811 -2.51152,1.01512 -2.47274,1.13184 0.66666,2.0063 1.83334,0.51067 5.58334,0.9883 8.33334,1.06139 2.75,0.0731 5,0.73291 5,1.46624 0,0.78591 -4.7253,1.33333 -11.50923,1.33333 -11.46989,0 -11.52459,0.0163 -16,4.7616 -2.46993,2.61888 -4.49077,5.31888 -4.49077,6 0,0.68112 2.85,1.27298 6.33333,1.31524 3.48333,0.0423 8.73333,0.52454 11.66667,1.07171 4.49238,0.83801 3.12585,1.15432 -8.66667,2.00603 -11.54495,0.83384 -14.52608,1.50501 -17,3.82737 -3.81184,3.57833 -3.84188,6.35139 -0.0688,6.35139 1.61215,0 8.06108,1.5647 14.33093,3.47713 l 11.39976,3.47715 2.66906,-3.75082 c 1.46797,-2.06294 4.92816,-6.17765 7.68929,-9.1438 l 5.02025,-5.393 -4.02025,8.25855 c -4.44551,9.13217 -4.90959,13.12016 -1.97784,16.99629 2.53431,3.35066 2.47573,7.39626 -0.20405,14.0937 -2.13444,5.33449 -2.1064,5.52921 2.22805,15.47041 4.34879,9.97412 8.50335,16.51438 10.49039,16.51438 0.56645,0 2.02562,-1.10024 3.2426,-2.44498 z"
       id="path3237" />
    <path
       style="fill:#000000;stroke-width:1.33333"
       d="m 890.0799,588.08825 c -3.60788,-3.98667 -5.96889,-12.02253 -5.90213,-20.08827 l 0.0607,-7.33333 1.65953,6.00759 c 3.10413,11.2371 7.38556,15.99241 14.39871,15.99241 4.5117,0 4.66846,1.29512 0.61738,5.10092 -3.81798,3.5868 -7.77246,3.70385 -10.83418,0.32068 z"
       id="path3241" />
    <path
       style="fill:#000000;stroke-width:1.33333"
       d="m 870.73173,626.97128 c -0.0397,-3.47802 1.75181,-10.34495 4.60162,-17.63796 2.56667,-6.56843 4.66667,-12.55551 4.66667,-13.30463 0,-1.80773 1.76643,-1.72895 3.65856,0.16319 1.14474,1.14473 0.65239,3.22356 -1.97367,8.33333 -1.92438,3.74445 -5.16146,11.60811 -7.19352,17.47477 -3.607,10.4137 -3.69616,10.5316 -3.75966,4.9713 z"
       id="path3239" />
    <path
       style="fill:#552200;stroke-width:1.33333"
       d="m 837.40565,721.56327 c 7.59353,-4.82952 16.83876,-15.93414 15.15102,-18.19821 -0.67282,-0.90259 -3.44606,-4.57896 -6.16274,-8.16973 -2.7167,-3.59078 -5.97036,-9.94571 -7.2304,-14.12208 l -2.29096,-7.59342 -4.10294,2.86708 c -2.25662,1.5769 -6.71241,4.99392 -9.90177,7.5934 l -5.79881,4.72634 0.73053,8.13932 c 0.8642,9.62857 4.90844,20.9802 9.04228,25.38046 1.62599,1.73079 3.33428,3.14688 3.7962,3.14688 0.46193,0 3.50735,-1.69652 6.76759,-3.77004 z"
       id="path3235" />
    <path
       style="fill:#aa4400;stroke-width:1.33333"
       d="m 384.61496,757.39046 c 1.29886,-1.43523 6.34186,-3.91693 11.20665,-5.51489 11.11249,-3.65019 15.38589,-5.8031 18.8064,-9.47458 3.75728,-4.03297 3.42713,-4.84534 -2.16221,-5.32052 -3.46084,-0.29424 -5.65067,-1.46717 -7.57738,-4.05866 -1.49041,-2.00467 -2.45001,-3.82951 -2.13245,-4.05519 0.31756,-0.22569 7.757,-0.0855 16.53209,0.31151 l 15.95471,0.72185 0.97837,4 c 0.5381,2.2 1.3005,5.57268 1.69423,7.49485 1.01359,4.94828 12.02295,9.67543 22.75131,9.76883 l 8,0.0696 -0.0989,-5.44843 c -0.0567,-3.12208 -2.58717,-11.66161 -5.92649,-20 -7.40473,-18.48986 -14.26633,-25.83218 -31.68205,-33.90166 -27.83744,-12.89831 -40.41374,-20.92852 -57.38679,-36.64257 -14.60321,-13.52002 -16.92609,-22.97342 -7.9538,-32.36955 2.40979,-2.52361 9.48143,-8.05159 15.71476,-12.28439 17.13261,-11.63404 23.42855,-17.76394 27.84639,-27.11209 3.97386,-8.40868 10.17289,-28.66647 9.10034,-29.73901 -0.32602,-0.32604 -3.52242,1.71901 -7.10309,4.54454 l -6.51031,5.13734 -5.87398,-3.72046 c -15.2829,-9.67986 -26.00448,-9.59242 -32.83764,0.26783 -2.05831,2.97015 -6.64023,7.82647 -10.18204,10.79184 l -6.43967,5.3916 -0.0232,9.54251 c -0.0303,12.47581 -2.95075,25.88689 -7.97565,36.62486 -2.2261,4.75704 -4.29262,8.40402 -4.59226,8.10436 -0.29965,-0.29965 0.91841,-6.23925 2.70683,-13.1991 1.78841,-6.95986 3.64028,-18.29264 4.11527,-25.18396 l 0.86361,-12.52968 -3.21399,0.70548 c -2.45871,0.53969 -13.77095,4.97122 -24.86437,9.74054 -0.17438,0.0749 1.17562,6.02056 3,13.21246 3.5704,14.0749 4.3619,31.2547 1.92645,41.81408 -1.055,4.57417 -0.88648,6.67148 0.82607,10.2804 2.47124,5.20774 12.89057,15.30639 15.79245,15.30639 5.49339,0 7.75374,-11.71819 4.18819,-21.71265 -1.57611,-4.4179 -1.55669,-4.8439 0.15597,-3.42253 5.74758,4.77007 9.49238,19.77516 6.77434,27.14418 -0.8686,2.35491 0.0739,3.0459 7.86214,5.76402 12.47658,4.35436 14.99194,6.3737 19.31083,15.50294 4.54681,9.61096 4.60275,10.6241 1.07995,19.5615 -1.5037,3.8149 -2.5537,8.35304 -2.33334,10.08476 0.38248,3.00576 0.76303,2.8491 8.38948,-3.45355 4.39386,-3.63116 8.2372,-6.35376 8.54075,-6.0502 0.30356,0.30356 -2.43112,3.70859 -6.07704,7.56672 -10.34952,10.95191 -11.57283,13.34224 -10.49763,20.51217 l 0.92508,6.16887 4.89334,-4.63056 c 2.69134,-2.54681 7.28933,-6.37172 10.21777,-8.49979 4.81471,-3.4988 4.46368,-2.85768 -3.66667,6.69687 -8.19236,9.62745 -10.591,14.72291 -8.1022,17.21169 1.43242,1.43243 2.54983,1.0524 5.05939,-1.72062 z"
       id="path3233" />
    <path
       style="fill:#aa4400;stroke-width:1.33333"
       d="m 744.49519,772.43938 c 3.7084,-0.69971 3.80236,-0.91311 2.99514,-6.80245 -0.45835,-3.34404 -3.20557,-11.23038 -6.10491,-17.52518 -6.92186,-15.02812 -10.00595,-32.13322 -8.84638,-49.06413 0.46279,-6.75712 1.1835,-13.17707 1.60156,-14.26653 0.52003,-1.35519 -0.7181,-2.59851 -3.91985,-3.93628 -5.79616,-2.42179 -8.49945,-6.40951 -9.61148,-14.17816 l -0.85885,-6 4.04694,5.90343 c 5.49767,8.01965 7.55492,8.9913 10.26847,4.84991 1.99659,-3.04715 2.00627,-4.65781 0.11853,-19.70255 -4.14028,-32.9968 -4.11262,-36.01844 0.49154,-53.71746 2.62549,-10.09273 4.44265,-20.92272 4.92184,-29.33333 l 0.75965,-13.33333 6.66638,-5.33334 c 11.52961,-9.22407 20.72282,-24.18479 37.68873,-61.33333 l 1.82681,-4 -21.60297,-0.87538 c -32.93848,-1.33471 -58.69563,-5.74548 -92.26966,-15.80066 -20.12288,-6.02665 -25.95732,-8.03036 -34.082,-11.70469 -9.67572,-4.37577 -15.918,-6.8498 -15.918,-6.30885 0,0.27921 1.86851,5.4986 4.15224,11.59862 4.64282,12.40134 29.1811,85.21058 29.1811,86.58526 0,1.39902 -20.33042,6.5057 -25.90012,6.5057 -4.12023,0 -4.89818,0.40048 -4.21851,2.17167 0.45835,1.19442 1.51597,4.88261 2.35029,8.196 l 1.51695,6.02432 18.68104,-0.79896 c 12.74189,-0.54495 19.17697,-1.34908 20.24097,-2.52932 0.85796,-0.95171 2.29332,-4.31768 3.18968,-7.47994 1.60012,-5.64505 8.93388,-15.15449 13.62242,-17.66371 2.1074,-1.12786 2.02818,-0.4721 -0.69296,5.7366 -1.68979,3.8555 -4.10698,10.15998 -5.37152,14.00994 -2.2552,6.86605 -2.23618,7.24857 0.99502,20 1.81182,7.15004 5.72162,18.13184 8.68846,24.40401 7.46258,15.77662 9.01417,22.52331 7.09345,30.84428 -2.70385,11.71376 -1.97853,17.28947 3.80483,29.24872 8.80158,18.20056 7.45058,22.42169 -13.00504,40.63403 -14.00623,12.4702 -18.9066,17.89734 -16.09174,17.82153 0.9699,-0.0261 5.36344,-0.91675 9.76344,-1.97917 12.10522,-2.92292 14.38716,-2.23752 4.66667,1.40166 -15.06727,5.64092 -19.52955,8.54992 -21.13389,13.7774 -0.79539,2.59159 -1.25383,4.90432 -1.01876,5.13939 0.23506,0.23507 4.56557,-0.49483 9.62336,-1.622 5.05777,-1.12716 10.69596,-2.38144 12.52929,-2.78727 5.10963,-1.13109 1.55123,1.5171 -4.66667,3.47298 -8.77325,2.75968 -20.66666,9.21741 -20.66666,11.22132 0,1.02946 -0.36298,2.81764 -0.8066,3.97372 -0.66055,1.72134 0.76248,1.51137 7.8586,-1.1596 4.76585,-1.79387 11.66369,-3.65934 15.32853,-4.1455 l 6.66333,-0.88392 3.41242,-9.95157 c 4.29042,-12.51216 10.55533,-23.53919 11.2987,-19.88716 0.28244,1.38753 -1.09698,7.47371 -3.06538,13.52481 -4.9264,15.1444 -4.54099,16.59074 5.18889,19.47178 9.69005,2.86925 11.71836,4.80274 12.69209,12.09884 0.7049,5.28164 1.1167,5.7787 5.42942,6.55345 4.55205,0.81773 12.78126,0.38988 20.49517,-1.0656 z"
       id="path3227" />
    <path
       style="fill:#000000;stroke-width:1.33333"
       d="m 717.928,547.88347 c -0.66838,-1.08147 -0.1575,-2.24336 1.37814,-3.13434 13.29542,-7.71398 33.10696,-25.85696 37.48972,-34.33226 2.46491,-4.76662 3.50808,-4.80334 2.37369,-0.0836 -3.56037,14.81354 -23.36243,35.90524 -36.10195,38.45314 -2.655,0.531 -4.44804,0.21597 -5.1396,-0.903 z"
       id="path3231" />
    <path
       style="fill:#000000;stroke-width:1.33333"
       d="m 703.36614,605.13149 c -1.18176,-3.92232 -3.02875,-16.13151 -4.10443,-27.13151 -1.07567,-11 -2.43923,-23.40422 -3.03012,-27.56494 l -1.07436,-7.56495 3.6298,2.89828 c 4.70327,3.7554 5.15791,5.61517 5.27173,21.56495 0.0524,7.33333 0.5976,20.23333 1.21172,28.66666 0.61411,8.43334 0.9203,15.54252 0.68042,15.79818 -0.23987,0.25566 -1.40302,-2.74434 -2.58476,-6.66667 z"
       id="path3229" />
    <path
       style="fill:#aa4400;stroke-width:1.33333"
       d="m 250.50001,779.16665 c 5.60385,-1.12078 5.45428,-4.35004 -0.73952,-15.96574 -4.17706,-7.83354 -5.03302,-10.92137 -5.75962,-20.77746 -0.7306,-9.91047 -1.37441,-12.21316 -4.47344,-16 -13.36228,-16.32796 -15.26317,-19.70659 -20.85133,-37.06087 -4.85259,-15.06989 -5.40199,-17.94101 -4.13089,-21.58729 0.80634,-2.31309 1.85546,-11.899 2.33137,-21.302 0.66948,-13.22781 1.34704,-17.5102 2.99435,-18.92523 1.171,-1.00586 8.72908,-4.73465 16.79574,-8.28618 19.06504,-8.3938 27.92658,-13.6381 43.14071,-25.53086 6.86072,-5.36297 13.76072,-10.03598 15.33333,-10.38448 1.57262,-0.34849 6.90168,-1.53362 11.84238,-2.63364 11.71169,-2.60753 28.29968,-9.14645 35.00269,-13.79792 11.43302,-7.9338 20.93299,-23.35599 38.34998,-62.25709 9.12192,-20.37397 16.77302,-33.40665 23.08629,-39.32457 5.34917,-5.01419 4.9912,-3.50063 -0.94603,4 -5.87934,7.42749 -12.65404,23.61225 -15.59657,37.2602 -1.49335,6.92645 -2.46561,12.99737 -2.16057,13.49093 0.30504,0.49356 3.59064,1.30012 7.30133,1.79236 7.66728,1.01711 15.68616,3.49731 36.64647,11.33462 14.76441,5.52057 73.27475,22.78855 77.21612,22.78855 2.58865,0 3.00072,-7.83037 0.45055,-8.56155 -8.78084,-2.51766 -15.18596,-6.00452 -23.66667,-12.88383 -18.67798,-15.15105 -32.01552,-18.96592 -48.72588,-13.93684 -3.56567,1.07311 -6.72915,1.70499 -7.02996,1.40417 -1.07379,-1.07378 5.42514,-20.18586 9.98205,-29.35528 2.55111,-5.13333 6.99384,-11.75604 9.87275,-14.71713 2.8789,-2.96109 5.23437,-5.71612 5.23437,-6.12228 0,-0.40617 -2.52033,-1.4936 -5.60073,-2.41651 -12.15622,-3.64209 -19.6087,-11.68593 -23.04314,-24.87164 -1.0901,-4.18518 -2.14118,-7.72812 -2.33573,-7.87318 -0.19456,-0.14507 -10.40373,-2.23602 -22.68707,-4.64656 l -22.33333,-4.38282 v -6.97695 c 0,-15.16639 6.03496,-41.05956 13.39116,-57.45515 2.1682,-4.83249 3.94217,-9.10204 3.94217,-9.48787 0,-1.32494 -59.33444,0.63492 -67.33333,2.22407 -4.4,0.87415 -14.05622,4.54511 -21.45824,8.15769 l -13.45824,6.56834 -13.8751,-0.004 c -16.89568,-0.005 -31.62122,-2.47258 -55.62957,-9.32115 -23.18344,-6.61327 -34.42479,-8.51917 -45.16331,-7.65719 -24.54804,1.97048 -43.94966,22.78823 -59.94082,64.31592 -3.38864,8.8 -8.26149,21.4 -10.82856,28 -11.551696,29.69972 -36.384747,68.63895 -57.219574,89.7226 l -6.972656,7.05592 3.35983,1.27741 c 6.956599,2.6449 11.750011,0.56719 20.624058,-8.9395 10.161699,-10.88614 18.150801,-24.70922 40.716712,-70.44976 24.1583,-48.96827 32.44256,-63.48879 43.08193,-75.51336 9.44933,-10.67961 17.58737,-15.85597 24.69124,-15.70537 4.9616,0.1052 5.10597,0.20482 1.75768,1.21301 -16.93724,5.09988 -27.95804,21.49604 -49.74345,74.00572 -20.33854,49.02225 -32.667054,70.70594 -51.068226,89.82 l -9.45375,9.82001 12.982926,-0.52147 c 16.106923,-0.64694 20.133598,-2.82022 30.33301,-16.37137 9.10125,-12.09211 16.40464,-27.72041 30.63996,-65.56559 12.42882,-33.04257 18.3109,-45.90995 25.43298,-55.63618 5.9399,-8.1118 7.42474,-7.33413 1.82863,0.95772 -8.77364,13.00007 -11.97127,23.86336 -16.07271,54.60373 -2.59434,19.44463 -7.18374,36.80423 -11.48176,43.43023 l -2.07813,3.20373 6.20457,-0.85043 c 9.04271,-1.23944 20.51008,-7.14958 27.56946,-14.20897 8.10341,-8.1034 11.13148,-16.84813 10.08565,-29.12617 -2.43097,-28.53958 -2.44427,-30.27808 -0.3014,-39.41787 2.8512,-12.16096 9.22323,-23.84698 17.5478,-32.18192 14.25336,-14.27109 29.75408,-17.07978 47.00442,-8.51709 8.20054,4.07057 9.67953,4.42564 11.797,2.8322 2.76246,-2.07908 19.92445,-10.93748 21.18942,-10.93748 0.45927,0 -3.81022,4.33816 -9.48777,9.64036 -12.76793,11.92384 -22.25751,24.29797 -26.20399,34.16925 -2.61242,6.53443 -3.0021,9.89055 -2.96357,25.52372 0.0383,15.54777 0.63203,20.48388 4.35801,36.23233 l 4.31368,18.23234 -3.83536,8.43433 c -6.02184,13.24264 -22.9032,41.58849 -35.12448,58.97825 -19.53836,27.80132 -22.94156,31.8932 -31.46115,37.82776 -9.28652,6.46879 -11.51086,11.15784 -10.76736,22.69817 0.34683,5.38339 0.8359,6.32476 3.48063,6.69966 4.07615,0.57778 8.72007,-2.6161 13.79016,-9.48426 3.9552,-5.35786 4.10388,-5.43297 3.20405,-1.61858 -2.22626,9.43721 -9.7985,19.33333 -14.79336,19.33333 -2.72973,0 -4.61128,4.40309 -4.61128,10.79107 0,4.92909 0.7276,6.31466 5.82239,11.08765 5.72169,5.36028 12.68949,15.36366 18.13105,26.03001 2.50772,4.91553 2.5867,5.81308 0.87254,9.91565 -1.03663,2.481 -5.01019,7.9621 -8.83014,12.18022 -6.49621,7.17333 -11.8994,16.3922 -11.96656,20.4172 -0.0161,0.96532 3.42072,-0.91522 7.63739,-4.17896 13.37272,-10.35066 14.69161,-9.57143 3.33333,1.9694 -10.28188,10.44713 -11,11.54492 -11,16.81561 0,3.10135 0.31927,5.63881 0.7095,5.63881 0.39021,0 5.41893,-3.3 11.17493,-7.33333 5.756,-4.03333 10.87643,-7.33333 11.37875,-7.33333 0.50232,0 -3.9264,4.6548 -9.8416,10.34401 -9.77394,9.40051 -10.75491,10.80923 -10.75491,15.44444 0,2.80524 0.45,4.86943 1,4.58709 3.97055,-2.03824 24.09337,-11.42392 25.84823,-12.0561 1.96881,-0.7093 2.00349,-1.54332 0.3556,-8.55268 -1.72124,-7.32134 -1.34542,-16.43343 0.67778,-16.43343 0.505,0 1.63249,3.45829 2.50551,7.68509 1.94656,9.42428 4.36303,13.03911 10.71472,16.02832 4.54508,2.13899 5.79586,3.85162 10.92074,14.95326 0.5078,1.1 3.86045,2.6924 7.45034,3.53866 7.92619,1.8685 10.93935,2.04555 16.36042,0.96134 z"
       id="path3223" />
    <path
       style="fill:#000000;stroke-width:1.33333"
       d="m 223.49449,578.38182 c 17.3389,-18.33204 27.82882,-32.93907 32.09466,-44.69133 1.81916,-5.01173 3.87363,-15.62805 5.04551,-26.07233 2.18559,-19.47888 2.49987,-20.81061 8.66292,-36.7086 4.61607,-11.90744 6.24621,-13.5036 4.17352,-4.08649 -0.70739,3.21397 -2.54377,16.04358 -4.08087,28.51025 -4.2199,34.22575 -9.17212,47.02519 -25.4245,65.71193 -7.57999,8.71535 -22.68335,23.01344 -32.60451,30.86611 -1.45133,1.14874 4.00864,-4.93955 12.13327,-13.52954 z"
       id="path3225" />
    <path
       style="fill:#552200;stroke-width:1.33333"
       d="m 474.1486,789.88266 c 1.19141,-4.74695 1.19985,-11.82556 0.0247,-20.72095 l -0.99144,-7.50494 -6.64106,-0.88096 c -3.65258,-0.48454 -10.19846,-1.98816 -14.54638,-3.34139 l -7.90533,-2.46041 -3.01088,6.17965 c -1.97972,4.06325 -3.02241,8.67221 -3.04455,13.45765 l -0.0337,7.27799 7.39672,3.68025 c 7.64825,3.8054 19.71195,7.52264 24.91121,7.67601 2.12412,0.0627 3.22222,-0.89882 3.84066,-3.3629 z"
       id="path3221" />
    <path
       style="fill:#552200;stroke-width:1.33333"
       d="m 754.38621,810.77794 c 3.14573,-0.60824 6.11502,-1.50139 6.59841,-1.98479 1.30323,-1.30321 -1.89079,-12.28688 -6.3876,-21.96588 l -3.95187,-8.50604 -4.98924,0.8247 c -2.74407,0.45358 -10.23923,0.8313 -16.65589,0.83937 L 717.33335,780 l -0.009,3.66667 c -0.009,4.01332 2.86269,24.67051 3.55138,25.54082 1.85015,2.33804 24.13838,3.38257 33.51029,1.57047 z"
       id="path3219" />
    <path
       style="fill:#552200;stroke-width:1.33333"
       d="m 263.35533,812.38087 c -0.52358,-4.19052 -2.10094,-11.33908 -3.50524,-15.88572 l -2.5533,-8.2666 -15.6484,-0.44761 c -8.60661,-0.2462 -16.01454,0.0521 -16.46208,0.66296 -1.559,2.1278 -2.5473,21.2495 -1.18322,22.89312 0.73465,0.8852 5.68449,2.86668 10.99965,4.40329 11.56787,3.34427 14.34715,3.841 22.81756,4.07809 l 6.48697,0.18158 z"
       id="path3217" />
  </g>
</svg>
