<?xml version="1.0" encoding="UTF-8" standalone="no"?>
<!-- Created with Inkscape (http://www.inkscape.org/) -->

<svg
   version="1.1"
   id="svg60860"
   xml:space="preserve"
   width="1066.6667"
   height="1066.6667"
   viewBox="0 0 1066.6667 1066.6667"
   sodipodi:docname="dangerous-spider-pdv.svg"
   inkscape:version="1.1.2 (b8e25be833, 2022-02-05)"
   xmlns:inkscape="http://www.inkscape.org/namespaces/inkscape"
   xmlns:sodipodi="http://sodipodi.sourceforge.net/DTD/sodipodi-0.dtd"
   xmlns="http://www.w3.org/2000/svg"
   xmlns:svg="http://www.w3.org/2000/svg"><defs
     id="defs60864"><clipPath
       clipPathUnits="userSpaceOnUse"
       id="clipPath60874"><path
         d="M 0,800 H 800 V 0 H 0 Z"
         id="path60872" /></clipPath></defs><sodipodi:namedview
     id="namedview60862"
     pagecolor="#ffffff"
     bordercolor="#666666"
     borderopacity="1.0"
     inkscape:pageshadow="2"
     inkscape:pageopacity="0.0"
     inkscape:pagecheckerboard="0"
     showgrid="false"
     inkscape:zoom="0.77906244"
     inkscape:cx="533.33337"
     inkscape:cy="533.33337"
     inkscape:window-width="1920"
     inkscape:window-height="1018"
     inkscape:window-x="-8"
     inkscape:window-y="-8"
     inkscape:window-maximized="1"
     inkscape:current-layer="g60866" /><g
     id="g60866"
     inkscape:groupmode="layer"
     inkscape:label="dangerous-spider-pdv"
     transform="matrix(1.3333333,0,0,-1.3333333,0,1066.6667)"><g
       id="g60868"><g
         id="g60870"
         clip-path="url(#clipPath60874)"><path
           d="m 402.889,573.303 14.818,23.777 c 3.793,6.097 11.813,7.965 17.908,4.172 6.098,-3.793 7.965,-11.812 4.172,-17.908 l -14.818,-23.779 c -3.793,-6.096 -11.813,-7.963 -17.908,-4.171 -6.097,3.793 -7.964,11.812 -4.172,17.909 m 42.873,-36.935 c -3.569,-6.21 -1.428,-14.139 4.781,-17.706 6.209,-3.568 14.137,-1.427 17.705,4.782 l 19.445,33.704 c 4.963,8.603 6.409,18.28 4.659,27.328 -1.764,9.117 -6.711,17.591 -14.506,23.711 l -2.508,1.97 c -2.504,1.965 -4.168,4.56 -4.883,7.366 -0.719,2.816 -0.502,5.894 0.754,8.817 l 11.881,27.653 c 2.838,6.604 -0.215,14.257 -6.817,17.095 -6.603,2.838 -14.257,-0.214 -17.095,-6.817 l -11.881,-27.653 c -3.59,-8.355 -4.18,-17.263 -2.076,-25.506 2.103,-8.25 6.888,-15.793 14.041,-21.407 l 2.506,-1.97 c 2.726,-2.139 4.445,-5.048 5.043,-8.144 0.611,-3.165 0.115,-6.538 -1.606,-9.52 z m 13.14,-26.224 c -4.693,-5.423 -4.099,-13.624 1.323,-18.317 5.421,-4.691 13.623,-4.099 18.316,1.323 l 44.988,51.871 c 5.631,6.49 9.782,13.518 12.465,21.106 2.674,7.568 3.858,15.629 3.561,24.203 l -0.551,15.722 c -0.199,5.755 0.672,11.11 2.592,16.011 1.91,4.872 4.894,9.371 8.935,13.439 l 71.981,72.481 c 4.709,4.743 8.509,9.777 11.498,15.296 2.982,5.502 5.121,11.415 6.515,17.931 l 0.811,3.787 c 1.488,7.025 -2.998,13.927 -10.022,15.416 -7.025,1.489 -13.925,-2.998 -15.416,-10.022 l -0.812,-3.788 c -0.869,-4.062 -2.172,-7.696 -3.969,-11.012 -1.785,-3.298 -4.107,-6.358 -7.021,-9.292 l -71.981,-72.481 c -6.607,-6.652 -11.533,-14.113 -14.736,-22.292 -3.195,-8.15 -4.647,-16.943 -4.32,-26.287 l 0.546,-15.723 c 0.184,-5.279 -0.525,-10.187 -2.132,-14.74 -1.602,-4.531 -4.129,-8.783 -7.582,-12.762 z m 11.244,-30.132 44.7,24.069 c 7.15,3.851 12.978,8.819 17.375,14.757 4.363,5.896 7.398,12.917 8.998,20.911 l 4.129,20.644 c 2.238,11.19 6.539,21.262 12.802,30.072 6.217,8.742 14.329,16.101 24.225,21.929 l 41.281,24.301 c 7.375,4.342 14.639,7.719 22.215,10.276 7.658,2.581 15.473,4.3 23.873,5.3 l 27.908,3.321 c 1.901,0.227 3.5,0.573 4.866,1.061 v 0.051 c 1.533,0.548 2.988,1.275 4.439,2.205 h 0.053 l 10.437,6.68 c 6.041,3.849 14.059,2.072 17.908,-3.968 3.848,-6.041 2.073,-14.059 -3.968,-17.909 l -10.403,-6.657 0.016,-0.022 c -3.229,-2.066 -6.416,-3.665 -9.732,-4.85 l -0.016,0.045 c -3.477,-1.246 -6.934,-2.05 -10.547,-2.481 l -27.906,-3.321 c -6.789,-0.808 -12.91,-2.133 -18.684,-4.08 -5.855,-1.974 -11.523,-4.617 -17.334,-8.037 l -41.279,-24.301 c -6.656,-3.919 -12.074,-8.819 -16.188,-14.605 -4.066,-5.718 -6.896,-12.45 -8.427,-20.097 l -4.127,-20.645 c -2.342,-11.698 -6.959,-22.205 -13.68,-31.289 -6.691,-9.042 -15.391,-16.514 -25.922,-22.184 l -44.701,-24.07 c -6.32,-3.4 -14.203,-1.031 -17.602,5.291 -3.4,6.321 -1.031,14.204 5.291,17.603 m -20.964,-50.841 c -4.532,0.151 -9.014,-2.073 -11.541,-6.219 -3.737,-6.125 -1.801,-14.121 4.322,-17.858 l 71.629,-43.955 c 5.373,-3.296 9.929,-7.094 13.779,-11.519 3.858,-4.429 6.994,-9.472 9.518,-15.251 L 583.182,228.41 c 2.683,-6.14 5.808,-11.619 9.566,-16.691 3.76,-5.077 8.082,-9.655 13.164,-13.997 l 24.135,-20.63 c 1.244,-1.066 2.258,-2.152 3.08,-3.305 0.82,-1.157 1.5,-2.454 2.08,-3.939 l 1.973,-5.079 c 2.588,-6.688 10.103,-10.013 16.791,-7.428 6.687,2.584 10.013,10.101 7.427,16.788 l -1.976,5.079 c -1.377,3.545 -3.055,6.713 -5.131,9.638 -2.076,2.924 -4.496,5.542 -7.353,7.987 l -24.133,20.629 c -3.621,3.094 -6.645,6.277 -9.198,9.724 -2.554,3.448 -4.716,7.257 -6.615,11.605 l -46.293,105.956 c -3.65,8.353 -8.16,15.615 -13.689,21.969 -5.535,6.362 -12.114,11.837 -19.885,16.606 l -59.992,36.814 69.322,23.107 c 7.832,2.611 15.586,3.63 23.217,3.062 7.547,-0.564 15.045,-2.731 22.453,-6.499 l 76.133,-38.736 c 5.939,-3.021 11.816,-5.26 17.951,-6.795 6.012,-1.505 12.252,-2.289 19.033,-2.422 l 17.893,-0.358 c 7.164,-0.141 13.088,5.553 13.226,12.719 0.141,7.165 -5.554,13.089 -12.716,13.227 L 695.75,417.8 c -4.641,0.093 -8.977,0.644 -13.232,1.709 -4.135,1.035 -8.217,2.606 -12.457,4.763 l -76.133,38.734 c -10.492,5.339 -21.289,8.424 -32.323,9.246 -10.951,0.815 -22.068,-0.645 -33.291,-4.384 l -70.556,-23.52 c -6.401,-2.115 -10.045,-8.738 -8.576,-15.177"
           style="fill:#663300;fill-opacity:1;fill-rule:evenodd;stroke:none"
           id="path60876" /><path
           d="m 719.477,666.645 14.111,-21.167 c -0.652,-0.654 -1.389,-1.248 -2.201,-1.766 l -10.403,-6.657 0.016,-0.022 c -3.229,-2.066 -6.416,-3.665 -9.732,-4.85 l -0.016,0.045 c -3.477,-1.246 -6.934,-2.05 -10.547,-2.481 l -27.906,-3.321 c -6.789,-0.808 -12.91,-2.133 -18.684,-4.08 -5.855,-1.974 -11.523,-4.617 -17.334,-8.037 l -12.117,-7.134 -10.25,24.079 9.242,5.441 c 7.375,4.342 14.639,7.719 22.215,10.276 7.658,2.581 15.473,4.3 23.873,5.3 l 27.908,3.321 c 1.901,0.227 3.5,0.573 4.866,1.061 v 0.051 c 1.533,0.548 2.988,1.275 4.439,2.205 h 0.053 l 10.437,6.68 c 0.657,0.418 1.336,0.769 2.03,1.056 m -100.461,89.815 22.336,-11.391 -0.016,-0.072 -0.811,-3.787 c -1.394,-6.516 -3.533,-12.429 -6.515,-17.931 -2.989,-5.519 -6.789,-10.553 -11.498,-15.296 l -33.961,-34.199 -17.981,18.758 33.526,33.757 c 2.914,2.934 5.236,5.994 7.021,9.292 1.797,3.316 3.1,6.95 3.969,11.012 l 0.812,3.788 c 0.498,2.35 1.604,4.416 3.118,6.069 m -3.647,-333.567 42.889,-21.823 c 5.939,-3.021 11.816,-5.26 17.951,-6.795 6.012,-1.505 12.252,-2.289 19.033,-2.422 l 17.893,-0.358 c 0.385,-0.007 0.769,0.003 1.146,0.029 l -0.211,25.902 c -0.142,0.007 -0.285,0.013 -0.425,0.015 L 695.75,417.8 c -4.641,0.093 -8.977,0.644 -13.232,1.709 -4.135,1.035 -8.217,2.606 -12.457,4.763 L 617.76,450.881 Z M 563.068,274.444 583.182,228.41 c 2.683,-6.14 5.808,-11.619 9.566,-16.691 3.76,-5.077 8.082,-9.655 13.164,-13.997 l 24.135,-20.63 c 1.244,-1.066 2.258,-2.152 3.08,-3.305 0.82,-1.157 1.5,-2.454 2.08,-3.939 l 1.973,-5.079 c 0.482,-1.248 1.138,-2.376 1.924,-3.373 l 23.027,6.125 c 0.324,2.159 0.109,4.427 -0.733,6.608 l -1.976,5.079 c -1.377,3.545 -3.055,6.713 -5.131,9.638 -2.076,2.924 -4.496,5.542 -7.353,7.987 l -24.133,20.629 c -3.621,3.094 -6.645,6.277 -9.198,9.724 -2.554,3.448 -4.716,7.257 -6.615,11.605 l -22.396,51.26 z"
           style="fill:#af7c45;fill-opacity:1;fill-rule:evenodd;stroke:none"
           id="path60878" /><path
           d="m 408.602,574.48 14.816,23.779 c 1.826,2.928 5.711,3.839 8.643,2.016 2.923,-1.82 3.837,-5.708 2.013,-8.632 l -14.816,-23.779 c -1.826,-2.927 -5.711,-3.841 -8.641,-2.016 -2.926,1.819 -3.838,5.707 -2.015,8.632 m 42.988,-36.738 19.445,33.704 c 2.471,4.282 3.322,9.306 2.383,14.16 -0.936,4.842 -3.621,9.123 -7.492,12.161 l -2.508,1.97 c -5.75,4.515 -9.867,10.682 -11.676,17.778 -1.806,7.086 -1.142,14.475 1.74,21.185 l 11.881,27.652 c 1.364,3.175 5.078,4.654 8.25,3.291 3.176,-1.366 4.657,-5.079 3.291,-8.254 l -11.881,-27.653 c -1.781,-4.148 -2.209,-8.753 -1.091,-13.137 1.119,-4.386 3.697,-8.21 7.25,-10.997 l 2.507,-1.97 c 6.274,-4.928 10.538,-11.861 12.053,-19.696 1.506,-7.797 0.084,-15.817 -3.881,-22.686 l -19.443,-33.703 c -1.721,-2.983 -5.531,-4.028 -8.522,-2.312 -2.976,1.712 -4.025,5.528 -2.306,8.507 m 12.396,-27.271 44.989,51.871 c 3.839,4.423 6.888,9.399 8.841,14.929 1.961,5.547 2.723,11.348 2.518,17.217 l -0.549,15.724 c -0.281,8.092 0.901,16.044 3.86,23.597 2.97,7.577 7.519,14.238 13.244,20.004 l 71.982,72.481 c 3.211,3.234 5.99,6.816 8.164,10.83 2.184,4.03 3.674,8.331 4.633,12.808 l 0.812,3.787 c 0.725,3.385 4.043,5.567 7.438,4.848 3.367,-0.714 5.561,-4.047 4.838,-7.421 l -0.813,-3.788 c -1.211,-5.65 -3.093,-11.048 -5.851,-16.135 -2.764,-5.101 -6.268,-9.644 -10.354,-13.759 l -71.982,-72.481 c -4.494,-4.525 -8.096,-9.776 -10.426,-15.726 -2.342,-5.976 -3.273,-12.3 -3.051,-18.701 l 0.547,-15.722 c 0.26,-7.42 -0.701,-14.716 -3.18,-21.726 -2.482,-7.025 -6.326,-13.318 -11.201,-18.939 l -44.99,-51.87 c -2.254,-2.599 -6.221,-2.897 -8.826,-0.643 -2.598,2.247 -2.895,6.218 -0.643,8.815 m 245.262,146.618 v -0.436 l -4.461,-1.598 c -2.043,-0.731 -4.189,-1.152 -6.342,-1.408 l -27.904,-3.322 c -7.686,-0.915 -15.18,-2.52 -22.518,-4.994 -7.341,-2.476 -14.279,-5.771 -20.953,-9.698 l -41.279,-24.302 c -8.719,-5.133 -16.281,-11.767 -22.154,-20.028 -5.875,-8.264 -9.701,-17.561 -11.69,-27.492 l -4.129,-20.644 c -1.705,-8.524 -5.002,-16.588 -10.189,-23.596 -5.191,-7.015 -11.924,-12.55 -19.592,-16.677 l -44.699,-24.07 c -3.051,-1.642 -4.195,-5.437 -2.555,-8.489 1.639,-3.048 5.436,-4.193 8.485,-2.553 l 44.701,24.071 c 9.312,5.013 17.398,11.746 23.699,20.261 6.311,8.524 10.412,18.219 12.49,28.606 l 4.129,20.644 c 1.631,8.154 4.711,15.883 9.541,22.678 4.834,6.801 11.086,12.279 18.26,16.504 l 41.279,24.301 c 5.918,3.486 12.082,6.419 18.596,8.615 6.516,2.198 13.219,3.573 20.041,4.385 l 27.904,3.323 c 3.115,0.37 6.123,1.076 9.076,2.132 l 1.756,0.63 c 1.805,0.751 3.541,1.64 5.221,2.639 l 11.799,7.549 c 2.892,1.85 3.767,5.72 1.918,8.621 -1.84,2.888 -5.711,3.766 -8.604,1.917 z m -256.83,-230.024 -3.463,0.117 c -2.258,0.075 -4.389,-1.063 -5.568,-2.997 -1.801,-2.953 -0.842,-6.812 2.097,-8.616 l 71.627,-43.954 c 5.741,-3.521 10.91,-7.751 15.338,-12.837 4.43,-5.088 7.91,-10.799 10.608,-16.978 L 589.35,235.843 c 2.38,-5.451 5.261,-10.594 8.806,-15.379 3.539,-4.776 7.614,-9.026 12.129,-12.887 l 24.133,-20.629 c 1.574,-1.346 2.998,-2.841 4.199,-4.527 1.184,-1.674 2.119,-3.486 2.862,-5.397 l 1.976,-5.079 c 1.25,-3.215 4.865,-4.835 8.09,-3.589 3.209,1.241 4.828,4.86 3.582,8.072 l -1.977,5.08 c -1.129,2.902 -2.545,5.639 -4.349,8.181 -1.791,2.525 -3.885,4.754 -6.238,6.765 l -24.133,20.629 c -3.797,3.246 -7.254,6.815 -10.231,10.831 -2.97,4.012 -5.381,8.351 -7.375,12.919 l -46.293,105.956 c -3.215,7.358 -7.32,14.179 -12.599,20.245 -5.284,6.073 -11.477,11.086 -18.327,15.287 l -72.304,44.371 z m 4.857,1.619 -1.531,6.719 c -0.711,3.125 1.111,6.287 4.143,7.298 l 70.556,23.519 c 9.926,3.308 20.207,4.837 30.662,4.057 10.469,-0.78 20.428,-3.779 29.772,-8.532 l 76.133,-38.734 c 4.435,-2.257 9.041,-4.084 13.875,-5.293 4.836,-1.211 9.748,-1.81 14.732,-1.909 l 17.893,-0.359 c 3.449,-0.068 6.191,-2.915 6.121,-6.365 -0.067,-3.45 -2.914,-6.19 -6.361,-6.123 l -17.895,0.359 c -5.926,0.117 -11.777,0.781 -17.531,2.221 -5.762,1.442 -11.242,3.575 -16.535,6.267 l -76.131,38.735 c -7.836,3.985 -16.221,6.557 -25.006,7.211 -8.803,0.656 -17.486,-0.601 -25.846,-3.388 z"
           style="fill:#8a4b0c;fill-opacity:1;fill-rule:evenodd;stroke:none"
           id="path60880" /><path
           d="m 570.221,279.627 10.369,7.52 20.234,-46.314 c 1.994,-4.568 4.405,-8.907 7.375,-12.919 2.977,-4.016 6.434,-7.585 10.231,-10.831 l 24.133,-20.629 c 2.353,-2.011 4.447,-4.24 6.238,-6.765 1.804,-2.542 3.22,-5.279 4.349,-8.181 l 1.977,-5.08 c 1.246,-3.212 -0.373,-6.831 -3.582,-8.072 -3.225,-1.246 -6.84,0.374 -8.09,3.589 l -1.976,5.079 c -0.743,1.911 -1.678,3.723 -2.862,5.397 -1.201,1.686 -2.625,3.181 -4.199,4.527 l -24.133,20.629 c -4.515,3.861 -8.59,8.111 -12.129,12.887 -3.545,4.785 -6.426,9.928 -8.806,15.379 z m 150.662,384.908 6.924,-10.384 -0.047,-0.031 -11.799,-7.549 c -1.68,-0.999 -3.416,-1.888 -5.221,-2.639 l -1.756,-0.63 c -2.953,-1.056 -5.961,-1.762 -9.076,-2.132 l -27.904,-3.323 c -6.822,-0.812 -13.525,-2.187 -20.041,-4.385 -6.514,-2.196 -12.678,-5.129 -18.596,-8.615 l -12.974,-7.638 -4.934,11.587 11.611,6.837 c 6.674,3.927 13.612,7.222 20.953,9.698 7.338,2.474 14.832,4.079 22.518,4.994 l 27.904,3.322 c 2.153,0.256 4.299,0.677 6.342,1.408 l 4.461,1.598 v 0.436 z m -98.158,90.033 11.505,-5.868 -0.287,-1.342 c -1.211,-5.65 -3.093,-11.048 -5.851,-16.135 -2.764,-5.101 -6.268,-9.644 -10.354,-13.759 l -36.158,-36.408 -8.66,9.037 35.951,36.201 c 3.211,3.234 5.99,6.816 8.164,10.83 2.184,4.03 3.674,8.331 4.633,12.808 l 0.812,3.787 c 0.061,0.293 0.145,0.575 0.245,0.849 m -5.196,-306.383 49.481,-25.174 c 4.435,-2.257 9.041,-4.084 13.875,-5.293 4.836,-1.211 9.748,-1.81 14.732,-1.909 l 17.893,-0.359 c 0.195,-0.003 0.386,-0.016 0.576,-0.038 l 0.102,-12.4 c -0.301,-0.038 -0.608,-0.054 -0.918,-0.05 l -17.895,0.359 c -5.926,0.117 -11.777,0.781 -17.531,2.221 -5.762,1.442 -11.242,3.575 -16.535,6.267 l -44.932,22.862 z"
           style="fill:#cc9b66;fill-opacity:1;fill-rule:evenodd;stroke:none"
           id="path60882" /><path
           d="m 595.99,620.407 14.416,-21.625 -14.904,-8.774 c -6.656,-3.919 -12.074,-8.819 -16.188,-14.605 -0.689,-0.969 -1.345,-1.969 -1.96,-2.997 l -12.37,26.323 c 4.981,5.208 10.787,9.776 17.391,13.665 z m -48.082,49.315 19.703,-17.021 -17.08,-17.199 c -1.109,-1.119 -2.142,-2.27 -3.093,-3.452 l -20.256,16.266 c 1.523,1.891 3.168,3.725 4.933,5.502 z m 12.928,-223.518 c 7.152,-0.689 14.262,-2.824 21.289,-6.398 l 16.732,-8.513 5.971,26.166 -10.9,5.547 c -9.051,4.604 -18.324,7.532 -27.782,8.777 z m -29.951,-101.07 c 2.304,-3.277 4.295,-6.853 6.004,-10.765 l 13.564,-31.048 20.924,16.986 -10.678,24.44 c -2.982,6.825 -6.537,12.921 -10.756,18.388 z"
           style="fill:#f5df3b;fill-opacity:1;fill-rule:evenodd;stroke:none"
           id="path60884" /><path
           d="m 567.484,317.147 -10.08,-8.183 -14.347,32.836 c -1.502,3.441 -3.246,6.734 -5.264,9.857 l 9.26,8.745 c 2.92,-4.269 5.388,-8.825 7.478,-13.613 z m 29.977,301.054 6.937,-10.407 -12.31,-7.248 c -7.174,-4.225 -13.426,-9.703 -18.26,-16.504 -0.394,-0.556 -0.779,-1.119 -1.15,-1.687 l -6.039,12.853 c 5.365,6.477 11.853,11.826 19.152,16.123 z m -46.979,49.298 9.493,-8.199 -14.219,-14.317 c -2.139,-2.154 -4.074,-4.47 -5.766,-6.949 l -9.791,7.859 c 1.992,2.806 4.233,5.446 6.69,7.92 z M 565.73,469.785 c 8.788,-1.218 17.188,-3.991 25.147,-8.04 l 13.377,-6.807 -2.885,-12.634 -16.191,8.24 c -6.94,3.529 -14.309,5.949 -22.006,6.912 z"
           style="fill:#fcea60;fill-opacity:1;fill-rule:evenodd;stroke:none"
           id="path60886" /><path
           d="m 675.203,652.92 16.19,-24.281 -18.594,-2.213 c -6.789,-0.808 -12.91,-2.133 -18.684,-4.08 -1.941,-0.654 -3.861,-1.382 -5.773,-2.188 l -11.047,23.512 c 2.828,1.226 5.68,2.322 8.576,3.301 7.658,2.581 15.473,4.3 23.873,5.3 z m -72.113,72.367 19.703,-17.019 -0.281,-0.285 -20.764,-20.909 -20.365,16.355 z m 27.185,-309.977 27.983,-14.24 c 2.197,-1.117 4.385,-2.129 6.58,-3.035 l 2.666,27.538 -35.26,17.94 z m -49.798,-180.706 2.705,-6.194 c 2.683,-6.14 5.808,-11.619 9.566,-16.691 2.66,-3.59 5.6,-6.931 8.891,-10.116 l 30.289,8.058 -9.123,7.801 c -3.621,3.094 -6.645,6.277 -9.198,9.724 -2.554,3.448 -4.716,7.257 -6.615,11.605 l -1.215,2.777 z"
           style="fill:#e67241;fill-opacity:1;fill-rule:evenodd;stroke:none"
           id="path60888" /><path
           d="m 628.256,208.683 -14.693,-3.909 -3.278,2.803 c -4.515,3.861 -8.59,8.111 -12.129,12.887 -3.545,4.785 -6.426,9.928 -8.806,15.379 l -0.471,1.077 12.191,3.354 c 1.948,-4.364 4.28,-8.512 7.129,-12.36 2.977,-4.016 6.434,-7.585 10.231,-10.831 z m 48.209,442.347 7.814,-11.721 -12.275,-1.462 c -6.822,-0.812 -13.525,-2.187 -20.041,-4.385 -2.84,-0.958 -5.615,-2.056 -8.332,-3.278 l -5.315,11.31 c 3.163,1.434 6.393,2.719 9.707,3.837 7.338,2.474 14.832,4.079 22.518,4.994 z m -70.801,72.033 9.492,-8.198 -21.302,-21.45 -9.811,7.877 z m 26.391,-282.267 34.955,-17.785 0.234,-0.118 -1.283,-13.28 c -1.568,0.683 -3.117,1.416 -4.652,2.196 l -30.205,15.369 z"
           style="fill:#f28e64;fill-opacity:1;fill-rule:evenodd;stroke:none"
           id="path60890" /><path
           d="m 702.291,417.669 0.213,-25.96 -7.262,0.144 c -5.242,0.105 -10.166,0.596 -14.906,1.509 l 1.113,26.427 c 0.356,-0.098 0.711,-0.19 1.069,-0.28 4.255,-1.065 8.591,-1.616 13.232,-1.709 z m 8.287,243.525 14.393,-21.588 -3.987,-2.551 0.016,-0.022 c -3.229,-2.066 -6.416,-3.665 -9.732,-4.85 l -0.016,0.045 c -0.865,-0.311 -1.731,-0.593 -2.596,-0.85 l -11.357,24.173 0.353,0.041 c 1.901,0.227 3.5,0.573 4.866,1.061 v 0.051 c 1.533,0.548 2.988,1.275 4.439,2.205 h 0.053 z m -94.574,89.655 23.924,-12.204 c -1.381,-5.515 -3.33,-10.594 -5.918,-15.366 -0.188,-0.348 -0.379,-0.695 -0.574,-1.039 l -24.071,10.448 c 0.633,0.949 1.217,1.915 1.752,2.903 1.797,3.316 3.1,6.95 3.969,11.012 l 0.812,3.788 c 0.032,0.153 0.067,0.306 0.106,0.458 m 2.076,-563.529 11.967,-10.228 c 1.244,-1.066 2.258,-2.152 3.08,-3.305 0.65,-0.917 1.213,-1.922 1.707,-3.042 l 25.266,6.722 -0.678,1.741 c -1.377,3.545 -3.055,6.713 -5.131,9.638 -1.74,2.452 -3.723,4.689 -6.006,6.789 z"
           style="fill:#e67241;fill-opacity:1;fill-rule:evenodd;stroke:none"
           id="path60892" /><path
           d="m 655.221,176.17 -12.151,-3.232 -1.591,4.086 c -0.743,1.911 -1.678,3.723 -2.862,5.397 -1.201,1.686 -2.625,3.181 -4.199,4.527 l -4.311,3.684 14.471,3.982 c 1.547,-1.514 2.961,-3.145 4.223,-4.925 1.804,-2.542 3.22,-5.279 4.349,-8.181 l 1.977,-5.08 c 0.031,-0.085 0.062,-0.173 0.094,-0.258 m 56.879,482.744 6.923,-10.384 -3.062,-1.959 c -1.68,-0.999 -3.416,-1.888 -5.221,-2.639 l -1.756,-0.63 c -1.72,-0.615 -3.461,-1.113 -5.23,-1.492 l -5.547,11.808 0.238,0.029 c 2.153,0.256 4.299,0.677 6.342,1.408 l 4.461,1.598 v 0.436 z m -90.84,89.253 11.408,-5.818 c -1.143,-3.848 -2.647,-7.563 -4.576,-11.126 -0.987,-1.822 -2.069,-3.573 -3.237,-5.257 l -11.775,5.11 c 1.473,1.903 2.799,3.914 3.955,6.048 1.895,3.498 3.268,7.199 4.225,11.043 m 60.097,-330.566 c 4.684,-1.133 9.438,-1.696 14.26,-1.792 l 6.69,-0.134 0.103,-12.495 -7.035,0.141 c -4.906,0.099 -9.762,0.57 -14.555,1.546 z"
           style="fill:#f28e64;fill-opacity:1;fill-rule:evenodd;stroke:none"
           id="path60894" /><path
           d="m 395.078,573.303 -14.819,23.777 c -3.793,6.097 -11.812,7.965 -17.909,4.172 -6.097,-3.793 -7.964,-11.812 -4.172,-17.908 l 14.82,-23.779 c 3.792,-6.096 11.811,-7.963 17.908,-4.171 6.096,3.793 7.965,11.812 4.172,17.909 m -42.872,-36.935 c 3.568,-6.21 1.426,-14.139 -4.783,-17.706 -6.21,-3.568 -14.137,-1.427 -17.706,4.782 l -19.443,33.704 c -4.964,8.603 -6.407,18.28 -4.658,27.328 1.761,9.117 6.709,17.591 14.505,23.711 l 2.507,1.97 c 2.503,1.965 4.168,4.56 4.883,7.366 0.718,2.816 0.502,5.894 -0.754,8.817 l -11.881,27.653 c -2.837,6.604 0.215,14.257 6.818,17.095 6.602,2.838 14.256,-0.214 17.094,-6.817 l 11.881,-27.653 c 3.59,-8.355 4.179,-17.263 2.077,-25.506 -2.103,-8.25 -6.889,-15.793 -14.039,-21.407 l -2.509,-1.97 c -2.726,-2.139 -4.445,-5.048 -5.042,-8.144 -0.612,-3.165 -0.114,-6.538 1.606,-9.52 z m -13.142,-26.224 c 4.692,-5.423 4.1,-13.624 -1.322,-18.317 -5.423,-4.691 -13.624,-4.099 -18.317,1.323 l -44.987,51.871 c -5.631,6.49 -9.783,13.518 -12.465,21.106 -2.676,7.568 -3.859,15.629 -3.561,24.203 l 0.548,15.722 c 0.2,5.755 -0.669,11.11 -2.589,16.011 -1.91,4.872 -4.897,9.371 -8.936,13.439 l -71.982,72.481 c -4.709,4.743 -8.508,9.777 -11.498,15.296 -2.981,5.502 -5.118,11.415 -6.513,17.931 l -0.811,3.787 c -1.49,7.025 2.997,13.927 10.021,15.416 7.025,1.489 13.927,-2.998 15.416,-10.022 l 0.812,-3.788 c 0.869,-4.062 2.173,-7.696 3.97,-11.012 1.786,-3.298 4.107,-6.358 7.021,-9.292 l 71.982,-72.481 c 6.605,-6.652 11.53,-14.113 14.735,-22.292 3.194,-8.15 4.645,-16.943 4.32,-26.287 l -0.549,-15.723 c -0.184,-5.279 0.526,-10.187 2.136,-14.74 1.602,-4.531 4.129,-8.783 7.58,-12.762 z m -11.244,-30.132 -44.7,24.069 c -7.15,3.851 -12.979,8.819 -17.374,14.757 -4.364,5.896 -7.4,12.917 -8.998,20.911 l -4.13,20.644 c -2.237,11.19 -6.538,21.262 -12.801,30.072 -6.218,8.742 -14.327,16.101 -24.228,21.929 l -41.278,24.301 c -7.376,4.342 -14.639,7.719 -22.217,10.276 -7.656,2.581 -15.471,4.3 -23.874,5.3 l -27.905,3.321 c -1.9,0.227 -3.501,0.573 -4.866,1.061 v 0.051 c -1.533,0.548 -2.988,1.275 -4.441,2.205 h -0.051 l -10.438,6.68 c -6.041,3.849 -14.06,2.072 -17.908,-3.968 -3.85,-6.041 -2.073,-14.059 3.968,-17.909 l 10.401,-6.657 -0.014,-0.022 c 3.228,-2.066 6.416,-3.665 9.732,-4.85 l 0.016,0.045 c 3.477,-1.246 6.935,-2.05 10.548,-2.481 l 27.906,-3.321 c 6.789,-0.808 12.909,-2.133 18.685,-4.08 5.853,-1.974 11.522,-4.617 17.331,-8.037 l 41.279,-24.301 c 6.656,-3.919 12.075,-8.819 16.188,-14.605 4.067,-5.718 6.899,-12.45 8.428,-20.097 l 4.129,-20.645 c 2.339,-11.698 6.955,-22.205 13.679,-31.289 6.693,-9.042 15.389,-16.514 25.921,-22.184 l 44.7,-24.07 c 6.323,-3.4 14.204,-1.031 17.603,5.291 3.4,6.321 1.031,14.204 -5.291,17.603 m 20.965,-50.841 c 4.531,0.151 9.012,-2.073 11.541,-6.219 3.737,-6.125 1.8,-14.121 -4.324,-17.858 l -71.627,-43.955 c -5.373,-3.296 -9.93,-7.094 -13.781,-11.519 -3.856,-4.429 -6.991,-9.472 -9.517,-15.251 L 214.785,228.41 c -2.684,-6.14 -5.808,-11.619 -9.567,-16.691 -3.76,-5.077 -8.084,-9.655 -13.164,-13.997 l -24.133,-20.63 c -1.245,-1.066 -2.26,-2.152 -3.081,-3.305 -0.82,-1.157 -1.501,-2.454 -2.08,-3.939 l -1.975,-5.079 c -2.585,-6.688 -10.103,-10.013 -16.789,-7.428 -6.688,2.584 -10.014,10.101 -7.429,16.788 l 1.975,5.079 c 1.379,3.545 3.059,6.713 5.134,9.638 2.075,2.924 4.494,5.542 7.354,7.987 l 24.132,20.629 c 3.621,3.094 6.644,6.277 9.196,9.724 2.557,3.448 4.719,7.257 6.617,11.605 l 46.292,105.956 c 3.649,8.353 8.16,15.615 13.69,21.969 5.536,6.362 12.111,11.837 19.884,16.606 l 59.992,36.814 -69.323,23.107 c -7.831,2.611 -15.584,3.63 -23.216,3.062 -7.545,-0.564 -15.045,-2.731 -22.453,-6.499 L 139.708,401.07 c -5.939,-3.021 -11.818,-5.26 -17.95,-6.795 -6.012,-1.505 -12.253,-2.289 -19.033,-2.422 l -17.893,-0.358 c -7.165,-0.141 -13.088,5.553 -13.228,12.719 -0.14,7.165 5.554,13.089 12.719,13.227 l 17.893,0.359 c 4.64,0.093 8.978,0.644 13.233,1.709 4.134,1.035 8.216,2.606 12.456,4.763 l 76.132,38.734 c 10.495,5.339 21.291,8.424 32.325,9.246 10.949,0.815 22.067,-0.645 33.289,-4.384 l 70.557,-23.52 c 6.4,-2.115 10.044,-8.738 8.577,-15.177"
           style="fill:#663300;fill-opacity:1;fill-rule:evenodd;stroke:none"
           id="path60896" /><path
           d="M 78.489,666.645 64.376,645.478 c 0.656,-0.654 1.391,-1.248 2.203,-1.766 l 10.401,-6.657 -0.014,-0.022 c 3.228,-2.066 6.416,-3.665 9.732,-4.85 l 0.016,0.045 c 3.477,-1.246 6.935,-2.05 10.548,-2.481 l 27.906,-3.321 c 6.789,-0.808 12.909,-2.133 18.685,-4.08 5.853,-1.974 11.522,-4.617 17.331,-8.037 l 12.117,-7.134 10.253,24.079 -9.243,5.441 c -7.376,4.342 -14.639,7.719 -22.217,10.276 -7.656,2.581 -15.471,4.3 -23.874,5.3 l -27.905,3.321 c -1.9,0.227 -3.501,0.573 -4.866,1.061 v 0.051 c -1.533,0.548 -2.988,1.275 -4.441,2.205 h -0.051 l -10.438,6.68 c -0.655,0.418 -1.335,0.769 -2.03,1.056 m 100.464,89.815 -22.337,-11.391 0.015,-0.072 0.811,-3.787 c 1.395,-6.516 3.532,-12.429 6.513,-17.931 2.99,-5.519 6.789,-10.553 11.498,-15.296 l 33.963,-34.199 17.979,18.758 -33.524,33.757 c -2.914,2.934 -5.235,5.994 -7.021,9.292 -1.797,3.316 -3.101,6.95 -3.97,11.012 l -0.812,3.788 c -0.498,2.35 -1.603,4.416 -3.115,6.069 m 3.644,-333.567 -42.889,-21.823 c -5.939,-3.021 -11.818,-5.26 -17.95,-6.795 -6.012,-1.505 -12.253,-2.289 -19.033,-2.422 l -17.893,-0.358 c -0.386,-0.007 -0.769,0.003 -1.148,0.029 l 0.213,25.902 c 0.142,0.007 0.283,0.013 0.426,0.015 l 17.893,0.359 c 4.64,0.093 8.978,0.644 13.233,1.709 4.134,1.035 8.216,2.606 12.456,4.763 l 52.301,26.609 z m 52.3,-148.449 -20.112,-46.034 c -2.684,-6.14 -5.808,-11.619 -9.567,-16.691 -3.76,-5.077 -8.084,-9.655 -13.164,-13.997 l -24.133,-20.63 c -1.245,-1.066 -2.26,-2.152 -3.081,-3.305 -0.82,-1.157 -1.501,-2.454 -2.08,-3.939 l -1.975,-5.079 c -0.482,-1.248 -1.136,-2.376 -1.922,-3.373 l -23.027,6.125 c -0.326,2.159 -0.111,4.427 0.731,6.608 l 1.975,5.079 c 1.379,3.545 3.059,6.713 5.134,9.638 2.075,2.924 4.494,5.542 7.354,7.987 l 24.132,20.629 c 3.621,3.094 6.644,6.277 9.196,9.724 2.557,3.448 4.719,7.257 6.617,11.605 l 22.397,51.26 z"
           style="fill:#af7c45;fill-opacity:1;fill-rule:evenodd;stroke:none"
           id="path60898" /><path
           d="m 389.365,574.48 -14.818,23.779 c -1.825,2.928 -5.71,3.839 -8.64,2.016 -2.926,-1.82 -3.839,-5.708 -2.015,-8.632 l 14.817,-23.779 c 1.825,-2.927 5.709,-3.841 8.641,-2.016 2.926,1.819 3.839,5.707 2.015,8.632 m -42.99,-36.738 -19.444,33.704 c -2.472,4.282 -3.322,9.306 -2.384,14.16 0.936,4.842 3.623,9.123 7.494,12.161 l 2.508,1.97 c 5.75,4.515 9.866,10.682 11.674,17.778 1.807,7.086 1.145,14.475 -1.739,21.185 l -11.88,27.652 c -1.364,3.175 -5.077,4.654 -8.252,3.291 -3.176,-1.366 -4.655,-5.079 -3.291,-8.254 l 11.882,-27.653 c 1.781,-4.148 2.208,-8.753 1.091,-13.137 -1.118,-4.386 -3.698,-8.21 -7.248,-10.997 l -2.509,-1.97 c -6.274,-4.928 -10.537,-11.861 -12.052,-19.696 -1.508,-7.797 -0.084,-15.817 3.879,-22.686 l 19.444,-33.703 c 1.72,-2.983 5.532,-4.028 8.521,-2.312 2.977,1.712 4.025,5.528 2.306,8.507 m -12.396,-27.271 -44.989,51.871 c -3.836,4.423 -6.886,9.399 -8.842,14.929 -1.96,5.547 -2.72,11.348 -2.516,17.217 l 0.549,15.724 c 0.282,8.092 -0.901,16.044 -3.86,23.597 -2.969,7.577 -7.519,14.238 -13.245,20.004 l -71.982,72.481 c -3.211,3.234 -5.989,6.816 -8.163,10.83 -2.183,4.03 -3.675,8.331 -4.634,12.808 l -0.811,3.787 c -0.725,3.385 -4.043,5.567 -7.437,4.848 -3.368,-0.714 -5.56,-4.047 -4.837,-7.421 l 0.811,-3.788 c 1.21,-5.65 3.095,-11.048 5.85,-16.135 2.765,-5.101 6.271,-9.644 10.356,-13.759 l 71.982,-72.481 c 4.494,-4.525 8.095,-9.776 10.426,-15.726 2.342,-5.976 3.274,-12.3 3.051,-18.701 l -0.549,-15.722 c -0.259,-7.42 0.702,-14.716 3.179,-21.726 2.485,-7.025 6.329,-13.318 11.203,-18.939 l 44.989,-51.87 c 2.255,-2.599 6.223,-2.897 8.827,-0.643 2.597,2.247 2.896,6.218 0.642,8.815 M 88.718,657.089 v -0.436 l 4.462,-1.598 c 2.042,-0.731 4.19,-1.152 6.339,-1.408 l 27.906,-3.322 c 7.686,-0.915 15.18,-2.52 22.519,-4.994 7.34,-2.476 14.28,-5.771 20.951,-9.698 l 41.279,-24.302 c 8.72,-5.133 16.282,-11.767 22.156,-20.028 5.875,-8.264 9.702,-17.561 11.689,-27.492 l 4.128,-20.644 c 1.705,-8.524 5.003,-16.588 10.189,-23.596 5.194,-7.015 11.925,-12.55 19.592,-16.677 l 44.701,-24.07 c 3.049,-1.642 4.195,-5.437 2.554,-8.489 -1.64,-3.048 -5.435,-4.193 -8.484,-2.553 l -44.7,24.071 c -9.313,5.013 -17.4,11.746 -23.702,20.261 -6.308,8.524 -10.412,18.219 -12.489,28.606 l -4.128,20.644 c -1.631,8.154 -4.712,15.883 -9.542,22.678 -4.836,6.801 -11.084,12.279 -18.259,16.504 L 164.6,624.847 c -5.92,3.486 -12.084,6.419 -18.597,8.615 -6.515,2.198 -13.218,3.573 -20.04,4.385 l -27.904,3.323 c -3.116,0.37 -6.124,1.076 -9.077,2.132 l -1.755,0.63 c -1.805,0.751 -3.54,1.64 -5.223,2.639 l -11.796,7.549 c -2.893,1.85 -3.77,5.72 -1.921,8.621 1.839,2.888 5.714,3.766 8.604,1.917 z m 256.831,-230.024 3.461,0.117 c 2.26,0.075 4.39,-1.063 5.571,-2.997 1.799,-2.953 0.84,-6.812 -2.1,-8.616 l -71.627,-43.954 c -5.739,-3.521 -10.91,-7.751 -15.337,-12.837 -4.43,-5.088 -7.909,-10.799 -10.607,-16.978 L 208.617,235.843 c -2.382,-5.451 -5.262,-10.594 -8.806,-15.379 -3.54,-4.776 -7.615,-9.026 -12.131,-12.887 l -24.133,-20.629 c -1.572,-1.346 -2.998,-2.841 -4.196,-4.527 -1.187,-1.674 -2.121,-3.486 -2.864,-5.397 l -1.975,-5.079 c -1.251,-3.215 -4.865,-4.835 -8.09,-3.589 -3.209,1.241 -4.831,4.86 -3.581,8.072 l 1.974,5.08 c 1.129,2.902 2.546,5.639 4.35,8.181 1.791,2.525 3.886,4.754 6.239,6.765 l 24.132,20.629 c 3.797,3.246 7.255,6.815 10.23,10.831 2.973,4.012 5.38,8.351 7.377,12.919 l 46.293,105.956 c 3.214,7.358 7.319,14.179 12.598,20.245 5.284,6.073 11.478,11.086 18.327,15.287 l 72.304,44.371 z m -4.857,1.619 1.53,6.719 c 0.711,3.125 -1.111,6.287 -4.142,7.298 l -70.558,23.519 c -9.924,3.308 -20.205,4.837 -30.66,4.057 -10.469,-0.78 -20.429,-3.779 -29.773,-8.532 l -76.132,-38.734 c -4.436,-2.257 -9.042,-4.084 -13.875,-5.293 -4.835,-1.211 -9.748,-1.81 -14.732,-1.909 L 84.457,415.45 c -3.45,-0.068 -6.191,-2.915 -6.124,-6.365 0.069,-3.45 2.916,-6.19 6.365,-6.123 l 17.893,0.359 c 5.926,0.117 11.777,0.781 17.533,2.221 5.759,1.442 11.24,3.575 16.532,6.267 l 76.133,38.735 c 7.836,3.985 16.22,6.557 25.005,7.211 8.804,0.656 17.485,-0.601 25.846,-3.388 z"
           style="fill:#8a4b0c;fill-opacity:1;fill-rule:evenodd;stroke:none"
           id="path60900" /><path
           d="m 227.747,279.627 -10.37,7.52 -20.234,-46.314 c -1.997,-4.568 -4.404,-8.907 -7.377,-12.919 -2.975,-4.016 -6.433,-7.585 -10.23,-10.831 l -24.132,-20.629 c -2.353,-2.011 -4.448,-4.24 -6.239,-6.765 -1.804,-2.542 -3.221,-5.279 -4.35,-8.181 l -1.974,-5.08 c -1.25,-3.212 0.372,-6.831 3.581,-8.072 3.225,-1.246 6.839,0.374 8.09,3.589 l 1.975,5.079 c 0.743,1.911 1.677,3.723 2.864,5.397 1.198,1.686 2.624,3.181 4.196,4.527 l 24.133,20.629 c 4.516,3.861 8.591,8.111 12.131,12.887 3.544,4.785 6.424,9.928 8.806,15.379 z m -150.664,384.908 -6.924,-10.384 0.049,-0.031 11.796,-7.549 c 1.683,-0.999 3.418,-1.888 5.223,-2.639 l 1.755,-0.63 c 2.953,-1.056 5.961,-1.762 9.077,-2.132 l 27.904,-3.323 c 6.822,-0.812 13.525,-2.187 20.04,-4.385 6.513,-2.196 12.677,-5.129 18.597,-8.615 l 12.974,-7.638 4.933,11.587 -11.612,6.837 c -6.671,3.927 -13.611,7.222 -20.951,9.698 -7.339,2.474 -14.833,4.079 -22.519,4.994 l -27.906,3.322 c -2.149,0.256 -4.297,0.677 -6.339,1.408 l -4.462,1.598 v 0.436 z m 98.159,90.033 -11.506,-5.868 0.287,-1.342 c 1.21,-5.65 3.095,-11.048 5.85,-16.135 2.765,-5.101 6.271,-9.644 10.356,-13.759 l 36.157,-36.408 8.66,9.037 -35.952,36.201 c -3.211,3.234 -5.989,6.816 -8.163,10.83 -2.183,4.03 -3.675,8.331 -4.634,12.808 l -0.811,3.787 c -0.063,0.293 -0.146,0.575 -0.244,0.849 m 5.195,-306.383 -49.48,-25.174 c -4.436,-2.257 -9.042,-4.084 -13.875,-5.293 -4.835,-1.211 -9.748,-1.81 -14.732,-1.909 L 84.457,415.45 c -0.195,-0.003 -0.387,-0.016 -0.577,-0.038 l -0.1,-12.4 c 0.299,-0.038 0.606,-0.054 0.918,-0.05 l 17.893,0.359 c 5.926,0.117 11.777,0.781 17.533,2.221 5.759,1.442 11.24,3.575 16.532,6.267 l 44.935,22.862 z"
           style="fill:#cc9b66;fill-opacity:1;fill-rule:evenodd;stroke:none"
           id="path60902" /><path
           d="m 201.977,620.407 -14.417,-21.625 14.903,-8.774 c 6.656,-3.919 12.075,-8.819 16.188,-14.605 0.69,-0.969 1.345,-1.969 1.964,-2.997 l 12.367,26.323 c -4.98,5.208 -10.788,9.776 -17.393,13.665 z m 48.082,49.315 -19.705,-17.021 17.081,-17.199 c 1.111,-1.119 2.142,-2.27 3.092,-3.452 l 20.258,16.266 c -1.524,1.891 -3.168,3.725 -4.932,5.502 z M 237.131,446.204 c -7.153,-0.689 -14.264,-2.824 -21.29,-6.398 l -16.732,-8.513 -5.972,26.166 10.9,5.547 c 9.052,4.604 18.325,7.532 27.784,8.777 z m 29.949,-101.07 c -2.304,-3.277 -4.293,-6.853 -6.003,-10.765 l -13.564,-31.048 -20.923,16.986 10.677,24.44 c 2.982,6.825 6.538,12.921 10.755,18.388 z"
           style="fill:#f5df3b;fill-opacity:1;fill-rule:evenodd;stroke:none"
           id="path60904" /><path
           d="m 230.484,317.147 10.079,-8.183 14.347,32.836 c 1.502,3.441 3.247,6.734 5.262,9.857 l -9.258,8.745 c -2.921,-4.269 -5.389,-8.825 -7.478,-13.613 z m -29.978,301.054 -6.939,-10.407 12.312,-7.248 c 7.175,-4.225 13.423,-9.703 18.259,-16.504 0.395,-0.556 0.779,-1.119 1.151,-1.687 l 6.04,12.853 c -5.366,6.477 -11.854,11.826 -19.155,16.123 z m 46.979,49.298 -9.492,-8.199 14.218,-14.317 c 2.138,-2.154 4.074,-4.47 5.767,-6.949 l 9.789,7.859 c -1.993,2.806 -4.233,5.446 -6.691,7.92 z M 232.236,469.785 c -8.786,-1.218 -17.19,-3.991 -25.147,-8.04 l -13.378,-6.807 2.886,-12.634 16.192,8.24 c 6.94,3.529 14.308,5.949 22.007,6.912 z"
           style="fill:#fcea60;fill-opacity:1;fill-rule:evenodd;stroke:none"
           id="path60906" /><path
           d="m 122.763,652.92 -16.189,-24.281 18.594,-2.213 c 6.789,-0.808 12.909,-2.133 18.685,-4.08 1.94,-0.654 3.86,-1.382 5.772,-2.188 l 11.046,23.512 c -2.829,1.226 -5.679,2.322 -8.577,3.301 -7.656,2.581 -15.471,4.3 -23.874,5.3 z m 72.113,72.367 -19.704,-17.019 0.281,-0.285 20.764,-20.909 20.367,16.355 z M 167.692,415.31 139.708,401.07 c -2.196,-1.117 -4.384,-2.129 -6.58,-3.035 l -2.666,27.538 35.261,17.94 z m 49.8,-180.706 -2.707,-6.194 c -2.684,-6.14 -5.808,-11.619 -9.567,-16.691 -2.659,-3.59 -5.599,-6.931 -8.892,-10.116 l -30.288,8.058 9.124,7.801 c 3.621,3.094 6.644,6.277 9.196,9.724 2.557,3.448 4.719,7.257 6.617,11.605 l 1.214,2.777 z"
           style="fill:#e67241;fill-opacity:1;fill-rule:evenodd;stroke:none"
           id="path60908" /><path
           d="m 169.71,208.683 14.693,-3.909 3.277,2.803 c 4.516,3.861 8.591,8.111 12.131,12.887 3.544,4.785 6.424,9.928 8.806,15.379 l 0.47,1.077 -12.191,3.354 c -1.947,-4.364 -4.279,-8.512 -7.13,-12.36 -2.975,-4.016 -6.433,-7.585 -10.23,-10.831 z m -48.208,442.347 -7.814,-11.721 12.275,-1.462 c 6.822,-0.812 13.525,-2.187 20.04,-4.385 2.842,-0.958 5.616,-2.056 8.331,-3.278 l 5.315,11.31 c -3.161,1.434 -6.393,2.719 -9.705,3.837 -7.339,2.474 -14.833,4.079 -22.519,4.994 z m 70.799,72.033 -9.491,-8.198 21.304,-21.45 9.81,7.877 z m -26.389,-282.267 -34.955,-17.785 -0.234,-0.118 1.284,-13.28 c 1.567,0.683 3.117,1.416 4.649,2.196 l 30.207,15.369 z"
           style="fill:#f28e64;fill-opacity:1;fill-rule:evenodd;stroke:none"
           id="path60910" /><path
           d="m 95.675,417.669 -0.213,-25.96 7.263,0.144 c 5.243,0.105 10.164,0.596 14.904,1.509 l -1.111,26.427 c -0.357,-0.098 -0.712,-0.19 -1.069,-0.28 -4.255,-1.065 -8.593,-1.616 -13.233,-1.709 z m -8.289,243.525 -14.392,-21.588 3.986,-2.551 -0.014,-0.022 c 3.228,-2.066 6.416,-3.665 9.732,-4.85 l 0.016,0.045 c 0.866,-0.311 1.73,-0.593 2.596,-0.85 l 11.357,24.173 -0.352,0.041 c -1.9,0.227 -3.501,0.573 -4.866,1.061 v 0.051 c -1.533,0.548 -2.988,1.275 -4.441,2.205 h -0.051 z m 94.576,89.655 -23.924,-12.204 c 1.381,-5.515 3.332,-10.594 5.917,-15.366 0.19,-0.348 0.381,-0.695 0.575,-1.039 l 24.07,10.448 c -0.633,0.949 -1.215,1.915 -1.75,2.903 -1.797,3.316 -3.101,6.95 -3.97,11.012 l -0.812,3.788 c -0.033,0.153 -0.068,0.306 -0.106,0.458 M 179.887,187.32 167.921,177.092 c -1.245,-1.066 -2.26,-2.152 -3.081,-3.305 -0.651,-0.917 -1.214,-1.922 -1.708,-3.042 l -25.266,6.722 0.676,1.741 c 1.379,3.545 3.059,6.713 5.134,9.638 1.741,2.452 3.723,4.689 6.004,6.789 z"
           style="fill:#e67241;fill-opacity:1;fill-rule:evenodd;stroke:none"
           id="path60912" /><path
           d="m 142.747,176.17 12.151,-3.232 1.589,4.086 c 0.743,1.911 1.677,3.723 2.864,5.397 1.198,1.686 2.624,3.181 4.196,4.527 l 4.311,3.684 -14.469,3.982 c -1.548,-1.514 -2.962,-3.145 -4.224,-4.925 -1.804,-2.542 -3.221,-5.279 -4.35,-8.181 l -1.974,-5.08 c -0.033,-0.085 -0.065,-0.173 -0.094,-0.258 m -56.881,482.744 -6.922,-10.384 3.06,-1.959 c 1.683,-0.999 3.418,-1.888 5.223,-2.639 l 1.755,-0.63 c 1.721,-0.615 3.46,-1.113 5.229,-1.492 l 5.548,11.808 -0.24,0.029 c -2.149,0.256 -4.297,0.677 -6.339,1.408 l -4.462,1.598 v 0.436 z m 90.84,89.253 -11.407,-5.818 c 1.143,-3.848 2.645,-7.563 4.574,-11.126 0.987,-1.822 2.07,-3.573 3.239,-5.257 l 11.772,5.11 c -1.47,1.903 -2.797,3.914 -3.953,6.048 -1.895,3.498 -3.268,7.199 -4.225,11.043 M 116.61,417.601 c -4.685,-1.133 -9.439,-1.696 -14.26,-1.792 l -6.691,-0.134 -0.102,-12.495 7.034,0.141 c 4.906,0.099 9.762,0.57 14.555,1.546 z"
           style="fill:#f28e64;fill-opacity:1;fill-rule:evenodd;stroke:none"
           id="path60914" /><path
           d="m 392.412,415.239 c 59.1,0 107.012,-70.653 107.012,-129.757 0,-59.1 -82.371,-107.01 -107.012,-107.01 -24.641,0 -107.013,47.91 -107.013,107.01 0,59.104 47.911,129.757 107.013,129.757"
           style="fill:#663300;fill-opacity:1;fill-rule:evenodd;stroke:none"
           id="path60916" /><path
           d="m 397.25,388.206 c 49.959,0 90.457,-59.724 90.457,-109.683 0,-49.956 -69.627,-90.454 -90.457,-90.454 -20.827,0 -90.456,40.498 -90.456,90.454 0,49.959 40.499,109.683 90.456,109.683"
           style="fill:#80450a;fill-opacity:1;fill-rule:evenodd;stroke:none"
           id="path60918" /><path
           d="m 409.416,359.776 c 40.645,0 73.592,-48.589 73.592,-89.233 0,-40.644 -56.645,-73.594 -73.592,-73.594 -16.945,0 -73.591,32.95 -73.591,73.594 0,40.644 32.949,89.233 73.591,89.233"
           style="fill:#945312;fill-opacity:1;fill-rule:evenodd;stroke:none"
           id="path60920" /><path
           d="m 428.693,301.964 c 22.965,0 41.582,-27.454 41.582,-50.416 0,-22.965 -32.007,-41.581 -41.582,-41.581 -9.574,0 -41.58,18.616 -41.58,41.581 0,22.962 18.617,50.416 41.58,50.416"
           style="fill:#a3601d;fill-opacity:1;fill-rule:evenodd;stroke:none"
           id="path60922" /><path
           d="m 392.413,392.063 c 48.019,0 87.183,41.952 87.183,93.387 0,51.436 -39.164,93.388 -87.183,93.388 -48.021,0 -87.186,-41.952 -87.186,-93.388 0,-51.435 39.165,-93.387 87.186,-93.387"
           style="fill:#b06b25;fill-opacity:1;fill-rule:evenodd;stroke:none"
           id="path60924" /><path
           d="m 392.413,398.522 c 39.21,0 71.189,34.255 71.189,76.254 0,42 -31.979,76.255 -71.189,76.255 -39.21,0 -71.191,-34.255 -71.191,-76.255 0,-41.999 31.981,-76.254 71.191,-76.254"
           style="fill:#945312;fill-opacity:1;fill-rule:evenodd;stroke:none"
           id="path60926" /><path
           d="m 392.413,406.177 c 27.743,0 50.37,24.238 50.37,53.954 0,29.718 -22.627,53.955 -50.37,53.955 -27.744,0 -50.371,-24.237 -50.371,-53.955 0,-29.716 22.627,-53.954 50.371,-53.954"
           style="fill:#82470c;fill-opacity:1;fill-rule:evenodd;stroke:none"
           id="path60928" /></g></g></g></svg>
