<?xml version="1.0" encoding="UTF-8" standalone="no"?>
<!-- Created with Inkscape (http://www.inkscape.org/) -->

<svg
   version="1.1"
   id="svg6526"
   width="800"
   height="800"
   viewBox="0 0 800 800"
   sodipodi:docname="nut-clipart-publicdomainvectors.org.svg"
   inkscape:version="1.2 (dc2aedaf03, 2022-05-15)"
   xmlns:inkscape="http://www.inkscape.org/namespaces/inkscape"
   xmlns:sodipodi="http://sodipodi.sourceforge.net/DTD/sodipodi-0.dtd"
   xmlns="http://www.w3.org/2000/svg"
   xmlns:svg="http://www.w3.org/2000/svg">
  <defs
     id="defs6530">
    <clipPath
       clipPathUnits="userSpaceOnUse"
       id="clipPath6542">
      <path
         d="M 0,600 H 600 V 0 H 0 Z"
         id="path6540" />
    </clipPath>
  </defs>
  <sodipodi:namedview
     id="namedview6528"
     pagecolor="#ffffff"
     bordercolor="#000000"
     borderopacity="0.25"
     inkscape:showpageshadow="2"
     inkscape:pageopacity="0.0"
     inkscape:pagecheckerboard="0"
     inkscape:deskcolor="#d1d1d1"
     showgrid="false"
     inkscape:zoom="1.04625"
     inkscape:cx="400"
     inkscape:cy="400.4779"
     inkscape:window-width="1920"
     inkscape:window-height="1017"
     inkscape:window-x="-8"
     inkscape:window-y="-8"
     inkscape:window-maximized="1"
     inkscape:current-layer="g6534">
    <inkscape:page
       x="0"
       y="0"
       id="page6532"
       width="800"
       height="800" />
  </sodipodi:namedview>
  <g
     id="g6534"
     inkscape:groupmode="layer"
     inkscape:label="Page 1"
     transform="matrix(1.3333333,0,0,-1.3333333,0,800)">
    <g
       id="g6536">
      <g
         id="g6538"
         clip-path="url(#clipPath6542)">
        <g
           id="g6544"
           transform="translate(290.2383,104.7852)">
          <path
             d="m 0,0 c 125.758,0 228.326,38.063 228.326,84.733 0,46.67 -102.568,84.735 -228.327,84.735 -125.759,0 -228.329,-38.065 -228.329,-84.735 C -228.33,38.063 -125.76,0 0,0"
             style="fill:#e3ebca;fill-opacity:1;fill-rule:evenodd;stroke:none"
             id="path6546" />
        </g>
        <g
           id="g6548"
           transform="translate(561.4727,446.8945)">
          <path
             d="m 0,0 c -48.821,26.564 -103.033,-2.077 -159.715,-56.027 4.416,-9.094 8.83,-18.191 13.248,-27.286 35.624,19.527 71.974,35.966 117.406,13.772 C -19.373,-46.361 -9.688,-23.182 0,0"
             style="fill:#c7823e;fill-opacity:1;fill-rule:evenodd;stroke:none"
             id="path6550" />
        </g>
        <g
           id="g6552"
           transform="translate(459.8291,383.6084)">
          <path
             d="m 0,0 c 22.18,6.484 45.804,6.827 72.583,-6.255 l 5.096,12.194 -4.222,18.114 c -4.86,0.611 -9.721,1.222 -14.581,1.834 C 47.397,34.405 7.407,21.458 -2.742,10.137 Z"
             style="fill:#bf7831;fill-opacity:1;fill-rule:evenodd;stroke:none"
             id="path6554" />
        </g>
        <g
           id="g6556"
           transform="translate(224.5996,482.3135)">
          <path
             d="m 0,0 c 61.71,36.879 100.101,45.829 153.935,14.345 52.77,-30.863 113.274,-130.602 112.954,-197.176 -0.262,-54 -29.3,-85.603 -86.094,-119.563 z"
             style="fill:#663300;fill-opacity:1;fill-rule:evenodd;stroke:none"
             id="path6558" />
        </g>
        <g
           id="g6560"
           transform="translate(433.5381,443.7178)">
          <path
             d="m 0,0 c 32.506,-43.32 58.159,-100.826 57.95,-144.235 -0.261,-54 -29.3,-85.603 -86.094,-119.563 l -44.445,74.336 12.361,159.432 C -13.633,-77.477 22.518,-147.022 14.897,-206.542 69.217,-162.671 47.662,-75.263 0,0"
             style="fill:#522900;fill-opacity:1;fill-rule:evenodd;stroke:none"
             id="path6562" />
        </g>
        <g
           id="g6564"
           transform="translate(224.5879,482.3076)">
          <path
             d="m 0,0 c 108.457,64.795 289.224,-237.568 180.775,-302.406 l -0.018,-0.011 C 72.3,-367.213 -108.467,-64.849 -0.018,-0.012 Z"
             style="fill:#2e1700;fill-opacity:1;fill-rule:evenodd;stroke:none"
             id="path6566" />
        </g>
        <g
           id="g6568"
           transform="translate(235.7832,463.54)">
          <path
             d="m 0,0 c 88.294,52.787 246.656,-212.094 158.364,-264.881 l -81.211,-48.553 c -63.122,-37.739 -136.609,-38.058 -199.763,-1.049 -22.751,13.332 -47.699,-2.059 -58.508,16.018 l -11.904,19.911 c -10.748,17.979 14.312,32.708 14.009,58.283 -0.84,71.323 33.987,133.562 95.601,170.398 z"
             style="fill:#f0a400;fill-opacity:1;fill-rule:evenodd;stroke:none"
             id="path6570" />
        </g>
        <g
           id="g6572"
           transform="translate(367.8193,391.3076)">
          <path
             d="m 0,0 c 48.514,-69.334 75.177,-163.443 26.328,-192.648 l -81.209,-48.553 c -63.124,-37.739 -136.611,-38.059 -199.765,-1.05 -22.751,13.332 -47.699,-2.059 -58.508,16.019 l -3.477,5.818 c 11.479,-14.974 34.235,0.502 55.748,-11.759 62.185,-35.445 133.374,-31.411 193.513,11.152 l 77.368,54.758 C 49.452,-138.337 35.072,-64.449 0,0"
             style="fill:#d99400;fill-opacity:1;fill-rule:evenodd;stroke:none"
             id="path6574" />
        </g>
        <g
           id="g6576"
           transform="translate(236.292,444.3105)">
          <path
             d="M 0,0 C 81.469,47.971 172.191,-99.407 94.202,-152.846 L 22.47,-201.998 c -55.758,-38.207 -113.776,-53.781 -157.741,-42.453 -15.838,4.081 -36.134,-10.017 -43.618,-1.612 -11.572,12.998 12.878,24.359 14.021,52.261 1.736,42.38 29.689,114.211 86.542,147.685 z"
             style="fill:#ffae00;fill-opacity:1;fill-rule:evenodd;stroke:none"
             id="path6578" />
        </g>
        <g
           id="g6580"
           transform="translate(109.3682,273.9717)">
          <path
             d="m 0,0 c 2.599,-0.234 5.197,-0.67 7.799,-1.342 38.513,-9.921 86.757,12.588 117.715,33.802 l 63.888,43.778 c 39.971,27.388 -12.368,113.446 -53.917,88.982 L 65.727,124.145 C 31.642,104.076 4.007,54.892 2.396,15.555 2.175,10.172 1.355,5.01 0,0"
             style="fill:#ffc547;fill-opacity:1;fill-rule:evenodd;stroke:none"
             id="path6582" />
        </g>
        <g
           id="g6584"
           transform="translate(265.1611,501.0723)">
          <path
             d="M 0,0 C 67.861,28.824 117.699,-1.35 148.882,-43.958 114.969,-9.623 59.916,10.138 0,0"
             style="fill:#8c4b0b;fill-opacity:1;fill-rule:evenodd;stroke:none"
             id="path6586" />
        </g>
        <g
           id="g6588"
           transform="translate(445.1953,427.1338)">
          <path
             d="M 0,0 C 28.753,18.834 64.902,37.639 109.367,21.256 113.576,19.705 97.218,9.488 91.504,9.119 82.791,25.866 31.882,16.297 0,0"
             style="fill:#d69d65;fill-opacity:1;fill-rule:evenodd;stroke:none"
             id="path6590" />
        </g>
        <g
           id="g6592"
           transform="translate(561.4727,446.8945)">
          <path
             d="M 0,0 C 13.635,-5.699 18.183,-25.885 10.159,-45.088 2.134,-64.291 -15.425,-75.24 -29.061,-69.541 -42.696,-63.844 -47.243,-43.656 -39.22,-24.453 -31.194,-5.25 -13.636,5.696 0,0"
             style="fill:#b06a23;fill-opacity:1;fill-rule:evenodd;stroke:none"
             id="path6594" />
        </g>
      </g>
    </g>
  </g>
</svg>
