<?xml version="1.0" encoding="UTF-8"?>
<svg width="275px" height="306px" viewBox="0 0 275 306" version="1.1" xmlns="http://www.w3.org/2000/svg" xmlns:xlink="http://www.w3.org/1999/xlink">
    <title>Artboard</title>
    <g id="Artboard" stroke="none" stroke-width="1" fill="none" fill-rule="evenodd">
        <path d="M177.611932,48.6346496 C188.252403,47.0884612 195.782455,46.6247535 200.202086,47.2435265 C208.318619,48.3798862 215.335637,53.059884 220.252064,55.4583988 C226.041896,58.2830105 234.470035,62.7734054 242.352935,70.5347275 C245.205066,73.3428703 249.260922,78.5496466 254.520502,86.1550564 C259.598255,94.0120829 262.413871,100.541648 262.967352,105.743752 C263.520832,110.945856 262.203531,118.498794 259.015449,128.402568 C249.146814,156.609303 240.82224,176.295633 234.041725,187.461555 C227.261211,198.627478 215.981331,211.225103 200.202086,225.25443 C195.377134,228.495006 191.848506,230.430485 189.616202,231.060866 C184.145856,232.605638 179.070363,231.29075 175.948698,231.060866 C173.189107,230.857645 168.485735,231.070458 164.60986,229.263012 C162.481673,228.27057 159.37265,225.831735 155.282791,221.946506 C148.669901,214.862217 144.651076,208.968332 143.226314,204.26485 C141.801552,199.561369 141.801552,192.188145 143.226314,182.145179 C144.615762,177.4438 145.703502,174.341058 146.489533,172.836954 C148.505018,168.980233 150.803209,167.643806 152.159406,165.247431 C154.30897,161.44919 157.658124,155.589654 162.20687,147.668823 C163.087427,139.751772 163.087427,132.175277 162.20687,124.939337 C161.326314,117.703397 159.018288,106.626447 155.282791,91.7084859 C154.766224,81.1049706 154.766224,74.0470511 155.282791,70.5347275 C156.093248,65.0241338 158.741918,62.3816463 160.110682,59.7412441 C162.788073,54.5764458 168.621823,50.8742476 177.611932,48.6346496 Z" id="Path-19" fill="#000000"></path>
        <path d="M46.6119315,122.63465 C57.2524034,121.088461 64.782455,120.624753 69.2020863,121.243526 C77.318619,122.379886 84.335637,127.059884 89.252064,129.458399 C95.0418959,132.28301 103.470035,136.773405 111.352935,144.534727 C114.205066,147.34287 118.260922,152.549647 123.520502,160.155056 C128.598255,168.012083 131.413871,174.541648 131.967352,179.743752 C132.520832,184.945856 131.203531,192.498794 128.015449,202.402568 C118.146814,230.609303 109.82224,250.295633 103.041725,261.461555 C96.2612107,272.627478 84.9813311,285.225103 69.2020863,299.25443 C64.3771344,302.495006 60.8485063,304.430485 58.6162021,305.060866 C53.1458562,306.605638 48.0703629,305.29075 44.9486982,305.060866 C42.1891069,304.857645 37.4857347,305.070458 33.6098598,303.263012 C31.4816733,302.27057 28.3726502,299.831735 24.2827906,295.946506 C17.6699012,288.862217 13.6510755,282.968332 12.2263136,278.26485 C10.8015518,273.561369 10.8015518,266.188145 12.2263136,256.145179 C13.6157622,251.4438 14.7035019,248.341058 15.4895327,246.836954 C17.5050183,242.980233 19.8032095,241.643806 21.1594063,239.247431 C23.3089698,235.44919 26.6581245,229.589654 31.2068704,221.668823 C32.0874266,213.751772 32.0874266,206.175277 31.2068704,198.939337 C30.3263142,191.703397 28.0182876,180.626447 24.2827906,165.708486 C23.7662242,155.104971 23.7662242,148.047051 24.2827906,144.534727 C25.0932476,139.024134 27.7419176,136.381646 29.1106815,133.741244 C31.7880727,128.576446 37.6218227,124.874248 46.6119315,122.63465 Z" id="Path-19" fill="#000000" transform="translate(71.624, 213.3898) scale(-1, 1) translate(-71.624, -213.3898)"></path>
        <g id="Group-2" transform="translate(164.8128, -0.0962)" fill="#000000">
            <path d="M6.86284564,4.18323106 C2.90187821,8.08124173 0.661127201,11.8331065 0.140592611,15.4388253 C-0.37994198,19.0445442 0.544956402,24.4075292 2.91528776,31.5277805 C6.3343537,36.9448189 9.28681423,40.0862767 11.7726693,40.9521537 C14.2585245,41.8180307 18.6028685,41.2182075 24.8057015,39.1526842 C28.9411731,34.2755655 31.4735198,29.9329494 32.4027416,26.124836 C33.3319634,22.3167226 33.3319634,16.2813395 32.4027416,8.01868659 C28.1388065,3.22397231 24.3855208,0.583133633 21.1428847,0.096170546 C17.9002486,-0.390792541 13.1402356,0.971560963 6.86284564,4.18323106 Z" id="Path-20"></path>
            <path d="M40.9761328,15.2384374 C38.1041026,18.2560722 36.4793721,21.1605685 36.1019413,23.9519263 C35.7245105,26.7432842 36.3951386,30.895025 38.1138257,36.407149 C40.5929323,40.6007352 42.7337113,43.0326865 44.5361627,43.7030029 C46.338614,44.3733193 49.4886241,43.9089678 53.9861929,42.3099483 C56.9847532,38.5343396 58.8209148,35.1725147 59.4946778,32.2244736 C60.1684407,29.2764326 60.1684407,24.6041565 59.4946778,18.2076453 C56.4029708,14.4958298 53.6815271,12.4514314 51.3303467,12.0744502 C48.9791663,11.697469 45.5277617,12.7521314 40.9761328,15.2384374 Z" id="Path-20"></path>
            <path d="M63.3541162,27.1372362 C60.8410898,30.0605699 59.4194506,32.8743007 59.0891987,35.5784286 C58.7589467,38.2825565 59.3457463,42.3045555 60.8495974,47.6444256 C63.0188158,51.7069622 64.8919974,54.062915 66.4691423,54.7122841 C68.0462872,55.3616531 70.8025461,54.9118126 74.7379188,53.3627624 C77.361659,49.7051414 78.9683004,46.4483736 79.557843,43.5924588 C80.1473857,40.736544 80.1473857,36.2102766 79.557843,30.0136564 C76.8525994,26.4178351 74.4713362,24.4373241 72.4140534,24.0721236 C70.3567705,23.7069231 67.3367915,24.7286273 63.3541162,27.1372362 Z" id="Path-20" transform="translate(69.5, 39.5) rotate(11) translate(-69.5, -39.5)"></path>
            <path d="M81.5761933,43.5048769 C79.3025027,46.0510063 78.0162577,48.5016751 77.7174584,50.8568832 C77.418659,53.2120914 77.9495729,56.7151228 79.3102001,61.3659773 C81.2728262,64.9043157 82.9676096,66.9562746 84.3945503,67.5218541 C85.8214909,68.0874336 88.3152489,67.6956369 91.8758242,66.3464642 C94.2496844,63.1607944 95.7033124,60.3242546 96.2367081,57.836845 C96.7701037,55.3494353 96.7701037,51.4072024 96.2367081,46.0101461 C93.7891067,42.8783017 91.6346305,41.1533406 89.7732793,40.8352627 C87.9119282,40.5171848 85.1795662,41.4070562 81.5761933,43.5048769 Z" id="Path-20" transform="translate(87.1368, 54.2724) rotate(11) translate(-87.1368, -54.2724)"></path>
            <path d="M94.741286,64.2322224 C92.5872634,66.4011474 91.3687155,68.4887541 91.0856424,70.4950426 C90.8025693,72.501331 91.3055404,75.4853948 92.5945556,79.4472338 C94.4538856,82.4613739 96.0594699,84.2093389 97.4113084,84.6911288 C98.7631469,85.1729188 101.125654,84.8391661 104.498831,83.6898708 C106.747751,80.9761521 108.124873,78.5598404 108.630195,76.4409359 C109.135517,74.3220314 109.135517,70.963833 108.630195,66.3663406 C106.311414,63.6984731 104.270332,62.2290618 102.506946,61.9581066 C100.743561,61.6871513 98.1550077,62.4451899 94.741286,64.2322224 Z" id="Path-20" transform="translate(100.0092, 73.4046) rotate(11) translate(-100.0092, -73.4046)"></path>
        </g>
        <g id="Group" transform="translate(54.3319, 117.1091) scale(-1, 1) translate(-54.3319, -117.1091)translate(-1.1872, 73.9038)" fill="#000000">
            <path d="M6.86284564,4.18323106 C2.90187821,8.08124173 0.661127201,11.8331065 0.140592611,15.4388253 C-0.37994198,19.0445442 0.544956402,24.4075292 2.91528776,31.5277805 C6.3343537,36.9448189 9.28681423,40.0862767 11.7726693,40.9521537 C14.2585245,41.8180307 18.6028685,41.2182075 24.8057015,39.1526842 C28.9411731,34.2755655 31.4735198,29.9329494 32.4027416,26.124836 C33.3319634,22.3167226 33.3319634,16.2813395 32.4027416,8.01868659 C28.1388065,3.22397231 24.3855208,0.583133633 21.1428847,0.096170546 C17.9002486,-0.390792541 13.1402356,0.971560963 6.86284564,4.18323106 Z" id="Path-20"></path>
            <path d="M40.9761328,15.2384374 C38.1041026,18.2560722 36.4793721,21.1605685 36.1019413,23.9519263 C35.7245105,26.7432842 36.3951386,30.895025 38.1138257,36.407149 C40.5929323,40.6007352 42.7337113,43.0326865 44.5361627,43.7030029 C46.338614,44.3733193 49.4886241,43.9089678 53.9861929,42.3099483 C56.9847532,38.5343396 58.8209148,35.1725147 59.4946778,32.2244736 C60.1684407,29.2764326 60.1684407,24.6041565 59.4946778,18.2076453 C56.4029708,14.4958298 53.6815271,12.4514314 51.3303467,12.0744502 C48.9791663,11.697469 45.5277617,12.7521314 40.9761328,15.2384374 Z" id="Path-20"></path>
            <path d="M63.3541162,27.1372362 C60.8410898,30.0605699 59.4194506,32.8743007 59.0891987,35.5784286 C58.7589467,38.2825565 59.3457463,42.3045555 60.8495974,47.6444256 C63.0188158,51.7069622 64.8919974,54.062915 66.4691423,54.7122841 C68.0462872,55.3616531 70.8025461,54.9118126 74.7379188,53.3627624 C77.361659,49.7051414 78.9683004,46.4483736 79.557843,43.5924588 C80.1473857,40.736544 80.1473857,36.2102766 79.557843,30.0136564 C76.8525994,26.4178351 74.4713362,24.4373241 72.4140534,24.0721236 C70.3567705,23.7069231 67.3367915,24.7286273 63.3541162,27.1372362 Z" id="Path-20" transform="translate(69.5, 39.5) rotate(11) translate(-69.5, -39.5)"></path>
            <path d="M81.5761933,43.5048769 C79.3025027,46.0510063 78.0162577,48.5016751 77.7174584,50.8568832 C77.418659,53.2120914 77.9495729,56.7151228 79.3102001,61.3659773 C81.2728262,64.9043157 82.9676096,66.9562746 84.3945503,67.5218541 C85.8214909,68.0874336 88.3152489,67.6956369 91.8758242,66.3464642 C94.2496844,63.1607944 95.7033124,60.3242546 96.2367081,57.836845 C96.7701037,55.3494353 96.7701037,51.4072024 96.2367081,46.0101461 C93.7891067,42.8783017 91.6346305,41.1533406 89.7732793,40.8352627 C87.9119282,40.5171848 85.1795662,41.4070562 81.5761933,43.5048769 Z" id="Path-20" transform="translate(87.1368, 54.2724) rotate(11) translate(-87.1368, -54.2724)"></path>
            <path d="M94.741286,64.2322224 C92.5872634,66.4011474 91.3687155,68.4887541 91.0856424,70.4950426 C90.8025693,72.501331 91.3055404,75.4853948 92.5945556,79.4472338 C94.4538856,82.4613739 96.0594699,84.2093389 97.4113084,84.6911288 C98.7631469,85.1729188 101.125654,84.8391661 104.498831,83.6898708 C106.747751,80.9761521 108.124873,78.5598404 108.630195,76.4409359 C109.135517,74.3220314 109.135517,70.963833 108.630195,66.3663406 C106.311414,63.6984731 104.270332,62.2290618 102.506946,61.9581066 C100.743561,61.6871513 98.1550077,62.4451899 94.741286,64.2322224 Z" id="Path-20" transform="translate(100.0092, 73.4046) rotate(11) translate(-100.0092, -73.4046)"></path>
        </g>
    </g>
</svg>