<?xml version="1.0" encoding="UTF-8" standalone="no"?>
<!-- Created with Inkscape (http://www.inkscape.org/) -->

<svg
   version="1.1"
   id="svg1"
   width="1277.0928"
   height="1019.5718"
   viewBox="0 0 1277.0928 1019.5718"
   sodipodi:docname="Elephant12b.svg"
   inkscape:version="1.3.2 (091e20ef0f, 2023-11-25)"
   xmlns:inkscape="http://www.inkscape.org/namespaces/inkscape"
   xmlns:sodipodi="http://sodipodi.sourceforge.net/DTD/sodipodi-0.dtd"
   xmlns="http://www.w3.org/2000/svg"
   xmlns:svg="http://www.w3.org/2000/svg">
  <defs
     id="defs1" />
  <sodipodi:namedview
     id="namedview1"
     pagecolor="#ffffff"
     bordercolor="#000000"
     borderopacity="0.25"
     inkscape:showpageshadow="2"
     inkscape:pageopacity="0.0"
     inkscape:pagecheckerboard="0"
     inkscape:deskcolor="#d1d1d1"
     showgrid="false"
     inkscape:zoom="0.54894578"
     inkscape:cx="644.87243"
     inkscape:cy="521.90947"
     inkscape:window-width="1920"
     inkscape:window-height="1011"
     inkscape:window-x="0"
     inkscape:window-y="0"
     inkscape:window-maximized="1"
     inkscape:current-layer="layer1" />
  <g
     inkscape:groupmode="layer"
     id="layer1"
     inkscape:label="Layer 1"
     transform="translate(-17.573985,-9.3333326)">
    <path
       style="fill:#a05a2c"
       d="m 970.83303,1027.9883 c -16.25641,-1.7067 -24.19349,-3.6692 -29.79585,-7.3675 -11.8726,-7.8376 -11.84412,-17.7582 0.12358,-43.04744 4.40047,-9.29875 8.67138,-18.67975 9.49091,-20.84666 2.78166,-7.35497 3.87629,-22.43957 2.64566,-36.45838 -2.147,-24.45768 -7.49722,-40.09619 -19.11842,-55.88247 -7.79413,-10.58758 -30.2124,-33.93036 -32.01079,-33.33089 -3.38566,1.12855 -12.72666,20.65357 -16.18294,33.82638 -3.38771,12.91146 -4.84788,37.8621 -3.26627,55.81236 3.04615,34.57195 3.09537,37.17522 0.78722,41.63869 -3.01447,5.82935 -9.68392,10.55848 -17.53028,12.43028 -3.65338,0.87153 -12.72991,3.34283 -20.17005,5.49176 -20.24449,5.84721 -28.8743,6.74615 -42.29513,4.40575 -23.48248,-4.095 -42.21651,-13.36748 -42.14921,-20.86192 0.0862,-9.596 10.41671,-29.54878 22.67278,-43.79103 8.98938,-10.44616 10.70703,-14.60824 12.03591,-29.16451 0.64486,-7.06356 1.88035,-17.73142 2.74554,-23.70635 1.33887,-9.24616 1.23505,-12.7111 -0.69738,-23.27358 -2.34066,-12.7938 -7.73412,-30.12089 -15.99848,-51.3969 -5.69551,-14.66265 -8.16657,-29.40853 -10.12619,-60.42722 -0.80941,-12.81201 -1.5891,-23.39907 -1.73264,-23.5268 -1.3096,-1.16529 -42.2917,-5.89815 -48.36415,-5.58538 L 714,703.33323 l -0.9324,7.33333 c -0.51283,4.03334 -1.58324,14.93837 -2.37871,24.2334 -1.76261,20.59623 -6.92749,51.78558 -11.55318,69.76659 -7.07666,27.50847 -7.3326,29.18689 -7.52267,49.33333 -0.22173,23.50251 1.26548,35.36842 9.27474,74 7.12729,34.37752 8.62301,52.79258 4.87335,59.99978 -1.33842,2.57258 -5.41918,6.61374 -9.09446,9.0062 C 693,999.39272 688.2,1003.4463 686,1006.0137 c -4.83146,5.6384 -17.94498,10.4656 -34.85777,12.8316 -25.46894,3.5629 -68.39687,-7.0233 -73.71627,-18.1787 -2.10343,-4.41121 -3.6298,-29.6085 -2.24177,-37.00729 0.4685,-2.49732 3.46579,-8.09232 6.66066,-12.43334 7.28606,-9.89991 9.24062,-15.91985 9.11471,-28.07281 -0.0936,-9.03913 -1.43111,-15.14727 -9.88695,-45.15328 -1.88929,-6.70425 -2.71503,-14.21591 -2.93143,-26.66666 l -0.30125,-17.33333 -12.17682,-37.14384 c -6.69725,-20.42911 -13.20423,-38.27911 -14.45995,-39.66666 -3.20435,-3.54077 -8.19679,-3.15443 -20.16845,1.56074 -15.88765,6.25753 -44.74695,20.61498 -47.42532,23.59402 -2.30017,2.55837 -2.2945,2.91192 0.14975,9.34468 1.39721,3.67714 5.88199,11.70142 9.96618,17.83172 4.08419,6.1303 8.05818,13.5781 8.83108,16.55065 1.18168,4.54469 3.30584,6.92643 13.34991,14.96873 18.64067,14.92561 23.71953,26.62139 17.31287,39.8687 -5.80351,12.00012 -34.34178,37.69428 -51.26362,46.1547 -13.85986,6.92952 -32.80414,7.92985 -45.32084,2.39312 -11.73222,-5.18972 -19.30139,-21.90377 -19.30139,-42.62084 0,-12.71505 -1.11812,-15.27014 -12.29419,-28.0942 -8.55251,-9.81365 -15.30857,-20.86782 -18.36218,-30.04394 -1.58851,-4.77346 -5.83752,-13.19693 -9.44225,-18.71882 -13.67429,-20.94691 -17.18251,-31.6968 -17.215,-52.75017 -0.0185,-11.98929 0.22643,-13.143 3.99956,-18.83939 7.75434,-11.70692 40.78055,-41.8707 62.94459,-57.48909 10.79723,-7.60852 13.7266,-11.35749 20.82046,-26.64577 2.99754,-6.46011 7.19013,-13.96011 9.31686,-16.66666 5.94892,-7.57081 8.23519,-12.92099 8.19956,-19.18812 -0.0734,-12.91662 -5.39584,-26.15683 -15.15628,-37.70331 -16.95371,-20.05603 -26.00326,-40.00712 -28.26209,-62.30797 l -0.90603,-8.94507 -5.48817,-0.65997 c -3.01849,-0.36298 -9.72616,-0.98148 -14.90592,-1.37444 -15.80872,-1.19931 -31.774,-7.82506 -40.48588,-16.80206 -2.81981,-2.90562 -7.29872,-6.19038 -9.95312,-7.29946 -10.95987,-4.57932 -29.59694,-3.72664 -40.42915,1.84973 -2.77609,1.42911 -8.08106,4.17227 -11.78883,6.0959 -7.57311,3.929 -14.81981,5.48097 -19.77982,4.23609 -3.14819,-0.79014 -3.33035,-1.33421 -3.29098,-9.82938 0.0303,-6.53237 -0.90175,-11.46375 -3.4064,-18.02337 -6.08293,-15.9311 -4.17237,-22.47811 8.43686,-28.91085 7.31343,-3.73103 9.62021,-8.47949 5.91788,-12.18182 -4.56001,-4.56002 -11.49985,-5.88682 -73.11521,-13.97866 -24.45697,-3.21189 -28.78319,-4.20733 -52.66667,-12.11835 -38.07917,-12.61311 -74.993054,-31.16285 -105.230147,-52.87962 -25.108034,-18.033 -36.124116,-29.97813 -36.124116,-39.17069 0,-2.58105 0.780636,-4.77947 1.841723,-5.18665 1.012947,-0.38871 8.181546,3.4717 15.93022,8.57867 17.81571,11.74193 26.706055,15.93735 39.149528,18.47493 16.282113,3.3204 14.889549,0.39743 -4.921471,-10.33009 -12.995677,-7.03705 -34.989393,-22.87072 -44.921193,-32.33956 -6.134429,-5.84848 -9.177867,-11.67489 -7.873688,-15.07353 1.214275,-3.16435 7.125002,-1.88473 25.785044,5.58224 21.442657,8.58045 22.410188,8.81078 25.727478,6.1246 2.387849,-1.93356 3.122905,-5.4036 5.376109,-25.37946 1.435538,-12.72681 3.549168,-27.68613 4.696957,-33.24293 4.298927,-20.81244 13.279722,-37.06355 31.748516,-57.45023 5.57009,-6.14852 10.12744,-11.94753 10.12744,-12.88668 0,-4.12662 18.19733,-17.01571 38.1932,-27.05208 35.39463,-17.76535 56.66426,-22.21453 125.14014,-26.1768 44.86625,-2.596133 63.78648,-4.16659 83.33333,-6.917008 11.96544,-1.683646 20.6891,-1.96691 39.71707,-1.289647 26.17285,0.931572 44.35141,-0.794407 59.90414,-5.68765 6.12569,-1.92728 8.45727,-3.494497 11.33449,-7.618702 1.99231,-2.855761 3.64231,-5.912214 3.66667,-6.792117 0.0244,-0.879903 -1.69477,-4.179903 -3.8203,-7.333333 C 472.66921,57.301432 468,47.862412 468,44.563268 c 0,-4.228818 2.67344,-6.502939 14.32263,-12.183332 6.93568,-3.381983 13.01861,-7.771311 19.38467,-13.987613 5.1025,-4.982471 10.09034,-9.0590386 11.08408,-9.0590386 0.99374,0 2.87221,1.9499996 4.17438,4.3333336 2.07778,3.802927 2.36757,8.168577 2.36757,35.666664 0,49.275348 -2.94031,56.882808 -30,77.618838 -22.70107,17.39599 -17.01793,16.51991 -136.66666,21.0676 -43.48387,1.65277 -58.5362,3.73479 -81.28923,11.24386 -41.62205,13.73631 -74.00638,32.98111 -82.0583,48.76418 -5.47006,10.7222 -6.65696,31.56955 -2.56812,45.10795 2.35405,7.79442 11.61136,17.84015 19.54307,21.20751 9.63247,4.08942 16.07712,4.69856 26.56785,2.51118 13.46816,-2.80819 24.60192,-8.74276 41.93254,-22.3511 17.4901,-13.73357 32.47871,-21.71725 46.00515,-24.50466 5.20647,-1.0729 21.40647,-2.54713 36,-3.27607 33.0029,-1.64847 37.49941,-2.5053 52.38773,-9.98266 57.1186,-28.68668 82.05442,-29.57748 129.29795,-4.619 27.15556,14.34612 44.05143,26.50154 46.18628,33.22788 1.39772,4.40382 6.73109,4.60534 21.84372,0.82536 7.78325,-1.94675 15.35136,-3.529 16.81802,-3.51611 6.18479,0.0543 12.87082,3.11808 19.17603,8.787 8.90621,8.00745 11.89067,8.70182 27.82734,6.47437 7.25101,-1.01347 24.84157,-2.45336 39.09014,-3.19975 26.89251,-1.40874 36.29881,-2.38105 66.57316,-6.88154 32.15513,-4.78008 78.16705,-5.37146 99.38386,-1.27737 4.37221,0.84368 14.54947,3.86101 22.61614,6.70516 8.06667,2.84416 21.37244,7.31751 29.56838,9.94079 8.19595,2.62327 22.12546,8.0749 30.95447,12.11474 8.82901,4.03983 16.53212,7.34515 17.11802,7.34515 2.53224,0 10.82108,5.49552 16.37727,10.85817 3.30998,3.19467 14.10996,11.50337 23.99996,18.46377 16.9702,11.94321 39.9819,33.0103 39.9819,36.60309 0,0.86683 1.8692,3.33831 4.1538,5.49218 8.1287,7.66352 30.6144,38.90411 36.9728,51.36833 0.9686,1.89871 5.9114,7.77032 10.9839,13.04802 5.0726,5.27769 9.2228,10.39112 9.2228,11.36317 0,2.60427 19.3962,32.99812 36.8701,57.77559 18.0207,25.55268 26.5383,40.96988 29.0447,52.57218 1.0047,4.65051 3.0255,11.45548 4.4908,15.12215 2.3309,5.83292 6.5836,27.7805 8.9132,46 0.422,3.3 1.3118,37.79999 1.9774,76.66666 0.6862,40.07343 1.8573,74.41465 2.705,79.32405 0.8221,4.76157 3.751,13.76157 6.5086,20 l 5.0138,11.34261 18.6593,0.83399 c 21.7518,0.97221 31.7722,3.44208 40.7794,10.05142 12.1513,8.91646 22.3711,23.3088 22.3711,31.50481 0,6.55791 -4.2991,7.88439 -28.0049,8.6408 -13.7954,0.44018 -21.8646,0.18984 -22.9651,-0.7125 -1.491,-1.2225 -10.7612,-4.17372 -15.3248,-4.87872 -0.8954,-0.13833 -2.0454,-0.66888 -2.5555,-1.17899 -0.5101,-0.51012 -1.8775,-0.92426 -3.0386,-0.92031 -3.7473,0.0127 -22.7778,-8.25479 -22.7778,-9.89549 0,-0.87371 -2.1396,-3.65627 -4.7546,-6.18346 -6.8561,-6.62569 -9.429,-11.38533 -11.8537,-21.92822 -1.1806,-5.13333 -3.3186,-12.48413 -4.7511,-16.33511 -5.2545,-14.12582 -7.7172,-44.74954 -10.4809,-130.33155 -1.1581,-35.85967 -2.2391,-43.33333 -6.2678,-43.33333 -1.9758,0 -2.7617,3.3097 -4.4665,18.80893 -3.3333,30.30549 -20.9066,91.77459 -34.0753,119.19106 -3.1702,6.6 -6.1321,14.16543 -6.5822,16.81207 -1.0677,6.27898 -14.2773,26.03061 -26.0357,38.92961 -9.7869,10.7363 -25.2795,32.84906 -31.1989,44.53033 -10.2383,20.20432 -13.724,40.30372 -10.8378,62.49274 1.0422,8.01271 2.5169,20.10875 3.2769,26.88009 1.7454,15.54837 5.0883,24.48179 13.3487,35.6719 7.1468,9.68154 8.9824,16.25964 7.3232,26.24269 -1.9207,11.55638 -8.5374,18.80488 -23.2705,25.49238 -17.3074,7.856 -51.63166,11.7615 -78.54077,8.9366 z"
       id="path2" />
    <path
       id="path3"
       style="fill:#ffeeaa"
       d="M 34.638438 281.41341 C 32.554103 281.37187 31.96622 282.58599 32.243907 284.99935 C 32.592979 288.0331 34.14703 289.39487 41.241954 292.88607 C 45.958258 295.20681 50.785671 298.39151 51.970469 299.96224 C 54.038165 302.70344 57.568148 305.12711 63.388438 307.80404 C 64.885241 308.49247 66.908211 310.01826 67.884532 311.19466 C 68.955169 312.4847 71.711607 313.33333 74.829844 313.33333 C 79.599794 313.33333 79.999766 313.04498 79.999766 309.61068 C 79.999766 304.95839 70.73676 295.45601 63.99586 293.19271 C 61.431534 292.33172 54.418171 289.31044 48.411876 286.47982 C 41.285107 283.12114 37.000684 281.46049 34.638438 281.41341 z M 66.507579 341.33333 C 57.985327 341.33333 70.638659 349.26218 109.99977 368.58919 C 149.49048 387.97983 156.40177 390.52654 189.62086 397.93099 C 236.80855 408.44902 261.58349 412.22949 288.30445 412.98958 C 304.83904 413.45992 312.65155 414.1905 314.30445 415.41732 C 316.26482 416.87234 316.98398 416.85818 318.53102 415.33919 C 320.06867 413.82946 320.10319 412.80075 318.72438 409.472 C 316.44688 403.97363 305.21778 393.72272 297.95289 390.50911 C 294.40971 388.94181 285.10355 387.07857 274.99781 385.91536 C 260.48897 384.24535 222.34382 377.78227 160.66578 366.54036 C 139.81202 362.7394 118.4774 357.19807 91.99586 348.70443 C 79.357553 344.65084 67.887174 341.33333 66.507579 341.33333 z " />
    <path
       style="fill:#000000"
       d="m 970.83303,1027.9883 c -16.25641,-1.7067 -24.19349,-3.6692 -29.79585,-7.3675 -11.8726,-7.8376 -11.84412,-17.7582 0.12358,-43.04739 4.40047,-9.29875 8.67138,-18.67975 9.49091,-20.84666 2.78166,-7.35497 3.87629,-22.43957 2.64566,-36.45838 -2.147,-24.45768 -7.49722,-40.09619 -19.11842,-55.88247 -7.79413,-10.58758 -30.2124,-33.93036 -32.01079,-33.33089 -3.38566,1.12855 -12.72666,20.65357 -16.18294,33.82638 -3.38771,12.91146 -4.84788,37.8621 -3.26627,55.81236 3.04615,34.57195 3.09537,37.17522 0.78722,41.63869 -3.01447,5.82935 -9.68392,10.55848 -17.53028,12.43028 -3.65338,0.87153 -12.72991,3.34283 -20.17005,5.49176 -20.24449,5.84721 -28.8743,6.74615 -42.29513,4.40575 -23.48248,-4.095 -42.21651,-13.36748 -42.14921,-20.86192 0.0862,-9.596 10.41671,-29.54878 22.67278,-43.79103 8.98938,-10.44616 10.70703,-14.60824 12.03591,-29.16451 0.64486,-7.06356 1.88035,-17.73142 2.74554,-23.70635 1.33887,-9.24616 1.23505,-12.7111 -0.69738,-23.27358 -2.34066,-12.7938 -7.73412,-30.12089 -15.99848,-51.3969 -5.69551,-14.66265 -8.16657,-29.40853 -10.12619,-60.42722 -0.80941,-12.81201 -1.5891,-23.39907 -1.73264,-23.5268 -1.3096,-1.16529 -42.2917,-5.89815 -48.36415,-5.58538 L 714,703.33328 l -0.9324,7.33333 c -0.51283,4.03334 -1.58324,14.93837 -2.37871,24.2334 -1.76261,20.59623 -6.92749,51.78558 -11.55318,69.76659 -7.07666,27.50847 -7.3326,29.18689 -7.52267,49.33333 -0.22173,23.50251 1.26548,35.36842 9.27474,74 7.12729,34.37752 8.62301,52.79258 4.87335,59.99978 -1.33842,2.57258 -5.41918,6.61374 -9.09446,9.0062 C 693,999.39277 688.2,1003.4463 686,1006.0137 c -4.83146,5.6384 -17.94498,10.4656 -34.85777,12.8316 -25.46894,3.5629 -68.39687,-7.0233 -73.71627,-18.1787 -2.10343,-4.41116 -3.6298,-29.60845 -2.24177,-37.00724 0.4685,-2.49732 3.46579,-8.09232 6.66066,-12.43334 7.28606,-9.89991 9.24062,-15.91985 9.11471,-28.07281 -0.0936,-9.03913 -1.43111,-15.14727 -9.88695,-45.15328 -1.88929,-6.70425 -2.71503,-14.21591 -2.93143,-26.66666 l -0.30125,-17.33333 -12.17682,-37.14384 c -6.69725,-20.42911 -13.20423,-38.27911 -14.45995,-39.66666 -3.20435,-3.54077 -8.19679,-3.15443 -20.16845,1.56074 -15.88765,6.25753 -44.74695,20.61498 -47.42532,23.59402 -2.30017,2.55837 -2.2945,2.91192 0.14975,9.34468 1.39721,3.67714 5.88199,11.70142 9.96618,17.83172 4.08419,6.1303 8.05818,13.5781 8.83108,16.55065 1.18168,4.54469 3.30584,6.92643 13.34991,14.96873 18.64067,14.92561 23.71953,26.62139 17.31287,39.8687 -5.80351,12.00012 -34.34178,37.69428 -51.26362,46.1547 -13.85986,6.92952 -32.80414,7.92985 -45.32084,2.39312 -11.73222,-5.18972 -19.30139,-21.90377 -19.30139,-42.62084 0,-12.71505 -1.11812,-15.27014 -12.29419,-28.0942 -8.55251,-9.81365 -15.30857,-20.86782 -18.36218,-30.04394 -1.58851,-4.77346 -5.83752,-13.19693 -9.44225,-18.71882 -13.67429,-20.94691 -17.18251,-31.6968 -17.215,-52.75017 -0.0185,-11.98929 0.22643,-13.143 3.99956,-18.83939 7.75434,-11.70692 40.78055,-41.8707 62.94459,-57.48909 10.79723,-7.60852 13.7266,-11.35749 20.82046,-26.64577 2.99754,-6.46011 7.19013,-13.96011 9.31686,-16.66666 5.94892,-7.57081 8.23519,-12.92099 8.19956,-19.18812 -0.0734,-12.91662 -5.39584,-26.15683 -15.15628,-37.70331 -16.95371,-20.05603 -26.00326,-40.00712 -28.26209,-62.30797 l -0.90603,-8.94507 -5.48817,-0.65997 c -3.01849,-0.36298 -9.72616,-0.98148 -14.90592,-1.37444 -15.80872,-1.19931 -31.774,-7.82506 -40.48588,-16.80206 -2.81981,-2.90562 -7.29872,-6.19038 -9.95312,-7.29946 -10.95987,-4.57932 -29.59694,-3.72664 -40.42915,1.84973 -2.77609,1.42911 -8.08106,4.17227 -11.78883,6.0959 -7.57311,3.929 -14.81981,5.48097 -19.77982,4.23609 -3.14819,-0.79014 -3.33035,-1.33421 -3.29098,-9.82938 0.0303,-6.53237 -0.90175,-11.46375 -3.4064,-18.02337 -6.08293,-15.9311 -4.17237,-22.47811 8.43686,-28.91085 7.31343,-3.73103 9.62021,-8.47949 5.91788,-12.18182 -4.56001,-4.56002 -11.49985,-5.88682 -73.11521,-13.97866 -24.45697,-3.21189 -28.78319,-4.20733 -52.66667,-12.11835 C 121.94176,387.8334 85.027876,369.28366 54.790783,347.56689 29.682749,329.53389 18.666667,317.58876 18.666667,308.3962 c 0,-2.58105 0.780636,-4.77947 1.841723,-5.18665 1.012947,-0.38871 8.181546,3.4717 15.93022,8.57867 17.81571,11.74193 26.706055,15.93735 39.149528,18.47493 16.282113,3.3204 14.889549,0.39743 -4.921471,-10.33009 -12.995677,-7.03705 -34.989393,-22.87072 -44.921193,-32.33956 -6.134429,-5.84848 -9.177867,-11.67489 -7.873688,-15.07353 1.214275,-3.16435 7.125002,-1.88473 25.785044,5.58224 21.442657,8.58045 22.410188,8.81078 25.727478,6.1246 2.387849,-1.93356 3.122905,-5.4036 5.376109,-25.37946 1.435538,-12.72681 3.549168,-27.68613 4.696957,-33.24293 4.298927,-20.81244 13.279722,-37.06355 31.748516,-57.45023 5.57009,-6.14852 10.12744,-11.94753 10.12744,-12.88668 0,-4.12662 18.19733,-17.01571 38.1932,-27.05208 35.39463,-17.76535 56.66426,-22.21453 125.14014,-26.1768 44.86625,-2.596135 63.78648,-4.166592 83.33333,-6.91701 11.96544,-1.683646 20.6891,-1.96691 39.71707,-1.289647 26.17285,0.931572 44.35141,-0.794407 59.90414,-5.68765 6.12569,-1.92728 8.45727,-3.494497 11.33449,-7.618702 1.99231,-2.855761 3.64231,-5.912214 3.66667,-6.792117 0.0244,-0.879903 -1.69477,-4.179903 -3.8203,-7.333333 C 472.66921,57.30148 468,47.86246 468,44.563316 c 0,-4.228818 2.67344,-6.502939 14.32263,-12.183332 6.93568,-3.381983 13.01861,-7.771311 19.38467,-13.987613 5.1025,-4.982471 10.09034,-9.0590384 11.08408,-9.0590384 0.99374,0 2.87221,1.9499994 4.17438,4.3333334 2.07778,3.802927 2.36757,8.168577 2.36757,35.666664 0,49.275348 -2.94031,56.88281 -30,77.61884 -22.70107,17.39599 -17.01793,16.51991 -136.66666,21.0676 -43.48387,1.65277 -58.5362,3.73479 -81.28923,11.24386 -41.62205,13.73631 -74.00638,32.98111 -82.0583,48.76418 -5.47006,10.7222 -6.65696,31.56955 -2.56812,45.10795 2.35405,7.79442 11.61136,17.84015 19.54307,21.20751 9.63247,4.08942 16.07712,4.69856 26.56785,2.51118 13.46816,-2.80819 24.60192,-8.74276 41.93254,-22.3511 17.4901,-13.73357 32.47871,-21.71725 46.00515,-24.50466 5.20647,-1.0729 21.40647,-2.54713 36,-3.27607 33.0029,-1.64847 37.49941,-2.5053 52.38773,-9.98266 57.1186,-28.68668 82.05442,-29.57748 129.29795,-4.619 27.15556,14.34612 44.05143,26.50154 46.18628,33.22788 1.39772,4.40382 6.73109,4.60534 21.84372,0.82536 7.78325,-1.94675 15.35136,-3.529 16.81802,-3.51611 6.18479,0.0543 12.87082,3.11808 19.17603,8.787 8.90621,8.00745 11.89067,8.70182 27.82734,6.47437 7.25101,-1.01347 24.84157,-2.45336 39.09014,-3.19975 26.89251,-1.40874 36.29881,-2.38105 66.57316,-6.88154 32.15513,-4.78008 78.16705,-5.37146 99.38386,-1.27737 4.37221,0.84368 14.54947,3.86101 22.61614,6.70516 8.06667,2.84416 21.37244,7.31751 29.56838,9.94079 8.19595,2.62327 22.12546,8.0749 30.95447,12.11474 8.82901,4.03983 16.53212,7.34515 17.11802,7.34515 2.53224,0 10.82108,5.49552 16.37727,10.85817 3.30998,3.19467 14.10996,11.50337 23.99996,18.46377 16.9702,11.94321 39.9819,33.0103 39.9819,36.60309 0,0.86683 1.8692,3.33831 4.1538,5.49218 8.1287,7.66352 30.6144,38.90411 36.9728,51.36833 0.9686,1.89871 5.9114,7.77032 10.9839,13.04802 5.0726,5.27769 9.2228,10.39112 9.2228,11.36317 0,2.60427 19.3962,32.99812 36.8701,57.77559 18.0207,25.55268 26.5383,40.96988 29.0447,52.57218 1.0047,4.65051 3.0255,11.45548 4.4908,15.12215 2.3309,5.83292 6.5836,27.7805 8.9132,46 0.422,3.3 1.3118,37.79999 1.9774,76.66666 0.6862,40.07343 1.8573,74.41465 2.705,79.32405 0.8221,4.76157 3.751,13.76157 6.5086,20 l 5.0138,11.34261 18.6593,0.83399 c 21.7518,0.97221 31.7722,3.44208 40.7794,10.05142 12.1513,8.91646 22.3711,23.3088 22.3711,31.50481 0,6.55791 -4.2991,7.88439 -28.0049,8.6408 -13.7954,0.44018 -21.8646,0.18984 -22.9651,-0.7125 -1.491,-1.2225 -10.7612,-4.17372 -15.3248,-4.87872 -0.8954,-0.13833 -2.0454,-0.66888 -2.5555,-1.17899 -0.5101,-0.51012 -1.8775,-0.92426 -3.0386,-0.92031 -3.7473,0.0127 -22.7778,-8.25479 -22.7778,-9.89549 0,-0.87371 -2.1396,-3.65627 -4.7546,-6.18346 -6.8561,-6.62569 -9.429,-11.38533 -11.8537,-21.92822 -1.1806,-5.13333 -3.3186,-12.48413 -4.7511,-16.33511 -5.2545,-14.12582 -7.7172,-44.74954 -10.4809,-130.33155 -1.1581,-35.85967 -2.2391,-43.33333 -6.2678,-43.33333 -1.9758,0 -2.7617,3.3097 -4.4665,18.80893 -3.3333,30.30549 -20.9066,91.77459 -34.0753,119.19106 -3.1702,6.6 -6.1321,14.16543 -6.5822,16.81207 -1.0677,6.27898 -14.2773,26.03061 -26.0357,38.92961 -9.7869,10.7363 -25.2795,32.84906 -31.1989,44.53033 -10.2383,20.20432 -13.724,40.30372 -10.8378,62.49274 1.0422,8.01271 2.5169,20.10875 3.2769,26.88009 1.7454,15.54837 5.0883,24.48179 13.3487,35.6719 7.1468,9.68154 8.9824,16.25964 7.3232,26.24269 -1.9207,11.55633 -8.5374,18.80483 -23.2705,25.49233 -17.3074,7.856 -51.63166,11.7615 -78.54077,8.9366 z m 17.91213,-9.9884 c 2.56201,-1.9798 2.56201,-2.0202 0,-4 -1.42349,-1.1 -3.85882,-2 -5.41183,-2 -1.55301,0 -3.98833,0.9 -5.41182,2 -2.56201,1.9798 -2.56201,2.0202 0,4 1.42349,1.1 3.85881,2 5.41182,2 1.55301,0 3.98834,-0.9 5.41183,-2 z m 27.88334,0.1928 c 3.1061,-2.2712 1.8342,-6.1928 -2.0086,-6.1928 -2.2579,0 -2.7157,-0.6985 -2.3751,-3.6236 0.8517,-7.3153 14.7493,-12.74256 18.6796,-7.2948 0.9582,1.3282 2.4717,2.8509 3.3632,3.3838 4.1489,2.4798 20.6034,-10.91585 22.451,-18.27746 0.8359,-3.3302 -0.9661,-7.29969 -9.2987,-20.48365 -3.7752,-5.9732 -4.5351,-8.62532 -5.3486,-18.66666 -0.5215,-6.43735 -2.4644,-20.40427 -4.3176,-31.0376 -2.7225,-15.62149 -3.233,-22.02122 -2.6592,-33.33333 1.3802,-27.20774 10.3621,-50.3717 25.9907,-67.029 14.6596,-15.62454 38.3456,-45.96463 36.9631,-47.34711 -0.7411,-0.74115 -8.1531,4.57239 -15.7388,11.28291 -5.0391,4.45774 -7.6628,5.52798 -7.6628,3.12574 0,-0.71544 7.7612,-9.36716 17.2472,-19.22605 16.3431,-16.98549 25.4194,-27.81878 25.4194,-30.33986 0,-2.60706 -3.8002,-0.70994 -11.1079,5.54523 -4.2761,3.66015 -8.0261,6.65482 -8.3334,6.65482 -1.8641,0 0.4252,-3.82569 7.7747,-12.99247 16.0663,-20.03901 18.051,-23.22758 22.4907,-36.13168 1.3921,-4.04613 3.3552,-8.29843 4.3624,-9.44956 2.5466,-2.91019 3.991,-8.09296 2.2556,-8.09296 -1.6165,0 -5.0463,5.22635 -14.2431,21.70366 -6.3781,11.42732 -16.8444,24.96301 -19.3024,24.96301 -2.5682,0 -0.9915,-3.85427 6.2381,-15.2495 7.6808,-12.10628 14.1784,-25.99906 15.859,-33.90849 1.5114,-7.11327 -1.6749,-4.7009 -9.9761,7.55304 -8.3366,12.30626 -27.94,35.28571 -32.8414,38.49723 -5.7609,3.77467 -5.1959,0.56737 1.0434,-5.92301 11.3076,-11.7627 32.2031,-41.28402 39.6087,-55.95954 2.3102,-4.57799 5.7763,-13.87799 7.7025,-20.66667 3.8323,-13.50657 6.4987,-19.67639 8.5035,-19.67639 2.577,0 1.2049,8.83261 -3.6762,23.66296 -4.6562,14.14718 -4.8456,15.34752 -2.9541,18.71739 3.1554,5.62183 6.2072,5.34844 7.8365,-0.70201 3.1351,-11.64303 5.4829,-72.08938 2.9548,-76.07478 -1.8161,-2.86281 -3.5609,0.42656 -10.8571,20.46814 -7.8525,21.56957 -18.4961,44.14965 -22.533,47.80298 -2.513,2.27419 -2.8052,2.30481 -2.8052,0.29395 0,-1.23457 1.7186,-5.67756 3.819,-9.87332 4.6656,-9.31985 11.1091,-26.87463 14.7806,-40.26851 4.9384,-18.016 2.9985,-19.11544 -5.1629,-2.92597 -2.8371,5.62788 -7.4163,13.00689 -10.1759,16.3978 -2.7597,3.39092 -5.6723,8.18361 -6.4725,10.65043 -1.6015,4.93696 -6.1216,7.06897 -6.1216,2.88739 0,-1.37082 2.7834,-6.96482 6.1853,-12.43109 3.4019,-5.46628 9.73,-17.43869 14.0625,-26.60536 13.6892,-28.96348 16.0321,-33.38929 18.3251,-34.61647 3.0684,-1.64217 4.3665,-0.50334 8.801,7.72133 2.1069,3.90766 5.441,7.93755 7.4091,8.95529 5.8617,3.0312 14.334,13.75235 19.9152,25.20149 6.5116,13.35736 7.2941,20.2139 9.2914,81.40502 1.6476,50.479 3.4276,79.45 5.4308,88.38847 0.7679,3.42672 4.8919,14.04116 9.1644,23.58763 4.2724,9.54648 8.1185,18.40379 8.5469,19.68293 1.1745,3.50761 8.2106,7.28722 21.535,11.56807 23.3081,7.48845 54.8991,10.4569 57.9939,5.4494 3.6885,-5.96812 -17.731,-25.14439 -32.6606,-29.24009 -2.9333,-0.80472 -12.4449,-2.05627 -21.1368,-2.78123 -19.7291,-1.64553 -25.9284,-4.11437 -30.6768,-12.21682 -7.0297,-11.99534 -9.622,-31.73226 -11.5279,-87.77169 -4.3673,-128.41452 -4.0309,-125.07331 -15.5052,-153.99999 -9.7098,-24.4784 -16.4489,-37.04191 -30.9305,-57.66298 -6.5676,-9.35202 -15.374,-22.70368 -19.5696,-29.67034 -4.1957,-6.96667 -13.1504,-20.16667 -19.8995,-29.33334 -15.2866,-20.7626 -29.0975,-40.74459 -31.7938,-45.99999 -1.1287,-2.2 -7.2765,-9.7 -13.6618,-16.66667 -6.3853,-6.96666 -15.7461,-17.58887 -20.8019,-23.6049 -8.1627,-9.71295 -12.2899,-13.01165 -36.84431,-29.44796 C 961.08236,286.46806 961.8399,286.8688 932.66667,276.5693 885.86784,260.04714 871.06586,256.49149 843.38006,255.12135 794.28135,252.69153 660,268.18055 660,276.2738 c 0,2.32427 5.73578,3.43197 20.85787,4.02808 13.28663,0.52376 16.99407,1.132 20.66667,3.39058 2.76891,1.70284 5.78442,2.4982 7.90824,2.08587 3.99732,-0.77607 10.82375,4.27177 13.94844,10.31426 2.42185,4.68332 2.42779,5.24072 0.0558,5.24072 -1.04294,0 -4.27193,-2.7793 -7.17552,-6.17622 -3.28779,-3.84638 -5.88253,-5.80338 -6.87845,-5.18787 -2.21649,1.36986 -0.59769,6.99464 3.37015,11.71015 3.20137,3.80461 4.00971,6.44653 2.44973,8.00652 -1.53573,1.53573 -4.34406,-0.60004 -8.0456,-6.11878 -6.98447,-10.41336 -11.37755,-15.56713 -13.26942,-15.56713 -2.83738,0 -2.41521,1.24497 4.08981,12.06081 6.62087,11.00845 7.21927,13.27252 3.50795,13.27252 -1.56975,0 -5.20118,-3.61176 -9.66666,-9.6143 -3.93382,-5.28787 -9.74904,-11.58787 -12.92271,-14 -5.87943,-4.46863 -10.90321,-5.72323 -10.8878,-2.71903 0.005,0.91666 7.77115,10.18157 17.25877,20.58869 9.48762,10.40711 18.26161,20.87783 19.49775,23.26827 4.44363,8.59303 -0.30677,33.5396 -8.70217,45.69913 -4.71281,6.82583 -14.93277,16.76526 -35.36179,34.39112 -18.2223,15.72194 -25.75855,25.05278 -20.2344,25.05278 0.99002,0 4.93123,-3.6 8.75823,-8 3.827,-4.4 7.56314,-8 8.30252,-8 1.70958,0 9.13921,7.37365 9.13921,9.07034 0,0.70151 -2.61244,4.63978 -5.80543,8.75171 -3.19298,4.11193 -7.24195,10.18412 -8.99771,13.49376 -1.75575,3.30963 -3.72182,6.01752 -4.36903,6.01752 -2.26396,0 0.45539,-9.89394 4.51369,-16.42238 2.25184,-3.62245 3.90545,-6.77509 3.67469,-7.00585 -0.23077,-0.23077 -2.38479,0.82471 -4.78672,2.34551 -7.56261,4.7883 -16.3677,19.40195 -28.36852,47.08272 -3.49725,8.06666 -8.21055,16.61503 -10.47399,18.99638 -4.50319,4.73775 -14.41687,10.12535 -30.0826,16.34845 -22.79261,9.05419 -35.02167,18.36107 -41.48527,31.57218 -3.31344,6.77242 -3.60863,8.6226 -3.36375,21.083 0.46227,23.5219 4.46263,33.97148 18.77867,49.05292 l 9.12582,9.61372 0.67628,50 c 0.37196,27.5 1.14179,51.46786 1.71075,53.26193 0.96276,3.03584 1.10485,3.08205 2.05007,0.66666 0.55859,-1.42739 1.05779,-7.78169 1.10933,-14.12066 0.13413,-16.49587 2.56682,-38.10326 4.91867,-43.68816 1.86289,-4.42377 2.15093,-4.60351 3.80147,-2.37222 0.98221,1.32782 2.19347,6.72782 2.69169,12 1.26172,13.35175 9.98305,38.77173 19.41083,56.57658 4.36575,8.24495 7.93772,15.89495 7.93772,17 0,2.52501 -3.86643,2.53011 -7.19643,0.01 -1.39137,-1.05319 -3.04137,-1.59869 -3.66666,-1.21224 -2.81477,1.73962 0.68208,38.13127 5.50226,57.26204 3.03071,12.02851 10.69769,28.23576 15.48454,32.73277 3.00807,2.82594 3.20766,2.85417 3.17825,0.44954 -0.0173,-1.41117 -1.21726,-7.02518 -2.66667,-12.47558 -1.44941,-5.45041 -2.63529,-11.565 -2.63529,-13.58798 0,-4.09757 1.94006,-6.0899 3.48924,-3.58327 2.01376,3.25833 23.12455,67.16449 23.15062,70.08107 0.041,4.58378 -1.97091,3.58532 -4.62204,-2.29381 -3.11171,-6.90055 -5.6642,-9.06783 -11.30859,-9.60195 -3.56132,-0.337 -5.33371,-1.51013 -7.71158,-5.10424 -5.53006,-8.35859 -6.76525,-9.33333 -11.82716,-9.33333 -3.80832,0 -5.79101,-0.99181 -9.19245,-4.59838 -2.38525,-2.52911 -4.7061,-4.22911 -5.15743,-3.77778 -1.05859,1.05859 -1.03342,16.11244 0.0336,20.09568 0.46746,1.74507 2.64905,3.81801 5.0926,4.83899 6.40901,2.67786 10.4537,12.00686 11.03045,25.44149 0.59268,13.80581 1.12795,16.0397 4.62363,19.29643 6.84328,6.37548 8.02443,1.74581 3.73245,-14.62977 -3.13053,-11.94417 -3.37702,-18.10877 -0.76415,-19.11142 2.73522,-1.04961 4.27866,1.54629 5.22169,8.78236 1.6272,12.48575 11.003,25.50714 21.82267,30.30798 4.28123,1.89964 6.26768,3.88241 8.36964,8.35413 1.51585,3.22483 5.13975,8.19091 8.05312,11.03573 9.38916,9.16828 6.39455,11.38576 -5.30786,3.93043 -8.60015,-5.47896 -10.72845,-5.75559 -10.72845,-1.39445 0,7.97445 -7.18451,9.16858 -17.18404,2.85615 -14.12654,-8.91769 -19.00028,-2.89843 -8.64544,10.67746 4.8628,6.37546 18.34477,16.23857 24.44018,17.87989 3.14099,0.84578 8.77194,4.6792 14.75849,10.04722 9.42649,8.45256 14.34808,11.12406 17.2217,9.34806 2.41781,-1.4943 1.57388,-3.06089 -3.25755,-6.04688 C 669.77539,994.21301 668,992.07015 668,990.36732 c 0,-2.60273 0.54785,-2.70934 10.33333,-2.01083 5.68334,0.40568 11.38334,1.15561 12.66667,1.66651 2.12484,0.84589 2.33333,-0.21659 2.33333,-11.89077 0,-20.13614 -8.19554,-72.6567 -14.12191,-90.49935 -1.84863,-5.5657 -1.92898,-8.57128 -0.60664,-22.69088 3.40496,-36.35729 9.97642,-74.12502 15.70761,-90.27539 l 3.54865,-10 0.52392,-51.03891 0.52392,-51.0389 6.49634,-3.29194 c 20.73918,-10.50934 26.17483,-25.84016 16.26145,-45.86412 l -5,-10.09945 v -18.12411 c 0,-20.1465 1.06079,-23.40201 7.12916,-21.87895 7.37753,1.85164 15.03049,10.90985 17.72319,20.97756 1.9874,7.43067 1.02504,11.12674 -4.80764,18.46438 -5.39057,6.78145 -5.69227,7.89445 -2.13995,7.89445 5.10792,0 6.76273,3.53786 6.74888,14.42857 -0.0209,16.45314 -6.52576,26.92847 -22.98883,37.02102 -8.96784,5.49767 -12.75679,14.86065 -8.91708,22.03522 2.05544,3.84062 5.63337,4.83115 31.03453,8.59172 12.58642,1.86339 29.7844,4.92523 38.21774,6.80409 10.33381,2.30227 20.11548,3.51495 30,3.71923 13.07441,0.27021 15.53516,0.72029 22.66666,4.14578 7.69447,3.69591 8.95128,3.87128 32.90785,4.5918 21.89672,0.65858 25.24387,1.05323 27.68733,3.26453 5.59872,5.06677 25.24619,3.87589 27.37011,-1.65897 0.58533,-1.52535 -0.2909,-3.18524 -2.69221,-5.09997 -4.62251,-3.68586 -3.84508,-6.03791 5.43243,-16.43541 3.99245,-4.47442 7.67372,-9.77158 8.18059,-11.77146 1.09875,-4.33521 1.25237,-15.05975 0.70144,-48.96949 -0.5776,-35.55141 -0.69146,-33.67535 1.88732,-31.09656 1.17784,1.17784 2.98378,5.65641 4.01321,9.95238 2.56103,10.68762 4.97256,57.46901 4.01107,77.81085 l -0.78778,16.66666 -7.48711,15.33333 c -4.11791,8.43334 -8.19682,16.83334 -9.06424,18.66667 -1.19609,2.52801 -2.77846,3.43352 -6.54963,3.74801 -4.22053,0.35197 -5.34588,1.15852 -7.44141,5.33333 -5.39765,10.75344 -4.37862,25.18473 2.98352,42.25199 1.89799,4.4 3.46513,9.66927 3.48253,11.70949 0.0524,6.13916 3.32866,12.1272 10.6302,19.42874 8.74773,8.74773 28.8803,24.35266 37.40256,28.99106 8.45451,4.60152 9.30016,6.93682 4.09234,11.30114 -2.2514,1.88674 -4.09154,3.98674 -4.08921,4.66667 0.002,0.67992 2.40043,4.83623 5.32909,9.23623 6.08016,9.13476 6.49975,11.56693 2.45843,14.25027 -4.33778,2.88018 -2.61224,6.82593 8.7892,20.09803 10.16415,11.83179 14.08571,17.84134 14.08571,21.58548 0,3.24101 -2.31534,2.43342 -5.54416,-1.93379 -1.62654,-2.2 -3.4445,-4 -4.03992,-4 -2.91479,0 -0.11351,4.06631 10.10038,14.66161 14.32673,14.86168 16.77763,22.70924 7.07163,22.64244 -6.38119,-0.0439 -14.31123,-4.21067 -19.98077,-10.49869 -6.34727,-7.03968 -7.14999,-9.19749 -8.713,-23.42181 -0.69711,-6.34405 -1.64347,-11.91063 -2.10304,-12.3702 -2.52255,-2.52255 -3.99669,3.83895 -4.82902,20.83926 -0.99403,20.30287 -2.26392,24.30425 -11.22662,35.37498 -9.3432,11.5407 -11.55176,21.101 -5.41373,23.43467 1.82697,0.69461 4.18008,0.93356 5.22915,0.531 3.58828,-1.37696 7.2707,2.05722 9.0818,8.46958 1.10724,3.9203 2.63856,6.4813 4.03639,6.7505 1.25525,0.2417 5.10172,-2.2316 8.68907,-5.5871 8.04498,-7.52517 12.74093,-9.53667 15.59674,-6.68086 1.1248,1.12476 2.0451,3.75616 2.0451,5.84756 0,4.1908 5.47233,11.5943 9.89123,13.3819 4.2289,1.7108 9.3236,1.4933 12.0706,-0.5154 z m -37.96183,-50.41077 c -5.95251,-1.67202 -9.09175,-4.55692 -7.11247,-6.53621 2.63489,-2.63489 19.11247,3.21467 19.11247,6.78494 0,1.6138 -5.797,1.49364 -12,-0.24873 z m 8.26666,-61.382 c -2.18801,-2.18801 -2.01486,-5.06667 0.30477,-5.06667 2.13532,0 6.09523,3.5268 6.09523,5.42858 0,1.78105 -4.5122,1.52589 -6.4,-0.36191 z m -1.28061,-20.20187 c -4.79692,-4.65769 -8.33225,-9.09862 -7.8563,-9.86873 1.77508,-2.87214 15.11893,-10.78073 20.74686,-12.29617 3.85792,-1.03884 8.25042,-3.85775 12.97762,-8.32853 3.9302,-3.717 7.1458,-7.23342 7.1458,-7.81428 0,-0.58085 -2.1,-0.71531 -4.6667,-0.2988 -2.7361,0.44402 -4.6667,0.2038 -4.6667,-0.58068 0,-2.25402 11.624,-12.19907 15.3522,-13.1348 14.6143,-3.66795 -2.3679,21.77447 -21.8868,32.79053 -16.68945,9.41913 -17.32773,10.60054 -10.3711,19.19601 6.25806,7.73234 6.76584,8.80399 4.17162,8.80399 -1.22365,0 -6.14958,-3.81084 -10.9465,-8.46854 z M 646.69154,867.71947 c -2.82797,-3.03548 -6.11866,-12.82028 -11.34007,-33.71953 -3.99943,-16.00812 -4.85085,-22.26343 -3.35742,-24.66667 2.53847,-4.08493 5.21331,1.93997 9.86456,22.21927 6.12301,26.69614 10.49113,35.11892 15.24336,29.39283 0.78567,-0.94667 2.97821,-7.68574 4.8723,-14.9757 3.69678,-14.22813 5.06536,-16.79677 7.59932,-14.26281 3.7858,3.7858 -4.13016,27.95928 -11.55725,35.29307 -4.49193,4.43551 -7.67446,4.63771 -11.3248,0.71954 z m 322.64179,-22.52273 c -10.88182,-6.18302 -38.48614,-34.51078 -43.41822,-44.55611 -3.75619,-7.65035 -3.9249,-8.78585 -4.15621,-27.97402 l -0.2411,-20 1.83174,12.20509 c 2.23756,14.90917 7.48194,31.0176 12.81401,39.35909 8.32177,13.01854 11.30698,11.97978 5.47814,-1.90623 -6.34609,-15.11826 -8.17313,-34.67116 -3.99936,-42.8011 2.37809,-4.6322 3.95858,-0.0328 5.04813,14.6906 1.66697,22.52626 7.05798,33.60544 20.41185,41.9488 8.54448,5.33849 12.89769,9.13901 12.89769,11.26018 0,3.15934 -3.90193,3.05759 -8.74352,-0.22801 -2.69635,-1.82979 -5.24528,-2.98407 -5.66428,-2.56507 -1.33141,1.33141 4.85616,12.50223 8.02714,14.49191 1.67603,1.05165 5.33458,2.31361 8.13011,2.80436 4.26113,0.74803 5.01551,1.36495 4.66667,3.81632 -0.61841,4.34557 -4.77975,4.17196 -13.08279,-0.54581 z m 18.16513,-9.91394 c -0.44934,-1.17097 0.0687,-2.37876 1.20766,-2.81584 2.05904,-0.79012 5.96055,1.62927 5.96055,3.69624 0,2.0401 -6.34662,1.26061 -7.16821,-0.8804 z M 672.49792,772.70765 c -0.45505,-1.18583 -0.42445,-2.55895 0.068,-3.05139 1.12799,-1.12798 5.52532,1.55544 5.17119,3.15566 -0.47943,2.16648 -4.39773,2.08849 -5.23917,-0.10427 z m 399.78418,-10.37438 c 2.3107,-3.57187 13.8606,-11.66666 16.6464,-11.66666 3.6895,0 0.9286,3.33355 -7.4541,9 -9.3927,6.34923 -12.0786,7.12841 -9.1923,2.66666 z m -449.789,-18.28989 c -8.53255,-2.58074 -20.20145,-16.42891 -25.61915,-30.40375 -4.91719,-12.6838 -1.03542,-18.5424 5.28274,-7.97302 14.53854,24.32092 17.19436,28.17612 20.7747,30.15665 7.9198,4.38098 8.47676,5.01002 6.52169,7.36573 -1.9625,2.36467 -1.96542,2.36503 -6.95998,0.85439 z m 234.8587,-49.04343 c 0.0102,-0.55 3.35818,-4.9 7.44003,-9.66667 9.47651,-11.06636 13.35843,-18.70222 14.58538,-28.68988 1.32056,-10.74965 2.6823,-13.97678 5.89772,-13.97678 9.84311,0 -0.73182,28.59679 -16.64075,44.99999 -7.26678,7.49256 -11.33415,10.13627 -11.28238,7.33334 z m 22.67063,-3.17008 c 0.0436,-3.55972 8.89421,-23.3213 15.72344,-35.1073 3.80644,-6.56923 6.9208,-12.73815 6.9208,-13.70873 0,-0.97057 -1.1522,-5.19575 -2.56044,-9.38928 -2.9362,-8.74359 -4.85383,-25.13109 -3.54909,-30.32958 0.73078,-2.91167 1.22693,-3.24746 2.83113,-1.9161 1.06978,0.88784 1.94506,3.08024 1.94506,4.87199 0,3.82193 2.20905,8.41575 4.04692,8.41575 0.70753,0 1.28642,-1.9665 1.28642,-4.36999 0,-5.04425 3.19275,-10.29668 6.25896,-10.29668 1.8293,0 1.98908,1.54127 1.20943,11.66667 -1.22863,15.95647 -4.64661,42.65852 -6.18688,48.33333 -1.62938,6.00309 -1.62943,10.66667 -1.2e-4,10.66667 4.92325,0 11.29465,-16.04255 12.7177,-32.02192 1.02388,-11.49706 2.92339,-18.64475 4.95488,-18.64475 2.13269,0 0.14642,17.94825 -3.63666,32.8616 -3.15093,12.42132 -11.99617,31.44391 -14.65065,31.50768 -0.73333,0.0176 -2.85865,-4.91998 -4.72292,-10.97243 -3.90826,-12.68831 -3.32818,-12.91687 -12.67687,4.99484 -6.45911,12.3754 -9.9562,17.11702 -9.91111,13.43823 z m -29.47739,-2.82992 c 0.63013,-1.65 3.67761,-8.61766 6.77216,-15.48369 3.09456,-6.86603 6.56047,-17.36603 7.70203,-23.33333 2.40494,-12.57138 3.69977,-15.01935 6.64946,-12.57132 1.51583,1.25803 1.81098,3.52567 1.25579,9.64837 -0.55349,6.10406 -2.46334,11.4959 -8.04629,22.71616 -7.36346,14.79862 -12.04666,22.02381 -14.2753,22.02381 -0.69871,0 -0.72298,-1.25839 -0.0579,-3 z m -45.21171,-5.59881 c 0,-1.06268 1.95,-3.40418 4.33334,-5.20334 5.5684,-4.20353 20.68472,-12.34232 25,-13.46027 5.07359,-1.31441 -6.47382,8.90331 -17.39334,15.39048 -9.44187,5.60931 -11.94,6.29412 -11.94,3.27313 z m 21.33334,0.72502 c 0,-0.66392 4.20805,-4.32669 9.35123,-8.13948 5.14318,-3.81279 11.08786,-9.03919 13.21041,-11.6142 3.4582,-4.1954 6.77169,-4.99348 6.77169,-1.63102 0,2.52339 -10.21698,12.51813 -17.87338,17.4846 -7.73815,5.0195 -11.45995,6.28612 -11.45995,3.9001 z M 604.51112,661.83333 c -2.28765,-5.47512 -1.25173,-11.93215 2.7582,-17.19231 3.21968,-4.22352 4.7998,-0.15505 4.40598,11.34447 -0.28529,8.33051 -0.73287,10.06019 -2.70046,10.43594 -1.66575,0.31811 -2.97685,-1.02952 -4.46372,-4.5881 z m 138.88375,-7.22607 c -0.44178,-1.13265 0.0875,-4.58389 1.17611,-7.66943 1.08864,-3.08554 2.65834,-9.35451 3.48823,-13.93106 3.32316,-18.32613 8.74834,-23.55416 7.61695,-7.34015 -0.70804,10.147 -4.76933,22.7774 -8.98578,27.94533 -2.06999,2.5371 -2.62836,2.70574 -3.29551,0.99531 z m -151.09122,-1.60731 c -6.96758,-8.56262 -15.75369,-29.85224 -17.121,-41.48589 -1.95054,-16.59603 13.44708,-53.84832 17.68862,-42.79504 0.43317,1.12882 -1.63856,8.17882 -4.60384,15.66666 -5.0738,12.81224 -9.40238,29.59043 -7.99665,30.99616 0.34856,0.34857 2.90137,-4.45533 5.6729,-10.67533 8.48932,-19.05216 11.12168,-18.44871 8.07277,1.85062 -2.63625,17.55181 -2.52599,23.0409 0.66742,33.22828 1.4572,4.64867 2.64946,9.89867 2.64946,11.66667 0,3.45981 -2.77818,4.31479 -5.02968,1.54787 z m 373.02968,-12.60229 c -3.53577,-1.28188 -10.82239,-8.9131 -13.53231,-14.17227 -9.11209,-17.68393 -11.69908,-56.9015 -4.29333,-65.08476 3.85035,-4.2546 4.61484,-1.37999 3.71461,13.96762 -0.90192,15.37659 0.50695,29.71422 4.28148,43.57105 2.05651,7.54975 6.30472,14.62326 7.85274,13.07525 0.47972,-0.47973 -0.72221,-9.47077 -2.67097,-19.98008 -5.80056,-31.28147 -6.08496,-33.65635 -4.83297,-40.35795 2.35295,-12.59474 6.16264,-11.27995 7.36208,2.54078 0.38389,4.42346 1.30378,15.24265 2.04419,24.04265 0.74042,8.8 2.6869,21.58621 4.32551,28.4138 2.57727,10.73862 2.71637,12.5801 1.03081,13.64625 -2.15548,1.36336 -2.40813,1.37952 -5.28184,0.33766 z M 764.5235,635.441 c -0.91528,-2.38519 2.65861,-7.93179 6.90248,-10.71247 2.60683,-1.70807 3.24069,-1.7651 3.24069,-0.29161 0,7.77515 -8.03656,16.49382 -10.14317,11.00408 z m 308.8632,-25.17393 c -0.063,-4.42729 1.6064,-7.81882 9.9777,-20.26712 13.0641,-19.42653 25.278,-47.6905 30.7956,-71.26356 3.6479,-15.5854 5.8328,-18.80395 9.4719,-13.95307 2.8011,3.73378 1.5237,14.4813 -2.191,18.43551 -1.7688,1.88273 -3.6937,6.72339 -4.8263,12.1368 -3.2625,15.59291 -20.4792,48.35291 -33.9386,64.57827 -2.7675,3.33633 -5.9778,7.86605 -7.1339,10.06605 l -2.102,4 z m 17.3944,-2.60045 c 0.8479,-1.65 5.9316,-9.6 11.2972,-17.66667 9.4071,-14.14283 11.7019,-19.4247 17.2342,-39.66666 2.6151,-9.56855 6.0208,-10.62937 6.0208,-1.8754 0,12.62058 -12.9321,39.68663 -25.5325,53.43774 -8.1519,8.89631 -11.8375,11.25443 -9.0197,5.77099 z M 561.32017,597.9841 c -2.24938,-2.71034 0.95023,-15.98432 8.99513,-37.31748 7.0508,-18.69703 12.52939,-30.05355 15.79748,-32.74644 2.15793,-1.77812 2.27441,-1.57216 1.57408,2.78322 -0.41596,2.58689 -3.17591,10.38689 -6.13322,17.33333 -6.09027,14.30547 -10.32012,29.38179 -11.67897,41.62697 -0.50879,4.58494 -1.58873,8.77707 -2.39987,9.31584 -2.30085,1.52825 -4.33291,1.19959 -6.15463,-0.99544 z m 508.02543,-7.48818 c 0.01,-1.00612 3.2927,-8.61727 7.3022,-16.91368 9.2002,-19.03711 14.778,-35.24073 18.06,-52.4646 1.4159,-7.43108 2.9186,-13.85517 3.3392,-14.27575 1.9195,-1.91956 3.3004,3.80118 2.5324,10.4914 -2.0531,17.88438 -11.1301,44.87045 -18.8827,56.13847 -2.29,3.32845 -4.6818,8.05113 -5.315,10.49484 -1.2092,4.66647 -7.06,10.09584 -7.0361,6.52932 z m -518.67893,-17.0938 c 0,-12.04156 12.84366,-40.72734 19.35358,-43.22543 3.18666,-1.22284 2.38627,2.56212 -3.16785,14.9805 -2.83119,6.33019 -6.21247,14.80943 -7.51397,18.84277 -4.78463,14.82749 -8.67176,19.04203 -8.67176,9.40216 z m 523.29513,-12.7355 c 0.3218,-2.93333 1.5398,-15.83333 2.7067,-28.66666 2.6589,-29.24237 4.2015,-38.22316 7.4817,-43.55611 2.2503,-3.65853 2.4772,-5.66282 1.6985,-15 l -0.8988,-10.77722 h 3.5581 c 5.0214,0 6.5176,4.8258 5.873,18.94239 -0.3922,8.58809 -1.1311,12.27318 -2.8397,14.16118 -2.2114,2.44349 -3.161,6.41874 -8.3366,34.89643 -2.5776,14.18278 -10.2338,39.03264 -9.2429,29.99999 z M 721.33333,546.92767 c 0,-0.58977 1.69753,-3.73976 3.77228,-7 6.6075,-10.38294 11.01351,-11.97563 6.07176,-2.19483 -3.50772,6.94253 -9.84404,12.86097 -9.84404,9.19483 z m -8.82666,-23.53053 c -1.01744,-2.65139 0.48982,-4.73051 3.42937,-4.73051 2.62107,0 4.03548,2.28884 3.08977,5 -0.80203,2.29926 -5.60968,2.10053 -6.51914,-0.26949 z m 392.81913,-20.06385 c -2.2045,-5.28373 -3.3432,-23.68114 -1.6526,-26.70198 1.2095,-2.16121 1.5503,-2.03843 3.7775,1.36064 3.2878,5.01777 4.1175,18.54018 1.5149,24.68684 l -1.9709,4.6545 z m -50.4305,-9.94455 c -6.0123,-9.88648 -7.1513,-26.72957 -2.3075,-34.12219 3.4619,-5.2836 4.9938,-2.4327 3.3809,6.29215 -1.3953,7.54777 -1.0176,9.44703 3.4022,17.10793 2.4423,4.23323 2.4879,9.43836 0.1112,12.68869 -1.7613,2.40873 -1.9841,2.31321 -4.5868,-1.96658 z m -61.27836,-9.5448 c -4.13009,-1.52782 -3.73663,-3.55112 2.58711,-13.30393 6.53865,-10.08425 9.80625,-18.78527 12.61495,-33.59153 2.2414,-11.81583 3.9497,-16.1215 5.9146,-14.90717 2.0479,1.2657 1.4439,11.14052 -1.4096,23.04312 -1.4615,6.09645 -2.6573,11.36733 -2.6573,11.71306 0,0.34573 1.8621,-1.49228 4.1381,-4.08446 2.276,-2.59219 5.2848,-4.71306 6.6863,-4.71306 3.2899,0 6.9991,-6.17016 9.0209,-15.00612 1.7838,-7.796 4.5775,-12.38064 6.7326,-11.04871 0.7821,0.48338 1.4221,2.04006 1.4221,3.4593 0,4.29362 -11.8428,38.87846 -14.208,41.49195 -3.4265,3.7863 -5.7839,3.02244 -5.8526,-1.89643 l -0.06,-4.33333 -6.4225,7.04893 c -3.5324,3.87691 -7.5201,9.08699 -8.8616,11.57795 -2.6968,5.00765 -5.20698,6.19199 -9.64456,4.55043 z m 77.13716,-10.86491 c -1.9051,-6.8045 -1.3946,-18.55988 0.838,-19.29441 2.5063,-0.82462 4.7652,9.91499 3.7665,17.90803 -0.4861,3.89069 -1.3627,7.07398 -1.9479,7.07398 -0.5853,0 -1.7807,-2.55942 -2.6566,-5.6876 z m -38.3483,-0.5115 c -0.4547,-1.18478 -0.027,-3.42466 0.9507,-4.97752 5.0731,-8.05883 9.3102,-17.50656 9.3102,-20.75981 0,-5.39678 2.651,-12.06357 4.7971,-12.06357 2.8337,0 2.3744,11.44837 -0.8333,20.77179 -4.4564,12.95264 -12.2217,22.24891 -14.2247,17.02911 z m -41.35196,-11.55334 c 4.46737,-11.64178 4.62792,-63.00245 0.24166,-77.31051 -1.73678,-5.66542 -1.9742,-8.12501 -0.88905,-9.21016 1.08515,-1.08515 2.08488,-0.97932 3.74358,0.39629 4.68803,3.88795 6.26397,10.76216 6.89487,30.07561 0.7835,23.98588 -1.28627,42.40165 -5.75715,51.22449 -1.83297,3.6172 -3.68676,6.57672 -4.11953,6.57672 -0.43277,0 -0.48424,-0.7886 -0.11438,-1.75244 z M 980.6105,448.34842 c 0.49907,-1.29165 1.45864,-7.44845 2.13238,-13.68179 1.82224,-16.85901 2.52996,-20 4.50633,-20 6.06823,0 0.95358,32.7686 -5.50127,35.24556 -1.52607,0.58561 -1.81464,0.18889 -1.13744,-1.56377 z m -2.57626,-53.61557 c -2.23895,-4.32965 -2.65936,-8.06621 -0.90756,-8.06621 1.7423,0 5.20437,4.27699 6.74751,8.33577 1.2243,3.22013 1.0781,3.66423 -1.20628,3.66423 -1.52998,0 -3.43635,-1.61843 -4.63367,-3.93379 z m -15.76592,-30.24234 c -1.66402,-1.66401 -0.99145,-6.78382 1.12152,-8.53744 2.82103,-2.34124 4.93805,0.0135 4.38106,4.87307 -0.41736,3.64138 -3.48363,5.68332 -5.50258,3.66437 z m -45.3522,-37.56349 c -3.80096,-3.96735 -4.58856,-7.4814 -2.03107,-9.06201 2.16474,-1.33789 7.78162,5.55013 7.78162,9.54265 0,4.22546 -1.34992,4.11263 -5.75055,-0.48064 z m -25.31447,-14.43651 c -1.66402,-1.66401 -0.99145,-6.78382 1.12153,-8.53743 2.82102,-2.34125 4.93804,0.0135 4.38106,4.87307 -0.41736,3.64137 -3.48364,5.68331 -5.50259,3.66436 z m -16.95579,-8.30676 c -4.82608,-2.5792 -7.2282,-8.18377 -3.50756,-8.18377 2.70649,0 10.19503,6.45297 10.19503,8.78519 0,2.47603 -1.11707,2.37557 -6.68747,-0.60142 z m -137.34623,-5.55319 c -3.54693,-3.797 -6.39156,-11.31643 -4.86032,-12.84766 1.59879,-1.5988 6.15839,1.30756 9.40805,5.99682 6.59283,9.51346 2.9981,14.92868 -4.54773,6.85084 z m 106.69635,0.23719 c -4.59106,-4.59106 -5.35339,-9.53444 -1.47032,-9.53444 3.51691,0 11.11865,7.40053 10.56339,10.28379 -0.74199,3.85281 -4.82761,3.51611 -9.09307,-0.74935 z m -27.2713,-1.70866 c -3.56324,-4.23466 -4.03049,-7.83671 -1.14135,-8.79862 2.43811,-0.81175 7.08334,4.58382 7.08334,8.22748 0,4.98193 -2.06365,5.18029 -5.94199,0.57114 z m -66.50246,0.61866 c -1.41748,-1.41748 -1.02823,-6.86761 0.56062,-7.84957 2.35261,-1.45399 4.28994,1.60552 3.3608,5.30751 -0.8517,3.39346 -2.19757,4.26592 -3.92142,2.54206 z M 770.25955,296.4 c -4.01288,-1.04022 -1.6511,-3.76549 2.87261,-3.31473 3.7218,0.37086 4.20117,0.0315 4.20117,-2.9746 0,-6.19797 10.86132,-5.85886 16.63351,0.51934 1.99014,2.19907 1.99023,2.55575 10e-4,4.54483 -1.62281,1.62281 -4.53379,2.12009 -11.7299,2.0038 -5.26429,-0.0851 -10.65464,-0.43545 -11.97855,-0.77864 z m 182.82816,712.5752 c -0.49979,-3.4994 -4.7484,-4.7443 -5.90501,-1.7302 -0.44508,1.1599 0.23114,3.6967 1.50272,5.6373 2.04584,3.1224 2.45649,3.2703 3.56764,1.2847 0.69063,-1.2341 1.06622,-3.5704 0.83465,-5.1918 z m -301.63958,-2.9579 c 0.54245,-2.1614 -0.10626,-4.53 -1.94967,-7.11881 -3.26023,-4.57857 -10.29949,-7.9642 -12.3323,-5.93139 -2.27029,2.27029 0.28808,11.3589 4.33726,15.408 3.12151,3.1215 4.21218,3.5141 6.44459,2.3193 1.47794,-0.791 3.053,-2.8957 3.50012,-4.6771 z m -29.15119,-7.68404 c 8.75792,-15.40905 8.79136,-15.17098 -3.27838,-23.33779 -5.69354,-3.85245 -11.09046,-7.00245 -11.99316,-7 -0.90269,0.002 -1.99074,1.3969 -2.41788,3.09877 -1.52637,6.08152 7.3462,36.90566 10.6231,36.90566 0.86468,0 4.04452,-4.35 7.06632,-9.66664 z m -26.2218,-3.80707 c 1.78957,-3.34384 0.61696,-10.95869 -2.02519,-13.15148 -2.64258,-2.19314 -6.60412,0.19185 -8.69225,5.23306 -1.41903,3.42583 -1.34047,4.55318 0.51454,7.38429 2.73825,4.17909 8.1019,4.45989 10.2029,0.53413 z M 818.48902,974.8046 c 1.4923,-0.9454 1.52836,-2.0453 0.19912,-6.07293 -1.95837,-5.93393 -4.2904,-7.06919 -8.65152,-4.21168 -4.82567,3.1619 -7.36995,2.73129 -7.36995,-1.24734 0,-5.07543 5.55934,-9.93939 11.36038,-9.93939 6.86128,0 9.79284,2.02541 12.67982,8.76045 1.39243,3.24842 2.95484,5.90622 3.47202,5.90622 0.51718,0 4.01149,-3.3 7.76515,-7.33334 5.0865,-5.46548 7.76117,-7.33333 10.501,-7.33333 4.36405,0 10.22163,5.33778 10.22163,9.31457 0,5.00192 3.86928,4.6876 9.45652,-0.7682 8.7004,-8.49571 9.094,-13.82978 2.35238,-31.8797 -4.29859,-11.50898 -4.24308,-43.00898 0.11161,-63.33333 4.57242,-21.34056 4.28939,-37.27752 -0.69599,-39.19059 -3.79066,-1.45461 -4.67391,0.61596 -1.91533,4.49003 3.15284,4.42775 3.41034,7.67179 0.84103,10.59557 -2.3455,2.66911 -4.81689,14.30066 -4.81689,22.67062 0,7.63768 -1.27718,14.7677 -2.64529,14.7677 -0.53825,0 -1.41701,-12.44934 -1.95281,-27.66521 -0.97548,-27.70172 -2.28751,-36.45395 -3.93142,-26.22536 -1.5862,9.86957 -3.44708,42.57639 -3.45877,60.79139 L 852,905.1349 l 5.33333,11.02865 c 2.93334,6.06576 5.33334,12.3058 5.33334,13.86676 0,4.81387 -8.75263,11.30295 -15.24568,11.30295 -5.40474,0 -13.5272,-9.07929 -16.35426,-18.28082 -3.34471,-10.88633 -3.27066,-37.98153 0.13375,-48.93978 4.18412,-13.46805 2.14202,-35.29333 -4.84479,-51.77939 -2.07964,-4.90712 -3.36562,-6.33333 -5.71056,-6.33333 -5.83768,0 -5.4454,5.41971 1.97234,27.25011 3.87505,11.40428 4.96875,18.05256 3.25218,19.76913 -1.7254,1.72539 -4.85093,-0.99789 -8.52146,-7.42475 -3.50993,-6.14565 -3.90361,-6.45088 -4.51077,-3.49723 -1.3073,6.35954 -3.52678,30.99115 -2.85322,31.66471 0.37757,0.37757 2.2246,-0.13669 4.10452,-1.14279 4.83382,-2.58698 5.86591,-0.34395 5.89086,12.8026 0.0246,12.94941 1.97786,24.36851 5.6251,32.88508 3.1045,7.24921 2.56014,10.50192 -1.57652,9.42016 -3.77705,-0.98772 -6.76162,-7.17402 -7.65985,-15.87706 -0.45411,-4.39987 -1.37779,-7.1833 -2.38377,-7.1833 -2.70303,0 -21.27462,12.67686 -24.40877,16.66129 -1.60001,2.03408 -2.9091,4.74139 -2.9091,6.01623 0,2.32594 9.13038,33.52156 10.10427,34.52311 0.9542,0.9813 13.18574,3.95181 16.56239,4.02229 1.83334,0.0383 4.1534,-0.44995 5.15569,-1.08492 z M 800,938.25477 c 0,-1.69317 0.82397,-4.20534 1.83104,-5.58259 1.76788,-2.41773 1.86296,-2.40352 2.75652,0.41183 0.50901,1.60375 0.54461,4.11592 0.0791,5.58258 C 803.49142,942.36946 800,942.06135 800,938.25477 Z m -207.23321,33.15427 c 0.85839,-3.42011 -0.0805,-6.07578 -2.14808,-6.07578 -1.88763,0 -5.62374,6.37382 -4.65495,7.94136 1.65189,2.67282 5.96051,1.49127 6.80303,-1.86558 z m 257.29959,-0.33263 c 2.12025,-2.12025 2.07672,-2.40272 -0.71914,-4.66667 -4.47937,-3.62717 -10.68057,-2.7759 -10.68057,1.46617 0,5.31711 7.24815,7.35205 11.39971,3.2005 z m -68.99971,-4.67648 c 1.86164,-1.86165 2.09252,-8.891 0.38081,-11.59429 -1.68353,-2.65879 -5.41852,-0.78038 -5.60546,2.81911 -0.46771,9.00583 1.57056,12.42926 5.22465,8.77518 z m 62.52414,-90.64222 c -0.81847,-59.30575 -1.20346,-63.13612 -8.71694,-86.7261 -4.68122,-14.69757 -7.47953,-28.19288 -10.18802,-49.13337 -2.72,-21.02947 -5.6901,-28.94103 -7.84547,-20.8983 -3.49554,13.04358 5.20684,65.02275 14.967,89.39759 6.86702,17.14956 8.59981,43.71606 5.2946,81.17496 -1.65093,18.71051 -0.4774,34.78708 3.01577,41.31413 3.76073,7.02699 4.22841,-0.39655 3.47306,-55.12891 z m -392.06646,44.89191 c 1.56011,-4.06559 -6.55159,-9.56131 -11.70046,-7.92713 -3.23684,1.02734 -3.16648,3.93485 0.17611,7.27744 3.16984,3.16983 10.40085,3.57748 11.52435,0.64969 z m 23.10225,-3.93474 c 1.28299,-1.54591 1.15099,-3.36314 -0.63486,-8.73983 -2.54423,-7.65994 -1.59455,-11.74006 4.38721,-18.84898 5.27801,-6.27256 6.97979,-6.64528 17.11174,-3.74781 12.42902,3.55438 14.35303,3.35822 20.3689,-2.07676 8.85191,-7.99717 8.25412,-13.50599 -3.16144,-29.13391 -11.03615,-15.1085 -9.2062,-14.3986 -16.27781,-6.3147 -5.73902,6.56057 -6.54679,7.03392 -10.81987,6.34049 -7.44561,-1.20825 -12.73451,1.82104 -15.40981,8.8262 -3.8613,10.11069 -16.88317,17.31166 -30.42203,16.82309 -9.57158,-0.3454 -10.77494,0.84865 -10.01267,9.93519 0.69212,8.25028 3.16803,10.6764 15.65295,15.33823 5.45843,2.03816 13.14175,5.92081 17.07404,8.62812 7.86889,5.41759 9.73418,5.87389 12.14365,2.97067 z m 21.94863,-10.48321 c 3.44359,-2.51802 1.57875,-7.21688 -3.90131,-9.83014 -5.25797,-2.50735 -8.14282,-1.69271 -10.23034,2.8889 -1.27335,2.79469 -1.1233,3.81843 0.88485,6.03742 2.79651,3.0901 9.62017,3.55568 13.2468,0.90382 z m -49.90856,-37.51816 c 0,-2.69655 -4.24168,-4.71358 -9.91235,-4.71358 -4.92812,0 -6.19157,2.02942 -3.15432,5.06667 2.38662,2.38662 13.06667,2.09803 13.06667,-0.35309 z m -17.33334,-9.90879 c 0,-1.77095 -9.13599,-9.47145 -11.23707,-9.47145 -3.39933,0 -3.47819,4.07261 -0.14343,7.40737 3.18305,3.18305 11.3805,4.66982 11.3805,2.06408 z m 182,-6.24923 c 0,-1.63507 -1.08056,-2.70902 -3,-2.98162 -3.37565,-0.47942 -3.61544,0.11808 -1.57639,3.92807 1.71493,3.20438 4.57639,2.6126 4.57639,-0.94645 z m 331.33334,-6.47098 c 0,-2.92048 -3.85566,-5.42892 -5.62501,-3.65957 -1.12709,1.12709 -0.89764,2.19083 0.90137,4.17872 2.50576,2.76882 4.72364,2.52507 4.72364,-0.51915 z m -500.64652,-1.31365 c 2.67405,-2.88535 3.54188,-3.09441 8.15289,-1.96406 25.2483,6.18945 31.33669,6.35007 36.71809,0.96867 2.07372,-2.07372 2.56623,-3.828 2.01989,-7.19469 -0.92437,-5.69626 -10.05942,-25.22699 -15.49357,-33.12525 -6.8022,-9.88666 -7.73459,-9.92482 -18.67194,-0.76422 -5.23718,4.38641 -10.0974,7.97529 -10.80049,7.97529 -3.19864,0 -0.62769,-4.9679 6.72165,-12.9884 4.4,-4.80183 8,-9.77103 8,-11.04267 0,-2.48915 -2.92848,-3.90508 -14.99406,-7.24971 -7.84186,-2.1738 -17.00594,-8.7656 -17.00594,-12.23251 0,-3.76608 4.18585,-3.36117 14.14465,1.36824 5.57267,2.64645 10.96985,4.81172 11.99374,4.81172 2.67306,0 2.2971,-3.38166 -1.01594,-9.1382 -1.96219,-3.40938 -2.60165,-6.09913 -2.01021,-8.4556 0.98624,-3.92948 12.37305,-15.73953 15.17547,-15.73953 2.19953,0 6.18271,8.85091 5.17039,11.48898 -0.4728,1.23209 -2.93473,1.84436 -7.41626,1.84436 -7.95985,0 -8.41114,1.41961 -2.2812,7.17589 5.81739,5.46278 15.45429,10.15744 20.85056,10.15744 4.37971,0 12.79769,-3.29821 14.19709,-5.56249 0.4209,-0.68103 -0.24249,-3.36193 -1.4742,-5.95756 -2.1736,-4.58053 -4.90143,-24.04277 -3.67688,-26.23347 0.93233,-1.66793 5.66809,3.18182 8.47236,8.67628 2.47739,4.85401 10.06093,11.74391 12.92623,11.74391 0.81424,0 -0.26497,-3.71986 -2.41768,-8.33334 -2.13864,-4.58333 -4.28158,-11.93333 -4.76209,-16.33333 -0.4805,-4.4 -2.54932,-11.9 -4.59737,-16.66666 -2.04805,-4.76667 -4.43057,-13.53431 -5.29449,-19.48366 -1.40324,-9.66338 -1.36025,-15.4037 0.33343,-44.51634 0.29831,-5.12767 -0.0191,-6 -2.18343,-6 -4.05052,0 -6.11241,8.65459 -7.35469,30.87063 -0.62142,11.11306 -1.53643,20.86342 -2.03336,21.66746 -3.4879,5.64355 -6.68695,-4.45217 -6.71918,-21.20476 -0.02,-10.41168 0.77957,-17.15846 3.1197,-26.32293 3.44743,-13.50088 3.14929,-16.76051 -1.47292,-16.10391 -4.93647,0.70123 -6.43784,8.35288 -7.67076,39.09351 -0.61765,15.4 -1.7092,29.5 -2.42567,31.33333 l -1.30267,3.33333 -1.40074,-3.56959 c -0.7704,-1.96327 -1.81721,-11.06542 -2.32623,-20.22699 -1.01664,-18.29784 -2.05514,-21.78916 -5.23966,-17.61524 -1.08606,1.42349 -1.97466,4.00329 -1.97466,5.73288 0,8.01789 -5.38131,13.49961 -28.90172,29.44097 -28.36706,19.22626 -45.48071,36.1111 -49.91662,49.24924 -4.20261,12.44711 -0.35128,25.87014 11.6206,40.50134 11.64079,14.22657 13.09572,16.85424 11.39674,20.58309 -2.67279,5.86612 -1.79312,7.07675 9.13433,12.57096 C 415.2,824.28297 420,827.26856 420,827.96791 c 0,2.60689 -5.70447,4.28028 -11.81916,3.4671 L 402,830.61304 l 5.14267,4.62474 c 5.79448,5.21092 22.20351,12.65502 28.03777,12.71958 2.39751,0.0265 4.97472,-1.17414 6.83971,-3.1865 z m 373.67827,-5.009 c -0.72272,-2.16817 -4.70717,-4.53096 -5.79919,-3.43894 -0.49243,0.49244 -0.54004,1.82122 -0.10579,2.95284 0.9134,2.3803 6.69503,2.85624 5.90498,0.4861 z m -212,-4 c -0.72272,-2.16817 -4.70717,-4.53096 -5.79919,-3.43894 -0.49243,0.49244 -0.54004,1.82122 -0.10579,2.95285 0.9134,2.38029 6.69503,2.85623 5.90498,0.48609 z m 275.69401,-36.18068 c -1.16744,-9.66968 -2.68878,-28.08124 -3.38077,-40.91457 -1.32544,-24.58126 -2.85062,-32.97149 -6.22925,-34.26799 -5.88249,-2.25733 -5.81923,11.50609 0.24958,54.3085 4.24875,29.96574 6.57359,41.03115 9.60153,45.69984 1.9835,3.05829 1.88361,-7.22717 -0.24109,-24.82578 z m 17.28264,20.08542 c 0.43775,-2.38333 -0.7133,-16.33333 -2.55788,-30.99999 -1.84457,-14.66667 -4.05752,-33.1141 -4.91765,-40.9943 -0.86014,-7.88019 -2.38191,-15.38019 -3.38171,-16.66666 -1.7234,-2.21753 -1.92173,-2.20459 -3.81783,0.24913 -2.62522,3.39727 -2.63271,3.24851 1.95287,38.78157 3.93199,30.46854 7.20195,50.18404 8.73472,52.66411 1.55156,2.51047 3.19943,1.25669 3.98748,-3.03386 z m -299.34174,-1.57949 c 0,-2.51873 -0.86556,-8.69425 -1.92347,-13.72339 -1.05792,-5.02914 -2.89809,-19.61837 -4.08928,-32.4205 -2.43268,-26.14481 -4.99566,-40.53767 -8.73662,-49.06189 -3.60927,-8.22413 -5.92535,-6.68784 -5.88355,3.90264 0.0338,8.56553 7.00849,55.01998 10.89258,72.5493 2.56012,11.55416 6.85253,23.33333 8.50281,23.33333 0.68064,0 1.23753,-2.06077 1.23753,-4.57949 z m 210.60873,-8.15698 c -1.92431,-2.31866 -5.27539,-2.55275 -5.27539,-0.36851 0,0.85892 1.01348,2.68156 2.25217,4.0503 2.01661,2.22833 2.37628,2.26687 3.43866,0.36851 0.75371,-1.34681 0.60218,-2.82415 -0.41544,-4.0503 z m 54.64705,0.16326 c 1.23013,-1.48222 0.79873,-9.42041 -1.93829,-35.66667 -3.67605,-35.25078 -5.74106,-47.33819 -7.98415,-46.73475 -4.16957,1.12169 -3.77611,21.53606 0.81422,42.24532 2.79849,12.62536 2.9064,22.1757 0.26039,23.04526 -2.09678,0.68907 -3.72609,-5.6703 -8.43719,-32.93113 -4.31142,-24.9481 -7.10316,-33.76228 -10.47482,-33.07154 -2.96293,0.60701 -2.43883,16.1457 1.29362,38.35339 3.86666,23.00627 8.39238,36.78194 13.89014,42.2797 4.68657,4.68657 9.89292,5.71343 12.57608,2.48042 z m -43.92244,-5.33445 c 0,-1.04922 -1.23709,-11.39922 -2.74909,-23 -1.512,-11.60078 -3.87817,-30.60851 -5.25817,-42.23939 -1.37999,-11.63088 -2.83922,-21.4772 -3.24274,-21.88071 -1.4311,-1.43111 -6.088,4.16485 -7.40175,8.89432 -4.09138,14.7288 1.32754,47.23618 11.63555,69.80011 4.43298,9.70369 7.0162,12.80584 7.0162,8.42567 z m -24.33086,-35.09233 c -0.70041,-15.74521 -2.51887,-23.86829 -4.99998,-22.33488 -3.84751,2.3779 0.77014,38.00154 4.92588,38.00154 0.42406,0 0.4574,-7.05 0.0741,-15.66666 z m -220.47242,-12.1123 c 0.37809,-0.61176 -0.57227,-3.65839 -2.11191,-6.77028 -2.94694,-5.95629 -5.18714,-5.41881 -4.03785,0.96877 1.00597,5.59101 4.33747,8.73386 6.14976,5.80151 z m -45.89267,-9.8877 c -0.0984,-5.60208 -10.42915,-21 -14.08924,-21 -2.61295,0 -2.4154,6.60713 0.32002,10.70333 5.94359,8.90033 13.84854,14.81169 13.76922,10.29667 z m 16.80352,-6.46533 c 7.06949,-3.59382 9.57336,-15.35644 4.04057,-18.98166 -1.76619,-1.15725 -3.78381,-4.34408 -4.52887,-7.15335 -1.23751,-4.66607 -1.35455,-4.24658 -1.48147,5.30983 -0.14245,10.72598 -2.10868,17.61696 -5.93126,20.7871 -5.21478,4.32472 -0.57531,4.34708 7.90103,0.0381 z m 356.55909,-4.69793 c 0,-3.21021 -0.57687,-5.83674 -1.28194,-5.83674 -1.68311,0 -4.45066,10.36967 -3.45797,12.95658 1.51437,3.9464 4.73991,-0.8987 4.73991,-7.11984 z M 531.99116,710.56389 c 1.79197,-19.88501 1.62883,-41.26345 -0.34415,-45.09973 -0.90586,-1.76136 -2.84701,-3.85925 -4.31368,-4.66199 -1.46666,-0.80274 -6.10988,-3.71164 -10.31825,-6.46421 -4.20837,-2.75257 -8.58899,-5.00468 -9.7347,-5.00468 -9.86064,0 -6.56078,58.45369 3.82103,67.68585 2.57323,2.28827 2.59182,2.06557 1.66304,-19.91635 -0.78781,-18.6454 -0.61061,-22.86609 1.09882,-26.17175 2.31722,-4.48101 5.55508,-6.24961 7.09019,-3.87285 0.57137,0.88464 1.41269,13.60843 1.8696,28.2751 0.45691,14.66667 0.90864,26.77381 1.00384,26.90476 1.92209,2.64381 4.78482,4.35019 5.72344,3.41156 0.65364,-0.65364 1.75201,-7.44221 2.44082,-15.08571 z m 265.34217,7.51474 c 0,-1.79005 -0.6,-3.62546 -1.33333,-4.07868 -0.7779,-0.48077 -1.33333,0.87504 -1.33333,3.25464 0,2.24328 0.6,4.07869 1.33333,4.07869 0.73333,0 1.33333,-1.46459 1.33333,-3.25465 z M 548.3276,683.66661 c 1.01083,-2.74871 -0.38739,-5 -3.10538,-5 -2.87465,0 -3.37408,2.64815 -0.95555,5.06667 2.04797,2.04798 3.29079,2.02757 4.06093,-0.0667 z m 2.33907,-47.39999 c 0,-3.04356 -2.52052,-5.6 -5.52131,-5.6 -3.21335,0 -4.20439,2.10884 -2.49344,5.30578 1.86544,3.4856 8.01475,3.71135 8.01475,0.29422 z m -26.91698,-23.32976 c 0.229,-11.88196 -0.15921,-23.10357 -0.86269,-24.93691 l -1.27905,-3.33333 -1.41201,3.59927 c -2.25426,5.74614 -4.5484,26.0635 -3.86602,34.23808 0.82511,9.88436 3.1798,15.85163 5.38629,13.65001 1.09684,-1.09441 1.75108,-8.56409 2.03348,-23.21712 z m -14.4557,-1.60357 c 3.58735,-20.26928 6.11008,-29.17494 10.28018,-36.29067 4.48188,-7.64775 3.39182,-11.63858 -6.01444,-22.01951 -9.05891,-9.99757 -13.54753,-16.12676 -13.59386,-18.56231 -0.0188,-0.9868 -2.1384,-5.09417 -4.71029,-9.12751 C 489.2625,515.93471 484,499.32365 484,489.80511 c 0,-4.8982 1.54277,-11.95687 4.5748,-20.93117 2.5756,-7.62333 5.21133,-18.94513 6.03137,-25.9078 1.69182,-14.36459 5.50772,-25.55931 10.68891,-31.35807 l 3.65921,-4.09536 1.91339,3.9103 c 1.65561,3.38348 2.5793,3.87075 6.85619,3.61683 2.71854,-0.16141 4.9428,0.23323 4.9428,0.87696 0,0.64374 -3.7018,6.63976 -8.22621,13.32449 -7.18834,10.62061 -8.30337,13.11742 -8.83781,19.7897 -0.51571,6.43855 -1.52156,8.85317 -6.41581,15.40163 -8.16447,10.924 -9.42038,16.31678 -6.8077,29.23173 2.26457,11.19421 7.54493,23.99698 11.73824,28.46055 1.44648,1.53971 5.16181,7.81375 8.25629,13.94232 8.92654,17.67887 16.10888,20.40966 22.95497,8.72769 7.46782,-12.74287 21.28479,-22.48313 48.40424,-34.12253 8.68026,-3.72548 17.95382,-8.56356 20.60793,-10.7513 5.68596,-4.68685 10.47254,-14.29681 13.57502,-27.25445 5.12882,-21.42074 14.99282,-46.51459 20.32103,-51.69636 1.33639,-1.29967 4.91677,-4.29966 7.9564,-6.66666 3.03962,-2.36701 10.07035,-8.00709 15.62384,-12.53353 5.55349,-4.52644 11.46653,-8.64741 13.14008,-9.15771 5.00748,-1.52688 7.70949,-4.76263 7.70949,-9.23241 0,-2.31369 2.15532,-8.58172 4.78961,-13.92896 5.43069,-11.02356 5.38586,-13.23407 -0.52204,-25.74039 l -3.60091,-7.62269 -8.42425,7.28936 c -4.63335,4.00915 -7.93335,7.28224 -7.33334,7.27353 0.60001,-0.009 4.33757,-0.87989 8.3057,-1.93597 l 7.21477,-1.92015 -5.88144,6.0424 c -10.91013,11.2087 -21.40261,15.45816 -29.65476,12.01019 -5.62596,-2.35068 -8.05843,-6.68205 -9.9708,-17.75447 -1.6921,-9.79712 -6.22284,-19.81962 -13.64534,-30.18502 -4.37129,-6.10443 -6.14593,-7.57448 -9.14393,-7.57448 -2.04599,0 -4.80596,-1.2 -6.13327,-2.66667 -3.35742,-3.70989 -4.43186,-3.34798 -4.91553,1.65575 -0.53861,5.57214 -4.51649,6.67843 -6.38092,1.7746 -0.71732,-1.88669 -1.80681,-3.43035 -2.4211,-3.43035 -2.6548,0 -14.96366,16.28697 -16.84032,22.28297 -0.50776,1.6223 -0.27217,4.16609 0.52353,5.65287 1.9104,3.56962 9.00758,7.14688 13.90306,7.00769 2.15438,-0.0613 5.53723,0.72645 7.51745,1.75046 4.45804,2.30534 14.73963,13.58623 21.13816,23.19265 l 4.809,7.21997 -0.38264,13.88552 c -0.37051,13.44583 -0.29658,13.85822 2.33466,13.0231 2.43518,-0.7729 2.58544,-0.51565 1.4473,2.47787 -0.69849,1.83717 -2.80265,6.36488 -4.6759,10.06157 -1.87326,3.6967 -4.07406,9.88418 -4.89067,13.74996 -3.70596,17.54382 -7.20704,14.04072 -6.17281,-6.17637 0.40293,-7.8765 1.58441,-15.60361 2.84768,-18.62443 2.61474,-6.25252 2.61079,-6.1705 0.29717,-6.1705 -1.02403,0 -3.7057,2.1 -5.95927,4.66667 -2.25356,2.56666 -4.41571,4.66666 -4.80478,4.66666 -2.25133,0 -0.0618,-8.32668 3.86046,-14.68127 5.33706,-8.64673 6.98565,-13.94658 4.76516,-15.31892 -2.26743,-1.40134 -9.0542,5.67606 -10.08887,10.52092 -0.95977,4.49412 -2.86569,7.47927 -4.77526,7.47927 -0.67843,0 -1.04391,-8.3751 -0.83674,-19.17417 0.33156,-17.28308 0.11733,-19.45287 -2.17214,-21.99999 -3.60041,-4.0056 -9.90893,-3.60303 -21.20052,1.35287 -12.61619,5.53728 -17.95017,5.61085 -24.49997,0.33792 -6.98161,-5.62056 -13.75953,-14.74257 -13.75953,-18.51815 0,-1.72015 -2.1,-5.8787 -4.66666,-9.24121 -5.54374,-7.2627 -5.69048,-8.34795 -1.39342,-10.30583 4.41273,-2.01057 9.53526,0.19988 16.14153,6.96532 6.63935,6.79931 9.88498,6.72126 20.66735,-0.497 9.89972,-6.62736 18.61318,-16.84578 26.09517,-30.60223 4.82828,-8.87731 5.558,-9.61714 9.10424,-9.2302 6.06224,0.66145 10.97734,3.82457 12.43345,8.00155 0.73559,2.11011 4.27324,6.77834 7.86144,10.37385 8.03452,8.05086 18.14453,27.85987 21.22147,41.58019 2.37074,10.57131 5.38866,15.61395 8.54711,14.28134 1.09358,-0.4614 4.98832,-4.81227 8.65499,-9.66859 3.89025,-5.15246 9.16481,-10.2873 12.66515,-12.32966 3.48388,-2.03277 6.5201,-4.98318 7.24277,-7.0381 1.12216,-3.19082 0.5129,-4.29473 -6.2069,-11.24634 -4.09815,-4.23952 -10.61075,-11.60823 -14.47244,-16.37489 -3.86169,-4.76667 -9.91791,-11.78075 -13.45825,-15.58685 -3.54035,-3.80611 -6.437,-8.17817 -6.437,-9.7157 0,-1.60303 -3.29827,-6.18715 -7.73208,-10.74648 -7.39967,-7.60915 -8.01703,-7.95097 -14.36013,-7.95097 -8.00595,0 -23.75327,4.19663 -32.63425,8.69697 -3.56956,1.80883 -10.1897,6.58987 -14.71143,10.62454 -9.68692,8.64346 -16.40185,11.23015 -22.54616,8.68509 -3.93962,-1.63184 -8.01595,-5.93124 -8.01595,-8.45461 0,-0.65339 1.8,-0.81989 4,-0.36999 2.2,0.4499 5.69129,1.17014 7.75841,1.60054 3.17131,0.6603 4.74582,-0.17712 10.07956,-5.36092 6.81189,-6.6204 10.16203,-12.98837 10.16203,-19.31606 0,-7.21484 -2.61747,-10.55602 -11.59103,-14.79582 -4.67002,-2.20647 -11.9225,-6.33738 -16.11662,-9.17978 -10.79614,-7.31667 -32.69817,-18.01605 -44.37056,-21.6755 -8.18049,-2.56469 -12.8596,-3.11153 -26.6613,-3.11587 l -16.73952,-0.005 -30.59382,15.00394 c -35.30851,17.31615 -36.21262,17.53595 -72.59381,17.64836 -37.74984,0.11664 -37.25657,-0.0473 -67.85117,22.55091 -23.15822,17.10545 -37.65872,24.74722 -53.53266,28.21176 -15.65455,3.41665 -18.99395,5.21692 -22.3829,12.06661 l -2.76236,5.58321 -0.40212,-8.39377 c -0.55845,-11.65683 -2.43498,-12.62937 -13.37311,-6.93082 -7.08025,3.68868 -8.43196,4.02433 -8.81636,2.18926 -0.2497,-1.19205 0.8003,-3.50251 2.33334,-5.13435 3.69143,-3.92935 3.5221,-8.18157 -0.48539,-12.18906 -2.60988,-2.60988 -4.63524,-3.27272 -10,-3.27272 -7.57255,0 -8.42705,-1.47947 -4.06061,-7.0305 3.78949,-4.81755 3.36907,-6.83771 -2.66666,-12.81342 -5.99625,-5.93662 -6.11521,-6.35209 -3.34155,-11.67034 1.09548,-2.10049 1.99548,-5.96017 2,-8.57707 0.0286,-16.57904 17.09917,-46.27457 32.29692,-56.18297 22.5439,-14.69784 59.17177,-25.26081 109.71129,-31.63922 28.82431,-3.63781 50.54439,-5.061 103.33334,-6.77082 l 44.66666,-1.44674 7.98196,-4.1807 c 10.66078,-5.58377 22.69784,-15.07437 27.47043,-21.65901 2.13774,-2.9494 6.34699,-10.382209 9.3539,-16.517366 6.47806,-13.217544 7.81983,-24.265769 5.2855,-43.52114 -2.64063,-20.063027 -2.79664,-20.313861 -9.02309,-14.507119 -2.05445,1.915964 -6.88536,4.882946 -10.73536,6.593294 -8.34609,3.707716 -8.67827,5.403506 -3.66667,18.718107 3.93852,10.463683 4.15601,16.598539 0.84669,23.883128 C 481.56341,94.974512 470.55824,100.74571 446,104.7651 c -16.16283,2.64533 -23.68041,2.88038 -40.79714,1.27558 -8.69497,-0.81521 -14.16963,-0.55496 -22.66667,1.07752 -12.94244,2.48654 -29.99435,4.01659 -76.53619,6.86751 -45.51552,2.78806 -57.16037,4.12244 -70,8.02131 -3.3,1.00207 -9.40644,2.41961 -13.56986,3.15009 -13.4509,2.35998 -38.79522,15.1476 -63.33948,31.95828 -27.7531,19.00846 -36.19512,30.71548 -42.57637,59.04301 -9.471,42.04344 -9.30092,76.83856 0.46351,94.82671 7.56441,13.93525 24.22029,29.62935 38.61009,36.38059 4.25999,1.99866 10.31637,5.35282 13.4586,7.4537 7.43321,4.96978 8.61003,5.20181 28.28684,5.57722 16.19617,0.30899 16.88534,0.44367 24.41244,4.77044 4.26018,2.44886 8.13164,4.06661 8.60326,3.59499 0.47161,-0.47161 -0.17547,-3.64452 -1.43797,-7.05091 -4.2295,-11.41177 2.3245,-11.16462 11.06901,0.4174 3.05598,4.04761 6.26064,7.1113 7.12146,6.80818 1.03143,-0.36318 1.43029,-3.38228 1.1697,-8.85366 -0.34788,-7.30417 -0.11498,-8.24853 1.93681,-7.85339 2.08211,0.40098 5.06909,3.88983 12.85421,15.01394 1.4568,2.08162 3.66749,3.42303 5.64126,3.42303 3.46537,0 3.91761,-1.04396 5.10165,-11.77678 0.35051,-3.17723 0.96187,-6.10136 1.35856,-6.49806 1.92368,-1.92367 5.35433,1.71519 8.81714,9.35226 6.85977,15.1289 11.18794,15.36285 10.47272,0.56608 -0.30392,-6.28767 0.0568,-9.56011 1.09317,-9.91813 4.32217,-1.49307 17.88943,21.27843 15.36513,25.78909 -2.04661,3.65709 0.94133,8.17318 12.62933,19.08849 10.40162,9.71396 21.8608,17.36132 26.04985,17.38453 5.29328,0.0293 7.4601,9.18498 3.39516,14.34585 -1.81115,2.29944 -6.23942,2.09359 -7.17072,-0.33334 -1.2594,-3.28195 -3.97829,-2.30018 -8.30813,3 l -4.08462,5 -0.0447,-6.37518 c -0.0697,-9.94616 -2.51969,-9.51074 -14.3978,2.55887 -8.38192,8.51706 -12.75432,11.70872 -23.31511,17.01904 -8.34508,4.19618 -12.99106,7.2988 -12.97779,8.66666 0.0351,3.61845 10.04758,20.77228 12.38808,21.22385 1.43839,0.27752 3.50029,-1.70806 5.90099,-5.68258 2.02954,-3.36004 4.64476,-6.41217 5.81161,-6.78251 1.16685,-0.37034 11.19987,-0.0988 22.2956,0.60346 23.97584,1.51742 26.12925,2.31126 44.70882,16.4815 7.71427,5.88351 15.49003,10.67271 18.86036,11.61634 3.63437,1.01756 12.25593,1.42981 23.5409,1.12565 17.21423,-0.46398 18.07853,-0.6272 25.99357,-4.90877 8.27896,-4.47843 16.29426,-11.50924 14.81136,-12.99214 -0.44383,-0.44383 -6.56197,1.15803 -13.59586,3.55969 -9.26634,3.1639 -13.19109,3.96447 -14.24904,2.90651 -1.69478,-1.69477 2.04213,-3.88172 17.51294,-10.24905 12.18032,-5.01306 15.59726,-6.95186 14.38626,-8.16286 -0.50867,-0.50867 -8.36565,1.22516 -17.45994,3.85296 -20.13687,5.81855 -27.593,7.16125 -27.593,4.96893 0,-2.83216 21.70292,-10.95828 37.56409,-14.06493 1.96025,-0.38395 6.31544,-2.79824 9.6782,-5.3651 3.36277,-2.56685 6.35183,-4.667 6.64237,-4.667 0.29054,0 0.20635,2.4 -0.18709,5.33333 -0.89626,6.68209 0.64899,6.82018 7.46019,0.66666 5.33454,-4.81944 9.50891,-6.054 9.50891,-2.81225 0,1.01993 -2.09146,4.76993 -4.64769,8.33333 -7.02543,9.79353 -9.0852,14.03227 -8.95993,18.43835 0.0627,2.20427 -0.72709,4.9371 -1.75503,6.07297 -2.31574,2.55886 -5.97069,11.14119 -5.97069,14.02001 0,1.9437 0.19048,1.94759 2.09524,0.0428 2.39889,-2.39889 5.35757,-2.72597 6.59193,-0.72874 0.4645,0.75158 -1.26259,7.80157 -3.83797,15.66667 -2.57537,7.86509 -5.64393,18.19198 -6.819,22.94865 -2.39604,9.69911 -5.13285,14.68484 -8.06093,14.68484 -4.06733,0 -0.94524,-17.72227 4.77466,-27.10301 1.41869,-2.32668 2.58168,-6.33005 2.58442,-8.89639 l 0.005,-4.66608 -5.28087,5.77719 c -7.55712,8.26737 -8.5898,6.83432 -7.6679,-10.64079 0.51723,-9.8045 0.30659,-14.47091 -0.6532,-14.47091 -3.67449,0 -10.33825,5.77881 -11.81156,10.24298 -3.20744,9.71865 1.64395,33.05386 10.76028,51.75701 3.93473,8.07254 8.75656,14.59961 19.82663,26.8383 15.51161,17.14912 21.75215,22.52598 24.79092,21.3599 2.10188,-0.80657 4.40459,-7.82652 5.57649,-17.00025 0.69854,-5.46824 0.47615,-6.21583 -2.04518,-6.87518 -6.48277,-1.69528 0.41481,-15.6561 7.73516,-15.6561 3.39843,0 3.3984,-0.007 0.10256,22.66666 -1.43908,9.9 -2.6278,21.71094 -2.64159,26.24654 -0.0272,8.93393 1.99087,16.29341 3.92226,14.30391 0.64986,-0.66941 2.45586,-8.41711 4.01332,-17.21711 z m -31.25975,-23.26712 c -1.11883,-2.16358 -2.03471,-4.71358 -2.03529,-5.66667 -5.8e-4,-0.95308 -1.80058,-5.53675 -4,-10.18593 -4.87485,-10.30454 -5.21253,-19.04201 -1.32358,-34.24765 3.11967,-12.19778 6.12615,-17.69778 8.42019,-15.40373 1.12973,1.12972 0.59064,5.02449 -2.12413,15.34617 -4.11772,15.65576 -4.44568,19.76151 -1.7568,21.99308 2.30265,1.91103 2.92166,1.03515 5.56925,-7.88023 2.03508,-6.85287 3.64373,-8.3047 5.07347,-4.57887 1.37701,3.58844 0.89207,39.24497 -0.57093,41.9786 -1.99055,3.71939 -4.91029,3.17395 -7.25218,-1.35477 z m 61.87497,-77.27204 c 3.32207,-4.66541 3.3722,-5.76201 0.59574,-13.03205 -2.07201,-5.4255 -2.04435,-5.85929 0.66667,-10.45413 1.55561,-2.63656 2.82838,-5.08664 2.82838,-5.44462 0,-0.35798 -2.1,-0.25691 -4.66667,0.2246 -2.94752,0.55296 -4.66666,0.35513 -4.66666,-0.53702 0,-0.77688 2.89207,-4.89365 6.42684,-9.14839 9.12708,-10.98613 11.35223,-14.63636 9.5872,-15.72721 -1.63022,-1.00753 -3.67718,0.32872 -11.01404,7.18997 l -5,4.67588 v -3.49528 c 0,-1.92241 2.1,-7.87725 4.66666,-13.23298 C 541.9,446.45716 544,440.76848 544,439.17138 c 0,-1.59709 -2.17438,-8.51402 -4.83195,-15.37094 -5.72135,-14.7619 -7.5491,-28.55962 -3.96541,-29.93482 3.40731,-1.3075 6.70506,2.60136 9.37741,11.11517 1.32685,4.22721 6.56731,15.93498 11.64547,26.01726 6.01617,11.94465 9.48661,20.53865 9.96093,24.66666 0.77553,6.74953 1.02319,6.2376 -9.93089,20.52857 -6.40527,8.35649 -2.47686,8.47637 5.01977,0.15318 6.79656,-7.54593 12.058,-10.99591 12.058,-7.90655 0,2.28391 -3.08563,6.33681 -15.63385,20.53468 -9.9123,11.21542 -12.60868,16.66073 -6.69948,13.52954 1.65,-0.8743 7.34929,-5.79612 12.66509,-10.93737 5.3158,-5.14125 10.06326,-8.94956 10.54992,-8.4629 2.95127,2.95127 -11.52667,17.47876 -26.47214,26.56277 -9.89289,6.01299 -11.47454,6.24064 -7.83366,1.1275 z M 395.47617,486.65637 c -7.25477,-2.81131 -14.41474,-6.33571 -15.91103,-7.83201 -2.57436,-2.57436 -2.59092,-2.77028 -0.3082,-3.64625 2.83597,-1.08826 8.47586,0.73057 21.74306,7.012 7.16128,3.39054 9.66667,5.25489 9.66667,7.19329 0,3.27618 0.56119,3.37692 -15.1905,-2.72703 z M 380,390.78585 c 0,-2.21405 13.08968,-14.07478 20.46862,-18.54688 4.99292,-3.02603 10.04766,-4.79646 16.16956,-5.66343 4.89829,-0.69369 10.0191,-1.85697 11.37958,-2.58507 3.81331,-2.04082 4.16885,-1.67444 3.23024,3.32875 -0.6745,3.59542 -0.38527,4.83968 1.27292,5.47599 3.69137,1.41651 2.3824,2.91185 -4.5705,5.22123 -7.60131,2.52475 -10.61709,1.96386 -10.61709,-1.97462 0,-4.05696 -3.34471,-3.29359 -9.3532,2.13472 -3.59937,3.25181 -7.36389,5.21744 -11.45671,5.98206 -3.35271,0.62635 -7.88807,2.6469 -10.07859,4.4901 -4.1223,3.46868 -6.44483,4.23885 -6.44483,2.13715 z m 132,-4.03241 c 0,-0.6856 0.58515,-2.7856 1.30033,-4.66667 1.47019,-3.86689 0.40793,-4.3267 -3.37882,-1.46254 -3.23157,2.44424 -7.25484,2.61252 -7.25484,0.30345 0,-3.09357 7.95335,-14.38831 15.31685,-21.7518 10.2077,-10.20771 15.28318,-9.34417 8.01648,1.36391 -4.0091,5.90774 -4.00099,5.80689 -0.69018,8.57979 2.52128,2.11165 2.54157,2.41926 0.44005,6.67111 C 521.86697,383.64668 512,391.51359 512,386.75344 Z m 77.42466,-12.0868 c -2.50634,-8.6343 -2.60996,-19.33333 -0.18726,-19.33333 2.86662,0 3.9865,6.31088 2.90089,16.34743 l -0.97197,8.9859 z m -264.75799,-4.53669 c -5.60688,-2.47493 -8.64753,-6.31222 -9.58644,-12.09805 -1.28244,-7.90273 5.2089,-9.82147 6.917,-2.04455 0.45476,2.07054 3.62204,6.52041 7.0384,9.88862 5.77748,5.69605 5.98162,6.12035 2.92129,6.07181 -1.80964,-0.0287 -5.09025,-0.84673 -7.29025,-1.81783 z m 16.95572,-2.87758 c -4.3596,-3.05359 -6.95572,-8.97044 -6.95572,-15.85285 0,-6.2946 1.83925,-8.10697 3.36112,-3.312 0.48078,1.51482 3.52121,6.62065 6.75651,11.34629 3.2353,4.72564 5.88237,8.88624 5.88237,9.24578 0,1.49324 -6.29239,0.50027 -9.04428,-1.42722 z m 17.9652,-4.54135 c -5.47349,-4.80578 -10.90796,-15.08433 -9.67466,-18.29826 0.69947,-1.82281 1.73427,-1.32985 6.04558,2.88004 6.72517,6.56695 11.88915,16.05951 9.84724,18.10142 -1.08228,1.08229 -2.74829,0.36339 -6.21816,-2.6832 z M 500,360.20299 c 0,-3.42118 23.41504,-22.86968 27.53397,-22.86968 3.36952,0 1.81215,3.87651 -3.0572,7.60982 -2.67111,2.04793 -8.07746,6.57351 -12.01412,10.05684 C 506.03019,360.69171 500,363.20925 500,360.20299 Z m -3.43151,-18.52219 c -1.50948,-6.09318 -5.30285,-7.42984 -7.16745,-2.52558 -1.40468,3.69459 -5.11688,6.17809 -9.2347,6.17809 -7.75252,0 -1.61242,-8.20343 12.42189,-16.59613 8.49721,-5.08145 12.8079,-5.87468 15.34064,-2.82291 0.8738,1.05286 3.34727,2.30054 5.49659,2.77261 2.14933,0.47207 3.90787,1.39759 3.90787,2.05672 0,2.24331 -14.71421,15.92304 -17.12716,15.92304 -1.66595,0 -2.78121,-1.52859 -3.63768,-4.98584 z m -46.23516,-3.12096 c -3.26699,-1.90285 -2.90821,-3.68844 1.10888,-5.51874 3.25874,-1.48479 3.2991,-1.62132 0.75718,-2.56164 -1.47676,-0.54629 -6.31409,-1.40383 -10.74961,-1.90566 -13.02857,-1.47401 -8.253,-3.68073 6.31631,-2.91866 11.13052,0.5822 13.03328,1.04105 15.14834,3.65304 3.13958,3.87722 3.07592,7.57968 -0.16011,9.31155 -3.25526,1.74216 -9.37774,1.71264 -12.42099,-0.0599 z m -75.03761,-15.04031 c -12.36125,-5.95801 -14.49128,-8.44311 -13.29678,-15.51329 1.25456,-7.42568 5.8279,-12.67346 10.10841,-11.59912 3.7001,0.92867 17.11418,12.48503 21.27547,18.32902 3.37068,4.73369 2.62522,7.89651 -2.58683,10.97535 -5.032,2.97247 -4.68311,3.02181 -15.50027,-2.19196 z m 103.37095,-43.33499 c 0,-2.20603 0.56377,-5.49379 1.25282,-7.30614 1.39586,-3.67137 10.09415,-12.87842 12.1668,-12.87842 2.19575,0 3.10605,4.1844 1.17054,5.38062 -0.98914,0.61131 -3.62657,4.90076 -5.86096,9.5321 -4.57208,9.47676 -8.7292,11.98739 -8.7292,5.27184 z m 18.66666,-0.54172 c 0,-5.6531 10.38147,-17.70582 12.99745,-15.08984 1.12779,1.12779 -1.92015,7.21145 -6.52727,13.02842 -4.59938,5.8072 -6.47018,6.40324 -6.47018,2.06142 z m -32.44444,-7.1984 c -3.94402,-3.94401 2.92401,-12.26877 15.29291,-18.53656 7.29152,-3.6949 8.81259,-3.5906 6.64704,0.45577 -1.70501,3.18583 -6.29279,6.25169 -11.14187,7.44574 -2.51485,0.61926 -3.91658,2.0294 -4.51718,4.54425 -1.36807,5.72847 -4.04618,8.32552 -6.2809,6.0908 z m -18.77287,-13.09868 c 0.59337,-2.36415 0.21655,-3.55766 -1.30793,-4.14265 -1.17778,-0.45196 -2.14142,-1.34214 -2.14142,-1.97819 0,-2.14537 8.21597,-5.4598 11.49437,-4.63698 2.09013,0.52459 5.03736,-0.24838 8.46192,-2.2193 4.18833,-2.4105 5.59114,-2.68787 6.91227,-1.36674 2.54569,2.54569 -2.26498,8.02478 -11.61111,13.22444 -9.83046,5.46911 -12.97461,5.76718 -11.8081,1.11942 z m -27.44935,-1.87443 c -3.03513,-0.84215 -3.47291,-1.66037 -2.86667,-5.35777 0.11,-0.67088 3.2,-3.42198 6.86667,-6.11356 7.30755,-5.36424 8.92413,-9.40908 3.33333,-8.34033 -4.84557,0.92629 -4.09919,-0.51462 2.33572,-4.50919 C 441.49724,224.98023 448,223.17914 448,227.70398 c 0,1.30386 -3.65864,6.85386 -8.13032,12.33333 -4.47167,5.47947 -8.98708,11.61267 -10.03424,13.62934 -1.04716,2.01666 -2.43944,3.66666 -3.09396,3.66666 -0.65453,0 -1.98912,0.23915 -2.96576,0.53145 -0.97665,0.29229 -3.27572,0.11524 -5.10905,-0.39345 z M 318.72403,409.4718 c -2.2775,-5.49838 -13.50583,-15.74958 -20.77073,-18.96319 -3.54318,-1.56731 -12.85056,-3.42929 -22.95631,-4.5925 -14.50886,-1.67002 -52.65222,-8.13445 -114.33032,-19.37637 -20.85378,-3.80097 -42.18962,-9.34262 -68.671191,-17.83627 -12.63832,-4.05359 -24.107525,-7.37016 -25.487122,-7.37016 -8.52226,0 4.130496,7.9296 43.491643,27.25663 39.49075,19.39066 46.40118,21.9373 79.6203,29.34176 47.18774,10.51804 71.96244,14.29854 98.68343,15.05863 16.5346,0.47034 24.34709,1.19936 26,2.42618 1.96037,1.45502 2.68063,1.44189 4.22767,-0.0771 1.53766,-1.50973 1.57145,-2.53891 0.19263,-5.86766 z M 108.61518,328.5019 c 1.98406,-0.76136 1.97584,-1.0422 -0.0976,-3.33333 -1.24532,-1.37606 -3.07122,-2.50193 -4.05756,-2.50193 -2.22542,0 -2.33696,2.92306 -0.19335,5.06667 1.87288,1.87288 1.59758,1.82422 4.34851,0.76859 z M 80,309.61092 c 0,-4.65229 -9.263344,-14.15569 -16.004251,-16.41899 -2.564329,-0.86099 -9.576661,-3.8814 -15.582962,-6.71203 -13.415107,-6.32222 -16.760417,-6.62843 -16.168017,-1.47992 0.349072,3.03375 1.902074,4.39502 8.997005,7.88622 4.716309,2.32075 9.544489,5.50469 10.729289,7.07542 2.067698,2.7412 5.59677,5.16527 11.417066,7.8422 1.496804,0.68843 3.520271,2.21419 4.496593,3.39059 1.070638,1.29004 3.826963,2.1389 6.945203,2.1389 4.769954,0 5.170074,-0.28808 5.170074,-3.72239 z m 20.71752,-0.43784 c 1.02613,-3.23303 -3.005466,-9.5786 -6.525492,-10.27087 -2.829285,-0.55642 -2.905175,3.85112 -0.157788,9.16398 2.383771,4.6097 5.412332,5.1113 6.68328,1.10689 z m -4.205696,-25.53755 c -0.18015,-5.85338 -3.623207,-10.30222 -7.973118,-10.30222 -4.685182,0 -4.935353,1.97257 -1.188038,9.36754 2.767697,5.46179 4.024124,6.71865 6.381127,6.38333 2.465671,-0.35078 2.910117,-1.22186 2.780029,-5.44865 z m 1.631047,-21.73009 c 1.957179,-7.79802 -2.1273,-20.57213 -6.577867,-20.57213 -3.386738,0 -6.231671,4.59525 -6.231671,10.06565 0,4.39716 0.859005,6.57191 3.86828,9.79335 4.706239,5.03804 7.793963,5.28431 8.941258,0.71313 z M 97.90276,233.90675 c 4.64115,-4.64116 4.26009,-15.2401 -0.547918,-15.2401 -3.364611,0 -5.354842,3.8493 -5.354842,10.35679 0,7.24461 1.938087,8.84798 5.90276,4.88331 z m 8.71197,-27.49151 c 3.61067,-3.87561 3.69076,-10.41526 0.12754,-10.41526 -3.32733,0 -6.74227,4.87757 -6.74227,9.63001 0,4.53811 2.80786,4.87144 6.61473,0.78525 z m 12.643,-22.71193 c 2.11976,-3.02638 2.88279,-10.37679 1.0756,-10.36156 -0.55,0.005 -2.05,1.85326 -3.33333,4.10805 -4.1649,7.31765 -2.23389,12.66619 2.25773,6.25351 z"
       id="path1" />
  </g>
</svg>
