<?xml version="1.0" encoding="UTF-8" standalone="no"?>
<!-- Created with Inkscape (http://www.inkscape.org/) -->

<svg
   version="1.1"
   id="svg627"
   width="1863.0227"
   height="1615.9904"
   viewBox="0 0 1863.0227 1615.9903"
   sodipodi:docname="Dragon10b.svg"
   inkscape:version="1.2.2 (732a01da63, 2022-12-09, custom)"
   xmlns:inkscape="http://www.inkscape.org/namespaces/inkscape"
   xmlns:sodipodi="http://sodipodi.sourceforge.net/DTD/sodipodi-0.dtd"
   xmlns="http://www.w3.org/2000/svg"
   xmlns:svg="http://www.w3.org/2000/svg">
  <defs
     id="defs631" />
  <sodipodi:namedview
     id="namedview629"
     pagecolor="#ffffff"
     bordercolor="#000000"
     borderopacity="0.25"
     inkscape:showpageshadow="2"
     inkscape:pageopacity="0.0"
     inkscape:pagecheckerboard="0"
     inkscape:deskcolor="#d1d1d1"
     showgrid="false"
     inkscape:zoom="0.54660447"
     inkscape:cx="940.35089"
     inkscape:cy="728.13162"
     inkscape:window-width="1920"
     inkscape:window-height="1031"
     inkscape:window-x="0"
     inkscape:window-y="25"
     inkscape:window-maximized="1"
     inkscape:current-layer="layer4" />
  <g
     inkscape:groupmode="layer"
     id="layer1"
     inkscape:label="Layer 1">
    <path
       style="display:inline;fill:#000000;stroke-width:1.33333"
       d="m 1082.0797,2274.5805 -2.76,-3.5088 4.6055,-5.0978 c 11.9818,-13.2624 17.7354,-36.2012 14.0551,-56.0359 -1.5398,-8.2984 -3.7809,-10.5689 -16.8546,-17.0755 -12.2832,-6.1132 -19.3261,-8.3672 -58.8006,-18.8192 -51.81003,-13.718 -73.29523,-21.312 -124.3456,-43.9498 -45.17326,-20.0319 -92.00208,-44.7703 -129.95831,-68.6536 -20.43327,-12.8574 -33.34942,-17.2594 -50.70836,-17.2822 -18.48912,-0.024 -34.78119,5.9244 -54.66667,19.9602 -11.40927,8.053 -31.33643,19.2984 -45.48607,25.669 -74.37221,33.4844 -146.66368,29.6794 -196.22445,-10.3284 -4.60747,-3.7193 -13.94749,-10.6192 -20.75563,-15.3329 -14.09944,-9.7621 -24.38098,-20.0501 -25.57181,-25.5877 -0.44729,-2.08 -1.29937,-5.0014 -1.89352,-6.4918 -1.49927,-3.7608 2.79239,-8.6062 11.89211,-13.4264 12.63441,-6.6926 24.1475,-18.9732 40.32345,-43.0117 8.16271,-12.1303 20.30611,-28.3844 26.98535,-36.1203 6.67922,-7.7357 18.02665,-21.4286 25.21649,-30.4286 16.55193,-20.7191 32.14455,-37.2124 42.64639,-45.1098 12.49988,-9.4 35.50992,-19.8212 57.70056,-26.1326 l 19.53029,-5.5547 -0.82708,-16.7531 c -0.45489,-9.2141 -1.21733,-24.2529 -1.69431,-33.4196 -1.20765,-23.2089 1.09452,-31.7897 16.1685,-60.2633 13.10386,-24.7524 20.71689,-36.5009 47.26072,-72.9336 19.3047,-26.4968 27.03638,-40.2249 31.99874,-56.8161 2.54383,-8.5051 2.62867,-9.9007 0.94248,-15.5035 -3.3918,-11.2701 -11.94208,-22.2036 -26.21221,-33.5183 -2.56667,-2.0351 -3.76667,-3.4171 -2.66667,-3.0709 1.1,0.3461 13.26023,3.676 27.02272,7.3997 39.55716,10.703 59.74354,18.723 79.44966,31.5648 32.76111,21.3494 55.76114,58.2626 64.6811,103.8079 4.96889,25.3712 5.44156,32.7571 4.90649,76.6667 -1.11362,91.3881 -0.94174,94.5669 5.95627,110.1645 7.13091,16.1243 20.24281,24.6145 69.31711,44.8847 4.4,1.8174 19.1,8.0953 32.66663,13.9509 26.3358,11.3669 57.42803,21.3904 79.63863,25.6737 53.9162,10.3979 116.9115,3.7143 195.811,-20.7753 46.7671,-14.516 94.1886,-36.3305 122.5504,-56.3749 32.5462,-23.0018 65.5974,-60.4515 82.4708,-93.4467 12.0163,-23.4968 17.2043,-37.4207 23.3784,-62.7436 7.0448,-28.8937 9.4099,-45.3127 10.371,-72 2.2262,-61.8141 -14.1206,-111.1515 -49.2572,-148.6666 l -8.7416,-9.3333 -5.0047,2.6667 c -4.1825,2.2285 -6.7157,5.7333 -15.4191,21.3333 -5.7278,10.2667 -11.9294,23.1805 -13.7813,28.6975 -3.8576,11.4919 -10.6732,22.3368 -16.9952,27.0421 -2.3949,1.7824 -9.4544,5.8616 -15.6877,9.0647 -7.9966,4.1091 -14.1175,8.5773 -20.7895,15.1763 -10.4601,10.3458 -14.5485,16.6505 -21.2369,32.7497 -10.3295,24.8629 -20.6452,30.9595 -60.677,35.8599 -12.0412,1.474 -22.3192,2.2441 -22.8401,1.7114 -0.5209,-0.5325 -1.3489,-11.7684 -1.8401,-24.9684 -0.842,-22.63 -0.6529,-25.5982 3.3124,-52 8.3447,-55.5593 11.7613,-88.5628 13.9254,-134.5157 l 0.6836,-14.5159 -22.2689,0.7129 c -17.4454,0.5586 -24.1462,1.3143 -30.9356,3.4891 -4.7667,1.5268 -22.4667,10.6555 -39.3333,20.2857 -34.9705,19.9668 -50.7427,27.4248 -70.2757,33.2304 -18.3777,5.4623 -32.4915,7.7922 -52.8015,8.7164 -30.07853,1.3688 -47.09483,6.2866 -59.98663,17.336 -3.1517,2.7014 -6.00879,4.6331 -6.34905,4.2928 -1.05028,-1.0502 5.58225,-24.5356 14.00885,-49.6045 4.4197,-13.1485 7.8936,-24.0245 7.7199,-24.1691 -0.1738,-0.1444 -16.8159,0.5239 -36.9826,1.4852 -35.87798,1.7102 -49.07956,3.3727 -68.66667,8.6474 -20.65589,5.5625 -60.61617,8.0016 -77.33334,4.7202 -20.85593,-4.0937 -49.67536,-6.4057 -70,-5.6157 -46.43437,1.8051 -82.71553,14.7483 -131.05664,46.754 l -3.72332,2.4652 0.89,-8.6868 c 0.77384,-7.5533 0.35461,-10.3187 -3.21252,-21.1905 -5.30627,-16.1724 -6.09553,-21.0332 -4.40777,-27.1458 l 1.38382,-5.0118 -5.60345,0.8958 c -3.08191,0.4928 -8.06297,2.3372 -11.06905,4.0987 -8.34672,4.8912 -25.74044,21.7432 -31.30004,30.3252 l -4.96603,7.6659 -2.93313,-5.6659 c -1.61324,-3.1161 -5.53523,-10.4657 -8.71555,-16.3324 -3.18031,-5.8667 -7.67592,-15.9123 -9.99023,-22.3235 -5.15338,-14.2762 -9.11866,-18.8158 -18.73417,-21.4474 -49.2664,-13.4838 -96.48564,-24.3042 -112.64739,-25.8134 -9.84449,-0.9193 -22.37185,1.2259 -31.91453,5.4648 -20.69785,9.1944 -31.17463,11.5043 -56.25521,12.4024 -21.44971,0.7682 -21.63563,0.7502 -28.9088,-2.8084 -8.80384,-4.3073 -13.35496,-9.2556 -20.62403,-22.4238 -12.47444,-22.5982 -12.14792,-44.9739 0.85952,-58.8998 6.81453,-7.2956 23.83588,-18.8402 40.40133,-27.4017 l 16.60918,-8.5841 2.33106,-14.7492 c 2.95808,-18.7166 2.89035,-22.2468 -0.50982,-26.5694 -2.33792,-2.9722 -3.80715,-3.5132 -9.54156,-3.5132 -5.71299,0 -9.10256,1.2371 -21.5699,7.872 -17.49437,9.3103 -23.90429,10.6838 -34.91789,7.482 -13.53069,-3.9334 -23.52943,-12.5785 -29.32384,-25.354 -4.51797,-9.9612 -5.13552,-17.3134 -2.53268,-30.1536 5.55521,-27.4046 12.90537,-43.9692 24.15719,-54.4414 7.54692,-7.0242 20.01677,-24.9773 24.69592,-35.5551 1.51728,-3.4302 4.1761,-11.533 5.90849,-18.0064 7.11416,-26.5833 20.08015,-55.3426 35.13973,-77.942 4.36198,-6.5458 15.65526,-20.6015 25.0962,-31.23482 30.16215,-33.9716 57.49179,-55.3378 118.15671,-92.3742 64.91239,-39.6295 135.25457,-64.1893 264.5294,-92.3597 18.77477,-4.0912 41.07264,-9.1654 49.55081,-11.276 22.0957,-5.5005 52.34264,-11.097 97.41487,-18.02412 21.63333,-3.32484 46.83332,-7.54987 55.99999,-9.38893 27.92713,-5.60294 62.97284,-15.10984 68.00004,-18.44647 10.0021,-6.63865 47.14483,-9.23639 106.66663,-7.46021 23.1,0.68932 45.45,1.62938 49.6667,2.08904 5.1865,0.56538 7.6667,0.36206 7.6667,-0.62851 0,-1.00604 7.1975,-1.47091 23,-1.48553 22.8803,-0.0212 41.7704,2.02993 56.3333,6.11673 3.6667,1.02897 8.7356,2.02845 11.2642,2.22104 l 4.5976,0.35017 3.5999,-20.66667 c 4.0147,-23.04844 9.205,-61.84441 9.205,-68.80506 0,-2.49055 0.2468,-4.52827 0.5485,-4.52827 1.2337,0 22.1256,9.29499 31.4087,13.97403 23.3429,11.76569 44.5357,29.61498 60.6693,51.09785 8.8735,11.81557 23.8528,39.79835 31.9856,59.75211 5.7665,14.1481 3.0877,12.6661 34.7212,19.2087 46.73,9.6649 76.052,18.2706 124.0588,36.41 43.6411,16.4898 62.7524,24.9334 92.6079,40.9149 13.5666,7.2622 27.7006,13.9039 31.4089,14.7594 8.1656,1.8837 11.2936,1.0948 47.9244,-12.0869 37.1921,-13.3836 38.0267,-13.5682 64.6667,-14.3047 39.3202,-1.0871 60.297,2.6042 165.3333,29.0938 82.5635,20.8221 133.5975,34.3489 135.1235,35.8151 0.618,0.5937 0.468,2.3044 -0.3334,3.8016 -0.8012,1.4972 -1.4568,3.9407 -1.4568,5.4301 0,1.4893 -1.6672,4.6788 -3.705,7.0876 -2.0378,2.4089 -5.4466,6.9689 -7.5751,10.1335 -9.6533,14.3523 -25.8255,24.6902 -54.7199,34.979 -8.8,3.13352 -29.2,12.39072 -45.3333,20.57162 -25.8323,13.0989 -33.7096,16.3484 -66,27.2263 -39.9032,13.4425 -49.6161,17.8408 -56.6911,25.672 -8.8026,9.7435 -6.8557,15.9629 17.7584,56.7277 20.0387,33.1874 24.309,41.7859 36.1291,72.7485 38.9765,102.0986 52.7501,176.3544 50.2653,270.9878 -1.1596,44.1619 -2.6758,63.024 -8.16,101.5074 -5.0394,35.3641 -7.1604,45.4981 -16.1481,77.1592 -12.8788,45.3683 -15.1549,62.1327 -9.8241,72.36 4.2822,8.2156 5.758,19.4331 5.8292,44.3067 0.076,26.4886 -2.1096,39.7073 -10.613,64.197 -10.7757,31.0339 -24.6133,55.8708 -64.5182,115.803 -29.5523,44.3836 -39.2724,60.1993 -40.5628,66 -2.3908,10.7474 -5.3927,13.9666 -10.2367,10.9784 -1.4667,-0.9048 -7.7071,-7.6558 -13.8675,-15.002 -11.3713,-13.5602 -15.2424,-17.1119 -23.0528,-21.1507 -2.3973,-1.2397 -7.7202,-6.7993 -11.8286,-12.3547 -7.2291,-9.775 -7.6183,-10.0766 -12.0756,-9.3533 -7.3962,1.2003 -15.9906,7.0361 -19.7108,13.3843 -6.0206,10.2732 -8.3184,22.6528 -6.9971,37.695 1.518,17.2807 -0.1428,25.3872 -8.9743,43.803 -15.6188,32.5692 -39.364,57.5054 -80.0546,84.0702 -17.7943,11.617 -81.9704,48.2339 -88.6943,50.6062 -6.8891,2.4306 -17.5796,7.9272 -30.478,15.6704 -13.1528,7.8958 -22.4303,11.6532 -28.774,11.6532 h -4.5843 l 1.9319,-4.6239 c 2.6949,-6.4496 2.356,-20.8791 -0.766,-32.6193 -1.9212,-7.2243 -2.6353,-14.2042 -2.6353,-25.7566 0,-15.7956 -0.013,-15.8438 -3,-14.9998 -14.5431,4.1045 -38.4936,23.2821 -43.6584,34.958 -6.2768,14.1898 -25.3018,35.2996 -41.3438,45.8742 -25.6716,16.9224 -60.0925,27.8982 -105.9978,33.7995 -26.0884,3.3537 -74.2048,7.2087 -80.6667,6.4628 -8.2975,-0.9577 -34.0189,3.0057 -49.8401,7.6799 -17.1177,5.0572 -24.9674,5.1618 -28.7264,0.383 z"
       transform="translate(-189.12797,-662.08939)"
       id="path637" />
    <g
       id="layer4"
       inkscape:label="Body"
       style="display:inline">
      <g
         id="layer8"
         inkscape:label="Under"
         style="display:inline">
        <path
           style="display:inline;fill:#008000;stroke-width:1.33333"
           d="m 1626.6786,1070.2109 c 15.7392,-6.5764 22.6391,-11.1459 44.9783,-29.7872 20.71,-17.2818 29.5849,-22.5465 44.5706,-26.4399 11.5732,-3.0067 34.3279,-3.7492 53.0854,-1.7321 10.4441,1.1231 10.1938,1.1649 -12,2.0046 -25.2596,0.9556 -33.0546,2.5818 -47.8211,9.9765 -14.5151,7.2688 -39.3377,25.8566 -34.5297,25.8566 0.796,0 10.9506,1.4794 22.5657,3.2875 33.0556,5.1459 59.0744,7.4494 84.1425,7.4494 h 23.0983 l 26.2721,-12.5411 c 27.2636,-13.0143 36.486,-16.4648 53.9255,-20.1757 14.6815,-3.1241 24.1021,-7.282 48.3467,-21.3383 25.3788,-14.71392 34.4092,-18.68302 50.4933,-22.19342 19.1957,-4.1895 33.5925,-13.3982 46.5247,-29.7585 l 5.2238,-6.6086 -5.1209,-1.8577 c -20.3197,-7.3713 -135.5404,-38.099 -181.1956,-48.3224 -53.9452,-12.0796 -93.4628,-14.6606 -121.5944,-7.9416 -20.198,4.8242 -34.6304,11.1297 -76.3309,33.3492 -12.1,6.4473 -35.8,17.788 -52.6667,25.2016 -37.32,16.4036 -59.3719,27.9303 -61.7312,32.2673 -1.1365,2.0891 -1.5607,6.6496 -1.2345,13.2751 0.4129,8.38722 1.3332,11.76692 5.446,20.00002 5.4438,10.8974 15.8744,24.746 21.8352,28.9905 l 3.8244,2.7232 10.3233,-5.9834 c 13.6017,-7.8835 26.5552,-20.305 41.1693,-39.4785 6.563,-8.61042 14.7304,-18.14572 18.15,-21.18962 4,-3.5605 15.0147,-9.7914 30.8842,-17.4709 40.3725,-19.5372 79.2032,-36.857 88.2196,-39.3489 11.6326,-3.215 44.3348,-3.1224 64.447,0.1824 18.7659,3.0836 70.1223,13.4634 84,16.9774 15.6946,3.9741 48.254,14.8219 46.4059,15.461 -2.0179,0.6977 -31.558,-4.7187 -67.7392,-12.4205 -66.2277,-14.0978 -99.5328,-17.7735 -120.0843,-13.2529 -12.7774,2.8105 -27.4534,8.3448 -50.5824,19.0744 -9.5333,4.4226 -22.4333,10.2779 -28.6666,13.0119 -25.5976,11.2272 -41.7687,22.8794 -57.2556,41.25582 -5.5428,6.5769 -16.5571,18.7237 -24.4762,26.9929 -17.6808,18.4623 -19.941,22.974 -16.9336,33.8001 0.9763,3.5142 2.7366,5.5473 6.7611,7.8093 11.8943,6.6849 17.0091,6.5246 35.27,-1.1055 z"
           transform="translate(-189.12797,-662.08939)"
           id="path724" />
        <path
           style="display:inline;fill:#008000;stroke-width:1.33333"
           d="m 938.64617,1440.61 c 38.5893,-1.739 35.7824,-0.561 40.8578,-17.1455 4.1092,-13.4273 4.4765,-40.8805 0.6921,-51.7372 -3.4093,-9.7808 -9.7911,-16.3045 -15.9499,-16.3045 -5.5519,0 -4.6914,-1.0482 -22.47179,27.3732 -14.23966,22.7617 -23.9277,36.0266 -35.66394,48.8312 -4.47202,4.879 -8.13094,9.229 -8.13094,9.6666 0,1.0806 2.4066,1.04 40.66667,-0.6838 z"
           transform="translate(-189.12797,-662.08939)"
           id="path694" />
        <path
           style="display:inline;fill:#008000;stroke-width:1.33333"
           d="m 1248.194,1647.5167 c 21.6302,-1.7931 25.3522,-5.0323 42.0517,-36.5971 14.4914,-27.3913 18.1553,-31.3497 37.7669,-40.8025 9.8485,-4.747 14.9973,-8.186 19.5624,-13.0666 10.6677,-11.4045 18.3353,-30.4604 18.3848,-45.6907 l 0.02,-6.0629 15.9983,-13.2061 15.9984,-13.206 -6.3318,-3.9571 c -10.3562,-6.4723 -27.5282,-13.9289 -46.6114,-20.2403 -9.8642,-3.2622 -18.7892,-5.9313 -19.8336,-5.9313 -2.1951,0 -19.3384,22.578 -27.2319,35.8647 -7.4112,12.4749 -9.4795,18.9918 -18.0899,57.0013 -7.2434,31.9744 -15.8068,64.2243 -17.4553,65.7362 -1.5293,1.4025 1.0903,-23.4052 4.3577,-41.269 1.8108,-9.9 5.9578,-29.2819 9.2155,-43.0711 6.952,-29.4261 10.6968,-37.5752 27.9724,-60.8706 6.2304,-8.4014 10.8463,-15.7568 10.2575,-16.3456 -1.698,-1.698 -25.7367,-7.4568 -37.8628,-9.0704 -6.08,-0.8091 -14.3535,-1.2846 -18.3855,-1.0567 l -7.3309,0.4145 -0.3554,5.3334 c -1.0157,15.2416 -5.1314,47.162 -11.0025,85.3333 -9.055,58.8718 -10.652,72.5294 -11.5761,98.9999 l -0.8029,23 3.8685,-0.059 c 2.1276,-0.032 9.9649,-0.5634 17.4161,-1.1812 z"
           transform="translate(-189.12797,-662.08939)"
           id="path688" />
        <path
           style="display:inline;fill:#008000;stroke-width:1.33333"
           d="m 755.29919,1859.1744 c 1.83814,-0.6989 4.36748,-2.1987 5.62072,-3.3328 2.85537,-2.5841 7.00094,-15.1625 9.58589,-29.0856 1.0892,-5.8667 5.31032,-24.0719 9.38025,-40.456 11.83669,-47.6501 12.32056,-65.3911 2.78062,-101.9491 -10.05744,-38.5409 -33.79939,-73.5637 -60.91851,-89.8636 -10.80515,-6.4942 -11.37251,-6.5704 -12.44923,-1.6681 -3.62477,16.5036 -16.57866,38.5475 -45.79877,77.9368 -23.77445,32.0485 -32.82128,46.4499 -39.92863,63.5615 -7.0946,17.0809 -8.52698,25.7913 -8.34104,50.7225 0.28328,37.9807 6.19996,52.8697 24.20975,60.9225 16.87829,7.547 37.5202,12.652 59.87259,14.8078 13.42834,1.295 51.21577,0.2178 55.98636,-1.5959 z"
           transform="translate(-189.12797,-662.08939)"
           id="path686" />
        <path
           style="display:inline;fill:#008000;stroke-width:1.33333"
           d="m 1209.9795,1983.3645 c 56.6136,-5.1041 106.3394,-18.8316 163.9259,-45.2541 64.3935,-29.5457 105.2384,-62.0092 149.9644,-119.1908 26.1021,-33.3715 52.1868,-79.0227 62.5923,-109.5439 8.3318,-24.4392 9.4994,-34.6254 9.4701,-82.6197 -0.029,-48.4353 -1.4155,-62.3145 -9.3895,-94.0428 -8.2676,-32.8962 -24.0944,-75.2626 -36.8429,-98.6238 -36.4265,-66.75 -98.7323,-110.106 -194.3869,-135.266 -15.9832,-4.204 -18.1708,-4.5037 -19.5243,-2.6741 -1.9321,2.6116 -2.6617,7.8099 -5.1408,36.6263 -2.0943,24.3442 -6.2876,53.0522 -8.6609,59.2946 -1.7862,4.698 -2.2783,4.5655 -30.3335,-8.1666 -38.8056,-17.6108 -69.4905,-28.4808 -80.3989,-28.4808 -7.728,0 -9.5912,3.3112 -24.4744,43.4941 -4.107,11.0885 -7.4672,20.5113 -7.4672,20.9396 0,1.5053 8.9839,2.2248 43.3333,3.4708 40.3592,1.4639 65.3468,4.6573 94.7536,12.11 79.8916,20.2469 125.8447,57.9072 147.7924,121.1216 9.9932,28.7824 13.8005,63.198 11.4045,103.0895 -3.98,66.2675 -22.1376,122.0001 -53.1401,163.1076 -8.6847,11.5152 -36.0427,39.1781 -50.8104,51.3765 -73.5527,60.756 -155.6855,91.1438 -265.0305,98.0567 -8.2668,0.5225 -14.7688,1.2119 -14.449,1.5317 2.1626,2.1626 38.4134,8.937 54.1462,10.1186 14.1401,1.062 48.5079,0.8014 62.6666,-0.475 z"
           transform="translate(-189.12797,-662.08939)"
           id="path680" />
        <path
           style="display:inline;fill:#008000;stroke-width:1.33333"
           d="m 1774.6471,1982.0893 c 12.3955,-41.2249 21.3248,-63.5584 33.7274,-84.3569 19.7546,-33.1277 27.9486,-53.9743 30.3085,-77.1091 0.9123,-8.9438 -1.172,-27.5358 -3.3288,-29.6926 -0.6651,-0.6651 -2.7185,1.9096 -4.7825,5.9965 -16.2972,32.2697 -58.8016,94.0011 -95.2404,138.3225 -10.4034,12.6539 -13.391,17.1548 -12.833,19.3334 1.0926,4.2646 10.0679,14.4968 20.3004,23.1432 5.0096,4.233 12.7247,11.1148 17.1446,15.2926 4.42,4.178 8.4089,7.178 8.8644,6.6667 0.4554,-0.5112 3.0832,-8.4296 5.8394,-17.5963 z"
           transform="translate(-189.12797,-662.08939)"
           id="path678" />
        <path
           style="display:inline;fill:#008000;stroke-width:1.33333"
           d="m 509.64568,2058.74 c 27.02263,-5.1261 51.07943,-17.2329 89.66715,-45.126 9.16666,-6.626 28.66666,-20.4917 43.33333,-30.8127 35.55661,-25.0212 39.22045,-27.7812 39.28133,-29.5914 0.0285,-0.8504 -6.21528,-14.0768 -13.8753,-29.3919 -16.79743,-33.5841 -35.14039,-62.0455 -43.37016,-67.294 -13.41142,-8.5532 -41.80638,-8.2888 -60.44528,0.5628 -21.46455,10.1935 -37.32412,23.4124 -68.32308,56.9476 -28.96392,31.3336 -32.65467,36.076 -82.94794,106.584 -1.49269,2.0927 -0.52456,3.188 8.66667,9.8053 22.1228,15.9278 41.04279,25.0388 58.57261,28.2063 13.75819,2.4861 16.85416,2.4976 29.44067,0.1093 z"
           transform="translate(-189.12797,-662.08939)"
           id="path676" />
        <path
           style="display:inline;fill:#008000;stroke-width:1.33333"
           d="m 1469.3129,2187.8364 c 12.1629,-15.3737 31.729,-35.4691 41.7196,-42.848 4.9209,-3.6345 17.047,-11.2403 26.947,-16.9016 39.5718,-22.6291 58.5222,-37.4953 69.611,-54.6088 6.4812,-10.0024 13.781,-34.0553 10.3354,-34.0553 -3.312,0 -130.6324,74.006 -141.4842,82.2389 -9.1923,6.9739 -14.6816,13.73 -19.4835,23.9799 -3.2097,6.8514 -3.6453,9.3742 -3.6453,21.1145 0,10.5031 0.6598,15.2439 3.1086,22.3333 1.7099,4.95 3.5099,8.9683 4,8.9295 0.4903,-0.039 4.4914,-4.6208 8.8914,-10.1824 z"
           transform="translate(-189.12797,-662.08939)"
           id="path668" />
        <path
           style="display:inline;fill:#008000;stroke-width:1.33333"
           d="m 1143.0021,2240.6281 c 14.502,-4.9113 29.4491,-7.9834 64.1563,-13.1862 31.9572,-4.7906 46.6232,-7.8506 60.986,-12.7244 11.9083,-4.041 27.6683,-12.0932 35.7267,-18.2539 6.4103,-4.9008 18.1084,-15.9281 18.1084,-17.0701 0,-1.1711 -17.296,0.8789 -46,5.452 -13.9333,2.2198 -31.3333,4.9532 -38.6666,6.0741 -8.4252,1.2879 -29.403,2.3955 -56.9871,3.0088 l -43.6538,0.9707 -4.1229,3.9284 c -5.8533,5.5773 -13.8325,22.964 -17.8232,38.8368 -1.8772,7.4662 -3.413,14.4381 -3.413,15.493 0,1.3728 2.8489,0.4252 10.0226,-3.3338 5.5124,-2.8886 15.2624,-7.0264 21.6666,-9.1954 z"
           transform="translate(-189.12797,-662.08939)"
           id="path664" />
      </g>
      <g
         id="layer3"
         inkscape:label="Top"
         style="display:inline">
        <path
           style="display:inline;fill:#008080;stroke-width:1.33333"
           d="m 1167.9928,2253.4015 c 68.2385,-5.4474 105.5935,-10.5555 127.5765,-17.4455 33.6552,-10.5484 58.1845,-25.1836 73.0952,-43.6113 6.873,-8.4944 14.1073,-21.8831 15.4492,-28.5928 l 0.8029,-4.0143 -7.1352,1.2864 c -3.9244,0.7076 -12.5352,3.3688 -19.1352,5.914 -6.6,2.5452 -15.502,5.868 -19.7821,7.3841 -6.8187,2.4154 -8.7994,4.0106 -16,12.8852 -14.1295,17.4146 -18.022,21.1168 -27.252,25.9199 -18.4265,9.5887 -37.8417,14.37 -82.2992,20.2677 -36.7149,4.8706 -51.0236,8.0856 -69.0299,15.5108 -17.8683,7.3683 -16.2113,7.6826 23.7098,4.4958 z"
           transform="translate(-189.12797,-662.08939)"
           id="path666" />
        <path
           style="display:inline;fill:#008080;stroke-width:1.33333"
           d="m 542.74792,2097.9681 c 18.51859,-1.8493 40.0098,-7.382 57.98688,-14.9281 7.74876,-3.2527 28.74876,-14.5049 46.66667,-25.0051 17.91792,-10.5 41.99132,-23.9549 53.49645,-29.8997 l 20.91843,-10.8088 -8.91843,-13.1009 c -4.90513,-7.2056 -11.91843,-16.3056 -15.58509,-20.2224 l -6.66667,-7.1215 -10,2.6836 c -22.87615,6.1391 -39.89831,15.4941 -84.71044,46.5556 -43.60892,30.2275 -62.33499,38.1708 -93.28956,39.5723 -31.32757,1.4184 -54.81983,-6.6723 -84.44369,-29.0823 -10.8668,-8.2205 -15.51124,-9.7981 -22.24471,-7.5557 -2.80915,0.9354 -5.33884,2.407 -5.62156,3.2702 -1.03797,3.169 38.19427,34.3015 58.28772,46.2539 28.05533,16.6885 58.45613,22.9509 94.124,19.3889 z"
           transform="translate(-189.12797,-662.08939)"
           id="path674" />
        <path
           style="display:inline;fill:#008080;stroke-width:1.33333"
           d="m 1225.3129,2176.7369 c 62.6978,-3.3993 110.8721,-12.6517 161.3333,-30.9861 20.2577,-7.3603 91.3603,-38.9337 118,-52.3984 49.2097,-24.8725 92.0435,-52.6812 130,-84.3989 15.7212,-13.1372 92.2689,-89.6516 104.2428,-104.1975 12.8264,-15.5815 36.4113,-47.9589 55.8468,-76.6667 58.8449,-86.9186 86.374,-149.1973 103.8151,-234.8604 11.3738,-55.8629 13.5593,-111.58 7.3405,-187.1395 -7.5836,-92.1429 -42.0751,-197.4897 -91.6745,-280 -19.2406,-32.0073 -42.8758,-53.973 -61.6867,-57.3295 -4.7028,-0.8392 -17.2507,-3.307 -27.884,-5.4841 -22.2295,-4.5512 -45.8408,-6.2821 -54.2773,-3.9789 -3.0858,0.8425 -8.1858,3.6057 -11.3334,6.1406 -3.1474,2.5348 -10.1166,7.6185 -15.4872,11.297 -8.9866,6.1555 -10.3864,6.6882 -17.5714,6.6882 -4.8434,0 -8.5023,0.6955 -9.6388,1.832 -1.5538,1.5537 -3.4956,1.3516 -12.7858,-1.3305 -16.6096,-4.7952 -38.4874,-16.5015 -30.8396,-16.5015 0.8618,0 1.2462,-2.9476 1,-7.6666 l -0.3998,-7.6667 -5.8504,-0.419 c -3.2178,-0.2304 -7.6739,0.3363 -9.9026,1.2595 -3.9581,1.6395 -4.2001,1.513 -10.45,-5.465 -12.4458,-13.8957 -21.0545,-36.6436 -21.1072,-55.77502 -0.036,-13.0545 2.831,-17.0035 19.9768,-27.5163 9.1452,-5.6073 17.1904,-11.7651 24.5224,-18.7695 3.6688,-3.5048 5.9698,-4.5506 28.1443,-12.7917 10.2667,-3.8156 20.3965,-7.6636 22.5107,-8.5511 l 3.8441,-1.6135 -12.5108,-9.6864 c -52.0736,-40.3179 -110.17,-66.8043 -187.1773,-85.335 -28.6563,-6.8957 -69.7662,-15.0454 -71.8536,-14.2443 -2.2771,0.8738 -4.8131,22.3075 -4.8131,40.6796 v 14.5946 l 10.6607,4.2974 c 12.1346,4.8915 22.1873,11.1105 23.3081,14.4194 0.4191,1.2373 6.2516,5.8496 12.9612,10.2496 10.3644,6.7969 38.3925,32.0044 36.8944,33.1816 -0.2701,0.2122 -4.9911,1.802 -10.4911,3.533 -12.8101,4.0316 -36.5274,16.0438 -51.5289,26.0979 -10.942,7.3335 -32.5476,26.9441 -32.4093,29.4166 0.033,0.6073 6.1021,5.6043 13.4848,11.10432 16.443,12.2499 24.4442,20.8051 30.8388,32.9739 6.7924,12.9258 14.3029,36.0995 15.2112,46.9337 l 0.7597,9.0612 -27.8448,0.7761 c -25.2145,0.7027 -44.552,3.0749 -47.1,5.7778 -0.4096,0.4345 0.384,1.4697 1.7637,2.3003 1.3798,0.8307 7.7603,5.5256 14.1791,10.4332 18.8717,14.4286 32.7392,31.5855 43.4397,53.7438 10.9978,22.7741 15.206,43.3195 15.206,74.2391 0,17.2776 -0.1789,18.6434 -2.3333,17.8081 -5.2068,-2.0191 -24.8072,-6.1807 -37.8227,-8.0307 -11.4089,-1.6216 -43.893,-2.8692 -43.8248,-1.6832 0.013,0.1834 1.7206,5.4334 3.7999,11.6667 3.0428,9.1211 4.4055,11.5287 6.9808,12.3341 80.484,25.17 123.4816,44.6671 162.4295,73.6531 34.6349,25.7763 54.9673,50.6901 76.7242,94.0128 37.2168,74.1063 48.965,124.1688 46.9342,199.9999 -0.8864,33.0948 -1.9846,39.4248 -12.1596,70.0935 -8.6266,26.0013 -17.124,44.3225 -32.3723,69.7969 -64.9453,108.5005 -179.5227,186.5916 -309.0225,210.6168 -34.7283,6.4428 -45.3179,7.3769 -83.3334,7.3512 -49.0504,-0.033 -57.1766,-1.2421 -121.3333,-18.0496 -63.26244,-16.5733 -83.70543,-23.6472 -140.00003,-48.4444 -36.31625,-15.9968 -105.13076,-45.3593 -114,-48.6425 -11.28569,-4.1779 -32.55672,-7.5803 -62.36437,-9.9758 -43.93435,-3.5305 -57.13793,-4.887 -72.96897,-7.4966 -18.14303,-2.9907 -18.66667,-3.0211 -18.66667,-1.084 0,6.7236 58.28407,113.563 72.17457,132.302 15.4924,20.8998 30.26138,35.7293 44.27672,44.458 81.43611,50.7178 143.23411,81.8788 204.41082,103.072 53.60663,18.5708 117.08773,33.4134 153.80463,35.9616 21.2235,1.4729 79.017,1.4848 106,0.021 z"
           transform="translate(-189.12797,-662.08939)"
           id="path672" />
        <path
           style="display:inline;fill:#008080;stroke-width:1.33333"
           d="m 1487.5969,2188.6517 c 22.3341,-8.7788 54.4018,-27.115 95.0493,-54.3492 29.892,-20.0278 40.3819,-28.1705 52.1053,-40.4456 25.809,-27.0234 36.9416,-55.1736 33.3112,-84.2305 l -0.9366,-7.496 -5.5732,2.8339 c -9.404,4.7814 -19.9703,12.4776 -25.7712,18.7709 -4.92,5.3376 -5.8478,7.4453 -8.4404,19.1755 -6.63,29.9974 -9.0204,34.8973 -25.1819,51.6189 -10.3531,10.7119 -27.6483,23.5184 -55.8107,41.3263 -29.0302,18.3566 -41.7245,27.6362 -52.7645,38.5714 -7.9092,7.8343 -15.3183,16.9954 -13.7448,16.9954 0.3895,0 3.8803,-1.247 7.7575,-2.771 z"
           transform="translate(-189.12797,-662.08939)"
           id="path670" />
        <path
           style="display:inline;fill:#008080;stroke-width:1.33333"
           d="m 823.84332,1866.4227 c 5.35188,-68.4416 6.00266,-138.6936 1.54084,-166.3334 -7.69118,-47.6448 -18.36027,-71.7842 -41.61892,-94.1652 -10.12876,-9.7466 -28.13772,-22.0545 -40.06831,-27.3841 -9.63417,-4.3037 -29.98733,-11.2919 -30.72869,-10.5505 -0.30399,0.304 9.35043,10.3508 21.45427,22.3262 23.54097,23.2914 31.02924,33.2154 41.58152,55.107 7.54944,15.662 13.25783,32.2506 16.88975,49.0821 2.36964,10.9816 2.94284,18.0553 2.99152,36.9179 0.0588,22.7908 -0.0895,24.0618 -6.38084,54.6666 -4.71243,22.9242 -6.63426,35.6274 -7.1609,47.3334 l -0.71983,16 4.51954,6 c 3.67954,4.8848 7.36781,7.4228 19.84455,13.6549 8.42876,4.2103 15.71256,7.6603 16.18624,7.6667 0.47367,0 1.22484,-4.6383 1.66926,-10.3216 z"
           transform="translate(-189.12797,-662.08939)"
           id="path684" />
        <path
           style="display:inline;fill:#008080;stroke-width:1.33333"
           d="m 1806.5891,1944.4139 c 26.2442,-42.0014 48.9647,-80.2026 55.8163,-93.8463 13.3956,-26.6753 19.8481,-52.4919 19.948,-79.8116 0.108,-29.6731 -3.4187,-44.6541 -10.7715,-45.7503 -3.2345,-0.4822 -6.1944,3.7003 -14.9817,21.171 -11.224,22.3149 -12.2589,28.6009 -8.4947,51.5937 2.4642,15.052 1.8887,25.3448 -2.2398,40.0581 -3.6931,13.1614 -12.738,34.416 -22.5232,52.9275 -17.5694,33.2372 -30.7319,60.7991 -35.2422,73.7957 -2.633,7.5876 -4.7741,14.1876 -4.7578,14.6667 0.06,1.7559 5.3704,-6.1949 23.2466,-34.8045 z"
           transform="translate(-189.12797,-662.08939)"
           id="path682" />
      </g>
    </g>
    <g
       id="layer2"
       inkscape:label="Head"
       style="display:inline">
      <path
         style="display:inline;fill:#ff0000;stroke-width:1.33333"
         d="m 545.94163,1446.9917 c 3.27917,-2.2571 11.9649,-7.2465 19.30162,-11.0879 l 13.3395,-6.9844 -3.9683,-1.5325 c -8.45177,-3.2643 -23.26097,-6.4093 -37.62486,-7.9905 -12.24367,-1.3479 -15.37427,-1.3312 -17.08791,0.091 -7.85141,6.5162 -7.86253,21.5506 -0.0275,37.0788 l 4.94984,9.8102 7.5777,-7.6406 c 4.16773,-4.2022 10.26065,-9.487 13.53982,-11.744 z"
         transform="translate(-189.12797,-662.08939)"
         id="path692" />
      <path
         style="display:inline;fill:#ff0000;stroke-width:1.33333"
         d="m 978.72257,1488.0981 c 13.36989,-10.9555 27.00893,-34.8201 33.20503,-58.0996 4.021,-15.1076 7.3077,-36.0043 7.5352,-47.9091 0.091,-4.7666 0.6653,-10.4666 1.2761,-12.6666 0.6521,-2.3488 0.9055,6.4572 0.6139,21.3333 -0.7254,37.0092 -6.2393,59.5961 -21.56384,88.3333 l -7.2879,13.6667 h 3.7392 c 10.60354,-0.013 36.17904,-3.2005 49.63444,-6.1861 41.7971,-9.2743 79.8331,-29.1699 113.6456,-59.4451 7.5227,-6.7357 14.3794,-22.5069 19.83,-45.6115 3.1151,-13.2042 6.5967,-39.3502 6.723,-50.4877 0.1627,-14.352 -0.5904,-14.2779 21.2473,-2.0937 38.5765,21.5232 95.9456,48.3197 98.3344,45.931 1.3109,-1.311 -37.5201,-38.7678 -69.0141,-66.5718 -6.8838,-6.0772 -7.0047,-6.2852 -1.9947,-3.4318 17.3257,9.8678 54.3769,40.9699 72.802,61.1124 5.3917,5.8943 10.3012,10.219 10.9099,9.6103 1.992,-1.992 2.8362,-57.1513 1.0637,-69.5068 -2.326,-16.2135 -9.4099,-36.2721 -20.3264,-57.5557 -5.2183,-10.174 -9.2401,-18.7459 -8.9373,-19.0486 2.0596,-2.0596 62.8924,4.8287 87.0042,9.8518 l 11.4839,2.3922 v -10.1438 c -0.013,-23.0374 -7.3053,-51.1156 -18.2195,-70.1439 -14.6018,-25.4579 -34.8852,-43.7401 -65.8946,-59.3937 -4.5152,-2.2792 -7.6855,-4.6 -7.045,-5.1573 2.5858,-2.2498 15.6396,-6.9286 28.0316,-10.0472 12.3918,-3.1185 31.6338,-6.031 53.4662,-8.0929 5.3166,-0.5021 9.6666,-1.5154 9.6666,-2.2518 0,-3.4999 -4.5957,-18.4296 -7.951,-25.8296 -8.8135,-19.4377 -23.8844,-36.6321 -43.0688,-49.1371 -6.3564,-4.14332 -11.8347,-7.98242 -12.1739,-8.53122 -0.8369,-1.3541 11.5113,-15.6989 20.5271,-23.8461 19.1385,-17.2948 30.0612,-24.8312 49.3333,-34.0385 10.6333,-5.0801 19.6333,-9.549 20,-9.9308 1.1041,-1.1497 -14.8532,-15.0792 -22,-19.2042 -8.7661,-5.0597 -14.0327,-4.9544 -33.56,0.671 -26.0035,7.4909 -49.7776,17.9509 -66.44,29.2319 -8.2303,5.5721 -22.2166,18.8091 -29.8221,28.2241 -3.7706,4.6677 -4.0642,4.8271 -2.3523,1.2774 10.9759,-22.7595 44.7371,-47.3366 93.4648,-68.0396 7.3097,-3.1057 13.5125,-6.3132 13.7841,-7.1279 0.6892,-2.0676 -7.277,-5.1434 -18.1498,-7.0079 -7.8727,-1.35 -10.7596,-1.2353 -20.1912,0.8025 -31.2052,6.7423 -57.4903,19.234 -84.0668,39.9518 l -8.6667,6.7561 4.7977,-5.9728 c 15.2448,-18.9789 51.3087,-40.26 87.1951,-51.4533 3.7639,-1.174 4.0776,-1.8172 5.4719,-11.2158 0.8134,-5.4838 2.5414,-16.8705 3.8398,-25.3038 4.3455,-28.223 1.1452,-57.97093 -8.5325,-79.31467 -12.8136,-28.25973 -37.2293,-51.78871 -71.8131,-69.2048 -5.2994,-2.67059 -9.6309,-4.54677 -9.6309,-4.17381 0,3.45726 -8.7368,58.76475 -10.7453,68.02209 -10.2905,47.43009 -31.8492,84.25939 -68.4314,116.90319 -7.6615,6.8366 -13.7819,12.5791 -13.601,12.7613 0.7188,0.7237 18.2187,-6.9698 31.5754,-13.8815 33.3977,-17.2823 61.2137,-45.4031 75.9418,-76.774 4.9936,-10.63615 3.6411,-3.8733 -2.1148,10.5754 -4.6807,11.7494 -15.9795,30.0755 -24.0517,39.0103 -2.7461,3.0397 -9.4604,9.1206 -14.9205,13.513 -30.0972,24.212 -59.661,36.2445 -111.6525,45.4429 -14.797,2.6179 -21.9661,2.8762 -95.3467,3.4353 -51.32943,0.3911 -87.58105,0.071 -102.66672,-0.9081 -12.82597,-0.8319 -41.91994,-1.8683 -64.65328,-2.303 -33.47381,-0.6401 -45.41436,-0.3667 -62.79553,1.4379 -45.00445,4.6728 -72.97784,14.6953 -93.37185,33.454 -24.67857,22.6997 -10.56139,62.5724 24.23987,68.46332 10.52048,1.7808 19.04828,2.4937 58.59417,4.8982 67.29961,4.092 102.76261,11.0449 130.00001,25.488 14.14111,7.4985 22.67472,14.0419 34.37012,26.3541 13.37448,14.0798 16.67458,22.472 17.87788,45.463 l 0.4187,8 -7.3334,1.0851 c -10.60455,1.5691 -223.99998,2.7449 -223.99998,1.2342 0,-0.6768 -2.55,-1.9918 -5.66666,-2.9222 -3.11667,-0.9305 -5.96667,-2.1168 -6.33334,-2.6364 -0.36666,-0.5195 -3.66666,-2.361 -7.33333,-4.0923 -3.66667,-1.7313 -8.90475,-4.5399 -11.64017,-6.2414 -2.73543,-1.7015 -5.61162,-3.0936 -6.39152,-3.0936 -0.77992,0 -2.9735,-1.4423 -4.87463,-3.2052 -1.90113,-1.7628 -5.02495,-3.9842 -6.9418,-4.9363 -1.91687,-0.9522 -4.98521,-2.9977 -6.81855,-4.5457 -1.83333,-1.5479 -4.61362,-3.6765 -6.17842,-4.7303 -1.56482,-1.0537 -7.42639,-5.0659 -13.02574,-8.9159 -5.59934,-3.85 -10.73485,-7 -11.41222,-7 -1.92806,0 -17.17068,-14.5619 -18.00968,-17.2054 -0.41331,-1.3022 -2.24151,-3.165 -4.0627,-4.1397 -1.82118,-0.9747 -3.31124,-2.284 -3.31124,-2.9095 0,-0.6256 -3.27178,-4.3574 -7.27064,-8.2928 -3.99884,-3.9354 -7.69122,-8.8722 -8.20529,-10.9706 -0.51407,-2.0984 -1.33079,-4.1153 -1.81496,-4.482 -0.48416,-0.3666 -3.96183,-5.4666 -7.72815,-11.3333 -3.76632,-5.86672 -7.7778,-11.61702 -8.9144,-12.77852 -2.28278,-2.3328 -2.76513,-7.299 -0.82536,-8.4979 0.68267,-0.4219 1.62638,-0.1439 2.09714,0.6178 1.18625,1.9194 15.81706,9.1783 24.56776,12.189 3.98826,1.3722 14.65316,3.4819 23.69977,4.68832 13.43755,1.792 17.74267,1.9039 23.51923,0.6111 12.72922,-2.84862 12.64454,-2.68082 11.85074,-23.48342 -1.12424,-29.4625 3.08187,-39.8664 21.32331,-52.7438 23.54477,-16.6213 51.18904,-26.6702 86.18571,-31.3292 17.9789,-2.3935 69.05345,-2.5316 137.03609,-0.3706 51.08773,1.6239 103.90446,0.5811 151.81246,-2.9973 76.7655,-5.7339 115.1832,-29.1217 152.0097,-92.5399 5.0679,-8.7273 8.503,-16.01189 7.839,-16.62345 -1.4837,-1.36638 -25.3014,-8.37851 -41.1821,-12.12431 -10.8988,-2.57075 -16.6492,-2.87251 -62.6666,-3.28848 -27.8667,-0.25191 -57.283,-1.10265 -65.3695,-1.89053 -10.2707,-1.00071 -18.912,-1.01799 -28.6666,-0.0573 -7.6802,0.75636 -21.4639,1.93302 -30.63064,2.61478 -12.43439,0.9248 -19.88319,2.27818 -29.33329,5.32958 -29.25589,9.44659 -47.81234,13.34423 -92.22797,19.37171 -33.19028,4.5042 -83.12956,14.4143 -161.64293,32.0771 -110.838,24.9346 -189.93742,50.5548 -258.79581,83.8234 -17.92439,8.6601 -49.07227,29.4976 -80.51209,53.8615 -50.20162,38.903 -80.58766,75.94672 -98.60302,120.20712 -10.3307,25.3806 -14.88489,49.0525 -14.88489,77.3693 v 17.1766 l 4.80892,0.9021 c 6.56673,1.2319 17.21923,-0.037 33.85775,-4.0348 13.7708,-3.3084 37.34464,-6.046 52.25464,-6.0684 4.17338,0 7.9096,-0.5319 8.3027,-1.1679 0.3931,-0.6361 2.7823,-9.1861 5.30932,-19 14.85907,-57.7066 37.24802,-93.2314 70.46667,-111.8103 l 7.66667,-4.2878 -0.0143,11.7939 c -0.0155,12.8057 -2.30551,36.0177 -6.75407,68.4606 -2.60476,18.9963 -4.29629,60.0348 -2.54697,61.7926 0.37657,0.3784 11.21296,1.6076 24.08084,2.7316 12.86789,1.124 47.35979,5.0517 76.64865,8.7281 72.15751,9.0576 89.37171,10.6375 130.20148,11.9495 30.17311,0.9696 36.2897,1.5242 43.95178,3.9852 14.19141,4.5582 18.1334,11.1037 19.35992,32.1464 1.4463,24.8134 -7.11303,43.1974 -32.18523,69.1282 -25.02128,25.8783 -56.39575,41.2998 -98.07545,48.2068 -36.21323,6.0011 -66.26518,7.8646 -150.66667,9.3423 -71.02573,1.2436 -86.92873,2.24 -99.89751,6.2588 -13.42329,4.1597 -22.89098,14.5651 -24.98309,27.4572 l -0.80164,4.94 h 4.91664 c 3.12076,0 8.70036,-1.9481 15.27535,-5.3333 7.68668,-3.9576 11.94748,-5.3334 16.51801,-5.3334 7.78041,0 27.66917,2.918 104.30557,15.3034 79.9253,12.9168 108.43683,16.9626 120.66667,17.1229 12.8598,0.1685 24.64732,-3.46 41.33919,-12.7253 14.26182,-7.9164 30.86486,-15.6844 40.3477,-18.8772 18.68482,-6.291 47.59728,-6.1212 83.43528,0.4901 11.98387,2.2107 22.88288,4.0195 24.22003,4.0195 6.51719,0 20.4861,-23.1268 29.94906,-49.5834 l 4.44119,-12.4166 -0.64611,9.3333 c -1.22926,17.7572 -7.50965,35.8728 -18.80805,54.2512 l -5.4824,8.918 4.26872,1.3572 c 13.411,4.2639 41.05136,10.2516 68.11781,14.7563 8.71699,1.4506 16.21699,3.0388 16.66667,3.5292 1.39372,1.5196 -37.15072,-0.6538 -50.51575,-2.8483 -15.88449,-2.6083 -26.99736,-5.4497 -54.32806,-13.8909 -26.2158,-8.0968 -45.03801,-12.8354 -55.40389,-13.948 -17.16748,-1.8428 -45.76842,4.2386 -64.69991,13.7573 -25.58956,12.8661 -35.75775,27.4195 -40.77905,58.3657 -3.09176,19.0546 -3.351,21.7523 -2.09024,21.7523 0.65884,0 8.4573,-4.1591 17.32994,-9.2423 39.15619,-22.433 70.85056,-30.8226 109.30454,-28.9332 9.16666,0.4504 30.46666,2.6808 47.33333,4.9564 39.96849,5.3926 54.36708,5.0707 76.2205,-1.7037 20.056,-6.2172 27.65431,-11.0384 45.82602,-29.0772 34.94968,-34.6939 54.03574,-68.986 60.85204,-109.3333 0.9355,-5.5376 1.0759,-5.0704 1.8217,6.0616 0.9665,14.4273 3.3472,19.2497 11.9383,24.1826 12.4356,7.1406 16.9696,14.2019 20.61429,32.1048 3.6124,17.7447 2.9841,39.3014 -1.746,59.9059 -3.06979,13.3719 -12.78939,45.8545 -17.17909,57.4117 -1.0656,2.8056 1.1148,1.8822 7.0621,-2.9913 z"
         transform="translate(-189.12797,-662.08939)"
         id="path690" />
    </g>
    <g
       id="layer7"
       inkscape:label="Lips"
       style="display:inline;fill:#d35f5f">
      <path
         style="fill:#d35f5f;stroke-width:1.33333"
         d="m 243.27211,1254.7705 c 3.09533,-1.0921 9.62077,-4.7893 14.50097,-8.2159 24.91771,-17.4961 30.22397,-20.9254 38.02836,-24.5776 9.92356,-4.6437 29.88981,-9.8497 46.84472,-12.2141 l 12,-1.6735 1.55204,-12 c 0.85363,-6.6 1.60363,-13.65 1.66667,-15.6666 l 0.11462,-3.6667 h -12.79056 c -28.77934,0 -60.20333,10.3132 -89.30026,29.3079 -10.61204,6.9276 -14.42458,8.0801 -15.70355,4.7472 -0.41048,-1.0698 -0.38511,-9.1292 0.0564,-17.91 0.91979,-18.2936 -0.26288,-22.9935 -6.42864,-25.5475 -4.60589,-1.9077 -4.836,-1.694 -13.13175,12.2035 -8.20652,13.748 -12.3589,27.6054 -12.54501,41.8656 -0.23584,18.0709 4.36575,27.6386 15.78823,32.827 6.57682,2.9875 11.94648,3.132 19.34777,0.5207 z"
         transform="translate(-189.12797,-662.08939)"
         id="path716" />
      <path
         style="fill:#d35f5f;stroke-width:1.33333"
         d="m 285.51681,1401.4366 c 8.09215,-2.403 15.5697,-9.6433 26.84444,-25.9925 4.29055,-6.2216 9.64731,-12.3903 11.90391,-13.7081 6.03628,-3.5255 27.68413,-8.6727 43.14887,-10.2596 7.43306,-0.7628 31.3011,-1.41 53.04006,-1.4383 47.30815,-0.061 108.82744,-1.9467 128.19207,-3.9285 36.75772,-3.7619 62.53789,-9.8091 82.29739,-19.304 31.59105,-15.1803 66.50009,-42.4415 76.96108,-60.1004 5.51437,-9.3087 8.97412,-21.7282 9.08096,-32.598 0.14394,-14.643 -3.87223,-20.9803 -17.02271,-26.8616 -5.85553,-2.6187 -9.91571,-3.0954 -33.98339,-3.989 -50.94066,-1.8914 -66.41453,-3.108 -150,-11.7929 -68.73782,-7.1423 -83.36577,-8.4529 -84.26802,-7.5507 -0.96844,0.9684 3.64498,30.046 4.88908,30.815 0.50402,0.3114 20.37048,1.1982 44.14768,1.9708 93.16389,3.0265 137.24596,7.7241 162.86758,17.3556 11.59554,4.3589 13.3669,7.4078 12.79976,22.0309 -0.59589,15.3645 -4.51306,24.2944 -15.45782,35.2392 -9.85938,9.8593 -28.08174,19.0301 -43.64492,21.9651 -20.1817,3.806 -57.81106,5.2125 -148.66667,5.557 -100.29948,0.3806 -127.72695,1.7522 -160.66667,8.0348 -15.35942,2.9296 -35.65674,9.3632 -39.7853,12.6107 -9.36711,7.3681 -13.46996,21.9704 -9.75943,34.7341 6.58407,22.6484 25.54459,33.6064 47.08205,27.2104 z"
         transform="translate(-189.12797,-662.08939)"
         id="path696" />
    </g>
    <g
       id="layer5"
       inkscape:label="Teeth">
      <path
         style="fill:#e9c6af;stroke-width:1.33333"
         d="m 446.02139,1283.7561 c 8.98729,-14.0653 24.98685,-50.6219 22.94802,-52.4327 -0.54445,-0.4836 -7.58992,-1.5852 -15.65658,-2.448 -8.06667,-0.8626 -16.01667,-1.854 -17.66667,-2.2026 -2.79008,-0.5898 -3,-0.1758 -3,5.9166 0,16.6102 5.7858,57.5 8.13607,57.5 0.6558,0 3.01342,-2.85 5.23916,-6.3333 z"
         transform="translate(-189.12797,-662.08939)"
         id="path714" />
      <path
         style="fill:#e9c6af;stroke-width:1.33333"
         d="m 610.6204,1284.2978 c 5.9814,-19.6098 11.16011,-44.1209 9.5136,-45.0284 -1.47351,-0.812 -26.41641,-3.8466 -31.61732,-3.8466 -2.45213,0 -2.6224,0.5826 -1.85069,6.3333 1.7096,12.74 6.3068,27.9733 12.27258,40.6667 3.36046,7.15 6.60011,13 7.19923,13 0.59912,0 2.61629,-5.0062 4.4826,-11.125 z"
         transform="translate(-189.12797,-662.08939)"
         id="path712" />
      <path
         style="fill:#e9c6af;stroke-width:1.33333"
         d="m 513.22192,1270.0894 c 3.26096,-7.7 7.40243,-19.1 9.20328,-25.3333 l 3.27425,-11.3333 -8.85997,-0.8344 c -13.23215,-1.2462 -40.19332,-1.3186 -40.19332,-0.108 0,3.4918 17.54665,59.409 20.34125,64.8229 1.15606,2.2396 1.85782,1.5955 5.81018,-5.3333 2.47242,-4.3343 7.16337,-14.1806 10.42433,-21.8806 z"
         transform="translate(-189.12797,-662.08939)"
         id="path710" />
      <path
         style="fill:#e9c6af;stroke-width:1.33333"
         d="m 584.31283,1299.1906 c 7.51666,-0.8696 13.66666,-2.1081 13.66666,-2.7525 0,-3.3906 -18.02717,-46.1879 -19.03208,-45.183 -0.64348,0.6435 -4.06197,8.9534 -7.59664,18.4664 -6.54705,17.6204 -10.48106,26.3695 -11.43025,25.4203 -0.53387,-0.5339 5.92867,-26.5177 11.95121,-48.0521 l 3.26283,-11.6667 h -19.2442 c -22.46,0 -20.65813,-2.1289 -16.48801,19.4803 3.58065,18.5545 8.60116,34.297 12.29837,38.5634 2.95412,3.4088 11.28865,7.115 16.27877,7.2387 1.46667,0.036 8.81667,-0.6453 16.33334,-1.5148 z"
         transform="translate(-189.12797,-662.08939)"
         id="path708" />
      <path
         style="fill:#e9c6af;stroke-width:1.33333"
         d="m 547.31283,1302.4014 c 0,-0.5619 -2.06766,-9.2311 -4.5948,-19.2651 -4.34659,-17.258 -11.47143,-37.5928 -14.10844,-40.2665 -0.72051,-0.7305 -2.34014,1.4088 -4.03786,5.3333 -3.61929,8.3668 -17.2589,49.3664 -17.2589,51.879 0,1.4542 2.57941,2.005 11,2.3489 23.53354,0.9611 29,0.9555 29,-0.029 z"
         transform="translate(-189.12797,-662.08939)"
         id="path706" />
      <path
         style="fill:#e9c6af;stroke-width:1.33333"
         d="m 493.97949,1302.3604 c 0,-3.8172 -16.2896,-47.8008 -21.26844,-57.427 l -2.5054,-4.844 -4.25688,9.3334 c -5.01258,10.9902 -17.30261,47.4384 -17.30261,51.3138 0,2.5874 0.83424,2.6862 22.66667,2.6862 12.46666,0 22.66666,-0.4782 22.66666,-1.0624 z"
         transform="translate(-189.12797,-662.08939)"
         id="path704" />
      <path
         style="fill:#e9c6af;stroke-width:1.33333"
         d="m 434.72717,1301.7561 c -13.28442,-44.4459 -21.18525,-97.7835 -21.18241,-143 10e-4,-23.1244 0.66064,-31.6764 4.96249,-64.3814 2.72844,-20.7432 4.77588,-39.9201 4.54986,-42.6155 l -0.41095,-4.9007 -10.46633,11.9488 c -21.02314,24.0009 -29.99791,40.4685 -38.88779,71.3544 -15.68203,54.4836 -16.10081,112.8256 -1.18267,164.7623 l 1.96314,6.8345 26.28682,1.2756 c 14.45776,0.7017 28.3068,1.3761 30.77567,1.4988 4.06955,0.2024 4.40508,-0.057 3.59217,-2.7768 z"
         transform="translate(-189.12797,-662.08939)"
         id="path702" />
      <path
         style="fill:#e9c6af;stroke-width:1.33333"
         d="m 359.12408,1304.056 c 0.82007,-0.8202 -7.30653,-59.2396 -8.39164,-60.3247 -1.24541,-1.2455 -4.241,3.4129 -11.37655,17.6915 -5.81449,11.635 -16.04306,39.4428 -16.04306,43.6152 0,1.0317 5.17308,1.2004 17.57292,0.5728 9.6651,-0.4892 17.87236,-1.1888 18.23833,-1.5548 z"
         transform="translate(-189.12797,-662.08939)"
         id="path700" />
      <path
         style="fill:#e9c6af;stroke-width:1.33333"
         d="m 323.27696,1281.7224 c 10.136,-21.0184 24.65928,-55.454 23.76499,-56.3483 -0.24362,-0.2436 -10.93232,0.5677 -23.7527,1.8029 l -23.30976,2.2458 -0.42296,12.6666 c -0.65346,19.5696 3.50407,51.5002 8.49335,65.2303 1.04329,2.8711 3.44687,-1.1695 15.22708,-25.5973 z"
         transform="translate(-189.12797,-662.08939)"
         id="path698" />
    </g>
    <g
       id="layer6"
       inkscape:label="Eye">
      <path
         style="fill:#80e5ff;stroke-width:1.33333"
         d="m 929.1728,1100.8093 c 9.6894,-3.6839 11.5887,-13.1703 4.94922,-24.7199 -8.73788,-15.1998 -35.80652,-37.1835 -56.21466,-45.6545 -10.39512,-4.3149 -20.83151,-6.9048 -19.59708,-4.8634 34.27679,56.6862 40.69322,65.3153 54.33589,73.0737 6.37981,3.6281 11.06309,4.2414 16.52663,2.1641 z"
         transform="translate(-189.12797,-662.08939)"
         id="path722" />
      <path
         style="fill:#80e5ff;stroke-width:1.33333"
         d="m 730.56857,1088.4664 c 5.68052,-20.7266 11.11919,-34.9444 16.68479,-43.6177 2.33033,-3.6314 10.21232,-12.338 17.51553,-19.3478 l 13.27859,-12.7451 -63.70067,0.3335 c -79.22444,0.4147 -88.71104,-0.6581 -116.0711,-13.12652 -10.02699,-4.5695 -10.67267,-4.2498 -4.29622,2.12662 0.36667,0.3667 1.81115,2.9167 3.20996,5.6667 1.39882,2.75 3.04882,5 3.66667,5 0.61785,0 1.12337,0.8815 1.12337,1.9589 0,3.6074 5.32238,12.0076 9.68347,15.2833 2.37409,1.7831 8.48661,8.0086 13.58339,13.8344 6.17901,7.0628 13.20797,13.2021 21.09448,18.4245 6.50518,4.3077 12.30329,7.8322 12.88465,7.8322 0.58137,0 2.48887,1.3793 4.23887,3.065 4.41473,4.2526 16.60013,12.935 18.1538,12.935 0.70476,0 2.3927,1.228 3.751,2.7289 1.35828,1.5009 4.60128,3.6508 7.20665,4.7776 2.60536,1.1268 5.63703,2.5878 6.73703,3.2466 10.3636,6.2071 23.65433,11.0372 25.6518,9.3224 0.54181,-0.4652 3.0636,-8.4295 5.60394,-17.6985 z"
         transform="translate(-189.12797,-662.08939)"
         id="path720" />
      <path
         style="fill:#ffff00;stroke-width:1.33333"
         d="m 777.12673,1107.9082 6.1861,-0.8479 0.0232,-6.1521 c 0.0363,-9.6474 3.60846,-24.1309 7.34363,-29.7751 4.66407,-7.0479 10.53523,-10.3659 18.35302,-10.372 15.84097,-0.012 25.59732,11.6968 28.32529,33.995 1.72739,14.1195 1.60707,14 14.09284,14 h 10.87057 l -0.58605,-18.3334 c -0.5174,-16.1852 -0.99211,-19.2199 -4.05147,-25.9002 -4.60566,-10.0567 -12.96893,-18.8812 -22.18229,-23.4058 -6.69675,-3.2886 -8.985,-3.694 -20.8554,-3.694 -12.2222,0 -14.08055,0.354 -22.29969,4.2476 -11.06216,5.2403 -19.00893,13.2169 -25.07944,25.1735 -4.40405,8.6742 -4.64296,9.8711 -5.09132,25.5068 l -0.47043,16.4055 h 4.61767 c 2.53972,0 7.40141,-0.3816 10.80377,-0.8479 z"
         transform="translate(-189.12797,-662.08939)"
         id="path718" />
    </g>
  </g>
</svg>
