<?xml version="1.0" encoding="UTF-8" standalone="no"?>
<!-- Created with Inkscape (http://www.inkscape.org/) -->

<svg
   version="1.1"
   id="svg3214"
   width="508.33179"
   height="388.14658"
   viewBox="0 0 508.33179 388.14657"
   sodipodi:docname="kj3.svg"
   inkscape:version="1.2.2 (732a01da63, 2022-12-09, custom)"
   xmlns:inkscape="http://www.inkscape.org/namespaces/inkscape"
   xmlns:sodipodi="http://sodipodi.sourceforge.net/DTD/sodipodi-0.dtd"
   xmlns="http://www.w3.org/2000/svg"
   xmlns:svg="http://www.w3.org/2000/svg">
  <defs
     id="defs3218" />
  <sodipodi:namedview
     id="namedview3216"
     pagecolor="#ffffff"
     bordercolor="#000000"
     borderopacity="0.25"
     inkscape:showpageshadow="2"
     inkscape:pageopacity="0.0"
     inkscape:pagecheckerboard="0"
     inkscape:deskcolor="#d1d1d1"
     showgrid="false"
     inkscape:zoom="0.95169365"
     inkscape:cx="263.74033"
     inkscape:cy="96.669763"
     inkscape:window-width="1920"
     inkscape:window-height="1031"
     inkscape:window-x="0"
     inkscape:window-y="25"
     inkscape:window-maximized="1"
     inkscape:current-layer="layer3" />
  <g
     inkscape:groupmode="layer"
     id="layer3"
     inkscape:label="Layer 1">
    <path
       id="path3224"
       style="fill:#000000;stroke-width:1.33333"
       d="M 126.68957 102.52208 C 125.45376 102.39549 123.88832 107.45108 122.00988 117.67247 C 120.43063 126.26582 120.19861 130.63607 121.16027 133.73888 C 122.74752 138.86012 124.51172 152.0006 123.61145 152.0006 C 123.25979 152.0006 121.25296 151.10389 119.15246 150.00841 C 115.12245 147.90661 109.32297 147.31067 109.34777 149.0006 C 109.35584 149.5506 112.95585 152.22369 117.34777 154.942 C 121.73969 157.66031 125.3341 160.42599 125.3341 161.08654 C 125.3341 162.31155 112.94813 164.0006 103.96691 164.0006 C 101.17175 164.0006 98.266771 164.8768 97.334101 166.0006 C 96.421184 167.1006 94.396261 168.0138 92.836055 168.0299 C 88.976554 168.06974 79.770358 172.37527 75.865351 175.9674 C 74.105563 177.58618 70.569749 180.22834 68.005976 181.83849 C 65.097783 183.66495 61.771244 187.7423 59.16418 192.68029 C 56.865874 197.03345 53.153162 202.57639 50.912226 204.99669 C 47.162516 209.04653 44.398369 216.13104 41.94543 227.98107 C 41.416361 230.53698 40.231395 233.83569 39.312617 235.3131 C 37.472503 238.27206 35.688345 253.95711 35.472773 269.05724 C 35.347254 277.8495 35.74768 279.43792 39.666133 285.66075 C 42.049464 289.4457 44.000117 293.32144 44.000117 294.27208 C 44.000117 295.22274 44.591079 296.0006 45.31457 296.0006 C 46.038061 296.0006 47.475048 298.01957 48.505976 300.48693 C 49.794841 303.57162 51.569686 305.26848 54.18957 305.92247 C 56.285146 306.44556 59.032742 307.80452 60.295039 308.942 C 64.037852 312.31474 73.010516 313.81435 90.000117 313.90685 C 102.73628 313.97627 106.92673 313.51996 110.53918 311.66466 C 113.03518 310.38275 117.06383 309.33263 119.4923 309.33263 C 122.49705 309.33263 125.36277 308.05468 128.46301 305.33263 C 130.96868 303.13263 134.24127 301.33263 135.73449 301.33263 C 140.24758 301.33263 142.66649 299.86751 144.72473 295.88732 C 146.07425 293.27765 148.31644 291.65859 151.92785 290.68615 C 155.15106 289.81823 157.49097 288.27243 157.99816 286.67443 C 158.452 285.2445 161.18191 282.05594 164.06457 279.58849 C 167.61642 276.54823 170.55317 272.1299 173.17785 265.88341 C 175.30803 260.81382 178.08561 254.66267 179.34973 252.21349 C 182.1995 246.69215 183.34666 219.02749 181.00207 212.36779 C 180.16945 210.0029 179.84728 207.70812 180.28527 207.27013 C 180.72325 206.83214 184.85881 209.51737 189.47473 213.23693 C 194.09065 216.95647 198.34697 220.0006 198.93371 220.0006 C 200.93141 220.0006 200.00762 217.16344 196.51965 212.59044 C 191.81285 206.41953 192.96673 203.55516 199.64855 204.82872 C 211.81249 207.1472 230.51994 204.8077 241.10363 199.64318 C 249.67654 195.45986 243.75067 193.37315 223.22277 193.34825 C 216.56176 193.34018 207.74171 192.65584 203.62316 191.82872 C 196.29268 190.35656 196.15055 190.2425 196.91418 186.42443 C 197.65757 182.70745 197.51446 182.56376 193.84777 183.3463 C 191.73166 183.79791 188.62681 184.44765 186.94738 184.78966 C 182.77994 185.63834 170.66613 183.93072 170.66613 182.49474 C 170.66613 181.85588 171.42776 181.33263 172.35754 181.33263 C 173.2873 181.33263 176.28666 179.81154 179.02355 177.95177 C 183.89959 174.63837 184.00012 174.39805 184.00012 166.0299 C 184.00012 161.33294 184.46699 157.20263 185.03723 156.85021 C 187.57502 155.28177 219.95247 146.47923 232.33605 143.99083 C 299.64805 130.46497 343.24165 144.60662 368.44348 188.14318 C 372.11488 194.48564 372.1376 197.0375 368.48059 192.33263 C 366.51605 189.80518 366.41899 189.87137 361.67785 196.88536 C 360.10865 199.20681 359.9006 199.16093 357.67785 196.01232 C 352.64936 188.88925 346.24468 182.66661 343.94152 182.66661 C 342.61358 182.66661 339.75179 184.81962 337.58215 187.45177 C 334.91875 190.68288 333.3196 191.72216 332.65637 190.64904 C 331.04951 188.04908 318.33268 182.69429 313.73254 182.68029 C 311.21592 182.67261 308.98178 183.53335 308.28527 184.77794 C 307.31009 186.52048 306.19417 186.65665 301.88488 185.56115 C 299.01465 184.8315 292.61613 183.83371 287.66613 183.34435 C 279.61815 182.54875 278.66613 182.70268 278.66613 184.80724 C 278.66613 186.10168 279.96889 188.54842 281.56066 190.24279 C 283.15245 191.93715 284.18262 193.59545 283.84973 193.92833 C 283.51683 194.26122 279.36538 194.71419 274.62316 194.93419 L 266.00012 195.33263 L 266.01965 203.81896 C 266.03823 211.99155 266.22459 212.45923 271.0802 216.53575 C 273.85284 218.86353 275.69415 221.19524 275.17199 221.7174 C 274.64983 222.23956 271.17126 222.67545 267.44348 222.68615 C 257.62541 222.71572 256.49695 223.81841 259.78332 230.15294 C 262.89659 236.15384 268.93265 242.97839 273.10168 245.20958 C 277.53027 247.57968 276.56693 249.33263 270.8341 249.33263 C 258.06747 249.33263 254.10446 252.57717 259.66613 258.47521 C 260.94946 259.83616 263.98673 263.12195 266.41418 265.77794 C 269.03515 268.64567 272.96066 271.18208 276.0802 272.02208 C 284.68496 274.3391 282.14601 276.0006 270.00012 276.0006 C 261.47726 276.0006 258.66613 276.43893 258.66613 277.76818 C 258.66613 281.6344 269.3268 288.4915 280.66613 291.91857 C 295.21639 296.31606 297.25655 298.66661 286.5216 298.66661 C 279.80509 298.66661 279.72379 298.71576 280.60559 302.22911 C 282.04755 307.9744 287.00696 313.2261 295.36145 317.85216 C 299.65574 320.23 303.40596 322.88613 303.69543 323.7545 C 304.55628 326.33705 295.12878 325.62284 289.3341 322.66661 C 282.4112 319.13482 280.00012 319.25048 280.00012 323.11193 C 280.00012 324.82305 279.67064 326.55274 279.2677 326.95568 C 278.86476 327.35862 274.51539 325.67031 269.60168 323.20372 C 264.68796 320.73714 258.92956 318.31957 256.80676 317.83263 C 253.19153 317.00335 253.00102 317.16323 253.8009 320.35021 C 254.27058 322.22155 255.0616 324.81258 255.55871 326.10802 C 256.29978 328.03918 256.00145 328.26402 253.89855 327.35997 C 247.18292 324.47287 237.14163 321.33501 231.98449 320.51036 C 226.47737 319.62974 226.30374 319.70956 226.96887 322.79943 C 227.3479 324.56022 228.07464 326.98681 228.5841 328.192 C 229.41526 330.15829 228.31616 330.30911 217.8927 329.6588 L 206.27746 328.93224 L 207.13293 332.3424 C 207.6036 334.21765 208.35459 336.70747 208.80285 337.8756 C 209.48801 339.66108 208.44054 340.0006 202.22863 340.0006 C 189.7623 340.0006 183.99616 344.14374 190.66613 348.30919 C 194.11981 350.46606 194.02739 351.25544 190.11145 353.03966 C 184.18536 355.73976 172.01098 365.9735 172.00598 368.25841 C 172.00318 369.50029 173.80012 371.57994 176.00012 372.8795 C 178.20011 374.17908 180.00012 375.66401 180.00012 376.18029 C 180.00012 376.69659 177.00077 378.11476 173.3341 379.33263 C 169.66744 380.55049 166.66613 382.28111 166.66613 383.17833 C 166.66613 385.39851 174.36981 392.54997 179.59973 395.18419 C 181.94664 396.36628 186.89665 397.33263 190.59973 397.33263 C 194.3028 397.33263 197.3341 397.88885 197.3341 398.56896 C 197.3341 400.43826 190.98655 405.04614 185.85168 406.90294 C 183.34566 407.80912 181.49801 409.17655 181.74621 409.942 C 183.12825 414.20439 202.12293 417.81197 207.63879 414.85997 C 209.11166 414.07173 210.67175 413.7816 211.10559 414.21544 C 212.47957 415.58942 208.21921 422.30054 203.69348 425.89122 C 200.06112 428.77313 199.66779 429.57023 201.3341 430.67443 C 207.25462 434.59773 217.30838 435.27711 229.3341 432.56505 C 232.62578 431.82271 232.6616 431.90987 232.27355 439.57286 C 232.05741 443.84083 231.20679 448.68179 230.38293 450.33068 C 229.55904 451.97957 229.13904 453.58289 229.44934 453.89318 C 229.75965 454.20349 233.78118 454.80527 238.38684 455.23107 C 245.18229 455.85932 247.74763 455.503 251.99426 453.33654 C 254.87241 451.86821 257.49678 450.66661 257.82629 450.66661 C 258.1558 450.66661 257.6198 453.72205 256.63488 457.45568 C 255.64998 461.1893 255.15085 465.04185 255.52551 466.01818 C 256.75408 469.21973 259.6634 469.1973 262.70324 465.96154 C 264.56187 463.98311 268.4629 462.20488 273.03137 461.25646 C 277.06946 460.41816 282.23921 458.59625 284.51965 457.20568 C 290.0909 453.80842 290.73701 453.98607 289.8009 458.66661 C 289.2223 461.55961 289.50814 462.66684 290.8341 462.66661 C 293.62396 462.66614 305.93216 455.79767 310.54699 451.66661 C 312.79983 449.64995 315.16656 448.0006 315.8048 448.0006 C 317.818 448.0006 333.89838 440.36609 342.47668 435.33849 C 347.00922 432.68204 354.34911 427.487 358.78723 423.79357 C 363.22534 420.10013 367.11994 417.34114 367.44152 417.66271 C 368.08646 418.30766 359.34345 455.10631 354.05676 474.0006 C 352.21006 480.60059 350.69271 487.0493 350.68371 488.33263 C 350.6746 489.61597 351.12175 490.66661 351.67785 490.66661 C 352.83004 490.66661 356.29635 478.02264 364.82043 442.72911 C 368.08866 429.19718 370.99292 417.89647 371.27355 417.61583 C 371.55418 417.3352 376.7811 418.6292 382.89074 420.49083 C 401.40896 426.13341 417.37605 429.46663 429.8634 430.29747 L 441.72863 431.08654 L 440.92785 427.87755 C 440.15903 424.79634 440.43229 424.65159 447.73059 424.29943 C 459.86494 423.71394 477.40383 420.10674 485.09777 416.61388 C 491.95519 413.50079 493.30096 410.66661 487.92199 410.66661 C 486.4986 410.66661 485.3341 410.06596 485.3341 409.33263 C 485.3341 408.59731 488.79481 408.0006 493.0509 408.0006 C 498.42233 408.0006 502.55619 407.08863 506.65051 405.0006 C 513.88141 401.31298 514.61312 399.39831 509.75207 396.8795 C 507.68863 395.81031 504.2949 393.35297 502.21105 391.41857 C 499.12536 388.55417 498.72279 387.53831 500.04113 385.94982 C 500.93143 384.87706 502.53596 384.0006 503.60559 384.0006 C 506.44896 384.0006 524.16438 374.9117 527.66613 371.65685 C 529.31613 370.12318 530.66613 368.25258 530.66613 367.49865 C 530.66613 365.14676 522.26704 357.33263 519.7384 357.33263 C 515.55571 357.33263 517.16774 355.4729 525.47668 350.71349 C 541.30572 341.64656 543.68672 336.02234 533.66613 331.36779 C 530.54947 329.92009 528.00012 328.34389 528.00012 327.86388 C 528.00012 327.38387 529.71924 326.2772 531.82043 325.40685 C 536.01815 323.66811 543.01063 314.08492 542.39074 310.92052 C 542.17566 309.82253 539.72264 307.74481 536.93957 306.30138 C 532.45269 303.97429 532.09219 303.42993 533.75012 301.5045 C 536.07533 298.80415 542.15729 285.82543 543.37902 280.95763 C 544.25639 277.46191 544.09941 277.33263 538.89074 277.33263 C 532.37835 277.33263 531.45497 276.18497 533.93176 271.16271 C 534.97022 269.05698 536.23741 265.63494 536.74816 263.55919 L 537.6759 259.78575 L 531.17199 260.72911 C 527.59433 261.24859 523.65711 262.19694 522.42199 262.83654 C 518.64918 264.79025 518.27269 264.2263 519.14074 257.89318 C 519.60116 254.53405 519.53248 252.01367 518.9884 252.29357 C 518.44433 252.57347 515.00077 254.16095 511.3341 255.82091 C 507.66745 257.48087 503.2214 259.54929 501.4552 260.41857 C 497.39704 262.41588 491.32507 268.04619 490.40246 270.66661 C 489.19268 274.10263 487.86669 271.2451 487.06457 263.47325 C 486.64033 259.36272 485.77733 256.0006 485.1466 256.0006 C 484.51585 256.0006 484.00012 256.57552 484.00012 257.27794 C 484.00012 257.98036 481.45077 260.07597 478.3341 261.93615 C 475.21744 263.7963 470.92019 267.69651 468.78527 270.60411 C 465.06949 275.66473 462.66613 276.50779 462.66613 272.7506 C 462.66613 271.78366 461.80494 270.27869 460.75207 269.4049 C 459.69921 268.53111 458.45439 266.06585 457.98449 263.92638 L 457.12902 260.03575 L 450.58996 267.01818 C 446.99376 270.8583 443.02514 276.2506 441.76965 279.0006 C 439.19815 284.63312 437.90112 285.22401 436.66418 281.32677 C 435.68993 278.25717 429.58914 270.66661 428.09582 270.66661 C 427.54539 270.66661 426.41162 272.16726 425.57629 274.0006 C 423.82376 277.84697 419.09314 278.8162 420.69543 275.0006 C 426.05009 262.24925 426.88954 258.88271 426.35363 252.33458 C 426.03861 248.48543 425.40614 244.96133 424.94738 244.50255 C 424.48861 244.04379 422.24048 245.24203 419.95324 247.16661 C 417.666 249.09119 415.38816 250.66661 414.89074 250.66661 C 414.39332 250.66661 413.99026 246.60177 413.99426 241.63341 C 414.00114 232.35294 410.43115 221.28088 407.46496 221.38341 C 406.65967 221.41124 404.35552 223.81189 402.34582 226.7174 C 398.19382 232.72012 396.00012 233.45219 396.00012 228.83458 C 396.00012 223.08165 387.51458 202.66661 385.12316 202.66661 C 384.53378 202.66661 383.67511 204.16727 383.21496 206.0006 C 382.06136 210.59694 380.39149 210.17259 379.28137 205.0006 C 378.24588 200.17631 369.42017 181.83373 365.06457 175.45372 C 357.19926 163.93273 342.14258 151.31455 329.68957 145.80724 C 314.93208 139.28078 301.36875 137.03235 277.57043 137.16857 C 265.03799 137.24031 250.40018 138.16331 243.06066 139.34435 C 229.22987 141.56995 200.54103 148.31958 191.78527 151.4088 C 184.35342 154.0309 183.66426 153.89892 181.07043 149.34044 C 178.20621 144.30677 176.16339 145.05877 170.93957 153.07482 C 166.12214 160.46725 156.42961 170.20744 155.15637 168.93419 C 153.88133 167.65915 163.34617 153.82238 167.2384 151.27208 C 169.03295 150.09626 172.07917 147.06645 174.00793 144.53771 L 177.51574 139.94005 L 171.75793 140.76232 C 168.59122 141.21501 163.36381 142.54333 160.1427 143.71349 L 154.28723 145.84044 L 151.36145 142.17052 C 148.29863 138.32937 142.62926 123.68113 142.65246 119.66661 C 142.67327 116.06674 140.15825 116.90694 139.17395 120.82872 C 138.27742 124.40076 139.39694 145.98077 140.85754 153.2838 C 142.10443 159.51824 139.22884 158.13806 137.4884 151.66661 C 136.65019 148.54995 135.43021 142.02924 134.77551 137.17638 C 134.1208 132.32351 132.71016 126.62416 131.64074 124.51036 C 130.57132 122.39657 129.36698 116.86843 128.96496 112.22716 C 128.41283 105.85292 127.65075 102.62054 126.68957 102.52208 z M 320.44934 344.54943 C 321.40797 344.67312 326.4704 348.60771 332.20715 353.7174 C 344.32802 364.51335 354.53298 378.13002 358.6798 389.04357 C 360.13345 392.86927 360.85525 396.0006 360.28527 396.0006 C 358.99458 396.0006 345.28507 381.84937 342.19934 377.33263 C 340.94684 375.49929 336.56589 368.89994 332.46496 362.66661 C 328.36401 356.43329 323.78022 349.9856 322.27746 348.33849 C 320.77472 346.69138 319.89005 344.99739 320.31262 344.57482 C 320.33903 344.54841 320.38543 344.54118 320.44934 344.54943 z "
       transform="translate(-35.453242,-102.52013)" />
    <path
       id="path3301"
       style="display:inline;fill:#008000;stroke-width:1.33333"
       d="M 314.04895 184.53966 C 312.90255 184.535 311.96463 184.80854 311.28137 185.3756 C 310.20974 186.26496 309.3341 187.82048 309.3341 188.83068 C 309.3341 191.15506 307.49622 191.1556 302.93371 188.83458 C 292.38611 183.47037 289.83151 185.36481 299.94934 191.04747 C 308.94661 196.10076 323.14327 207.87234 331.94934 217.58068 L 339.23254 225.60997 L 342.13488 222.23497 C 343.73126 220.37907 346.08619 216.11631 347.3673 212.76232 L 347.3673 212.76036 C 349.41927 207.38706 349.4963 205.71354 348.00207 198.67247 C 347.06947 194.27785 345.48748 189.62817 344.4884 188.34044 C 342.78802 186.14878 342.46779 186.22831 339.47668 189.57677 C 337.71923 191.5442 336.03171 193.9078 335.72473 194.82872 C 335.35555 195.93628 333.01594 194.86133 328.81652 191.6549 C 322.81036 187.06884 317.48813 184.55363 314.04895 184.53966 z M 283.4259 186.13146 C 282.26926 186.16603 282.85682 187.36471 285.10559 189.75841 C 289.73884 194.69028 288.80675 196.0006 280.66613 196.0006 C 276.6328 196.0006 273.3341 196.54977 273.3341 197.2213 C 273.3341 197.89282 281.95411 202.9303 292.49035 208.41661 C 303.02661 213.90295 317.57727 222.30556 324.82434 227.08849 C 332.07141 231.8714 338.49053 235.83397 339.08996 235.89318 C 339.68937 235.95238 339.75826 234.6506 339.24426 233.0006 C 335.95924 222.4552 306.17185 195.6873 289.3302 188.14708 C 286.27986 186.7814 284.32551 186.10457 283.4259 186.13146 z M 349.16613 190.69786 C 348.96684 190.69649 348.79363 190.76178 348.65637 190.89904 C 348.31995 191.23544 348.63481 193.56547 349.35559 196.07872 C 352.35182 206.52599 350.61238 216.6927 344.63293 223.67833 L 340.2423 228.80724 L 344.97668 243.06896 C 347.58039 250.91385 350.07553 257.32367 350.5216 257.31115 C 350.96767 257.29915 352.68064 254.14864 354.32629 250.31115 C 358.39219 240.82987 362.47497 224.2432 363.91809 211.34435 C 365.17684 200.09332 364.94016 198.5254 362.37707 201.08849 C 359.69457 203.77099 357.54906 202.85641 355.27355 198.06115 C 353.32052 193.94542 350.56118 190.70745 349.16613 190.69786 z M 372.09973 197.33263 C 371.5265 197.33263 371.86887 200.46319 372.86145 204.28966 C 373.85402 208.11614 374.66613 212.31679 374.66613 213.62365 C 374.66613 216.3995 377.10416 216.81804 378.10363 214.21349 C 378.9032 212.12984 373.64034 197.33263 372.09973 197.33263 z M 367.80871 198.61193 C 367.68077 198.60945 367.56072 198.66266 367.44934 198.77404 C 367.06649 199.15688 366.12227 205.13972 365.35168 212.06896 C 363.59791 227.83941 359.50482 244.5259 354.78332 255.1549 C 351.3724 262.83348 351.25874 263.69991 352.90832 269.33263 C 356.47551 281.51322 356.70694 281.5074 364.51184 268.98497 C 375.74453 250.96285 383.14224 231.94273 384.2052 218.35802 C 384.68131 212.27324 383.58162 212.04178 379.16418 217.29161 C 375.04526 222.18667 373.3341 222.41287 373.3341 218.06505 C 373.3341 210.91698 369.72779 198.6491 367.80871 198.61193 z M 268.37902 199.92247 C 267.70166 199.90298 267.35137 200.13714 267.18566 200.56896 C 265.35246 205.34621 269.63651 212.49576 277.31848 217.48302 C 282.36727 220.76079 278.98049 224.0006 270.50402 224.0006 C 266.92715 224.0006 264.00012 224.51592 264.00012 225.14708 C 264.00012 225.77825 267.44947 228.1193 271.66613 230.34825 C 275.88279 232.57721 283.5328 236.61703 288.66613 239.32677 C 319.19135 255.44013 348.00012 266.09757 348.00012 261.27599 C 348.00012 260.51091 346.94946 256.21872 345.66613 251.73888 C 343.68561 244.82533 342.36433 242.82333 336.92004 238.49474 C 327.52483 231.02491 309.1716 219.94528 287.27551 208.52404 C 275.39965 202.32944 270.41111 199.98095 268.37902 199.92247 z M 387.81066 213.33263 C 386.64395 213.33263 386.38823 214.36581 384.09387 228.28575 C 382.22839 239.60357 375.40145 255.84992 365.94543 271.47911 C 358.78834 283.30856 358.6206 283.81227 359.91027 289.49083 C 362.87587 302.54858 365.3341 316.29117 365.3341 319.81505 C 365.3341 321.872 365.71648 323.93767 366.18371 324.4049 C 367.5639 325.78506 373.52603 320.87451 388.94152 305.66466 C 405.86906 288.96294 419.00137 273.15585 422.67785 265.05529 C 425.14812 259.61246 426.20533 250.65111 424.57043 249.01622 C 424.15113 248.59691 420.18595 250.30047 415.75793 252.80333 C 409.6064 256.28038 407.93106 256.80124 408.66027 255.01036 C 413.14714 243.99124 413.62835 241.14616 411.98645 235.28185 C 409.55889 226.61146 407.48754 225.48508 403.24426 230.52794 C 397.95169 236.81782 395.58284 235.99553 393.52746 227.1549 C 391.51357 218.49265 389.37862 213.33263 387.81066 213.33263 z M 263.15051 229.73888 C 262.88266 230.00673 264.81474 232.98589 267.44348 236.35997 C 270.488 240.26776 274.35773 243.37354 278.10559 244.91466 C 281.34159 246.2453 283.99151 247.71386 283.99426 248.17833 C 284.00226 249.52411 278.52451 250.6293 271.74621 250.64904 C 266.2001 250.66514 262.59106 252.36889 264.35949 254.13732 C 266.25581 256.03364 327.59107 277.55147 342.00012 281.3756 C 352.97317 284.28781 353.00426 284.29321 353.76379 283.0006 C 354.54946 281.66348 350.94789 267.94533 349.28527 265.942 C 348.56226 265.07085 345.25363 263.98521 341.93176 263.5299 C 332.98934 262.3042 311.56814 253.51889 286.15246 240.65099 C 273.76951 234.38152 263.41836 229.47103 263.15051 229.73888 z M 262.70715 256.91466 C 261.37258 258.11038 271.70489 266.34917 279.00012 269.90685 C 290.51402 275.52185 288.94201 277.33263 272.55676 277.33263 C 267.11675 277.33263 262.66613 277.87106 262.66613 278.52794 C 262.66613 280.6181 275.06411 287.7021 282.66613 289.95568 C 292.20904 292.78463 299.40323 296.32356 299.01965 298.0006 C 298.85191 298.73393 296.30382 299.51728 293.35754 299.74279 C 290.41126 299.96828 288.00012 300.6326 288.00012 301.2174 C 288.00012 302.58686 309.7885 312.71476 321.94934 316.99865 C 333.45909 321.0532 360.32318 327.9567 361.57629 327.18224 C 362.07938 326.87132 362.192 324.37973 361.82629 321.64318 C 361.4606 318.9066 360.32711 312.46595 359.30676 307.33263 C 358.28642 302.19931 357.1832 296.2006 356.85559 294.0006 C 355.76345 286.66678 354.98328 286.04633 343.64465 283.5006 C 331.53134 280.78092 302.32593 271.20275 278.6466 262.18419 C 270.22478 258.97665 263.05183 256.60585 262.70715 256.91466 z M 515.57238 258.8795 C 514.81028 258.98097 513.75719 259.71414 512.27746 261.0006 C 503.56136 268.57822 496.96717 284.90173 499.52355 292.57091 L 500.72277 296.17052 L 503.7384 293.08458 C 505.39601 291.38753 510.10951 286.24995 514.21301 281.66661 C 521.10088 273.97337 524.00012 271.8024 524.00012 274.33849 C 524.00012 274.89125 520.85011 278.65561 517.00012 282.70372 C 506.6179 293.62018 503.82672 298.66661 508.17199 298.66661 C 508.7556 298.66661 512.40581 297.47867 516.28332 296.02599 C 522.9804 293.51698 537.3341 282.51948 537.3341 279.89708 C 537.3341 279.22061 535.53411 278.66661 533.3341 278.66661 C 528.6531 278.66661 528.36132 277.10948 531.8302 270.63732 C 535.58259 263.63617 533.00775 262.04304 524.54895 266.13146 L 518.00012 269.29747 L 517.58996 263.98107 C 517.30546 260.29284 516.84255 258.71039 515.57238 258.8795 z M 506.54113 260.55919 C 505.96246 260.61597 503.462 262.07775 500.4884 264.12365 C 496.56407 266.82365 493.52267 270.24669 492.15441 273.50646 C 490.9695 276.3294 489.60978 278.64549 489.13293 278.65294 C 488.65607 278.65994 487.54574 275.66726 486.66613 272.0006 C 485.78651 268.33393 484.60593 265.33263 484.04309 265.33263 C 483.48025 265.33263 481.09427 270.58394 478.74035 277.0006 C 476.38642 283.41725 473.90403 290.16726 473.22277 292.0006 C 472.54153 293.83393 471.42946 299.53329 470.75207 304.66661 C 470.07467 309.79995 469.08614 316.93014 468.5548 320.51232 C 467.76282 325.85173 467.92595 326.87348 469.46105 326.18029 C 470.49094 325.71525 472.38279 324.96499 473.66613 324.51232 C 474.94946 324.05965 476.00012 322.91767 476.00012 321.97521 C 476.00012 321.03276 477.85245 319.08963 480.11535 317.65685 C 482.37827 316.22408 484.94521 313.61588 485.82043 311.85997 C 486.69564 310.10408 489.0774 307.86746 491.1134 306.89122 C 496.01931 304.53891 497.51418 300.17411 497.83605 287.27208 C 498.06897 277.93521 498.65871 275.562 502.38488 268.95958 C 504.73949 264.78746 506.66613 261.03665 506.66613 260.62365 C 506.66613 260.57202 506.6238 260.55108 506.54113 260.55919 z M 480.43371 263.33263 L 475.88293 266.7545 C 473.38037 268.63665 470.13279 272.66634 468.66613 275.70763 C 465.59256 282.08098 463.32903 282.82209 462.0841 277.86193 C 461.03474 273.6809 457.46595 268.0006 455.88879 268.0006 C 454.54987 268.0006 448.86832 286.16979 446.20715 298.95958 C 445.05926 304.47648 444.72187 309.98539 445.32824 313.30138 C 445.8698 316.26298 445.85615 325.43192 445.29895 333.67638 C 444.74167 341.92083 444.59317 349.17573 444.96887 349.79747 C 445.34455 350.41922 448.74984 347.86791 452.53527 344.1295 C 456.32068 340.3911 460.44882 337.33263 461.7091 337.33263 C 463.08839 337.33263 464.00012 336.30255 464.00012 334.74474 C 464.00012 333.32135 464.58266 331.79635 465.29504 331.35607 C 466.00743 330.91579 466.54055 325.17431 466.47863 318.5963 C 466.41673 312.0183 466.96293 305.89329 467.69348 304.98497 C 468.42403 304.07665 469.65752 300.33328 470.43371 296.66661 C 471.20991 292.99996 473.43336 285.50059 475.37512 280.0006 C 477.3169 274.5006 479.24979 268.49994 479.67004 266.66661 L 480.43371 263.33263 z M 449.96887 272.36583 C 448.4535 272.57181 442.7183 280.78852 441.2091 285.11779 C 440.40103 287.43583 439.21445 289.33263 438.57434 289.33263 C 437.93423 289.33263 435.8496 286.03392 433.94152 282.0006 C 430.05984 273.79537 428.61471 272.953 427.63684 278.33263 C 427.27025 280.3493 425.67771 287.69996 424.09973 294.66661 C 419.25696 316.04702 420.00709 331.45026 427.11926 356.66661 C 429.62835 365.56266 432.97713 366.50741 436.41809 359.29161 C 437.65281 356.70237 439.47071 354.27441 440.4591 353.89513 C 441.88298 353.34873 442.16009 349.17704 441.78723 333.80529 C 441.30797 314.04644 443.19947 299.50662 448.76574 280.19005 C 449.89788 276.26125 450.54902 272.77215 450.21301 272.43615 C 450.15201 272.37514 450.06989 272.3521 449.96887 272.36583 z M 422.01184 280.1256 C 418.87221 280.33991 412.87702 283.79326 410.75207 287.07482 C 409.23527 289.41722 406.21491 293.73329 404.04113 296.66661 C 401.57507 299.99436 400.07268 303.66156 400.04504 306.41857 C 400.00314 310.59174 399.7591 310.81395 395.67395 310.41857 C 391.35695 310.00076 391.34399 310.01752 388.9884 319.33263 C 385.60663 332.70582 385.68139 342.81247 389.25402 355.33263 C 391.56274 363.42342 392.34274 369.78264 392.48254 381.66271 C 392.58387 390.27701 393.02555 397.32636 393.46301 397.32872 C 393.90047 397.33172 398.34537 393.88328 403.34191 389.66661 C 408.33844 385.44995 412.97075 381.1006 413.63488 380.0006 C 414.49272 378.57975 413.11429 374.98405 408.87707 367.58263 C 401.61872 354.90405 397.38185 339.8968 396.66809 324.33654 L 396.13293 312.66661 L 397.41418 324.0006 C 399.09848 338.89778 401.6599 347.66724 408.18762 360.89708 C 412.89989 370.44753 418.02716 377.5448 419.00793 375.87365 C 419.18677 375.56893 421.03818 373.43327 423.12121 371.12755 L 426.90832 366.93615 L 424.22863 359.13536 C 417.60671 339.85885 415.36739 315.96759 418.81066 301.33263 C 419.58708 298.03263 420.4565 293.53263 420.74426 291.33263 C 421.03204 289.13263 421.98299 285.98348 422.85754 284.33458 C 423.73209 282.68569 424.08746 280.97662 423.6466 280.53575 C 423.30908 280.19824 422.73636 280.07614 422.01184 280.1256 z M 537.81262 285.97716 C 536.88547 285.97026 535.17273 286.95313 532.67395 289.14708 C 526.11185 294.90868 519.12659 298.244 511.30285 299.35021 C 503.6028 300.43895 501.63868 301.55645 492.81457 309.86388 C 489.22945 313.23909 485.78007 316.0006 485.14855 316.0006 C 484.51704 316.0006 484.00012 316.59256 484.00012 317.317 C 484.00012 318.04144 481.60022 320.8921 478.66809 323.65099 C 475.73597 326.40987 473.33726 329.11661 473.33605 329.66661 C 473.33205 331.27467 482.02216 330.82281 492.38879 328.67638 C 508.29815 325.38234 524.94838 319.56405 535.84387 313.48888 L 539.0216 311.71544 L 535.17785 308.57286 C 533.06364 306.84393 530.58279 305.40783 529.66613 305.38146 C 527.25243 305.31196 527.50714 304.66841 532.56848 298.03771 C 538.09456 290.79815 539.85235 285.99235 537.81262 285.97716 z M 397.72082 302.96935 C 397.03927 302.94453 396.03168 303.39678 395.01574 304.41271 C 392.93716 306.49131 392.93353 306.66661 394.96887 306.66661 C 396.18274 306.66661 397.57142 306.02686 398.0548 305.24474 C 398.93428 303.82173 398.5971 303.00126 397.72082 302.96935 z M 285.60168 304.71544 C 285.53244 304.72159 285.48403 304.73739 285.45715 304.76427 C 284.28225 305.93915 293.17929 313.35944 302.4552 318.942 C 311.19727 324.2033 312.75302 326.66661 307.3341 326.66661 C 305.50076 326.66661 304.00012 327.17633 304.00012 327.79943 C 304.00012 330.4378 362.92378 358.15692 365.34777 356.6588 C 365.78886 356.3862 365.68035 351.31471 365.10754 345.38927 C 364.53471 339.46384 363.47203 333.50522 362.74621 332.14904 C 361.81421 330.40758 357.63549 328.80781 348.5216 326.70177 C 330.94343 322.63983 313.78244 316.8168 298.78723 309.82872 C 292.31779 306.81383 286.6403 304.62323 285.60168 304.71544 z M 387.6466 312.53575 C 387.43349 312.32264 382.57759 316.12025 376.85363 320.97521 C 367.70741 328.73284 366.5421 330.2191 367.24426 333.23497 C 368.00086 336.48468 372.1502 374.40835 372.21496 378.66661 C 372.23166 379.76661 371.80093 385.91597 371.25793 392.33263 C 370.53028 400.93119 370.68111 404.0006 371.8341 404.0006 C 372.6945 404.0006 374.03507 402.34929 374.81262 400.33263 C 375.6127 398.25749 376.20088 387.16793 376.16613 374.7838 C 376.11493 356.54748 376.48365 352.21542 378.38488 348.7838 C 379.63962 346.51906 381.34708 344.22562 382.1798 343.68615 C 383.08664 343.09867 383.67976 338.81949 383.65832 333.01818 C 383.63582 326.91901 384.43917 321.40693 385.82824 318.1295 C 387.0415 315.26691 387.85972 312.74886 387.6466 312.53575 z M 538.00012 316.05529 L 526.33801 320.76427 C 512.27905 326.43923 488.75532 331.97229 478.61535 331.98888 C 471.47031 332.00088 470.92981 332.26582 461.94934 340.20177 C 452.45041 348.59587 450.72334 350.47885 450.68762 352.47521 C 450.66522 353.72707 464.97601 352.98603 482.66613 350.82091 C 500.7446 348.60826 535.3341 339.3089 535.3341 336.66075 C 535.3341 335.93063 532.38718 333.87344 528.78527 332.08849 C 522.25624 328.85298 522.24479 328.83612 525.24621 326.7545 C 526.90203 325.60612 530.4496 322.72979 533.12902 320.36193 L 538.00012 316.05529 z M 282.39074 324.24279 C 281.12011 324.0839 281.18472 324.92364 281.76965 327.84825 C 282.82005 333.1003 281.45414 333.12429 273.12707 328.0006 C 263.58231 322.12765 262.88905 323.07586 270.57629 331.48693 C 280.9729 342.86248 288.68686 354.47327 291.67395 363.24083 C 294.21322 370.69396 294.70106 371.24774 300.18371 372.88732 C 303.38279 373.844 306.53209 374.63595 307.18176 374.64708 C 309.27751 374.68298 306.75964 362.19393 303.3302 355.54357 C 301.49901 351.99257 300.00012 348.24192 300.00012 347.20958 C 300.00012 346.17726 299.49659 345.33263 298.88098 345.33263 C 297.53204 345.33263 294.66613 339.34548 294.66613 336.52599 C 294.66613 332.53881 297.24631 336.26517 303.77551 349.68419 C 307.4282 357.19136 310.8503 366.23875 311.37902 369.78966 C 312.44122 376.92346 310.97591 375.68122 332.07238 387.33263 C 338.71139 390.99929 349.63238 398.32794 356.34191 403.61779 C 363.05146 408.90764 368.83846 412.93958 369.20129 412.57677 C 369.5641 412.21394 364.74075 406.6853 358.48254 400.29161 C 345.37013 386.89535 342.17452 382.87219 329.56262 363.8795 C 324.49379 356.24622 318.31856 348.16689 315.83996 345.92638 C 308.1519 338.97684 291.78112 327.31249 290.31066 327.73693 C 289.5414 327.95897 288.55703 327.58981 288.12316 326.91661 C 287.68929 326.2434 285.89525 325.24331 284.13684 324.69396 C 283.38623 324.45947 282.81429 324.29575 282.39074 324.24279 z M 231.2716 324.35802 C 231.21447 324.36609 231.17214 324.38327 231.1427 324.41271 C 230.73832 324.8171 231.48466 326.9716 232.8009 329.19982 C 235.48354 333.74117 234.78856 335.53958 231.1134 333.57286 C 227.65227 331.72068 215.99603 330.13307 216.01574 331.51622 C 216.02474 332.14948 222.22299 335.84959 229.78918 339.74083 C 237.35537 343.63209 248.89813 351.10316 255.43957 356.3424 C 264.01004 363.20676 268.82294 366.12045 272.66613 366.76818 C 275.59946 367.26256 278.15077 367.74084 278.3341 367.83263 C 278.51744 367.92433 278.66613 367.17251 278.66613 366.16075 C 278.66613 362.90491 267.31797 349.58149 258.53332 342.52599 C 247.84383 333.94059 233.04271 324.10772 231.2716 324.35802 z M 240.20715 324.85802 C 240.1043 324.87044 240.05286 324.911 240.05676 324.98107 C 240.08796 325.54163 244.34365 328.7006 249.51379 332.0006 C 261.50718 339.65572 275.14672 353.06911 279.3302 361.32482 C 281.51227 365.63093 283.80843 368.17138 286.29309 369.02794 C 291.53767 370.83597 292.11856 370.0033 289.93176 363.80529 C 287.45488 356.78505 278.20573 343.85041 268.25402 333.48888 C 259.72232 324.60582 257.3341 323.55121 257.3341 328.66661 C 257.3341 330.49995 257.01661 332.0006 256.62902 332.0006 C 256.24145 332.0006 252.34015 330.19163 247.96105 327.98107 C 244.12936 326.04684 240.92705 324.77112 240.20715 324.85802 z M 212.3966 334.74865 C 211.80027 334.81817 212.32518 335.63005 213.73254 337.77794 C 214.9799 339.68166 216.00012 341.44055 216.00012 341.68615 C 216.00012 341.93175 211.5136 342.10347 206.02941 342.067 C 200.54523 342.03051 195.89458 342.56127 195.69543 343.24669 C 195.49629 343.9321 198.08663 345.195 201.45129 346.05333 C 209.96958 348.22637 222.81872 355.31974 228.09387 360.76232 L 232.52355 365.33263 L 246.26184 365.33263 C 253.81798 365.33263 260.00012 364.83385 260.00012 364.22325 C 260.00012 360.81658 224.78462 338.31395 214.73254 335.29747 C 213.5158 334.93236 212.7544 334.70693 212.3966 334.74865 z M 531.72082 342.45568 C 530.44024 342.37631 524.9068 343.5399 518.32629 345.30529 C 510.80572 347.32286 500.15635 349.75094 494.66027 350.69982 C 489.1642 351.64872 483.98494 352.94659 483.15051 353.58458 C 482.31609 354.22255 473.31608 354.88276 463.15051 355.05138 L 444.66613 355.35802 L 433.66613 366.22716 C 427.61614 372.20522 422.66613 377.44969 422.66613 377.88146 C 422.66613 379.51101 464.88135 378.62636 474.66613 376.79161 C 480.16613 375.76033 487.06679 374.89869 490.00012 374.87755 C 494.51992 374.84505 501.03284 373.58786 523.66613 368.3795 C 525.31613 367.99982 526.66613 367.18926 526.66613 366.57872 C 526.66613 365.24589 518.94978 359.39565 515.66613 358.23888 C 511.91198 356.91635 512.94097 354.92043 518.9591 351.85021 C 525.54035 348.4927 532.00012 343.89606 532.00012 342.56896 C 532.00012 342.505 531.90376 342.46701 531.72082 342.45568 z M 327.62316 344.20177 C 327.37477 344.27827 332.10392 349.25931 338.39465 355.54161 C 350.72278 367.85324 358.50255 379.7604 361.34387 390.66661 C 363.31481 398.23202 366.6114 405.33263 368.15246 405.33263 C 368.80224 405.33263 369.28783 402.18263 369.23254 398.33263 C 369.17724 394.48263 368.42038 384.45332 367.5509 376.04357 C 365.72766 358.40894 368.2964 361.13749 344.03723 351.03575 C 335.62382 347.53234 328.2557 344.46122 327.66418 344.20958 C 327.64569 344.20172 327.63118 344.1993 327.62316 344.20177 z M 383.37512 345.94591 C 381.27939 345.5843 380.11166 355.81587 379.52941 378.0006 C 378.9079 401.68116 378.41222 404.61335 374.4259 408.15685 C 369.98848 412.10131 371.91912 411.94049 378.55871 407.8131 C 382.16563 405.57091 386.45472 402.31155 388.08996 400.57091 C 393.65479 394.64744 392.7601 370.17753 386.28332 351.1549 C 385.15852 347.85129 384.19519 346.08741 383.37512 345.94591 z M 197.57824 346.8131 C 196.24538 346.77174 196.12341 347.62012 196.67004 349.3424 C 197.32786 351.41497 196.55576 352.54172 193.24816 354.3424 C 190.89984 355.62085 186.32156 358.91662 183.07434 361.66661 C 179.82713 364.41661 176.60683 366.66661 175.91809 366.66661 C 173.20999 366.66661 174.90712 368.94919 179.66613 371.70763 C 182.41613 373.3016 184.7531 374.61852 184.85754 374.63536 C 184.96194 374.65216 192.57769 372.86661 201.78332 370.66661 C 210.98896 368.46662 220.01781 366.66661 221.84777 366.66661 C 225.93287 366.66661 227.44972 364.54819 225.25598 361.9049 C 222.62745 358.73771 213.23632 352.82507 205.75207 349.62365 C 201.45352 347.78493 198.9111 346.85446 197.57824 346.8131 z M 244.53332 366.85216 C 242.47169 366.88509 240.16151 366.95621 237.66613 367.067 C 225.11492 367.62431 216.47905 368.87814 204.66613 371.85411 C 188.41823 375.94739 175.38086 380.42593 172.29895 382.97521 C 170.07628 384.81375 173.17675 388.34807 181.07238 392.97521 C 186.19588 395.9778 187.88789 396.27196 196.7423 395.70372 C 202.20115 395.3534 206.66613 395.48315 206.66613 395.99083 C 206.66613 396.49851 203.39474 399.25813 199.3966 402.12365 C 192.31161 407.20154 190.54258 409.33263 193.41223 409.33263 C 194.18885 409.33263 194.47161 409.90366 194.04113 410.60021 C 193.61064 411.29674 194.36515 412.4588 195.71691 413.18224 C 198.22231 414.5231 204.00815 413.63562 211.08605 410.82482 C 218.75201 407.78047 218.96388 408.78215 212.81066 419.0006 C 206.35728 429.71749 208.74786 431.12572 219.60168 423.0006 C 223.27523 420.2506 231.91728 413.78218 238.80676 408.62755 C 245.69623 403.47295 254.94908 397.07076 259.3673 394.39904 C 267.08988 389.72912 287.90602 380.00818 290.21691 379.99279 C 293.03127 379.97409 301.3341 377.09601 301.3341 376.13927 C 301.3341 374.78417 281.5606 369.5348 272.40637 368.45958 C 257.20891 366.67454 236.5673 378.41085 215.3341 400.91075 C 209.25378 407.3538 206.21299 409.55895 202.66613 410.09825 L 198.00012 410.80724 L 202.13098 408.88732 C 204.40271 407.83083 208.90271 403.85743 212.13098 400.05724 C 220.17515 390.58795 236.09926 377.9174 246.24426 372.91466 C 250.87652 370.6304 254.66613 368.21097 254.66613 367.53771 C 254.66613 366.99865 250.71821 366.75337 244.53332 366.85216 z M 520.09777 372.04161 C 517.71106 372.12606 512.12862 372.98524 505.66613 374.30919 C 480.43908 379.47736 479.38788 379.57848 448.02551 379.91075 L 418.04895 380.22911 L 412.02551 385.78185 C 408.7118 388.83555 406.00012 391.92228 406.00012 392.64318 C 406.00012 394.40246 413.90033 395.72165 430.00012 396.65099 C 437.33344 397.07428 447.23345 397.91922 452.00012 398.52794 C 462.41618 399.85811 503.20784 400.34952 504.39855 399.1588 C 504.8617 398.69564 503.46147 396.65471 501.28723 394.62365 C 496.77617 390.40969 495.9141 384.34438 499.66613 383.21154 C 504.81341 381.65743 521.3341 373.28265 521.3341 372.22716 C 521.3341 372.07205 520.89335 372.01347 520.09777 372.04161 z M 306.99035 378.66661 C 290.81745 378.66661 256.0276 396.88978 228.34191 419.86193 C 222.34095 424.84121 216.9121 428.20772 214.00793 428.75255 C 211.437 429.23485 209.3341 430.24449 209.3341 430.99474 C 209.3341 433.2499 226.81084 431.31354 231.5802 428.5299 C 236.98023 425.37814 238.26673 426.67318 235.50793 432.48693 C 232.88884 438.00625 232.54612 449.35072 235.00012 449.29552 C 235.91679 449.27482 240.24359 447.32425 244.61535 444.96154 C 250.60604 441.7239 255.47648 437.29925 264.38488 426.99865 C 270.88592 419.48164 279.90447 410.48163 284.42785 406.99865 C 293.67803 399.87607 312.87881 389.78866 319.57824 388.53185 C 322.01002 388.07563 324.00012 387.18098 324.00012 386.54161 C 324.00012 384.65063 311.0751 378.66661 306.99035 378.66661 z M 328.24426 387.88927 L 319.78918 390.7213 C 300.62307 397.14048 278.77335 413.36298 265.20129 431.2506 C 260.87202 436.95644 256.44735 440.86264 250.15441 444.53575 C 245.2516 447.39747 240.9253 450.24813 240.54113 450.86974 C 238.84202 453.61896 249.75003 451.81743 253.88098 448.66661 C 259.61092 444.29618 261.45485 444.38913 260.53723 449.0006 C 259.35662 454.93383 259.38258 461.33263 260.58801 461.33263 C 260.91168 461.33263 263.1265 457.67541 265.50988 453.20372 C 270.77185 443.33126 277.84584 435.65843 290.09191 426.53966 C 306.7904 414.10552 331.45323 404.11379 345.66613 404.02404 C 347.6828 404.01074 349.33412 403.5506 349.3341 403.0006 C 349.33404 401.60251 341.84121 395.81611 334.4552 391.51036 L 328.24426 387.88927 z M 404.01184 395.6295 C 401.21606 395.62361 400.30505 396.2468 398.66613 397.49474 C 396.8328 398.89073 393.39 401.37549 391.01574 403.01622 C 388.64149 404.65694 386.69279 406.42241 386.68371 406.9381 C 386.64821 408.95557 403.7246 415.15915 424.00012 420.49474 C 432.84864 422.82327 449.93801 423.18231 460.75598 421.26622 C 470.65408 419.51306 485.3341 414.80186 485.3341 413.3795 C 485.3341 412.79149 484.1369 411.9984 482.67395 411.61583 C 479.78439 410.86019 477.71936 407.12731 479.35168 405.60997 C 479.90933 405.0916 480.60198 405.32674 480.8927 406.13341 C 481.86701 408.83691 505.3341 405.45958 505.3341 402.61583 C 505.3341 401.85386 495.73333 401.22329 481.66613 401.06115 C 446.16006 400.65187 440.95382 400.3506 420.66613 397.54161 C 411.48818 396.27086 406.80761 395.6354 404.01184 395.6295 z M 347.69934 405.45763 C 344.70679 405.53573 340.93169 406.17053 335.68762 407.28185 C 325.66155 409.40655 307.47464 417.48206 297.94348 424.03966 C 284.34295 433.39707 265.3341 454.01046 265.3341 459.40099 C 265.3341 462.20533 277.33363 458.7365 284.62707 453.82482 C 288.29589 451.35409 291.82103 449.33263 292.46105 449.33263 C 293.10106 449.33263 293.37983 451.43393 293.0802 454.0006 C 292.78055 456.56727 293.11319 458.66661 293.81848 458.66661 C 296.437 458.66661 308.20706 450.18057 312.07434 445.5045 C 315.33966 441.55628 316.30176 441.03108 317.31066 442.64904 C 318.36105 444.33352 319.90875 443.96371 327.60754 440.1881 C 338.19881 434.99398 351.77844 426.11946 359.3341 419.45372 L 364.66613 414.74865 L 359.3341 410.09044 C 355.50334 406.74511 352.68692 405.32746 347.69934 405.45763 z M 382.53723 409.5631 C 381.44483 409.57312 380.46451 410.05151 378.89074 411.00646 C 376.97319 412.16997 375.20929 413.70316 374.97277 414.41271 C 374.49991 415.83126 385.48767 419.41154 406.00012 424.52208 C 424.37118 429.09914 437.3341 430.60457 437.3341 428.16271 C 437.3341 425.93301 433.9501 424.47273 423.3341 422.11974 C 411.39114 419.47262 393.64829 414.03208 386.85559 410.93419 C 384.83405 410.01224 383.62962 409.55307 382.53723 409.5631 z "
       transform="translate(-35.453242,-102.52013)" />
    <path
       id="path3381"
       style="display:inline;fill:#008000;stroke-width:1.33333"
       d="M 126.59973 112.26622 C 126.53734 112.27271 126.47294 112.287 126.40637 112.30919 C 123.89609 113.14595 122.5002 120.10548 123.52746 126.66661 C 124.04414 129.96661 124.53738 135.36662 124.62316 138.66661 C 124.72026 142.4038 126.43256 148.185 129.16418 153.99474 C 134.8357 166.05722 136.65217 168.23721 139.03527 165.85411 C 139.48192 165.40746 138.74293 162.24348 137.39465 158.82286 C 136.04636 155.40224 134.51029 148.41742 133.98059 143.30138 C 133.45088 138.18534 131.88771 131.48328 130.50793 128.40685 C 129.12815 125.33042 128.00012 120.3302 128.00012 117.29552 C 128.00012 113.8387 127.53553 112.16888 126.59973 112.26622 z M 140.88488 126.74279 C 140.34869 126.75002 140.00154 127.68778 140.00402 129.66661 C 140.00902 133.64121 142.65047 156.2086 143.35949 158.33263 C 144.46131 161.63329 146.3887 159.88523 148.40832 153.7506 C 150.31681 147.95346 150.29141 147.15635 148.04895 142.7506 C 146.71924 140.1381 144.86873 135.44929 143.93762 132.33263 C 142.85507 128.7091 141.66854 126.73221 140.88488 126.74279 z M 168.86926 143.41271 C 165.22761 143.36404 154.44629 148.56643 152.17199 151.76036 C 147.81868 157.87405 145.40371 170.66661 148.60363 170.66661 C 148.98195 170.66661 151.75457 166.76731 154.76379 162.00255 C 157.77301 157.2378 162.62114 151.29745 165.53723 148.80138 C 168.45331 146.30532 170.34936 143.96683 169.75207 143.60411 C 169.5455 143.47866 169.24598 143.41774 168.86926 143.41271 z M 177.68957 149.33263 C 177.07693 149.33263 175.43472 151.28329 174.04113 153.66661 C 172.64756 156.04994 167.87041 161.80401 163.4259 166.45372 L 155.34582 174.9088 L 159.16418 178.192 C 163.75306 182.13921 168.46929 181.58334 176.66613 176.1295 C 181.59817 172.84793 182.02953 172.06672 182.39855 165.73888 C 182.78821 159.05715 179.9977 149.33263 177.68957 149.33263 z M 185.72277 185.89513 C 185.1786 185.89078 184.60624 185.8905 184.00402 185.89708 C 173.92296 186.00735 172.12042 187.18799 179.00012 189.17443 C 184.83648 190.85962 185.93454 190.87888 189.91418 189.36583 C 195.49828 187.24275 193.88535 185.96041 185.72277 185.89513 z M 171.35363 188.95958 C 168.79318 189.17055 173.14207 193.10629 182.00012 197.60411 C 185.66677 199.46593 193.16614 201.71982 198.66613 202.61388 C 204.16613 203.50793 209.56613 204.40122 210.66613 204.59825 C 212.82835 204.98558 216.32699 204.45062 224.66613 202.45763 C 241.70549 198.38535 243.04841 196.01231 228.3341 195.9713 C 222.65078 195.9554 212.60011 195.01974 206.00012 193.89318 C 199.40012 192.76662 191.28795 191.9021 187.97277 191.9713 C 184.6576 192.0405 179.40629 191.20229 176.3048 190.10802 C 173.8269 189.23376 172.20712 188.88926 171.35363 188.95958 z M 184.35754 201.6295 C 183.67823 201.6279 183.1373 201.75209 182.85168 202.03771 C 182.39289 202.4965 184.11393 204.59069 186.6759 206.692 C 190.28657 209.65346 191.43364 210.06338 191.77941 208.51232 C 192.02477 207.41174 191.92231 205.72315 191.55285 204.76036 C 190.96884 203.23843 186.78365 201.63522 184.35754 201.6295 z "
       transform="translate(-35.453242,-102.52013)" />
    <path
       id="path3303"
       style="display:inline;fill:#ff0000;stroke-width:1.33333"
       d="M 119.8048 164.45763 C 117.53662 164.49312 114.80379 164.7331 111.07434 165.15099 C 104.61633 165.87462 97.534099 167.4088 95.334101 168.55919 C 93.134104 169.70958 90.64295 170.65428 89.798945 170.6588 C 88.954941 170.6628 84.673287 173.36662 80.28332 176.66661 C 75.893354 179.96661 71.737139 182.66661 71.048945 182.66661 C 68.918288 182.66661 64.421789 188.3105 59.894648 196.66661 C 57.510835 201.06661 54.192213 205.95778 52.519648 207.53575 C 49.067873 210.79231 45.334101 218.92358 45.334101 223.18224 C 45.334101 224.75304 44.055106 229.32918 42.492305 233.35216 C 40.929503 237.37513 39.196287 245.65028 38.640742 251.74083 C 38.085197 257.8314 37.261554 263.18252 36.810664 263.63341 C 36.359775 264.0843 36.947523 265.9145 38.117305 267.69982 C 39.519208 269.83939 39.971613 272.39697 39.44543 275.20177 C 38.831687 278.47331 39.420369 280.50352 41.990351 283.98693 C 43.828868 286.4789 45.334101 289.6202 45.334101 290.9674 C 45.334101 292.31461 46.17919 293.74256 47.213008 294.13927 C 48.246824 294.53599 49.4696 296.36035 49.929805 298.19396 C 50.491032 300.43007 52.61548 302.37322 56.38293 304.0963 C 59.472234 305.50922 63.164513 307.56622 64.588008 308.66661 C 66.011501 309.76702 69.010853 310.67492 71.254023 310.68615 C 73.497192 310.69685 76.19621 311.25366 77.250117 311.92052 C 80.286781 313.842 103.24146 312.46169 107.84582 310.08068 C 110.05802 308.93671 113.8858 308.0006 116.35168 308.0006 C 119.59277 308.0006 121.8958 306.89221 124.66613 304.0006 C 127.15978 301.39778 129.81955 300.0006 132.27941 300.0006 C 134.83658 300.0006 137.93195 298.27429 141.84582 294.66661 C 145.02811 291.73329 148.92417 289.33263 150.50402 289.33263 C 152.4717 289.33263 154.07407 287.8691 155.59191 284.68615 C 156.81061 282.13054 159.99957 278.58939 162.67785 276.817 C 166.46014 274.314 168.23181 271.70577 170.6134 265.13146 C 172.29981 260.47614 174.94062 254.88111 176.48059 252.69786 C 180.18738 247.44268 181.89713 221.89789 179.01379 214.86193 C 177.93353 212.22581 177.54231 208.74739 178.06066 206.38732 C 178.88149 202.65015 177.98993 201.46849 164.62707 188.59825 C 150.24811 174.74938 144.27624 170.90052 129.7423 166.11583 C 126.07652 164.90902 123.58511 164.39849 119.8048 164.45763 z M 117.73254 178.81505 C 118.45064 178.81091 119.37728 179.16993 120.66027 179.7545 C 124.98176 181.72351 124.88639 185.07086 120.3341 191.07091 C 116.4656 196.16972 111.24302 197.90585 112.52746 193.66661 C 112.91629 192.38328 113.8027 188.73686 114.49816 185.5631 C 115.58801 180.58955 116.15271 178.82417 117.73254 178.81505 z M 86.232539 193.85021 C 88.258748 193.75792 91.999453 196.56996 91.990351 198.6549 C 91.985551 199.76182 90.872057 202.3498 89.515742 204.40685 C 86.732097 208.62864 81.334101 212.85154 81.334101 210.80724 C 81.334101 207.8263 84.353209 195.25921 85.318476 194.22325 C 85.541379 193.98403 85.857315 193.8673 86.232539 193.85021 z M 162.18566 212.0006 C 164.81784 212.0006 168.00012 214.31699 168.00012 216.23302 C 168.00012 217.26659 162.55224 220.50812 155.66613 223.57286 C 152.43184 225.01232 152.00012 224.92602 152.00012 222.8424 C 152.00012 219.50975 159.05491 212.0006 162.18566 212.0006 z M 110.49426 213.3756 C 112.47931 213.47603 116.00012 217.13626 116.00012 219.10021 C 116.00012 221.48481 108.43408 230.66661 106.46887 230.66661 C 105.75962 230.66661 105.57346 228.49089 106.04113 225.66661 C 107.03492 219.66514 109.33418 213.31692 110.49426 213.3756 z M 64.683711 224.0924 C 66.4694 224.06043 68.687308 225.15536 69.808711 226.93615 C 70.944039 228.73903 70.410345 230.22655 67.207148 234.18419 C 60.979788 241.8783 59.528372 241.65158 60.654414 233.16075 C 61.176678 229.22267 62.079505 225.49437 62.660273 224.8756 C 63.149729 224.35411 63.872034 224.10692 64.683711 224.0924 z M 129.55676 229.33263 C 132.83452 229.33263 132.67574 231.51151 129.3341 232.38536 C 127.86743 232.76891 126.66613 233.73963 126.66613 234.54161 C 126.66613 236.36772 130.22385 236.46305 131.3341 234.66661 C 132.57952 232.65147 134.66613 233.0684 134.66613 235.33263 C 134.66613 236.43263 134.03841 237.33263 133.26965 237.33263 C 132.50089 237.33263 129.38733 238.53394 126.35168 240.0006 C 120.08197 243.02983 118.66613 243.25972 118.66613 241.2545 C 118.66613 238.58307 127.11656 229.33263 129.55676 229.33263 z M 89.986445 239.9381 C 90.905316 239.90942 91.930699 240.46438 93.066523 241.60021 C 95.563822 244.0975 94.978153 247.15977 91.000117 252.40294 C 85.995967 258.99857 84.068358 258.76295 84.984492 251.66661 C 85.987279 243.89907 87.63822 240.0114 89.986445 239.9381 z M 152.88488 246.75646 C 153.59822 246.76784 154.41198 246.99957 155.4923 247.3795 C 161.46266 249.47916 160.85403 252.30012 153.70129 255.68029 C 146.46933 259.0979 144.00012 259.42127 144.00012 256.94982 C 144.00012 256.00545 145.7271 253.16388 147.83801 250.63536 C 150.22863 247.77179 151.31553 246.73142 152.88488 246.75646 z M 107.0177 256.17833 C 107.76164 256.18396 108.59193 256.58086 109.83605 257.24669 C 115.74253 260.40774 114.4163 263.07775 105.3341 266.30333 C 99.434595 268.39855 98.666133 268.39628 98.666133 266.2838 C 98.666133 265.33943 100.39387 262.49698 102.50402 259.96935 C 104.77916 257.2441 105.77778 256.16895 107.0177 256.17833 z M 62.336055 260.1881 C 62.576305 260.19208 62.838133 260.21584 63.123164 260.25646 C 67.253135 260.84494 67.615695 266.82448 63.832148 271.942 C 59.848583 277.33006 56.859516 277.35966 57.894648 272.0006 C 58.319582 269.8006 59.021003 266.16462 59.455195 263.92247 C 60.002633 261.09552 60.654298 260.16022 62.336055 260.1881 z M 129.79895 274.14708 C 130.61719 274.16111 131.43164 274.64734 132.71301 275.48693 C 134.5207 276.67138 136.00012 278.16083 136.00012 278.79747 C 136.00012 280.0361 123.67868 286.66661 121.37707 286.66661 C 120.61936 286.66661 120.00012 285.52802 120.00012 284.13732 C 120.00012 282.74662 122.1207 279.74737 124.71301 277.4713 C 127.39863 275.1133 128.60305 274.12659 129.79895 274.14708 z M 93.838008 284.21935 C 94.576501 284.19871 95.376948 284.50234 96.496211 285.01232 C 101.60465 287.33988 100.8106 289.98504 93.832148 293.88536 C 87.064491 297.66788 83.989182 298.22651 84.019648 295.66661 C 84.030578 294.74996 86.053706 291.61805 88.515742 288.70763 C 91.245724 285.48048 92.428157 284.25874 93.838008 284.21935 z "
       transform="translate(-35.453242,-102.52013)" />
    <path
       id="path3307"
       style="display:inline;fill:#ffff00;stroke-width:1.33333"
       d="M 118.66613 182.66661 C 117.9328 182.66661 117.3341 183.90276 117.3341 185.41271 C 117.3341 186.92266 117.9328 187.78585 118.66613 187.33263 C 119.39946 186.8794 120.00012 185.64521 120.00012 184.58849 C 120.00012 183.53177 119.39946 182.66661 118.66613 182.66661 z M 86.957148 197.32677 C 86.07362 197.32913 85.334101 198.37491 85.334101 200.16271 C 85.334101 202.51773 85.666331 202.71746 87.318476 201.3463 C 88.4104 200.44007 88.974253 199.16646 88.572383 198.51622 C 88.067966 197.70006 87.487265 197.32535 86.957148 197.32677 z M 162.07434 215.2174 C 161.58942 215.22209 160.82752 215.67135 160.02746 216.63536 C 158.9758 217.90255 158.8738 218.66661 159.75793 218.66661 C 160.53777 218.66661 161.57142 218.02686 162.0548 217.24474 C 162.86201 215.93866 162.69779 215.21136 162.07434 215.2174 z M 110.83215 217.37169 C 110.03332 217.41285 109.39308 218.29623 108.94738 220.0006 C 108.14845 223.05569 109.63945 223.51018 111.82434 220.87755 C 112.64109 219.89342 112.91624 218.69408 112.43371 218.21154 C 111.84867 217.6265 111.31144 217.347 110.83215 217.37169 z M 65.830195 228.14708 C 65.662786 228.14374 65.468867 228.17768 65.250117 228.2506 C 64.287618 228.57143 63.236966 229.62013 62.916133 230.58263 C 62.5828 231.58263 63.084102 232.08393 64.084101 231.7506 C 65.0466 231.42976 66.0953 230.3791 66.416133 229.41661 C 66.67655 228.63537 66.428085 228.15904 65.830195 228.14708 z M 89.548945 244.02599 C 88.712816 244.07871 88.084864 245.18305 87.673945 247.33263 C 86.917207 251.29126 88.075573 251.65331 90.267695 248.14318 C 91.134267 246.75558 91.479048 245.25689 91.03332 244.81115 C 90.482636 244.26047 89.986918 243.99837 89.548945 244.02599 z M 153.94348 248.58458 C 153.34268 248.58131 152.78411 249.20146 152.07629 250.52404 C 150.47125 253.52306 151.42267 254.08016 154.65637 252.03575 C 156.15421 251.08878 156.26521 250.39851 155.11145 249.24474 C 154.67878 248.81207 154.30395 248.58655 153.94348 248.58458 z M 108.31652 258.71935 C 107.61377 258.71974 106.62386 259.24209 105.59973 260.26622 C 103.08295 262.783 103.72933 264.23834 106.66613 262.66661 C 108.1328 261.88168 109.3341 260.66126 109.3341 259.95372 C 109.3341 259.12598 108.9366 258.719 108.31652 258.71935 z M 63.355586 264.51818 C 62.857662 264.54994 62.11874 265.20036 61.394648 266.55333 C 60.362679 268.48158 60.342163 269.33263 61.328242 269.33263 C 62.110392 269.33263 63.104935 268.40761 63.53918 267.27599 C 64.236886 265.45779 63.995773 264.47734 63.355586 264.51818 z M 129.65051 277.38536 C 128.94775 277.38576 127.95784 277.91007 126.93371 278.93419 C 124.41692 281.45098 125.06331 282.90436 128.00012 281.33263 C 129.46678 280.5477 130.66613 279.32727 130.66613 278.61974 C 130.66613 277.79199 130.27059 277.38502 129.65051 277.38536 z M 94.97668 288.03771 C 94.191197 288.05524 93.078215 288.702 92.088008 289.89513 C 90.797473 291.45013 91.007308 291.66142 93.25793 291.07286 C 94.766505 290.67836 96.000117 289.82613 96.000117 289.17833 C 96.000117 288.39153 95.58761 288.02407 94.97668 288.03771 z "
       transform="translate(-35.453242,-102.52013)" />
  </g>
</svg>
