<?xml version="1.0" encoding="UTF-8" standalone="no"?>
<!-- Created with Inkscape (http://www.inkscape.org/) -->

<svg
   version="1.1"
   id="svg1022"
   width="800"
   height="800"
   viewBox="0 0 800 800"
   sodipodi:docname="cupcake-clipart-publicdomainvectors.org.svg"
   inkscape:version="1.2 (dc2aedaf03, 2022-05-15)"
   xmlns:inkscape="http://www.inkscape.org/namespaces/inkscape"
   xmlns:sodipodi="http://sodipodi.sourceforge.net/DTD/sodipodi-0.dtd"
   xmlns="http://www.w3.org/2000/svg"
   xmlns:svg="http://www.w3.org/2000/svg">
  <defs
     id="defs1026">
    <clipPath
       clipPathUnits="userSpaceOnUse"
       id="clipPath1038">
      <path
         d="M 0,600 H 600 V 0 H 0 Z"
         id="path1036" />
    </clipPath>
  </defs>
  <sodipodi:namedview
     id="namedview1024"
     pagecolor="#ffffff"
     bordercolor="#000000"
     borderopacity="0.25"
     inkscape:showpageshadow="2"
     inkscape:pageopacity="0.0"
     inkscape:pagecheckerboard="0"
     inkscape:deskcolor="#d1d1d1"
     showgrid="false"
     inkscape:zoom="1.04625"
     inkscape:cx="399.5221"
     inkscape:cy="400.4779"
     inkscape:window-width="1920"
     inkscape:window-height="1017"
     inkscape:window-x="-8"
     inkscape:window-y="-8"
     inkscape:window-maximized="1"
     inkscape:current-layer="g1030">
    <inkscape:page
       x="0"
       y="0"
       id="page1028"
       width="800"
       height="800" />
  </sodipodi:namedview>
  <g
     id="g1030"
     inkscape:groupmode="layer"
     inkscape:label="Page 1"
     transform="matrix(1.3333333,0,0,-1.3333333,0,800)">
    <g
       id="g1032">
      <g
         id="g1034"
         clip-path="url(#clipPath1038)">
        <g
           id="g1040"
           transform="translate(292.0615,108.9434)">
          <path
             d="M 0,0 C 138.712,0 251.844,44.98 251.844,100.132 251.844,155.28 138.712,200.261 0,200.261 -138.71,200.261 -251.842,155.28 -251.842,100.132 -251.842,44.98 -138.71,0 0,0"
             style="fill:#9ac421;fill-opacity:1;fill-rule:evenodd;stroke:none"
             id="path1042" />
        </g>
        <g
           id="g1044"
           transform="translate(292.0615,309.2041)">
          <path
             d="m 0,0 c 139.089,0 251.841,-44.83 251.841,-100.129 0,-18.359 -12.433,-35.558 -34.12,-50.351 -33.617,-6.613 -71.476,-10.334 -111.523,-10.334 -139.089,0 -251.841,44.83 -251.841,100.129 0,18.357 12.434,35.555 34.121,50.349 C -77.903,-3.722 -40.047,0 0,0"
             style="fill:#87b027;fill-opacity:1;fill-rule:evenodd;stroke:none"
             id="path1046" />
        </g>
        <g
           id="g1048"
           transform="translate(477.1309,469.9624)">
          <path
             d="m 0,0 -5.425,-28.708 42.037,-14.671 -44.234,-185.141 -1.393,-0.79 -8.482,-35.753 -42.701,-8.539 -3.832,-21.754 -47.882,1.393 -24.653,-18.5 -40.958,11.23 -40.959,-11.23 -24.65,18.5 -47.883,-1.393 -3.832,21.754 -42.703,8.539 -8.481,35.753 -1.392,0.79 -44.234,185.141 42.034,14.671 -5.424,28.708 59.529,4.788 17.751,25.978 57.662,-8.193 42.582,19.296 42.584,-19.296 57.659,8.193 17.754,-25.979 z"
             style="fill:#a24d1e;fill-opacity:1;fill-rule:evenodd;stroke:none"
             id="path1050" />
        </g>
        <g
           id="g1052"
           transform="translate(477.1309,469.9624)">
          <path
             d="m 0,0 -36.671,-194.101 -8.845,-21.192 34.368,188.584 z"
             style="fill:#92431c;fill-opacity:1;fill-rule:evenodd;stroke:none"
             id="path1054" />
        </g>
        <g
           id="g1056"
           transform="translate(513.7432,426.583)">
          <path
             d="m 0,0 -44.234,-185.141 -29.75,-16.917 36.491,180.737 z"
             style="fill:#8c421c;fill-opacity:1;fill-rule:evenodd;stroke:none"
             id="path1058" />
        </g>
        <g
           id="g1060"
           transform="translate(351.2305,320.7842)">
          <path
             d="m 0,0 -10.665,-163.285 -40.958,11.23 V 14.154 Z"
             style="fill:#a24d1e;fill-opacity:1;fill-rule:evenodd;stroke:none"
             id="path1062" />
        </g>
        <g
           id="g1064"
           transform="translate(501.2979,380.5264)">
          <path
             d="m 0,0 -41.664,-175.627 -43.837,-8.766 30.251,173.343 z"
             style="fill:#92441c;fill-opacity:1;fill-rule:evenodd;stroke:none"
             id="path1066" />
        </g>
        <g
           id="g1068"
           transform="translate(442.6475,342.3438)">
          <path
             d="m 0,0 -29.547,-167.737 -47.882,1.392 17.082,168.1 z"
             style="fill:#a24d1e;fill-opacity:1;fill-rule:evenodd;stroke:none"
             id="path1070" />
        </g>
        <g
           id="g1072"
           transform="translate(216.917,344.0986)">
          <path
             d="m 0,0 17.082,-168.1 24.65,-18.5 -10.664,163.286 z"
             style="fill:#a24d1e;fill-opacity:1;fill-rule:evenodd;stroke:none"
             id="path1074" />
        </g>
        <g
           id="g1076"
           transform="translate(122.084,469.9624)">
          <path
             d="m 0,0 36.673,-194.101 8.845,-21.192 -34.369,188.584 z"
             style="fill:#92441c;fill-opacity:1;fill-rule:evenodd;stroke:none"
             id="path1078" />
        </g>
        <g
           id="g1080"
           transform="translate(85.4736,426.583)">
          <path
             d="m 0,0 44.234,-185.141 29.749,-16.917 -36.49,180.737 z"
             style="fill:#a8511e;fill-opacity:1;fill-rule:evenodd;stroke:none"
             id="path1082" />
        </g>
        <g
           id="g1084"
           transform="translate(247.9854,320.7842)">
          <path
             d="m 0,0 10.664,-163.285 40.958,11.23 V 14.154 Z"
             style="fill:#ce691c;fill-opacity:1;fill-rule:evenodd;stroke:none"
             id="path1086" />
        </g>
        <g
           id="g1088"
           transform="translate(97.9175,380.5264)">
          <path
             d="M 0,0 41.664,-175.627 85.5,-184.393 55.25,-11.05 Z"
             style="fill:#c2601e;fill-opacity:1;fill-rule:evenodd;stroke:none"
             id="path1090" />
        </g>
        <g
           id="g1092"
           transform="translate(156.5674,342.3438)">
          <path
             d="m 0,0 29.549,-167.737 47.881,1.392 -17.083,168.1 z"
             style="fill:#ce691c;fill-opacity:1;fill-rule:evenodd;stroke:none"
             id="path1094" />
        </g>
        <g
           id="g1096"
           transform="translate(382.2988,344.0986)">
          <path
             d="m 0,0 -17.083,-168.1 -24.65,-18.5 10.665,163.286 z"
             style="fill:#ce691c;fill-opacity:1;fill-rule:evenodd;stroke:none"
             id="path1098" />
        </g>
        <g
           id="g1100"
           transform="translate(299.6074,511.8315)">
          <path
             d="m 0,0 42.585,-19.296 57.658,8.193 17.754,-25.979 59.526,-4.787 -11.148,-26.71 47.761,-16.669 -37.493,-21.324 25.047,-24.733 -55.25,-11.05 -3.4,-27.133 -60.349,1.755 -31.068,-23.314 -51.623,14.154 -51.622,-14.154 -31.071,23.314 -60.347,-1.755 -3.4,27.133 -55.25,11.05 25.049,24.735 -37.493,21.322 47.76,16.67 -11.149,26.709 59.529,4.788 17.751,25.978 57.661,-8.193 z"
             style="fill:#e5942a;fill-opacity:1;fill-rule:evenodd;stroke:none"
             id="path1102" />
        </g>
        <g
           id="g1104"
           transform="translate(299.6074,511.8315)">
          <path
             d="m 0,0 42.585,-19.296 33.457,4.753 c 24.487,-18.279 38.718,-40.078 38.718,-63.49 0,-41.835 -45.417,-78.525 -113.671,-99.159 l -1.089,0.299 -30.125,-8.261 c -7.68,-1.622 -15.562,-3.056 -23.631,-4.293 l -28.937,21.714 -60.347,-1.755 -3.4,27.133 -55.25,11.05 25.049,24.735 -37.493,21.322 47.76,16.67 -11.149,26.709 59.529,4.788 17.751,25.978 57.661,-8.193 z"
             style="fill:#f19f33;fill-opacity:1;fill-rule:evenodd;stroke:none"
             id="path1106" />
        </g>
        <g
           id="g1108"
           transform="translate(307.9512,484.9976)">
          <path
             d="m 0,0 c 75.518,0 136.741,-41.697 136.741,-74.679 0,-32.981 -61.223,-59.718 -136.741,-59.718 -75.519,0 -136.739,26.737 -136.739,59.718 C -136.739,-41.697 -75.519,0 0,0"
             style="fill:#d7861f;fill-opacity:1;fill-rule:evenodd;stroke:none"
             id="path1110" />
        </g>
        <g
           id="g1112"
           transform="translate(299.6074,511.8315)">
          <path
             d="m 0,0 c 75.521,0 136.738,-48.374 136.738,-86.638 0,-38.264 -61.217,-69.283 -136.738,-69.283 -75.519,0 -136.739,31.019 -136.739,69.283 C -136.739,-48.374 -75.519,0 0,0"
             style="fill:#fbde78;fill-opacity:1;fill-rule:evenodd;stroke:none"
             id="path1114" />
        </g>
        <g
           id="g1116"
           transform="translate(280.165,501.2764)">
          <path
             d="M 0,0 C 40.395,0 61.166,-25.874 51.696,-46.342 42.225,-66.809 1.802,-83.4 -38.595,-83.4 c -40.393,0 -65.462,16.591 -55.991,37.058 C -85.115,-25.874 -40.396,0 0,0"
             style="fill:#fde9a0;fill-opacity:1;fill-rule:evenodd;stroke:none"
             id="path1118" />
        </g>
        <g
           id="g1120"
           transform="translate(360.3271,501.1284)">
          <path
             d="m 0,0 c 45.052,-16.403 76.019,-48.724 76.019,-75.935 0,-38.264 -61.218,-69.283 -136.739,-69.283 -41.69,0 -79.02,9.456 -104.101,24.364 22.212,-7.9 49.269,-12.54 78.471,-12.54 75.517,0 136.738,31.019 136.738,69.283 C 50.388,-42.442 30.747,-17.532 0,0"
             style="fill:#f3d05a;fill-opacity:1;fill-rule:evenodd;stroke:none"
             id="path1122" />
        </g>
        <g
           id="g1124"
           transform="translate(310.8086,461.4224)">
          <path
             d="M 0,0 C 27.396,0 49.741,13.17 49.741,29.319 49.741,45.467 27.396,58.637 0,58.637 -27.395,58.637 -49.736,45.467 -49.736,29.319 -49.736,13.17 -27.395,0 0,0"
             style="fill:#f3d05a;fill-opacity:1;fill-rule:evenodd;stroke:none"
             id="path1126" />
        </g>
        <g
           id="g1128"
           transform="translate(299.6074,462.7202)">
          <path
             d="m 0,0 c 33.864,0 61.482,27.619 61.482,61.481 0,33.864 -27.618,61.482 -61.482,61.482 -33.863,0 -61.48,-27.618 -61.48,-61.482 C -61.48,27.619 -33.863,0 0,0"
             style="fill:#cc2d23;fill-opacity:1;fill-rule:evenodd;stroke:none"
             id="path1130" />
        </g>
        <g
           id="g1132"
           transform="translate(292.0518,580.4375)">
          <path
             d="m 0,0 c 20.056,0 31.451,-16.257 25.458,-36.31 -5.995,-20.056 -27.112,-36.313 -47.168,-36.313 -20.056,0 -31.451,16.257 -25.458,36.313 C -41.173,-16.257 -20.056,0 0,0"
             style="fill:#ed3c1f;fill-opacity:1;fill-rule:evenodd;stroke:none"
             id="path1134" />
        </g>
        <g
           id="g1136"
           transform="translate(337.2051,572.8472)">
          <path
             d="m 0,0 c 14.529,-11.244 23.883,-28.852 23.883,-48.646 0,-33.955 -27.526,-61.481 -61.481,-61.481 -19.794,0 -37.399,9.356 -48.644,23.884 10.395,-8.046 23.433,-12.836 37.597,-12.836 33.955,0 61.48,27.526 61.48,61.482 C 12.835,-23.435 8.047,-10.395 0,0"
             style="fill:#ae2721;fill-opacity:1;fill-rule:evenodd;stroke:none"
             id="path1138" />
        </g>
      </g>
    </g>
  </g>
</svg>
