<?xml version="1.0" encoding="UTF-8"?>
<!DOCTYPE svg PUBLIC "-//W3C//DTD SVG 1.1//EN" "http://www.w3.org/Graphics/SVG/1.1/DTD/svg11.dtd">
<svg version="1.1" xmlns="http://www.w3.org/2000/svg" xmlns:xlink="http://www.w3.org/1999/xlink" x="0" y="0" width="385" height="420" viewBox="0, 0, 385, 420">
  <defs>
    <radialGradient id="Gradient_1" gradientUnits="userSpaceOnUse" cx="186.405" cy="65.693" r="9.106">
      <stop offset="0" stop-color="#EEA497"/>
      <stop offset="1" stop-color="#F7CEAA"/>
    </radialGradient>
  </defs>
  <g id="Layer_1">
    <g>
      <path d="M284.345,295.423 C293.897,289.93 304.995,286.783 316.81,286.783 C352.94,286.783 382.223,316.105 382.223,352.228 C382.223,388.353 352.94,417.675 316.81,417.675 C290.275,417.675 267.475,401.9 257.188,379.243 C253.458,371.005 251.368,361.858 251.368,352.228 C251.368,346.74 252.028,341.398 253.305,336.305 C257.038,321.373 265.893,308.488 277.905,299.595 L284.345,295.423 z M282.59,304.318 C279.948,306.185 277.46,308.31 275.163,310.573 C269.598,316.178 265.133,322.84 262.163,330.265 C261.285,332.428 260.555,334.663 259.935,336.97 C258.615,341.835 257.918,346.96 257.918,352.228 C257.918,360.428 259.608,368.26 262.643,375.358 C262.935,376.055 263.263,376.755 263.592,377.41 C266.48,383.563 270.4,389.125 275.163,393.88 C280.723,399.445 287.423,403.915 294.85,406.875 C301.66,409.623 309.053,411.123 316.81,411.123 C325.013,411.123 332.848,409.438 339.943,406.398 C346.9,403.438 353.155,399.153 358.432,393.88 C363.992,388.32 368.46,381.618 371.42,374.19 C374.168,367.42 375.67,359.99 375.67,352.228 C375.67,344.03 373.99,336.198 370.95,329.095 C367.98,322.103 363.698,315.845 358.432,310.573 C352.87,305.01 346.173,300.548 338.735,297.583 C331.965,294.838 324.573,293.335 316.81,293.335 C308.575,293.335 300.747,295.02 293.675,298.093 C292.033,298.755 290.423,299.558 288.888,300.4 L288.853,300.4 L282.59,304.318 z" fill="#B4B5B4"/>
      <path d="M284.345,295.423 C293.897,289.93 304.995,286.783 316.81,286.783 C352.94,286.783 382.223,316.105 382.223,352.228 C382.223,388.353 352.94,417.675 316.81,417.675 C290.275,417.675 267.475,401.9 257.188,379.243 C253.458,371.005 251.368,361.858 251.368,352.228 C251.368,346.74 252.028,341.398 253.305,336.305 C257.038,321.373 265.893,308.488 277.905,299.595 L284.345,295.423 z M282.59,304.318 C279.948,306.185 277.46,308.31 275.163,310.573 C269.598,316.178 265.133,322.84 262.163,330.265 C261.285,332.428 260.555,334.663 259.935,336.97 C258.615,341.835 257.918,346.96 257.918,352.228 C257.918,360.428 259.608,368.26 262.643,375.358 C262.935,376.055 263.263,376.755 263.592,377.41 C266.48,383.563 270.4,389.125 275.163,393.88 C280.723,399.445 287.423,403.915 294.85,406.875 C301.66,409.623 309.053,411.123 316.81,411.123 C325.013,411.123 332.848,409.438 339.943,406.398 C346.9,403.438 353.155,399.153 358.432,393.88 C363.992,388.32 368.46,381.618 371.42,374.19 C374.168,367.42 375.67,359.99 375.67,352.228 C375.67,344.03 373.99,336.198 370.95,329.095 C367.98,322.103 363.698,315.845 358.432,310.573 C352.87,305.01 346.173,300.548 338.735,297.583 C331.965,294.838 324.573,293.335 316.81,293.335 C308.575,293.335 300.747,295.02 293.675,298.093 C292.033,298.755 290.423,299.558 288.888,300.4 L288.853,300.4 L282.59,304.318 z" fill-opacity="0" stroke="#6C4022" stroke-width="3.112" stroke-linecap="round" stroke-linejoin="round"/>
    </g>
    <path d="M318.755,361.635 L318.603,361.673 C318.018,361.745 317.433,361.818 316.81,361.818 C315.568,361.818 314.325,361.563 313.23,361.16 C312.023,360.643 310.92,359.915 310.008,359.003 C309.125,358.16 308.43,357.133 307.953,355.998 C307.445,354.825 307.188,353.548 307.188,352.228 C307.188,350.985 307.445,349.74 307.878,348.645 C308.36,347.435 309.09,346.338 310.008,345.423 L306.12,341.543 L309.678,341.908 C311.285,345.75 312.49,349.59 313.115,353.328 C313.48,355.415 316.375,356.988 318.348,356.55 C321.385,355.928 320.798,352.193 320.258,350 C320.258,350 319.375,347.323 317.22,342.638 C318.31,342.675 319.375,342.933 320.365,343.295 C321.57,343.81 322.67,344.543 323.588,345.458 C324.46,346.3 325.163,347.323 325.633,348.46 C326.148,349.628 326.408,350.913 326.408,352.228 C326.408,353.478 326.148,354.72 325.703,355.82 C325.23,357.025 324.5,358.125 323.588,359.003 C322.745,359.88 321.713,360.575 320.583,361.053 C319.998,361.308 319.375,361.488 318.755,361.635" fill="#B4B5B4"/>
    <path d="M375.67,352.227 L326.408,352.227 M323.588,345.422 L358.432,310.572 M358.432,393.88 L323.588,359.04 M320.365,343.295 L338.735,297.582 M371.42,374.19 L325.703,355.82 M325.633,348.46 L370.95,329.095 M339.908,406.362 L320.583,361.052" fill-opacity="0" stroke="#6C4022" stroke-width="1.558" stroke-linecap="round" stroke-linejoin="round"/>
    <path d="M316.81,342.638 C316.958,342.638 317.065,342.638 317.22,342.638 C318.31,342.675 319.375,342.933 320.365,343.295 C321.57,343.81 322.67,344.543 323.588,345.458 C324.46,346.3 325.163,347.323 325.633,348.46 C326.148,349.628 326.408,350.913 326.408,352.228 C326.408,353.478 326.148,354.72 325.703,355.82 C325.23,357.025 324.5,358.125 323.588,359.003 C322.745,359.88 321.713,360.575 320.583,361.053 C319.998,361.308 319.375,361.488 318.755,361.635" fill-opacity="0" stroke="#6C4022" stroke-width="3.112" stroke-linecap="round" stroke-linejoin="round"/>
    <path d="M288.888,300.4 C304.078,317.64 312.608,332.943 316.81,341.835 L316.81,342.638 C316.958,342.638 317.065,342.638 317.22,342.638 C319.375,347.323 320.258,350 320.258,350 C320.798,352.193 321.385,355.927 318.348,356.55 C316.375,356.988 313.48,355.415 313.115,353.328 C312.49,349.59 311.285,345.75 309.678,341.908 C304.293,329.173 294.01,316.105 282.625,304.318 C282.625,304.318 282.59,304.318 282.625,304.28 C281.053,302.708 279.478,301.133 277.905,299.595 C255.463,277.522 230.76,260.94 230.76,260.94 L229.585,260.795 C229.955,258.015 230.323,255.342 230.653,252.853 L230.76,252.853 C253.75,266.508 271.24,281.44 284.345,295.423 C285.92,297.103 287.423,298.755 288.888,300.4" fill="#E46E64"/>
    <path d="M316.81,342.638 L316.81,293.335 M316.81,361.818 L316.81,411.123 M307.188,352.228 L257.917,352.228 M310.008,359.04 L302.87,366.17 L275.163,393.88 M310.008,345.423 L306.12,341.543 L275.163,310.573 M313.23,361.16 L312.312,363.468 L294.85,406.875 M307.878,348.645 L285.042,339.453 L262.163,330.265 M307.952,355.998 L262.642,375.358 M300.527,314.09 L293.675,298.093 L293.675,298.058" fill-opacity="0" stroke="#6C4022" stroke-width="1.558" stroke-linecap="round" stroke-linejoin="round"/>
    <path d="M318.603,361.673 C318.018,361.745 317.432,361.818 316.81,361.818 C315.568,361.818 314.325,361.562 313.23,361.16 C312.023,360.643 310.92,359.915 310.008,359.003 C309.125,358.16 308.43,357.133 307.953,355.997 C307.445,354.825 307.188,353.548 307.188,352.228 C307.188,350.985 307.445,349.74 307.878,348.645 C308.36,347.435 309.09,346.338 310.008,345.423 M229.078,387.293 L229.188,387.255 L257.188,379.243 L263.592,377.41 L312.312,363.467 L316.81,362.19 L318.603,361.673 L318.755,361.635 L319.195,361.488 M220.693,333.085 L253.305,336.305 L259.935,336.97 L285.043,339.453 L306.12,341.543 L309.678,341.908 M230.76,260.94 C230.76,260.94 255.463,277.523 277.905,299.595 C279.478,301.133 281.053,302.708 282.625,304.28 C282.59,304.318 282.625,304.318 282.625,304.318 C294.01,316.105 304.293,329.173 309.678,341.908 C311.285,345.75 312.49,349.59 313.115,353.328 C313.48,355.415 316.375,356.988 318.348,356.55 C321.385,355.928 320.798,352.193 320.258,350 C320.258,350 319.375,347.323 317.22,342.638 C317.065,342.383 316.958,342.125 316.81,341.835 C312.608,332.943 304.078,317.64 288.888,300.4 C287.423,298.755 285.92,297.103 284.345,295.423 C271.24,281.44 253.75,266.508 230.76,252.853" fill-opacity="0" stroke="#6C4022" stroke-width="3.112" stroke-linecap="round" stroke-linejoin="round"/>
    <path d="M64.89,363.315 L91.265,297.582" fill-opacity="0" stroke="#6C4022" stroke-width="1.558" stroke-linecap="round" stroke-linejoin="round"/>
    <g>
      <path d="M180.282,358.56 L180.062,358.453 L166.12,351.022 L166.005,350.945 L173.767,347.02 L181.712,351.425 L180.282,358.56 z" fill="#909190"/>
      <path d="M180.282,358.56 L180.062,358.453 L166.12,351.022 L166.005,350.945 L173.767,347.02 L181.712,351.425 L180.282,358.56 z" fill-opacity="0" stroke="#6C4022" stroke-width="3.112" stroke-linecap="round" stroke-linejoin="round"/>
    </g>
    <g>
      <path d="M173.622,347.142 L166.12,351.022 L158.875,354.755 C155.542,355.707 154.585,354.277 154.585,354.277 C151.59,350.912 153.015,348.712 153.747,347.95 C153.965,347.725 154.11,347.615 154.11,347.615 L157.445,346.12 L167.912,341.397 L173.622,347.142 z" fill="#909190"/>
      <path d="M173.622,347.142 L166.12,351.022 L158.875,354.755 C155.542,355.707 154.585,354.277 154.585,354.277 C151.59,350.912 153.015,348.712 153.747,347.95 C153.965,347.725 154.11,347.615 154.11,347.615 L157.445,346.12 L167.912,341.397 L173.622,347.142 z" fill-opacity="0" stroke="#6C4022" stroke-width="3.112" stroke-linecap="round" stroke-linejoin="round"/>
    </g>
    <g>
      <path d="M240.995,362.577 C240.995,379.59 227.205,393.387 210.19,393.387 C193.175,393.387 179.38,379.59 179.38,362.577 C179.38,345.562 193.175,331.772 210.19,331.772 C227.205,331.772 240.995,345.562 240.995,362.577 z" fill="#B4B5B4"/>
      <path d="M240.995,362.577 C240.995,379.59 227.205,393.387 210.19,393.387 C193.175,393.387 179.38,379.59 179.38,362.577 C179.38,345.562 193.175,331.772 210.19,331.772 C227.205,331.772 240.995,345.562 240.995,362.577 z" fill-opacity="0" stroke="#6C4022" stroke-width="3.112" stroke-linecap="round" stroke-linejoin="round"/>
    </g>
    <g>
      <path d="M206.015,365.22 L218.385,359.99 C224.5,358.962 224.975,367.602 220.29,369.505 C220.105,369.58 196.935,379.022 196.935,379.022 C195.072,379.242 193.167,378.985 192.25,377.23 C191.56,375.945 190.68,372.04 192.655,371.712 L206.015,365.22 z" fill="#909190"/>
      <path d="M206.015,365.22 L218.385,359.99 C224.5,358.962 224.975,367.602 220.29,369.505 C220.105,369.58 196.935,379.022 196.935,379.022 C195.072,379.242 193.167,378.985 192.25,377.23 C191.56,375.945 190.68,372.04 192.655,371.712 L206.015,365.22 z" fill-opacity="0" stroke="#6C4022" stroke-width="3.112" stroke-linecap="round" stroke-linejoin="round"/>
    </g>
    <g>
      <path d="M222.305,259.99 C222.305,259.99 213.425,332.613 208.777,364.055 L215.787,360.955 C216.375,356.855 217.837,345.64 219.67,332.755 C222.705,311.238 226.81,282.098 229.585,260.795 C229.955,258.015 230.322,255.343 230.652,252.853 C230.827,251.168 231.052,249.593 231.235,248.093 L222.305,259.99 z" fill="#B4B5B4"/>
      <path d="M222.305,259.99 C222.305,259.99 213.425,332.613 208.777,364.055 L215.787,360.955 C216.375,356.855 217.837,345.64 219.67,332.755 C222.705,311.238 226.81,282.098 229.585,260.795 C229.955,258.015 230.322,255.343 230.652,252.853 C230.827,251.168 231.052,249.593 231.235,248.093 L222.305,259.99 z" fill-opacity="0" stroke="#6C4022" stroke-width="3.112" stroke-linecap="round" stroke-linejoin="round"/>
    </g>
    <g>
      <path d="M160.255,245.497 L151.735,250.475 C151.735,250.475 165.272,284.517 168.865,306.805 L169.34,308.085 C176.952,313.8 172.452,323.095 172.452,323.095 C172.122,326.978 170.075,329.057 169.012,331.88 L169.012,331.915 L165.715,338.357 C162.787,342.753 159.825,344.765 159.825,344.765 C159.055,345.237 158.25,345.677 157.445,346.12 C156.235,346.812 155.03,347.435 153.747,347.95 C153.125,348.202 152.505,348.46 151.885,348.677 C150.085,349.3 146.685,350.293 145.952,347.762 C144.962,344.392 148.548,340.92 149.755,338.135 C150.455,336.525 151.037,334.805 151.475,333.085 C152.467,329.717 153.05,326.168 153.602,322.765 L153.602,322.728 L154.585,313.688 C153.93,308.745 153.382,307.758 152.43,305.122 C148.842,294.908 144.048,285.062 139.322,275.293 C135.45,267.277 130.507,259.7 127.87,251.095 C126.48,246.632 124.725,239.82 127.325,235.505 C129.48,231.917 135.45,229.757 139.107,228.255 C141.817,227.16 144.637,226.022 147.452,225.255 L160.255,245.497 z" fill="#F7CEAA"/>
      <path d="M160.255,245.497 L151.735,250.475 C151.735,250.475 165.272,284.517 168.865,306.805 L169.34,308.085 C176.952,313.8 172.452,323.095 172.452,323.095 C172.122,326.978 170.075,329.057 169.012,331.88 L169.012,331.915 L165.715,338.357 C162.787,342.753 159.825,344.765 159.825,344.765 C159.055,345.237 158.25,345.677 157.445,346.12 C156.235,346.812 155.03,347.435 153.747,347.95 C153.125,348.202 152.505,348.46 151.885,348.677 C150.085,349.3 146.685,350.293 145.952,347.762 C144.962,344.392 148.548,340.92 149.755,338.135 C150.455,336.525 151.037,334.805 151.475,333.085 C152.467,329.717 153.05,326.168 153.602,322.765 L153.602,322.728 L154.585,313.688 C153.93,308.745 153.382,307.758 152.43,305.122 C148.842,294.908 144.048,285.062 139.322,275.293 C135.45,267.277 130.507,259.7 127.87,251.095 C126.48,246.632 124.725,239.82 127.325,235.505 C129.48,231.917 135.45,229.757 139.107,228.255 C141.817,227.16 144.637,226.022 147.452,225.255 L160.255,245.497 z" fill-opacity="0" stroke="#6C4022" stroke-width="3.112" stroke-linecap="round" stroke-linejoin="round"/>
    </g>
    <g>
      <path d="M165.715,338.357 C162.787,342.753 159.825,344.765 159.825,344.765 C159.055,345.237 158.25,345.677 157.445,346.12 L154.11,347.615 C154.11,347.615 153.965,347.725 153.747,347.95 C153.125,348.202 152.505,348.46 151.885,348.677 C150.085,349.3 146.685,350.293 145.952,347.762 C144.962,344.392 148.548,340.92 149.755,338.135 C150.455,336.525 151.037,334.805 151.475,333.085 C151.475,333.085 154.775,332.39 158.322,329.353 L162.607,324.41 C165.167,320.383 167.84,318.008 168.865,306.805 L169.34,308.085 C176.952,313.8 172.452,323.095 172.452,323.095 C172.122,326.978 170.075,329.057 169.012,331.88 L165.715,338.357 z" fill="#BC564C"/>
      <path d="M165.715,338.357 C162.787,342.753 159.825,344.765 159.825,344.765 C159.055,345.237 158.25,345.677 157.445,346.12 L154.11,347.615 C154.11,347.615 153.965,347.725 153.747,347.95 C153.125,348.202 152.505,348.46 151.885,348.677 C150.085,349.3 146.685,350.293 145.952,347.762 C144.962,344.392 148.548,340.92 149.755,338.135 C150.455,336.525 151.037,334.805 151.475,333.085 C151.475,333.085 154.775,332.39 158.322,329.353 L162.607,324.41 C165.167,320.383 167.84,318.008 168.865,306.805 L169.34,308.085 C176.952,313.8 172.452,323.095 172.452,323.095 C172.122,326.978 170.075,329.057 169.012,331.88 L165.715,338.357 z" fill-opacity="0" stroke="#6C4022" stroke-width="3.112" stroke-linecap="round" stroke-linejoin="round"/>
    </g>
    <g>
      <path d="M101.223,213.76 C100.09,214.895 97.783,215.482 95.478,215.737 C92.07,216.18 88.63,215.92 88.63,215.92 L87.975,221.705 C90.497,221.705 92.985,221.485 94.997,221.23 C98.075,220.827 100.162,220.35 100.162,220.35 L101.223,213.76 z" fill="#B4B5B4"/>
      <path d="M101.223,213.76 C100.09,214.895 97.783,215.482 95.478,215.737 C92.07,216.18 88.63,215.92 88.63,215.92 L87.975,221.705 C90.497,221.705 92.985,221.485 94.997,221.23 C98.075,220.827 100.162,220.35 100.162,220.35 L101.223,213.76 z" fill-opacity="0" stroke="#6C4022" stroke-width="3.112" stroke-linecap="round" stroke-linejoin="round"/>
    </g>
    <path d="M95.64,168.935 C95.615,167.495 95.962,166.36 96.68,165.122 C97.502,163.708 98.97,162.948 100.52,162.493 C101.787,162.115 102.327,162.217 103.368,163.062 C104.57,164.043 105.81,165.888 105.938,167.478 C106.158,170.253 102.955,171.923 101.122,173.425 C100.277,174.115 99.065,175.278 97.86,174.857 C96.298,174.31 96.12,172.33 95.895,170.952 C95.787,170.283 95.658,169.615 95.64,168.935" fill="#E46E64"/>
    <g>
      <path d="M195.082,157.583 C184.647,177.97 176.197,177.473 176.197,177.473 L116.045,172.995 C106.6,172.995 105.542,166.693 105.542,166.693 C99.32,158.125 91.522,173.315 99.83,174.785 C101.827,178.33 98.405,180.018 98.405,180.018 C88.375,177.562 86.985,171.743 87.682,167.2 C88.16,163.725 89.837,160.98 89.837,160.98 C99.355,152.418 112.827,158.637 112.897,158.637 C115.497,159.845 139.765,160.69 148.477,160.91 L171.282,161.312 L177.945,151.793 L195.082,157.583 z" fill="#F7CEAA"/>
      <path d="M195.082,157.583 C184.647,177.97 176.197,177.473 176.197,177.473 L116.045,172.995 C106.6,172.995 105.542,166.693 105.542,166.693 C99.32,158.125 91.522,173.315 99.83,174.785 C101.827,178.33 98.405,180.018 98.405,180.018 C88.375,177.562 86.985,171.743 87.682,167.2 C88.16,163.725 89.837,160.98 89.837,160.98 C99.355,152.418 112.827,158.637 112.897,158.637 C115.497,159.845 139.765,160.69 148.477,160.91 L171.282,161.312 L177.945,151.793 L195.082,157.583 z" fill-opacity="0" stroke="#6C4022" stroke-width="3.112" stroke-linecap="round" stroke-linejoin="round"/>
    </g>
    <path d="M192.545,82.91 C169.227,96.927 164.912,69.952 164.912,69.952 C163.555,69.695 161.945,69.327 160.775,68.56 C159.68,67.863 159.162,66.768 159.68,65.522 C160.335,63.838 162.312,63.362 163.262,61.972 C163.882,61.057 163.847,59.85 163.812,58.785 C163.737,57.138 163.447,55.452 163.01,53.847 C160.042,32.653 164.947,23.358 169.705,18.198 C169.705,18.198 177.832,1.98 204.405,4.215 C204.405,4.215 224.902,3.625 234.677,21.267 C234.677,21.267 239.287,31.04 245.033,31.59 C245.033,31.59 260.955,36.603 260.735,46.56 C260.735,46.56 256.158,43.487 253.082,44.255 C253.082,44.255 255.98,52.493 262.492,53.077 C262.492,53.077 258.467,57.467 249.06,53.077 C249.06,53.077 252.135,58.64 260.367,58.235 C260.367,58.235 254.992,63.432 245.99,61.312 C245.99,61.312 254.992,67.275 254.992,75.515 C254.992,75.515 248.107,70.495 243.685,71.083 C243.685,71.083 248.257,75.848 247.525,81.995 C247.525,81.262 245.585,79.613 245.22,79.173 C243.495,77.385 241.155,75.848 238.772,75.11 C236.87,74.525 234.827,74.855 232.917,75.295 C230.322,75.918 228.275,76.978 225.925,78.15 C223.697,79.25 220.475,79.465 218.02,79.505 C215.24,79.543 212.272,79.067 209.967,77.418 C209.967,77.418 209.09,89.605 209.09,95.173 L209.052,95.645 C207.225,95.535 205.395,95.683 203.565,96.122 C201.732,96.598 200.048,97.368 198.51,98.357 L197.377,97.842 C196.792,94.217 192.69,83.162 192.69,83.162 L192.545,82.91" fill="#F7CEAA"/>
    <path d="M225.925,78.15 C228.275,76.978 230.322,75.917 232.917,75.295 C234.827,74.855 236.87,74.525 238.772,75.11 C241.155,75.847 243.495,77.385 245.22,79.173 C245.585,79.612 247.525,81.262 247.525,81.995 C248.257,75.847 243.685,71.082 243.685,71.082 C248.107,70.495 254.992,75.515 254.992,75.515 C254.992,67.275 245.99,61.312 245.99,61.312 C254.992,63.432 260.367,58.235 260.367,58.235 C252.135,58.64 249.06,53.077 249.06,53.077 C258.467,57.467 262.492,53.077 262.492,53.077 C255.98,52.492 253.083,44.255 253.083,44.255 C256.158,43.487 260.735,46.56 260.735,46.56 C260.955,36.602 245.033,31.59 245.033,31.59 C239.287,31.04 234.678,21.267 234.678,21.267 C224.902,3.625 204.405,4.215 204.405,4.215 C183.12,2.427 173.693,12.457 170.772,16.525 C171.227,19.365 171.613,21.452 171.613,21.452 C171.613,21.452 175.635,53.662 205.357,52.492 C205.94,52.492 207.188,50.99 207.553,50.59 C208.43,49.747 210.152,47.88 211.065,47.077 C213.007,45.315 215.46,44.73 217.583,46.45 C221.977,49.97 220.878,56.992 217.033,60.435 C216.045,61.35 214.652,62.157 213.337,62.517 C211.58,63 209.452,63.035 207.658,62.85 C207.658,72.91 209.967,77.417 209.967,77.417 C212.272,79.067 215.24,79.542 218.02,79.505 C220.475,79.465 223.697,79.25 225.925,78.15" fill="#8B6B46"/>
    <path d="M264.068,207.175 C264.068,207.175 265.495,233.82 233.618,242.862 C238.815,232.94 241.89,222.257 240.24,211.932 L240.273,211.932 C240.273,211.932 245.515,208.125 248.365,204.797 C248.365,204.797 261.69,191.915 264.068,207.175" fill="#E46E64"/>
    <path d="M147.708,225.11 L145,219.837 L186.69,205.342 C186.54,206.37 186.398,207.32 186.18,208.125 C186.18,208.125 216.777,212.662 237.82,201.387 L237.938,201.61 C237.938,201.61 240.133,211.31 240.24,211.932 C241.89,222.257 238.815,232.94 233.618,242.863 C232.702,244.542 231.79,246.192 230.792,247.84 C228.195,252.125 225.305,256.185 222.305,259.99 C210.045,275.545 196.173,286.527 196.173,286.527 C194.268,284.81 187.383,277.815 179.99,270.312 C174.135,264.35 167.982,258.047 163.702,253.66 C160.37,250.253 158.212,248.02 158.212,248.02 C158.25,247.985 158.288,247.912 158.322,247.875 L147.708,225.11" fill="#8E705B"/>
    <path d="M172.082,51.905 C173.385,51.905 174.425,53.38 174.425,55.233 C174.425,57.088 173.385,58.618 172.082,58.618 C170.772,58.618 169.692,57.088 169.692,55.233 C169.692,53.38 170.772,51.905 172.082,51.905" fill="#6C4022"/>
    <path d="M95.477,215.738 C95.817,212.513 96.337,207.175 96.337,207.175 L101.66,207.175 C101.66,207.175 101.407,211.75 101.222,213.76 C100.09,214.895 97.782,215.483 95.477,215.738" fill="#B4B5B4"/>
    <path d="M90.463,196.34 L88.923,210.575 L71.573,210.575 L71.865,196.34 L90.463,196.34" fill="#AE7E52"/>
    <path d="M88.923,210.575 L87.717,221.667 L87.202,226.277 L71.21,226.277 L71.573,210.575 L88.923,210.575" fill="#C78E5D"/>
    <path d="M30.835,177.817 C30.835,159.295 19.2,168.375 19.2,168.375 C20.037,170.095 21.465,171.485 22.602,172.617 C24.285,174.307 28.457,176.572 30.835,177.817 z M87.423,164.825 C87.423,165.665 87.35,166.438 87.277,167.132 C86.545,171.927 83.505,173.35 81.967,174.785 C76.185,180.197 82.01,188.945 80.542,195.277 L80.542,196.34 L27.175,196.34 C27.175,196.34 15.535,192.862 15.535,178.475 C15.535,178.475 18.207,172.617 11.62,169.438 C11.62,169.438 4.81,161.895 15.06,156.512 C15.06,156.512 21.395,158.455 25.31,158.455 C25.31,158.455 31.39,157.247 32.37,162.628 C32.37,162.628 36.765,170.425 36.765,177.012 C36.765,177.012 37.715,181.622 41.887,181.622 C41.887,181.622 43.465,181.88 45.512,181.737 C47.855,181.587 50.82,180.965 52.835,178.952 C53.237,178.585 53.6,178.222 53.927,177.89 C57.04,174.927 58.877,173.827 62.352,173.827 C66.265,173.827 68.68,172.365 68.68,167.237 C68.68,162.117 70.182,156.512 77.725,156.512 C85.3,156.512 87.423,158.125 87.423,164.825" fill="#E4E4E3"/>
    <path d="M87.202,226.277 L85.592,240.923 L70.918,240.923 L71.21,226.277 L87.202,226.277" fill="#AE7E52"/>
    <path d="M85.592,240.923 L84.055,255.053 L70.623,255.053 L70.918,240.923 L85.592,240.923" fill="#C78E5D"/>
    <path d="M84.055,255.053 L83.505,260.103 L82.88,265.885 L82.445,269.878 L70.293,269.878 L70.623,255.053 L84.055,255.053" fill="#AE7E52"/>
    <path d="M71.865,196.34 L71.573,210.575 L56.458,210.575 L55.693,196.34 L71.865,196.34" fill="#C78E5D"/>
    <path d="M71.572,210.575 L71.21,226.277 L57.337,226.277 L56.457,210.575 L71.572,210.575" fill="#AE7E52"/>
    <path d="M71.21,226.277 L70.918,240.923 L58.143,240.923 L57.338,226.277 L71.21,226.277" fill="#C78E5D"/>
    <path d="M70.918,240.923 L70.622,255.053 L58.912,255.053 L58.142,240.923 L70.918,240.923" fill="#AE7E52"/>
    <path d="M70.622,255.053 L70.293,269.878 L59.713,269.878 L58.912,255.053 L70.622,255.053" fill="#C78E5D"/>
    <path d="M58.913,255.053 L59.713,269.878 L48.155,269.878 L45.625,255.053 L58.913,255.053" fill="#AE7E52"/>
    <path d="M58.143,240.923 L58.913,255.053 L45.625,255.053 L43.24,240.923 L58.143,240.923" fill="#C78E5D"/>
    <path d="M57.338,226.277 L58.142,240.923 L43.24,240.923 L40.757,226.277 L57.338,226.277" fill="#AE7E52"/>
    <path d="M56.458,210.575 L57.338,226.277 L40.757,226.277 L38.12,210.575 L56.458,210.575" fill="#C78E5D"/>
    <path d="M55.693,196.34 L56.458,210.575 L38.12,210.575 L35.7,196.34 L55.693,196.34" fill="#AE7E52"/>
    <path d="M45.77,148.937 L53.927,177.89 C53.6,178.222 53.237,178.585 52.835,178.952 C50.82,180.965 47.855,181.587 45.512,181.737 L37.975,151.392 L45.77,148.937" fill="#FFFFFE"/>
    <path d="M45.625,255.053 L48.155,269.878 L37.243,269.878 L33.18,255.053 L45.625,255.053" fill="#C78E5D"/>
    <path d="M42.843,139.46 L45.77,148.938 L37.975,151.393 L34.318,141.875 C34.318,141.875 5.398,123.207 3.35,121.155 L11.62,108.712 L33.838,130.893 L35.775,115.302 L44.088,115.302 L42.843,139.46" fill="#67B38A"/>
    <path d="M43.24,240.923 L45.625,255.053 L33.18,255.053 L29.33,240.923 L43.24,240.923" fill="#AE7E52"/>
    <path d="M40.757,226.277 L43.24,240.923 L29.33,240.923 L25.35,226.277 L40.757,226.277" fill="#C78E5D"/>
    <path d="M38.12,210.575 L40.757,226.277 L25.31,226.277 L21.027,210.575 L38.12,210.575" fill="#AE7E52"/>
    <path d="M35.7,196.34 L38.12,210.575 L21.028,210.575 L17.142,196.34 L35.7,196.34" fill="#C78E5D"/>
    <path d="M192.69,83.162 C192.69,83.162 196.792,94.217 197.378,97.842 M204.587,73.387 C200.085,77.675 196.1,80.75 192.545,82.91 C169.227,96.927 164.912,69.952 164.912,69.952 C163.555,69.695 161.945,69.327 160.775,68.56 C159.68,67.862 159.162,66.767 159.68,65.522 C160.335,63.837 162.312,63.362 163.262,61.972 C163.882,61.057 163.848,59.85 163.812,58.785 C163.738,57.137 163.447,55.452 163.01,53.847 C160.042,32.652 164.947,23.357 169.705,18.197 C169.705,18.197 177.833,1.98 204.405,4.215 C204.405,4.215 224.902,3.625 234.677,21.267 C234.677,21.267 239.287,31.04 245.033,31.59 C245.033,31.59 260.955,36.602 260.735,46.56 C260.735,46.56 256.158,43.487 253.083,44.255 C253.083,44.255 255.98,52.492 262.492,53.077 C262.492,53.077 258.467,57.467 249.06,53.077 C249.06,53.077 252.135,58.64 260.367,58.235 C260.367,58.235 254.992,63.432 245.99,61.312 C245.99,61.312 254.992,67.275 254.992,75.515 C254.992,75.515 248.107,70.495 243.685,71.082 C243.685,71.082 248.257,75.847 247.525,82.03 L247.525,81.995 C247.525,81.262 245.585,79.612 245.22,79.172 C243.495,77.385 241.155,75.847 238.772,75.11 C236.87,74.525 234.827,74.855 232.917,75.295 C230.322,75.917 228.275,76.977 225.925,78.15 C223.697,79.25 220.475,79.465 218.02,79.505 C215.24,79.542 212.272,79.067 209.967,77.417 C209.967,77.417 209.09,89.605 209.09,95.172 M188.485,216.765 C188.485,216.765 158.54,247.583 158.322,247.875 C158.287,247.912 158.25,247.985 158.212,248.02 C158.212,248.02 160.37,250.253 163.702,253.66 C167.982,258.047 174.135,264.35 179.99,270.312 C187.382,277.815 194.268,284.81 196.173,286.527 C196.173,286.527 210.045,275.545 222.305,259.99 C225.305,256.185 228.195,252.125 230.792,247.84 C231.79,246.192 232.702,244.542 233.617,242.863 C238.815,232.94 241.89,222.257 240.24,211.932 C240.132,211.31 240.025,210.69 239.875,210.065 L237.938,201.61" fill-opacity="0" stroke="#6C4022" stroke-width="3.112" stroke-linecap="round" stroke-linejoin="round"/>
    <g>
      <path d="M164.11,294.143 L157.115,284.513 C150.492,276.277 152.062,268.633 155.36,263.027 C158.583,257.395 163.52,253.845 163.52,253.845 L179.99,270.312 L177.725,274.453 C183.648,280.415 210.665,329.828 210.665,329.828 C211.803,329.865 212.753,330.05 213.52,330.342 C214.693,330.742 215.527,331.363 216.117,332.17 C219.555,337.038 213.372,347.658 213.372,347.658 C209.75,352.78 209.635,359.443 206.087,364.6 C205.977,364.747 205.87,364.893 205.762,365.04 C202.795,369.103 198.363,371.59 193.648,373.092 C193.28,373.203 192.952,373.312 192.583,373.385 C189.288,374.225 186.283,373.605 187.13,369.358 C187.533,367.2 188.375,364.635 189.58,362.772 C191.378,360.022 192.765,356.842 193.788,353.693 C196.245,346.37 196.902,339.418 196.902,339.418 L194.488,336.05 L164.11,294.175" fill="#F7CEAA"/>
      <path d="M164.11,294.143 L157.115,284.513 C150.492,276.277 152.062,268.633 155.36,263.027 C158.583,257.395 163.52,253.845 163.52,253.845 L179.99,270.312 L177.725,274.453 C183.648,280.415 210.665,329.828 210.665,329.828 C211.803,329.865 212.753,330.05 213.52,330.342 C214.693,330.742 215.527,331.363 216.117,332.17 C219.555,337.038 213.372,347.658 213.372,347.658 C209.75,352.78 209.635,359.443 206.087,364.6 C205.977,364.747 205.87,364.893 205.762,365.04 C202.795,369.103 198.363,371.59 193.648,373.092 C193.28,373.203 192.952,373.312 192.583,373.385 C189.288,374.225 186.283,373.605 187.13,369.358 C187.533,367.2 188.375,364.635 189.58,362.772 C191.378,360.022 192.765,356.842 193.788,353.693 C196.245,346.37 196.902,339.418 196.902,339.418 L194.488,336.05 L164.11,294.175" fill-opacity="0" stroke="#6C4022" stroke-width="3.112" stroke-linecap="round" stroke-linejoin="round"/>
    </g>
    <path d="M82.445,269.878 L82.88,265.885 M35.7,196.34 L38.12,210.575 L40.757,226.278 L43.24,240.923 L45.625,255.053 L48.155,269.878 M55.692,196.34 L56.457,210.575 L57.337,226.278 L58.912,255.053 L59.712,269.878 M71.865,196.34 L71.572,210.575 L71.21,226.278 L70.917,240.923 L70.622,255.053 L70.292,269.878 M21.027,210.575 L88.922,210.575 M25.31,226.278 L87.13,226.278 M29.33,240.923 L85.592,240.923 M33.18,255.053 L84.055,255.053 M83.505,260.103 L85.592,240.923 L87.202,226.278 L87.717,221.668 L88.922,210.575 L90.462,196.34 L17.142,196.34 L25.31,226.278 L25.35,226.278 L33.18,255.053 L37.242,269.878 L82.445,269.878 M240.272,211.933 C240.272,211.933 245.515,208.125 248.365,204.798 C248.365,204.798 261.69,191.915 264.068,207.175 C264.068,207.175 265.495,233.82 233.617,242.863" fill-opacity="0" stroke="#6C4022" stroke-width="3.112" stroke-linecap="round" stroke-linejoin="round"/>
    <g>
      <path d="M111.248,164.787 C105.163,164.927 101.188,171.562 98.623,180.087 C94.96,192.242 94.123,207.175 94.123,207.175 L104.593,207.175 C104.593,207.175 105.065,190.007 109.823,185.725 C109.823,185.725 125.823,164.452 111.248,164.787 z" fill="#E46E64"/>
      <path d="M111.248,164.787 C105.163,164.927 101.188,171.562 98.623,180.087 C94.96,192.242 94.123,207.175 94.123,207.175 L104.593,207.175 C104.593,207.175 105.065,190.007 109.823,185.725 C109.823,185.725 125.823,164.452 111.248,164.787 z" fill-opacity="0" stroke="#6C4022" stroke-width="3.112" stroke-linecap="round" stroke-linejoin="round"/>
    </g>
    <g>
      <path d="M78.93,352.228 C78.93,350.878 78.68,349.59 78.16,348.46 C77.685,347.365 77.027,346.37 76.185,345.53 C76.185,345.492 76.147,345.457 76.112,345.422 L76.02,345.385 C75.16,344.53 74.092,343.818 72.91,343.318 C71.812,342.88 70.567,342.62 69.32,342.62 C68.007,342.62 66.722,342.915 65.557,343.388 C65.025,343.633 64.52,343.92 64.042,344.235 C64.012,344.258 63.982,344.267 63.95,344.288 C63.445,344.633 62.975,345.013 62.555,345.44 L62.55,345.448 C62.545,345.452 62.537,345.452 62.532,345.457 C62.17,345.827 61.845,346.245 61.535,346.682 C61.095,347.3 60.695,347.955 60.392,348.663 C60.307,348.905 60.255,349.172 60.18,349.43 C59.9,350.325 59.712,351.267 59.712,352.228 C59.712,352.883 59.787,353.525 59.92,354.158 C59.98,354.462 60.097,354.747 60.185,355.04 C60.285,355.36 60.357,355.693 60.482,355.997 C60.552,356.147 60.65,356.283 60.722,356.435 C61.172,357.36 61.75,358.217 62.485,358.935 C62.497,358.957 62.52,358.982 62.532,359.003 C62.532,359.003 62.537,359.003 62.537,359.005 C62.545,359.01 62.55,359.015 62.555,359.02 C63.362,359.862 64.368,360.525 65.46,361.003 C65.565,361.05 65.652,361.117 65.752,361.16 C65.96,361.232 66.19,361.275 66.397,361.34 C67.33,361.635 68.315,361.84 69.32,361.84 C70.68,361.84 71.957,361.58 73.09,361.068 C73.647,360.827 74.173,360.54 74.662,360.207 C74.945,360.017 75.185,359.79 75.44,359.57 C75.63,359.405 75.842,359.27 76.02,359.095 C76.055,359.095 76.09,359.057 76.125,359.02 L76.155,358.95 C77.05,358.075 77.767,357.003 78.235,355.82 C78.68,354.72 78.93,353.478 78.93,352.228 z" fill="#B4B5B4"/>
      <path d="M78.93,352.228 C78.93,350.878 78.68,349.59 78.16,348.46 C77.685,347.365 77.027,346.37 76.185,345.53 C76.185,345.492 76.147,345.457 76.112,345.422 L76.02,345.385 C75.16,344.53 74.092,343.818 72.91,343.318 C71.812,342.88 70.567,342.62 69.32,342.62 C68.007,342.62 66.722,342.915 65.557,343.388 C65.025,343.633 64.52,343.92 64.042,344.235 C64.012,344.258 63.982,344.267 63.95,344.288 C63.445,344.633 62.975,345.013 62.555,345.44 L62.55,345.448 C62.545,345.452 62.537,345.452 62.532,345.457 C62.17,345.827 61.845,346.245 61.535,346.682 C61.095,347.3 60.695,347.955 60.392,348.663 C60.307,348.905 60.255,349.172 60.18,349.43 C59.9,350.325 59.712,351.267 59.712,352.228 C59.712,352.883 59.787,353.525 59.92,354.158 C59.98,354.462 60.097,354.747 60.185,355.04 C60.285,355.36 60.357,355.693 60.482,355.997 C60.552,356.147 60.65,356.283 60.722,356.435 C61.172,357.36 61.75,358.217 62.485,358.935 C62.497,358.957 62.52,358.982 62.532,359.003 C62.532,359.003 62.537,359.003 62.537,359.005 C62.545,359.01 62.55,359.015 62.555,359.02 C63.362,359.862 64.368,360.525 65.46,361.003 C65.565,361.05 65.652,361.117 65.752,361.16 C65.96,361.232 66.19,361.275 66.397,361.34 C67.33,361.635 68.315,361.84 69.32,361.84 C70.68,361.84 71.957,361.58 73.09,361.068 C73.647,360.827 74.173,360.54 74.662,360.207 C74.945,360.017 75.185,359.79 75.44,359.57 C75.63,359.405 75.842,359.27 76.02,359.095 C76.055,359.095 76.09,359.057 76.125,359.02 L76.155,358.95 C77.05,358.075 77.767,357.003 78.235,355.82 C78.68,354.72 78.93,353.478 78.93,352.228 z" fill-opacity="0" stroke="#6C4022" stroke-width="3.112" stroke-linecap="round" stroke-linejoin="round"/>
    </g>
    <path d="M69.34,342.638 L69.34,293.335 M69.34,361.818 L69.34,411.123 M59.713,352.228 L10.448,352.228 M128.235,352.228 L78.93,352.228 M76.113,345.423 L76.298,345.238 L110.96,310.613 L110.96,310.573 M62.533,359.04 L27.688,393.88 M62.533,345.423 L27.688,310.573 M110.96,393.88 L76.113,359.04 M65.753,361.16 L47.378,406.875 M60.415,348.645 L14.695,330.265 M123.99,374.19 L78.235,355.82 M78.16,348.46 L123.478,329.095 M60.483,355.998 L15.17,375.358 M65.573,343.41 L46.21,298.058 M92.44,406.363 L73.11,361.053" fill-opacity="0" stroke="#6C4022" stroke-width="1.558" stroke-linecap="round" stroke-linejoin="round"/>
    <g>
      <path d="M90.28,290.225 C116.118,298.973 134.745,323.423 134.745,352.228 C134.745,388.353 105.467,417.675 69.34,417.675 C33.217,417.675 3.897,388.353 3.897,352.228 C3.897,316.105 33.217,286.783 69.34,286.783 C74.577,286.783 79.66,287.403 84.532,288.575 L90.28,290.225 z M83.142,294.988 C78.712,293.923 74.103,293.335 69.34,293.335 C61.142,293.335 53.307,295.02 46.21,298.058 C39.255,301.02 32.96,305.305 27.687,310.573 C22.13,316.143 17.662,322.84 14.695,330.265 C11.947,337.075 10.447,344.473 10.447,352.228 C10.447,360.428 12.132,368.26 15.17,375.358 C18.135,382.315 22.42,388.613 27.687,393.88 C33.252,399.445 39.952,403.915 47.377,406.875 C54.152,409.623 61.582,411.123 69.34,411.123 C77.54,411.123 85.375,409.438 92.475,406.398 C99.43,403.438 105.685,399.153 110.96,393.88 C116.522,388.32 120.987,381.618 123.99,374.19 C126.735,367.42 128.235,359.99 128.235,352.228 C128.235,344.03 126.55,336.198 123.515,329.095 C120.51,322.14 116.23,315.883 110.96,310.613 C105.392,305.01 98.7,300.548 91.265,297.583 C90.497,297.25 89.695,296.958 88.887,296.668 L83.142,294.988 z" fill="#B4B5B4"/>
      <path d="M90.28,290.225 C116.118,298.973 134.745,323.423 134.745,352.228 C134.745,388.353 105.467,417.675 69.34,417.675 C33.217,417.675 3.897,388.353 3.897,352.228 C3.897,316.105 33.217,286.783 69.34,286.783 C74.577,286.783 79.66,287.403 84.532,288.575 L90.28,290.225 z M83.142,294.988 C78.712,293.923 74.103,293.335 69.34,293.335 C61.142,293.335 53.307,295.02 46.21,298.058 C39.255,301.02 32.96,305.305 27.687,310.573 C22.13,316.143 17.662,322.84 14.695,330.265 C11.947,337.075 10.447,344.473 10.447,352.228 C10.447,360.428 12.132,368.26 15.17,375.358 C18.135,382.315 22.42,388.613 27.687,393.88 C33.252,399.445 39.952,403.915 47.377,406.875 C54.152,409.623 61.582,411.123 69.34,411.123 C77.54,411.123 85.375,409.438 92.475,406.398 C99.43,403.438 105.685,399.153 110.96,393.88 C116.522,388.32 120.987,381.618 123.99,374.19 C126.735,367.42 128.235,359.99 128.235,352.228 C128.235,344.03 126.55,336.198 123.515,329.095 C120.51,322.14 116.23,315.883 110.96,310.613 C105.392,305.01 98.7,300.548 91.265,297.583 C90.497,297.25 89.695,296.958 88.887,296.668 L83.142,294.988 z" fill-opacity="0" stroke="#6C4022" stroke-width="3.112" stroke-linecap="round" stroke-linejoin="round"/>
    </g>
    <path d="M80.543,195.277 C82.01,188.945 76.185,180.197 81.967,174.785 C83.505,173.35 86.545,171.927 87.278,167.132 C87.35,166.438 87.423,165.665 87.423,164.825 C87.423,158.125 85.3,156.512 77.725,156.512 C70.183,156.512 68.68,162.117 68.68,167.238 C68.68,172.365 66.265,173.827 62.353,173.827 C58.878,173.827 57.04,174.927 53.928,177.89 C53.6,178.222 53.238,178.585 52.835,178.952 C50.82,180.965 47.855,181.587 45.513,181.738 C43.465,181.88 41.888,181.622 41.888,181.622 C37.715,181.622 36.765,177.012 36.765,177.012 C36.765,170.425 32.37,162.628 32.37,162.628 C31.39,157.247 25.31,158.455 25.31,158.455 C21.395,158.455 15.06,156.512 15.06,156.512 C4.81,161.895 11.62,169.438 11.62,169.438 C18.208,172.617 15.535,178.475 15.535,178.475 C15.535,192.863 27.175,196.34 27.175,196.34 M32.595,178.695 C32.595,178.695 31.898,178.367 30.835,177.817 C28.458,176.572 24.285,174.307 22.603,172.617 C21.465,171.485 20.038,170.095 19.2,168.375 C18.243,166.51 18.025,164.2 19.67,161.382 M19.2,168.375 C19.2,168.375 30.835,159.295 30.835,177.817 M45.77,148.938 L42.843,139.46 L44.088,115.302 L35.775,115.302 L33.838,130.893 L11.62,108.712 L3.35,121.155 C5.398,123.207 34.318,141.875 34.318,141.875 L37.975,151.393 L45.77,148.938 z M37.975,151.393 L45.513,181.738 M45.77,148.938 L53.928,177.89" fill-opacity="0" stroke="#6C4022" stroke-width="3.112" stroke-linecap="round" stroke-linejoin="round"/>
    <g>
      <path d="M96.135,257.942 C94.927,259.15 92.44,259.735 89.987,259.955 C86.692,260.32 83.505,260.102 83.505,260.102 L82.88,265.885 C85.082,265.885 87.202,265.74 89.072,265.482 C92.587,265.117 95.07,264.527 95.07,264.527 L96.135,257.942 z" fill="#B4B5B4"/>
      <path d="M96.135,257.942 C94.927,259.15 92.44,259.735 89.987,259.955 C86.692,260.32 83.505,260.102 83.505,260.102 L82.88,265.885 C85.082,265.885 87.202,265.74 89.072,265.482 C92.587,265.117 95.07,264.527 95.07,264.527 L96.135,257.942 z" fill-opacity="0" stroke="#6C4022" stroke-width="3.112" stroke-linecap="round" stroke-linejoin="round"/>
    </g>
    <path d="M171.612,21.453 C171.612,21.453 175.635,53.663 205.357,52.493 C205.94,52.493 207.187,50.99 207.552,50.59 C208.43,49.748 210.152,47.88 211.065,47.078 C213.007,45.315 215.46,44.73 217.582,46.45 C221.977,49.97 220.877,56.993 217.032,60.435 C216.045,61.35 214.652,62.158 213.337,62.518 C211.58,63 209.452,63.035 207.657,62.85" fill-opacity="0" stroke="#6C4022" stroke-width="3.112" stroke-linecap="round" stroke-linejoin="round"/>
    <path d="M195.51,65.698 C195.51,70.723 191.433,74.8 186.41,74.8 C181.378,74.8 177.3,70.723 177.3,65.698 C177.3,60.665 181.378,56.585 186.41,56.585 C191.433,56.585 195.51,60.665 195.51,65.698 z" fill="url(#Gradient_1)"/>
    <path d="M168.755,78.372 C168.755,78.372 179.295,80.27 179.663,69.952" fill-opacity="0" stroke="#6C4022" stroke-width="3.112" stroke-linecap="round" stroke-linejoin="round"/>
    <path d="M167.125,46.655 C167.125,46.655 171.682,38.453 177.705,47.735" fill-opacity="0" stroke="#6C4022" stroke-width="1.558" stroke-linecap="round" stroke-linejoin="round"/>
    <g>
      <path d="M227.392,121.12 C233.362,128.807 237.937,165.592 237.937,165.592 C239.287,173.645 248.107,193.555 248.107,193.555 C245.142,196.775 241.667,199.34 237.82,201.387 C216.777,212.662 186.18,208.125 186.18,208.125 C186.397,207.32 186.54,206.37 186.69,205.342 C187.897,196.67 186.947,181.515 186.947,181.515 C186.947,176.612 181.2,157.722 181.2,157.722 C178.927,155.417 177.945,151.792 177.945,151.792 C180.427,139.9 189.07,117.502 189.07,117.502 C189.07,117.502 194.272,97.12 207.107,100.01 C207.107,100.01 220.762,100.492 227.392,121.12 z" fill="#EFA781"/>
      <path d="M227.392,121.12 C233.362,128.807 237.937,165.592 237.937,165.592 C239.287,173.645 248.107,193.555 248.107,193.555 C245.142,196.775 241.667,199.34 237.82,201.387 C216.777,212.662 186.18,208.125 186.18,208.125 C186.397,207.32 186.54,206.37 186.69,205.342 C187.897,196.67 186.947,181.515 186.947,181.515 C186.947,176.612 181.2,157.722 181.2,157.722 C178.927,155.417 177.945,151.792 177.945,151.792 C180.427,139.9 189.07,117.502 189.07,117.502 C189.07,117.502 194.272,97.12 207.107,100.01 C207.107,100.01 220.762,100.492 227.392,121.12 z" fill-opacity="0" stroke="#6C4022" stroke-width="3.112" stroke-linecap="round" stroke-linejoin="round"/>
    </g>
    <g>
      <path d="M131.747,174.598 C131.747,174.598 164.143,184.188 176.038,184.188 C176.038,184.188 181.417,184.115 186.725,181.15 C189.728,179.5 192.655,176.902 194.633,172.878 C194.633,172.878 231.825,122.075 212.825,116.145 C211.065,115.595 209.235,115.372 207.48,115.817 C202.215,117.168 198.438,122.033 195.837,126.503 C193.865,129.908 192.398,133.675 190.825,137.298 C189.51,140.262 188.077,143.19 186.76,146.16 C184.97,150.035 183.178,153.955 181.307,157.798 C180.462,159.518 179.63,161.238 178.745,162.958 C177.908,164.605 177.135,166.36 176.038,167.9 C176.038,167.9 135.96,166.178 124.647,162.515 C124.647,162.515 117.51,160.91 111.655,165.337 C109.973,166.607 108.61,168.23 107.562,170.045 C106.918,171.163 106.388,172.352 105.963,173.572 C104.445,177.915 105.77,182.598 109.897,185.03 C110.448,185.395 111.105,185.69 111.833,185.908 C111.833,185.908 126.952,189.935 130.435,182.285 C130.435,182.285 119.662,186.443 119.122,176.96 C119.122,176.96 120.698,169.952 131.747,174.598 z" fill="#F7CEAA"/>
      <path d="M131.747,174.598 C131.747,174.598 164.143,184.188 176.038,184.188 C176.038,184.188 181.417,184.115 186.725,181.15 C189.728,179.5 192.655,176.902 194.633,172.878 C194.633,172.878 231.825,122.075 212.825,116.145 C211.065,115.595 209.235,115.372 207.48,115.817 C202.215,117.168 198.438,122.033 195.837,126.503 C193.865,129.908 192.398,133.675 190.825,137.298 C189.51,140.262 188.077,143.19 186.76,146.16 C184.97,150.035 183.178,153.955 181.307,157.798 C180.462,159.518 179.63,161.238 178.745,162.958 C177.908,164.605 177.135,166.36 176.038,167.9 C176.038,167.9 135.96,166.178 124.647,162.515 C124.647,162.515 117.51,160.91 111.655,165.337 C109.973,166.607 108.61,168.23 107.562,170.045 C106.918,171.163 106.388,172.352 105.963,173.572 C104.445,177.915 105.77,182.598 109.897,185.03 C110.448,185.395 111.105,185.69 111.833,185.908 C111.833,185.908 126.952,189.935 130.435,182.285 C130.435,182.285 119.662,186.443 119.122,176.96 C119.122,176.96 120.698,169.952 131.747,174.598 z" fill-opacity="0" stroke="#6C4022" stroke-width="3.112" stroke-linecap="round" stroke-linejoin="round"/>
    </g>
    <g>
      <path d="M131.312,175.077 C132.19,175.915 132.7,176.977 132.7,178.147 C132.7,179.725 131.785,181.113 130.283,182.027 C129.115,182.798 127.575,183.235 125.893,183.235 C122.16,183.235 119.123,180.965 119.123,178.147 C119.123,175.327 122.16,173.057 125.893,173.057 C128.092,173.057 130.062,173.827 131.312,175.077 z" fill="#B95A53"/>
      <path d="M131.312,175.077 C132.19,175.915 132.7,176.977 132.7,178.147 C132.7,179.725 131.785,181.113 130.283,182.027 C129.115,182.798 127.575,183.235 125.893,183.235 C122.16,183.235 119.123,180.965 119.123,178.147 C119.123,175.327 122.16,173.057 125.893,173.057 C128.092,173.057 130.062,173.827 131.312,175.077 z" fill-opacity="0" stroke="#6C4022" stroke-width="3.112" stroke-linecap="round" stroke-linejoin="round"/>
    </g>
    <g>
      <path d="M227.723,120.722 C226.11,119.512 224.68,118.048 223.325,116.51 C219.812,112.592 215.75,109.665 210.773,107.98 C205.977,106.37 201.4,107.285 197.158,109.957 C193.827,112.082 191.335,115.335 189.253,118.635 C189.322,118.485 189.288,118.01 189.215,117.502 C189.14,116.872 189.03,116.25 189.03,116.067 C189.07,113.765 189.36,111.423 190.057,109.188 C190.86,106.445 192.325,104.025 194.268,101.942 C195.51,100.62 196.935,99.38 198.51,98.357 C200.048,97.368 201.732,96.597 203.565,96.122 C205.395,95.682 207.225,95.535 209.053,95.645 C211.065,95.757 213.045,96.158 214.945,96.673 C220.512,98.135 225.235,100.515 229.37,104.575 C234.092,109.222 239.325,112.923 245.99,113.945 C247.745,114.237 249.538,114.28 251.33,113.987 C255.36,113.325 259.348,108.967 263.735,110.397 C264.545,110.652 266.225,111.822 266.115,112.885 C265.94,114.53 264.978,116.292 263.995,117.535 C259.017,123.83 250.488,126.057 242.77,125.478 C240.385,125.295 237.973,124.857 235.628,124.305 C233.723,123.865 231.825,123.207 230.1,122.292 C229.258,121.855 228.455,121.302 227.723,120.722 z" fill="#EFA781"/>
      <path d="M227.723,120.722 C226.11,119.512 224.68,118.048 223.325,116.51 C219.812,112.592 215.75,109.665 210.773,107.98 C205.977,106.37 201.4,107.285 197.158,109.957 C193.827,112.082 191.335,115.335 189.253,118.635 C189.322,118.485 189.288,118.01 189.215,117.502 C189.14,116.872 189.03,116.25 189.03,116.067 C189.07,113.765 189.36,111.423 190.057,109.188 C190.86,106.445 192.325,104.025 194.268,101.942 C195.51,100.62 196.935,99.38 198.51,98.357 C200.048,97.368 201.732,96.597 203.565,96.122 C205.395,95.682 207.225,95.535 209.053,95.645 C211.065,95.757 213.045,96.158 214.945,96.673 C220.512,98.135 225.235,100.515 229.37,104.575 C234.092,109.222 239.325,112.923 245.99,113.945 C247.745,114.237 249.538,114.28 251.33,113.987 C255.36,113.325 259.348,108.967 263.735,110.397 C264.545,110.652 266.225,111.822 266.115,112.885 C265.94,114.53 264.978,116.292 263.995,117.535 C259.017,123.83 250.488,126.057 242.77,125.478 C240.385,125.295 237.973,124.857 235.628,124.305 C233.723,123.865 231.825,123.207 230.1,122.292 C229.258,121.855 228.455,121.302 227.723,120.722 z" fill-opacity="0" stroke="#6C4022" stroke-width="3.112" stroke-linecap="round" stroke-linejoin="round"/>
    </g>
    <g>
      <path d="M216.117,332.17 C219.555,337.038 213.372,347.658 213.372,347.658 C209.75,352.78 209.635,359.443 206.087,364.6 C205.977,364.748 205.87,364.893 205.762,365.04 C202.795,369.103 198.362,371.59 193.647,373.093 C193.28,373.203 192.952,373.313 192.582,373.385 C189.287,374.225 186.282,373.605 187.13,369.358 C187.532,367.2 188.375,364.635 189.58,362.773 C191.377,360.023 192.765,356.843 193.787,353.693 L194.08,353.805 C194.08,353.805 212.895,347.725 210.665,329.828 C211.802,329.865 212.752,330.05 213.52,330.343 C214.692,330.743 215.527,331.363 216.117,332.17 z" fill="#BC564C"/>
      <path d="M216.117,332.17 C219.555,337.038 213.372,347.658 213.372,347.658 C209.75,352.78 209.635,359.443 206.087,364.6 C205.977,364.748 205.87,364.893 205.762,365.04 C202.795,369.103 198.362,371.59 193.647,373.093 C193.28,373.203 192.952,373.313 192.582,373.385 C189.287,374.225 186.282,373.605 187.13,369.358 C187.532,367.2 188.375,364.635 189.58,362.773 C191.377,360.023 192.765,356.843 193.787,353.693 L194.08,353.805 C194.08,353.805 212.895,347.725 210.665,329.828 C211.802,329.865 212.752,330.05 213.52,330.343 C214.692,330.743 215.527,331.363 216.117,332.17 z" fill-opacity="0" stroke="#6C4022" stroke-width="3.112" stroke-linecap="round" stroke-linejoin="round"/>
    </g>
    <path d="M186.947,205.273 L186.69,205.342 L145,219.838 L147.707,225.11 L159.272,247.512" fill-opacity="0" stroke="#6C4022" stroke-width="3.112" stroke-linecap="round" stroke-linejoin="round"/>
    <g>
      <path d="M153.603,322.728 C149.208,316.395 145.038,309.88 140.385,303.655 C132.408,292.932 124.023,284.367 112.208,278.108 C106.638,275.145 100.275,271.772 94.123,270.237 L95.07,263.798 C95.108,263.798 95.148,263.798 95.183,263.835 C99.83,264.568 104.445,266.983 108.613,269.033 C119.89,274.522 129.848,281.955 138.048,291.467 C144.088,298.497 149.245,306.147 154.585,313.688 C157.185,317.348 159.825,320.932 162.607,324.41 C163.045,324.995 163.52,325.582 164,326.168 C165.61,328.143 167.253,330.05 169.013,331.88 C170.075,333.048 171.202,334.223 172.378,335.355 C176,338.832 179.845,342.09 184.092,344.765 L181.713,351.425 C177.833,349.628 175.345,347.473 172.16,344.652 C169.888,342.638 167.768,340.552 165.715,338.358 C163.077,335.465 160.663,332.462 158.323,329.353 C156.71,327.193 155.14,324.995 153.603,322.765" fill="#E46E64"/>
      <path d="M153.603,322.728 C149.208,316.395 145.038,309.88 140.385,303.655 C132.408,292.932 124.023,284.367 112.208,278.108 C106.638,275.145 100.275,271.772 94.123,270.237 L95.07,263.798 C95.108,263.798 95.148,263.798 95.183,263.835 C99.83,264.568 104.445,266.983 108.613,269.033 C119.89,274.522 129.848,281.955 138.048,291.467 C144.088,298.497 149.245,306.147 154.585,313.688 C157.185,317.348 159.825,320.932 162.607,324.41 C163.045,324.995 163.52,325.582 164,326.168 C165.61,328.143 167.253,330.05 169.013,331.88 C170.075,333.048 171.202,334.223 172.378,335.355 C176,338.832 179.845,342.09 184.092,344.765 L181.713,351.425 C177.833,349.628 175.345,347.473 172.16,344.652 C169.888,342.638 167.768,340.552 165.715,338.358 C163.077,335.465 160.663,332.462 158.323,329.353 C156.71,327.193 155.14,324.995 153.603,322.765" fill-opacity="0" stroke="#6C4022" stroke-width="3.112" stroke-linecap="round" stroke-linejoin="round"/>
    </g>
    <g>
      <path d="M96.025,208.6 C95.843,210.982 95.663,213.395 95.478,215.737 L94.998,221.23 C93.718,234.88 92,247.84 89.988,259.955 L89.988,259.99 L89.073,265.515 C87.64,273.677 86.148,281.37 84.565,288.575 C84.093,290.772 83.618,292.897 83.143,294.987 C78.16,316.797 73.04,333.45 69.93,342.822 C68.098,348.24 66.96,351.242 66.89,351.387 C66.195,353.29 67.038,356.112 69.158,356.732 C71.943,357.537 73.078,354.277 74.025,352.378 C74.025,352.378 74.833,349.96 76.185,345.53 C76.223,345.422 76.263,345.35 76.298,345.237 C78.383,338.47 81.675,327.16 85.233,312.625 C86.44,307.69 87.683,302.34 88.888,296.667 C89.368,294.58 89.803,292.422 90.28,290.225 C91.595,283.89 92.878,277.23 94.123,270.237 C94.418,268.375 94.745,266.467 95.07,264.527 C95.108,264.31 95.148,264.09 95.183,263.835 C95.515,261.89 95.843,259.92 96.135,257.942 C98.293,243.997 100.125,229.137 101.223,213.76 C101.408,211.75 101.553,209.7 101.66,207.647 L96.025,208.6 z" fill="#B4B5B4"/>
      <path d="M96.025,208.6 C95.843,210.982 95.663,213.395 95.478,215.737 L94.998,221.23 C93.718,234.88 92,247.84 89.988,259.955 L89.988,259.99 L89.073,265.515 C87.64,273.677 86.148,281.37 84.565,288.575 C84.093,290.772 83.618,292.897 83.143,294.987 C78.16,316.797 73.04,333.45 69.93,342.822 C68.098,348.24 66.96,351.242 66.89,351.387 C66.195,353.29 67.038,356.112 69.158,356.732 C71.943,357.537 73.078,354.277 74.025,352.378 C74.025,352.378 74.833,349.96 76.185,345.53 C76.223,345.422 76.263,345.35 76.298,345.237 C78.383,338.47 81.675,327.16 85.233,312.625 C86.44,307.69 87.683,302.34 88.888,296.667 C89.368,294.58 89.803,292.422 90.28,290.225 C91.595,283.89 92.878,277.23 94.123,270.237 C94.418,268.375 94.745,266.467 95.07,264.527 C95.108,264.31 95.148,264.09 95.183,263.835 C95.515,261.89 95.843,259.92 96.135,257.942 C98.293,243.997 100.125,229.137 101.223,213.76 C101.408,211.75 101.553,209.7 101.66,207.647 L96.025,208.6 z" fill-opacity="0" stroke="#6C4022" stroke-width="3.112" stroke-linecap="round" stroke-linejoin="round"/>
    </g>
  </g>
</svg>
