<?xml version="1.0" encoding="UTF-8" standalone="no"?>
<!-- Created with Inkscape (http://www.inkscape.org/) -->

<svg
   version="1.1"
   id="svg1"
   width="505.80615"
   height="992.58978"
   viewBox="0 0 505.80615 992.58982"
   sodipodi:docname="34c.svg"
   inkscape:version="1.3.2 (091e20ef0f, 2023-11-25)"
   xmlns:inkscape="http://www.inkscape.org/namespaces/inkscape"
   xmlns:sodipodi="http://sodipodi.sourceforge.net/DTD/sodipodi-0.dtd"
   xmlns="http://www.w3.org/2000/svg"
   xmlns:svg="http://www.w3.org/2000/svg">
  <defs
     id="defs1" />
  <sodipodi:namedview
     id="namedview1"
     pagecolor="#ffffff"
     bordercolor="#000000"
     borderopacity="0.25"
     inkscape:showpageshadow="2"
     inkscape:pageopacity="0.0"
     inkscape:pagecheckerboard="0"
     inkscape:deskcolor="#d1d1d1"
     showgrid="false"
     inkscape:zoom="0.69078952"
     inkscape:cx="296.76188"
     inkscape:cy="469.75235"
     inkscape:window-width="1920"
     inkscape:window-height="1011"
     inkscape:window-x="0"
     inkscape:window-y="0"
     inkscape:window-maximized="1"
     inkscape:current-layer="layer1" />
  <g
     inkscape:groupmode="layer"
     id="layer1"
     inkscape:label="Layer 1"
     transform="translate(-40.235274,-112.66965)">
    <path
       style="fill:#000000"
       d="m 319.84649,1102.9999 c -1.7489,-1.2833 -5.32969,-3.4239 -7.95731,-4.7568 -2.62763,-1.3329 -6.37763,-3.9072 -8.33334,-5.7206 -4.26206,-3.952 -4.6008,-9.5284 -1.54327,-25.4053 3.68063,-19.1123 5.9763,-36.9634 6.57374,-51.1173 1.24478,-29.48976 -5.24463,-86.38315 -13.6112,-119.33086 l -3.72376,-14.66422 -9.29234,-5.02273 c -5.11078,-2.7625 -12.89234,-6.88157 -17.29234,-9.15347 -13.1873,-6.80917 -23.55511,-12.86489 -42.66666,-24.92112 -10.32352,-6.51243 -52.46073,-37.44684 -58.80818,-43.17316 -19.81901,-17.8796 -33.94239,-36.87645 -55.80979,-75.06772 -3.35911,-5.86667 -7.444248,-12.8608 -9.078087,-15.54252 -1.633839,-2.68171 -4.982291,-8.38171 -7.441005,-12.66666 -13.330903,-23.23259 -28.994199,-45.12627 -40.326022,-56.36651 -9.502952,-9.42614 -12.729544,-16.29762 -8.427875,-17.94832 11.812391,-4.53284 43.839113,11.82355 85.204729,43.51496 26.34315,20.18226 56.77072,50.37074 84.33842,83.67571 1.51751,1.83333 7.49164,9.03333 13.27584,16 5.7842,6.96667 11.96963,14.76667 13.7454,17.33333 1.77576,2.56667 3.95473,5.26667 4.84215,6 0.88742,0.73333 4.94784,6.43333 9.02317,12.66667 14.46332,22.12209 14.7367,19.85279 2.12844,-17.66821 -5.72907,-17.04915 -11.736,-35.79846 -13.34873,-41.66512 -11.48593,-41.78254 -15.54396,-49.37248 -36.35682,-68 -20.17447,-18.05615 -41.67458,-39.65502 -46.72663,-46.94127 -9.14493,-13.18911 -24.20403,-47.69694 -33.04631,-75.72539 l -2.52381,-7.99999 -17.62927,-12.66667 c -20.721586,-14.8885 -26.368961,-19.61972 -26.368961,-22.09121 0,-5.94488 21.741211,-6.56195 38.166641,-1.08326 15.59033,5.20014 27.96681,14.66814 44.70643,34.20039 11.25771,13.13581 12.4313,14.62731 16.74223,21.27723 2.03119,3.13327 4.06287,5.99685 4.51483,6.36351 1.13089,0.91746 17.70283,27.87702 21.92115,35.66175 6.38409,11.78158 10.14349,17.67158 11.27919,17.67158 0.62187,0 1.21766,-10.65 1.32397,-23.66666 0.10631,-13.01667 0.35224,-26.66667 0.54652,-30.33333 0.93177,-17.58557 -2.18517,-26.5806 -13.42791,-38.75105 -20.59836,-22.29806 -30.67217,-43.46932 -40.56352,-85.24894 -2.25703,-9.53334 -6.1525,-23.52577 -8.65661,-31.0943 -5.70029,-17.22883 -5.75995,-18.9057 -0.67265,-18.9057 4.10276,0 13.21821,6.49344 21.0517,14.99629 8.49241,9.21807 19.54273,27.58337 34.12286,56.71115 9.79704,19.57226 15.50348,29.57981 16.72626,29.33333 1.02079,-0.20576 3.90329,-6.07411 6.40556,-13.04078 2.50227,-6.96666 5.43393,-14.55734 6.5148,-16.86817 1.08087,-2.31083 1.96522,-4.56736 1.96522,-5.01453 0,-1.95772 15.9885,-36.36961 20.49784,-44.11729 9.93446,-17.06881 10.3791,-18.2128 7.83081,-20.14737 -1.28076,-0.9723 -2.83328,-1.7869 -3.45005,-1.81023 -0.61677,-0.0233 -4.5379,-2.43894 -8.71362,-5.36804 -12.69123,-8.90239 -19.18284,-22.9409 -20.65805,-44.67436 -0.87615,-12.90782 -5.85552,-28.82762 -12.78141,-40.86415 -12.22099,-21.23888 -15.89039,-37.82102 -10.5327,-47.59755 5.45525,-9.95454 12.92453,-14.69163 28.81414,-18.27418 4.94617,-1.11518 9.7887,-2.30451 10.76117,-2.64295 1.11878,-0.38935 -1.39343,-3.67683 -6.84055,-8.95158 -13.54823,-13.11948 -17.33294,-24.12608 -12.09298,-35.16847 4.90722,-10.3412 23.31893,-24.15309 39.71801,-29.7952 9.66252,-3.32439 12.62845,-5.55818 29.45932,-22.18729 22.17127,-21.90548 29.4796,-26.52072 41.98807,-26.51562 10.7587,0.004 15.78941,3.84122 24.90806,18.99701 4.08128,6.78333 7.82009,12.33333 8.30848,12.33333 0.48839,0 3.17727,-4.35 5.9753,-9.66667 2.79802,-5.31666 6.31491,-11.00156 7.8153,-12.63311 3.79838,-4.1304 13.48148,-7.54961 21.5391,-7.60569 6.20602,-0.0432 7.70033,0.62126 17.45377,7.76086 10.01041,7.3277 24.14504,20.53612 26.81076,25.05391 2.32002,3.93189 13.57835,11.33636 27.95298,18.38433 21.59311,10.58724 30.58757,17.69453 36.13635,28.55439 2.47683,4.84758 3.11426,7.65744 2.4909,10.98025 -1.2457,6.64015 -5.94283,14.76426 -13.05766,22.58442 -3.48333,3.82866 -6.33333,7.57433 -6.33333,8.32372 0,1.21119 2.95314,1.9689 14.66667,3.76315 14.18349,2.17259 19.91191,6.18326 23.25108,16.27889 4.78631,14.47094 3.60926,23.54971 -5.04179,38.88821 -11.70782,20.75819 -15.06891,30.72359 -19.56202,57.99999 -1.89085,11.47879 -6.13471,25.26629 -9.49645,30.85221 -3.81794,6.34392 -14.87018,10.41379 -25.56017,9.41225 -8.57764,-0.80363 -13.69062,-2.53653 -19.9137,-6.74918 -6.83167,-4.62464 -8.01047,-2.5384 -6.95753,12.3134 1.07549,15.1699 -0.24336,20.89506 -6.22242,27.01155 -2.14679,2.19613 -6.13685,4.95083 -8.8668,6.12155 -6.69467,2.87096 -23.87091,3.28786 -36.96354,0.89718 -16.29164,-2.97481 -35.09969,-3.04732 -53.33334,-0.2056 -8.8,1.37148 -20.2,2.30549 -25.33333,2.07559 -8.50503,-0.38092 -10.04845,-0.91992 -17.39126,-6.07349 -4.43186,-3.1105 -9.03831,-5.65546 -10.23656,-5.65546 -2.96362,0 -6.62444,4.94291 -12.13567,16.38582 -6.01514,12.48919 -11.56985,24.84069 -11.56985,25.72684 0,0.38517 -1.15799,3.24227 -2.57333,6.34912 -2.9051,6.37709 -14.29138,43.41275 -15.23007,49.53821 -0.33714,2.2 -1.23024,6.7 -1.98468,10 -0.75443,3.3 -1.77935,9.6 -2.2776,14 -0.49824,4.4 -1.10656,9.06931 -1.35181,10.37624 -1.12251,5.98173 -2.02623,47.62086 -1.03304,47.5977 1.11101,-0.0259 23.3206,-30.92846 24.29346,-33.80207 1.4609,-4.31517 19.88115,-28.16154 25.80544,-33.40706 8.96665,-7.93929 26.81281,-16.67633 34.51992,-16.90011 6.13691,-0.17819 12.29317,1.64588 13.8037,4.08996 1.10552,1.78877 -5.65579,8.24154 -14.69317,14.02268 -5.84511,3.73907 -15.27881,13.52031 -15.27881,15.84168 0,0.42274 -1.43282,3.9364 -3.18403,7.80813 -1.75121,3.87173 -4.50479,10.03951 -6.11907,13.70618 -13.4309,30.50697 -23.42974,44.16219 -43.36515,59.22292 -3.66754,2.77073 -7.50687,6.04818 -8.53185,7.2832 -2.40377,2.89637 -2.26709,12.53264 0.41834,29.49387 4.31742,27.26894 15.48683,71.33333 18.08152,71.33333 0.99494,0 2.16644,-3.36858 3.47775,-10 0.29002,-1.46666 1.76191,-8.96666 3.27087,-16.66666 8.82789,-45.04756 17.38829,-64.77073 37.17582,-85.65314 14.52343,-15.32704 44.23838,-29.60584 65.10913,-31.28661 14.29672,-1.15135 14.09602,-0.56056 -7.48977,22.0478 -4.66938,4.89057 -10.66938,11.59195 -13.33334,14.89195 -2.66395,3.3 -6.34356,7.55824 -8.17689,9.46275 -3.19723,3.32135 -6.7337,8.39862 -18.01967,25.87058 -6.39876,9.90601 -19.33975,35.0516 -22.64428,44 -1.35405,3.66667 -2.89671,7.26667 -3.42814,8 -1.16406,1.60632 -12.03187,36.40279 -15.28289,48.93265 -3.39725,13.09346 -2.18603,25.2643 4.0206,40.40068 2.70632,6.6 6.02131,15.3 7.36664,19.33333 1.34534,4.03333 4.22958,12.13333 6.40943,18 2.17984,5.86666 6.48124,18.51948 9.55867,28.11736 5.59567,17.45181 7.34698,21.68962 8.47623,20.51069 0.33087,-0.34543 1.01706,-15.62805 1.52486,-33.96139 0.50779,-18.33333 1.12474,-35.13333 1.371,-37.33333 0.24625,-2.2 0.82886,-8.5 1.29468,-14 0.70768,-8.35567 1.83768,-14.22596 5.2615,-27.33333 1.27043,-4.86356 7.04542,-17.06987 11.98559,-25.33333 9.04416,-15.12823 26.8443,-33.99178 42.10578,-44.62123 2.56667,-1.78766 4.96667,-3.66855 5.33334,-4.17975 0.36666,-0.5112 6.96666,-4.24248 14.66666,-8.29172 27.08824,-14.24504 51.71415,-19.58117 48.34826,-10.47648 -0.45461,1.22972 -2.96894,4.40626 -5.58741,7.05898 -19.19686,19.448 -39.68867,50.25244 -47.51535,71.42778 -1.30425,3.52866 -2.80426,7.01575 -3.33336,7.74909 -2.76308,3.8296 -13.53645,43.91077 -15.23137,56.66666 -0.43848,3.3 -1.32633,9.3 -1.97299,13.33333 -0.64667,4.03333 -1.57975,10.9123 -2.07352,15.28659 -0.49376,4.37429 -1.06773,8.87429 -1.27547,10 -0.20775,1.12571 -0.86301,4.74674 -1.45614,8.04674 -0.59312,3.3 -1.15122,6.3 -1.24021,6.66667 -0.089,0.36666 -0.92791,4.26666 -1.86426,8.66666 -2.31904,10.89736 -8.2234,31.69664 -9.46243,33.33334 -0.55516,0.73333 -1.46249,2.83333 -2.01629,4.66666 -1.80135,5.96327 -10.11748,23.23187 -13.16307,27.33333 -3.80332,5.1219 -9.93686,15.75946 -9.68391,16.79508 0.1068,0.43729 -0.49317,1.63729 -1.33326,2.66666 -1.41015,1.72787 -2.34198,6.77579 -3.79127,20.53823 -0.30891,2.9334 -0.91033,13.7334 -1.3365,24 -1.54494,37.2182 -5.89875,69.5857 -10.31027,76.6497 -2.08291,3.3353 -7.56606,3.4973 -11.8547,0.3503 z"
       id="path1" />
    <path
       id="path2"
       style="fill:#008000"
       d="M 296.68449 385.71262 C 296.41974 385.74957 296.06609 385.9098 295.61223 386.16379 C 293.15925 387.53655 283.62572 400.41218 278.49699 409.27902 C 273.74582 417.49314 257.33293 449.84467 257.33293 450.99582 C 257.33293 451.50411 255.88525 455.08894 254.11613 458.96067 C 250.84045 466.12954 240.49259 495.31292 239.39152 500.48606 C 231.87103 535.81911 229.64877 556.45151 229.68059 590.66574 C 229.71479 627.39872 233.28675 661.81769 240.26848 692.66574 C 241.76223 699.26574 243.45351 706.76706 244.02629 709.33371 C 247.66874 725.65568 259.18123 762.17624 267.85832 784.93332 C 270.03941 790.65358 274.34357 801.93308 277.42277 809.99973 C 285.85007 832.07688 298.46561 868.65696 301.55363 879.97043 C 312.12092 918.68535 316.03077 938.96914 318.7509 969.19895 C 320.6552 990.36207 319.68007 1027.5903 316.68645 1047.9997 C 314.00166 1066.3036 313.22165 1081.2994 314.80168 1084.2517 C 316.15138 1086.7737 322.7635 1090.7638 324.16106 1089.9001 C 324.62161 1089.6155 325.7017 1083.5228 326.56145 1076.3591 C 328.97662 1056.235 329.13295 1054.7547 330.12004 1042.6657 C 331.19911 1029.4504 331.13584 997.05869 330.00285 982.66574 C 328.69048 965.99405 324.18278 933.68585 320.61027 915.33371 C 311.8993 870.58493 301.19861 837.6064 288.59074 816.66574 C 281.6018 805.05767 279.33884 799.67568 276.67082 788.29856 C 273.7097 775.67161 272.85865 772.65164 265.50285 748.66574 C 257.79411 723.52896 255.78103 715.9189 252.04973 697.83762 C 241.15612 645.04907 236.43797 587.06544 240.18449 551.99973 C 243.09932 524.71838 252.54834 486.32395 260.7841 468.29465 C 262.5527 464.42291 264.0009 460.84785 264.0009 460.35129 C 264.0009 459.38103 284.54525 417.99314 286.67863 414.66574 C 289.57283 410.15172 296.32612 393.69094 297.00871 389.48606 C 297.47751 386.59817 297.47875 385.60178 296.68449 385.71262 z M 175.82121 430.77512 C 175.58853 430.76512 175.38998 430.84249 175.22356 431.00754 C 173.68256 432.53579 179.46742 459.88927 184.76457 476.11887 C 189.72306 491.31084 198.95686 507.11572 209.45402 518.37863 C 214.71051 524.01858 217.34852 524.64705 217.31535 520.25363 C 217.26115 513.0673 204.38254 480.62863 191.35051 454.85324 C 183.39289 439.11426 178.0705 430.8718 175.82121 430.77512 z M 114.0009 519.43723 L 116.66691 522.71848 C 118.13358 524.52303 120.69778 527.44621 122.36613 529.21457 C 131.40162 538.79164 139.84385 555.68347 150.74309 585.99973 C 156.36976 601.65035 165.84041 620.86973 171.12981 627.36887 C 177.48889 635.18236 189.06386 646.25719 198.0009 653.07981 C 202.40089 656.4388 208.91483 661.77065 212.47746 664.92746 C 216.04011 668.08429 219.47458 670.66574 220.11027 670.66574 C 220.74596 670.66574 220.89358 668.71704 220.4384 666.33371 C 217.22212 649.49295 182.18483 583.65437 166.02043 564.07785 C 156.06587 552.02201 131.44603 530.42576 118.0009 521.95676 L 114.0009 519.43723 z M 305.74895 549.33371 C 302.7788 549.33371 295.59161 556.42857 288.26652 566.59348 C 278.66617 579.91574 276.87343 583.06028 265.80754 605.98801 C 263.47059 610.82998 262.09205 618.67734 263.58488 618.63645 C 264.18012 618.62015 265.97371 617.57144 267.57121 616.30442 C 270.94037 613.63225 288.0009 590.69341 288.0009 588.83567 C 288.0009 588.14728 289.39744 585.72793 291.10441 583.45871 C 292.8114 581.18949 295.14055 577.53371 296.2802 575.33371 C 297.41983 573.13371 300.22201 567.77442 302.50871 563.42356 C 306.36014 556.0955 307.91512 549.33371 305.74895 549.33371 z M 357.86613 617.33371 C 355.84609 617.33371 346.93392 622.0696 345.33293 623.99387 C 344.96627 624.43458 342.56757 626.257 340.0009 628.04465 C 330.07617 634.95712 321.6579 643.08999 314.91691 652.27707 C 311.84594 656.46243 309.33293 660.1938 309.33293 660.57004 C 309.33293 660.94629 307.82769 664.54638 305.98723 668.57004 C 303.09914 674.88404 300.47509 683.38305 297.83098 694.99192 C 295.92232 703.37176 292.07861 726.46859 292.04191 729.77707 C 291.97091 736.17703 295.0901 733.13506 298.74699 723.23801 C 304.65191 707.25693 309.33556 697.34667 316.44035 685.7927 C 318.76526 682.01188 322.42151 676.01122 324.56731 672.45871 C 326.71309 668.90621 331.36375 661.95998 334.90129 657.02121 C 338.43883 652.08245 341.33293 647.66576 341.33293 647.20676 C 341.33293 646.74775 344.12345 642.38815 347.5341 637.51926 C 350.94476 632.65037 355.16482 626.11639 356.91106 622.99973 C 359.65778 618.0974 359.78565 617.33371 357.86613 617.33371 z M 72.352462 642.66574 C 69.586502 642.66574 70.315692 644.20264 77.979415 654.51926 C 82.001926 659.93421 86.887001 667.13247 88.83293 670.51535 C 90.778858 673.89824 93.12328 677.56574 94.043868 678.66574 C 94.964456 679.76574 98.375129 685.46705 101.62395 691.33371 C 110.57941 707.50532 123.94903 730.76145 127.30168 735.99973 C 149.57106 770.79401 154.71519 777.03781 178.0009 797.55832 C 186.891 805.39272 220.21478 828.98734 233.16106 836.61301 C 234.35569 837.31668 238.4967 839.95023 242.36418 842.46457 C 250.88739 848.00571 256.4826 851.17265 262.66691 853.96067 C 265.23358 855.11777 268.23293 856.61441 269.33293 857.28684 C 270.43293 857.95927 272.43912 858.54449 273.78996 858.58762 C 276.17583 858.66382 276.17583 858.55537 273.78996 854.74192 C 272.43912 852.5828 269.59484 847.93215 267.46965 844.40793 C 263.18361 837.30037 249.55559 816.54617 247.08684 813.36692 C 241.3953 806.03736 236.17952 798.72697 233.98137 794.99973 C 232.57579 792.6164 231.00264 790.66574 230.48723 790.66574 C 229.97182 790.66574 228.24374 788.55069 226.64543 785.96457 C 225.04712 783.37845 223.04069 780.5278 222.18645 779.63059 C 221.33221 778.73337 217.33928 773.81231 213.31535 768.69309 C 209.29143 763.57386 205.1009 758.40503 204.0009 757.20871 C 202.9009 756.0124 198.9996 751.52986 195.33293 747.24778 C 180.75441 730.22238 149.31408 697.89169 135.82707 686.05637 C 116.6204 669.20184 77.801918 642.66574 72.352462 642.66574 z M 426.68645 709.87082 C 425.43351 709.92338 423.4816 710.61799 420.85246 711.78098 C 410.00542 716.57914 395.94899 727.46797 385.45793 739.19895 C 383.55657 741.32502 381.03721 744.02503 379.86027 745.19895 C 376.43049 748.61995 362.66691 767.73841 362.66691 769.08176 C 362.66691 769.75523 361.55607 771.73716 360.19816 773.48606 C 355.27937 779.82116 350.17191 796.56007 348.75285 810.99973 C 346.96657 829.17605 346.71593 834.4467 346.03215 867.99973 C 345.63612 887.43304 344.97035 913.88382 344.55363 926.77903 C 343.43971 961.24918 345.06217 966.04337 352.48137 950.19699 C 361.72625 930.45122 364.83927 921.45156 369.8427 899.99973 C 374.30166 880.88227 375.21897 876.2736 376.58879 866.09348 C 377.07532 862.47774 377.67729 859.17708 377.92668 858.75949 C 378.17607 858.34189 378.76556 855.00038 379.23723 851.33371 C 381.74382 831.84756 388.99872 799.26906 394.82512 781.33371 C 397.68491 772.5304 411.48586 743.47669 418.57512 731.33371 C 427.92132 715.32488 430.44526 709.71316 426.68645 709.87082 z " />
    <path
       id="path3"
       style="fill:#ff0000"
       d="M 411.06926 124.87082 C 404.82721 125.09358 399.6344 129.34712 395.5634 137.63254 C 391.20175 146.50945 389.71755 152.60055 388.65324 165.99973 C 388.18724 171.86637 387.5151 177.69881 387.1591 178.96067 C 386.0151 183.01571 386.51139 235.19082 387.73332 239.33371 C 390.09794 247.35085 395.14512 243.30021 413.49699 218.66574 C 426.43968 201.29227 437.86774 189.33371 441.52434 189.33371 C 445.65921 189.33371 445.1621 190.63854 434.08293 208.88254 C 431.92839 212.4304 427.45156 219.18878 424.13371 223.90012 C 407.32673 247.76603 404.52681 260.11295 416.55363 257.33567 C 418.81578 256.81328 429.06628 253.53236 439.33293 250.0427 C 501.40861 228.94292 520.56796 214.88277 511.80949 196.8552 C 507.92319 188.85599 498.29441 182.65277 470.31731 170.12668 C 462.7707 166.74786 458.81946 163.2142 436.23527 139.63645 C 426.56662 129.54242 418.14357 124.61837 411.06926 124.87082 z M 345.51066 125.14621 C 335.54208 125.52327 329.53398 129.33345 312.83098 145.86692 C 297.3997 161.14154 296.64957 161.67851 278.85832 170.24387 C 259.87124 179.38495 249.34743 186.85813 245.79777 193.72238 C 242.89018 199.34508 243.99592 209.20506 248.12395 214.47629 C 251.51008 218.80022 262.84554 226.15887 274.0009 231.27512 C 289.89733 238.56578 292.95523 239.8543 298.0009 241.39035 C 300.93423 242.28334 303.93359 243.45754 304.66691 243.99973 C 306.08227 245.04619 313.91292 247.72338 318.13762 248.6052 C 319.52838 248.89549 323.96757 250.052 328.0009 251.17551 C 337.78102 253.89982 347.15401 253.48623 347.75871 250.30246 C 348.22337 247.856 343.57754 237.1394 340.81535 234.28684 C 339.9522 233.39544 337.79429 230.5664 336.02043 227.99973 C 334.24656 225.43307 332.46371 223.03241 332.05754 222.66574 C 331.65137 222.29907 329.53208 219.59907 327.34856 216.66574 C 322.46099 210.09987 318.74302 205.66464 315.60246 202.65012 C 312.3792 199.55622 311.77785 188.95011 314.78996 188.3259 C 315.96503 188.08238 320.131 191.04892 324.12199 194.97043 C 331.52222 202.2418 332.98317 203.95075 338.66691 211.99973 C 340.47935 214.56639 342.68693 217.56574 343.57316 218.66574 C 344.4594 219.76574 347.99813 224.45539 351.43645 229.08567 C 354.87475 233.71593 359.12318 238.44377 360.87785 239.59348 C 363.7863 241.49916 364.2821 241.49218 366.47941 239.50363 C 369.38968 236.86989 369.17311 238.50378 369.86027 213.99973 C 370.84801 178.7771 367.81157 152.10986 361.1259 137.27707 C 356.55834 127.14355 353.59441 124.84045 345.51066 125.14621 z M 251.97551 249.91965 C 238.69256 249.7019 226.97879 253.09975 224.04387 258.58371 C 220.37232 265.44405 223.57091 279.21098 233.37004 298.73801 C 245.49054 322.89092 247.34552 329.0272 250.59074 355.65207 C 253.32859 378.11417 262.53299 385.49697 280.07902 379.30637 C 289.49976 375.98253 301.57039 365.87834 319.37395 346.4177 C 325.5698 339.64513 338.12308 322.29387 341.22551 316.21262 C 342.75189 313.22067 344.0009 308.94965 344.0009 306.72043 C 344.0009 302.1889 339.97837 297.33371 336.22551 297.33371 C 334.88338 297.33371 323.5433 300.58155 311.02434 304.55246 C 288.03474 311.84459 280.65517 313.38646 277.64348 311.52512 C 272.86753 308.57342 284.56271 300.87382 303.33293 294.61301 C 334.89649 284.08497 336.0009 283.50255 336.0009 277.33371 C 336.0009 273.07194 333.42996 270.57059 325.33293 266.94895 C 315.1727 262.40445 287.01821 254.43806 274.66691 252.61301 C 271.36693 252.1254 265.36626 251.24842 261.33293 250.66574 C 258.18895 250.21155 255.04081 249.9699 251.97551 249.91965 z M 506.0966 250.18137 C 492.83083 250.20317 491.65785 250.42866 462.0009 258.6677 C 453.51566 261.02498 428.98958 269.52261 425.33098 271.37277 C 423.49591 272.30077 420.95711 274.20544 419.69035 275.6052 C 417.6001 277.91487 417.57725 278.42151 419.43645 281.0759 C 420.56317 282.68455 422.03205 283.99973 422.70207 283.99973 C 423.37209 283.99973 427.08817 285.4311 430.95988 287.17942 C 434.83161 288.92771 441.6009 291.38407 446.0009 292.6384 C 450.40088 293.89273 454.75026 295.53498 455.66691 296.28879 C 456.58358 297.0426 457.33293 297.21199 457.33293 296.66574 C 457.33293 296.11948 458.08424 296.25551 459.0009 296.96652 C 459.91757 297.67756 464.62485 299.62924 469.46379 301.30442 C 474.30272 302.97957 479.70274 305.47967 481.46379 306.8591 C 484.64098 309.34777 484.64697 309.38324 482.0009 311.45481 C 478.31209 314.3427 471.81872 313.28259 448.92668 306.05637 C 424.32586 298.29074 418.33744 297.01731 414.0634 298.64231 C 412.19489 299.35272 410.68011 300.69968 410.69621 301.63449 C 410.77191 306.02808 420.40654 322.30425 430.24895 334.66574 C 431.12476 335.76574 435.97471 342.2192 441.02629 349.00559 C 455.86175 368.93588 473.66792 382.5014 485.15129 382.62082 C 487.61811 382.64642 491.90627 381.39101 494.68059 379.83176 C 497.45489 378.2725 500.45774 375.42184 501.35246 373.49777 C 504.97252 365.71289 507.91916 355.52249 508.63762 348.30246 C 510.76611 326.91284 511.43427 324.13226 517.52238 311.33371 C 521.36291 303.26012 522.7308 300.79105 526.78801 294.60324 C 530.68109 288.66574 535.70469 272.86644 535.37981 267.58567 C 534.99145 261.27365 531.40232 256.32184 524.6884 252.83762 C 520.50791 250.66813 516.97398 250.16346 506.0966 250.18137 z M 391.78606 316.41965 C 386.21166 315.98808 384.79157 324.54877 383.32316 361.82199 C 382.60329 380.09513 381.31201 385.98049 378.24309 384.98215 C 374.60731 383.79941 373.04159 376.69373 372.48918 358.8591 C 371.59784 330.08188 370.84921 324.27304 367.63762 321.28098 C 362.71338 316.69335 358.0238 317.86445 352.36418 325.09348 C 343.63709 336.2406 324.87361 364.0819 321.65129 370.66574 C 320.75401 372.49907 319.42294 374.89973 318.69426 375.99973 C 311.70166 386.55564 307.70856 405.03527 310.55559 413.66184 C 312.99225 421.04503 317.80333 422.70723 334.66691 421.98996 C 342.36691 421.66245 350.46692 420.99461 352.66691 420.50559 C 360.01403 418.87247 396.28492 419.74372 406.0009 421.78684 C 418.03098 424.31657 430.93874 424.48463 436.3759 422.18332 C 444.18548 418.87789 446.01881 415.52176 445.8427 404.84934 C 445.58644 389.31966 436.19049 370.0685 412.47746 336.48801 C 404.46849 325.14634 397.11722 317.66522 392.95598 316.62082 C 392.54618 316.51797 392.15768 316.44842 391.78606 316.41965 z " />
    <path
       style="fill:#ffcc00"
       d="m 387.41912,305.87821 c 8.24002,-3.4429 13.36119,-8.10786 15.03545,-13.69606 3.19679,-10.66992 1.18613,-22.19409 -5.54494,-31.78108 -9.77161,-13.9176 -29.4791,-13.32892 -41.30758,1.23389 -12.20381,15.0249 -6.74987,40.13479 9.73129,44.80277 7.15274,2.02588 16.46253,1.79003 22.08578,-0.55952 z"
       id="path4" />
  </g>
</svg>
