<?xml version="1.0" encoding="UTF-8" standalone="no"?>
<!-- Created with Inkscape (http://www.inkscape.org/) -->

<svg
   version="1.1"
   id="svg1"
   width="888.65314"
   height="917.73944"
   viewBox="0 0 888.65313 917.73944"
   sodipodi:docname="25c.svg"
   inkscape:version="1.3.2 (091e20ef0f, 2023-11-25)"
   xmlns:inkscape="http://www.inkscape.org/namespaces/inkscape"
   xmlns:sodipodi="http://sodipodi.sourceforge.net/DTD/sodipodi-0.dtd"
   xmlns="http://www.w3.org/2000/svg"
   xmlns:svg="http://www.w3.org/2000/svg">
  <defs
     id="defs1" />
  <sodipodi:namedview
     id="namedview1"
     pagecolor="#ffffff"
     bordercolor="#000000"
     borderopacity="0.25"
     inkscape:showpageshadow="2"
     inkscape:pageopacity="0.0"
     inkscape:pagecheckerboard="0"
     inkscape:deskcolor="#d1d1d1"
     showgrid="false"
     inkscape:zoom="0.68835618"
     inkscape:cx="443.08457"
     inkscape:cy="435.09452"
     inkscape:window-width="1920"
     inkscape:window-height="1011"
     inkscape:window-x="0"
     inkscape:window-y="0"
     inkscape:window-maximized="1"
     inkscape:current-layer="layer2" />
  <g
     inkscape:groupmode="layer"
     id="layer2"
     inkscape:label="Layer 1">
    <path
       style="fill:#000000"
       d="m 561.53546,973.48648 c -3.3181,-2.10278 -0.89906,-6.06935 7.54234,-12.36739 4.61025,-3.43966 9.48613,-7.65726 10.83529,-9.37245 4.71304,-5.99166 15.95061,-28.49889 19.42225,-38.89995 1.92511,-5.76765 4.01336,-11.46765 4.64055,-12.66666 0.6272,-1.19902 2.46653,-7.58003 4.0874,-14.18003 1.62088,-6.6 3.76891,-14.56857 4.7734,-17.70793 5.11116,-15.97408 4.7665,-74.71518 -0.59238,-100.95874 l -2.45038,-12 L 608.81796,766 c -4.67421,51.08545 -5.58444,52.53222 -17.55786,27.90763 -13.51751,-27.80015 -36.1229,-58.12964 -48.47539,-65.03904 -5.98795,-3.34938 -9.09378,-4.13449 -18.25867,-4.61553 -13.3837,-0.70246 -15.98017,-0.12174 -22.45227,5.02164 -9.20214,7.31294 -18.49323,25.65165 -20.68749,40.83287 -0.73341,5.07417 -1.34535,20.47576 -1.35988,34.22576 -0.0212,20.0399 -0.38222,25 -1.81976,25 -2.75797,0 -5.48355,-3.89901 -8.85457,-12.66666 -1.69172,-4.4 -6.71195,-15.2 -11.15605,-24 -6.8187,-13.50206 -9.65082,-17.56122 -18.14048,-26 -11.90154,-11.83022 -20.91539,-17.02113 -32.75831,-18.8649 -7.70826,-1.20007 -9.30795,-1.04508 -14.3361,1.38901 -12.37652,5.99137 -26.16077,25.75637 -28.92558,41.47589 -1.30132,7.39872 -3.99634,36.21314 -4.0218,43 -0.0209,5.57221 -2.39979,4.37995 -3.99055,-2 -3.18445,-12.77173 -16.27329,-50.75845 -20.71069,-60.10703 -5.35173,-11.27487 -19.09688,-27.22139 -26.48582,-30.72767 -2.53962,-1.20513 -7.90718,-2.1653 -12.10444,-2.1653 -24.67344,0 -32.16536,9.34167 -46.80625,58.36274 -9.58376,32.08859 -11.19825,36.54318 -13.0239,35.93462 -0.82925,-0.27641 -2.54268,-7.93055 -3.82033,-17.06595 -2.98797,-21.36449 -5.36112,-31.93303 -11.57665,-51.55527 -6.39647,-20.19347 -12.79783,-31.74684 -21.84301,-39.42296 C 188.341,715.32078 180.46024,712 168.99112,712 c -16.76801,0 -31.04723,5.32074 -52.42533,19.5348 -4.2451,2.82253 -9.50951,6.2258 -11.69868,7.56284 -2.18916,1.33703 -9.955324,6.88703 -17.25813,12.33333 -12.289584,9.16535 -18.275648,11.95074 -18.275648,8.50388 0,-0.76916 2.333189,-4.81916 5.184864,-9 14.119782,-20.70098 18.054658,-28.2863 29.189074,-56.26818 17.28199,-43.43133 21.51513,-61.79775 22.58729,-98 0.87412,-29.51543 -0.36857,-47.52855 -7.63468,-110.66667 -7.18557,-62.43829 -8.26775,-77.16656 -6.56788,-89.38817 2.7915,-20.07016 7.90797,-30.22834 21.35424,-42.39652 l 7.79235,-7.05167 -6.12994,-9.24849 c -3.37147,-5.08666 -7.3322,-10.57449 -8.80163,-12.19517 -2.73149,-3.01264 -3.73998,-5.23991 -16.41804,-36.2595 C 97.95852,260.27004 86.514975,239.93892 68.165895,215.33333 61.690413,206.6499 51.09376,186.33586 47.905236,176.49317 45.438864,168.87969 44.838042,163.39421 44.346275,144 43.75803,120.80093 43.778435,120.59272 47.892404,107.81498 53.422805,90.637901 59.338866,82.540049 70.190622,77.293382 c 4.504842,-2.178027 9.081375,-3.960049 10.170073,-3.960049 1.088698,0 2.699094,-0.867117 3.578659,-1.926927 1.965206,-2.367929 11.793753,-5.562078 20.727306,-6.736106 3.66667,-0.481865 8.75511,-2.091256 11.30765,-3.576425 3.09502,-1.800802 7.31444,-2.765859 12.66667,-2.897092 7.26761,-0.178196 9.66291,0.579354 25.35902,8.020161 17.78233,8.429795 19.86055,8.983017 49.33333,13.132528 33.17957,4.671396 80.07511,19.552472 113.33333,35.963378 11,5.42783 22.1,11.22196 24.66667,12.87585 2.56666,1.65389 11.11666,6.74576 19,11.31526 l 14.33333,8.30819 0.0693,-5.57274 c 0.0838,-6.7448 6.00994,-23.00743 10.59739,-29.0818 7.3918,-9.78773 13.45394,-15.35232 20.87054,-19.15761 l 7.7961,-4 24.66667,0.162886 c 13.56666,0.08959 36.06666,1.128967 50,2.309732 17.01801,1.442173 43.49573,2.239415 80.66666,2.428864 57.5512,0.293323 72.91269,-0.684888 120.66667,-7.683977 36.64048,-5.370234 128.04645,-25.269692 132.30398,-28.803124 2.37635,-1.972198 15.29118,-2.113792 15.97086,-0.175099 0.53918,1.537927 -5.17911,6.365343 -20.24867,17.094051 -21.78478,15.509587 -62.19999,54.530887 -67.13863,64.823047 -4.73683,9.87158 -6.39349,19.92422 -4.17409,25.32841 5.61249,13.66628 21.82607,23.38934 47.6947,28.60185 8.57551,1.72797 18.59184,4.05599 22.25851,5.17338 3.66667,1.1174 17.07967,3.78402 29.80667,5.92581 12.72701,2.1418 23.80129,4.55547 24.60953,5.3637 2.4478,2.4478 -1.09302,4.44572 -23.74953,13.40078 -50.81799,20.08597 -61.90198,29.29949 -61.97072,51.51289 l -0.0293,9.4632 8.66099,10.15063 c 7.26046,8.50922 10.30343,10.94061 18.8179,15.03591 13.48447,6.48577 43.19362,17.31199 60.30214,21.97453 13.65113,3.7203 20.21896,6.74068 20.21896,9.29817 0,1.98404 -6.67823,4.57501 -27.33333,10.60459 -28.81558,8.41177 -55.31582,17.08203 -62.66666,20.50308 -3.66667,1.70644 -9.21667,5.88014 -12.33334,9.27487 -5.46572,5.95337 -5.66666,6.48297 -5.66666,14.93491 0,15.2068 7.58689,25.20217 30.48108,40.1574 8.53541,5.5756 21.21892,13.86923 28.18558,18.4303 6.96667,4.56106 18.06667,11.11692 24.66667,14.56856 6.6,3.45165 13.5,7.41294 15.33333,8.80287 6.49412,4.92346 2.54829,5.70871 -37.64082,7.49091 -33.04023,1.46517 -39.21172,2.08972 -50.00103,5.06012 -13.18507,3.62996 -19.83068,7.15425 -26.62967,14.1222 -6.65972,6.82523 -8.92115,12.74692 -8.90991,23.33122 0.0115,10.79747 2.18686,15.91303 11.66078,27.42092 9.43038,11.45499 40.8658,35.60326 51.73551,39.74253 1.71516,0.65314 7.16848,3.10198 12.11848,5.44186 8.89476,4.20457 11.20157,7.18667 6.66666,8.61823 -5.65592,1.78545 -29.49005,3.39876 -50.52539,3.42002 -28.27281,0.0286 -46.47912,-1.76536 -61.19454,-6.02972 C 725.05385,605.47623 719.66118,604 719.29634,604 c -1.37324,0 16.34929,23.45706 23.79413,31.49328 17.45181,18.83807 46.66372,36.0263 72.48456,42.64977 18.2291,4.67606 43.73519,5.70263 63.75828,2.56615 19.04078,-2.9826 43.39376,-9.14701 47.96266,-12.14068 3.05316,-2.0005 3.78003,-2.07065 4.79816,-0.46309 2.84611,4.49384 -4.45137,32.6562 -11.71954,45.2279 -11.0993,19.1984 -19.41434,29.78049 -38.34011,48.79336 -29.52941,29.6653 -45.13863,40.05659 -76.0345,50.61726 -12.23825,4.18322 -16.98469,5.11575 -28.66666,5.63215 -7.7,0.34038 -14.9804,1.12886 -16.17866,1.75218 -1.84238,0.95839 -2.27923,4.58599 -2.8303,23.50252 -0.97924,33.61454 -5.05954,46.02541 -22.9834,69.90758 -14.87519,19.82005 -37.61388,37.77125 -57.20792,45.16315 -5.93985,2.24082 -11.99972,4.62126 -13.46639,5.28986 -6.4308,2.93157 -31.93983,8.10064 -46,9.32129 -18.72926,1.626 -54.66715,1.73533 -57.13119,0.1738 z"
       id="path1"
       transform="translate(-44.071487,-56.857845)" />
    <path
       id="path2"
       style="fill:#0066ff"
       d="M 352.89375 146.80706 C 352.23128 146.75078 351.99922 147.09836 351.99922 147.76019 C 351.99922 148.36215 354.38605 155.18638 357.30196 162.92425 C 362.46025 176.61274 366.51558 190.21062 371.54219 210.66644 L 373.99922 220.66644 L 381.33321 224.26019 C 385.36653 226.23621 390.16589 228.12848 391.99922 228.46527 C 398.59875 229.67765 408.32817 228.06191 413.80391 224.84417 C 418.93462 221.82918 425.33321 214.8905 425.33321 212.34222 C 425.33321 211.7373 423.38255 210.11371 420.99922 208.7348 C 415.1617 205.35744 391.66347 184.92092 385.97383 178.27386 C 383.45886 175.33569 380.40921 170.33409 379.19649 167.15863 C 377.31658 162.23616 375.31572 160.3 365.63008 154.02581 C 357.89254 149.01357 354.35119 146.93089 352.89375 146.80706 z M 435.03438 219.4223 L 428.03242 225.71917 C 423.05258 230.19649 418.85932 232.61567 413.51485 234.09808 C 409.38172 235.24448 405.1002 236.48075 404.00117 236.84417 C 401.91256 237.53483 408.28541 244.1636 421.8918 255.4555 C 430.68307 262.75134 427.76404 263.97126 417.45625 257.30902 C 412.93917 254.38948 408.76781 252.00042 408.18672 252.00042 C 407.60563 252.00042 408.50959 256.05043 410.19649 261.00042 C 411.8834 265.95042 413.27912 272.76593 413.29805 276.14691 C 413.35265 285.89436 414.89423 294.66644 416.55196 294.66644 C 417.38963 294.66644 422.25768 292.65967 427.37032 290.2055 C 445.54641 281.48059 450.97627 273.96823 450.80977 257.77191 C 450.69434 246.54287 445.54813 232.01766 438.83711 223.97894 L 435.03438 219.4223 z M 377.15547 236.11175 C 376.90444 236.11418 376.6994 236.18891 376.54805 236.34027 C 376.16244 236.72588 375.28535 244.75753 374.59688 254.18792 C 373.11724 274.45526 370.40444 289.09184 365.925 300.99261 C 364.13266 305.7544 362.66719 310.47992 362.66719 311.49261 C 362.66719 314.27093 374.64867 313.83538 382.73164 310.76409 C 391.36788 307.48259 397.59288 302.71404 401.53242 296.36175 C 404.14023 292.15682 404.64296 289.58604 404.59688 280.66644 C 404.55088 271.76999 403.9487 268.85608 400.96992 263.10784 C 395.26101 252.09123 380.92098 236.07528 377.15547 236.11175 z M 459.84883 242.69964 C 459.3988 242.68164 459.0975 248.0659 459.18086 254.66449 C 459.26426 261.26306 459.74861 266.66307 460.25703 266.66449 C 460.76545 266.66549 462.11546 265.33338 463.25703 263.70355 C 464.39861 262.07371 465.33321 258.79761 465.33321 256.42425 C 465.33321 252.27158 461.53534 242.76726 459.84883 242.69964 z M 449.51485 286.30316 L 443.75703 291.23675 C 439.87438 294.56426 434.85191 297.09955 428.33321 299.01995 C 423.01655 300.58624 418.66719 302.59485 418.66719 303.4848 C 418.66719 304.37475 422.47742 308.13492 427.13399 311.84027 C 437.11753 319.78441 439.26861 322.13686 437.53633 323.20745 C 436.84388 323.63541 433.23056 321.88926 429.50508 319.32659 C 425.77961 316.76392 422.46508 314.66644 422.13985 314.66644 C 421.81462 314.66644 422.20063 316.91644 422.99727 319.66644 C 423.79393 322.41644 424.47429 329.7996 424.50899 336.07269 C 424.56129 345.52377 424.0648 348.33449 421.61836 352.48089 C 419.99455 355.23304 418.66719 358.65185 418.66719 360.07659 C 418.66719 363.15811 422.73857 363.46052 433.60078 361.18792 C 443.5412 359.10819 455.29519 352.54402 461.30782 345.71331 C 473.82519 331.49282 470.85221 307.13874 454.6711 291.33831 L 449.51485 286.30316 z M 405.89571 310.92816 C 404.29105 311.11549 400.91545 312.58031 397.80196 314.4887 C 392.23992 317.89792 377.9047 321.33245 369.2375 321.33245 C 366.19542 321.33245 368.74733 324.37947 378.66719 332.58636 C 384.53385 337.43997 389.33321 341.99331 389.33321 342.7055 C 389.33321 345.1995 386.04954 343.95496 378.30977 338.52581 C 374.01694 335.51457 370.2524 333.30388 369.94258 333.6137 C 369.63276 333.92352 369.96786 336.23327 370.68867 338.74652 C 372.82299 346.18846 372.22583 358.04219 369.33321 365.65277 C 367.86691 369.51063 366.66756 373.4374 366.66719 374.37933 C 366.66628 376.70181 378.21894 375.20187 387.99922 371.6098 C 408.67783 364.01501 417.78774 350.10307 415.27071 329.95745 C 414.19943 321.38319 409.63395 311.5112 406.46992 310.92816 C 406.31888 310.90032 406.12494 310.9014 405.89571 310.92816 z M 478.26485 318.67034 C 478.11917 318.67234 477.93799 322.12215 477.8625 326.33831 C 477.7765 331.1409 476.72071 335.99636 475.03438 339.33636 C 470.2197 348.87252 470.13734 350.24465 474.28438 351.85394 C 478.27182 353.4013 494.70067 352.86281 497.87422 351.0805 C 499.44548 350.19806 499.04587 348.9048 495.68086 344.00042 C 493.41666 340.70043 488.63036 333.64912 485.0461 328.33245 C 481.46182 323.0158 478.41054 318.66871 478.26485 318.67034 z M 356.3 328.06292 C 355.76883 328.09712 351.13256 333.53954 345.99922 340.15863 C 335.518 353.67346 323.70132 363.98836 310.26875 371.34808 C 301.53618 376.13266 301.28813 376.40742 303.49336 378.84417 C 306.72156 382.41128 312.36506 383.74511 324.66719 383.85003 C 332.68166 383.91843 336.81644 383.26876 341.2961 381.23675 C 350.9569 376.85452 356.08755 372.13009 359.65742 364.33245 C 362.54416 358.02698 362.91117 355.67796 362.38789 346.85784 C 361.83109 337.47265 358.73291 327.90602 356.3 328.06292 z M 505.38594 359.43597 C 504.73745 359.4487 503.77242 359.68226 502.34297 360.09222 C 499.96447 360.77437 494.86382 361.33245 491.00899 361.33245 C 487.15415 361.33245 483.99922 361.7173 483.99922 362.18597 C 483.99922 362.65465 487.29988 366.79702 491.33321 371.39105 C 495.36654 375.98507 498.66719 380.10023 498.66719 380.53753 C 498.66719 382.57249 494.50496 380.91661 488.93867 376.66644 C 485.57722 374.09977 482.64061 372.00042 482.41328 372.00042 C 482.18595 372.00042 481.98388 377.85043 481.96407 385.00042 C 481.93407 395.81775 481.43041 398.94266 478.96407 403.6137 C 474.57296 411.9301 474.96507 413.33555 481.66719 413.31683 C 484.78385 413.30783 490.41183 412.48096 494.175 411.47894 C 507.97662 407.804 525.33321 395.94739 525.33321 390.19378 C 525.33321 389.25174 522.89442 385.22309 519.91328 381.24066 C 516.93216 377.25821 513.22109 371.75042 511.66719 369.00042 C 510.11329 366.25043 508.35337 364.00042 507.75508 364.00042 C 507.15678 364.00042 506.66719 362.84167 506.66719 361.4262 C 506.66719 360.00839 506.46676 359.41476 505.38594 359.43597 z M 464.15547 360.00042 C 462.81188 360.00042 457.83904 362.01904 453.10469 364.48675 C 446.55805 367.8991 442.04343 369.20364 434.24922 369.93402 C 428.61267 370.46221 423.99922 371.24129 423.99922 371.66644 C 423.99922 372.09158 427.74782 376.34265 432.32735 381.11175 C 440.50311 389.62595 441.24396 393.55618 433.68672 388.32269 C 426.01742 383.01159 426.23649 382.87505 427.25117 392.35003 C 428.23579 401.54435 426.43627 410.75851 423.11836 413.51214 C 422.13705 414.32655 421.33321 416.67917 421.33321 418.74066 C 421.33321 421.82212 421.98476 422.57687 424.99922 422.97894 C 432.53054 423.98348 443.58308 422.18807 451.33321 418.70159 C 470.91468 409.89267 477.60599 396.68081 472.63594 376.64105 C 469.70783 364.83459 467.24516 360.00042 464.15547 360.00042 z M 407.54805 374.66644 C 406.05991 374.66644 402.33094 375.8824 399.26289 377.36761 C 396.19485 378.85283 389.55579 380.43282 384.50899 380.87933 C 379.46218 381.32585 374.52492 382.11809 373.53633 382.63909 C 372.26661 383.30825 374.51236 386.09242 381.18867 392.12542 C 386.38682 396.82268 390.6464 401.07388 390.65352 401.57269 C 390.67712 403.2259 382.84272 400.26871 378.38594 396.94183 C 375.97347 395.14096 372.70798 393.00153 371.12813 392.18792 C 368.28111 390.72173 368.26051 390.80127 368.95625 401.02191 C 369.48784 408.83118 369.12711 412.60351 367.46602 416.56878 C 364.95729 422.5575 365.13025 422.85181 374.3 428.13519 C 381.42962 432.24309 385.11742 432.20778 396.55782 427.92425 C 405.28643 424.65608 412.66809 418.51723 416.26289 411.53753 C 422.70908 399.02156 416.95264 374.66644 407.54805 374.66644 z M 291.33321 381.3598 L 278.80586 384.58831 C 268.25777 387.30771 256.5142 389.26302 240.25313 391.00433 C 237.63952 391.28421 239.97572 394.10557 255.69453 409.66644 C 265.8802 419.74976 275.23956 428.00042 276.49336 428.00042 C 277.74715 428.00042 280.99914 426.85501 283.71992 425.4555 C 289.5073 422.47862 294.82097 417.06619 297.84688 411.06683 C 300.22639 406.34906 300.75832 395.29281 298.66719 394.00042 C 297.93386 393.5472 297.33321 392.04502 297.33321 390.66253 C 297.33321 389.28003 295.9832 386.62138 294.33321 384.75433 L 291.33321 381.3598 z M 355.89571 386.66644 C 355.16157 386.66644 352.03393 388.01644 348.94649 389.66644 C 344.15736 392.22585 341.3311 392.66151 329.70039 392.62933 L 316.06758 392.59222 L 319.55977 396.23675 C 322.7276 399.54324 337.78008 408.00042 340.49727 408.00042 C 341.113 408.00042 343.87824 409.79251 346.64375 411.98284 C 357.50631 420.58615 361.33321 419.37157 361.33321 407.32074 C 361.33321 399.6128 357.92518 386.66644 355.89571 386.66644 z M 309.24727 396.00042 C 308.67058 396.00042 308.25721 399.78528 308.32735 404.41058 C 308.47566 414.1908 306.14719 419.14311 299.14961 423.93792 C 293.04522 428.12072 293.84244 430.8203 302.00508 433.60784 C 311.39149 436.8133 314.32071 436.55004 318.76875 432.10199 C 322.40653 428.46422 322.66719 427.51539 322.66719 417.86175 L 322.66719 407.51995 L 316.48164 401.76019 C 313.07984 398.59227 309.82396 396.00042 309.24727 396.00042 z M 535.98164 408.00042 C 535.01855 408.00042 534.99432 408.78813 535.90547 410.49066 C 536.6388 411.8609 536.91998 413.30232 536.52852 413.69378 C 536.13706 414.08524 536.51538 419.19074 537.37032 425.03753 C 539.42784 439.10906 537.69816 447.47497 530.55586 457.99847 C 525.5762 465.33551 525.35117 466.04812 527.51094 467.62738 C 531.9269 470.8564 544.12471 469.72509 553.06758 465.25628 C 557.55533 463.01373 562.76389 459.35329 564.6418 457.12152 L 568.05586 453.06292 L 563.3293 446.86566 C 560.72955 443.45666 557.40272 438.41316 555.93672 435.65863 C 554.47072 432.90409 552.08538 429.90952 550.63594 429.00433 C 549.18649 428.09914 547.99922 426.69509 547.99922 425.88519 C 547.99922 423.55706 537.54594 408.00042 535.98164 408.00042 z M 520.67305 410.66644 C 519.50927 410.66644 514.96139 412.53885 510.56563 414.82659 C 505.1206 417.66043 499.58873 419.3139 493.21016 420.01409 C 488.06074 420.57935 483.50651 421.38376 483.08907 421.8012 C 482.67163 422.21865 484.86749 424.83417 487.96992 427.6137 C 494.46113 433.4293 499.3208 439.79018 498.15938 440.95159 C 497.72058 441.39039 493.80608 438.95579 489.46016 435.54144 C 485.11423 432.12708 481.27441 429.33245 480.92696 429.33245 C 480.57951 429.33245 480.5945 434.28246 480.96016 440.33245 C 481.50854 449.4061 481.13296 452.61734 478.81367 458.66644 C 475.30059 467.82915 475.27336 467.49397 479.66719 469.20355 C 485.80538 471.59184 501.4196 470.0003 509.54024 466.15863 C 517.96409 462.17351 524.99315 455.74745 527.53047 449.70941 C 528.52885 447.33358 529.32674 440.7891 529.31953 435.04339 C 529.30923 426.85557 528.61971 423.19013 526.04805 417.66644 C 524.12304 413.53166 521.92291 410.66644 520.67305 410.66644 z M 463.85664 422.8637 C 462.49581 422.89372 460.83871 423.54203 458.58125 424.70941 C 454.78823 426.67086 447.89722 428.48085 436.81367 430.42425 L 431.62813 431.33245 L 439.81367 440.3598 C 451.29489 453.02041 450.87595 455.60559 438.69844 447.22894 C 434.88427 444.60526 431.59921 442.65656 431.39961 442.89691 C 431.20001 443.13725 430.65599 446.7168 430.19063 450.85199 L 429.34492 458.36956 L 442.33907 465.69378 C 449.48589 469.72127 455.69725 473.08694 456.1418 473.17425 C 456.58634 473.26155 459.6469 471.27467 462.94258 468.75824 C 470.69068 462.84211 472.67499 457.90506 472.63008 444.66644 C 472.60148 436.23529 471.96681 432.8115 469.60274 428.33245 C 467.57039 424.48193 466.1247 422.81367 463.85664 422.8637 z M 413.8918 431.14886 C 412.63135 431.06624 408.05069 432.64173 403.27071 434.82659 L 393.99922 439.06292 L 399.99922 441.91644 C 403.29922 443.48577 409.00052 446.68486 412.66719 449.02581 C 416.33385 451.36677 419.78321 453.29313 420.33321 453.30706 C 420.88321 453.32096 421.33321 451.12214 421.33321 448.42034 C 421.33321 443.20278 416.70941 432.18969 414.09883 431.18792 C 414.04525 431.16736 413.97583 431.15437 413.8918 431.14886 z M 283.3918 432.5473 C 283.05085 432.54677 282.76145 432.60831 282.54414 432.74261 C 281.45897 433.41329 281.95731 434.47336 284.15157 436.16058 C 287.63996 438.84289 290.66719 439.40188 290.66719 437.3637 C 290.66719 435.55811 285.77842 432.551 283.3918 432.5473 z M 567.68282 469.96527 C 566.31278 469.85784 562.82533 470.89746 559.29414 472.51409 C 555.2585 474.36168 548.36567 476.27937 543.97774 476.77581 C 539.58979 477.27225 536.00294 478.051 536.00703 478.50628 C 536.01103 478.96155 539.3204 483.47426 543.36055 488.53558 C 547.4007 493.59689 550.38586 498.05713 549.99532 498.44769 C 549.60476 498.83824 545.77664 496.6834 541.4875 493.65863 L 533.68867 488.15863 L 532.96211 496.18792 C 532.47744 501.53297 530.7804 507.05045 527.88594 512.69378 C 524.32197 519.64245 523.83666 521.53146 525.19844 523.1723 C 529.2521 528.05665 545.8569 527.12976 557.9836 521.34222 C 562.68932 519.09639 567.76339 515.53712 569.26094 513.43402 C 573.21179 507.88556 576.38767 494.29086 575.30196 487.57269 C 574.25101 481.06959 570.29617 471.41876 568.13399 470.08245 C 568.03071 470.01863 567.87853 469.98061 567.68282 469.96527 z M 470.66719 474.00042 C 468.55388 474.00042 467.20337 474.86015 466.90742 476.39691 C 466.44576 478.79413 468.76836 482.66644 470.66719 482.66644 C 471.22093 482.66644 472.39679 481.79566 473.28047 480.73089 C 475.83668 477.65085 474.41936 474.00042 470.66719 474.00042 z M 515.14961 474.96722 C 513.25166 475.01399 510.10142 475.61839 507.09883 476.56488 C 501.55588 478.31214 497.69436 478.63674 490.90938 477.9223 L 481.99922 476.98284 L 484.62032 480.15863 C 486.06186 481.9049 489.60985 485.8564 492.50508 488.93988 C 495.4003 492.02334 497.86051 495.78355 497.97188 497.29534 C 498.18786 500.22697 514.37209 514.90104 516.66719 514.24652 C 517.40052 514.03739 519.34922 511.2202 520.99922 507.9848 C 523.05967 503.94455 523.99003 499.78877 523.96992 494.71722 C 523.93762 486.57158 520.13304 476.47936 516.5793 475.11566 C 516.27675 474.99956 515.78226 474.95163 515.14961 474.96722 z M 585.0461 486.79534 C 584.85308 486.93588 584.45029 489.61689 584.04219 493.61566 C 583.41467 499.76439 581.80481 505.08915 578.89766 510.63519 C 574.06532 519.85393 573.70987 522.19176 576.99922 523.15277 C 581.47768 524.46118 593.80701 522.57024 598.68867 519.82659 L 603.6086 517.06292 L 597.16524 505.53167 C 593.62135 499.18959 589.51039 493.00312 588.02852 491.78558 C 586.54666 490.56803 585.24787 488.46868 585.14375 487.11956 C 585.12423 486.8666 585.09064 486.76291 585.0461 486.79534 z M 481.82344 487.44769 C 481.49269 487.44815 481.33321 487.68467 481.33321 488.15472 C 481.33321 489.24778 483.58321 491.44748 486.33321 493.04144 C 491.39198 495.97362 493.58594 496.83852 491.2668 494.9887 C 490.57013 494.43301 488.05052 492.22087 485.66719 490.07269 C 483.71053 488.30908 482.45488 487.4468 481.82344 487.44769 z M 608.87617 525.75628 L 600.98555 528.21136 C 596.64601 529.56198 590.44872 530.66644 587.21407 530.66644 C 583.9794 530.66644 581.33321 531.01335 581.33321 531.43792 C 581.33321 531.86248 584.39463 535.73019 588.13594 540.03167 C 596.3496 549.47511 596.26163 552.69462 587.96992 546.10394 C 584.68665 543.49421 581.67176 541.35325 581.27071 541.34613 C 580.86965 541.33913 579.87525 545.22796 579.05977 549.9887 C 577.97674 556.31139 576.29801 560.38659 572.83516 565.10394 C 569.22834 570.01741 568.46641 571.93246 569.64766 573.1137 C 572.08529 575.55133 584.62405 574.93368 593.5168 571.93792 C 604.37673 568.27948 607.4627 566.05928 611.675 558.87152 C 616.22927 551.10025 616.32766 541.99725 611.96016 532.47699 L 608.87617 525.75628 z M 564.8 530.66644 C 563.69836 530.66644 559.34155 531.56644 555.11836 532.66644 C 550.89519 533.76644 544.86584 534.66644 541.71992 534.66644 C 538.574 534.66644 535.99922 535.12728 535.99922 535.68988 C 535.99922 536.25247 538.72077 539.82212 542.0461 543.62347 C 548.3647 550.84659 556.31162 562.08262 557.74532 565.81878 C 558.88961 568.80079 560.33474 568.56406 564.48555 564.71722 C 569.13685 560.40653 570.66719 556.07222 570.66719 547.20355 C 570.66719 538.87869 567.75345 530.66644 564.8 530.66644 z M 625.10469 540.00042 C 624.49719 540.00042 623.99467 542.25043 623.9875 545.00042 C 623.9724 550.80796 618.98874 562.19639 614.85469 565.87347 C 608.47948 571.54396 612.87211 574.88371 626.00899 574.35589 C 633.20916 574.0666 637.18452 573.06606 643.34297 569.99066 C 647.73793 567.79591 651.33321 565.29251 651.33321 564.42816 C 651.33321 562.72983 626.92819 540.00042 625.10469 540.00042 z M 648.38789 579.60394 C 648.24756 579.60543 648.10514 579.61259 647.96016 579.62542 C 640.66224 580.27122 622.02566 582.86265 621.59688 583.29144 C 621.34488 583.54344 623.37359 587.1156 626.10469 591.22894 C 628.83579 595.34227 630.73039 599.04854 630.31367 599.46527 C 629.89695 599.88199 626.97837 597.64364 623.82735 594.49261 C 618.11196 588.77723 618.09438 588.77244 617.18086 592.04925 C 616.67721 593.85584 616.20513 597.79397 616.13203 600.8012 C 615.97994 607.05826 613.78977 614.3627 611.14375 617.43792 C 608.4862 620.52656 608.92962 623.38694 612.33321 625.11761 C 617.18794 627.58616 638.32597 626.38324 644.66719 623.27777 C 648.39563 621.45185 650.93303 618.86092 653.10274 614.66644 C 655.81071 609.43135 656.12853 607.28724 655.59492 597.84613 C 654.86824 584.98886 652.73819 579.55764 648.38789 579.60394 z M 600.73946 579.6098 C 598.58746 579.59168 595.35591 579.8456 590.66719 580.36566 C 583.70054 581.13838 577.77733 581.94533 577.50508 582.15863 C 577.08819 582.48526 584.3577 592.37591 589.45625 598.42034 C 592.85743 602.4525 588.99295 601.33723 584.03047 596.85394 C 581.07565 594.18443 578.06052 592.00042 577.3293 592.00042 C 574.17941 592.00042 576.40802 600.90257 582.30782 611.89105 C 588.36368 623.17024 588.75898 623.59683 592.24141 622.59808 C 594.23622 622.02598 597.33553 620.45667 599.12813 619.11175 C 605.6076 614.25042 608.22014 608.77972 608.17891 600.16058 C 608.14201 592.43886 606.4256 583.6602 604.33321 580.48089 C 603.96292 579.91825 602.89145 579.62791 600.73946 579.6098 z M 670.38203 582.54925 C 668.87873 582.50176 667.99922 582.87624 667.99922 583.73675 C 667.99922 584.32561 669.87298 587.3536 672.16133 590.46527 C 674.44968 593.57694 676.05211 596.39089 675.72383 596.71917 C 675.39554 597.04746 672.70529 595.24303 669.74532 592.70941 L 664.36446 588.10394 L 663.70039 599.74261 C 663.23065 607.98118 662.20342 613.01424 660.18477 616.97113 C 658.61632 620.04553 657.33321 623.18514 657.33321 623.94769 C 657.33321 625.95442 670.48916 625.65993 677.69063 623.49261 C 687.3463 620.58667 691.1629 617.13796 693.6125 609.10589 C 698.31908 593.67339 698.66484 594.70711 686.66328 588.33245 C 680.01848 584.80306 673.68931 582.65374 670.38203 582.54925 z M 705.68282 605.35394 C 704.77538 605.34284 701.87616 609.61814 699.23946 614.85394 C 695.43165 622.41522 694.81024 624.61882 696.22188 625.56683 C 698.16636 626.87268 706.18518 626.05566 712.99922 623.85784 C 715.38255 623.08913 717.33321 621.68317 717.33321 620.73284 C 717.33321 618.20334 707.61703 605.37769 705.68282 605.35394 z M 599.08321 630.9262 C 598.49451 630.93139 597.78258 631.04336 596.88399 631.22308 C 594.67136 631.66561 592.64378 632.24454 592.37813 632.51019 C 591.95213 632.93619 595.15423 641.96937 599.99727 654.00042 L 601.6086 658.00042 L 602.92696 654.66644 C 603.652 652.8331 604.30319 648.58156 604.37422 645.21722 C 604.44522 641.85288 603.69312 637.14545 602.7043 634.75824 C 601.49957 631.84975 600.84929 630.91066 599.08321 630.9262 z M 686.31758 631.74456 L 674.15742 632.68988 C 667.47032 633.20973 661.55337 633.9003 661.00703 634.22503 C 660.46069 634.54976 662.52028 638.37122 665.58516 642.71722 C 668.65004 647.06322 670.85976 650.91722 670.49532 651.28167 C 670.13087 651.64612 667.76997 650.1808 665.24922 648.02581 C 662.72846 645.87082 659.94035 644.08491 659.05196 644.05511 C 658.16356 644.02531 656.7498 646.54977 655.91133 649.66644 C 653.91413 657.09019 651.12242 662.52006 647.07539 666.85003 L 643.78828 670.36761 L 646.85664 672.51605 C 650.99461 675.4144 659.24929 675.22306 669.7336 671.9848 C 676.01623 670.04429 679.53565 668.02764 682.46797 664.68792 C 688.87103 657.39524 691.1035 645.4743 687.82539 636.07074 L 686.31758 631.74456 z M 721.97774 631.99066 C 716.54839 631.86077 703.22523 633.66307 701.82735 635.06097 C 701.40062 635.4877 703.01615 638.57304 705.41719 641.91644 C 710.16379 648.52595 709.85618 651.54223 704.90938 646.89495 C 700.4468 642.70257 699.16918 643.25905 697.43086 650.16253 C 696.57728 653.5524 694.43248 659.18093 692.66524 662.66839 C 690.898 666.15587 689.87665 669.44386 690.39375 669.97699 C 692.10146 671.73765 706.09546 669.67952 711.63789 666.85199 C 714.63215 665.32443 718.34856 662.46392 719.89766 660.49456 C 725.55723 653.29957 727.89373 638.16482 724.23164 632.41839 C 724.063 632.15377 723.23066 632.02063 721.97774 631.99066 z M 615.85078 633.33245 C 614.25331 633.33245 616.69431 638.08892 620.86446 643.10199 C 625.49784 648.67191 624.67175 650.16281 619.24532 646.02386 C 616.63049 644.02943 614.15802 642.73029 613.75117 643.13714 C 613.34432 643.54399 612.48491 646.69645 611.84102 650.143 C 611.19714 653.58954 609.15418 658.39953 607.3 660.8305 C 602.77441 666.76386 603.82151 671.62233 609.79219 672.39105 C 615.99851 673.19012 625.24324 672.10763 631.58125 669.84027 C 638.56835 667.34069 646.22521 659.03718 647.4211 652.66253 C 648.49221 646.95306 647.49304 636.29309 645.71992 634.51995 C 644.9444 633.74443 641.85773 633.87583 637.56953 634.86566 C 632.26414 636.09029 629.10004 636.09584 623.89766 634.89495 C 620.17504 634.03568 616.55396 633.33245 615.85078 633.33245 z M 634.9543 678.88714 L 620.75508 679.1098 C 607.07877 679.32432 606.57952 679.436 607.24727 682.1137 C 607.62861 683.6429 608.30489 689.34226 608.74922 694.77972 C 609.19355 700.21717 609.78719 705.4158 610.06953 706.33245 C 610.76192 708.58045 619.26294 708.45345 623.7336 706.12738 C 631.36448 702.15703 633.87959 697.90508 634.43672 688.04534 L 634.9543 678.88714 z M 675.97774 679.47699 C 674.59381 679.49916 672.51773 679.96127 669.41524 680.76605 C 664.8981 681.93778 659.55261 682.32419 655.10274 681.8012 C 651.19639 681.34208 648.00193 681.49789 648.00508 682.14886 C 648.00808 682.79982 650.40889 686.49493 653.33907 690.3598 C 656.26923 694.22467 658.66719 697.67598 658.66719 698.02777 C 658.66719 699.76809 655.80987 698.16882 650.38203 693.39105 L 644.38789 688.1137 L 642.8 693.41253 C 641.92696 696.32648 639.34647 700.83629 637.06563 703.43402 C 633.32605 707.69316 633.12238 708.35991 634.97969 710.21722 C 639.55829 714.79582 651.2939 715.14617 661.69649 711.01605 C 671.03659 707.30776 678.66719 694.93213 678.66719 683.4887 C 678.66719 680.62568 678.28429 679.44003 675.97774 679.47699 z M 615.33321 716.00042 C 611.26819 716.00042 610.66719 716.42102 610.66719 719.26995 C 610.66719 722.23462 613.14958 729.33245 614.18672 729.33245 C 614.42077 729.33245 615.82429 726.95727 617.30586 724.05316 C 620.96094 716.8886 620.7435 716.00042 615.33321 716.00042 z "
       transform="translate(-44.071487,-56.857845)" />
    <path
       id="path3"
       style="display:inline;fill:#44aa00"
       d="m 128.96407,67.586361 c -1.5525,0.07161 -2.95465,0.433531 -4.39454,1.035156 -7.33617,3.065249 -15.13695,15.453487 -24.31836,38.621093 -4.587809,11.57656 -4.784198,12.74996 -4.630855,27.58789 0.138885,13.43899 0.635497,16.71448 3.75,24.66602 4.604275,11.75499 17.352195,37.33941 24.167965,48.5039 2.90999,4.76667 7.15297,12.67236 9.42774,17.56836 6.80245,14.64103 2.76963,12.9963 -16.14844,-6.58789 C 77.418947,178.19503 69.448645,165.37363 64.409378,134.67425 l -2.160157,-13.16016 3.570313,-15.10742 c 1.96335,-8.309084 4.466491,-16.838751 5.564453,-18.955075 2.249317,-4.335562 1.656549,-5.975598 -1.279297,-3.539063 -7.797844,6.471637 -15.48528,26.262588 -18.101562,46.599608 -2.01778,15.68473 -0.918633,26.7571 4.179687,42.12695 4.814056,14.51289 8.763409,21.71192 23.789063,43.36133 17.74881,25.57302 25.376662,39.23775 35.285152,63.2168 12.86638,31.13729 31.98222,63.48184 36.83789,62.33008 14.73441,-3.49496 18.56221,-3.14241 35.04297,3.22265 1.84266,0.71165 1.29143,-0.70688 -2.16797,-5.57421 -6.03988,-8.4981 -8.62662,-13.97006 -7.9707,-16.86329 0.29095,-1.28331 0.83103,-2.33203 1.19922,-2.33203 0.36819,0 4.67365,4.06589 9.56836,9.03516 10.37992,10.53804 18.72658,15.3401 33.01367,18.99414 23.49972,6.0102 48.74591,1.32153 70.52539,-13.0957 22.42991,-14.84781 40.34391,-40.99962 48.13086,-70.26758 1.89312,-7.11547 2.49266,-14.16444 2.52344,-29.66602 0.0222,-11.18331 0.46103,-20.33398 0.97656,-20.33398 3.72311,0 6.24156,31.37183 3.83789,47.81055 -5.16505,35.32407 -26.61889,67.74142 -54.75586,82.73828 -11.78252,6.28001 -30.80626,12.10742 -42.45703,13.00586 -13.90535,1.07231 -27.92647,-2.08289 -42.44336,-9.55274 -6.66832,-3.43126 -11.11914,-5.05898 -11.11914,-4.0664 0,3.47434 4.3658,10.18609 7.77539,11.95312 1.95694,1.01418 8.35796,7.29786 14.22461,13.96484 l 10.66797,12.12305 6.66602,0.006 c 3.66665,0.004 12.06603,-0.87979 18.66601,-1.96289 45.36543,-7.44472 73.37078,-25.50285 93.98438,-60.60352 20.21903,-34.42877 23.15224,-91.13775 7.13281,-137.90625 -6.97831,-20.37306 -16.40524,-39.37592 -22.61133,-45.58203 -8.37732,-8.37733 -56.5593,-29.3622 -88.50586,-38.546872 -15.21897,-4.375476 -41.86774,-9.956028 -52,-10.888672 -16.80253,-1.546622 -27.35085,-4.441964 -40,-10.984375 -12.37597,-6.40111 -18.37767,-8.802731 -23.03515,-8.58789 z m 134.30078,99.929689 c 3.3522,0.087 6.81861,0.61756 10.3457,1.64258 6.62338,1.92482 16.39442,9.31604 18.55469,14.03711 0.7057,1.54223 2.10937,4.24746 3.11914,6.01171 3.2006,5.59213 3.86881,17.76854 1.43554,26.13868 -4.61568,15.87744 -24.83907,28.35639 -40.05273,24.71484 -12.78355,-3.05987 -25.94588,-15.38536 -28.70312,-26.87891 -6.03696,-25.16478 11.83527,-46.2749 35.30078,-45.66601 z m 472.11328,477.8164 c -1.4123,0 -2.054,1.34136 -2.07422,4.33399 -0.0572,8.46832 -8.6073,22.20187 -16.63672,26.7207 -1.46666,0.82541 -8.66667,2.12624 -16,2.89063 l -13.33398,1.38867 -1.06836,8.66601 c -1.67145,13.56628 -9.26995,24.03924 -22.24805,30.66016 -6.35144,3.24027 -19.42375,3.51664 -27.34961,0.58008 -2.93333,-1.0868 -5.90775,-2.10911 -6.60937,-2.27344 -0.70162,-0.16434 -3.10228,3.08808 -5.33399,7.22852 -2.2317,4.14042 -5.12248,8.7034 -6.42383,10.14062 -2.26723,2.50393 -2.25923,3.08219 0.19922,13.80664 5.65797,24.68165 6.12943,30.24261 6.14063,72.52539 l 0.0117,41.33203 -4.82618,18 c -6.18663,23.07917 -12.69362,40.36185 -23.32031,61.92579 -4.67739,9.49149 -8.50586,18.11617 -8.50586,19.16796 0,1.50219 1.49358,1.76967 6.96289,1.24414 5.98044,-0.57463 7.56583,-1.36682 11.23828,-5.61523 7.25631,-8.39431 16.44396,-34.58675 25.27344,-72.05469 4.82519,-20.4757 6.05284,-69.36123 2.51758,-100.26562 -1.28933,-11.2711 -1.95457,-20.88137 -1.47852,-21.35742 5.54752,-5.54751 11.0547,45.0845 9.74805,89.62304 -0.88077,30.02239 -1.77531,34.75513 -15.16016,80.33594 -4.14597,14.11874 -7.16778,26.04121 -6.71484,26.49414 0.45293,0.45294 3.62397,0.40393 7.04688,-0.10937 11.17935,-1.67645 15.42851,-9.59725 22.20312,-41.38868 3.71716,-17.44361 4.02143,-21.06778 4.63281,-55.33203 0.6086,-34.10797 0.41627,-38.38862 -2.75976,-61.33398 -4.85892,-35.10332 -5.37482,-40.84589 -3.75391,-41.84766 0.76662,-0.4738 1.79366,-0.21396 2.2832,0.57813 0.48953,0.79209 3.2747,15.35227 6.1875,32.35547 4.27801,24.97236 5.43699,35.46451 6.03321,54.58203 0.81424,26.10783 -1.03957,57.21425 -5.02539,84.30468 -3.40872,23.16803 -3.50096,22.10647 1.76562,20.61133 8.61283,-2.4451 11.28126,-4.14231 13.35742,-8.49609 4.64198,-9.73432 5.39909,-19.67333 4.56055,-59.875 -0.85491,-40.98695 -3.50502,-67.35512 -10.87305,-108.21289 -1.85141,-10.26666 -3.36797,-19.71667 -3.37109,-21 -0.009,-3.5895 2.55807,-2.76538 4.15625,1.33398 2.54496,6.52783 10.09641,45.69609 13.56055,70.33203 5.4036,38.42903 6.28442,47.60994 7.60547,79.33399 0.68708,16.49998 1.26856,30.15065 1.29296,30.33398 0.0244,0.18333 1.31621,0.33203 2.86914,0.33203 1.55294,0 5.15295,-2.32872 8,-5.17578 l 5.17579,-5.17578 v -17.1914 c 0,-9.4555 -0.6319,-22.27614 -1.4043,-28.49024 -2.48318,-19.97774 -12.05997,-66.36241 -22.69727,-109.93164 -4.27705,-17.51839 -4.7988,-22.55728 -2.24804,-21.70703 4.53546,1.51183 33.21661,111.06009 36.9414,141.09766 2.46154,19.85033 2.76205,21.24218 4.57032,21.24218 2.56012,0 7.09451,-5.36153 9.60156,-11.35156 6.0239,-14.39279 1.88454,-32.35313 -27.58399,-119.66797 -10.99001,-32.56324 -13.11885,-43.27335 -6.28906,-31.64844 1.93879,3.3 9.86495,21.72245 17.61328,40.9375 12.06091,29.90977 18.11677,46.7643 26.69531,74.3125 4.05819,13.03204 6.85604,3.14599 6.58008,-23.25 -0.11286,-10.79511 -0.89185,-18.93357 -2.21093,-23.10351 -1.1201,-3.5409 -10.781,-22.4618 -21.46875,-42.04688 -10.68777,-19.58507 -19.40899,-36.4885 -19.37891,-37.5625 0.0739,-2.63845 10.02579,8.52479 14.29101,16.03125 3.3594,5.91228 18.06321,28.26388 26.30079,39.98047 5.71057,8.12234 14.27999,12.42079 25.08203,12.58008 8.61301,0.12701 15.60547,-1.19449 15.60547,-2.94922 0,-0.56125 -1.90906,-2.14718 -4.24219,-3.52539 -7.12327,-4.20781 -41.34153,-39.14728 -54.25,-55.39258 -11.90743,-14.98547 -13.40101,-17.34375 -10.98633,-17.34375 0.65313,0 14.30185,12.75145 30.33203,28.33789 40.41541,39.29662 44.44168,42.32813 56.21485,42.32813 6.99722,0 14.93164,-2.17845 14.93164,-4.09961 0,-0.64469 -1.64935,-2.17483 -3.66602,-3.40039 -22.27805,-13.53868 -43.69563,-31.08602 -73.95117,-60.58985 -10.47235,-10.21214 -14.20025,-15.91015 -10.4082,-15.91015 0.71957,0 5.37023,3.79912 10.33398,8.4414 8.55495,8.00094 41.20655,34.96702 48.35742,39.9375 23.11628,16.06786 36.44779,23.61878 41.71094,23.6211 2.98685,0.001 15.62305,-6.32557 15.62305,-7.82227 0,-0.61097 -3.85723,-2.74999 -8.57227,-4.7539 -10.32184,-4.38684 -29.05055,-16.45347 -61.9707,-39.92578 -26.28674,-18.74265 -37.40514,-27.94366 -35.77539,-29.60547 0.55857,-0.56957 5.05857,1.81931 10,5.30664 21.98201,15.51344 56.21987,37.40953 71.25976,45.57422 9.01596,4.89448 17.16419,9.51362 18.10742,10.26562 0.94323,0.752 6.04194,1.62467 11.33204,1.9375 9.21768,0.54508 9.82742,0.39269 14.61914,-3.63476 5.93419,-4.98774 6.34307,-7.6678 1.33398,-8.75196 -12.17138,-2.63434 -23.56857,-7.10674 -43.66797,-17.14062 -40.09719,-20.01703 -74.74598,-40.74994 -73.53711,-44.00196 0.78536,-2.11271 1.99384,-1.61729 16.42578,6.72461 50.73129,29.32351 99.77039,47.11105 115.53516,41.90821 5.14222,-1.69709 17.4147,-13.89145 16.56445,-16.45899 -0.35051,-1.05848 -5.59016,-1.95299 -15.0957,-2.57812 -37.27453,-2.45135 -68.56426,-11.94809 -111.15234,-33.73242 -13.68339,-6.99923 -18.92566,-11.31055 -13.75,-11.31055 1.2319,0 10.96327,4.14217 21.625,9.20508 36.29439,17.23501 75.57031,26.80835 102.71875,25.03711 18.10811,-1.18143 28.46612,-6.03554 33.36328,-15.63477 3.30859,-6.48537 3.42607,-10.60891 0.30273,-10.60352 -1.28333,0.002 -8.50421,1.20353 -16.04687,2.66797 -19.79689,3.84367 -60.28503,3.79954 -79.35157,-0.0859 -28.99338,-5.90848 -54.67684,-18.01486 -71.16211,-33.54297 -6.05881,-5.70704 -11.93578,-10.37696 -13.06054,-10.37696 z"
       transform="translate(-44.071487,-56.857845)" />
    <path
       style="fill:#ff8080"
       d="M 111.20349,198.47408 C 94.241983,172.03931 85.333332,149.22105 85.333332,132.2113 c 0,-13.30648 2.157828,-21.20383 11.248744,-41.168805 C 100.66193,82.082533 104,74.132533 104,73.375828 c 0,-4.063174 -14.800319,1.194384 -18.673189,6.633329 -1.451339,2.038219 -4.868372,10.219975 -7.593405,18.181681 -4.335953,12.668312 -4.958341,16.057442 -4.984516,27.142492 -0.0226,9.56992 0.726389,15.0954 3.063581,22.6009 3.946852,12.67466 11.590423,27.85694 19.164347,38.06577 6.090292,8.20905 21.067722,23.73323 21.998942,22.80201 0.28629,-0.28628 -2.31124,-4.93385 -5.77227,-10.32793 z"
       id="path4"
       transform="translate(-44.071487,-56.857845)" />
    <path
       id="path5"
       style="fill:#0000ff"
       d="M 788.1711 80.002376 C 786.43215 80.000876 772.03211 82.968751 756.1711 86.596126 C 740.31008 90.223504 719.23319 94.702205 709.33321 96.549251 C 691.58456 99.860628 639.49741 106.68921 631.46211 106.75824 C 629.19137 106.77774 613.25101 107.12418 596.04024 107.52777 C 560.9727 108.35009 496.60405 106.29316 464.51289 103.32464 C 433.06272 100.41541 422.14573 100.67042 413.89961 104.51019 C 405.94027 108.21642 394.52976 119.16198 390.37617 127.07464 C 386.0781 135.26255 386.07172 154.10625 390.36446 162.81878 C 394.66268 171.54244 409.35694 185.77215 431.16719 202.33245 C 455.43717 220.76041 468.35308 233.05968 472.62422 241.80902 C 476.29095 249.32018 478.13996 259.27046 476.83516 264.46917 C 475.46231 269.93902 469.59729 275.83005 464.58711 276.76995 C 459.46963 277.72999 458.85135 279.57481 462.36446 283.41449 C 472.19643 294.1604 501.57993 337.26002 567.75703 438.00042 C 618.60008 515.39804 616.56663 512.60148 636.64766 532.72503 C 689.78425 585.97413 728.52299 602.90981 791.33321 600.35199 C 800.13319 599.99363 807.77256 599.29865 808.30977 598.80706 C 808.84697 598.31548 801.9463 593.13802 792.97578 587.3012 C 772.98368 574.29302 760.55775 562.17397 754.43672 549.71722 C 750.36376 541.4284 750.00887 539.70643 750.1125 528.67816 C 750.44273 493.53531 770.39289 479.21081 825.58125 474.49066 C 835.61711 473.63231 844.54245 472.48831 845.41719 471.94769 C 847.92481 470.3979 845.90054 468.44594 835.60078 462.48284 C 799.00741 441.29701 793.60609 437.47934 784.30586 426.22503 C 775.66542 415.76913 773.33321 410.01964 773.33321 399.17425 C 773.33321 391.90913 774.06669 388.38496 776.66524 383.17034 C 785.05027 366.34379 793.61734 360.9888 832.33321 348.37933 C 845.35022 344.13977 855.80437 340.07086 855.56367 339.33636 C 855.09026 337.89172 848.73673 335.56333 829.99922 329.96917 C 814.36208 325.30066 795.06368 315.85893 787.44063 309.14886 C 783.68247 305.84079 779.72714 300.43333 777.02461 294.90863 C 773.07943 286.84357 772.68022 284.923 772.81172 274.61761 C 773.11511 250.83999 783.55654 239.25778 821.65352 220.43792 C 828.5882 217.01222 833.19201 213.99517 832.51289 213.32074 C 831.86456 212.67687 822.88379 210.91716 812.55586 209.41058 C 775.90095 204.06357 757.75929 197.81469 746.6125 186.69964 C 735.95214 176.06963 734.23697 171.67923 734.93867 156.81292 C 735.40012 147.03717 736.19784 143.33271 739.02852 137.8305 C 744.56353 127.07167 756.77895 112.65638 774.75703 95.668392 C 788.21467 82.951882 790.73788 80.00453 788.1711 80.002376 z M 481.5793 176.40472 C 483.65016 176.35852 488.07514 177.91817 495.99922 180.6723 C 513.47939 186.74779 574.78691 201.112 609.65547 207.3012 C 641.38361 212.93298 671.94796 217.27229 694.66719 219.37152 C 704.54598 220.28431 708.66178 221.84942 707.23946 224.15081 C 706.18795 225.85218 696.5917 225.38435 662.66719 221.97894 C 616.5869 217.3533 592.12671 213.65624 533.99922 202.53167 C 485.52444 193.25446 486.31449 193.51996 482.83516 185.43206 C 480.14583 179.18054 478.91676 176.46417 481.5793 176.40472 z M 535.43086 263.03167 C 536.42439 263.14038 539.78796 264.53982 543.55196 266.43988 C 578.14755 283.90368 662.11433 313.67689 694.66719 320.02191 C 701.63384 321.37982 718.43258 323.72121 731.99922 325.22699 C 765.75869 328.97399 767.99922 329.31852 767.99922 330.74847 C 767.99922 332.16377 757.3959 332.10313 733.99922 330.55511 C 697.04381 328.10998 676.74692 324.53258 636.42305 313.35394 C 610.86632 306.26906 589.5002 299.66901 561.99922 290.36566 L 544.66719 284.50238 L 539.62422 274.07074 C 536.85084 268.3338 534.83964 263.38266 535.15547 263.06683 C 535.19497 263.02733 535.28893 263.01617 535.43086 263.03167 z M 168.12617 350.9887 C 153.92397 350.62224 139.12775 358.98365 129.6125 373.23284 C 126.63266 377.69522 123.5821 384.30748 122.78047 388.04534 C 120.4484 398.91937 121.09757 419.89217 124.63008 447.88128 C 133.55921 518.62943 139.05214 586.59975 137.2668 604.25628 C 133.63862 640.13798 120.70503 683.99477 103.83321 717.63714 C 100.99115 723.3042 98.66719 728.2542 98.66719 728.63714 C 98.66719 730.66161 103.03793 728.48358 114.69453 720.64886 C 128.77777 711.18315 145.48821 703.32874 156.3918 701.0512 C 171.60623 697.87322 195.6657 706.54582 209.20821 720.08831 C 220.3719 731.25202 227.26757 746.05195 234.0168 773.33245 C 238.96617 793.33793 238.76601 792.82497 240.64571 790.25433 C 241.58863 788.96478 244.25869 782.1843 246.5793 775.18597 C 252.78406 756.47402 257.0656 748.32468 264.71407 740.6762 C 282.73815 722.65212 306.18121 722.00488 324.79414 739.01605 C 332.87831 746.40451 337.36885 753.5135 346.66719 773.65472 C 349.96719 780.80286 353.23178 786.69279 353.92305 786.74261 C 354.61433 786.79241 356.51488 782.74629 358.14571 777.75042 C 364.38366 758.64111 374.0722 746.63279 388.82539 739.72894 C 396.64151 736.07134 398.48662 735.72545 407.09297 736.29144 C 425.74972 737.51837 443.93637 750.97234 460.12813 775.52777 C 465.31342 783.39147 468.80097 787.52901 469.41133 786.54144 C 469.94896 785.67153 470.81556 780.39346 471.33711 774.81292 C 474.14395 744.77994 485.52416 724.1299 503.99922 715.5512 C 508.64543 713.39381 512.70682 712.75574 521.99922 712.71722 C 532.82212 712.67232 534.89609 713.0909 543.13008 716.99066 C 557.97008 724.01912 566.13639 733.56472 589.73164 771.45941 C 593.95854 778.24791 596.57952 781.2873 597.45235 780.41449 C 599.32442 778.5424 601.29335 752.10842 601.25703 729.33245 C 601.22563 709.66641 598.26253 683.3933 595.7336 680.34613 C 594.96669 679.42205 594.67221 678.66644 595.07735 678.66644 C 596.3272 678.66644 589.3231 654.65901 584.38008 642.00042 C 569.11345 602.90399 526.45539 537.50886 503.72578 518.35784 C 490.34842 507.08664 459.27131 487.76181 401.63594 454.87347 C 381.30289 443.27087 357.77665 429.52095 349.35469 424.31683 C 333.22313 414.34876 332.05973 414.20494 332.02071 422.16644 C 331.99091 428.24428 328.40748 437.42905 324.45821 441.5512 C 318.37965 447.89586 308.97456 450.99603 297.44844 450.45355 C 288.4456 450.02982 286.38138 449.39755 278.66719 444.7055 C 268.75675 438.67764 264.16852 434.21295 226.98555 394.40472 C 197.04626 362.3516 187.25663 354.43511 174.15938 351.68792 C 172.17184 351.27103 170.15506 351.04106 168.12617 350.9887 z M 583.8293 354.73284 C 585.10158 354.75664 587.38395 356.20823 590.50508 359.02777 C 593.16063 361.4267 599.28659 366.21089 604.11836 369.65863 C 613.55345 376.39107 657.1129 404.00042 658.3 404.00042 C 658.69385 404.00042 664.18863 406.9567 670.50899 410.57074 C 698.36345 426.49816 747.33727 444.00042 764.05196 444.00042 C 766.67271 444.00042 767.99922 444.6729 767.99922 446.00042 C 767.99922 448.86201 763.82549 448.48929 739.33321 443.44769 C 692.97302 433.90469 674.63049 427.07211 630.66719 402.96722 C 619.3697 396.77286 590.44746 377.46428 588.425 374.76605 C 586.8479 372.66197 582.66719 359.2141 582.66719 356.24652 C 582.66719 355.21957 583.06593 354.71861 583.8293 354.73284 z M 617.05 442.74066 C 617.57241 442.78106 621.26991 447.13041 625.2668 452.40667 C 642.8873 475.6674 672.56444 511.13563 686.63008 525.74261 C 703.29946 543.05357 726.85412 561.66537 742.33321 569.75824 C 747.64985 572.5379 751.99922 575.07999 751.99922 575.40667 C 751.99922 577.035 747.36166 575.45936 736.29024 570.07074 C 707.18275 555.90382 681.24935 534.33619 645.28438 494.38324 C 631.23219 478.77288 619.28166 464.79912 618.72774 463.33245 C 617.28958 459.52451 615.91498 442.65291 617.05 442.74066 z M 172.63008 454.62347 C 176.22257 454.86021 183.69477 459.54152 185.98946 463.97894 C 189.03209 469.86277 227.99922 627.48517 227.99922 633.90863 C 227.99922 634.32549 227.49997 634.66644 226.88789 634.66644 C 226.2758 634.66644 221.70349 618.9164 216.72774 599.66644 C 207.41556 563.63992 188.68198 504.28483 177.18477 474.37542 C 173.59947 465.04849 170.66719 456.79782 170.66719 456.04144 C 170.66719 454.95855 171.43259 454.54456 172.63008 454.62347 z M 271.55391 505.03167 C 272.51895 504.99597 274.23761 505.37861 276.53828 506.16253 C 283.29627 508.46521 282.90842 507.74048 295.71992 542.00042 C 305.85627 569.10659 308.51792 577.59619 321.41719 623.92816 C 331.46181 660.00669 334.74958 674.66644 332.7961 674.66644 C 332.31194 674.66644 331.65794 673.91709 331.34102 673.00042 C 331.0241 672.08375 326.60317 659.03373 321.5168 644.00042 C 299.36828 578.53831 287.65383 545.99719 279.44649 527.12738 C 274.61735 516.02455 270.66719 506.3154 270.66719 505.5512 C 270.66719 505.2245 270.97488 505.05309 271.55391 505.03167 z M 374.55 536.98675 C 375.51391 536.89045 377.34581 537.59016 380.86641 539.22699 C 389.47152 543.22774 392.36698 548.18109 409.39571 588.00042 C 430.62702 637.64701 445.92471 679.17458 444.96407 684.55706 C 444.475 687.29724 444.45394 687.29862 443.36055 684.66644 C 442.75131 683.19977 439.39571 674.8004 435.90157 666.00042 C 422.46031 632.1488 405.08712 596.2511 385.07539 560.97308 C 378.51505 549.40807 373.33923 539.06588 373.57344 537.99066 C 373.70446 537.38917 373.97166 537.04456 374.55 536.98675 z M 478.79414 560.00042 C 479.59794 560.00042 483.49507 560.94124 487.4543 562.09222 C 493.74174 563.92003 495.45286 565.22862 500.97188 572.4262 C 504.4472 576.95856 510.99616 585.30636 515.52461 590.97699 C 541.44744 623.43798 577.17034 685.23687 575.73555 695.13909 C 575.35076 697.7947 575.23884 697.77079 573.16524 694.59027 C 571.97284 692.76138 568.47224 686.24226 565.38594 680.10394 C 550.22184 649.94403 519.74955 608.17476 491.7043 579.10394 C 478.5886 565.50862 474.866 560.00042 478.79414 560.00042 z "
       transform="translate(-44.071487,-56.857845)" />
    <path
       id="path6"
       style="fill:#00ffff"
       d="M 261.79414 172.00042 C 251.49979 172.00042 244.78607 175.00154 238.76289 182.29534 C 229.47164 193.54662 228.56396 207.9317 236.40938 219.5805 C 244.17899 231.11674 258.96973 236.01162 273.70235 231.92034 C 280.37693 230.0668 287.14269 223.94648 290.74727 216.50042 C 293.18145 211.47209 293.56496 208.88815 293.01485 201.19964 C 291.71414 183.02053 279.9302 172.00042 261.79414 172.00042 z M 258.57735 180.14691 C 261.43167 180.16548 264.42916 181.15733 268.87422 183.22699 C 285.91925 191.1633 287.77102 214.49397 272.02071 222.8637 C 265.78637 226.17663 255.28419 226.10602 249.71992 222.71331 C 245.01766 219.8462 239.30612 211.9631 237.98164 206.51214 C 235.95607 198.17586 242.97973 185.40457 251.56172 181.81878 C 254.22351 180.70662 256.35731 180.13246 258.57735 180.14691 z "
       transform="translate(-44.071487,-56.857845)" />
    <path
       style="display:inline;fill:#ffff00"
       d="m 261.66452,213.26382 c 5.31424,-1.47584 9.00645,-6.48144 8.99716,-12.19761 -0.007,-4.54735 -4.81444,-11.60223 -8.99563,-13.20211 -8.31459,-3.18148 -18.99939,4.05818 -18.99939,12.87333 0,6.69379 1.2637,8.69205 7.20245,11.38912 6.48968,2.94726 5.59022,2.86054 11.79541,1.13727 z"
       id="path7"
       transform="translate(-44.071487,-56.857845)" />
  </g>
</svg>
