<?xml version="1.0" encoding="UTF-8" standalone="no"?>
<!-- Created with Inkscape (http://www.inkscape.org/) -->

<svg
   version="1.1"
   id="svg1115"
   width="1272.4066"
   height="1609.7909"
   viewBox="0 0 1272.4066 1609.7909"
   sodipodi:docname="4.svg"
   inkscape:version="1.2.2 (732a01da63, 2022-12-09, custom)"
   xmlns:inkscape="http://www.inkscape.org/namespaces/inkscape"
   xmlns:sodipodi="http://sodipodi.sourceforge.net/DTD/sodipodi-0.dtd"
   xmlns="http://www.w3.org/2000/svg"
   xmlns:svg="http://www.w3.org/2000/svg">
  <defs
     id="defs1119" />
  <sodipodi:namedview
     id="namedview1117"
     pagecolor="#ffffff"
     bordercolor="#000000"
     borderopacity="0.25"
     inkscape:showpageshadow="2"
     inkscape:pageopacity="0.0"
     inkscape:pagecheckerboard="0"
     inkscape:deskcolor="#d1d1d1"
     showgrid="false"
     inkscape:zoom="0.68593502"
     inkscape:cx="616.67649"
     inkscape:cy="1127.6578"
     inkscape:window-width="1846"
     inkscape:window-height="1016"
     inkscape:window-x="0"
     inkscape:window-y="0"
     inkscape:window-maximized="1"
     inkscape:current-layer="layer1" />
  <g
     inkscape:groupmode="layer"
     id="layer2"
     inkscape:label="Base">
    <path
       id="path1233"
       style="fill:#000000;stroke-width:1.06667"
       d="M 633.5589 164.40366 C 595.38252 164.41988 557.20604 164.68622 556.70734 165.18491 C 555.60908 166.28317 553.46113 206.97009 552.07452 252.92319 C 551.43724 274.04311 550.44476 305.4838 549.86945 322.79038 C 549.29415 340.09697 548.3195 385.88974 547.70343 424.5521 C 547.08734 463.21444 546.22178 495.49002 545.78156 496.27671 C 545.27096 497.18911 543.5049 493.94494 540.90265 487.31577 C 535.90206 474.57686 516.18861 416.07098 510.26593 396.38999 C 505.07929 379.15482 500.30585 368.56626 495.11554 362.79038 L 491.2796 358.5228 L 491.23663 376.14194 C 491.18356 397.19869 492.19509 413.73978 497.07452 471.58921 C 500.5053 512.26349 502.87386 546.87938 502.91046 556.89389 C 502.92495 560.85957 502.82796 560.9927 501.40851 558.96616 C 497.83166 553.85953 484.04935 526.20542 473.07062 502.10483 C 461.62008 476.96849 450.57619 453.45321 433.94171 418.79038 C 424.54902 399.21793 416.7187 386.16965 415.24835 387.63999 C 414.68787 388.20047 414.20398 393.39803 414.17218 399.19077 C 414.11652 409.33109 414.71152 412.08454 430.16241 473.18882 C 445.77873 534.94717 456.5673 580.70386 455.7132 581.55796 C 454.92132 582.34986 420.4443 532.61824 375.72687 466.181 C 354.92269 435.27201 346.5543 423.74515 340.68976 417.91538 C 336.45216 413.7029 332.59413 410.25522 332.11554 410.25522 C 329.11183 410.25522 337.41924 435.12801 351.17609 467.32358 C 357.94432 483.16354 370.57482 512.68327 379.24445 532.92319 C 387.91405 553.16311 398.42155 578.36323 402.59406 588.92319 C 406.76653 599.48315 410.67024 609.27587 411.26984 610.68491 C 413.20315 615.22827 394.38964 597.26855 336.5257 539.33335 C 264.13055 466.84903 253.12348 456.28992 244.97296 451.51304 C 241.29057 449.35484 238.07004 447.58921 237.81671 447.58921 C 236.96856 447.58921 241.69141 458.71396 245.49054 465.66538 C 247.55737 469.44713 255.61896 481.44659 263.4046 492.33139 C 293.77062 534.78496 359.64343 630.01072 364.7757 638.87241 L 367.76007 644.0228 L 362.23859 641.00718 C 355.19667 637.15845 337.54619 625.14733 283.44952 587.39585 C 197.56765 527.46294 188.34864 521.17825 181.1546 517.64389 C 172.08823 513.18971 166.99749 511.16232 166.39288 511.76694 C 166.13756 512.02226 168.32985 515.98114 171.26593 520.56382 C 175.4889 527.155 190.69314 543.20582 244.03156 597.38803 C 302.42554 656.70588 330.12531 685.82173 330.12531 687.88413 C 330.12531 688.69641 313.04956 682.17299 300.79132 676.6771 C 291.58183 672.54807 192.74272 626.35558 140.57062 601.79819 C 125.26793 594.59525 101.99845 585.81042 100.93585 586.8353 C 99.997622 587.74023 105.64311 595.10155 111.26984 600.30991 C 116.6774 605.31544 153.41464 630.70616 250.17804 696.31382 C 276.74214 714.32484 291.72974 724.97053 298.62531 730.72983 L 301.79327 733.37632 L 294.89288 731.79038 C 285.51422 729.63554 272.59383 725.94361 248.5257 718.54233 C 237.37908 715.1146 203.53773 704.78785 173.32452 695.59311 C 143.1113 686.39836 107.59088 675.53805 94.39093 671.4603 C 73.537874 665.01839 47.164583 659.01306 44.281555 660.05014 C 42.859683 660.56163 45.216446 663.20227 51.783508 668.45249 C 58.508584 673.829 62.13037 675.75729 87.45929 687.45835 C 113.54505 699.50907 224.10495 752.36149 259.1214 769.52085 C 281.70636 780.5883 288.22461 784.20485 286.0589 784.4603 C 282.5433 784.87496 244.97399 781.25531 165.32452 772.82944 C 131.88468 769.29191 86.045868 764.53836 63.45929 762.26499 L 22.39093 758.13022 L 19.486633 761.52671 C 17.889091 763.39449 16.56884 765.20759 16.55304 765.556 C 16.51733 766.34416 62.138078 779.74073 174.81866 812.02866 C 261.65818 836.91195 277.33844 841.83696 274.50812 843.34897 C 273.71128 843.77464 269.219 844.65757 264.5257 845.30991 C 254.37273 846.72113 136.23498 858.3911 63.760071 865.14194 C 28.942991 868.38509 11.024403 870.47467 8.293274 871.61264 C 3.755382 873.50282 -2.6565635 877.63467 -2.6676635 878.67514 C -2.6877835 880.56446 20.33641 883.15447 57.592102 885.45444 C 72.845372 886.39611 108.60569 888.80213 137.0589 890.8021 C 165.51211 892.80207 201.75218 895.18368 217.5921 896.09507 C 244.22989 897.62768 263.81817 899.90501 266.93195 901.82944 C 268.57563 902.84532 193.58562 921.372 93.347961 944.71421 C 50.240877 954.7525 13.405415 963.61805 11.492493 964.41733 C 6.2022527 966.62774 -1.7319482 972.39486 -1.034851 973.5228 C 0.13029435 975.40804 27.06722 974.52116 64.721008 971.35874 C 85.439378 969.61865 124.95244 966.48885 152.5257 964.40366 C 180.09891 962.31845 213.21869 959.63751 226.12531 958.44468 C 254.98748 955.77713 285.25177 954.57962 283.72491 956.16538 C 282.01816 957.93801 260.27012 968.53586 240.84015 977.06382 C 230.98675 981.38851 185.24489 1001.9744 139.19171 1022.8099 C 93.138572 1043.6454 52.33901 1061.993 48.525696 1063.5814 C 36.371804 1068.6443 25.717629 1074.6272 20.242493 1079.4662 C 17.318085 1082.0509 15.243168 1084.4951 15.633118 1084.8978 C 17.52621 1086.8528 43.01042 1081.2955 68.931946 1073.2748 C 77.36171 1070.6663 116.65828 1059.1093 156.25812 1047.5931 C 195.85796 1036.0769 237.61894 1023.8355 249.0589 1020.39 C 272.61773 1013.2947 275.52564 1012.5042 288.36359 1009.7064 C 297.54824 1007.7043 297.57833 1007.7056 294.92413 1009.7923 C 286.40312 1016.4914 269.24771 1028.2479 249.5921 1040.8587 C 237.27214 1048.7632 206.79094 1068.5813 181.85773 1084.8958 C 156.92448 1101.2108 123.80471 1122.7209 108.25812 1132.6966 C 68.352972 1158.3023 69.242351 1157.6847 64.416321 1163.1615 C 59.849107 1168.3447 56.413085 1173.9896 57.826477 1173.9896 C 62.238341 1173.9896 84.6709 1164.1026 132.25812 1141.1869 C 163.35133 1126.2136 200.31097 1108.4606 214.39093 1101.7337 C 228.47089 1095.0067 254.63241 1082.3917 272.5257 1073.7025 C 290.41896 1065.0133 309.77904 1055.951 315.54913 1053.5619 L 326.04132 1049.2162 L 316.61554 1059.4857 C 311.43207 1065.1332 298.79233 1077.7133 288.5257 1087.4427 C 278.25908 1097.1722 246.57853 1127.4932 218.12531 1154.8236 C 189.67206 1182.1539 159.10551 1211.3363 150.19952 1219.6732 C 134.07025 1234.7718 130.41687 1239.0815 129.0257 1244.6556 C 128.43591 1247.0187 128.65759 1247.5892 130.16437 1247.5892 C 134.8457 1247.5892 149.12184 1238.7741 171.72491 1221.9251 C 207.05286 1195.5911 318.55509 1113.4152 332.25812 1103.6146 C 341.04512 1097.3301 354.57104 1089.281 355.23273 1089.9427 C 356.07372 1090.7837 344.24264 1109.6951 334.01593 1123.8568 C 328.72024 1131.1901 313.11418 1153.03 299.33429 1172.39 C 285.55442 1191.75 264.35608 1221.2696 252.22687 1237.9896 C 240.09765 1254.7096 228.91662 1270.7584 227.38116 1273.6537 C 224.4558 1279.1699 221.57978 1289.7996 222.70734 1290.9271 C 224.15541 1292.3752 241.64112 1276.0434 269.89484 1246.8548 C 323.46248 1191.5149 391.20947 1122.7134 393.16046 1121.6693 C 395.97754 1120.1616 388.51957 1135.9648 355.88507 1200.6556 C 302.27089 1306.9343 294.92413 1321.5943 294.92413 1322.3236 C 294.92413 1322.7263 296.24439 1323.344 297.85773 1323.6966 C 299.47106 1324.0491 301.80616 1324.629 303.04523 1324.9837 C 304.97228 1325.5354 306.8926 1323.4183 316.33234 1310.3431 C 322.40199 1301.9358 339.10665 1279.2168 353.45343 1259.8568 C 367.8002 1240.4968 386.97071 1214.5772 396.05304 1202.2572 C 423.41036 1165.1476 430.47981 1155.9027 435.90265 1150.1517 C 440.85411 1144.9006 441.05332 1144.7987 440.39093 1147.8568 C 438.02888 1158.7621 431.31868 1178.9939 383.60382 1319.056 C 375.58197 1342.6034 371.06144 1360.6556 373.18781 1360.6556 C 374.69973 1360.6556 383.34868 1352.4853 386.96124 1347.6439 C 388.40661 1345.7069 393.55822 1336.6826 398.41046 1327.5892 C 423.21281 1281.109 488.16794 1165.4564 489.47101 1165.4564 C 490.55138 1165.4564 483.30174 1206.2826 476.76593 1237.0013 C 469.67986 1270.3061 462.64028 1304.736 458.30109 1327.308 C 454.50027 1347.0791 450.6845 1355.7671 441.08234 1366.5228 C 422.26699 1387.5984 413.17745 1409.0399 413.00226 1432.7591 C 412.92217 1443.6035 413.15989 1445.0989 415.84796 1450.5931 C 419.89563 1458.8662 428.93203 1466.7333 442.36554 1473.681 C 448.39369 1476.7988 454.88442 1480.2816 456.78937 1481.4212 L 460.25226 1483.4935 L 449.31671 1490.1244 C 412.23382 1512.6105 384.81424 1537.3302 369.60382 1561.9896 C 366.98026 1566.243 364.30378 1569.722 363.65656 1569.722 C 363.00931 1569.722 362.47415 1570.3227 362.46515 1571.056 C 362.45699 1571.7893 359.78185 1578.402 356.51984 1585.7513 C 342.07283 1618.3008 335.83164 1647.1741 338.56866 1668.8021 C 340.59379 1684.8044 347.23288 1695.0731 366.77179 1712.4291 C 376.55602 1721.1197 380.76943 1724.0893 387.39679 1726.9662 C 391.97749 1728.9545 401.42756 1733.2948 408.39679 1736.6107 C 451.95726 1757.3373 513.07704 1769.5708 594.65851 1773.8939 C 611.98142 1774.8118 685.99423 1773.4724 703.45929 1771.9251 C 780.82668 1765.0712 836.34962 1750.6219 881.0589 1725.7044 C 897.87008 1716.3355 901.5593 1713.4774 910.55304 1702.8724 C 921.57806 1689.8724 927.48486 1678.2863 928.51788 1667.6322 C 930.1472 1650.8283 926.26978 1627.1784 918.2464 1604.9896 C 913.37565 1591.5195 906.19702 1575.1167 903.80109 1571.9798 C 902.73245 1570.5807 901.85773 1568.539 901.85773 1567.4447 C 901.85773 1566.3506 901.37799 1565.4564 900.79132 1565.4564 C 900.20466 1565.4564 899.72491 1564.7368 899.72491 1563.8568 C 899.72491 1562.9768 899.24518 1562.2572 898.65851 1562.2572 C 898.07184 1562.2572 897.5921 1561.7395 897.5921 1561.1087 C 897.5921 1559.6345 880.05975 1540.4035 865.57648 1525.9896 C 853.64881 1514.1191 843.34034 1506.355 820.70148 1492.1947 L 806.74835 1483.4681 L 812.16827 1480.4623 C 815.14988 1478.8091 821.5323 1475.2956 826.35187 1472.6556 C 836.95263 1466.8489 847.11806 1457.6313 850.64874 1450.6244 C 852.7711 1446.4124 853.33285 1443.4407 853.67609 1434.5755 C 854.58195 1411.1791 846.35833 1390.8037 826.64288 1367.5892 C 823.65347 1364.0692 820.11916 1359.6278 818.78937 1357.7181 C 815.48125 1352.9675 810.57671 1339.1778 808.74445 1329.474 L 807.22882 1321.4447 L 818.92609 1320.6869 C 825.35942 1320.2699 831.00227 1320.3318 831.46515 1320.8255 C 831.92803 1321.319 833.87566 1325.5639 835.79327 1330.2572 C 840.14705 1340.9128 845.20803 1349.0019 849.37921 1351.972 C 853.51981 1354.9204 860.29806 1354.9556 870.54132 1352.0814 L 878.29132 1349.9056 L 885.82062 1354.9134 C 889.96175 1357.6671 893.61746 1359.6517 893.94366 1359.3255 C 894.26988 1358.9993 893.79256 1356.2278 892.88312 1353.1654 C 890.4157 1344.8567 888.23175 1326.4379 886.88507 1302.5716 C 886.13794 1289.3303 885.06777 1279.4549 884.05109 1276.4388 C 882.09835 1270.6458 877.18029 1263.7417 870.3382 1257.1888 C 858.01116 1245.383 857.52564 1244.3315 839.9671 1191.4447 C 831.09491 1164.7213 824.0358 1142.6552 824.28156 1142.4095 C 824.71338 1141.9776 841.21451 1162.6461 858.85968 1185.722 C 863.56999 1191.882 882.21432 1217.082 900.29132 1241.722 C 947.5934 1306.1975 954.17468 1314.7574 961.6507 1321.5228 C 965.33823 1324.8599 968.76219 1327.5892 969.26007 1327.5892 C 970.36052 1327.5892 969.62308 1324.229 966.21515 1313.722 C 963.90718 1306.6062 951.51133 1281.4051 903.25421 1185.722 C 887.60711 1154.6975 872.73824 1122.7557 873.56085 1121.933 C 874.29651 1121.1974 918.66234 1165.8517 978.6839 1227.7376 C 1023.4683 1273.9132 1041.3626 1291.3236 1044.0335 1291.3236 C 1045.557 1291.3236 1044.116 1282.367 1041.7444 1277.0931 C 1040.6471 1274.6529 1031.9112 1261.8556 1022.3323 1248.6556 C 964.21361 1168.5671 914.10724 1097.6516 909.42609 1088.8587 C 908.12564 1086.4161 908.14082 1086.4072 911.11945 1088.0013 C 916.89181 1091.0905 932.64655 1102.1399 959.55109 1121.9662 C 974.4602 1132.9526 1007.7788 1157.4598 1033.5921 1176.4251 C 1059.4055 1195.3908 1088.343 1216.7355 1097.8987 1223.8587 C 1114.0907 1235.9283 1130.6602 1246.3891 1136.2601 1248.0775 C 1138.4797 1248.7467 1138.5802 1248.5902 1137.6019 1246.0169 C 1134.9063 1238.9268 1126.4139 1229.2283 1104.8265 1208.5873 C 968.00274 1077.7595 939.85298 1050.2572 942.77179 1050.2572 C 944.84206 1050.2572 971.98967 1062.7641 1006.3909 1079.5677 C 1028.3909 1090.3137 1058.6321 1104.8724 1073.5921 1111.9212 C 1088.5521 1118.97 1120.2325 1134.1703 1143.9925 1145.6986 C 1183.4441 1164.8405 1208.0993 1175.3048 1209.7835 1173.6205 C 1210.9484 1172.4555 1205.1195 1164.8338 1199.2816 1159.888 C 1196.1517 1157.2366 1182.7921 1148.2132 1169.5921 1139.8373 C 1156.3921 1131.461 1127.5921 1112.835 1105.5921 1098.4447 C 982.04762 1017.6338 970.43497 1009.7972 972.98077 1008.9486 C 974.76346 1008.3544 994.51515 1013.3743 1018.1253 1020.4232 C 1029.5653 1023.8386 1071.8059 1036.2476 1111.9925 1047.9974 C 1152.1792 1059.7472 1193.938 1072.0387 1204.7913 1075.3119 C 1223.3142 1080.8981 1235.4657 1083.5483 1247.9925 1084.7357 L 1253.3245 1085.2416 L 1248.2132 1080.6009 C 1240.8536 1073.9208 1235.9161 1071.36 1197.3245 1054.1947 C 1178.2578 1045.714 1130.1121 1024.0771 1090.3323 1006.1146 C 1050.5528 988.15217 1017.7514 973.45639 1017.4417 973.45639 C 1016.3402 973.45639 984.50722 957.26081 983.45929 956.16733 C 981.41772 954.03702 1015.7051 956.23907 1127.4593 965.41343 C 1232.2472 974.01586 1264.9329 975.92457 1268.5081 973.65366 C 1270.0922 972.64746 1260.9888 966.87315 1253.0862 963.87046 C 1250.1799 962.76611 1233.6843 958.66999 1216.43 954.76889 C 1199.1757 950.86783 1163.219 942.42046 1136.5257 935.99741 C 1109.8323 929.57435 1073.5925 920.99277 1055.9925 916.9271 C 1026.8688 910.19933 1007.0355 904.99992 999.99249 902.24741 C 997.44573 901.25206 997.5172 901.17581 1001.5921 900.54428 C 1013.2622 898.73569 1026.9208 897.5337 1058.1253 895.56577 C 1076.8986 894.38182 1115.5392 891.75841 1143.9925 889.73764 C 1172.4459 887.71691 1207.0047 885.3022 1220.7913 884.37046 C 1245.1729 882.72268 1268.5283 880.20968 1269.6214 879.11655 C 1270.6234 878.11465 1265.0973 874.3199 1259.5355 872.19077 C 1255.5469 870.6639 1247.1 869.46335 1229.1351 867.8685 C 1215.4528 866.65385 1173.5392 862.56738 1135.9925 858.78843 C 1098.4459 855.00946 1054.7641 850.72865 1038.9241 849.27475 C 1008.1045 846.44595 987.20212 843.45197 989.50812 842.19663 C 991.01277 841.37752 1191.205 783.53907 1217.848 776.22593 C 1226.496 773.85214 1235.4831 770.93506 1237.8187 769.7435 C 1242.5247 767.34277 1249.5921 761.50187 1249.5921 760.01303 C 1249.5921 758.60387 1233.0479 758.89105 1215.9925 760.59702 C 1201.0891 762.08775 1177.3197 764.59637 1073.5921 775.62827 C 1018.0109 781.53958 977.26549 785.5841 976.8089 785.23569 C 976.33672 784.87538 1035.764 755.56552 1063.9925 742.23569 C 1079.5392 734.89441 1107.8578 721.4526 1126.9241 712.3646 C 1145.9907 703.27661 1170.8812 691.60741 1182.2347 686.43491 C 1193.5882 681.26242 1205.8308 675.10586 1209.4417 672.75327 C 1217.2299 667.67912 1225.2817 659.85678 1222.7151 659.85678 C 1217.598 659.85678 1195.1672 664.56876 1184.5257 667.88022 C 1177.779 669.9797 1141.5392 681.06781 1103.9925 692.51889 C 1066.4459 703.97001 1025.8844 716.36929 1013.8577 720.07358 C 992.11997 726.76909 968.19023 732.9432 967.32648 732.07944 C 966.50938 731.26234 983.04377 719.11135 1008.5257 701.80014 C 1022.3123 692.43418 1053.9911 670.84761 1078.9241 653.82944 C 1103.8574 636.81126 1130.7385 618.54876 1138.6585 613.24741 C 1146.5785 607.94606 1155.5033 601.01133 1158.4925 597.83725 C 1163.6378 592.37367 1166.9933 587.56847 1166.2093 586.78452 C 1166.0138 586.58902 1161.7748 587.75639 1156.7894 589.37827 C 1146.1518 592.83895 1132.2862 599.08339 1061.5921 632.24936 C 1003.0986 659.69152 970.29995 674.69285 948.79132 683.84311 C 940.87136 687.21247 933.91118 690.25167 933.32452 690.59702 C 929.27012 692.98361 951.32972 669.99061 1016.0276 604.39194 C 1074.2168 545.39299 1091.4015 527.35316 1095.7874 520.66538 C 1098.8622 515.97693 1100.9668 512.00317 1100.4632 511.8353 C 1099.9596 511.66743 1095.3322 513.29382 1090.18 515.45053 C 1083.7955 518.12308 1074.9912 523.45544 1062.5355 532.19272 C 1047.1251 543.00225 1008.6627 569.81358 931.72491 623.38022 C 916.96279 633.65811 901.76545 643.05357 901.05304 642.34116 C 900.30174 641.58985 912.59771 622.01223 922.87921 607.58921 C 928.52502 599.66921 946.81067 573.50964 963.51398 549.45639 C 980.21726 525.40318 999.4887 497.80237 1006.3401 488.12241 C 1013.1917 478.44245 1020.2887 467.88228 1022.1116 464.65561 C 1025.9512 457.85905 1030.1608 447.58921 1029.1058 447.58921 C 1028.7085 447.58921 1024.9979 449.60064 1020.8616 452.05796 C 1015.0196 455.52859 1007.0309 462.8821 985.06671 485.00327 C 936.1056 534.31457 857.0286 612.18196 856.47491 611.62827 C 855.44788 610.60121 862.79664 591.7375 879.45148 552.65561 C 888.70177 530.94902 900.71336 502.62864 906.14288 489.72202 C 911.57243 476.81539 919.34085 458.82466 923.40656 449.74155 C 931.41761 431.84425 933.84239 423.631 933.80109 414.5228 L 933.77374 408.65561 L 928.90265 413.95249 C 919.32042 424.36894 913.0392 433.30827 860.09796 511.88022 C 834.04521 550.54608 812.23408 581.23657 811.39484 580.40952 C 810.58828 579.61469 831.63443 491.04121 844.85577 439.58921 C 850.37465 418.11217 855.83213 387.85679 854.18781 387.85679 C 853.8942 387.85679 852.29573 388.82273 850.63507 390.00522 C 845.21573 393.86417 840.06886 402.31047 831.0296 422.181 C 826.14037 432.92878 813.86803 459.48224 803.75616 481.18882 C 793.64428 502.89537 783.54354 524.5898 781.31085 529.3978 C 777.18294 538.2872 765.40138 558.9971 764.8421 558.34702 C 764.01423 557.38476 766.63762 509.53621 769.07257 481.18882 C 770.58434 463.58886 772.53519 440.78942 773.40656 430.5228 C 774.27789 420.25617 775.2714 399.85541 775.61359 385.18882 L 776.23468 358.5228 L 773.50616 361.18882 C 768.45023 366.12905 763.59695 375.81949 759.00421 390.14585 C 741.13455 445.8878 722.24488 500.9846 721.47491 499.60874 C 720.9959 498.75272 720.10025 469.77921 719.48468 435.22202 C 718.86912 400.6648 717.65452 349.58856 716.78546 321.72202 C 715.9164 293.85547 714.6908 254.4971 714.06281 234.25718 C 712.70815 190.59965 711.4153 166.12532 710.41046 165.12046 C 709.91219 164.62218 671.73527 164.38744 633.5589 164.40366 z M 775.06671 1160.9154 C 775.98689 1160.7753 782.07548 1171.3804 807.95148 1217.722 C 833.29618 1263.1125 835.72491 1268.4962 835.72491 1279.2806 L 835.72491 1284.9232 L 820.5257 1284.763 C 801.2202 1284.56 799.60385 1284.3081 798.91241 1281.3861 C 797.10869 1273.7636 774.92599 1162.6623 774.92999 1161.2748 C 774.93074 1161.0579 774.97152 1160.9299 775.06671 1160.9154 z M 761.94952 1267.4291 C 763.31553 1267.3343 767.97709 1276.0218 770.11359 1282.7533 C 770.78631 1284.8733 770.4105 1284.9232 753.98273 1284.9232 C 744.64209 1284.9232 737.61526 1284.5195 738.17804 1284.015 C 739.32946 1282.9829 759.83647 1268.6316 761.82843 1267.4642 C 761.86544 1267.4425 761.90546 1267.4321 761.94952 1267.4291 z M 504.0257 1267.5599 C 504.95968 1267.5505 510.01482 1270.4563 515.76788 1274.3373 C 521.90451 1278.4766 529.92547 1283.7607 533.5921 1286.0775 C 540.09793 1290.1882 540.25812 1290.3999 540.25812 1294.9154 C 540.25812 1297.4602 539.95629 1302.4394 539.58624 1305.9798 L 538.91241 1312.4173 L 525.50226 1316.9173 C 511.78557 1321.5192 493.07868 1329.299 480.28546 1335.722 C 476.34014 1337.7028 472.87189 1339.3236 472.57843 1339.3236 C 472.28498 1339.3236 472.54266 1338.01 473.15265 1336.4056 C 475.2348 1330.9292 503.17663 1268.3924 503.89484 1267.6009 C 503.91945 1267.5738 503.96343 1267.5605 504.0257 1267.5599 z M 771.32843 1320.1224 L 787.4671 1320.1224 L 790.20929 1328.888 C 791.717 1333.7068 792.85591 1337.7152 792.73859 1337.7982 C 792.11818 1338.2356 763.30504 1325.0349 758.39093 1322.0619 C 755.20745 1320.136 755.27413 1320.1224 771.32843 1320.1224 z "
       transform="translate(2.6676635,-164.40366)" />
  </g>
  <g
     inkscape:groupmode="layer"
     id="layer1"
     inkscape:label="Layer 1">
    <path
       style="fill:#ff0000;stroke-width:1.06667"
       d="m 653.31417,1038.5229 h 35.91851 l 18.34693,-22.1334 c 20.84789,-25.15042 26.74893,-35.09011 29.50241,-49.69382 3.78951,-20.09844 0.3802,-33.92928 -12.12819,-49.20155 -8.59792,-10.49773 -10.68061,-13.62102 -16.2835,-24.41945 -3.55922,-6.85967 -5.18302,-9.07903 -5.86666,-8.01839 -0.51992,0.80661 -0.83301,14.66656 -0.69576,30.79989 0.24938,29.31403 0.24816,29.33157 -1.84244,26.66667 -2.79485,-3.56261 -5.91104,-13.34368 -7.98609,-25.06667 -2.37293,-13.40581 -6.11503,-20.34546 -18.69351,-34.66667 -15.77458,-17.96011 -16.50263,-19.40682 -16.64071,-33.06666 l -0.11321,-11.2 -4.15346,-0.73853 c -7.33589,-1.30441 -21.11983,-0.90976 -27.65212,0.79168 -15.11535,3.93704 -26.0848,16.35491 -31.03976,35.13827 -0.77414,2.93467 -1.91632,11.33714 -2.53816,18.67217 -1.80368,21.27575 -3.12112,32.69753 -4.06615,35.25215 -0.75314,2.03595 -1.45952,1.01985 -4.93819,-7.10331 -7.82026,-18.26136 -20.79727,-42.02041 -22.94529,-42.00952 -0.31558,10e-4 -2.56758,5.8816 -5.00444,13.06667 -2.43687,7.18506 -6.4288,18.82375 -8.87097,25.86375 -6.44186,18.56986 -8.58752,28.30845 -9.28301,42.13333 -1.00052,19.88804 2.7724,36.66775 11.63225,51.73339 5.22959,8.8925 16.73001,21.2061 22.68573,24.2898 5.68066,2.9412 15.13145,3.9227 32.43531,3.3683 7.8661,-0.252 30.46532,-0.4581 50.22048,-0.4581 z"
       transform="translate(2.6676635,-164.40366)"
       id="path1323" />
    <path
       style="fill:#c87137;stroke-width:1.06667"
       d="m 673.05838,1233.7607 c 27.435,-0.9146 42.15882,-2.493 60.79999,-6.5178 11.02681,-2.3809 33.6,-9.5574 33.6,-10.6822 0,-0.4162 -1.7289,-3.325 -3.84201,-6.464 -12.23711,-18.1778 -21.51363,-46.6476 -23.80863,-73.0688 -0.99955,-11.5075 -0.36367,-17.1022 2.89542,-25.4746 3.74334,-9.6164 4.87731,-16.1834 3.40731,-19.7323 -0.87561,-2.1139 -2.06865,-3.1648 -3.59289,-3.1648 -2.1932,0 -13.89983,7.2081 -20.24057,12.4627 l -3.04804,2.5259 -6.72527,-3.761 c -8.84469,-4.9462 -12.75871,-4.9457 -18.68099,0 -2.47731,2.0698 -5.49204,5.0698 -6.69941,6.6667 -1.20736,1.597 -2.38078,3.1384 -2.60758,3.4255 -0.2268,0.2871 -2.91618,-2.1682 -5.97641,-5.4562 -10.17434,-10.9316 -13.09399,-11.2965 -25.10809,-3.1379 -3.51402,2.3864 -6.67604,4.3388 -7.02674,4.3388 -0.35069,0 -3.24012,-1.9649 -6.42095,-4.3664 l -5.78332,-4.3665 -5.76742,3.2998 c -3.17208,1.8149 -6.58045,3.2998 -7.57416,3.2998 -0.99369,0 -5.44287,-1.68 -9.88704,-3.7333 -4.44417,-2.0534 -8.91801,-3.7334 -9.94187,-3.7334 -1.56027,0 -8.17681,4.0636 -17.03017,10.4593 -1.70237,1.2297 -2.71957,0.6841 -8.70111,-4.6671 -10.20975,-9.1339 -10.15037,-9.124 -19.70534,-3.2855 l -8.14462,4.9767 -4.56548,-4.2083 c -5.55787,-5.123 -13.28856,-9.1495 -19.58369,-10.2 l -4.69243,-0.783 0.57247,6.2539 c 0.32161,3.5135 2.261,10.4348 4.42575,15.7946 4.45062,11.0196 4.83684,17.0671 2.28589,35.7928 -3.20965,23.5608 -10.52607,43.6443 -23.22451,63.7508 -2.34461,3.7125 -4.08559,6.9216 -3.86885,7.1314 0.21675,0.2099 5.58343,2.1146 11.92593,4.2328 18.69855,6.2447 41.154,10.2278 71.66816,12.7123 9.20904,0.7499 64.38567,0.5534 90.66667,-0.3228 z"
       transform="translate(2.6676635,-164.40366)"
       id="path1295" />
    <path
       style="fill:#ffd42a;stroke-width:1.06667"
       d="m 567.55321,1085.3055 c 0.76978,-0.1358 1.24122,-6.0386 1.39792,-17.5028 l 0.23641,-17.298 -9.41283,-10.5242 c -18.66764,-20.8719 -24.88209,-31.0889 -29.1093,-47.85765 -4.38551,-17.39671 -4.40309,-38.62265 -0.0464,-56.01878 2.90496,-11.59945 10.7832,-35.61775 11.81897,-36.03237 0.43668,-0.17479 0.5293,-1.32986 0.20583,-2.56679 -0.37493,-1.43372 -0.17661,-1.99466 0.54709,-1.54739 0.71495,0.44187 0.92855,-0.0887 0.57695,-1.4332 -0.30707,-1.17415 -0.1423,-2.13481 0.36612,-2.13481 0.50843,0 1.00109,-1.08 1.09483,-2.4 0.0938,-1.32 0.5233,-8.00423 0.95459,-14.85385 0.90454,-14.36522 1.36377,-15.65563 4.98445,-14.00594 4.48366,2.04289 17.19105,13.83622 23.214,21.5442 3.22124,4.12243 6.1546,7.15489 6.51856,6.73879 0.36397,-0.41609 1.95364,-6.00259 3.53259,-12.41443 3.6794,-14.94134 8.6856,-25.72068 15.15993,-32.64225 5.91863,-6.3275 10.85431,-9.44483 21.00085,-13.26398 15.21084,-5.72534 25.598,-5.33454 45.02212,1.69393 7.98451,2.88913 17.57803,8.04328 17.57434,9.44187 -8.1e-4,0.30892 -3.00081,1.44043 -6.66667,2.51447 -3.66585,1.07405 -7.50518,2.70845 -8.53185,3.63199 -1.02667,0.92354 -1.86667,1.16478 -1.86667,0.53608 0,-0.62871 0.6,-1.38521 1.33334,-1.68111 0.79652,-0.32141 0.5818,-0.57192 -0.53334,-0.62222 -2.42299,-0.10931 -2.354,1.73323 0.3339,8.91729 1.21031,3.23484 2.13835,6.17656 2.06231,6.53715 -0.0761,0.36059 0.7337,1.31664 1.79943,2.12456 1.06573,0.80791 1.62516,1.4842 1.24318,1.50287 -0.97259,0.0475 16.25046,18.16725 17.26821,18.16725 0.45644,0 5.512,-3.13041 11.23457,-6.95647 11.37211,-7.60327 15.04531,-9.1019 16.63742,-6.7879 0.56679,0.82378 0.79946,6.38528 0.52576,12.56768 -0.29395,6.63992 -0.11239,10.49208 0.45246,9.6 0.9614,-1.51835 0.99987,-1.42064 1.40276,3.56271 0.0587,0.72563 3.94667,4.85156 8.64,9.16872 4.69333,4.31717 9.35488,9.13987 10.359,10.71712 2.69063,4.22643 6.97597,21.25852 8.31164,33.03466 2.27669,20.07283 -2.76715,35.01761 -19.2051,56.9043 -4.71354,6.2759 -10.17822,13.1159 -12.14375,15.2 -1.96552,2.084 -3.27701,3.8064 -2.91441,3.8275 0.36262,0.021 -0.78071,1.2738 -2.54071,2.7838 -1.76,1.5099 -2.48,2.411 -1.6,2.0024 0.88,-0.4086 0.4,0.3003 -1.06667,1.5755 -1.46667,1.2751 -2.06667,2.0085 -1.33333,1.6296 2.21389,-1.1438 1.51352,0.2458 -1.86667,3.7037 -1.76,1.8005 -3.19265,3.857 -3.18367,4.5701 0.0107,0.8155 0.39997,0.703 1.05034,-0.3034 1.16866,-1.8084 1.39005,-1.0172 0.42157,1.5066 -0.35482,0.9246 -1.12624,1.3838 -1.71429,1.0204 -0.6712,-0.4149 -0.78558,0.2327 -0.30728,1.7397 0.51364,1.6183 0.38233,2.1659 -0.403,1.6805 -0.79388,-0.4906 -0.97153,0.4011 -0.5578,2.7998 0.34349,1.9914 0.22073,2.988 -0.28273,2.2952 -1.06774,-1.4692 -1.81554,24.0117 -0.86909,29.6137 0.55893,3.3083 1.00049,3.8168 2.88638,3.3236 1.51512,-0.3962 1.9827,-0.1877 1.46341,0.6525 -0.55485,0.8977 1.65549,1.2302 8.09987,1.2183 6.45015,-0.012 8.42738,-0.318 7.26296,-1.1247 -1.18383,-0.82 -0.28211,-1.0219 3.46666,-0.776 2.78667,0.1829 5.06667,-0.031 5.06667,-0.4753 0,-0.4442 1.15724,-0.8076 2.57164,-0.8076 1.41439,0 5.57904,-0.9361 9.25477,-2.0801 3.67572,-1.144 7.07849,-1.8357 7.5617,-1.537 0.48321,0.2986 0.87856,-0.017 0.87856,-0.7008 0,-0.6858 0.74259,-0.9588 1.6554,-0.6085 1.08155,0.415 1.39066,0.2069 0.89168,-0.6005 -0.51004,-0.8252 -0.17413,-1.0094 1.01127,-0.5546 0.97624,0.3747 1.77498,0.2313 1.77498,-0.3185 0,-0.5499 0.6,-0.7903 1.33333,-0.5342 1.82021,0.6356 15.2627,-6.4159 14.94724,-7.8408 -0.13903,-0.6279 1.90097,-2.6235 4.53333,-4.4346 2.63235,-1.8111 4.7861,-3.0367 4.7861,-2.7235 0,0.3132 -1.92976,1.8465 -4.28835,3.4073 -2.35859,1.5609 -4.06073,3.0656 -3.78252,3.3438 0.85631,0.8563 9.2689,-6.1376 17.67087,-14.6908 4.4,-4.4792 5.61639,-5.5903 2.7031,-2.469 -8.30312,8.8959 -5.19077,6.6404 4.25526,-3.0838 4.67957,-4.8173 7.32377,-7.8173 5.87602,-6.6666 -1.44777,1.1507 0.16091,-1.0278 3.57483,-4.8412 6.97623,-7.7924 17.8501,-23.031 23.0247,-32.2666 1.89001,-3.3734 3.89891,-6.13339 4.4642,-6.13339 0.56528,0 0.73114,-0.48 0.36855,-1.06666 -0.36258,-0.58667 -0.15091,-1.06667 0.47038,-1.06667 0.62129,0 1.00962,-0.36428 0.86296,-0.80951 -0.4278,-1.29868 5.74805,-15.19049 6.7532,-15.19049 0.50225,0 0.66063,-0.65811 0.35197,-1.46246 -0.30865,-0.80436 0.10496,-2.12864 0.9192,-2.94286 0.81421,-0.81422 1.28181,-2.07611 1.03912,-2.80421 -0.2427,-0.72809 0.0637,-1.3238 0.68081,-1.3238 0.61714,0 0.84579,-0.72 0.5081,-1.6 -0.33769,-0.88 -0.0977,-1.6 0.53334,-1.6 0.63102,0 0.87102,-0.72 0.53333,-1.6 -0.3377,-0.88 -0.0977,-1.6 0.53333,-1.6 0.63102,0 0.87102,-0.72 0.53334,-1.6 -0.3377,-0.88 -0.12757,-1.6 0.46694,-1.6 0.59451,0 0.81025,-1.03506 0.47944,-2.30013 -0.43798,-1.67481 -0.23477,-2.07347 0.74746,-1.46642 0.99369,0.61412 1.15948,0.23666 0.62948,-1.43321 -0.39738,-1.25203 -0.25448,-2.26691 0.31919,-2.26691 0.57129,0 0.78765,-0.96 0.48081,-2.13333 -0.30683,-1.17334 -0.0884,-2.13334 0.48528,-2.13334 0.57373,0 0.80012,-1.27134 0.50309,-2.82519 -0.38255,-2.0012 -0.17138,-2.59735 0.724,-2.04397 0.90756,0.56091 1.06898,0.004 0.57235,-1.97479 -0.38045,-1.51583 -0.24282,-2.75605 0.30584,-2.75605 0.54867,0 0.78622,-1.44 0.52791,-3.2 -0.29401,-2.00314 -0.002,-3.2 0.78102,-3.2 0.68787,0 0.98159,-0.4354 0.6527,-0.96757 -0.3289,-0.53216 0.0933,-6.89216 0.93825,-14.13333 1.51778,-13.00764 2.40687,-45.79915 1.32581,-48.8991 -0.30688,-0.88 -0.86548,-4.72 -1.24133,-8.53333 -1.00414,-10.18788 -4.24981,-24.24575 -7.37167,-31.9287 -1.50632,-3.70705 -2.47947,-7.15962 -2.16258,-7.67237 0.31689,-0.51274 0.0395,-0.93226 -0.6164,-0.93226 -0.65591,0 -0.89591,-0.48 -0.53333,-1.06667 0.36258,-0.58667 0.0995,-1.06667 -0.5845,-1.06667 -0.68582,0 -0.95879,-0.74259 -0.6085,-1.6554 0.41502,-1.08155 0.20686,-1.39066 -0.60048,-0.89168 -0.83277,0.51467 -1.00668,0.16684 -0.53334,-1.06667 0.47335,-1.23351 0.29943,-1.58134 -0.53333,-1.06666 -0.83277,0.51466 -1.00668,0.16683 -0.53333,-1.06667 0.47334,-1.23351 0.29942,-1.58134 -0.53334,-1.06667 -0.83277,0.51467 -1.00668,0.16684 -0.53333,-1.06666 0.47334,-1.23352 0.29942,-1.58135 -0.53333,-1.06667 -0.83277,0.51467 -1.00668,0.16684 -0.53334,-1.06667 0.47335,-1.23351 0.29943,-1.58134 -0.53333,-1.06666 -0.83277,0.51466 -1.00668,0.16683 -0.53333,-1.06667 0.4172,-1.08723 0.27426,-1.56579 -0.35207,-1.1787 -0.94902,0.58653 -1.51511,-0.82339 -1.18077,-2.94088 0.0694,-0.44 -0.38201,-0.8 -1.0033,-0.8 -0.62129,0 -0.83296,-0.48 -0.47038,-1.06667 0.36258,-0.58667 0.19652,-1.06667 -0.36903,-1.06667 -0.56554,0 -2.23325,-2.04 -3.70604,-4.53333 -3.53146,-5.97857 -13.12487,-17.41428 -34.22707,-40.8 -9.52887,-10.56 -22.75516,-25.44 -29.39177,-33.06667 -6.63661,-7.62666 -14.52045,-16.49093 -17.51966,-19.69835 -2.9992,-3.20744 -4.28326,-4.88744 -2.85347,-3.73334 1.9456,1.57046 1.67939,0.93293 -1.05814,-2.53405 -3.48441,-4.41286 -3.68649,-4.51397 -4.26379,-2.13333 -0.54755,2.25796 -0.67657,2.15404 -1.33711,-1.07715 -0.40209,-1.96691 -0.46488,-4.00691 -0.13954,-4.53333 0.32533,-0.52641 0.0319,-0.95711 -0.65221,-0.95711 -0.68406,0 -0.97935,-0.689 -0.65622,-1.53109 0.32315,-0.8421 0.20456,-1.6821 -0.26354,-1.86666 -0.97161,-0.38312 -11.26167,-27.01334 -15.37981,-39.80225 -5.60972,-17.42108 -6.94063,-25.80358 -8.63718,-54.4 -1.50446,-25.3586 -3.95909,-103.16213 -3.95472,-125.3509 0.0107,-53.90182 -0.25297,-71.52101 -1.0131,-67.71577 -0.48205,2.41311 -0.70247,-7.54977 -0.50741,-22.93333 0.19182,-15.12737 -0.034,-25.54298 -0.50896,-23.46667 -0.53776,2.35126 -0.92465,-4.36166 -1.04509,-18.13333 -0.24527,-28.04527 -0.8233,-50.59352 -2.13286,-83.2 -0.57727,-14.37333 -1.16967,-34.41165 -1.31643,-44.52959 -0.14676,-10.11794 -0.68628,-18.39794 -1.19893,-18.4 -0.51265,-0.002 -0.7218,-2.53958 -0.46477,-5.63893 l 0.4673,-5.63519 -16.60188,0.14618 c -14.49325,0.12762 -15.17936,0.0639 -5.4019,-0.50174 6.16,-0.35636 -17.23864,-0.6463 -51.99696,-0.64433 l -63.19697,0.004 0.62609,3.34451 c 0.36683,1.95955 0.13752,3.64648 -0.55377,4.07371 -0.64892,0.40106 -0.90507,1.1738 -0.56923,1.71722 0.33586,0.54341 0.11129,10.47024 -0.49902,22.05962 -2.53198,48.07985 -4.71942,128.58916 -7.00638,257.8716 -2.25641,127.55488 -2.9439,141.55017 -8.12157,165.33334 -1.14947,5.28 -2.50253,12.79436 -3.0068,16.69859 -1.70983,13.23816 -23.79436,52.80456 -40.09556,71.83474 -11.9522,13.95311 -45.37184,49.55634 -47.673,50.78789 -1.08162,0.57886 -1.71469,1.46004 -1.40683,1.95817 0.30787,0.49813 -1.23869,2.48915 -3.4368,4.42449 -2.19809,1.93535 -3.88573,3.8761 -3.75031,4.31279 0.13542,0.43669 -0.94458,1.73067 -2.4,2.87551 -1.45542,1.14483 -2.64622,2.58521 -2.64622,3.20085 0,0.61563 -0.95695,1.7896 -2.12655,2.60882 -1.1696,0.81922 -1.82089,1.79514 -1.44733,2.16872 0.37357,0.37357 -0.10948,0.98186 -1.07345,1.35177 -0.96396,0.36991 -1.75267,1.35628 -1.75267,2.19192 0,0.83565 -0.71725,1.79459 -1.59388,2.13098 -0.87662,0.3364 -1.37322,0.96864 -1.10355,1.40499 0.26968,0.43635 -0.33307,1.72479 -1.33945,2.86321 -1.00638,1.13842 -1.97616,2.77111 -2.15508,3.62821 -0.1789,0.85709 -1.01144,2.0858 -1.85008,2.73049 -0.83864,0.64467 -1.21226,1.48467 -0.83027,1.86666 0.382,0.38199 0.10624,0.69453 -0.61286,0.69453 -0.71907,0 -1.01074,0.48 -0.64816,1.06667 0.36258,0.58666 0.12258,1.06666 -0.53333,1.06666 -0.65592,0 -0.89592,0.48 -0.53334,1.06667 0.36258,0.58667 0.12258,1.06667 -0.53333,1.06667 -0.65592,0 -0.89592,0.48 -0.53333,1.06666 0.36258,0.58667 0.12258,1.06667 -0.53334,1.06667 -0.65591,0 -0.89591,0.48 -0.53333,1.06667 0.36258,0.58666 0.16597,1.06666 -0.43691,1.06666 -0.60288,0 -0.84359,0.65812 -0.53493,1.46247 0.30865,0.80435 -0.16355,2.18721 -1.04936,3.07301 -0.8858,0.8858 -1.3134,1.9077 -0.95023,2.27087 0.36317,0.36318 0.11539,0.66032 -0.55065,0.66032 -0.66603,0 -0.93468,0.72 -0.59699,1.6 0.33769,0.88 0.0977,1.6 -0.53334,1.6 -0.63102,0 -0.87102,0.72 -0.53333,1.6 0.3377,0.88 0.0977,1.6 -0.53333,1.6 -0.63102,0 -0.87102,0.72 -0.53334,1.6 0.3377,0.88 0.0977,1.6 -0.53333,1.6 -0.63102,0 -0.88965,0.67145 -0.57473,1.49211 0.31491,0.82066 0.0808,1.79603 -0.52022,2.16748 -0.60105,0.37147 -0.82241,1.38003 -0.49194,2.24124 0.33049,0.86121 0.11445,1.56584 -0.48005,1.56584 -0.59451,0 -0.82989,0.96 -0.52305,2.13333 0.30683,1.17333 0.0884,2.13333 -0.48528,2.13333 -0.57373,0 -0.81376,1.2 -0.53339,2.66667 0.28037,1.46667 0.0403,2.66667 -0.53333,2.66667 -0.57371,0 -0.81371,1.2 -0.53334,2.66666 0.28288,1.4798 0.01,2.66667 -0.61418,2.66667 -0.68881,0 -0.8894,1.4454 -0.51813,3.73333 0.37019,2.28118 0.17015,3.73334 -0.51428,3.73334 -0.76091,0 -1.03219,8.97948 -0.84592,28 0.23588,24.08745 0.61832,29.78858 2.73685,40.8 1.35446,7.04 2.5448,13.78423 2.64522,14.9872 0.10037,1.20295 0.53841,2.76295 0.97332,3.46666 0.43491,0.7037 0.5146,1.72631 0.17708,2.27243 -0.33754,0.54613 -0.0931,1.31469 0.54309,1.70789 0.63624,0.39322 0.91103,1.35537 0.61066,2.13813 -0.30037,0.78276 -0.0829,1.5776 0.48322,1.76631 0.56614,0.18872 1.13918,1.89877 1.27342,3.80013 0.13423,1.90135 0.6554,3.45796 1.15817,3.45912 0.50277,10e-4 0.63784,0.72213 0.30014,1.60213 -0.33768,0.88 -0.0977,1.6 0.53334,1.6 0.63103,0 0.87103,0.72 0.53333,1.6 -0.33769,0.88 -0.26171,1.6 0.16885,1.6 0.43055,0 1.66145,2.52 2.73535,5.6 3.19384,9.16015 12.87975,27.83725 19.80767,38.19465 3.56063,5.3231 6.47387,9.8142 6.47387,9.98 0,1.1842 28.48633,31.5168 29.05985,30.9433 0.18284,-0.1829 2.5846,1.7354 5.33724,4.2627 2.75265,2.5274 5.1665,4.4335 5.36413,4.2359 0.19763,-0.1976 1.86454,1.0155 3.70423,2.6958 1.8397,1.6803 3.60128,2.7987 3.91462,2.4854 0.31333,-0.3134 0.87131,0.2162 1.23993,1.1768 0.3686,0.9606 1.09991,1.481 1.6251,1.1564 0.52519,-0.3246 0.9549,-0.082 0.9549,0.5394 0,0.6213 0.36,1.0728 0.8,1.0033 2.11749,-0.3343 3.52741,0.2318 2.94088,1.1808 -0.38709,0.6263 0.0915,0.7693 1.1787,0.3521 1.31252,-0.5037 1.59219,-0.317 0.98849,0.6598 -0.63081,1.0207 -0.24003,1.1712 1.55859,0.6003 1.79863,-0.5708 2.18941,-0.4203 1.5586,0.6003 -0.5986,0.9686 -0.32893,1.1654 0.93309,0.6811 0.97624,-0.3746 1.77498,-0.2312 1.77498,0.3186 0,0.5499 0.72,0.7234 1.6,0.3858 0.88,-0.3377 1.6,-0.054 1.6,0.6297 0,0.6841 0.37247,1.0136 0.82771,0.7322 0.45523,-0.2813 4.32388,0.4471 8.59699,1.6189 16.15984,4.4311 29.8993,5.7786 40.27013,3.9494 z"
       transform="translate(2.6676635,-164.40366)"
       id="path1313" />
    <path
       style="fill:#c87137;stroke-width:1.06667"
       d="m 604.25838,1088.6675 c 21.44528,0.408 40.09612,0.3994 54.93333,-0.025 12.10708,-0.3466 16.11581,-0.071 21.18132,1.4564 3.43639,1.0361 6.55639,1.5765 6.93333,1.2008 0.37694,-0.3758 0.84138,-10.2442 1.03208,-21.9298 l 0.34673,-21.2467 h -55.54673 -55.54673 l 0.0145,20 c 0.009,11 0.2845,21.0055 0.61441,22.2343 l 0.59984,2.2343 7.11892,-2.0685 c 5.35447,-1.5558 9.89492,-2.0157 18.31893,-1.8554 z"
       transform="translate(2.6676635,-164.40366)"
       id="path1311" />
    <path
       style="fill:#000000;stroke-width:1.06667"
       d="m 719.08924,1177.4562 c -2.70422,-9.6603 -5.78962,-29.5589 -6.61571,-42.6667 l -0.75629,-12 h 7.74024 7.74022 l -0.68415,4.2784 c -0.63853,3.9932 -3.82349,48.8206 -3.8453,54.1216 -0.018,4.383 -1.83862,2.4839 -3.57901,-3.7333 z"
       transform="translate(2.6676635,-164.40366)"
       id="path1309" />
    <path
       style="fill:#000000;stroke-width:1.06667"
       d="m 544.15277,1166.703 c -0.38819,-9.8742 -1.41939,-23.6742 -2.29157,-30.6667 -0.87218,-6.9924 -1.58962,-12.8334 -1.5943,-12.9801 -0.004,-0.1467 3.18556,-0.2667 7.08942,-0.2667 h 7.09794 l -0.68796,13.0667 c -0.37837,7.1867 -1.18009,16.1867 -1.7816,20 -1.94729,12.3451 -5.58409,28.8 -6.36528,28.8 -0.41847,0 -1.07847,-8.0789 -1.46665,-17.9532 z"
       transform="translate(2.6676635,-164.40366)"
       id="path1307" />
    <path
       style="fill:#000000;stroke-width:1.06667"
       d="m 577.16982,1188.301 c -0.3691,-2.8847 -1.63906,-16.2848 -2.82214,-29.7781 -1.18308,-13.4934 -2.25717,-25.7334 -2.38685,-27.2 -0.23036,-2.6053 -0.0508,-2.6738 7.79628,-2.974 l 8.03206,-0.3073 -0.32048,4.5739 c -1.58184,22.5768 -6.36369,55.0976 -8.72083,59.3096 -0.63521,1.135 -1.10804,0.049 -1.57804,-3.6241 z"
       transform="translate(2.6676635,-164.40366)"
       id="path1305" />
    <path
       style="fill:#000000;stroke-width:1.06667"
       d="m 685.97471,1188.6134 c -3.05926,-8.3879 -3.97119,-15.4746 -5.48051,-42.5893 -0.4153,-7.4609 -0.44029,-15.6647 -0.0556,-18.2304 l 0.69957,-4.6651 5.02674,2.4638 c 2.7647,1.355 5.70066,2.4788 6.52435,2.4971 1.62186,0.036 1.42547,8.6664 -1.04451,45.9 -1.58703,23.9236 -1.94326,24.8423 -5.67012,14.6239 z"
       transform="translate(2.6676635,-164.40366)"
       id="path1303" />
    <path
       style="fill:#000000;stroke-width:1.06667"
       d="m 614.60745,1196.3895 c -1.50596,-3.7633 -4.57291,-34.4913 -6.28136,-62.9333 l -0.28832,-4.8 9.04364,0.3777 c 4.974,0.2077 9.17058,0.4947 9.32573,0.6377 0.15516,0.1429 -0.97204,8.9624 -2.50489,19.5988 -3.45849,23.9984 -8.44046,49.254 -9.2948,47.1191 z"
       transform="translate(2.6676635,-164.40366)"
       id="path1301" />
    <path
       style="fill:#000000;stroke-width:1.06667"
       d="m 651.90666,1199.5895 c -1.94388,-4.6641 -11.38162,-61.677 -11.38162,-68.7559 0,-1.354 1.62402,-1.6441 9.20425,-1.6441 h 9.20425 l -0.7001,9.8667 c -3.56225,50.203 -4.97975,63.7653 -6.32678,60.5333 z"
       transform="translate(2.6676635,-164.40366)"
       id="path1299" />
    <path
       style="fill:#ffff00;stroke-width:1.06667"
       d="m 922.44165,1245.879 c -4.54292,-9.3258 -22.23834,-44.7961 -39.32315,-78.8228 -19.98236,-39.7975 -32.30307,-65.6006 -34.53878,-72.3341 -1.91152,-5.757 -3.25568,-10.6871 -2.98702,-10.9558 1.09998,-1.1 14.6946,9.173 22.69679,17.1512 11.74073,11.7054 49.19136,50.1296 79.66937,81.7404 23.42341,24.294 46.20882,46.2899 44.0582,42.5316 -3.33612,-5.8299 -37.21547,-54.1024 -81.53904,-116.1798 -24.48286,-34.2894 -27.96523,-39.3752 -31.26065,-45.6541 -3.16559,-6.0315 -3.3295,-6.7861 -1.8051,-8.3105 1.25568,-1.2556 2.33336,-1.4269 4.29239,-0.6821 3.547,1.3486 31.20376,21.2992 98.55371,71.0931 16.97421,12.5496 62.55863,45.0611 72.53333,51.7319 l 8.5334,5.7068 -6.9334,-7.5369 c -11.1824,-12.1561 -43.6407,-44.128 -84.26434,-83.0017 -50.86207,-48.6712 -60.14215,-58.4934 -63.27353,-66.9698 -0.59687,-1.6156 -0.31892,-1.8158 1.67792,-1.2088 8.88166,2.7003 29.97004,11.9297 53.42995,23.3837 15.05173,7.3489 27.55671,13.3616 27.78884,13.3616 0.66931,0 23.28326,10.7889 39.04116,18.6262 38.6571,19.2265 88.0761,41.9199 89.0869,40.9092 0.7713,-0.7713 -42.2411,-30.3351 -70.9535,-48.7686 -6.7467,-4.3314 -26.9067,-17.5876 -44.8,-29.4581 -17.8934,-11.8706 -37.0934,-24.3348 -42.66673,-27.6983 -14.03672,-8.4711 -23.72232,-15.80579 -29.31636,-22.20062 -2.61311,-2.98719 -4.5821,-5.60025 -4.37553,-5.80683 1.44542,-1.44542 29.45319,5.19398 55.02522,13.04405 10.26667,3.1517 26.5867,7.9626 36.2667,10.691 15.5531,4.3838 32.7748,9.3916 76.8,22.3319 44.0809,12.9568 76.9459,22.1397 77.4462,21.6394 0.2227,-0.2227 -2.8316,-1.8757 -6.7873,-3.6733 -3.9558,-1.7976 -26.3922,-12.008 -49.8589,-22.6897 -48.9973,-22.3028 -111.5572,-50.61546 -140.2667,-63.48018 -16.10942,-7.21863 -20.85968,-9.86265 -25.86666,-14.39749 -3.37334,-3.05523 -6.13334,-6.03473 -6.13334,-6.6211 0,-1.28939 18.32191,-0.50007 55.99996,2.41251 14.66674,1.13376 30.26674,2.31164 34.66674,2.6175 4.4,0.30585 11.12,0.78951 14.9333,1.07477 13.8595,1.03681 100.9565,7.95 106.6667,8.46652 3.2267,0.29187 13.5467,1.03786 22.9333,1.65776 9.3867,0.61989 17.9067,1.30631 18.9334,1.52536 1.0266,0.21905 1.8666,-0.0368 1.8666,-0.56853 0,-0.53175 -0.7221,-0.96681 -1.6047,-0.96681 -0.8825,0 -13.9625,-2.86339 -29.0666,-6.3631 -25.116,-5.81951 -38.5624,-9.01373 -83.462,-19.82664 -8.5067,-2.04859 -22.4267,-5.38163 -30.9333,-7.40673 -8.5067,-2.02509 -23.4405,-5.60242 -33.1863,-7.94962 -9.7458,-2.3472 -25.33169,-5.97281 -34.63524,-8.05691 -9.30356,-2.08411 -19.47383,-4.96051 -22.60062,-6.39199 -6.39489,-2.92767 -12.36988,-6.90191 -11.57365,-7.69816 0.6525,-0.6525 11.85601,-1.95692 34.79574,-4.05125 9.68,-0.88377 20.00007,-1.84448 22.93337,-2.13492 2.9333,-0.29046 15.4133,-1.25113 27.7333,-2.13484 12.32,-0.88371 25.76,-1.85243 29.8667,-2.15268 4.1067,-0.30027 18.2667,-1.26005 31.4667,-2.13284 27.2926,-1.8046 28.2874,-1.87922 64.5333,-4.83982 24.8996,-2.03383 40.0402,-3.78022 35.278,-4.06914 -1.1305,-0.0686 -16.2505,-1.54725 -33.6,-3.28593 -17.3496,-1.73869 -39.7047,-3.92217 -49.678,-4.85219 -9.9733,-0.93003 -22.9333,-2.1593 -28.8,-2.73171 -5.8667,-0.57242 -15.7067,-1.51048 -21.8667,-2.08458 -6.16,-0.5741 -17.92,-1.75579 -26.1333,-2.62598 -59.42057,-6.29555 -76.00707,-8.1126 -77.9505,-8.53948 -1.74657,-0.38365 -4.7162,-4.36544 -4.7162,-6.32366 0,-1.07652 21.22127,-8.77856 32.53333,-11.80763 11.97313,-3.20608 25.07067,-6.87846 34.13337,-9.57052 13.7457,-4.08315 73.683,-21.49616 86.9333,-25.25594 20.5517,-5.8315 68.7932,-20.32461 69.3119,-20.82325 0.7839,-0.75349 -18.5806,-0.15724 -28.7785,0.88611 -4.9867,0.51019 -22.2667,2.34344 -38.4,4.07388 -16.1334,1.73045 -37.2534,3.90423 -46.9334,4.83063 -9.68,0.92639 -30.8,3.07109 -46.9333,4.76599 -16.1333,1.69489 -35.81337,3.6017 -43.73337,4.23736 -7.92,0.63567 -17.58042,1.4229 -21.46761,1.74942 l -7.06761,0.59368 -1.11091,-3.18678 -1.11091,-3.18677 14.04518,-7.51351 c 14.6461,-7.83497 36.77287,-18.55051 65.77853,-31.85521 3.2267,-1.48005 16.1867,-7.71104 28.8,-13.84663 12.6134,-6.13561 28.6934,-13.82506 35.7334,-17.08767 14.7704,-6.84521 46.5099,-22.95988 49.9035,-25.33693 1.7181,-1.20333 1.8773,-1.61406 0.6258,-1.61406 -3.3147,0 -27.5295,6.59878 -52.6627,14.35111 -25.1709,7.764 -59.4342,18.05589 -73.0666,21.94752 -3.8134,1.08858 -20.3734,6.12169 -36.80007,11.18468 -40.27375,12.4131 -46.29244,13.56871 -49.64288,9.53168 -1.58696,-1.91216 7.88135,-9.55193 32.04288,-25.85468 81.36877,-54.90273 143.55277,-98.09648 142.59857,-99.05064 -0.5602,-0.56028 -25.0151,10.25968 -54.5985,24.157 -15.9842,7.5088 -24.7484,11.5233 -44.2667,20.27661 -10.2667,4.60424 -24.6667,11.33923 -32.00003,14.96663 -31.91335,15.78578 -61.87885,28.27615 -65.89772,27.46782 -1.108,-0.22285 0.049,-2.695 4.07974,-8.71776 3.85191,-5.75547 15.45214,-18.37033 36.7827,-40 17.13602,-17.37632 33.73916,-34.46565 36.89584,-37.97631 3.1567,-3.51066 15.20329,-15.67281 26.77027,-27.027 18.1479,-17.81412 33.6786,-34.60699 36.5109,-39.4781 2.1086,-3.62661 -19.4748,9.94682 -47.94173,30.14965 -11.73334,8.32709 -34.05334,23.95648 -49.6,34.73197 -15.54667,10.7755 -34.74667,24.10671 -42.66667,29.62491 -13.73616,9.57056 -31.42857,19.30856 -32.72508,18.01205 -2.01344,-2.01345 7.46805,-18.3505 25.47648,-43.89714 59.07079,-83.79747 84.01403,-120.90065 79.5206,-118.28725 -5.21792,3.03477 -16.52928,13.84514 -68.00533,64.99328 -47.21238,46.91163 -59.53602,58.59337 -65.6,62.18305 -4.10667,2.43102 -7.60247,4.01807 -7.76846,3.52677 -0.94135,-2.78629 16.42674,-47.26535 36.29462,-92.94918 18.29502,-42.06727 32.63934,-77.86667 31.20009,-77.86667 -0.65887,0 -14.83647,19.01874 -24.2521,32.53334 -8.99771,12.91475 -23.86648,34.84415 -49.54131,73.06666 -10.69533,15.92233 -19.58003,27.8878 -24.35491,32.8 -7.49668,7.71229 -10.24565,9.40314 -9.53803,5.86667 0.20541,-1.02667 0.91756,-5.22667 1.58253,-9.33333 2.5636,-15.83205 10.14714,-49.51124 19.2145,-85.33334 10.80218,-42.67577 17.29419,-70.67332 16.75952,-72.27731 -0.47982,-1.43948 -20.52992,38.1389 -31.75185,62.67731 -4.8293,10.56 -11.41645,24.72 -14.63809,31.46667 -3.22165,6.74667 -8.58659,18.283 -11.92209,25.63629 -3.3355,7.35329 -7.81547,16.0075 -9.95549,19.23157 -4.23756,6.38415 -8.96608,11.31721 -9.92695,10.35633 -0.67386,-0.67385 -0.6846,-32.88186 -0.0124,-37.09086 0.23424,-1.46666 0.7285,-8.90666 1.09836,-16.53333 0.36985,-7.62667 0.87252,-15.30667 1.11706,-17.06667 0.24453,-1.76 0.71236,-7.28 1.03961,-12.26666 0.32726,-4.98667 0.81305,-11.46667 1.07953,-14.4 0.89813,-9.8857 1.52376,-18.07938 2.19903,-28.8 0.36953,-5.86667 0.84631,-11.80239 1.05949,-13.19049 0.21318,-1.38809 0.67157,-12.18809 1.01865,-24 0.57617,-19.6092 0.49219,-21.17503 -0.96599,-18.01192 -2.7918,6.05603 -36.92997,107.10792 -39.18887,116.00241 -5.20496,20.49468 -2.49852,68.87366 5.63901,100.8 7.53151,29.5487 19.48137,53.29959 38.57219,76.66398 3.63494,4.44864 13.84395,15.53914 22.68668,24.64556 30.15075,31.04982 39.10779,41.30895 48.83213,55.93084 19.64889,29.54481 27.47133,57.70773 27.57932,99.29295 0.0736,28.33821 -2.711,49.61463 -9.64185,73.6711 -14.26837,49.52452 -41.79176,86.56012 -88.84308,119.54772 -7.47648,5.2418 -8.18683,6.0639 -8.84791,10.2403 -0.39533,2.4975 -2.7155,10.7809 -5.15594,18.4076 -3.96915,12.4041 -4.42951,14.9354 -4.36478,24 0.0877,12.2704 2.52007,25.6701 6.92705,38.1598 3.33276,9.4453 9.66819,22.6861 13.63985,28.5068 l 2.18346,3.2 0.007,-3.894 c 0.01,-5.6096 -3.44812,-25.0168 -9.01739,-50.6044 -2.66366,-12.236 -4.84268,-22.7825 -4.84268,-23.4366 0,-1.1291 4.39419,-3.665 6.3507,-3.665 1.35528,0 34.98182,59.1513 68.33778,120.2105 l 10.02101,18.3438 4.11931,-2.3151 c 3.86604,-2.1729 4.07647,-2.5466 3.42249,-6.0772 -0.67402,-3.6388 -11.91837,-37.8668 -28.74341,-87.4953 -7.04553,-20.7821 -15.79758,-49.3533 -18.07876,-59.0182 l -0.71238,-3.0183 3.33795,1.9516 c 5.84449,3.417 18.25987,17.4511 30.03556,33.9516 6.2802,8.8 17.79906,24.4647 25.59748,34.8104 7.79841,10.3458 20.84593,27.808 28.99448,38.8049 16.22763,21.9 39.16294,50.8951 39.77458,50.2834 0.2125,-0.2124 -3.33057,-8.0166 -7.87351,-17.3426 z"
       transform="translate(2.6676635,-164.40366)"
       id="path1293" />
    <path
       style="fill:#ffff00;stroke-width:1.06667"
       d="m 787.24163,1269.6 c -1.96182,-12.4492 -6.84987,-33.8697 -8.0183,-35.1378 -1.49339,-1.6209 -9.02996,17.5446 -8.93721,22.7273 0.14794,8.2671 4.16952,16.6862 11.42838,23.9253 l 6.49262,6.4747 0.36903,-3.5895 c 0.20298,-1.9742 -0.39756,-8.4542 -1.33452,-14.4 z"
       transform="translate(2.6676635,-164.40366)"
       id="path1287" />
    <path
       style="fill:#c87137;stroke-width:1.06667"
       d="m 670.39171,1289.7138 c 0,-1.3174 0.36966,-1.3781 2.03989,-0.335 2.86266,1.7877 24.06883,-1.2889 38.5696,-5.5957 17.24141,-5.1207 28.68416,-11.4992 38.97907,-21.7275 7.50446,-7.456 9.45183,-10.2212 14.64662,-20.7973 3.29526,-6.7088 5.83545,-12.3537 5.64487,-12.5443 -0.19058,-0.1905 -7.34082,1.3397 -15.88942,3.4005 -27.99783,6.7496 -53.09197,10.1067 -75.72396,10.1307 -7.17153,0.011 -10.4,0.3951 -10.4,1.2482 0,1.435 -68.29234,0.4873 -92.12889,-1.2786 -27.64272,-2.0479 -55.55332,-7.2006 -74.7128,-13.7934 -3.46958,-1.1939 -6.44514,-2.0339 -6.61233,-1.8667 -0.16719,0.1672 2.5273,6.1148 5.98776,13.217 11.22204,23.0319 26.72942,35.987 52.61796,43.958 18.14047,5.5853 36.54252,7.2554 82.0483,7.4465 30.49279,0.128 34.93333,-0.058 34.93333,-1.4624 z"
       transform="translate(2.6676635,-164.40366)"
       id="path1285" />
    <path
       style="fill:#ffff00;stroke-width:1.06667"
       d="m 415.7092,1275.8562 c 7.31125,-12.9067 26.13935,-46.7467 41.84022,-75.2 35.45014,-64.2433 37.14345,-67.1038 44.1057,-74.5094 l 5.6634,-6.0239 -0.63543,9.8715 c -0.63442,9.8558 -2.33638,20.1061 -7.44325,44.828 -1.4883,7.2047 -2.98599,16.5647 -3.32821,20.8 l -0.62221,7.7005 2.20203,-2.6667 c 3.50741,-4.2475 11.40428,-21.0764 14.39352,-30.6737 1.5087,-4.8439 3.74886,-14.6344 4.97814,-21.7567 2.69442,-15.6112 2.27527,-20.9917 -2.97869,-38.2363 -2.05553,-6.7466 -4.19423,-13.8606 -4.75266,-15.8088 -1.46464,-5.1096 -7.05309,-10.7975 -19.16184,-19.5027 -29.25461,-21.0317 -49.4273,-44.8322 -65.45123,-77.22182 -25.62375,-51.79398 -31.19583,-124.41387 -13.31976,-173.59426 9.86417,-27.13816 23.21829,-46.13547 56.05244,-79.73907 35.45309,-36.28391 46.65535,-50.82381 58.58445,-76.03932 14.22893,-30.07683 20.33956,-60.5657 20.70434,-103.30374 0.24753,-29.00079 -1.38963,-36.89882 -14.7845,-71.32361 -3.08171,-7.92 -7.19359,-20.16 -9.1375,-27.2 -4.64679,-16.82855 -9.1619,-30.44145 -14.66827,-44.22418 -4.09443,-10.24857 -4.52357,-10.91243 -4.85424,-7.50915 -0.53997,5.55742 1.78715,46.26094 4.07866,71.33985 1.10528,12.09641 2.29492,26.55348 2.64364,32.12681 0.92095,14.71845 1.4707,21.85905 3.24383,42.13334 0.87225,9.97333 1.5883,22.36374 1.59125,27.53425 l 0.005,9.40091 -3.4384,-0.33425 c -3.31544,-0.32229 -3.78274,-1.02115 -13.06667,-19.54135 -5.29555,-10.56392 -15.79837,-32.64392 -23.3396,-49.06667 -15.5603,-33.88609 -39.2571,-82.84667 -39.82347,-82.28031 -1.07081,1.07082 11.21049,54.3611 26.95327,116.95408 6.79171,27.00365 8.27407,34.437 8.72134,43.73334 l 0.53887,11.2 -2.38547,-2.13334 c -7.79079,-6.96731 -20.67636,-24.96467 -59.19563,-82.67894 -19.62094,-29.39849 -44.10787,-63.4663 -44.9863,-62.58788 -0.8268,0.82679 12.42667,34.62708 24.75535,63.13349 32.06919,74.15043 44.71646,105.97248 42.85661,107.83233 -0.22166,0.22166 -4.21008,-2.07192 -8.86314,-5.09685 -6.58594,-4.2815 -20.03865,-16.99016 -60.72676,-57.3681 -44.58015,-44.2403 -59.15878,-58.19316 -71.31872,-68.25748 -5.29574,-4.38308 19.86998,34.31581 49.91459,76.75677 42.5015,60.03751 49.57339,70.74422 54.44233,82.42458 l 1.67764,4.02459 -4.02459,-1.67764 c -6.09225,-2.53955 -17.01921,-8.70336 -25.35791,-14.30422 -18.81392,-12.63673 -33.9985,-23.17685 -59.2,-41.0927 -38.6641,-27.48646 -69.81676,-48.53071 -85.33333,-57.64436 -6.72552,-3.95024 22.85331,27.48899 86.35675,91.78824 39.95325,40.45391 54.44326,56.7619 54.44326,61.27391 0,4.20983 -25.87093,-6.85415 -110.93333,-47.44185 -41.18792,-19.65291 -86.00249,-39.14129 -82.66666,-35.94903 2.87225,2.74864 33.71431,25.01043 50.45666,36.41961 10.38217,7.07498 27.99667,19.08769 39.14334,26.69488 11.14666,7.6072 30.10666,20.38877 42.13333,28.4035 15.45567,10.29986 24.29033,16.99341 30.13333,22.8304 8.26186,8.25336 9.7448,10.65009 6.58961,10.65009 -3.64574,0 -25.36932,-5.55385 -42.05627,-10.75211 -9.68,-3.01548 -24.8,-7.54523 -33.6,-10.0661 -8.8,-2.52089 -29.90094,-8.9782 -46.89097,-14.34959 -40.40015,-12.77249 -82.83127,-24.66742 -87.50903,-24.53186 -3.50037,0.10144 40.22867,22.41349 77.92547,39.76024 14.69902,6.76397 35.33902,16.57328 45.86667,21.79848 10.52765,5.22518 27.30119,13.20295 37.27452,17.72836 9.97334,4.52541 20.61142,9.86661 23.64019,11.86934 5.6517,3.73711 11.86541,10.72652 10.63231,11.95962 -1.393,1.393 -39.59827,-2.18994 -150.00583,-14.06778 -49.44056,-5.3189 -72.86405,-7.30161 -79.99999,-6.77171 -4.50765,0.33473 -3.76054,0.69562 12.26666,5.92533 9.38667,3.06288 42.98667,12.98212 74.66667,22.04275 86.80201,24.82577 127.56821,36.66769 128.11619,37.21567 0.14352,0.14353 0.4161,2.17605 0.60571,4.51671 l 0.34476,4.25577 -33.6,3.37532 c -18.48,1.85644 -44.4,4.40997 -57.6,5.67452 -39.90132,3.82252 -155.31756,15.77559 -153.53098,15.90042 0.91795,0.0641 11.73154,1.05833 24.0302,2.20932 12.29865,1.15099 37.4676,3.06139 55.93098,4.24532 18.46339,1.18394 42.6898,2.87976 53.83647,3.76848 11.14666,0.88874 31.78666,2.34278 45.86666,3.2312 34.10949,2.15226 59.8052,4.56813 69.09489,6.4962 l 2.96156,0.61466 -2.42822,1.89578 c -6.74518,5.26611 -18.56413,9.37516 -39.99524,13.90496 -8.34185,1.76319 -18.66185,4.16145 -22.93333,5.32948 -4.27148,1.16803 -19.52632,4.75821 -33.89966,7.97817 -14.37333,3.21996 -32.85333,7.98013 -41.06666,10.57816 -8.87099,2.80605 -20.93101,5.6602 -29.70734,7.03061 -8.12571,1.26882 -29.00571,5.88442 -46.4,10.25689 l -31.62599,7.94995 16,-0.59135 c 24.40147,-0.90187 43.73473,-2.56925 54.93333,-4.73765 6.30904,-1.22164 17.78191,-2.21252 30.4,-2.62558 11.14667,-0.36488 22.66666,-0.89591 25.6,-1.18007 6.6581,-0.64497 63.3038,-5.52991 78.4,-6.76096 6.16,-0.50233 20.07643,-0.99963 30.92542,-1.1051 l 19.72542,-0.19179 -4.25875,4.39756 c -5.70677,5.89274 -9.45698,7.98429 -33.11629,18.46936 -35.23509,15.61512 -50.51931,22.52905 -74.60914,33.74997 -12.90666,6.0119 -34.02666,15.4776 -46.93333,21.0349 -24.75716,10.6599 -62.47544,29.2541 -60.60592,29.8773 1.81459,0.6048 36.50307,-8.6735 62.46532,-16.708 13.34268,-4.1292 37.82268,-11.3879 54.4,-16.1305 16.57734,-4.7426 41.1806,-11.9169 54.67393,-15.9429 13.49334,-4.02596 28.85334,-8.53961 34.13334,-10.03031 9.53838,-2.69296 28.27143,-6.31489 28.98268,-5.60364 0.20447,0.20447 -1.25802,2.50624 -3.24999,5.11504 -3.67949,4.81888 -11.25154,11.09181 -19.7794,16.38581 -7.09944,4.4073 -22.65276,14.5647 -60.35329,39.4146 -18.77334,12.3743 -43.39245,28.4894 -54.70915,35.8114 -30.32527,19.6206 -53.89088,35.3217 -57.96563,38.6208 l -3.59189,2.9082 7.46667,-3.2665 c 7.8502,-3.4342 22.63775,-10.1196 35.2,-15.9136 4.10667,-1.8942 10.34666,-4.7654 13.86666,-6.3805 3.52,-1.6151 21.52,-10.2522 40,-19.1936 18.48,-8.9413 37.68,-18.1655 42.66667,-20.4981 4.98667,-2.3325 20.82667,-9.9228 35.2,-16.8673 25.13737,-12.1451 41.11508,-18.5775 44.4363,-17.8894 2.45478,0.5086 -5.53473,12.0345 -14.73083,21.2511 -4.32155,4.3312 -23.93221,23.2349 -43.57926,42.0083 -45.37277,43.355 -76.23076,73.681 -84.61992,83.1609 l -6.57296,7.4277 5.33334,-3.0494 c 8.52701,-4.8754 27.05105,-17.8311 51.73333,-36.1822 12.61333,-9.378 30.37333,-22.3412 39.46667,-28.8071 9.09333,-6.466 25.05419,-18.1556 35.46858,-25.977 19.47033,-14.6224 45.47919,-32.3063 47.515,-32.3063 0.74465,0 0.4976,2.3455 -0.70314,6.6758 -2.19335,7.9099 -5.78889,13.4351 -30.01548,46.1242 -8.49507,11.4625 -23.50617,33.7865 -26.03714,38.7216 -0.99332,1.9368 -2.50564,3.79 -3.36071,4.1181 -1.60086,0.6143 -30.43637,40.5705 -48.37194,67.027 l -10.12369,14.9333 9.65632,-8.7712 c 12.21204,-11.0927 44.16306,-43.7542 59.80385,-61.1337 6.58076,-7.3123 14.6484,-15.4289 17.92809,-18.0368 3.2797,-2.608 10.58253,-9.808 16.2285,-16 17.31664,-18.9915 27.17185,-28.7615 34.41175,-34.1142 7.53265,-5.5691 11.65178,-7.9812 12.38223,-7.2507 1.66011,1.6601 -10.2503,27.5351 -38.16231,82.9066 -34.23586,67.9167 -49.06273,98.7357 -45.92845,95.4667 0.56249,-0.5867 6.64866,-8.1866 13.52484,-16.8886 11.57394,-14.6473 25.85027,-33.6865 75.55761,-100.7652 10.43565,-14.0826 20.83291,-27.7167 23.10501,-30.2979 4.04432,-4.5946 12.5082,-11.1819 13.28566,-10.3401 1.09996,1.191 -5.34438,26.1807 -11.11251,43.0918 -3.60188,10.56 -9.09538,26.88 -12.20778,36.2667 -3.1124,9.3866 -10.68353,31.7066 -16.82471,49.6 -6.14119,17.8933 -13.17144,39.2533 -15.62279,47.4666 -2.45135,8.2134 -4.74308,15.8934 -5.09273,17.0667 -1.07879,3.6201 0.0383,1.7997 13.74675,-22.4 z"
       transform="translate(2.6676635,-164.40366)"
       id="path1283" />
    <path
       style="fill:#c87137;stroke-width:1.06667"
       d="m 825.85837,1309.8643 6.66667,-0.5779 v -7.3818 -7.3817 h -58.13333 -58.13334 v 7.4666 c 0,4.1067 0.12,7.5318 0.26667,7.6111 2.6706,1.447 93.16564,1.6652 109.33333,0.2637 z"
       transform="translate(2.6676635,-164.40366)"
       id="path1281" />
    <path
       style="fill:#ffff00;stroke-width:1.06667"
       d="m 485.05528,1287.0562 c 2.91019,-6.16 6.72944,-14.8 8.4872,-19.2 3.90191,-9.7673 3.64714,-14.0683 -1.58182,-26.7046 l -3.61883,-8.7454 -2.74986,9.9917 c -3.84417,13.9678 -7.68683,31.7722 -10.90467,50.525 -1.51002,8.8 -2.98883,17.2 -3.28625,18.6666 -0.69534,3.4289 6.84195,-10.1138 13.65423,-24.5333 z"
       transform="translate(2.6676635,-164.40366)"
       id="path1279" />
    <path
       style="fill:#c87137;stroke-width:1.06667"
       d="m 866.28859,1343.8562 c 1.5006,-1.6133 4.1556,-5.7548 5.90001,-9.2032 7.58779,-14.9999 8.23605,-35.7893 1.75028,-56.1301 -2.56054,-8.0304 -5.35637,-11.4137 -12.76328,-15.445 -6.28783,-3.4223 -5.99918,-3.6307 -12.07596,8.7129 -5.43316,11.0362 -7.37197,20.0487 -7.2996,33.9321 0.0962,18.4485 5.5205,34.1454 13.4758,38.9961 4.65343,2.8375 7.80037,2.591 11.01275,-0.8628 z"
       transform="translate(2.6676635,-164.40366)"
       id="path1273" />
    <path
       style="fill:#c87137;stroke-width:1.06667"
       d="m 645.85838,1363.1095 c 0,-1.4103 0.28444,-1.5288 1.28,-0.5333 1.85303,1.853 10.24547,1.5761 24.85333,-0.8201 21.17577,-3.4734 34.96583,-8.7144 40.99365,-15.5797 2.6728,-3.0441 3.26962,-4.6501 3.2545,-8.7573 -0.0268,-7.2567 -2.52347,-17.9997 -7.04221,-30.3012 l -3.94388,-10.7367 -7.56437,0.7333 c -42.85262,4.1542 -60.32015,4.6604 -92.89769,2.6921 -17.02176,-1.0284 -42.89188,-4.1491 -52.08902,-6.2836 l -4.08903,-0.9489 0.42782,23.1077 c 0.5395,29.1407 0.81254,30.0209 11.04855,35.618 17.19625,9.4031 36.79068,13.1154 71.10168,13.4711 13.15242,0.1363 14.66667,-0.035 14.66667,-1.6614 z"
       transform="translate(2.6676635,-164.40366)"
       id="path1271" />
    <path
       style="fill:#c87137;stroke-width:1.06667"
       d="m 667.19171,1497.2051 c 51.17752,-2.4662 86.17097,-7.8943 118.4,-18.3655 18.35433,-5.9635 30.58211,-11.4432 40.99468,-18.3716 13.47945,-8.9688 17.68323,-15.6459 17.65622,-28.0442 -0.0282,-12.9215 -5.94787,-31.6774 -13.86332,-43.9241 -9.21606,-14.2591 -28.31347,-31.4105 -47.77126,-42.9036 -16.32578,-9.6432 -45.83578,-21.5836 -51.88168,-20.9927 -3.58884,0.3508 -3.16775,-0.9028 -5.79435,17.2515 -1.6191,11.1907 -6.42307,15.2835 -27.07364,23.0654 -18.22676,6.8685 -26.52575,7.9405 -61.59998,7.9568 -42.24093,0.02 -57.09218,-2.3 -76.14298,-11.8939 -14.84536,-7.476 -17.90949,-11.648 -19.80512,-26.9657 -0.61521,-4.9712 -1.11857,-9.4112 -1.11857,-9.8667 0,-1.8147 -5.08854,-0.5848 -19.01748,4.5967 -30.99542,11.5302 -51.8838,23.9142 -69.09464,40.9641 -19.30683,19.1261 -29.22121,41.3177 -29.22121,65.4063 0,7.5606 0.30944,8.8454 3.03724,12.611 9.65426,13.3273 31.02615,24.8474 62.90689,33.9087 26.07937,7.4125 45.41113,10.7454 71.33114,12.298 9.16954,0.5492 16.9619,1.4923 17.3364,2.0983 0.40863,0.6611 7.47687,1.2181 17.70096,1.3948 9.36138,0.1618 24.4607,0.4263 33.55403,0.5879 9.09334,0.1615 26.85334,-0.2036 39.46667,-0.8115 z"
       transform="translate(2.6676635,-164.40366)"
       id="path1269" />
    <path
       style="fill:#ececec;stroke-width:1.06667"
       d="m 673.59171,1565.9773 c 40.14589,-4.5692 75.38459,-14.1837 97.6,-26.6293 13.37581,-7.4934 15.73823,-12.3647 15.70978,-32.3937 -0.0112,-7.9153 -0.4877,-14.7027 -1.07321,-15.2882 -0.69287,-0.6929 -6.65884,0.066 -17.44479,2.22 -45.8783,9.1605 -85.51254,12.9034 -136.63543,12.9034 -49.96379,0 -95.38859,-4.6321 -136.80687,-13.9505 -7.6178,-1.7139 -14.2178,-3.1161 -14.66667,-3.1161 -0.44888,0 -0.81614,8.877 -0.81614,19.7266 v 19.7267 l 4.38261,3.1747 c 5.347,3.8733 24.50839,13.6807 34.16809,17.4881 39.00954,15.3759 103.50284,22.0657 155.58263,16.1383 z"
       transform="translate(2.6676635,-164.40366)"
       id="path1267" />
    <path
       style="fill:#c87137;stroke-width:1.06667"
       d="m 686.39171,1763.746 c 34.99919,-1.9299 77.02017,-7.5857 103.46666,-13.926 18.87287,-4.5245 55.31925,-16.8434 68.49552,-23.1513 28.45815,-13.6241 54.59182,-36.657 59.06999,-52.0614 6.13931,-21.1184 -3.37312,-63.5747 -21.30962,-95.1099 -19.0163,-33.4338 -50.55021,-63.1955 -89.37278,-84.3502 l -8.18358,-4.4593 -0.64548,6.1842 c -1.86248,17.8435 -3.09559,26.3687 -5.2017,35.9624 -1.94812,8.8742 -2.66571,10.6183 -4.45397,10.8259 -1.17245,0.1361 -10.53171,3.6999 -20.79838,7.9197 -28.75323,11.818 -53.20579,18.1727 -84.26666,21.8991 -19.6609,2.3588 -69.39294,3.3067 -87.0481,1.6593 -53.69632,-5.0104 -102.48265,-20.8104 -119.67769,-38.7589 -4.35752,-4.5485 -5.48837,-10.9935 -5.51942,-31.4567 -0.0148,-9.7545 -0.39364,-14.1334 -1.22276,-14.1334 -3.7387,0 -34.58658,18.7912 -47.86536,29.1575 -9.3553,7.3032 -26.57776,24.0951 -34.09507,33.2425 -16.69865,20.3197 -30.03421,47.2829 -36.66511,74.1334 -2.33656,9.4614 -2.75119,13.1111 -3.46763,30.5238 -0.59802,14.5343 -0.52759,15.2386 2.02827,20.2824 4.22812,8.3437 12.2887,18.3315 19.85776,24.6054 28.3961,23.5371 79.30354,43.3387 133.90773,52.0865 9.36794,1.5008 17.28794,3.1127 17.6,3.5822 1.00391,1.5102 59.14965,5.9612 90.16738,6.9023 15.40192,0.4674 52.33153,-0.2985 75.2,-1.5595 z"
       transform="translate(2.6676635,-164.40366)"
       id="path1265" />
  </g>
</svg>
