<?xml version="1.0" encoding="UTF-8" standalone="no"?>
<!-- Created with Inkscape (http://www.inkscape.org/) -->

<svg
   version="1.1"
   id="svg1"
   width="374.08008"
   height="505.06729"
   viewBox="0 0 374.08008 505.06729"
   sodipodi:docname="48b.svg"
   inkscape:version="1.3.2 (091e20ef0f, 2023-11-25)"
   xmlns:inkscape="http://www.inkscape.org/namespaces/inkscape"
   xmlns:sodipodi="http://sodipodi.sourceforge.net/DTD/sodipodi-0.dtd"
   xmlns="http://www.w3.org/2000/svg"
   xmlns:svg="http://www.w3.org/2000/svg">
  <defs
     id="defs1" />
  <sodipodi:namedview
     id="namedview1"
     pagecolor="#ffffff"
     bordercolor="#000000"
     borderopacity="0.25"
     inkscape:showpageshadow="2"
     inkscape:pageopacity="0.0"
     inkscape:pagecheckerboard="0"
     inkscape:deskcolor="#d1d1d1"
     showgrid="false"
     inkscape:zoom="0.83410034"
     inkscape:cx="53.350895"
     inkscape:cy="90.516688"
     inkscape:window-width="1920"
     inkscape:window-height="1011"
     inkscape:window-x="0"
     inkscape:window-y="0"
     inkscape:window-maximized="1"
     inkscape:current-layer="layer2" />
  <g
     inkscape:groupmode="layer"
     id="layer2"
     inkscape:label="Layer 1">
    <path
       style="fill:#000000"
       d="m 210.43588,544.74941 0.43588,-9.92345 -4.43588,-0.63056 c -20.84287,-2.96284 -27.64383,-4.48261 -40.91566,-9.14316 -17.27732,-6.06712 -22.11922,-8.16596 -31.52023,-13.66321 -20.27248,-11.85436 -36.987586,-28.1791 -44.902535,-43.85387 -5.31556,-10.52694 -11.467859,-31.97785 -12.965384,-45.20574 -2.871602,-25.36535 5.5259,-56.78976 21.76566,-81.44958 16.170869,-24.55521 49.739689,-49.24694 82.768929,-60.88113 9.93864,-3.50078 60.79898,-14.55136 101.48477,-22.0499 23.54958,-4.34027 37.99134,-11.3305 49.61402,-24.0146 14.48056,-15.80298 18.73896,-30.7055 11.93775,-41.77684 -3.21059,-5.22636 -7.51792,-9.37568 -9.80608,-9.44635 -1.6001,-0.0494 -4.5638,14.18443 -4.5638,21.91869 0,4.21343 -0.3627,4.84571 -2.33333,4.06763 -21.01522,-8.29765 -53.22635,-14.10653 -61.74871,-11.13562 -2.19137,0.76392 -6.21939,1.02584 -8.95114,0.58205 -2.73175,-0.4438 -5.56682,-0.8586 -6.30015,-0.92178 -0.73333,-0.0632 -10.63333,1.76276 -22,4.05765 -32.17619,6.49627 -79.79149,10.69574 -109.51914,9.65913 l -12.85247,-0.44817 -2.48086,-6.23906 c -1.36447,-3.43148 -2.68086,-6.69187 -2.9253,-7.2453 -0.244446,-0.55344 3.73276,-1.00625 8.83824,-1.00625 9.07166,0 9.32062,-0.0916 10.95139,-4.0286 2.35854,-5.69403 3.57605,-5.96921 5.9656,-1.34832 2.83606,5.48433 6.3934,5.22381 8.50766,-0.62308 0.92812,-2.56666 2.09866,-4.65304 2.60119,-4.63638 0.50253,0.0166 1.86409,1.96665 3.02567,4.33333 1.42935,2.91221 3.21939,4.43541 5.53813,4.71255 2.92949,0.35013 3.66142,-0.32636 5.04909,-4.66667 2.32967,-7.28664 3.21368,-7.67928 5.16153,-2.29259 l 1.72913,4.78182 8.20507,-0.95073 c 15.01676,-1.74 15.00243,-2.1865 -0.31689,-9.87477 -14.59258,-7.32354 -15.12112,-7.3362 -16.9677,-0.40656 -1.19272,4.47594 -2.55886,3.65666 -4.44664,-2.66666 -1.56318,-5.23604 -3.31387,-7.59519 -5.67416,-7.64625 -0.51908,-0.0112 -2.54198,2.70668 -4.49532,6.03981 -1.95334,3.33313 -3.82785,5.78392 -4.16556,5.4462 -0.33772,-0.33771 -1.34373,-3.47445 -2.23559,-6.97053 -0.89186,-3.49608 -2.33373,-6.5939 -3.20417,-6.88404 -0.8782,-0.29274 -2.95339,2.60018 -4.66237,6.49959 l -3.07976,7.02713 -2.45247,-5.25595 c -1.34886,-2.89078 -2.62696,-5.46104 -2.84023,-5.7117 -0.21326,-0.25065 -2.49317,0.3056 -5.06646,1.23611 -5.52573,1.99813 -8.85427,0.19123 -8.85427,-4.80653 0,-4.23437 4.91789,-9.52507 23.02112,-24.76624 11.90471,-10.02262 16.61243,-13.2076 19.52212,-13.2076 2.9347,0 4.02266,-0.75033 4.63698,-3.198 1.44737,-5.76676 25.90339,-19.44641 49.22055,-27.531872 10.02599,-3.476614 7.05385,-0.143315 29.51038,-33.096391 5.61598,-8.24098 10.76872,-14.359937 12.75551,-15.147362 4.05962,-1.608948 54.33882,-0.458246 70.66666,1.617294 12.77045,1.623336 33.12022,6.594455 43.77689,10.693985 24.28317,9.341528 47.51117,25.805129 60.69798,43.021676 9.30102,12.1433 14.75596,24.14582 16.80405,36.974 0.87811,5.5 2.68369,11.53659 4.0124,13.41464 4.82676,6.8223 10.76022,20.05209 14.13793,31.52325 2.74485,9.32185 3.47483,14.73861 3.55716,26.39544 0.33008,46.73684 -26.73911,84.14555 -74.98641,103.62869 -18.24122,7.36614 -34.78261,11.22673 -67.33333,15.71493 -25.66615,3.53893 -66.75737,10.34532 -71.968,11.92084 -30.62635,9.26042 -41.37863,14.09505 -50.9536,22.91071 -3.97246,3.65744 -8.33999,12.4514 -8.38244,16.87795 -0.0791,8.24994 11.31929,22.19962 19.3852,23.7241 5.91321,1.11761 38.83849,-1.27945 53.65176,-3.90601 l 9.73292,-1.72575 11.39054,11.64019 c 6.2648,6.4021 12.30894,12.95138 13.43142,14.55396 2.2417,3.20047 2.07186,3.20449 21.04553,-0.49828 18.90596,-3.68956 52.55093,-1.9994 56.07263,2.81681 1.32663,1.81428 1.82233,1.81276 4.70511,-0.0144 2.55671,-1.62049 5.01235,-1.82015 11.88893,-0.96669 4.76667,0.5916 14.96666,1.80708 22.66666,2.70106 16.37399,1.90104 20.85245,3.81196 23.43837,10.00095 3.17794,7.60587 2.66246,8.77518 -3.43837,7.79961 l -5.33333,-0.85283 v 6.83708 c 0,7.71298 -1.07329,8.49672 -4.34172,3.17041 -4.12876,-6.72835 -4.52635,-7.09485 -6.76488,-6.23584 -1.77032,0.67933 -2.22673,2.66673 -2.22673,9.69598 v 8.84151 l -3.52013,-4.9474 c -4.67111,-6.56506 -6.327,-5.18442 -5.24562,4.37365 1.01467,8.9685 -0.48498,10.89236 -4.37476,5.6123 -2.70122,-3.66667 -2.71108,-3.66855 -5.28011,-1.00687 -1.41561,1.46667 -4.76055,6.71667 -7.43321,11.66667 -5.30887,9.83248 -5.18038,10.07351 4.35383,8.16666 2.83111,-0.56622 4.16667,-1.60944 4.16667,-3.25464 0,-1.33172 0.6,-2.79213 1.33333,-3.24536 0.73333,-0.45322 1.34667,-2.43863 1.36298,-4.41202 l 0.0297,-3.58798 2.60737,3.33334 c 1.43405,1.83333 2.62071,4.08333 2.63702,5 0.0379,2.13253 1.57118,2.1167 4.52991,-0.0468 1.29522,-0.94709 2.68042,-4.22703 3.09707,-7.33334 0.41458,-3.09093 1.10224,-5.61988 1.52814,-5.61988 0.42589,0 2.05095,1.60101 3.61124,3.55779 4.33898,5.4416 7.26328,3.4892 7.26328,-4.84928 0,-3.68968 0.36365,-6.70851 0.80811,-6.70851 0.44446,0 1.98801,1.5 3.43011,3.33333 1.4421,1.83333 3.27393,3.33333 4.07073,3.33333 0.79681,0 4.65326,-2.41943 8.5699,-5.37652 l 7.12115,-5.37653 0.0147,5.04319 c 0.008,2.77376 0.333,7.1432 0.72206,9.70986 0.67252,4.43667 0.35966,4.89044 -6.34801,9.20697 -3.88047,2.49716 -9.45539,6.14022 -12.38873,8.09569 -18.99058,12.6598 -41.83593,23.8866 -61.99999,30.46841 -23.36984,7.62821 -29.0951,9.09304 -47.88202,12.25076 -9.10178,1.52984 -17.61234,3.35077 -18.91235,4.04652 -3.49154,1.86861 -8.53346,1.54238 -13.61526,-0.88096 -4.23447,-2.01928 -5.69768,-1.94101 -24.78822,1.32597 -11.15846,1.90956 -24.7664,4.97523 -30.23987,6.81261 -5.47346,1.83739 -10.08912,3.3421 -10.25702,3.3438 -0.16789,0.002 -0.10911,-4.46245 0.13063,-9.92034 z"
       transform="translate(-75.575961,-49.602431)"
       id="path1" />
    <g
       id="layer8"
       inkscape:label="01"
       style="display:inline">
      <path
         style="fill:#008080"
         d="m 181.0238,404.99999 c -1.07226,-1.65 -2.79126,-4.5 -3.82002,-6.33334 -1.02875,-1.83333 -2.34171,-3.68188 -2.9177,-4.10788 -2.27693,-1.68405 -2.43975,-10.28646 -0.33193,-17.5371 1.77651,-6.11097 3.54901,-8.79927 9.1253,-13.84003 5.98735,-5.41233 10.33564,-7.89932 24.25388,-13.87189 15.27711,-6.55568 24.54446,-8.45465 97.99999,-20.08118 33.91875,-5.36865 39.48394,-6.61424 63.33333,-14.1751 16.159,-5.12282 33.44099,-14.79621 44.27436,-24.78206 11.82511,-10.9 27.05897,-34.14788 27.05897,-41.29376 0,-1.71105 0.54095,-3.68099 1.20211,-4.37766 0.66116,-0.69666 2.24352,-6.01617 3.51637,-11.82112 4.18559,-19.08886 0.055,-44.66569 -10.23686,-63.38651 l -4.27808,-7.78182 -2.8641,8.19473 c -1.57526,4.5071 -4.41199,12.09472 -6.30385,16.86139 -1.89186,4.76667 -4.38636,11.96667 -5.54334,16 -3.07723,10.72751 -12.94753,26.66375 -20.99685,33.90078 -3.88873,3.4963 -12.43186,8.90306 -19.20128,12.15206 -22.79588,10.94096 -43.15779,16.4385 -93.29411,25.1886 -30.12471,5.25755 -33.76181,5.99472 -60.66667,12.29588 -46.91588,10.98777 -67.22736,20.49052 -85.40779,39.95814 C 125.99171,336.79926 116,356.09567 116,364.64313 c 0,3.20341 6.48507,14.1005 11.80133,19.83019 10.68703,11.51812 35.17473,22.96528 50.01868,23.382 5.04247,0.14155 5.1114,0.0801 3.20379,-2.85533 z"
         transform="translate(-75.575961,-49.602431)"
         id="path32" />
      <path
         style="fill:#008080"
         d="m 311.42465,535.44552 c 3.61644,-1.03829 9.27534,-2.30752 12.57534,-2.8205 10.64476,-1.65474 40.00651,-11.2746 53.18356,-17.42466 22.35011,-10.43136 41.27847,-21.63601 51.76631,-30.64309 4.07764,-3.50193 4.64743,-4.65734 3.85458,-7.81633 -0.84495,-3.36654 -1.13888,-3.52379 -3.20076,-1.71238 -8.42929,7.40535 -38.76656,21.64401 -55.78986,26.18471 -3.32858,0.88784 -6.39088,2.80214 -7.71474,4.82261 -3.40496,5.19662 -12.28661,10.98209 -18.46064,12.02519 -3.0773,0.5199 -7.40484,2.29217 -9.61677,3.93836 -5.18761,3.86082 -10.90933,4.89872 -16.39128,2.97333 -3.47692,-1.22118 -5.14563,-3.17975 -8.16822,-9.58707 -6.01491,-12.75051 -7.25339,-20.80378 -6.50139,-42.27578 0.65761,-18.77711 1.86291,-24.54144 8.43527,-40.3414 0.90046,-2.1647 0.66678,-2.39796 -1.49792,-1.49521 -1.41064,0.58829 -4.06481,1.33765 -5.89814,1.66525 -1.83334,0.3276 -4.53334,1.12046 -6,1.76192 -1.46667,0.64145 -8.96667,2.45324 -16.66667,4.0262 -7.7,1.57296 -20.9,4.31157 -29.33333,6.0858 -11.12812,2.34117 -22.94364,3.5813 -43.08256,4.52183 -32.65257,1.52495 -36.49438,0.83584 -59.55078,-10.68163 -21.68088,-10.83035 -35.37859,-26.3973 -45.15707,-51.31935 -2.51482,-6.40944 -3.17906,-10.78348 -3.34091,-22 -0.2538,-17.5895 2.48105,-26.26683 13.44732,-42.66666 l 2.22894,-3.33334 -3.72103,3.33334 c -10.938,9.79837 -26.630199,36.73029 -32.629055,55.99999 -3.144039,10.09938 -3.52391,13.43832 -3.488949,30.66667 0.03968,19.55248 1.191785,26.67234 7.01203,43.33333 6.423049,18.38658 21.150274,36.86104 39.013894,48.94071 6.1975,4.19085 11.75183,7.64362 12.34296,7.67284 0.59113,0.0292 4.50043,1.75276 8.68734,3.8301 4.1869,2.07734 9.38243,4.22119 11.54562,4.76412 2.16319,0.54293 6.43963,2.12901 9.5032,3.52462 5.12676,2.33551 21.08338,5.7947 34.85572,7.55628 6.94021,0.8877 6.93027,0.9811 1.68269,-15.80673 -7.29395,-23.3345 -15.0024,-37.44004 -27.75632,-50.7908 -5.33193,-5.58144 -5.07397,-7.51906 0.61639,-4.62975 2.08481,1.05857 7.69057,3.28298 12.45724,4.94314 14.96538,5.2122 53.16028,24.86286 59.01307,30.36126 1.73734,1.63215 3.66349,2.96754 4.28034,2.96754 0.61685,0 2.97818,1.40802 5.2474,3.12893 2.46948,1.87279 7.01374,3.50737 11.31929,4.07159 8.47461,1.11054 15.43965,4.42396 20.34254,9.67737 4.45742,4.77611 8.18489,15.6557 7.08286,20.67321 -0.76326,3.4751 -0.51695,3.78224 3.03322,3.78224 2.12517,0 6.82284,-0.84951 10.43927,-1.8878 z"
         transform="translate(-75.575961,-49.602431)"
         id="path5" />
      <path
         style="fill:#008080"
         d="m 336.95083,518.44261 c 4.17706,-3.8707 15.71879,-20.6759 20.90785,-30.44263 6.10949,-11.49914 18.5977,-28.92795 28.72553,-40.08996 l 9.26478,-10.21083 -9.18134,-1.51627 c -15.38434,-2.54067 -18.80374,-2.10809 -25.67928,3.24859 l -6.11591,4.76487 2.43456,4.23513 c 5.50517,9.57677 4.65225,16.25649 -3.12891,24.50411 -8.8632,9.39452 -23.39071,6.74227 -29.31958,-5.35281 -3.58516,-7.31383 -2.08984,-15.54558 4.06054,-22.35331 4.36344,-4.82981 5.24771,-5.22235 11.5694,-5.1358 3.76467,0.0515 8.04485,0.56425 9.51152,1.13934 3.31678,1.30054 8.66666,-1.92157 8.66666,-5.21973 0,-2.97141 -3.49565,-3.68374 -23.67335,-4.82407 l -15.73163,-0.88907 -1.63084,3.57931 c -0.89696,1.96862 -1.63084,4.75108 -1.63084,6.18324 0,1.43216 -0.54579,2.60393 -1.21287,2.60393 -2.47277,0 -4.35921,18.88628 -3.82985,38.34298 0.57889,21.277 2.39827,29.11736 8.69616,37.4747 3.07316,4.0781 3.85774,4.42016 8.66065,3.77596 2.90474,-0.38961 6.79128,-2.10756 8.63675,-3.81768 z"
         transform="translate(-75.575961,-49.602431)"
         id="path7" />
      <path
         style="fill:#008080"
         d="m 356.72496,511.02288 c 3.71461,-2.6625 10.94764,-12.93696 16.44209,-23.35586 5.84498,-11.0836 10.09603,-17.11761 17.7251,-25.1593 11.26748,-11.87689 15.27232,-14.29366 24.46779,-14.76538 l 7.97338,-0.40902 -5.33334,-5.11127 c -4.91433,-4.70971 -5.80471,-5.06071 -11.33333,-4.46779 -5.37283,0.57622 -6.89049,1.59828 -14.51918,9.77793 -13.01779,13.95799 -31.15715,38.91644 -38.15293,52.49573 -1.31439,2.5513 -3.80086,6.49536 -5.5255,8.76458 -1.72465,2.26922 -3.13572,4.59422 -3.13572,5.16667 0,1.65574 7.78443,-0.35076 11.39164,-2.93629 z"
         transform="translate(-75.575961,-49.602431)"
         id="path10" />
      <path
         style="fill:#008080"
         d="m 288.1276,540.37917 c 3.66297,-2.16376 3.87239,-2.77186 3.87239,-11.24406 0,-8.93524 -0.0135,-8.96743 -5.66667,-13.50224 -5.6134,-4.50291 -15.13304,-8.96622 -19.12375,-8.96622 -1.6948,0 -1.56862,0.63714 0.69645,3.51671 3.61766,4.59911 6.76064,15.37916 6.76064,23.18821 0,5.13373 0.52428,6.47376 3,7.66775 4.25415,2.0517 6.06343,1.93753 10.46094,-0.66015 z"
         transform="translate(-75.575961,-49.602431)"
         id="path3" />
      <path
         style="fill:#008080"
         d="m 313.08279,254.07169 c 3.43779,-1.06057 11.65053,-3.52957 18.25053,-5.48667 6.6,-1.9571 15,-4.46485 18.66667,-5.57278 3.66666,-1.10793 10.25978,-4.18893 14.65136,-6.84666 4.39158,-2.65774 9.7911,-5.61616 11.99892,-6.57426 6.73134,-2.92112 20.15526,-18.08738 23.56598,-26.6247 2.62027,-6.55876 3.11363,-10.5522 3.50475,-28.36877 0.42845,-19.51687 0.25733,-21.26117 -2.91168,-29.68047 -4.32442,-11.48892 -9.45862,-18.86802 -19.36602,-27.8337 -7.80708,-7.065 -12.06626,-9.62668 -26.77665,-16.10476 -35.15161,-15.479893 -84.07038,-19.752717 -123.99999,-10.830816 -17.26986,3.85879 -54.70385,17.598636 -63.33333,23.246006 -2.93334,1.91965 -6.53334,3.92419 -8,4.45453 -5.06565,1.83172 -11.31514,6.82548 -11.32423,9.04879 -0.01,2.35882 7.31222,10.4359 9.46012,10.4359 0.69526,0 1.64286,-1.89375 2.10577,-4.20833 0.46292,-2.31459 3.14792,-6.51459 5.96667,-9.33334 4.47874,-4.47873 5.90886,-5.125 11.34119,-5.125 7.44265,0 17.04256,5.05876 18.26597,9.62542 1.83589,6.85282 -0.20584,21.04125 -3.02785,21.04125 -0.52331,0 -2.32961,1.28392 -4.01399,2.85316 -2.26635,2.11142 -4.84475,2.87745 -9.91808,2.94659 -8.6753,0.11823 -14.95608,-3.37756 -16.95604,-9.43749 -0.91535,-2.77355 -3.02095,-5.21173 -5.67726,-6.57398 -2.32225,-1.19093 -5.65319,-3.2805 -7.40208,-4.64347 -6.26353,-4.88139 -9.30246,-3.70464 -24.45916,9.47118 l -5.30997,4.61599 9.8078,2.39383 c 20.19036,4.92792 34.81815,10.67668 48.47447,19.05058 2.93333,1.79869 6.23333,3.67996 7.33333,4.18061 1.1,0.50065 3.5,1.92766 5.33334,3.17113 15.07713,10.22623 30.72046,14.68221 36.42177,10.3747 5.99574,-4.52997 3.51973,-21.52538 -5.86869,-40.28287 -7.9818,-15.94715 -13.64036,-23.80812 -23.24617,-32.29397 -8.62848,-7.62248 -10.56145,-10.93181 -3.79599,-6.4989 17.98046,11.78125 39.15574,50.40116 39.15574,71.41306 0,8.81447 -3.02795,11.20776 -14.47188,11.43856 -4.8738,0.0983 -11.42662,0.87551 -14.56182,1.72714 -4.32809,1.17566 -7.59502,1.17566 -13.5707,2e-5 -6.39696,-1.25852 -10.8212,-1.14421 -23.63296,0.61064 -21.90289,3.00008 -41.72258,4.81682 -52.549,4.81682 h -9.17049 l 2.22538,4.66667 2.22538,4.66666 h 23.85692 c 13.12132,0 31.16019,-0.66121 40.08639,-1.46936 24.2658,-2.19695 70.7785,-10.54636 73.4098,-13.17766 0.91508,-0.91508 0.85469,-1.35298 -0.1866,-1.35298 -1.96183,0 -3.55083,-8.26558 -2.43992,-12.69181 2.15855,-8.60035 20.10572,-20.60259 30.84617,-20.62849 2.97,-0.007 5.97123,-0.58426 6.66941,-1.28244 5.62661,-5.62661 69.93833,-37.56062 84.68047,-42.04812 3.02258,-0.92007 2.94619,-0.68694 -1.09117,3.33009 -9.66895,9.62023 -21.81169,30.49498 -27.0669,46.53101 l -3.75441,11.45643 5.39516,4.56618 c 10.79153,9.13339 13.80077,25.01269 7.34665,38.76715 -3.89428,8.29916 -13.39539,20.34044 -19.09695,24.20261 -3.46952,2.35021 -16.91079,9.03357 -21.8156,10.84729 -4.46495,1.65108 1.78334,0.86236 7.74947,-0.9782 z"
         transform="translate(-75.575961,-49.602431)"
         id="path36" />
      <path
         style="fill:#008080"
         d="m 202.33333,191.15961 c 2.89311,-0.77532 4.25276,-3.15962 1.80177,-3.15962 -0.65902,0 -8.60902,-4.35954 -17.66666,-9.68787 -28.32739,-16.66411 -37.95886,-20.55039 -61.58171,-24.84807 -8.79054,-1.59925 -11.94055,-0.55471 -20.20207,6.699 -5.134256,4.50794 -6.857786,11.69953 -2.35133,9.81116 5.60848,-2.35016 16.41491,-3.5438 25.66667,-2.83504 14.95512,1.14569 29.4443,6.69839 52.66666,20.18348 7.95219,4.61779 14.45554,5.76947 21.66667,3.83696 z"
         transform="translate(-75.575961,-49.602431)"
         id="path44" />
      <path
         style="fill:#008080"
         d="m 264.55761,195.19068 c 1.68229,-0.64556 2.1123,-3.00625 2.12511,-11.66667 0.0134,-9.03571 0.55966,-11.8081 3.25602,-16.52402 2.92337,-5.11292 3.00775,-5.66666 0.86357,-5.66666 -1.30701,0 -5.92223,1.78473 -10.25602,3.96607 -8.70079,4.37938 -13.53628,10.21831 -14.77286,17.83843 -0.68099,4.19646 -0.23196,5.32004 3.53085,8.83503 4.258,3.97757 10.07535,5.20479 15.25333,3.21782 z"
         transform="translate(-75.575961,-49.602431)"
         id="path40" />
    </g>
    <g
       id="layer1"
       inkscape:label="02"
       style="display:inline;fill:#008000">
      <path
         style="fill:#008000"
         d="m 301.76315,77.213674 c 1.96359,-2.999145 3.57017,-5.999145 3.57017,-6.666667 0,-0.667522 0.45,-1.217469 1,-1.222106 1.29859,-0.01095 5.66667,-7.686145 5.66667,-9.956971 0,-2.012389 -2.89663,-3.367932 -7.19686,-3.367932 -2.12219,0 -3.88318,1.629516 -6.12389,5.666667 -1.72982,3.116666 -5.1403,8.658657 -7.57885,12.315535 -2.43855,3.656878 -4.43373,7.106877 -4.43373,7.666666 0,0.559789 2.59342,1.017798 5.76315,1.017798 5.2739,0 6.06625,-0.462926 9.33334,-5.45299 z"
         transform="translate(-75.575961,-49.602431)"
         id="path72" />
      <path
         style="fill:#008000"
         d="m 284.84633,80.849236 c 0.86004,-0.873913 13.82033,-24.280607 13.82033,-24.959952 0,-0.489107 -1.875,-1.264286 -4.16667,-1.722619 -9.05843,-1.811685 -9.68486,-1.436113 -15.84558,9.5 -3.20163,5.683333 -6.91288,11.931917 -8.24722,13.885743 -3.03697,4.446934 -1.5677,5.265839 7.5928,4.231877 3.66667,-0.413863 6.74752,-0.834635 6.84634,-0.935049 z"
         transform="translate(-75.575961,-49.602431)"
         id="path71" />
      <path
         style="fill:#008000"
         d="m 319.60711,74.242421 c 9.62247,-13.467785 9.64638,-13.598821 2.79949,-15.343307 -3.15697,-0.804348 -5.90041,-1.035701 -6.09653,-0.514117 -0.51491,1.369369 -5.6265,9.540925 -10.6405,17.010237 -4.74227,7.064512 -4.21705,8.565034 2.99708,8.562554 3.44274,-0.0012 4.96692,-1.354688 10.94046,-9.715367 z"
         transform="translate(-75.575961,-49.602431)"
         id="path70" />
      <path
         style="fill:#008000"
         d="m 263.83365,81.420188 c 2.1124,-1.132637 18.03468,-26.662964 17.16872,-27.528922 -1.60862,-1.608621 -11.30147,-1.841436 -13.23067,-0.31779 -2.52494,1.994147 -17.10504,26.928164 -17.10504,29.252022 0,1.659071 9.30378,0.666081 13.16699,-1.40531 z"
         transform="translate(-75.575961,-49.602431)"
         id="path69" />
      <path
         style="fill:#008000"
         d="m 334.03087,75.34482 c 4.27343,-6.227014 7.43904,-11.652672 7.0347,-12.057018 -0.40435,-0.404346 -2.75961,-1.063695 -5.23392,-1.46522 -4.33556,-0.703564 -4.71602,-0.399217 -10.48866,8.390352 -3.29445,5.016218 -7.06473,10.305399 -8.3784,11.753736 -2.29056,2.525391 -2.29097,2.671857 -0.01,3.572953 6.97057,2.753569 9.03646,1.520191 17.07615,-10.194803 z"
         transform="translate(-75.575961,-49.602431)"
         id="path68" />
      <path
         style="fill:#008000"
         d="m 240.31416,84.449066 c 6.27429,-0.810818 6.35339,-0.884271 12.52709,-11.632519 10.48762,-18.258649 11.28795,-19.798452 10.63162,-20.454782 -0.34952,-0.349515 -3.65967,-0.21955 -7.3559,0.288811 l -6.72042,0.924294 -8.86612,14.212564 c -4.87637,7.81691 -9.8406,15.356758 -11.03162,16.755219 -2.05862,2.417176 -2.00099,2.497741 1.16785,1.63252 1.83333,-0.500575 6.17471,-1.277323 9.6475,-1.726107 z"
         transform="translate(-75.575961,-49.602431)"
         id="path67" />
      <path
         style="fill:#008000"
         d="m 347.33964,79.03217 7.52285,-10.30116 -3.98215,-1.885915 c -4.99568,-2.365914 -7.29198,-1.495296 -11.15307,4.228562 -1.68334,2.495464 -4.82102,7.071117 -6.97263,10.168117 -4.3122,6.206927 -3.52408,8.031099 3.48708,8.071139 2.92965,0.01673 4.93319,-1.839284 11.09792,-10.280743 z"
         transform="translate(-75.575961,-49.602431)"
         id="path66" />
      <path
         style="fill:#008000"
         d="m 220.26525,88.897528 c 4.11727,-1.305826 6.22496,-3.546338 12.76004,-13.564197 4.30546,-6.6 8.22762,-12.9 8.7159,-14 0.48828,-1.1 1.86945,-3.35 3.06926,-4.999999 2.14545,-2.950467 2.10723,-2.9993 -2.3145,-2.957596 -2.47278,0.02332 -5.39596,0.773323 -6.49596,1.666667 -3.53808,2.873386 -18.66667,24.170046 -18.66667,26.277253 0,0.740855 -0.45,1.350802 -1,1.355438 -0.55,0.0046 -2.02209,1.804637 -3.27131,4 -2.13954,3.759978 -2.13954,3.985624 0,3.889101 1.24922,-0.05636 4.49068,-0.806358 7.20324,-1.666667 z"
         transform="translate(-75.575961,-49.602431)"
         id="path65" />
      <path
         style="fill:#008000"
         d="m 356.76816,89.926477 c 2.14417,-2.607103 5.54849,-6.615168 7.56516,-8.906811 2.01667,-2.291643 3.66667,-4.548075 3.66667,-5.014292 0,-0.466217 -2.32705,-2.155542 -5.17123,-3.754056 l -5.17122,-2.90639 -8.30699,10.738208 c -4.56885,5.906014 -8.0918,10.885498 -7.82878,11.065519 1.81769,1.244102 7.50659,3.35306 9.24639,3.427768 1.15584,0.04963 3.85584,-2.042843 6,-4.649946 z"
         transform="translate(-75.575961,-49.602431)"
         id="path64" />
      <path
         style="fill:#008000"
         d="m 373.12857,92.125429 8.1835,-9.207901 -4.98938,-2.946057 -4.98937,-2.946057 -8.32168,9.153958 c -4.57692,5.034677 -8.32692,9.495102 -8.33333,9.912056 -0.0112,0.72659 7.7928,4.980122 9.46089,5.156632 0.44323,0.0469 4.48845,-4.058285 8.98937,-9.122631 z"
         transform="translate(-75.575961,-49.602431)"
         id="path63" />
      <path
         style="fill:#008000"
         d="m 377.85356,105 c 1.55432,-1.65 5.72816,-5.45826 9.27522,-8.462797 l 6.44918,-5.462793 -4.8652,-2.87054 c -2.67586,-1.578797 -5.22214,-2.870539 -5.65839,-2.870539 -0.97327,0 -10.44474,10.215108 -13.28713,14.330351 -1.93105,2.795788 -1.85844,3.173298 1.08135,5.622308 3.93926,3.28163 3.63244,3.29415 7.00497,-0.28599 z"
         transform="translate(-75.575961,-49.602431)"
         id="path62" />
      <path
         style="fill:#008000"
         d="m 394.73884,107.83371 8.21062,-6.83295 -4.03222,-4.032228 -4.03223,-4.032225 -5.10918,4.065823 c -2.81005,2.236203 -6.56377,5.62553 -8.3416,7.53185 L 378.20181,108 l 3.13151,3.33333 c 1.72233,1.83333 3.59576,3.33333 4.1632,3.33333 0.56743,0 4.72647,-3.07483 9.24232,-6.83295 z"
         transform="translate(-75.575961,-49.602431)"
         id="path61" />
      <path
         style="fill:#008000"
         d="m 404.10168,117.09836 7.43504,-5.96984 -3.45435,-4.13776 -3.45435,-4.13775 -7.31402,6.02784 c -4.02271,3.31531 -7.84334,6.53271 -8.49029,7.14977 -1.55415,1.48234 4.76999,9.25348 6.50961,7.99905 0.73333,-0.52881 4.6791,-3.6479 8.76836,-6.93131 z"
         transform="translate(-75.575961,-49.602431)"
         id="path60" />
      <path
         style="fill:#008000"
         d="m 409.59522,129.80028 c 4.62262,-2.67651 8.59901,-5.02075 8.83641,-5.20942 0.69859,-0.55519 -3.61756,-8.34238 -5.14819,-9.28836 -1.10422,-0.68244 -7.50605,3.37276 -17.08003,10.81924 -0.44419,0.34548 4.04591,8.54492 4.67928,8.54492 0.16927,0 4.0899,-2.18987 8.71253,-4.86638 z"
         transform="translate(-75.575961,-49.602431)"
         id="path59" />
      <path
         style="fill:#008000"
         d="m 415.19642,141.10151 c 4.47529,-1.59416 8.26741,-2.97468 8.42692,-3.0678 C 424.83555,137.32601 420.46741,128 418.92374,128 c -1.07919,0 -4.88753,1.8 -8.46299,4 -3.57545,2.2 -7.09181,4 -7.81413,4 -1.67387,0 -1.65004,0.4688 0.23405,4.60392 1.87692,4.11938 2.12067,4.12923 12.31575,0.49759 z"
         transform="translate(-75.575961,-49.602431)"
         id="path58" />
      <path
         style="fill:#008000"
         d="m 418.42465,153.94834 c 6.12962,-1.8203 6.90636,-2.4593 6.88825,-5.66667 -0.0398,-7.04013 -1.42775,-7.57125 -11.24694,-4.30363 -6.64549,2.21148 -8.71937,3.46671 -8.15548,4.93617 0.41589,1.0838 0.75617,3.12148 0.75617,4.52817 0,3.1362 2.53386,3.24524 11.758,0.50596 z"
         transform="translate(-75.575961,-49.602431)"
         id="path55" />
      <path
         style="fill:#008000"
         d="m 324.9261,146.50238 18.92611,-6.74161 7.39222,-9.21372 c 4.06573,-5.06755 7.20245,-9.21372 6.97049,-9.21372 -3.45653,0 -56.21641,26.26711 -68.34967,34.02865 -3.9877,2.55091 -7.76526,4.63801 -8.39456,4.63801 -0.6293,0 -1.8261,0.82167 -2.65956,1.82592 -0.83345,1.00425 4.94308,-0.51585 12.83674,-3.378 7.89367,-2.86216 22.86887,-8.23765 33.27823,-11.94553 z"
         transform="translate(-75.575961,-49.602431)"
         id="path54" />
      <path
         style="fill:#008000"
         d="m 421.55885,167.18029 c 2.0021,-0.56216 4.94055,-10.45865 3.52552,-11.87369 -0.28253,-0.28253 -4.2421,0.48528 -8.79904,1.70625 l -8.28535,2.21995 v 5.16746 5.16746 l 5.66667,-0.88126 c 3.11667,-0.4847 6.66816,-1.16247 7.8922,-1.50617 z"
         transform="translate(-75.575961,-49.602431)"
         id="path53" />
      <path
         style="fill:#008000"
         d="m 321.99999,157.28549 c 5.86666,-1.59563 11.87577,-3.18063 13.35356,-3.52223 1.47779,-0.3416 4.01435,-3.04455 5.6368,-6.00654 2.58326,-4.7161 2.6636,-5.30048 0.64643,-4.70177 -3.80664,1.12984 -38.95391,13.82442 -48.97012,17.68716 -5.13334,1.97967 -11.13334,3.89793 -13.33334,4.26282 -4.0642,0.67407 -7.33333,2.56799 -7.33333,4.24845 0,0.85068 23.92456,-4.87586 50,-11.96789 z"
         transform="translate(-75.575961,-49.602431)"
         id="path52" />
      <path
         style="fill:#008000"
         d="m 302.54437,171.38289 c 14.96608,-1.86059 27.87081,-3.3829 28.67718,-3.3829 0.80637,0 2.44387,-2.719 3.63889,-6.04222 2.01299,-5.59789 2.01178,-5.99113 -0.0165,-5.34737 -6.98738,2.21771 -55.54173,14.05626 -57.65,14.05626 -1.38999,0 -2.52726,0.6 -2.52726,1.33333 0,0.73334 -0.9,1.33334 -2,1.33334 -1.1,0 -2,0.64043 -2,1.42318 0,0.78275 1.05,1.10506 2.33333,0.71623 1.28333,-0.38882 14.57831,-2.22926 29.54438,-4.08985 z"
         transform="translate(-75.575961,-49.602431)"
         id="path51" />
      <path
         style="fill:#008000"
         d="m 420.43973,175.66666 c 2.46952,-5.08096 1.66993,-5.61915 -6.52309,-4.39053 -5.45648,0.81825 -5.91666,1.19201 -5.91666,4.80556 0,3.66142 0.33874,3.9183 5.1668,3.9183 4.50829,0 5.43523,-0.55228 7.27295,-4.33333 z"
         transform="translate(-75.575961,-49.602431)"
         id="path47" />
      <path
         style="fill:#008000"
         d="m 315.21802,181.33333 h 13.46602 l 1.71583,-5.4977 c 0.9437,-3.02374 1.53979,-5.63497 1.32464,-5.80275 -0.21516,-0.16777 -10.29119,1.07491 -22.39119,2.7615 -12.1,1.68659 -26.05,3.48399 -31,3.99421 -7.81847,0.80588 -9,1.27951 -9,3.60777 0,2.58541 0.57274,2.64931 16.20934,1.80854 8.91513,-0.47937 22.26904,-0.87157 29.67536,-0.87157 z"
         transform="translate(-75.575961,-49.602431)"
         id="path46" />
      <path
         style="fill:#008000"
         d="m 415.78596,185.93726 c 2.11532,-4.64263 2.14154,-4.60393 -3.11931,-4.60393 -4.2963,0 -4.66667,0.31746 -4.66667,4 0,3.30459 0.5423,4 3.11932,4 2.04874,0 3.65037,-1.16556 4.66666,-3.39607 z"
         transform="translate(-75.575961,-49.602431)"
         id="path45" />
      <path
         style="fill:#008000"
         d="m 327.99999,188.66666 v -4.66667 h -29.33333 c -24.23908,0 -29.33334,0.32384 -29.33334,1.86468 0,1.33525 2.74464,2.14455 9.66667,2.85038 24.66463,2.51503 43.2608,4.31874 46,4.4617 2.5695,0.13411 3,-0.51308 3,-4.51009 z"
         transform="translate(-75.575961,-49.602431)"
         id="path43" />
      <path
         style="fill:#008000"
         d="m 411.99998,191.92564 c 0,-0.69244 -1.2,-1.25898 -2.66666,-1.25898 -1.73988,0 -2.66667,0.88889 -2.66667,2.55762 0,1.40669 -0.35273,3.65669 -0.78384,5 -0.54235,1.68989 0.27924,1.28979 2.66666,-1.29864 1.89778,-2.05756 3.45051,-4.30756 3.45051,-5 z"
         transform="translate(-75.575961,-49.602431)"
         id="path38" />
      <path
         style="fill:#008000"
         d="m 326.66665,200.74836 c 0,-4.38446 -0.24781,-4.61863 -5.66666,-5.35463 -6.67835,-0.90707 -45.88807,-4.72707 -48.52013,-4.72707 -3.67233,0 -1.67435,2.56805 2.52013,3.23919 2.38333,0.38135 10.28367,1.65348 17.55631,2.82696 7.27263,1.17347 17.47263,3.52949 22.66666,5.23559 5.19403,1.7061 9.89369,3.16116 10.44369,3.23346 0.55,0.0723 1,-1.93177 1,-4.4535 z"
         transform="translate(-75.575961,-49.602431)"
         id="path37" />
      <path
         style="fill:#008000"
         d="m 116.9754,353.33332 c 9.37949,-22.05404 17.35594,-32.26447 33.99526,-43.51639 23.35719,-15.79471 50.89755,-23.993 124.83237,-37.16043 41.25225,-7.34682 75.28265,-15.13533 84.86362,-19.42266 2.93334,-1.31262 9.4206,-4.21313 14.41614,-6.44558 13.52834,-6.04565 24.29914,-16.99407 31.96012,-32.48719 3.34542,-6.76559 6.46696,-13.80108 6.93674,-15.63441 l 0.85415,-3.33333 -2.83764,3.33333 c -1.5607,1.83333 -5.44923,6.78267 -8.64118,10.99852 -22.30955,29.46601 -53.24617,43.03451 -119.35499,52.34795 -8.43333,1.18809 -20.43333,3.28717 -26.66667,4.66462 -14.46164,3.19575 -27.87594,5.97134 -44.66666,9.24211 -20.94138,4.07929 -38.88679,10.64416 -61.33333,22.4372 -6.74446,3.54343 -18.6734,13.18377 -24.94484,20.15913 -9.03577,10.04995 -20.21678,33.4838 -15.97616,33.4838 0.70999,0 1.73454,2.25 2.27678,5 0.54223,2.75 1.28191,4.1 1.64373,3 0.36181,-1.1 1.55097,-4.1 2.64256,-6.66667 z"
         transform="translate(-75.575961,-49.602431)"
         id="path35" />
      <path
         style="fill:#008000"
         d="m 110.04391,358.45599 c -2.00965,-4.33899 -2.0468,-4.15839 -1.41453,6.87733 0.93622,16.34089 2.60719,20.55152 3.09116,7.78934 0.26955,-7.10795 -0.23993,-11.56472 -1.67663,-14.66667 z"
         transform="translate(-75.575961,-49.602431)"
         id="path34" />
      <path
         style="fill:#008000"
         d="m 117.76669,386.39738 c -0.479,-6.7481 -1.66876,-13.7981 -2.64392,-15.66666 -1.6063,-3.07795 -1.77378,-2.35908 -1.78123,7.64543 -0.007,9.84566 2.34818,20.2905 4.57588,20.2905 0.39609,0 0.32826,-5.52117 -0.15073,-12.26927 z"
         transform="translate(-75.575961,-49.602431)"
         id="path33" />
      <path
         style="fill:#008000"
         d="m 122.88686,394.343 c -0.52023,-7.11445 -1.64925,-13.63873 -2.50893,-14.49841 -1.19518,-1.19518 -1.38109,1.38496 -0.78989,10.96284 0.6792,11.00346 2.32295,18.39267 3.76968,16.94594 0.26126,-0.26125 0.0494,-6.29592 -0.47086,-13.41037 z"
         transform="translate(-75.575961,-49.602431)"
         id="path31" />
      <path
         style="fill:#008000"
         d="m 129.55612,408.91936 c -0.76258,-3.07232 -1.80369,-9.34947 -2.31358,-13.94921 -0.50989,-4.59974 -1.4887,-8.71027 -2.17513,-9.13451 -2.11869,-1.30942 0.40179,25.09509 2.73767,28.67975 2.70773,4.15531 3.52396,1.54679 1.75104,-5.59603 z"
         transform="translate(-75.575961,-49.602431)"
         id="path30" />
      <path
         style="fill:#008000"
         d="m 139.47062,411.76828 c -2.55526,-13.94257 -3.255,-15.88156 -6.71295,-18.60158 l -3.86034,-3.03655 0.88422,5.93492 c 3.18489,21.37704 4.17706,24.78953 8.21844,28.2666 2.2,1.8928 4.07273,3.3425 4.16162,3.22155 0.0889,-0.12094 -1.12205,-7.22417 -2.69099,-15.78494 z"
         transform="translate(-75.575961,-49.602431)"
         id="path29" />
      <path
         style="fill:#008000"
         d="m 155.32416,433.66665 c -1.20473,-2.9247 -5.72749,-19.29059 -7.23004,-26.16234 -1.12592,-5.14931 -3.1421,-7.44524 -6.572,-7.48391 -1.20569,-0.0136 -1.5703,0.98254 -1.09061,2.97959 0.39633,1.65 1.41628,7.85342 2.26655,13.78539 1.73607,12.11178 1.77401,12.19605 7.30193,16.21907 4.87186,3.54556 6.60043,3.76056 5.32417,0.6622 z"
         transform="translate(-75.575961,-49.602431)"
         id="path28" />
      <path
         style="fill:#008000"
         d="m 278.33332,435.07024 c 1.65,-0.39295 3,-1.14907 3,-1.68026 0,-0.53119 -5.55,-6.80204 -12.33333,-13.93522 l -12.33333,-12.96942 -4.8897,1.75732 -4.8897,1.75733 7.99419,9.33333 c 4.39681,5.13333 9.59717,11.29027 11.55637,13.68208 2.5988,3.17266 4.28335,4.13518 6.22884,3.55903 1.46666,-0.43436 4.01666,-1.11124 5.66666,-1.50419 z"
         transform="translate(-75.575961,-49.602431)"
         id="path27" />
      <path
         style="fill:#008000"
         d="m 261.72646,438.92315 5.0598,-0.92316 -7.72647,-9.92309 c -13.21257,-16.96888 -15.10465,-18.65039 -20.0598,-17.82735 -4.89591,0.81321 -5.18345,1.46112 -2.28373,5.14592 1.12728,1.43248 5.08,7.55452 8.78383,13.60452 7.01666,11.46132 7.19568,11.5708 16.22637,9.92316 z"
         transform="translate(-75.575961,-49.602431)"
         id="path26" />
      <path
         style="fill:#008000"
         d="m 167.58015,433.00421 c -1.20405,-3.85232 -3.43079,-10.9933 -4.94832,-15.86883 -2.30184,-7.3954 -3.41863,-9.13777 -6.73824,-10.5128 -2.18851,-0.90651 -4.33146,-1.29584 -4.76211,-0.86519 -0.9562,0.9562 3.00592,17.50271 6.21613,25.95969 1.86228,4.906 3.25631,6.48033 6.82948,7.71279 2.46926,0.85171 4.73767,1.33031 5.0409,1.06356 0.30323,-0.26675 -0.4338,-3.6369 -1.63784,-7.48922 z"
         transform="translate(-75.575961,-49.602431)"
         id="path25" />
      <path
         style="fill:#008000"
         d="m 249.16471,440.57184 c 0.74825,-0.68634 -0.43275,-2.7998 -8.88783,-15.90519 -7.55499,-11.71026 -7.87715,-12.0099 -13.34274,-12.40999 -3.08045,-0.2255 -5.60082,-0.0622 -5.60082,0.36293 0,1.64361 11.17148,22.90251 13.84581,26.34806 2.48412,3.20049 3.45752,3.54042 8.15419,2.84768 2.93334,-0.43266 5.55746,-0.99223 5.83139,-1.24349 z"
         transform="translate(-75.575961,-49.602431)"
         id="path24" />
      <path
         style="fill:#008000"
         d="m 233.06929,443.14148 c 3.05736,-0.81889 3.05914,-0.83309 0.45729,-3.64846 -1.43661,-1.5545 -5.4835,-8.42823 -8.99308,-15.27494 -6.18703,-12.07004 -6.49995,-12.4248 -10.29062,-11.66667 -2.15026,0.43005 -4.6598,0.78191 -5.57676,0.78191 -1.03725,0 0.89726,5.7937 5.1198,15.33333 l 6.787,15.33334 4.71353,-0.0182 c 2.59245,-0.01 6.09473,-0.38815 7.78284,-0.8403 z"
         transform="translate(-75.575961,-49.602431)"
         id="path23" />
      <path
         style="fill:#008000"
         d="m 216.53419,440.33332 c -1.19255,-2.75 -3.63593,-8.52504 -5.42975,-12.83342 -5.34262,-12.83184 -6.58356,-14.16658 -13.17104,-14.16658 h -5.75989 l 4.62077,10.33333 c 9.56296,21.3854 9.7732,21.66667 16.19576,21.66667 h 5.7124 z"
         transform="translate(-75.575961,-49.602431)"
         id="path22" />
      <path
         style="fill:#008000"
         d="m 202.89077,442.99999 c -2.08473,-4.04337 -5.22618,-11.44824 -7.49492,-17.66667 -3.14767,-8.62749 -6.00773,-11.68608 -11.93353,-12.76192 -4.70713,-0.85459 -5.12502,-0.7041 -4.37415,1.5752 0.4566,1.38603 2.98945,8.97005 5.62855,16.85339 l 4.79836,14.33333 h 7.28937 c 6.51167,0 7.16101,-0.24894 6.08632,-2.33333 z"
         transform="translate(-75.575961,-49.602431)"
         id="path21" />
      <path
         style="fill:#008000"
         d="m 186.66666,444.63456 c 0,-2.22251 -9.99791,-30.88882 -11.20914,-32.13921 -1.41881,-1.46467 -12.79086,-3.51157 -12.79086,-2.30227 0,0.3333 0.81431,2.2262 1.80958,4.20645 0.99526,1.98025 2.2012,5.65513 2.67985,8.1664 0.47865,2.51127 2.12854,8.01685 3.66642,12.23462 2.50015,6.8569 3.31032,7.80568 7.65348,8.96292 5.84453,1.55728 8.19067,1.8068 8.19067,0.87109 z"
         transform="translate(-75.575961,-49.602431)"
         id="path20" />
      <path
         style="fill:#008000"
         d="m 259.32932,503.99351 c -1.90662,-3.08498 -17.87027,-12.67562 -36.76739,-22.08912 -17.54112,-8.73801 -32.00322,-15.23774 -33.90445,-15.23774 -0.31742,0 0.9048,2.18373 2.71603,4.85273 1.81123,2.669 3.29315,5.31301 3.29315,5.87558 0,0.56256 4.35,2.85467 9.66667,5.09357 5.31666,2.2389 15.96666,6.85317 23.66666,10.25394 15.20394,6.71494 29.36457,12.42211 31.07869,12.52568 0.59328,0.0358 0.70607,-0.53775 0.25064,-1.27464 z"
         transform="translate(-75.575961,-49.602431)"
         id="path11" />
      <path
         style="fill:#008000"
         d="m 266.05137,513.41646 c -1.63087,-2.63882 -65.83471,-31.20879 -67.26001,-29.92994 -1.21786,1.09272 4.47476,11.26622 7.36296,13.15864 1.71002,1.12045 6.27485,2.91822 10.14406,3.99504 3.86922,1.07683 16.33494,4.63486 27.70161,7.90673 22.87518,6.58459 23.14867,6.64498 22.05138,4.86953 z"
         transform="translate(-75.575961,-49.602431)"
         id="path9" />
      <path
         style="fill:#008000"
         d="m 269.04345,519.79702 c -0.28166,-0.84496 -3.18166,-2.27986 -6.44445,-3.18866 -12.00349,-3.3434 -34.23887,-9.771 -45.089,-13.03392 l -11.15666,-3.35509 0.77492,4.77524 c 0.4262,2.62638 1.2467,5.2249 1.82332,5.77449 1.021,0.97311 51.28847,10.06348 57.49285,10.397 1.81037,0.0973 2.89701,-0.47508 2.59902,-1.36906 z"
         transform="translate(-75.575961,-49.602431)"
         id="path8" />
      <path
         style="fill:#008000"
         d="m 269.00666,525.66665 c 0.35216,-1.06932 -0.80509,-1.66933 -3.22889,-1.6741 -2.07778,-0.004 -5.87778,-0.53414 -8.44445,-1.17789 -4.36592,-1.09502 -10.85281,-2.19405 -32.99427,-5.59 -4.95315,-0.75969 -10.29068,-1.64113 -11.86119,-1.95876 -2.70711,-0.5475 -2.78528,-0.30097 -1.50448,4.74496 l 1.35098,5.32246 8.17115,0.152 c 4.49413,0.0836 15.97115,0.59209 25.50448,1.12997 21.14528,1.19304 22.31727,1.14471 23.00667,-0.94864 z"
         transform="translate(-75.575961,-49.602431)"
         id="path6" />
      <path
         style="fill:#008000"
         d="m 230.03497,537.44176 c 5.84743,-0.67368 17.38169,-1.95379 25.63169,-2.84467 8.25,-0.89088 15,-2.08582 15,-2.65542 0,-1.11391 -11.60742,-2.07376 -39.66667,-3.28013 l -17.66666,-0.75956 v 4.49345 c 0,7.02686 -0.13494,6.98609 16.70164,5.04633 z"
         transform="translate(-75.575961,-49.602431)"
         id="path4" />
      <path
         style="fill:#008000"
         d="m 220.57157,548.15383 c 0.40093,-0.64871 3.58634,-1.60188 7.07869,-2.11815 3.49235,-0.51627 11.14973,-2.03426 17.0164,-3.37332 5.86666,-1.33906 14.11666,-2.82907 18.33333,-3.31113 4.21667,-0.48205 7.66667,-1.51686 7.66667,-2.29958 0,-0.93825 -2.38493,-1.12698 -7,-0.55394 -3.85,0.47805 -16.3,1.81259 -27.66667,2.96565 -11.36667,1.15306 -20.73226,2.19551 -20.81243,2.31655 -0.0802,0.12104 -0.5416,1.87007 -1.0254,3.88674 -0.77841,3.24472 -0.50218,3.66667 2.40041,3.66667 1.80402,0 3.60808,-0.53077 4.009,-1.17949 z"
         transform="translate(-75.575961,-49.602431)"
         id="path2" />
    </g>
    <g
       inkscape:groupmode="layer"
       id="layer6"
       inkscape:label="03"
       style="display:inline;fill:#ffcc00">
      <path
         style="fill:#ffcc00"
         d="m 119.16168,169.05823 c -0.31923,-0.51798 -1.4612,-0.60378 -2.53772,-0.19069 -2.04034,0.78296 -2.68875,5.95655 -0.96285,7.68246 1.10386,1.10386 4.42179,-5.99703 3.50057,-7.49177 z"
         transform="translate(-75.575961,-49.602431)"
         id="path50" />
      <path
         style="fill:#ffcc00"
         d="m 149.31291,174.48884 c 0.0112,-0.46447 -1.17958,-1.1583 -2.64625,-1.54184 -2.97953,-0.77917 -3.59793,1.5884 -1.0741,4.11223 1.23454,1.23454 1.82946,1.21955 2.64625,-0.0667 0.57953,-0.91258 1.06287,-2.03925 1.0741,-2.50372 z"
         transform="translate(-75.575961,-49.602431)"
         id="path49" />
      <path
         style="fill:#ffcc00"
         d="m 134.66666,171.18562 c 0,-1.10716 -1.39831,-1.85229 -3.47598,-1.85229 -2.62186,0 -3.27712,0.51824 -2.66667,2.10905 0.44513,1.15998 0.82928,3.40998 0.85368,5 0.0442,2.88156 0.0529,2.88073 2.66666,-0.25676 1.44227,-1.73125 2.62231,-3.98125 2.62231,-5 z"
         transform="translate(-75.575961,-49.602431)"
         id="path48" />
      <path
         style="fill:#ffcc00"
         d="m 154.66666,190.58797 c 0,-1.50994 -0.6,-2.37453 -1.33333,-1.92131 -0.73334,0.45323 -1.33334,1.68864 -1.33334,2.74536 0,1.05672 0.6,1.92131 1.33334,1.92131 0.73333,0 1.33333,-1.23541 1.33333,-2.74536 z"
         transform="translate(-75.575961,-49.602431)"
         id="path42" />
      <path
         style="fill:#ffcc00"
         d="m 139.06224,191.46578 c -2.07333,-2.77031 -2.51749,-2.90483 -3.30186,-1 -1.51466,3.67829 -1.22831,4.20088 2.30186,4.20088 3.36085,0 3.37108,-0.0327 1,-3.20088 z"
         transform="translate(-75.575961,-49.602431)"
         id="path41" />
      <path
         style="fill:#ffcc00"
         d="m 126.66666,194.9215 c 0,-0.59317 -0.75,-2.08997 -1.66666,-3.32622 -1.51727,-2.04624 -1.80483,-1.94956 -3.20789,1.07849 -1.41391,3.05146 -1.27623,3.32622 1.66667,3.32622 1.76433,0 3.20788,-0.48532 3.20788,-1.07849 z"
         transform="translate(-75.575961,-49.602431)"
         id="path39" />
      <path
         style="fill:#ffcc00"
         d="m 412.42641,451.89308 c -0.61346,-0.61346 -1.92365,-0.61585 -2.91154,-0.005 -1.46279,0.90405 -1.33699,1.81509 0.67781,4.90861 l 2.47397,3.79853 0.43757,-3.79323 c 0.24066,-2.08628 -0.0643,-4.29515 -0.67781,-4.90861 z"
         transform="translate(-75.575961,-49.602431)"
         id="path19" />
      <path
         style="fill:#ffcc00"
         d="m 399.76442,460.70176 c -0.28286,-1.28924 -1.05154,-1.57679 -2.23543,-0.83623 -1.4971,0.93648 -1.50704,1.66834 -0.0583,4.29822 1.48054,2.68766 1.82042,2.81481 2.23543,0.83624 0.26918,-1.28334 0.29543,-3.21754 0.0583,-4.29823 z"
         transform="translate(-75.575961,-49.602431)"
         id="path18" />
      <path
         style="fill:#ffcc00"
         d="m 390.66665,471.71427 c 0,-3.99735 -0.14929,-4.13642 -2.21879,-2.06692 -1.8329,1.8329 -1.92045,2.57829 -0.50341,4.28572 2.40649,2.89964 2.7222,2.64232 2.7222,-2.2188 z"
         transform="translate(-75.575961,-49.602431)"
         id="path17" />
      <path
         style="fill:#ffcc00"
         d="m 416.33384,475.9726 c -2.92231,-3.413 -3.00052,-3.3763 -3.00052,1.40763 0,3.61502 0.28069,3.89669 2.63017,2.63929 2.4867,-1.33084 2.5069,-1.5516 0.37035,-4.04692 z"
         transform="translate(-75.575961,-49.602431)"
         id="path14" />
      <path
         style="fill:#ffcc00"
         d="m 404.73229,484.10618 c -1.34144,-2.17048 -3.39897,-0.39993 -3.39897,2.92487 0,2.64778 0.16963,2.70406 2.15776,0.71593 1.18677,-1.18677 1.74532,-2.82513 1.24121,-3.6408 z"
         transform="translate(-75.575961,-49.602431)"
         id="path13" />
      <path
         style="fill:#ffcc00"
         d="m 390.66665,491.07955 c 0,-2.62451 -3.21617,-1.46267 -3.76353,1.35958 -0.3,1.54683 0.20442,1.97464 1.66667,1.41353 1.15327,-0.44256 2.09686,-1.69045 2.09686,-2.77311 z"
         transform="translate(-75.575961,-49.602431)"
         id="path12" />
    </g>
    <g
       id="layer7"
       inkscape:label="04">
      <path
         style="fill:#00ffff"
         d="m 188.30052,148.31485 c 8.68283,-8.68283 6.81161,-21.70933 -3.63386,-25.29721 -14.32762,-4.92134 -27.61182,7.71267 -21.52677,20.47315 4.8697,10.21186 17.37515,12.60954 25.16063,4.82406 z"
         transform="translate(-75.575961,-49.602431)"
         id="path56" />
      <path
         style="display:inline;fill:#00ffff"
         d="m 347.15228,474.16156 c 10.45443,-4.36814 13.67636,-16.87422 6.43519,-24.97851 -3.01042,-3.36923 -5.03921,-4.30962 -10.33334,-4.78967 -5.78284,-0.52437 -7.14151,-0.12749 -11.12327,3.24923 -3.94588,3.34631 -4.60148,4.79017 -5.04093,11.10197 -0.5783,8.30627 1.61226,11.95469 9.14106,15.22455 5.5558,2.41297 5.60472,2.41383 10.92129,0.19243 z"
         transform="translate(-75.575961,-49.602431)"
         id="path15" />
    </g>
    <g
       id="layer5"
       inkscape:label="05">
      <path
         style="display:inline;fill:#ff0000"
         d="m 336.84647,465.23654 c -1.93223,-1.51989 -3.51315,-3.83897 -3.51315,-5.15352 0,-3.78544 5.18261,-9.41637 8.66667,-9.41637 3.4195,0 8.66666,5.60745 8.66666,9.26173 0,3.05518 -4.89245,8.0716 -7.87213,8.0716 -1.3392,0 -4.01583,-1.24354 -5.94805,-2.76344 z"
         transform="translate(-75.575961,-49.602431)"
         id="path16" />
      <path
         style="fill:#ff0000"
         d="m 171.38195,141.38706 c -5.19868,-5.74447 1.99447,-14.28466 9.24793,-10.97976 1.8131,0.8261 3.68421,3.04659 4.15802,4.93441 1.80554,7.19383 -8.25918,11.73246 -13.40595,6.04535 z"
         transform="translate(-75.575961,-49.602431)"
         id="path57" />
    </g>
  </g>
</svg>
