<?xml version="1.0" encoding="UTF-8" standalone="no"?>
<svg xmlns:rdf="http://www.w3.org/1999/02/22-rdf-syntax-ns#" xmlns="http://www.w3.org/2000/svg" height="1327" viewBox="0 0 1229 1327" width="1229" version="1.1" xmlns:cc="http://creativecommons.org/ns#" xmlns:dc="http://purl.org/dc/elements/1.1/">
<path d="m622.5 1325.9c-3.3-0.477-12.975-1.1045-21.5-1.3944-8.525-0.2898-20.45-0.9846-26.5-1.5439-6.05-0.5594-17.3-1.4595-25-2.0004-8.4322-0.5923-19.17-2.1474-27-3.9101-7.15-1.6096-16.375-3.2146-20.5-3.5667-4.1585-0.3548-9.1825-1.486-11.276-2.5389-2.077-1.0445-9.006-3.0721-15.398-4.506-12.873-2.8878-17.802-4.4992-30.326-9.9146-4.675-2.0214-10.75-4.3654-13.5-5.2088-2.75-0.8433-7.5342-2.6013-10.631-3.9067-3.0973-1.3053-7.6525-2.6503-10.123-2.9888-2.6093-0.3577-8.6298-2.8656-14.369-5.9854-5.4326-2.9534-19.44-10.112-31.127-15.909-11.688-5.7967-21.25-11-21.25-11.563 0-0.5628-1.6875-1.725-3.75-2.5826-2.0625-0.8577-6.8247-3.4222-10.583-5.699-3.758-2.2768-8.7548-5.2646-11.104-6.6396-11.053-6.4692-23.606-15.37-31.027-22-2.7701-2.475-5.7362-4.95-6.5913-5.5-0.85506-0.55-5.76-3.7-10.9-7-5.1399-3.3-12.849-9.2625-17.132-13.25-4.2827-3.9875-8.3408-7.25-9.0181-7.25-0.67729 0-5.8329-4.6125-11.457-10.25s-12.958-12.5-16.299-15.25c-3.3402-2.75-6.3788-5.8992-6.7525-6.9982-0.81676-2.402-5.3216-7.9479-15.387-18.943-14.22-15.533-23.922-27.079-28.62-34.059-2.5917-3.85-8.3498-11.63-12.796-17.288-8.0407-10.233-16.203-21.934-24.354-34.913-2.3487-3.7398-7.4433-11.75-11.321-17.8-3.878-6.05-9.1239-15.275-11.658-20.5-2.5336-5.225-6.0115-11.75-7.7285-14.5s-4.7476-8.15-6.7347-12c-1.98-3.89-6.422-12.22-9.865-18.54-9.841-18.08-12.727-24.02-15.053-31-1.192-3.58-3.71-9.88-5.597-14-1.886-4.12-4.256-9.98-5.267-13-1.01-3.02-5.065-14.72-9.011-26-13.734-39.25-30.244-96.23-32.45-112-0.346-2.48-1.056-6.52-1.578-9-0.521-2.48-1.591-9.9-2.3773-16.5s-2.1389-17.4-3.006-24c-6.4456-49.07-6.4664-49.39-5.5577-87 0.5556-22.99 1.3775-38.26 2.3959-44.5 0.8526-5.22 1.5634-12.42 1.5796-16 0.0602-13.32 4.8763-59.15 6.4715-61.59 0.844-1.29 1.535-3.11 1.535-4.06 0-1.6 1.133-7.12 7.671-37.35 3.559-16.45 7.374-29.48 13.327-45.5 6.683-17.98 10.002-28.09 10.002-30.46 0-1.83 4.372-13.45 7.352-19.54 3.7892-7.7438 11.867-26.038 14.003-31.713 2.9127-7.7385 7.4245-16.759 12.663-25.317 2.1756-3.5546 5.7254-9.9827 7.8885-14.285 2.163-4.302 5.5222-9.9042 7.4649-12.449 1.9427-2.5451 4.5085-6.5411 5.7018-8.8801 3.2306-6.3324 8.5085-14.197 16.91-25.197 4.134-5.4127 9.0914-12.216 11.016-15.118 1.925-2.9025 5.1875-7.1377 7.25-9.4116s3.75-4.7346 3.75-5.4681c0-1.8416 40.821-49.148 44.606-51.693 1.2533-0.84263 9.4483-8.5391 18.211-17.103 8.7628-8.5642 17.616-16.855 19.673-18.425 2.0575-1.5693 6.4896-5.7158 9.8492-9.2145 3.3596-3.4986 8.8202-8.0943 12.135-10.213 6.7994-4.3454 13.245-9.301 21.152-16.263 2.9673-2.6125 5.7495-4.75 6.1827-4.75 0.94105 0 19.902-12.477 22.527-14.824 1.997-1.7852 7.5902-4.9574 14.664-8.317 2.475-1.1754 6.7076-3.8835 9.4058-6.0181s6.0732-4.1281 7.5-4.4302c1.4268-0.30203 3.6278-0.96801 4.8912-1.4799 1.27-0.521 3.11-0.94 4.1-0.94 0.98887 0 2.6546-0.94664 3.7017-2.1036 2.7203-3.0059 9.3048-6.5678 13.493-7.2994 1.9734-0.34466 5.4543-2.2246 7.7371-4.1787 2.59-2.217 6.5039-4.2256 10.413-5.3438 3.4446-0.98542 9.1879-3.0165 12.763-4.5135 8.5315-3.5725 8.7904-3.6467 35.223-10.096 12.497-3.0493 24.197-6.1548 26-6.901 1.8025-0.74621 8.4524-2.3206 14.777-3.4987 6.325-1.1781 13.525-2.5901 16-3.1378 5.0017-1.1069 18.804-2.6301 35.5-3.9174 6.05-0.4665 15.555-1.3454 21.122-1.9531 6.6975-0.73111 10.991-0.77451 12.691-0.12828 1.9142 0.72778 4.4313 0.4527 9.878-1.0795 5.77-1.6217 9.1-1.9458 15.81-1.5372 4.675 0.28471 13.171 0.21514 18.88-0.1546 5.7092-0.36974 14.484-0.34884 19.5 0.046442 5.02 0.3954 17 0.9748 26.62 1.2876 9.625 0.31287 18.734 1.0589 20.243 1.6578 1.5087 0.5989 3.7402 0.82816 4.9589 0.50946 3.0055-0.78595 14.86 1.0187 22.798 3.4706 3.575 1.1043 7.2809 1.7066 8.2353 1.3385 1.6446-0.63427 14.992 2.135 24.765 5.1381 2.475 0.76055 6.9043 1.6207 9.8428 1.9114 2.9386 0.29072 6.636 1.1973 8.2165 2.0146 1.5805 0.81732 5.7013 2.1069 9.1572 2.8658 12.876 2.8273 24.503 6.4857 31.755 9.9916 4.1 1.987 8.39 3.612 9.53 3.612 1.1363 0 5.874 1.6167 10.528 3.5927 4.6542 1.976 9.8123 3.9401 11.462 4.3648 7.6762 1.9757 37.993 14.833 42.437 17.998 1.642 1.1692 5.4952 2.9893 8.5627 4.0447s6.7974 2.7732 8.2887 3.8174c2.4449 1.712 19.025 10.664 28.391 15.329 2.0238 1.008 6.2988 4.1316 9.5 6.9414s9.8704 7.8237 14.82 11.142c4.95 3.3182 10.915 7.5809 13.255 9.4726 5.4072 4.3713 14.195 10.298 15.269 10.298 0.45242 0 2.098 1.2754 3.6569 2.8343 1.5588 1.5589 4.7308 4.0315 7.0487 5.4948 2.3179 1.4632 7.9396 5.8345 12.493 9.7139 4.553 3.8794 12.083 10.294 16.733 14.255 17.765 15.132 34.545 30.27 42.347 38.202 23.156 23.544 42.925 46.282 46.961 54.014 0.8573 1.6426 3.0056 4.3365 4.7741 5.9865 1.7684 1.65 5.2492 6.15 7.7351 10s6.4281 9.25 8.7605 12 6.8161 9.275 9.9638 14.5 7.1787 11.3 8.9579 13.5c1.7791 2.2 4.5219 6.925 6.095 10.5 1.5732 3.575 5.9182 11.532 9.6556 17.683 3.7374 6.1505 6.7953 11.477 6.7953 11.837 0 0.35954 1.3398 2.5273 2.9772 4.8172 1.6375 2.2899 3.8558 6.7292 4.9295 9.8651 1.0738 3.1359 3.1535 7.7514 4.6217 10.257 1.4682 2.5053 3.7081 7.3646 4.9776 10.798 3.3839 9.1535 9.9448 24.75 12.547 29.825 2.0391 3.9776 3.7696 8.5465 12.279 32.418 3.4022 9.5448 11.087 33.35 13.721 42.5 1.187 4.125 3.188 9.975 4.4466 13 2.325 5.5882 3.8669 11.486 9.5427 36.5 1.7472 7.7 4.0505 16.99 5.1184 20.645 1.0679 3.6546 2.3331 10.405 2.8116 15 0.4785 4.5954 1.3084 9.4976 1.8442 10.894 0.5358 1.3962 1.2928 6.1212 1.6822 10.5 0.3893 4.3788 1.4061 9.0641 2.2594 10.412 1.0453 1.6509 1.8101 6.5449 2.3439 15 0.4358 6.9023 1.2321 14.8 1.7696 17.55s1.2835 9.5 1.6578 15c0.3742 5.5 1.0399 11.707 1.4793 13.793 0.5088 2.4158 0.2982 6.1858-0.5803 10.384-0.7586 3.6255-1.1664 6.9362-0.9063 7.3571 1.4346 2.3211 2.2556 20.829 1.4402 32.466-0.501 7.15-1.0947 17.5-1.3194 23-0.5923 14.502-2.5744 33.135-4.2173 39.644-0.7835 3.1044-1.4246 8.5876-1.4246 12.185 0 3.5973-0.4438 7.7078-0.9862 9.1345-1.8064 4.7511-4.2083 23.966-3.6296 29.036 0.3467 3.0378 0 7.1584-0.8949 10.5-0.8061 3.025-1.4689 7.525-1.473 10-0.01 4.3434-2.0541 11.921-8.1359 30.119-1.5842 4.7403-2.8804 9.7861-2.8804 11.213s-0.9 4.8776-2 7.6683-1.9935 5.8449-1.9855 6.787c0.021 2.4984-3.6374 14.053-8.6163 27.213-2.393 6.325-5.4843 14.835-6.8694 18.91-1.3852 4.0755-3.8708 9.8062-5.5237 12.735-1.6528 2.9286-3.0165 5.8941-3.0304 6.59-0.014 0.69583-1.8139 4.8602-4 9.2541s-3.9775 8.4439-3.9809 9c0 0.55607-0.724 2.361-1.6014 4.011-0.8775 1.65-2.2344 5.1114-3.0154 7.692-1.8966 6.2667-6.8272 14.829-13.749 23.875-5.7084 7.4605-8.9159 13.347-12.089 22.186-1.5314 4.2652-6.6991 12.509-24.918 39.748-8.7177 13.034-12.25 18.091-16.105 23.061-1.9463 2.5084-4.3344 6.1213-5.3068 8.0287-3.0685 6.0186-31.372 37.836-41.174 46.286-8.2982 7.1534-14.835 13.916-18.768 19.413-2.7121 3.7918-5.9926 7.0509-8.2626 8.209-2.0706 1.0563-7.0813 5.1458-11.135 9.0877-4.0699 3.9578-9.3844 8.0378-11.868 9.1118-2.4741 1.0697-7.6491 4.5486-11.5 7.731-3.8509 3.1823-9.7016 7.4971-13.002 9.5883-3.3 2.0912-7.35 4.8737-9 6.1835-1.65 1.3097-7.5 5.3654-13 9.0126-5.5 3.6471-11.856 8.2487-14.125 10.226-2.2689 1.977-7.8939 5.1072-12.5 6.9561-4.6061 1.8488-16.475 7.3173-26.375 12.152-9.9 4.8348-20.251 9.6769-23.003 10.76-2.7518 1.0834-6.5768 2.8978-8.5 4.0321-4.3667 2.5755-20.599 9.1613-22.579 9.1613-0.80886 0-4.9461 1.1184-9.1939 2.4853-20.861 6.7127-37.646 11.503-57.723 16.473-4.4 1.0891-11.825 3.061-16.5 4.3819-15.761 4.4532-22.435 5.638-40.095 7.1178-9.6774 0.8109-18.864 1.9567-20.415 2.5463-1.6607 0.6315-14.98 1.2638-32.405 1.5386-16.272 0.2566-32.06 0.6277-35.085 0.8247s-8.2-0.032-11.5-0.5092zm36.645-19.448c0.5563-0.3438 5.8137-1.0188 11.683-1.5 5.8694-0.4811 13.822-1.55 17.672-2.3752s9.25-1.5131 12-1.5286c2.75-0.015 7.162-0.6841 9.8045-1.4859s9.6999-2.1405 15.683-2.9751c5.9833-0.8345 15.296-2.7 20.696-4.1456 5.3993-1.4456 11.842-2.9829 14.317-3.4163s8.1-1.9315 12.5-3.3291c4.4-1.3977 10.025-3.0639 12.5-3.7027s5.85-1.8676 7.5-2.7308c1.65-0.8631 7.95-3.4711 14-5.7955 17.524-6.7329 22.904-9.0909 42-18.41 18.071-8.8191 21.507-10.845 31.964-18.842 3.1115-2.3795 7.0925-4.9744 8.8466-5.7664 3.1498-1.4222 6.719-3.769 19.959-13.124 11.609-8.2022 15.378-10.672 21.797-14.283 8.9873-5.0566 16.335-10.92 25.433-20.295 4.4-4.5339 11.6-11.615 16-15.735 9.4308-8.8316 42.814-43.537 45.25-47.042 0.9281-1.3353 6.4765-8.5606 12.33-16.056 5.8533-7.4955 10.954-14.87 11.335-16.388 0.8588-3.4218 9.5574-18.11 15.092-25.484 2.2705-3.025 5.7834-8.2559 7.8066-11.624 2.0232-3.3684 4.3408-6.674 5.1503-7.3458s4.2584-6.4659 7.6641-12.876c3.4058-6.4099 7.1605-13.229 8.3438-15.154 2.4919-4.0537 5.8906-12.023 14.927-35 3.5691-9.075 8.5047-20.775 10.968-26 2.5349-5.3768 6.2749-16.119 8.6171-24.75 2.276-8.3873 6.3065-21.437 8.9566-29 2.6501-7.5627 5.3242-16.45 5.9423-19.75 6.7342-35.953 11.472-60.06 12.776-65 2.0157-7.6417 3.1309-20.282 4.279-48.5 0.5035-12.375 1.5111-30.6 2.239-40.5 2.0234-27.518 1.5221-52.54-1.4725-73.5-1.3751-9.625-3.036-22.45-3.6908-28.5-3.1044-28.683-8.4617-54.17-25.014-119-3.1436-12.313-10.686-34.622-15.044-44.5-1.5773-3.575-5.5434-13.25-8.8136-21.5-5.2157-13.158-10.675-24.998-27.435-59.5-2.271-4.675-7.4935-14.35-11.606-21.5-4.1121-7.15-9.5439-16.825-12.071-21.5-2.5267-4.675-6.9511-11.942-9.8319-16.149-2.8809-4.2072-7.0535-11.179-9.2725-15.493-2.219-4.3139-4.8301-8.7467-5.8024-9.8506s-4.9412-6.5071-8.8198-12.007c-3.8787-5.5-11.575-15.034-17.104-21.187-5.5284-6.153-10.935-13.128-12.015-15.5-5.415-11.893-75.56-80.382-100.53-98.154-3.2129-2.287-8.3093-6.4083-11.325-9.1583-8.0237-7.3159-41.866-30.457-61.422-42-5.5908-3.3-11.752-7.4625-13.691-9.25-1.97-1.638-4.59-3.1-5.85-3.1-2.74 0-14.23-5.343-23.9-11.118-25.62-15.298-80.81-35.377-113.5-41.29-30.99-5.606-55.53-8.362-71.37-8.015-8.7285 0.19121-21.553-0.02273-28.5-0.47541-10.32-0.67255-13.331-0.54816-16.465 0.68022-2.8659 1.1234-5.9764 1.3521-12.31 0.90515-14.178-1.0006-34.877 1.3516-56.855 6.4608-5.3986 1.255-12.401 2.0913-17.5 2.0899-6.8437-0.0019-9.17 0.40304-11.938 2.078-3.0098 1.821-28.666 9.0357-46.759 13.149-3.4087 0.77494-7.0087 1.8403-8 2.3675-0.99 0.526-6.3 2.636-11.8 4.687-5.5 2.0513-12.926 5.1977-16.502 6.9922-3.5759 1.7944-8.9382 3.9862-11.916 4.8706-2.978 0.88438-6.1641 2.2863-7.0802 3.1153-0.91609 0.82905-5.2288 3.4658-9.5837 5.8594-18.867 10.37-23.306 13.052-29.918 18.078-3.85 2.9265-8.125 5.6528-9.5 6.0586-3.4861 1.0287-9.4753 5.5386-22 16.566-1.925 1.6948-5.75 4.5982-8.5 6.4518s-7.2657 4.9042-10.035 6.7791c-2.7692 1.8748-6.1442 4.7201-7.5 6.3227s-3.8152 3.8836-5.4652 5.069c-14.597 10.486-91.786 95.475-106.44 117.2-14.127 20.939-24.344 37.165-28.089 44.611-2.4918 4.9544-7.1197 13.418-10.284 18.809-3.1645 5.3903-7.4714 14.615-9.5709 20.5-3.941 11.046-7.3772 18.589-9.6578 21.199-0.72072 0.825-2.4998 4.65-3.9536 8.5-7.5549 20.008-12.807 34.475-13.978 38.5-0.71975 2.475-2.2498 6.5728-3.4001 9.1063s-2.5329 7.7187-3.0724 11.523c-0.5395 3.804-1.6485 8.8084-2.4644 11.121-1.7498 4.9593-3.0357 10.324-8.5693 35.75-2.2743 10.45-4.784 21.792-5.577 25.206-0.79304 3.413-1.4447 8.363-1.4481 11s-0.62531 5.9811-1.382 7.4314c-0.84888 1.6269-1.9962 10.82-2.9954 24-0.884 11.75-2.145 24.74-2.795 28.86-1.7028 10.802-2.1709 36.821-1.3388 74.411 0.19373 8.751-0.01778 16.884-0.47002 18.074-0.50015 1.3155 0.11347 9.1656 1.5664 20.039 1.3138 9.832 2.6232 21.499 2.9099 25.926 0.2867 4.4275 0.80083 9.5405 1.1425 11.362 0.34168 1.8218 0.70759 5.4218 0.81315 8 0.43886 10.719 6.3055 39.397 13.233 64.688 1.3559 4.95 3.7669 13.725 5.3578 19.5 1.5908 5.775 3.8252 12.525 4.9653 15s3.3743 9.225 4.9649 15c3.9031 14.171 7.2091 23.42 11.114 31.092 1.7937 3.5245 3.8338 8.6582 4.5335 11.408 1.9114 7.5121 5.8103 17.379 10.77 27.254 2.4438 4.8658 6.7759 14.449 9.6271 21.296 4.9784 11.956 6.6322 15.261 11.486 22.95 11.09 17.567 28.51 49.714 28.51 52.612 0 0.6425 2.1073 4.0302 4.6829 7.5282s7.0588 9.96 9.9627 14.36 7.56 10.925 10.347 14.5c2.7869 3.575 6.4275 8.75 8.0903 11.5 4.9273 8.1492 25.626 33.432 40.458 49.418 4.4222 4.7664 9.3722 10.415 11 12.552 8.1723 10.73 59.97 60.046 68.121 64.856 2.8544 1.6849 11.658 7.4565 12.839 8.4169 0.55 0.4475 3.25 2.0983 6 3.6686s6.125 3.9341 7.5 5.253c6.5367 6.2697 13.6 11.609 18.886 14.278 3.1937 1.6121 11.603 6.8263 18.687 11.587 11.509 7.7345 23.942 14.47 26.71 14.47 0.55372 0 6.454 2.6746 13.112 5.9436 13.079 6.422 26.794 12.056 29.347 12.056 0.87478 0 4.7783 1.9738 8.6744 4.3863 7.9382 4.9152 11.136 6.4105 27.584 12.898 15.237 6.0101 24.324 8.7153 29.277 8.7153 2.4076 0 4.8246 0.6865 5.926 1.6833 1.023 0.9258 3.9834 2.0309 6.5787 2.4558s11.019 2.1238 18.719 3.7752c10.376 2.2255 17.624 3.1248 28.002 3.4745 7.7008 0.2595 15.202 0.9282 16.67 1.4861 1.4674 0.5579 11.817 1.3348 22.998 1.7265 11.182 0.3916 21.455 1.0293 22.83 1.417 2.9952 0.8446 51.696 0.2874 53.145-0.6081zm-57.64-42.5c-3.85-0.3737-9.1054-0.469-11.679-0.2118-2.5732 0.2572-9.7732-0.253-16-1.1337-6.2268-0.8806-16.957-2.3069-23.845-3.1694-11.974-1.4994-25.512-4.2568-58.476-11.91-15.491-3.5967-29.838-8.1611-42-13.362-3.85-1.6464-11.05-4.6582-16-6.6929s-12.825-5.2893-17.5-7.2325c-13.747-5.7142-52.692-25.978-63.232-32.901-5.3524-3.5157-10.058-6.3922-10.458-6.3922-0.39936 0-2.3201-1.5426-4.2683-3.428-1.9482-1.8853-7.8172-5.6373-13.042-8.3376-7.5221-3.8874-11.582-6.9024-19.5-14.481-5.5-5.2644-13.847-12.669-18.548-16.456-12.338-9.9364-45.205-43.74-63.36-65.168-15.9-18.766-17.018-20.223-30.797-40.13-2.8551-4.125-8.7395-11.775-13.077-17-8.4683-10.202-9.12-11.222-26.512-41.5-13.028-22.681-23.066-43.03-27.376-55.5-4.0261-11.647-9.5436-25.398-12.84-32-1.5103-3.025-3.9505-8.65-5.4228-12.5-1.4722-3.85-3.3784-8.575-4.2359-10.5-0.85748-1.925-2.6563-6.875-3.9973-11s-3.4964-10.2-4.7898-13.5c-2.773-7.1-13.53-47.24-13.53-50.53 0-1.26-0.654-4.57-1.454-7.37-0.799-2.8-2.55-8.91-3.889-13.59-2.769-9.66-5.036-21.94-6.74-36.5-0.644-5.5-1.809-12.62-2.588-15.82-0.77973-3.199-1.8327-10.399-2.3399-16-0.508-5.6-1.574-15.36-2.369-21.68-2.7574-21.917-3.9501-41.64-3.1289-51.736 1.2464-15.323 1.4237-35.555 0.32961-37.599-0.68512-1.2802-0.50476-4.5312 0.58301-10.509 0.866-4.77 3.396-22.16 5.624-38.66 2.227-16.5 4.6994-33.15 5.494-37 0.79467-3.85 2.3646-12.055 3.4888-18.234 1.1242-6.1788 3.1477-14.954 4.4966-19.5 1.349-4.5462 3.7683-13.441 5.3763-19.766 3.9781-15.648 16.212-50.706 21.113-60.502 2.2018-4.4009 4.0033-8.4025 4.0033-8.8926 0-1.9251 21.437-44.4 24.763-49.067 1.9452-2.7287 6.0809-9.9287 9.1903-16 7.7592-15.15 11.847-21.111 30.089-43.874 3.5986-4.4905 8.9201-11.315 11.826-15.165 7.2386-9.5916 22.484-26.886 29.067-32.974 2.9894-2.7645 10.939-10.052 17.666-16.194 6.7269-6.142 12.013-11.385 11.746-11.652-0.26646-0.26647 0.70396-1.3162 2.1565-2.3328s5.4208-4.107 8.8184-6.8677 7.9774-6.2426 10.177-7.7375c2.2-1.4949 6.925-5.1956 10.5-8.2236 3.575-3.0281 9.362-7.6462 12.86-10.262 3.498-2.6163 8.223-6.2793 10.5-8.14s5.2651-3.867 6.6401-4.4586c1.375-0.59153 4.1373-2.5101 6.1384-4.2636 2.0011-1.7534 6.1529-3.919 9.226-4.8124 3.2591-0.94744 6.0139-2.4209 6.6105-3.5357 0.56259-1.0512 2.0359-2.1945 3.274-2.5407 1.2381-0.34616 5.8511-2.3772 10.251-4.5135 6.9953-3.3963 17.457-8.2981 45-21.085 7.6659-3.559 25.152-9.191 35.73-11.508 3.7016-0.81078 8.5956-2.1323 10.876-2.9368 2.26-0.812 5.13-1.47 6.37-1.47 1.2367 0 4.2176-0.69972 6.6243-1.5549 2.4066-0.85521 6.8507-1.721 9.8757-1.924 3.025-0.20301 6.7653-0.85274 8.3119-1.4438 1.5465-0.5911 6.0465-1.3685 10-1.7275 3.9535-0.35903 8.7631-1.4923 10.688-2.5183 2.1813-1.1627 4.5046-1.6477 6.1663-1.2874 1.4665 0.31799 4.3915 0.12098 6.5-0.43781s10.809-1.5137 19.334-2.1219c8.525-0.60827 19.55-1.7534 24.5-2.5448 10.025-1.6027 63.25-1.9041 69.5-0.3936 1.925 0.46525 9.125 1.5287 16 2.3633 6.875 0.83457 16.325 1.9849 21 2.5563 13.943 1.7042 25.585 3.6603 27.004 4.5368 0.73199 0.45239 4.2931 1.1662 7.9136 1.5863 9.7852 1.1354 27.186 6.2142 33.501 9.7782 3.21 1.811 7 3.135 8.96 3.135 1.8716 0 6.4909 1.3932 10.265 3.0961 12.196 5.5027 19.828 9.2607 21.362 10.52 2.7053 2.2196 13.357 8.2951 20.864 11.901 10.143 4.8716 34.84 20.017 44.566 27.33 2.7887 2.0969 9.3454 6.9727 14.57 10.835 5.225 3.8623 12.516 9.4515 16.202 12.42 3.6862 2.9689 10.886 8.6647 16 12.657 13.869 10.828 28.199 25.238 34.597 34.787 0.38563 0.57565 3.4012 3.1237 6.7012 5.6623 7.6356 5.8739 17.516 16.057 20.902 21.541 1.4429 2.3375 3.0252 4.25 3.5162 4.25s4.8729 4.7846 9.7374 10.632c4.8646 5.8478 11.395 13.61 14.512 17.25 3.1172 3.6396 7.1672 8.746 9 11.347 1.8328 2.6014 7.9898 10.429 13.682 17.396 5.6924 6.9661 12.152 15.638 14.355 19.27 2.2027 3.6325 5.0307 7.7295 6.2845 9.1045 5.1252 5.6208 14.772 22.925 36.795 66 5.4833 10.725 10.803 20.682 11.822 22.126 2.4549 3.4787 12.426 26.407 13.907 31.98 0.6425 2.4171 2.2981 6.6446 3.6791 9.3946s3.6245 8.15 4.9856 12c4.5079 12.751 16.318 48.982 16.32 50.066 0.001 0.58607 1.5012 5.7611 3.3337 11.5 4.3784 13.712 8.9638 33.753 12.112 52.934 1.3991 8.525 3.6808 21.8 5.0706 29.5 4.144 22.96 7.0015 49.813 5.7927 54.435-0.2751 1.0519 0.2484 6.6865 1.1634 12.521 1.1952 7.6224 1.388 11.514 0.6848 13.826-0.9116 2.997-2.1956 18.006-2.6278 30.717-0.7221 21.238-3.2566 47.239-5.5072 56.5-0.5347 2.2-0.9937 6.475-1.0199 9.5-0.026 3.025-0.4986 7.3-1.0498 9.5-2.2937 9.156-5.197 26.658-5.9719 36-1.0542 12.709-2.4574 20.589-4.3047 24.175-0.8007 1.554-2.8648 8.4318-4.5868 15.284-1.7221 6.8522-4.2461 14.894-5.6089 17.871-1.3629 2.9768-2.4825 6.5955-2.4882 8.0415-0.012 2.9532-8.9937 30.131-14.254 43.129-1.8919 4.675-6.0203 15.25-9.174 23.5-3.1538 8.25-6.8324 17.159-8.1748 19.799-1.3423 2.6394-3.5451 7.7331-4.895 11.319-1.3498 3.5863-3.3074 7.7268-4.3501 9.2012-1.0427 1.4743-3.3139 6.0981-5.0472 10.275s-4.2636 9.1019-5.6229 10.944c-1.3593 1.8424-2.4715 3.821-2.4715 4.3969s-1.502 3.301-3.3378 6.0557c-1.8357 2.7548-5.2997 8.3837-7.6977 12.509-2.6876 4.6232-7.5575 10.672-12.696 15.769-4.5849 4.5477-9.5584 10.18-11.052 12.516-10.934 17.099-57.234 64.708-75.042 77.165-4.5794 3.2032-9.4072 7.45-10.728 9.4373-1.4108 2.1221-5.7184 5.6767-10.438 8.6133-4.4196 2.75-11.292 7.2758-15.272 10.057-3.9797 2.7815-10.611 7.1143-14.736 9.6284s-9.9077 6.2008-12.85 8.1927c-2.9428 1.9919-6.3178 3.6414-7.5 3.6655-1.1822 0.024-3.7245 0.6605-5.6495 1.4141s-6.65 2.5557-10.5 4.0046c-3.85 1.449-10.375 4.1744-14.5 6.0565-26.568 12.122-78.782 27.222-102 29.498-4.675 0.4582-12.775 1.7948-18 2.9702-6.2049 1.3959-13.67 2.2201-21.524 2.3763-6.613 0.1315-12.566 0.5741-13.228 0.9835-3.7186 2.2982-46.49 4.1402-61.748 2.6593zm40.5-9.0941c2.475-0.5716 6.3-1.0351 8.5-1.03 4.7037 0.011 14.391-1.8959 15.05-2.9625 0.97181-1.5725-8.5516-2.1207-24.962-1.437-16.421 0.6841-31.811-0.1202-47.588-2.4871-3.575-0.5363-9.875-1.4728-14-2.081-11.872-1.7507-25.986-5.521-50.759-13.559-9.6458-3.1298-10.675-3.0239-15.978 1.6447-2.4993 2.2-4.9639 4-5.4768 4-8.0994 0 5.1356 5.4524 19.451 8.0132 3.1552 0.5644 6.897 1.4673 8.3151 2.0065s4.2366 0.996 6.2633 1.0152c2.0267 0.019 7.2849 0.7262 11.685 1.5711 8.7583 1.6818 22.509 2.9366 46.788 4.2692 8.6832 0.4766 16.071 1.1497 16.417 1.4957 1.0245 1.0245 21.413 0.6685 26.296-0.4591zm66-17.296 6.5-1.2629-0.20897-4.4263c-0.11494-2.4345-0.89755-7.3513-1.7391-10.926-3.1722-13.475-12.824-57.967-15.078-69.5-1.2895-6.6-4.561-21.9-7.2701-34s-6.158-27.85-7.6644-35-4.0005-18.625-5.5425-25.5-3.9694-17.9-5.3942-24.5-5.5278-25.5-9.1178-42-7.9228-36.525-9.6286-44.5c-3.5466-16.582-10.022-40.916-16.499-62-2.4498-7.975-6.029-19.62-7.954-25.878-7.82-25.4-11.05-27.47-17.37-11.09-1.804 4.675-5.2699 13.331-7.702 19.236-2.4321 5.9047-4.9185 13.555-5.5253 17-0.60685 3.4452-2.3537 9.2022-3.8819 12.793-1.5282 3.5912-3.685 11.016-4.7928 16.5-3.0598 15.146-5.7045 25.723-10.08 40.315-2.1887 7.2987-4.4723 16.057-5.0746 19.463-0.60229 3.406-2.3751 10.693-3.9396 16.193-3.2381 11.384-5.6029 21.168-6.5255 27-0.34805 2.2-1.5238 7.0382-2.6127 10.752-1.0889 3.7134-3.3114 12.938-4.9388 20.5-1.6274 7.5616-3.6418 16.448-4.4764 19.748-8.5296 33.725-10.781 43.219-13.993 59-3.219 15.815-5.5789 26.111-7.4492 32.5-1.0466 3.575-2.3732 9.2-2.948 12.5-0.99729 5.7252-5.7406 26.522-7.9828 35-2.9769 11.256 2.399 15.757 23.894 20.007 1.925 0.3806 8.9 2.2779 15.5 4.2162 19.616 5.761 20.089 5.8333 57 8.7119 21.058 1.6423 82.638 1.0968 92.5-0.8194zm40 0.012c12.765-3.2768 13.978-3.7196 14.828-5.4131 0.81118-1.6156-2.4408-21.766-6.4094-39.715-0.85126-3.85-2.1796-9.925-2.9518-13.5-0.77224-3.575-2.2844-10.55-3.3604-15.5s-2.7155-12.825-3.6434-17.5c-0.92794-4.675-2.9534-13.9-4.5011-20.5-2.9688-12.66-5.0682-22.759-6.9643-33.5-0.63108-3.575-1.7715-9.2-2.5342-12.5-3.7992-16.438-8.6042-37.751-9.9196-44-0.81044-3.85-2.6318-11.95-4.0474-18s-3.4517-15.275-4.5246-20.5-3.3029-15.575-4.9555-23c-1.6527-7.425-4.5627-21.15-6.4668-30.5s-4.8318-23.429-6.5059-31.287c-1.6742-7.8577-3.0369-15.733-3.0284-17.5 0.0145-3.006-2.038-14.577-9.1068-51.341-1.92-9.94-2.91-18.26-2.91-24.39 0-14.865-1.3033-15.477-15.536-7.3032-5.4086 3.1062-12.338 6.4447-15.399 7.4188-18.247 5.8073-20.591 8.7694-15.514 19.605 2.0172 4.3055 4.7986 10.978 6.181 14.828s3.4325 8.8 4.5557 11 2.8087 7.6 3.7455 12c0.93678 4.4 2.4733 11.6 3.4145 16 0.94119 4.4 2.5502 10.925 3.5755 14.5s3.2679 13.475 4.9834 22c1.7156 8.525 4.4818 21.125 6.1473 28s3.4441 15.425 3.9525 19c0.85884 6.039 8.138 39.469 11.323 52 0.76878 3.025 1.6995 7.75 2.0682 10.5 0.36875 2.75 2.4034 12.2 4.5214 21s4.3639 18.925 4.991 22.5c1.8143 10.344 4.0164 20.916 6.0086 28.846 1.015 4.0401 1.6093 7.9608 1.3208 8.7128-0.28856 0.752 0.18109 3.5215 1.0436 6.1544 3.7066 11.314 8.931 35.16 11.017 50.287 0.26549 1.925 1.3548 6.875 2.4206 11s3.842 15.6 6.1692 25.5c5.6063 23.849 5.1848 22.674 9.0871 25.326 3.8188 2.5951 6.147 2.5679 16.923-0.1983zm51.111-15.255c10.664-3.6451 21.864-7.8614 24.889-9.3696 3.025-1.5081 6.6191-3.0899 7.9869-3.5151 1.3678-0.4251 4.0678-1.7926 6-3.0389s5.0881-2.5876 7.0131-2.9807c5.8628-1.1971 12.592-5.1658 15.952-9.4076 2.073-2.6173 5.5066-5.1318 9.8164-7.1887 11.611-5.5416 27.598-15.777 31.732-20.316 2.2-2.4158 6.475-6.0815 9.5-8.146 9.6499-6.5859 46-40.431 46-42.83 0-1.062-25.497-31.894-50.505-61.072-9.9026-11.554-19.294-22.582-20.87-24.508-1.5759-1.925-6.588-7.775-11.138-13s-15.096-17.375-23.436-27c-8.3396-9.625-20.2-23.314-26.357-30.419-6.15-7.03-13.44-15.41-16.19-18.53-2.75-3.1258-7.925-9.1945-11.5-13.486-3.575-4.2914-8.975-10.558-12-13.926-3.025-3.3677-10.45-11.929-16.5-19.024-13.074-15.333-23.997-27.277-27.479-30.047-1.3864-1.1026-11.693-11.115-22.904-22.25-30.342-30.136-32.095-27.749-17.816 24.255 1.707 6.2167 2.1383 10.192 1.9349 17.832-0.19067 7.1627 0.26677 11.914 1.6849 17.5 3.5396 13.943 6.0795 25.729 6.0803 28.216 0.0009 2.7017 2.8067 16.831 3.5958 18.108 0.61962 1.0026 6.2445 26.582 7.3323 33.344 1.1974 7.4434 4.9016 25.231 6.5596 31.5 0.80008 3.025 2.6321 10.9 4.0712 17.5s4.1513 18.601 6.0271 26.668c1.8758 8.0674 3.8927 18.135 4.482 22.372 0.58932 4.2371 1.8952 10.461 2.902 13.832 2.1903 7.3326 2.7225 10.328 3.9351 22.15 0.509 4.9622 1.5991 10.362 2.4224 12 0.82333 1.6378 2.242 6.3529 3.1526 10.478 0.91058 4.125 2.4913 10.875 3.5127 15 2.16 8.7234 5.6015 26.043 7.4514 37.5 0.71046 4.4 2.2233 11.15 3.3619 15s2.5851 9.925 3.2144 13.5c2.0986 11.921 1.3607 11.826 26.09 3.3725zm-338.57-1.4544c-1.5344-3.2962-2.5259-7.2176-2.5319-10.013-0.0122-5.7313-1.6532-7.3177-9.1541-8.8499-3.1119-0.6357-8.5835-2.9257-12.195-5.1041-3.603-2.173-6.8199-3.951-7.1487-3.951-2.1642 0-43.924-25.174-57.512-34.67-33.673-23.532-74.513-61.384-93.651-86.799-5.2762-7.0065-6.9184-7.6491-11.29-4.4171-4.333 3.2036-19.139 4.5862-26.426 2.4679-10.733-3.1203-10.473-2.4481 5.8661 15.118 7.425 7.983 13.5 14.889 13.5 15.347 0 1.4215 44.241 42.114 49 45.07 2.475 1.5372 5.4 4.1812 6.5 5.8754 1.4036 2.1617 4.7995 4.4119 11.387 7.5454 8.3947 3.9931 21.904 13.024 30.836 20.614 1.7725 1.5062 4.8166 3.1787 6.7646 3.7166 1.9481 0.5379 4.9836 2.191 6.7456 3.6736s6.3564 4.23 10.21 6.1054c3.8535 1.8754 9.7372 5.189 13.075 7.3636 3.3377 2.1747 8.5832 4.819 11.657 5.8764 3.0734 1.0574 8.9512 3.5402 13.062 5.5173 4.1106 1.9772 8.1016 3.5965 8.8689 3.5986 0.76729 0 4.0951 1.3503 7.3951 2.9962s6.7747 2.9942 7.7215 2.9962c0.94681 0 4.3218 1.177 7.5 2.6109 12.138 5.4763 13.453 5.1161 9.8202-2.689zm36.718 5.0267c4.753-1.32 6.5515-4.0811 7.8303-12.022 0.55956-3.4745 3.4274-16.016 6.3729-27.87 2.9456-11.854 6.3103-26.053 7.4772-31.553s2.9742-13.15 4.0162-17 2.8809-11.5 4.0865-17 3.7207-16.075 5.5891-23.5 5.1852-21.444 7.3706-31.153c2.1854-9.7092 4.4289-18.851 4.9855-20.315 0.55665-1.4641 1.0121-3.7483 1.0121-5.0759s0.86192-5.2359 1.9154-8.6849c1.0535-3.4491 2.689-10.096 3.6345-14.771 0.94554-4.675 3.0333-13.675 4.6394-20s3.7547-15.55 4.7746-20.5c2.2572-10.955 7.6269-32.294 9.1023-36.172 0.59182-1.5555 1.9782-7.3282 3.0809-12.828 1.1027-5.5 3.0633-13.375 4.3569-17.5s3.0802-11.1 3.9702-15.5c1.5789-7.8057 7.8611-26.993 11.46-35 0.98878-2.2002 2.1372-5.5752 2.552-7.5 0.41484-1.9248 2.0503-6.3744 3.6343-9.888s2.88-6.4742 2.88-6.5793c0-0.10502-7.0875 0.003-15.75 0.24078-11.144 0.30549-18.759-0.0231-26.041-1.1236-13.491-2.039-13.591-1.9906-12.927 6.2552 0.62395 7.7494-1.7439 42.025-3.2535 47.095-0.57311 1.925-1.2708 7.4067-1.5505 12.182-0.27965 4.7749-1.6783 13.1-3.1082 18.5-1.4298 5.4001-3.2359 12.678-4.0134 16.173-0.77752 3.4952-2.0245 7.5452-2.771 9-0.74651 1.4548-1.9106 5.3451-2.5869 8.6451-0.67631 3.3-2.101 8.3384-3.1659 11.196-1.0649 2.858-2.3473 7.358-2.8498 10-1.9681 10.349-3.1928 16.007-4.503 20.804-0.75116 2.75-2.5386 10.286-3.972 16.746-1.4334 6.4601-3.2126 13.21-3.9536 15-0.74102 1.7899-2.0783 7.5746-2.9718 12.855-2.1853 12.915-3.9595 21.202-6.0801 28.4-0.97231 3.3-2.3615 8.025-3.087 10.5-0.72554 2.475-1.8383 7.425-2.4728 11-0.63447 3.575-2.2705 10.55-3.6357 15.5s-3.1272 12.15-3.9156 16-2.5287 11.725-3.8674 17.5c-1.3386 5.775-3.3891 14.775-4.5567 20-1.1675 5.225-4.0792 17.6-6.4703 27.5-4.9092 20.325-4.9196 24.397-0.0808 31.379 5.74 8.2827 13.942 11.538 22.843 9.0656zm-36.9-32c0.77274-1.2375 1.6937-4.275 2.0465-6.75 0.35284-2.475 1.5144-7.65 2.5812-11.5s2.875-11.275 4.0181-16.5c1.1432-5.225 2.9564-12.65 4.0293-16.5 2.886-10.356 12.653-51.298 13.479-56.5 0.39276-2.475 1.773-7.8776 3.0672-12.006 1.2942-4.1282 3.2731-12.228 4.3977-18 1.1245-5.7719 3.1404-14.544 4.4797-19.494s3.8157-15.3 5.5031-23c3.0632-13.978 7.132-30.44 11.493-46.5 1.2694-4.675 2.8388-11.2 3.4874-14.5 3.1862-16.21 5.3685-25.953 8.0637-36 1.6229-6.05 3.4214-15.725 3.9965-21.5 0.57517-5.775 1.7567-14.389 2.6256-19.141 1.9863-10.865 1.6718-41.592-0.4518-44.15-0.72913-0.878-4.2117-2.5568-7.7391-3.7306s-6.6699-2.5492-6.9833-3.0564c-1.5307-2.4767-10.123 1.5943-20.753 9.8322-2.3095 1.7899-6.2188 4.7149-8.6874 6.5s-7.1936 5.7402-10.5 8.7892c-3.3064 3.0489-7.5866 6.7194-9.5116 8.1568-4.6175 3.4476-26.476 25.286-41.459 41.421-6.5775 7.0832-15.812 16.704-20.521 21.379-4.7088 4.675-19.987 20.65-33.952 35.5s-35.331 37.309-47.479 49.909c-34.69 35.9-46.59 48.8-46.59 50.6 0 3.6699 36.236 41.808 50 52.626 3.575 2.8096 8.525 7.2117 11 9.7826 10.012 10.399 58.417 46.008 68.436 50.345 1.6148 0.6989 4.5933 2.5834 6.6189 4.1876 4.1196 3.2629 12.06 7.8912 25.445 14.831 14.853 7.7011 17.664 8.3911 19.859 4.8755zm510.67-91c1.1593-1.2375 6.2065-7.8309 11.216-14.652l9.1082-12.402-5.0561-4.5979c-2.7809-2.5288-8.373-8.6067-12.427-13.506-18.812-22.736-23.848-28.797-30.371-36.553-3.85-4.5778-9.25-10.902-12-14.055-2.75-3.1523-10.625-12.377-17.5-20.499-6.875-8.1221-18.575-21.798-26-30.392-20.755-24.02-23.202-26.916-27.5-32.533-2.2-2.8752-6.7-7.89-10-11.144s-10.5-11.284-16-17.846c-5.5-6.5611-13.78-16.011-18.4-21-4.62-5-11.57-12.9-15.44-17.58-3.8733-4.675-9.5433-11.229-12.6-14.564-3.0567-3.3351-7.3516-8.7351-9.5442-12-2.2-3.27-7.13-10.22-10.97-15.44-3.8348-5.225-10.076-15.125-13.87-22-3.7935-6.875-7.4942-13.177-8.224-14.005-2.1153-2.3989-8.9996-18.021-10.354-23.495-3.3361-13.484-6.9295-12.143-16.787 6.2663-3.7273 6.961-13.169 19.069-21.591 27.69-3.7379 3.8258-6.6685 7.4395-6.5125 8.0304 0.3572 1.353 18.73 18.156 28.079 25.68 4.1529 3.3422 8.7641 8.2676 11.241 12.007 2.31 3.4873 9.7717 11.825 16.582 18.527 16.908 16.642 20.035 19.988 28.096 30.067 3.841 4.8024 9.3381 11.207 12.216 14.232 2.8776 3.025 6.7705 7.3389 8.651 9.5864s11.443 13.272 21.25 24.5c17.048 19.518 24.257 27.735 42.906 48.914 8.9932 10.213 32.805 38.082 39.124 45.791 2.1233 2.5902 7.8912 9.2653 12.818 14.834 4.9264 5.5683 9.6792 11.193 10.562 12.5 0.88243 1.3068 3.4395 4.4328 5.6823 6.9469 2.2428 2.514 6.5529 7.6277 9.5779 11.364 3.025 3.736 9.3354 11.129 14.023 16.429 4.6877 5.3 9.7731 11.324 11.301 13.386 3.1776 4.2897 5.6874 4.7222 8.706 1.5zm32.68-43.753c2.3757-3.0232 5.3903-7.5218 6.6991-9.9968 1.3087-2.475 3.8895-6.8247 5.735-9.6661 7.4702-11.501 10.28-16.543 18.02-32.334 26.736-54.549 31.051-64.443 33.864-77.656 0.6036-2.8357 3.0561-9.6681 5.45-15.183 2.3939-5.515 4.8901-12.645 5.547-15.844 0.657-3.1993 2.8031-11.892 4.7691-19.317s3.6041-15.045 3.6402-16.934l0.066-3.4339-13-5.3491c-7.15-2.942-22-8.5163-33-12.387-11-3.871-26.75-9.4535-35-12.405-8.25-2.952-16.575-5.921-18.5-6.5978s-7.1-2.5584-11.5-4.1814-11.375-3.9919-15.5-5.2642-11.325-3.7182-16-5.4354c-4.675-1.7171-10.975-3.9589-14-4.9817s-12.025-4.1896-20-7.0374c-24.904-8.8928-103.16-35.165-110.39-37.058-3.7868-0.99237-7.3643-2.2836-7.95-2.8693-1.9942-1.9942-3.5547-1.0701-7.0668 4.185-1.9298 2.8875-7.3933 9.075-12.141 13.75-11.503 11.327-11.361 10.975-7.1969 17.843 1.8865 3.1114 4.3905 7.6822 5.5645 10.157 1.174 2.475 5.2937 8.5149 9.1549 13.422s7.0204 9.2976 7.0204 9.7565c0 0.45897 2.5875 3.4391 5.75 6.6225 5.26 5.2947 14.442 15.749 35.587 40.518 4.3105 5.0493 12.04 13.905 17.176 19.68 30.423 34.205 61.193 69.641 78.707 90.641 3.1462 3.7726 8.6644 10.234 12.263 14.359 3.5982 4.125 7.9142 9.3 9.591 11.5 1.6769 2.2 5.1898 6.25 7.8065 9s6.6291 7.5548 8.9164 10.677c2.2873 3.1225 4.6399 5.9746 5.228 6.3381 0.58811 0.3635 5.3933 5.9087 10.678 12.323 18.048 21.904 17.41 21.554 24.007 13.159zm-744.2-3.085c6.0007-2.2452 8.5705-4.583 26.835-24.412 5.5728-6.05 13.738-14.651 18.145-19.114 4.4072-4.4628 13.496-13.913 20.198-21 6.7017-7.0872 17.08-18.061 23.062-24.386 5.9826-6.325 13.548-14.425 16.813-18 3.2644-3.575 14.936-15.747 25.938-27.05 11.01-11.29 27.21-28.12 36.01-37.39 8.8-9.2675 19.825-20.878 24.5-25.802 4.675-4.9234 10.525-10.331 13-12.016 2.475-1.6854 6.525-4.9241 9-7.1972s7.2-5.9687 10.5-8.2125c11.576-7.8708 12.327-11.147 2.123-9.2609-7.9649 1.4724-29.967-0.24993-38.916-3.0463-8.8809-2.7751-9.7745-2.3595-15.422 7.1724-2.6314 4.4413-7.7094 11.081-11.284 14.756-3.575 3.6744-8.3121 8.6777-10.527 11.118-2.2148 2.4408-7.6992 7.9533-12.188 12.25-4.4884 4.2968-12.126 12.022-16.973 17.168-4.8468 5.1456-19.866 20.755-33.375 34.688-13.51 13.93-27.03 28.03-30.04 31.33-3.0086 3.3-10.195 10.725-15.97 16.5-15.636 15.637-63.175 65.886-65.159 68.873-9.8086 14.771 5.6681 29.796 23.73 23.039zm-38.422-8.8905c-1.8668-9.489 1.0356-18.088 8.4596-25.062 3.5593-3.3438 3.1322-5.0365-3.5415-14.037-3.2988-4.4491-7.563-10.888-9.4759-14.309-1.9129-3.4206-4.6708-7.3204-6.1287-8.6662-1.4578-1.3458-4.9718-7.1719-7.8088-12.947-2.837-5.775-7.2418-14.325-9.7885-19s-6.2677-12.775-8.2689-18-4.5793-11.075-5.7291-13c-2.9106-4.8729-21.427-53.578-29.243-76.921-3.3514-10.009-5.3244-12.457-8.3088-10.309-6.3328 4.5571-7.9406 5.2879-10.75 4.8858-13.412-1.9193-21.561-4.6143-24.439-8.0823-2.0253-2.4403-4.4016-2.0101-3.7391 0.67691 1.842 7.4715 19.35 52.387 23.876 61.25 0.84247 1.65 2.3304 5.475 3.3064 8.5 0.97606 3.025 3.1133 8.1762 4.7494 11.447 1.6361 3.2709 3.6168 7.7709 4.4015 10 0.78473 2.2291 4.5218 9.6778 8.3046 16.553 3.7828 6.875 10.549 19.7 15.036 28.5 4.4871 8.8 8.9812 16.9 9.987 18s9.3124 13.213 18.459 26.919c9.1468 13.705 18.077 26.569 19.844 28.585 1.7676 2.0166 4.9882 5.8427 7.1568 8.5025 4.5193 5.5431 5.2749 4.8198 3.641-3.4851zm24.42-41.9c2.2-2.1323 9.4-9.6588 16-16.726 14.63-15.664 31.792-33.53 44.5-46.323 5.225-5.26 19.4-19.907 31.5-32.549s33.982-35.14 48.627-49.995c39.576-40.145 43.342-46.035 32.648-51.075-14.772-6.9617-32.752-24.68-40.524-39.934-4.0847-8.0177-4.9146-8.2714-15.507-4.7417-5.0839 1.6941-10.143 3.2946-11.243 3.5566-6.2272 1.4836-33.564 9.6635-36.683 10.976-2.0256 0.85277-7.2006 2.5009-11.5 3.6625-10.159 2.7447-30.112 9.0322-48.317 15.225-7.975 2.713-18.1 6.0344-22.5 7.381s-10.25 3.3168-13 4.3782-9.725 3.3375-15.5 5.058c-45.767 13.635-48.92 15.092-46.814 21.63 0.86308 2.6803 2.3353 8.2482 3.2716 12.373 0.93627 4.125 2.5432 9.525 3.5709 12s2.1557 5.625 2.5067 7c0.83387 3.267 5.9917 17.017 9.0027 24 1.3044 3.025 4.416 10.675 6.9147 17 4.8408 12.253 9.6425 22.066 21.776 44.5 11.626 21.496 15.745 28.805 17.172 30.472 0.71973 0.84042 4.1521 6.253 7.6275 12.028 9.7485 16.199 10.013 16.361 16.472 10.102zm845.3-161.85c0.8265-1.6507 1.4988-5.3016 4.281-23.25 2.0293-13.092 3.5528-11.325-15.587-18.078-6.6-2.3287-15.825-5.8039-20.5-7.7228-8.0836-3.318-12.23-4.7956-35.5-12.652-61.12-20.64-110.02-37.73-114.38-39.99-1.66-0.86-3.73-1.56-4.6-1.56-1.6 0-50.73-16.33-79.52-26.43-34.44-12.08-53.71-19.96-60.92-24.92-2.92-2.01-5.86-3.65-6.54-3.65-0.68137 0-3.3547-1.125-5.9407-2.5-7.701-4.0946-8.455-3.5016-8.496 6.6825-0.026 6.4529-3.075 19.335-6.6709 28.184-5.0569 12.445-3.6274 14.98 9.0709 16.084 13.344 1.1605 31.569 4.4189 39.465 7.0559 4.1057 1.3712 8.509 2.493 9.7852 2.493s3.5163 0.7875 4.9781 1.75 6.5084 2.9611 11.215 4.4414c27.796 8.7425 105.76 35.518 123.06 42.262 5.225 2.0371 12.2 4.5122 15.5 5.5002 3.3 0.98797 9.9627 3.4277 14.806 5.4216s9.3782 3.6253 10.078 3.6253c0.69934 0 4.1169 1.1562 7.5946 2.5693s9.5178 3.4124 13.422 4.443c3.9046 1.0305 14.074 4.3449 22.599 7.3653 35.2 12.471 44.066 15.666 55.5 19.998 13.228 5.0123 16.004 5.4733 17.306 2.8741zm-949.89-20.68c5.3556-2.2196 10.978-4.0472 50.087-16.281 9.625-3.0108 20.2-6.3823 23.5-7.4923 18.589-6.2523 81.723-26.623 88-28.394 3.3-0.93097 8.3794-2.528 11.288-3.5489 2.9081-1.021 6.124-1.8563 7.1464-1.8563s5.168-1.3762 9.2125-3.0582 11.924-4.369 17.511-5.971c21.414-6.141 21.948-6.9221 14.631-21.383-1.3671-2.7015-2.8718-7.6433-3.3436-10.982-1.1774-8.3296-2.3383-8.9803-10.734-6.0169-3.6905 1.3026-7.5284 2.3778-8.5287 2.3894-1.5604 0.0181-14.857 4.1119-35.681 10.986-3.025 0.99853-10.225 3.2506-16 5.0047-5.775 1.754-12.525 3.8434-15 4.643-21.974 7.0992-34.916 11.306-70.5 22.918-22.55 7.3586-48.822 15.929-58.381 19.046-13.146 4.2854-18.263 6.437-21 8.8287-1.9902 1.7393-5.3536 4.4438-7.474 6.01l-3.8554 2.8476 0.38731 6.6187c0.99524 17.007 11.596 22.795 28.737 15.691zm425.54-6.01c-0.87862-1.341-3.2515-3.6705-5.273-5.1768-2.0216-1.5063-4.9458-4.2341-6.4984-6.0619-3.62-4.26-10.68-4.37-10.68-0.17 0 1.3493 12.942 10.021 17.777 11.91 6.197 2.4225 6.5603 2.3838 4.672-0.49805zm-467.45-7.31c0.0015-12.741 5.3664-20.507 20.538-29.73 8.2041-4.9874 8.4526-5.7498 5.589-17.141-1.09-4.33-2.27-10.58-2.62-13.88-0.36-3.3-1.96-12.98-3.57-21.5-7.72-40.91-11.95-101.88-8.09-116.51 0.58-2.19 1-11.41 0.95-20.49-0.0844-13.795 0.33121-18.878 2.5349-31 1.4497-7.975 2.3054-14.645 1.9014-14.822-0.40394-0.17704-6.1252-2.202-12.714-4.5l-11.979-4.18-4.724-7.5c-2.5985-4.125-5.0278-9.1875-5.3985-11.25-0.79428-4.4192-2.0381-4.8623-2.8069-1-1.178 5.918-5.4724 38.863-5.3118 40.75 0.26354 3.0965-1.3386 21.256-2.5144 28.5-2.8683 17.67-1.9592 74.932 1.5796 99.5 0.87146 6.05 1.7908 16.4 2.0431 23 0.25222 6.6 1.1799 15.15 2.0615 19 0.88159 3.85 2.0726 9.7 2.6468 13 0.57414 3.3 1.911 10.05 2.9708 15s1.9238 10.395 1.92 12.101c-0.0038 1.7056 1.1594 5.2946 2.5848 7.9755 2.0289 3.8158 2.4584 5.7086 1.9775 8.7156-0.60277 3.7695 0.50137 8.7042 5.5127 24.638 3.3567 10.672 4.9176 11.091 4.9188 1.3201zm506.22 1.9282c1.72-0.68-10.63-13.18-13.02-13.18-1.9232 0-3.5904 3.0054-2.3534 4.2424 4.1961 4.1961-0.11421 7.8295-6.4865 5.4678-4.3732-1.6208-5.659-1.0365-2.8497 1.295 3.0454 2.5274 20.049 4.0227 24.711 2.173zm-112.03-5.6062c3.4716-0.78541 9.3414-1.737 13.044-2.1145 5.5904-0.57012 7.9641-1.4536 14-5.2109 3.9975-2.4884 9.2149-5.1256 11.594-5.8605 2.3793-0.73485 5.6137-2.3598 7.1876-3.611s4.0516-3.1113 5.506-4.1334c1.4544-1.0222 4.5552-4.4541 6.8906-7.6266s6.0111-7.5414 8.1681-9.7087c6.2681-6.2982 10.116-12.361 11.934-18.806 0.93101-3.3 2.7145-7.8 3.9633-10s3.6519-10.075 5.3402-17.5c7.6644-33.707 7.3073-31.511 6.2169-38.23-0.5596-3.4483-1.0257-9.4197-1.0358-13.27-0.0101-3.85-0.70987-9.25-1.555-12-0.84516-2.75-2.2083-8.825-3.0292-13.5-0.82091-4.675-2.3046-10.075-3.2971-12-0.99247-1.925-2.6104-5.975-3.5954-9-3.3812-10.384-14.217-26.191-20.038-29.231-2.1422-1.1188-3.7077-2.9231-4.4269-5.1023-1.8458-5.5929-22.636-18.041-34.555-20.69-2.75-0.61113-7.8332-2.029-11.296-3.1508-4.4444-1.4398-7.5481-1.8519-10.553-1.4013-2.3412 0.35109-6.6223 0.13104-9.5134-0.489-4.3331-0.92929-6.1137-0.84702-10.135 0.46829-3.245 1.0614-8.4985 1.5959-15.69 1.5964-13.494 0.00098-29.009 6.7456-38.011 16.524-1.7595 1.9113-3.7845 3.4856-4.5 3.4984-3.0381 0.0544-22.5 20.437-25.781 27-1.7807 3.5624-4.1297 7.4496-5.22 8.6383-2.1652 2.3606-10.793 25.269-10.812 28.708-0.006 1.1721-1.0154 5.7312-2.2421 10.131-3.8818 13.924-2.6212 38.433 2.9574 57.5 1.3678 4.675 3.7574 13.341 5.3102 19.257 2.8198 10.744 3.8862 13.077 11.995 26.243 9.6522 15.671 16.377 22.648 26.395 27.381 3.4042 1.6084 6.7836 3.6403 7.5098 4.5153 2.4258 2.9228 11.524 7.4223 17.086 8.4494 3.025 0.55864 7.075 1.7043 9 2.5458 4.7618 2.0818 32.251 2.2022 41.188 0.18037zm-43.87-28.99c-1.1983-0.87821-4.7983-2.5921-8-3.8087s-6.6577-3.2592-7.6801-4.5392c-1.0223-1.28-3.8295-3.2536-6.2382-4.3858-6.9655-3.2742-10.754-8.2518-9.9775-13.109 0.57988-3.6264 0.29324-4.3221-3.4568-8.3904-5.1583-5.5961-5.4204-10.627-0.5823-11.18 2.3543-0.26882 3.6616 0.5147 7.091 4.25 5.8193 6.3384 8.1206 6.2853 5.7377-0.13247-1.5756-4.2437-2.5678-5.2001-9.9823-9.6221-7.8759-4.6972-10.035-7.4338-7.2328-9.1658 2.0428-1.2625 0.88961-3.5157-2.75-5.3733-5.1353-2.6209-7.582-5.5054-6.789-8.0039 1.0777-3.3957 3.9616-3.4102 10.368-0.0522 7.8143 4.0962 10.766 2.4972 6.1713-3.3435-3.3434-4.2504-2.3289-6.8535 3.2128-8.2444 3.2466-0.81484 6.9428 2.582 8.4221 7.74 0.51294 1.7885 1.9907 3.7794 3.2839 4.4242 2.8874 1.4395 4.0458 3.17 4.0658 6.0737 0.008 1.2213 2.6316 5.7213 5.8294 10 8.2025 10.975 11.403 15.927 14.607 22.6 5.2434 10.92 13.405 9.655 33.256-5.1537 6.5023-4.8507 14.658-10.551 18.124-12.667 13.05-7.9684 13.958-10.115 8.2503-19.505-2.1717-3.5726-5.098-8.5205-6.5029-10.996-1.4049-2.475-4.335-6.975-6.5114-10-4.8009-6.6729-15.836-23.135-18.858-28.132-2.9752-4.9196-6.6967-6.3921-12.08-4.7793l-4.128 1.2368-5.3939-5.3389c-4.4466-4.4013-5.2519-5.7123-4.5855-7.4652 1.1027-2.9004-0.51538-5.424-4.562-7.1147-4.6816-1.956-6.43-1.7757-6.43 0.6633 0 2.8798-3.7214 2.2076-6.1952-1.119-2.159-2.9033-1.6032-5.5084 1.3392-6.2779 1.6889-0.44167 1.8304-0.852 0.89564-2.5986-1.2024-2.2466-2.5603-2.6587-3.5396-1.074-1.1126 1.8003-7.0828 1.1184-9.0282-1.0311-3.0042-3.3196 0.1051-5.7619 5.5017-4.3215 3.6712 0.97989 4.1074 0.87796 5.5291-1.2918 3.1178-4.7583 11.497-0.26823 11.497 6.1607 0 3.9893 3.1717 6.9181 8.5935 7.9352 4.8116 0.90265 4.9529 0.51093 1.4194-3.9353-1.65-2.08-3.01-4.36-3.01-5.07 0-0.70717-1.125-2.6228-2.5-4.2568-3.157-3.7519-3.1479-4.9817 0.0432-5.7826 3.5153-0.88229 9.8705 1.6868 10.24 4.1394 0.76118 5.058 1.3464 6.1986 3.7403 7.2893 1.4141 0.64429 2.9998 1.1714 3.524 1.1714 2.7696 0-1.1463-9.18-4.7352-11.101-2.8112-1.5045-2.8596-5.5416-0.0873-7.2773 1.6807-1.0522 2.3904-0.90581 9.0254 1.862 1.1984 0.49988 1.75 0.27228 1.75-0.722 0-2.8419 3.6788-5.0448 7.2926-4.3669 11.34 2.12 45.71 30.73 45.71 38.05 0 0.32433 1.1083 2.3453 2.4629 4.4911 11.709 18.548 14.943 72.603 5.2386 87.559-22.488 34.659-39.068 45.269-72.201 46.201-14.506 0.40836-17.32 0.2443-19.179-1.1182zm-20.32-56.01c0-2.47-3.01-4.57-6.57-4.57-4.3185 0-4.2884 0.34363 0.30356 3.464 4.1985 2.853 6.2679 3.2186 6.2679 1.1075zm98.611-19.767c-1.0378-5.1892-8.8712-19.515-15.992-29.247-3.6448-4.9813-8.9876-12.621-11.873-16.976-2.8853-4.3557-5.8084-8.1057-6.4959-8.3333-2.6372-0.87331-1.1052 4.4561 2.9472 10.253 11.109 15.89 25.737 38.563 27.605 42.787 2.4275 5.4877 4.7906 6.4294 3.8082 1.5176zm-69.265 19.745c-8.9036-3.8737-3.4891-11.999 7.3256-10.993 9.2664 0.86182 13.655-2.1605 14.345-9.8793 0.52987-5.9282 1.3843-7.1372 5.8891-8.3331 5.1686-1.3722 7.362 3.4307 5.0865 11.138-3.3918 11.488-22.923 22.297-32.646 18.067zm-49.87-63.49c-5.95-2.41-5.62-7.05 0.5-7.05 5.5951 0 9.0321 3.2367 6.4578 6.0814-1.8493 2.0434-3.6787 2.2976-6.9611 0.96712zm1.0136-15.44c-1.6172-1.1825-1.7027-1.6336-0.56869-3 1.6805-2.0249 6.4462-2.0887 8.0898-0.10821 2.8458 3.429-3.4974 6.0504-7.5211 3.1082zm165.97 156.86 1.901-3.53-3.9178-4.0122c-5.481-5.613-12.728-5.8039-14.806-0.38998-2.0691 5.3921 14.088 13.01 16.822 7.9322zm46.284-2.8849c-2.0735-1.8324-6.446-4.3074-9.7167-5.5-3.2706-1.1925-6.2132-2.5995-6.5389-3.1267-1.1151-1.8042-2.6137-0.96042-2.2939 1.2916 0.54502 3.8376 11.96 10.759 17.66 10.708l4.6593-0.0416-3.7701-3.3317zm477.97-7.09c0.6746-3.3 1.6829-10.95 2.2408-17 0.5578-6.05 1.965-19.775 3.1271-30.5 2.565-23.672 2.8109-54.031 0.5426-67-0.8177-4.675-1.5158-12.55-1.5515-17.5-0.036-4.95-0.5014-12.432-1.035-16.626-1.3179-10.36-8.5642-52.719-9.5617-55.894-0.2626-0.83586-1.5976-7.7909-2.9667-15.456-3.0815-17.253-4.1188-18.791-10.48-15.546-4.0675 2.0751-31.717 10.746-41.7 13.077-2.663 0.62187-9.5669 2.6136-15.342 4.4262-5.775 1.8125-15.225 4.7599-21 6.5498s-18.6 5.9118-28.5 9.1598-27.225 8.6124-38.5 11.921c-19.146 5.6181-37.086 11.129-80 24.576-9.625 3.0159-19.065 6.3898-20.977 7.4976-1.9123 1.1077-5.0476 2.5315-6.9674 3.1639l-3.45 1.15-0.25 19.5c-0.22786 17.777-0.50774 20.516-3.1674 31-3.8348 15.116-6.8413 12.773 34.554 26.932 19.689 6.7349 47.949 16.415 62.799 21.512 14.85 5.0969 47.025 16.114 71.5 24.482s51.475 17.709 60 20.757c8.525 3.0485 19.1 6.8276 23.5 8.3981 4.4 1.5704 10.7 3.9654 14 5.3222 9.6671 3.9746 11.741 3.3624 13.227-3.9036zm-456.31 0.89301c5.0476-1.9369-2.3836-7.5902-9.4182-7.165-6.3418 0.38334-5.9233 2.6777 1 5.4824 6.1919 2.5084 6.2407 2.5182 8.4182 1.6826zm-53.664-13.155c0.4514-1.3542-9.4032-6.5729-10.791-5.7149-1.896 1.1718-0.88921 2.4766 3.7875 4.9084 4.9346 2.5659 6.3627 2.7303 7.004 0.80652zm-439.79-7.9c4.71-1.47 18.46-6 30.56-10.07 12.1-4.0702 26.5-8.6723 32-10.227 5.5-1.5546 11.35-3.3672 13-4.028 1.65-0.66085 10.425-3.4264 19.5-6.1456s21.675-6.6956 28-8.8364c9.8467-3.3327 31.104-10.16 61-19.592 4.125-1.3014 10.089-3.091 13.253-3.977 6.8774-1.9256 8.0363-3.5936 6.8625-9.8765-0.48039-2.5714-0.47789-4.5906 0.006-4.5906 0.47482 0 0.57304-6.0525 0.21827-13.45-0.50657-10.562-0.31853-14.588 0.87584-18.75 0.83649-2.915 2.0487-7.55 2.6938-10.3 0.64511-2.75 2.5026-7.7804 4.1277-11.179 4.3712-9.1405-0.16834-12.827-25.537-20.74-6.6-2.0586-12.853-4.2011-13.895-4.7611-2.7284-1.4659-12.51-4.8285-16.605-5.7083-1.925-0.41358-6.425-1.7173-10-2.8972s-16.625-5.4791-29-9.5538c-12.375-4.0748-25.65-8.5125-29.5-9.8618-14.274-5.0023-20.424-6.9349-23.176-7.2834-1.5534-0.19673-21.525-6.6932-44.381-14.437-22.85-7.74-42.05-14.08-42.65-14.08-1.2604 0-2.9131 10.751-2.4785 16.123 0.1612 1.9928-0.60298 6.2832-1.6982 9.5342-1.705 5.0613-3.7367 30.764-3.2678 41.342 0.0366 0.825 0.0743 12.168 0.0839 25.207 0.0162 22.007 3.3798 59.251 5.6885 62.987 0.29513 0.47753 0.94633 6.5917 1.4471 13.587 0.50078 6.9954 1.375 14.294 1.9428 16.219 0.94404 3.2009 1.4448 6.1197 3.9721 23.153 2.1815 14.703 4.2006 16.153 16.959 12.183zm489.76 1.0598c0.48-1.45-12.42-11.4-14.77-11.4-5.0192 0-0.76799 6.4178 6.908 10.428 4.8673 2.5432 7.2447 2.8357 7.8665 0.96788zm30.3-0.4c1.1135-0.71959 0.5185-0.97332-2.309-0.98469-2.288-0.009-3.5622 0.38402-3.191 0.98469 0.78111 1.2639 3.5443 1.2639 5.5 0zm-65.644-3.8449c-1.5707-1.5647-3.8614-4.0703-5.0906-5.5679-2.3061-2.8099-7.7652-3.4493-7.7652-0.90958 0 1.4782 7.9826 7.326 11.426 8.3699 4.2509 1.2889 4.411 1.0771 1.4302-1.8924zm153.45-1.3947c0.22055-1.1452-1.2556-2.7226-4.4343-4.7385-6.5274-4.1395-6.9491-3.8279-2.743 2.0267 3.6515 5.0826 6.5126 6.1636 7.1773 2.7118zm-99.56-11.48c6.4499-2.7416 3.3275-5.1238-4.385-3.3455-2.4008 0.55354-6.701 1.0174-9.556 1.0309-8.771 0.0413-7.9169 2.984 1.191 4.1033 5.6923 0.69961 7.4888 0.44759 12.75-1.7887zm-42.734-5.2963c6.5032-2.4725-1.2442-5.729-14.709-6.1825-13.581-0.45744-13.624 1.9215-0.0871 4.849 12.017 2.5989 11.573 2.5588 14.796 1.3335zm60.292-1.9478c1.4636-1.9796 3.4222-3.1763 5.9381-3.6282 6.9877-1.2551 7.0196-2.3558 0.0692-2.3874-8.8164-0.0401-11.699-1.1999-12.462-5.0139-0.73842-3.6921-1.9095-3.7741-12.622-0.88355-8.6171 2.3252-13.677 1.6157-22.731-3.1874-11.713-6.213-12.032-6.299-24.263-6.5366-10.23-0.1988-11.883-0.005-12.68 1.4851-1.6037 2.9965 0.25498 4.398 4.8115 3.6282 3.2335-0.54629 4.8187-0.26086 7.3953 1.3316 5.4405 3.3624 17.362 5.928 30.736 6.6147 24.883 1.2776 26.985 1.9768 29.396 9.7814 0.82743 2.6777 3.9791 2.0859 6.4113-1.2039zm9.6922-16.878c1.65-1.0036 4.3616-2.0956 6.0258-2.4264 9.9269-1.9737 14.688-4.7903 14.029-8.3003-0.83476-4.4496 1.9458-6.2828 10.781-7.1078 9.486-0.88582 13.365-6.542 5.3175-7.7534-8.1992-1.2341-14.998-1.5425-16.023-0.72682-0.62149 0.49423-4.505 1.1696-8.63 1.5007-4.125 0.33118-9.8988 0.89783-12.831 1.2592-3.6607 0.45123-6.9502 0.16516-10.5-0.91314-13.255-4.0263-42.269-5.7872-53.169-3.2269-3.85 0.90434-9.2054 2.0691-11.901 2.5884-10.893 2.0985-11.127 7.5851-0.34919 8.1828 7.3916 0.4099 9.1439 0.90249 21.009 5.9058 11.904 5.0196 16.175 3.5261 10.327-3.6109-7.2166-8.8068-3.7415-11.482 7.3774-5.6801 12.594 6.5721 16.878 7.4155 33.488 6.5928 25.381-1.2572 28.391 4.6542 4.1051 8.0633-12.12 1.71-12.56 1.86-12.56 4.49 0 1.4368 0.88507 1.9732 3.75 2.2729 2.0625 0.21575 4.425 0.46623 5.25 0.55663s2.85-0.65681 4.5-1.6605zm3.3957-32.082c2.5178-1.5943 0.26079-4.099-6.3772-7.0773-9.9252-4.4532-8.9145-9.9649 1.2227-6.6677 12.21 3.9714 39.951 6.0674 43.73 3.304 2.6576-1.9433 1.2749-4.4487-2.664-4.827-4.5382-0.43584-5.3738-4.4311-1.1223-5.3658 4.9253-1.0828 5.4697-1.4104 5.1388-3.0916-0.57498-2.9216-3.4151-3.9549-7.0485-2.5644-12.072 4.6197-29.069 3.7516-29.584-1.5109-0.4067-4.1566 2.0614-5.5017 11.808-6.4351 24.164-2.3141 31.566-7.1412 23.429-15.278-1.9821-1.9821-1.5926-2.0868-5.2548 1.4129-2.8398 2.7138-3.5557 2.9291-7.8983 2.3752-10.505-1.3401-9.4678-5.2495 3.019-11.376 14.255-6.9943 13.331-15.007-1.584-13.735-12.464 1.0629-11.878-5.388 0.6227-6.8572 7.2645-0.8538 8.0996-2.2044 5.7163-9.2446-2.3624-6.9784-3.217-7.7377-6.3779-5.6665-2.7792 1.821-7.7873 1.7215-8.4069-0.16706-0.74006-2.2556 3.7125-5.5428 6.8784-5.0782 3.6758 0.53949 4.4774-0.63843 2.4943-3.6652-2.8583-4.3624-8.0588-6.7784-12.996-6.038-2.9584 0.44364-5.191 0.21803-6.7764-0.68477-1.37-0.77-5.34-1.34-9.37-1.34-6.4964 0-7.023-0.16175-7.3193-2.2484-0.5816-4.0949 12.912-6.5784 20.695-3.8088 10.559 3.7575 14.048-0.77152 6.1217-7.9452-2.9995-2.7145-18.342-2.8636-24.768-0.24068-5.6 2.28-8.23 2.25-8.23-0.11 0-4.06 6.93-7.15 16.07-7.15 9.661 0 10.951-1.4481 6.2575-7.0257-2.2603-2.6862-3.1768-3.0977-5.9106-2.6541-2.4155 0.39198-4.0678-0.089-6.5192-1.8976-5.9205-4.368-11.709-2.8262-29.867 7.9547-9.3941 5.5775-12.323 6.5718-13.543 4.5974-1.5292-2.4744 14.818-13.886 25.016-17.463 17.217-6.0387 17.457-6.2987 10.216-11.083-2.5562-1.6893-5.5958-4.2768-6.7546-5.75-3.55-4.52-6.96-3.15-6.96 2.79 0 1.2712-0.675 2.5702-1.5 2.8868-2.4325 0.93343-4.5-0.40337-4.5-2.9096 0-3.0592-0.71227-3.407-8.4566-4.1302-11.128-1.0392-11.196-6.1885-0.0942-7.1092 9.554-0.79229 7.6946-2.1979-11.78-8.9051-7.243-2.4945-15.869-4.7704-19.169-5.0574-3.3-0.28704-7.2152-1.1358-8.7003-1.886-3.8489-1.9443-12.176-1.6868-20.557 0.63588-9.1866 2.5457-11.243 2.5565-11.243 0.059 0-2.8424-1.7472-3.5494-9-3.6421-3.575-0.0457-9.6499-0.78377-13.5-1.6402-6.5192-1.4503-7.1714-1.4379-9.5 0.18009-1.3751 0.9555-3.8507 2.1936-5.5012 2.7514-1.6506 0.55778-4.6483 2.132-6.6616 3.4982s-5.8378 3.054-8.4989 3.7506c-2.6612 0.6966-7.7635 2.7424-11.338 4.5463-3.575 1.8039-8.0546 3.6095-9.9547 4.0126-6.7757 1.4373-28.163 19.229-32.213 26.798-1.11 2.074-1.084 2.0811 1.4747 0.40451 2.8485-1.8664 9.1977-2.2049 21.693-1.1566 4.6518 0.39028 9.4298 0.16783 12.582-0.58577 5.0623-1.2104 5.1014-1.2008 10.291 2.5277 4.8004 3.4488 5.5852 3.6929 9.9921 3.1083 4.6871-0.62176 4.8491-0.55168 8.1123 3.5089 2.1848 2.7187 5.433 5.097 9.4469 6.917 4.8432 2.196 6.779 3.7825 9.2949 7.6177 6.1818 9.4234 12.101 14.494 16.712 14.316 5.7915-0.22365 5.7834-0.22883 3.9729 2.5342-1.9228 2.9346-0.91029 6.5386 3.5056 12.478 1.4246 1.916 3.8264 5.4171 5.3373 7.7802 2.7199 4.254 2.7992 4.2938 8 4.0164 6.9881-0.37277 8.2401 4.2003 1.452 5.3037-5.7976 0.94237-6.4556 2.2006-3.4664 6.6283 1.4064 2.0833 3.9781 8.5128 5.7148 14.288 4.1162 13.687 7.6452 17.454 17.276 18.44 11.114 1.138 13.636 1.6864 14.931 3.2462 2.696 3.2485-6.3657 5.7731-18.675 5.2029-16.952-0.78528-6.158 9.5068 11.52 10.984 8.4165 0.70327 10.719 3.2988 5.7915 6.5276-1.8961 1.2424-18.642 3.9566-21.52 3.4879-2.4329-0.39623-3.3803 0.32737-3.0914 2.3611 0.29345 2.0662 0.72793 2.2114 5.3196 1.7777 10.679-1.0088 25.459-0.12262 42 2.5181 27.135 4.3321 38.597 5.3122 41.396 3.5398zm-46.324-12.657c-3.0002-3.0002-0.6239-6.3677 4.9637-7.0341 6.6625-0.79455 11.566 3.3689 8.425 7.1535-1.6941 2.0413-11.314 1.9555-13.389-0.11947zm13.027-14.774c-10.363-2.2545-13.161-4.0667-10.755-6.9657 4.06-4.91 28.14-0.24 28.14 5.47 0 4.1011-3.9176 4.4404-17.401 1.5069zm19.153-22.745c-7.8976-3.4462-13.159-3.8003-23.752-1.5987-16.862 3.5046-18.741 2.9928-12.392-3.3757 6.3746-6.3946 28.942-13.791 33.392-10.944 1.262 0.80746 1.0535 1.3762-1.3144 3.5848-3.0824 2.8751-1.745 6.4248 2.4206 6.4248 0.98792 0 4.3877 0.675 7.5551 1.5s7.9456 1.5 10.618 1.5c4.4636 0 4.8334 0.18277 4.5399 2.2436-0.63874 4.4846-11.527 4.8283-21.068 0.66506zm-57.56-20.1c-2.1967-2.1967-1.3363-3.7992 2.05-3.8184 8.5214-0.0483 26.035-4.0788 32.95-7.5829 5.73-2.9 7.8-3.03 7.8-0.47 0 3.85-10.81 9.07-18.79 9.07-1.6428 0-4.9485 0.89012-7.3461 1.978-4.9146 2.2301-14.765 2.7161-16.659 0.82196zm-34.853-27.337c-0.82383-2.1469 1.8055-4.7241 7.5781-7.4278 9.366-4.3868 11.076 0.23469 2.0744 5.6057-6.0865 3.6315-8.7642 4.137-9.6526 1.8222zm56.247 0.69027c-1.58-2.54 26.09-20.15 31.65-20.15 2.76 0 4.75 1.71 4.75 4.09 0 1.91-1.96 2.91-5.7 2.91-1.3927 0-5.7434 1.9855-9.6682 4.4122-10.076 6.2297-20.036 10.367-21.041 8.7408zm-22.882-32.774c-3.1493-3.1493-0.26989-9.6837 6.0374-13.701 5.6614-3.6058 5.358-4.6784-1.3233-4.6784-12.066 0-4.367-5.6814 11.573-8.5404 15.546-2.7884 15.529-2.7875 17.392-0.92436 4.1109 4.1109 2.014 6.5191-11.434 13.132-11.777 5.7909-12.661 6.4312-14.5 10.5-1.897 4.1975-5.695 6.263-7.7457 4.2123zm-19.72-9.2c0-2.55 4.49-6.18 7.63-6.18 4.7642 0 0.79306 6.125-4.8849 7.5343-2.323 0.57655-2.75 0.36641-2.75-1.3533zm197.78 125.74c0.71656-3.766-13.064-6.3349-17.912-3.3389-1.2243 0.75664 0.8508 3.3465 3.5968 4.4891 3.5802 1.4898 13.972 0.65479 14.315-1.1502zm-1.28-18.66c10.36-2.42 10.07-3.26-1.15-3.26-11.523 0-15.61-1.0817-17.19-4.5498-1.4281-3.1344-3.727-3.1025-10.59 0.14713-6.6216 3.1352-8.5787 5.078-6.0809 6.0365 10.978 4.2128 21.777 4.715 35.012 1.6282zm-34.361-17.332c9.5399-4.7874 16.217-7.5652 47.361-19.702 13.844-5.3952 41.936-14.72 62.5-20.747 18.447-5.4061 30.693-9.1453 47.813-14.599 8.4224-2.6832 17.197-5.1657 19.5-5.5167 2.3026-0.35102 4.6366-0.9761 5.1866-1.3891 1.141-0.85671 38.121-12.6 82-26.039 29.101-8.913 33.51-10.289 45.5-14.201 15.025-4.9018 13.388-3.5918 13.112-10.491-0.8706-21.724-8.4009-32.223-20.26-28.247-5.1431 1.7241-19.701 6.286-32.351 10.137-12.65 3.8515-32.9 10.27-45 14.264-12.1 3.9937-26.725 8.7319-32.5 10.529-26.855 8.3583-46.454 14.572-57 18.072-16.188 5.3722-39.125 12.733-41.5 13.317-1.1 0.27079-12.8 4.1848-26 8.6979s-29.4 9.7408-36 11.617c-6.6 1.8764-14.25 4.5764-17 6.0002-4.1307 2.1385-7.1733 2.7525-17.5 3.5313-17.782 1.3411-17.291 1.0093-16.445 11.095 0.38015 4.5323 1.3107 9.758 2.0679 11.613 0.75719 1.8547 1.3738 5.2297 1.3701 7.5-0.0122 7.603 2.2533 19.628 3.6978 19.628 0.73983 0 5.8915-2.2815 11.448-5.07zm36.538 1.469c0.7503-1.9552-1.2203-3.3313-3.8034-2.6558-3.9885 1.043-3.4474 4.2567 0.71668 4.2567 1.3598 0 2.7488-0.72042 3.0867-1.6009zm-425.22-34.02c0.8955-0.34364 2.7948-2.9271 4.2207-5.7409 1.4259-2.8139 5.68-8.8624 9.4536-13.441 8.5002-10.314 8.552-11.078 0.86106-12.7-4.0222-0.84823-16.616-5.5798-22.5-8.4531-9.3271-4.555-21.179-9.4009-23.5-9.6084-4.1839-0.37402-19.191-4.4786-22.353-6.1138-4.5368-2.346-13.693-5.3332-18.033-5.883-2.1374-0.27076-5.0822-1.344-6.5441-2.3849-3.0978-2.2058-34.855-13.522-50.675-18.057-10.069-2.8864-16.089-4.6744-33.395-9.9182-3.575-1.0832-11.45-3.3861-17.5-5.1175s-11.45-3.5144-12-3.9623c-3.3856-2.7568-50.13-17.732-57-18.261-7.6438-0.58851-18.537 0.98995-20.77 3.0098-6.0622 5.4822-7.4037 15.485-3.1029 23.136l2.6271 4.6734 62.123 20.961c34.168 11.529 73.148 24.68 86.623 29.225 28.011 9.448 65.36 21.791 72 23.794 2.475 0.74663 9.675 2.9029 16 4.7917 8.6476 2.5824 30.158 9.7727 31.668 10.586 0.0925 0.0498 0.9009-0.1906 1.7964-0.53423zm387.4-24.992c3.1056-1.2702 5.7801-1.8416 21.136-4.5161 5.5925-0.974 18.229-6.2322 19.944-8.2992 0.91681-1.1047-2.0484-11.206-4.7747-16.266-2.6704-4.956-8.4476-6.5158-16.054-4.3344-2.2152 0.63532-4.0174 0.62092-5.2561-0.042-3.2802-1.7555-0.59209-4.6175 5.6486-6.0141 9.3173-2.0851 9.5018-4.1052 1.1735-12.851-6.2449-6.558-7.2725-5.8974-19.977 12.842-3.609 5.3236-3.8438 6.3924-2.251 10.245 0.38228 0.92469 0.10303 2.1245-0.63655 2.7349-0.72469 0.59814-2.6892 2.1828-4.3657 3.5216-5.0232 4.0113-11.71 19.876-10.122 24.014 0.7723 2.0126 9.504 1.4306 15.533-1.0354zm-8.6799-6.0984c0.59431-3.086 5.443-5.0862 7.4542-3.075 2.3768 2.3768 0.19317 4.7907-4.3337 4.7907-2.7219 0-3.3811-0.3624-3.1205-1.7156zm14.473-10.108c-2.587-0.50477-1.9462-3.1163 1.0436-4.253 6.1254-2.3289 22.545-3.3285 26.563-1.6171 8.2896 3.5306 5.8844 7.2088-3.8841 5.9396-3.784-0.49163-10.297-0.63563-14.473-0.32001-4.1761 0.31562-8.3386 0.42836-9.25 0.25054zm-29.04-1.43c7.5012-14.969 30.355-46.946 46.334-64.828 4.7072-5.2682 11.484-13.143 15.059-17.5 3.575-4.3568 11.9-14.059 18.5-21.56 6.6-7.5014 16.5-18.899 22-25.329 5.5-6.4296 12.741-14.762 16.091-18.516 6.4714-7.2529 24.255-28.19 28.37-33.4 1.3532-1.7135 6.5282-7.7742 11.5-13.468 13.073-14.972 23.666-27.607 30.089-35.89 3.0892-3.9836 9.2288-11.184 13.644-16 4.4147-4.8164 10.084-11.457 12.599-14.757 2.5149-3.3 6.2904-7.9024 8.39-10.228 5.2652-5.8309 3.3082-9.7604-13.592-27.292-10.779-11.182-9.4446-11.402-22.3 3.6724-5.9348 6.9591-17.766 20.732-26.291 30.605-8.525 9.8738-20.45 23.958-26.5 31.298-13.154 15.959-24.163 28.925-30.991 36.503-2.755 3.0573-9.7315 11.382-15.504 18.5-5.772 7.1178-13.693 16.316-17.601 20.441-3.9087 4.125-10.661 11.806-15.006 17.07-34.78 42.136-58.61 67.906-69.834 75.516-10.37 7.04-19.56 14.31-19.56 15.48 0 0.50422-1.8 2.053-4 3.4418-4.8833 3.0827-5.0192 4.707-0.62126 7.4251 4.4099 2.7255 10.284 9.2055 14.573 16.075 1.8885 3.025 5.3984 7.6465 7.7997 10.27 2.4014 2.6235 5.9646 8.136 7.9184 12.25 4.3588 9.1784 4.4527 9.1808 8.938 0.22998zm-324.75-2c16.877-12.056 21.744-14.565 33.23-17.128 1.4212-0.31714 4.1761-1.8418 6.122-3.3882l3.5379-2.8116-19.286-19.461c-10.61-10.7-19.77-19.91-20.35-20.46s-13.86-14.05-29.51-30-29.63-30.12-31.07-31.5c-1.4427-1.375-6.3613-6.325-10.93-11-4.5689-4.675-9.8346-9.957-11.701-11.738-1.8669-1.7808-28.799-28.463-59.849-59.293-36.768-36.507-57.045-55.953-58.147-55.762-2.5901 0.44818-15.39 17.255-20.405 26.793-2.4581 4.675-5.153 9.625-5.9887 11-0.83572 1.375-3.09 5.875-5.0095 10-3.4024 7.3118-7.6404 15.272-13 24.417-2.7624 4.7137-8.496 19.797-11.435 30.083-0.94295 3.3-2.6923 7.8946-3.8876 10.21-1.1952 2.3156-2.1731 5.0329-2.1731 6.0386 0 1.0056-0.88535 3.565-1.9674 5.6874-2.5219 4.9466-13.548 52.492-12.399 53.467 4.28 3.62 101.06 34.1 108.29 34.1 1.7469 0 5.8068 1.369 9.0219 3.0423s8.1156 3.4012 10.89 3.8397c2.7744 0.43857 6.2287 1.5734 7.6762 2.5219 3.6848 2.4144 63.961 23.596 67.147 23.596 0.8444 0 5.0623 1.5507 9.373 3.4461 13.22 5.8124 33.561 12.093 51.486 15.897 4.5597 0.9677 7.3751 0.53437 10.354-1.5935zm425.14-3.11c11.197-3.8002 76.933-25.13 111.11-36.054 11.34-3.63 21.15-6.59 21.81-6.59 0.65617 0 4.9978-1.575 9.6481-3.5s9.2859-3.5 10.301-3.5c1.0154 0 11.473-3.1791 23.238-7.0646 11.766-3.8855 23.867-7.6532 26.892-8.3725 3.025-0.71938 9.55-2.8824 14.5-4.8067s10.35-3.9362 12-4.4708c5.3626-1.7376 0.8666-18.704-11.534-43.524-3.2258-6.4566-6.9993-14.884-8.3855-18.727-2.5223-6.9924-14.909-31.807-18.396-36.854-1.0183-1.4738-3.9346-6.6363-6.4806-11.472-2.546-4.8359-7.2877-12.486-10.537-17-3.2494-4.5141-7.149-10.683-8.6657-13.708s-3.5534-6.6291-4.526-8.0092c-0.9726-1.38-2.2845-4.426-2.9154-6.7688-0.63084-2.3428-2.0514-4.8136-3.1567-5.4908-1.1053-0.67719-3.3012-3.3194-4.8797-5.8717-11.744-18.988-15.36-20.971-22.997-12.61-5.8042 6.3544-9.7177 10.922-37.484 43.75-8.6061 10.175-19.336 22.703-23.845 27.839-4.5086 5.1364-11.122 12.889-14.697 17.229-3.575 4.3393-10.714 12.737-15.865 18.661-5.1508 5.9242-12.576 14.552-16.5 19.174-3.9242 4.6212-15.235 17.676-25.135 29.012-9.9 11.335-20.015 23.079-22.477 26.098-2.4625 3.0186-7.7753 9.2352-11.806 13.815-10.801 12.271-10.759 12.046-3.5797 18.939 5.8238 5.592 9.0908 11.129 16.363 27.734 7.9385 18.127 9.0042 18.589 28 12.142zm-360.34-40.27c3.1924-2.6775 7.1664-6.2488 8.8312-7.936 1.6648-1.6873 5.1832-4.3315 7.8189-5.8761 7.0094-4.1078 6.3275-5.431-7.6709-14.885-7.6264-5.1507-14.941-11.178-20.5-16.892-4.75-4.89-10.66-10.18-13.14-11.76-2.48-1.57-9.45-7.87-15.5-13.99-6.05-6.11-15.88-15.93-21.85-21.82-10.25-10.12-34.83-34.67-126.15-126.01-62.066-62.083-61.682-61.776-71.215-56.846-12.522 6.4755-13.708 35.65-1.7848 43.934 6.0746 4.2202 26.375 23.81 70.641 68.167 24.948 24.999 48.509 48.554 52.359 52.344 20.972 20.644 83.95 84.019 102.87 103.52l21.875 22.544 3.805-4.8137c2.0928-2.6475 6.417-7.0044 9.6094-9.682zm210.72-12.241c1.6037-1.7721 1.5804-1.9029-0.43199-2.4291-3.8716-1.0125-1.7718-4.0254 5.548-7.9608 7.0516-3.7911 8.52-3.993 15.827-2.177 2.87 0.71 11.68-6.14 11.68-9.08 0-3.7922-15.774-6.9047-19.283-3.8048-5.11 4.51-10.72 6.77-10.72 4.33 0-1.74 8.2-7.01 10.91-7.01 4.453 0 5.9803-3.8379 2.6628-6.6915-6.6127-5.688-16.462-1.2042-19.07 8.6813-4.3737 16.58-2.6461 32.246 2.8823 26.137zm12.309-4.5955 2.8058-2.4684-3.2997-0.0316c-3.56-0.03-9.2 2.41-9.2 4 0 2.0442 6.8771 0.98434 9.6942-1.4941zm-30.891-2.3887c0.71666-0.45456 1.7536-3.9352 2.3043-7.7347 3.6222-24.991 5.2286-36.837 5.8863-43.408 0.84859-8.4788 4.0542-26.332 7.0025-39 1.0881-4.675 3.5765-16.15 5.5299-25.5 3.292-15.757 4.6141-21.874 8.9195-41.264 0.88708-3.9952 2.0007-10.295 2.4747-14 0.47401-3.7048 1.6289-9.6611 2.5665-13.236 2.6258-10.012 6.6558-28.883 7.4746-35 0.89979-6.7221 3.6725-21.389 5.5768-29.5 0.77477-3.3 2.3004-10.95 3.3904-17s3.1506-16.4 4.5792-23 3.4226-16.275 4.431-21.5c5.4423-28.199 11.341-56.967 16.136-78.693 0.50895-2.306 0.92536-4.8551 0.92536-5.6645 0-2.0468-8.4007-6.6101-15-8.1482-3.025-0.70503-8.9726-2.7336-13.217-4.5078-9.2668-3.8739-10.443-3.5921-11.289 2.7052-0.35538 2.6445-1.5119 8.2838-2.57 12.532-1.0581 4.2479-1.9239 8.8439-1.9239 10.213 0 1.3694-0.87672 6.2188-1.9483 10.776-1.0716 4.5577-3.3709 16.162-5.1097 25.787s-3.971 20.65-4.9604 24.5c-0.98941 3.85-2.3232 10.825-2.9641 15.5-1.6471 12.015-3.1355 19.073-4.6822 22.2-0.73448 1.4852-1.3354 4.7248-1.3354 7.1992 0 4.8044-2.9183 21.284-5.95 33.6-1.0154 4.125-2.5562 11.55-3.4239 16.5-3.9074 22.29-7.8064 41.524-9.6287 47.5-1.0902 3.575-1.9856 8.2478-1.9898 10.384-0.004 2.1362-0.42676 5.5112-0.93903 7.5-0.94341 3.6627-1.2338 5.1678-5.1357 26.616-2.0355 11.189-6.9786 31.968-13.798 58-6.1554 23.498-12.691 43.419-17.288 52.698-4.1427 8.361-3.3818 9.1259 11.849 11.911 3.4264 0.62645 7.8528 2.393 10.804 4.312 2.75 1.788 5.5667 3.5788 6.2594 3.9797 0.95473 0.55256 10.582 2.7572 15.241 3.49 0.275 0.0433 1.0864-0.29326 1.803-0.74781zm-146.09-6.79 3.79-1.85l-0.0847-12c-0.10872-15.401-4.0456-33.117-14.444-65-5.181-15.885-9.6734-31.373-11.023-38-0.44788-2.2-1.9098-6.475-3.2487-9.5-2.3392-5.285-7.8414-21.797-14.662-44-1.774-5.775-4.5114-14.1-6.0831-18.5-3.7088-10.383-21.948-65.678-34.469-104.5-5.4105-16.775-10.657-32.075-11.66-34-2.0489-3.9346-9.1425-24.616-13.376-39-2.8758-9.7695-5.0559-15.064-6.6207-16.079-4.1035-2.6612-33.389 11.047-43.828 20.516-2.9136 2.6428-16.664 12.979-21.897 16.46-1.9819 1.3184-7.8784 6.1919-13.103 10.83-5.225 4.6382-11.75 10.3-14.5 12.582-6.809 5.6499-35.221 34.593-42.276 43.066-3.1484 3.7813-8.2124 9.4063-11.253 12.5-6.22 6.32-12.97 16.77-12.97 20.06 0 1.4845 3.7504 5.7383 11.75 13.327 6.4625 6.1306 43.568 43.115 82.456 82.189 38.888 39.073 73.297 73.517 76.463 76.542 3.1659 3.025 13.198 12.937 22.294 22.027 27.148 27.132 48.865 45.064 64.537 53.291 3.639 1.9102 9.0793 1.5396 14.213-0.96822zm-433.24-3.12c6.305-9.5276 19.961-15.863 31.782-14.744 7.8735 0.74538 7.9573 0.64978 9.1858-10.477 0.39439-3.5719 1.5755-8.5219 2.6246-11 1.0492-2.4781 3.2325-10.285 4.8519-17.349 1.6194-7.0637 3.6191-13.589 4.4437-14.5 0.82464-0.91131 2.6254-5.1067 4.0017-9.3231s3.2412-9.0949 4.1442-10.841c0.90301-1.7462 2.2732-6.2029 3.0448-9.9038 1.7773-8.5241 2.7774-10.986 12.63-31.089 17.094-34.88 18.297-37.061 31.023-56.273 8.075-12.19 8.7109-13.725 6.4616-15.592-5.5114-4.5741-8.9237-25.673-6.3067-38.995 1.1301-5.7528-1.3002-4.6432-5.7771 2.6378-1.6936 2.7544-6.081 8.6566-9.7497 13.116s-9.418 12.72-12.776 18.357c-3.34 5.62-8.14 12.93-10.64 16.23-2.4995 3.3-6.587 10.05-9.0833 15s-5.1568 9.7019-5.9122 10.56c-1.37 1.57-11.4 26.01-11.4 27.81 0 0.53064-2.3132 4.4234-5.1406 8.6506-6.47 9.67-15.86 29.93-15.86 34.21 0 1.7771-1.7383 7.6277-3.8629 13.001-5.7557 14.557-8.7121 24.237-12.124 39.694-1.6903 7.658-4.0224 15.983-5.1825 18.5-5.8175 12.622-6.1153 30.997-0.36147 22.302zm455.41-3.196c15.137-4.0613 24.089-5.3273 36.366-5.1428 14.967 0.22487 15.198-0.0156 9.3953-9.7562-6.0144-10.095-11.384-20.548-12.653-24.631-0.68365-2.2-3.1519-8.95-5.485-15-4.3412-11.257-19.044-54.845-23.949-71-1.503-4.95-3.5505-11.475-4.55-14.5-0.99946-3.025-3.9234-12.25-6.4977-20.5s-5.3037-16.575-6.0654-18.5c-0.76168-1.925-2.5777-7.325-4.0355-12-1.4579-4.675-4.1966-13.45-6.0861-19.5s-4.2736-13.25-5.298-16c-3.527-9.4682-8.0257-24.39-8.0476-26.693-0.0121-1.2691-0.95885-4.3325-2.1039-6.8075-3.1182-6.7397-7.4945-19.724-8.9318-26.5-0.69999-3.3-1.6403-6.4864-2.0896-7.081-0.44932-0.59453-2.3876-5.7695-4.3073-11.5-1.91-5.73-5.81-16.94-8.65-24.92-5.83-16.36-7.58-21.65-12.59-38-11.64-37.98-9.79-36.335-33.11-29.375-6.22 1.856-12.57 3.375-14.13 3.375-5.4892 0-5.9616 2.7197-1.9976 11.5 3.321 7.3561 5.1275 11.948 7.4746 19 1.2814 3.85 3.6593 10.6 5.2842 15s3.8435 10.7 4.9302 14c20.225 61.415 43.212 130.17 45.921 137.36 1.319 3.4987 3.0295 8.8987 3.801 12 1.2589 5.0602 2.5201 9.1457 5.7537 18.639 4.7243 13.869 8.9349 27.073 10.364 32.5 0.94149 3.575 2.3367 7.5258 3.1004 8.7796 2.14 3.5 12.31 34.62 12.31 37.65 0 1.4707 0.70607 4.0394 1.569 5.7082 2.4015 4.644 6.0375 16.573 7.427 24.366 0.6864 3.85 2.9636 14.2 5.0606 23 2.0969 8.8 3.9924 19.378 4.2122 23.506 0.36201 6.7998 1.8347 11.994 3.4005 11.994 0.32934 0 2.226-0.43659 4.2148-0.97021zm66.127-8.0505c1.23-2.3 0.56-3.98-1.6-3.98-1.7571 0-2.8518 2.4053-2.048 4.5 0.8032 2.0931 2.3702 1.8696 3.6494-0.52067zm129.12-12.353c3.5834-2.9558 8.1642-7.3433 10.179-9.75 2.0153-2.4067 7.8334-9.3183 12.929-15.359 5.0958-6.0407 11.965-14.232 15.265-18.202 3.3-3.9704 9.6-11.218 14-16.105 4.4-4.8876 11.825-13.54 16.5-19.227 4.675-5.6872 11.425-13.583 15-17.545 10-11.085 22.823-26.044 29.927-34.913 3.535-4.4134 10.97-13.199 16.522-19.524 5.5523-6.325 12.07-13.975 14.483-17 2.4134-3.025 5.1382-6.1843 6.0552-7.0207 0.91697-0.83639 2.9823-3.3181 4.5896-5.5149 5.0998-6.9702 22.116-26.798 26.858-31.296 2.5116-2.3821 4.8262-5.3655 5.1435-6.6297 2.2362-8.9095-45.597-54.605-92.273-88.15-4.5066-3.2388-15.208-10.972-23.782-17.185-15.175-10.997-36.037-24.307-41.144-26.249-1.3926-0.52946-4.4896-2.3095-6.8822-3.9557-5.7323-3.9439-7.0811-3.2659-7.8341 3.9379-0.58858 5.6312-1.3434 9.3782-4.243 21.063-1.52 6.1255-7.8958 36.648-9.9222 47.5-0.71891 3.85-2.9647 14.65-4.9906 24s-4.9837 24.2-6.5728 33c-3.3415 18.504-8.1754 40.541-9.9287 45.263-0.6663 1.7944-0.95764 3.924-0.64742 4.7324 0.31022 0.80843-0.0283 3.1653-0.75216 5.2375-0.72391 2.0722-1.6273 6.6926-2.0075 10.268-0.38022 3.575-1.5789 10.325-2.6637 15-2.0749 8.942-9.1131 43.892-11.579 57.499-0.79725 4.3993-2.938 14.749-4.7571 23-6.2309 28.26-10.052 48.383-9.3256 49.109 0.39974 0.39974 3.2658 1.0714 6.3691 1.4925 3.1032 0.42112 8.3904 2.1053 11.749 3.7426 3.3588 1.6373 7.6902 3.6259 9.6254 4.4191 1.9351 0.79319 5.675 3.3087 8.3108 5.59 6.2101 5.3748 7.9586 5.2391 15.797-1.2264zm-139.31-12.38c3.96-2.3244 5.8828-2.7621 12.527-2.8514 9.2251-0.12398 8.8484 0.25409 11.663-11.704 1.1393-4.8409 3.5743-13.616 5.411-19.5 1.8368-5.8841 3.8918-14.073 4.5668-18.198 1.2487-7.6316 3.9367-20.866 5.8902-29 2.6653-11.098 6.2191-28.29 8.5786-41.5 0.88414-4.95 3.8099-20.25 6.5017-34s5.1932-27.25 5.5586-30 1.2669-7.25 2.0034-10c0.73646-2.75 1.8584-8.15 2.4931-12 1.6493-10.004 9.6314-50.442 11.942-60.5 1.074-4.675 2.3914-11.425 2.9274-15 1.3191-8.7971 8.4217-45.702 11.643-60.5 3.755-17.247 4.1942-23.054 1.835-24.263-4.3-2.208-33.77-7.56-67.36-12.234-25.006-3.4804-85.175-2.4345-112 1.9468-6.325 1.0331-15.411 2.1419-20.191 2.464-20.974 1.4136-27.923 4.3855-24.702 10.565 1.0867 2.085 3.0474 7.7795 4.357 12.655 1.3096 4.875 3.7179 12.689 5.3518 17.364 6.8557 19.616 10.984 31.917 12.92 38.5 1.1324 3.85 3.6463 11.5 5.5864 17 1.9402 5.5 4.1832 12.025 4.9844 14.5 1.6703 5.1593 16.791 50.499 19.843 59.5 1.119 3.3 2.8418 8.7 3.8285 12 0.98671 3.3 3.3781 10.725 5.3143 16.5 15.813 47.168 19.497 58.609 22.701 70.5 2.3313 8.6531 7.6665 24.914 12.304 37.5 1.9252 5.225 4.3984 12.65 5.496 16.5s3.3917 10.6 5.0981 15 3.3991 9.575 3.7616 11.5c0.36252 1.925 1.8654 6.2 3.3398 9.5s2.9612 7.125 3.3041 8.5c0.67753 2.717 6.2881 12 7.2527 12 0.32667 0 2.6991-1.2357 5.272-2.7459zm-351.54-219.75c2.1181-2.75 5.5093-7.5589 7.5362-10.686 3.7114-5.727 31.134-36.208 46.438-51.617 15.308-15.413 38.422-34.711 50.836-42.444 2.4258-1.511 7.1012-5.009 10.39-7.7732 3.3287-2.798 7.7615-5.4997 10-6.0949 5.8508-1.5556 13.406-7.4012 11.729-9.0751-0.88465-0.88316-10.553 2.2552-15.787 5.1247-2.1567 1.1823-8.4213 4.6186-13.921 7.6361-5.5 3.0175-12.025 6.381-14.5 7.4743-12.211 5.3946-25.44 13.379-33.129 19.997-3.7406 3.2194-8.1515 6.0803-10.001 6.4865-2.1798 0.47877-5.2097 2.7184-8.8808 6.5645-3.0647 3.2108-8.2536 7.6251-11.531 9.8096-12.657 8.4367-17.03 11.864-18.959 14.858-1.1 1.7077-2.756 3.2476-3.68 3.422-2.1201 0.4003-38.495 33.457-43.84 39.841-5.2309 6.2478-5.0263 7.0306 1.2696 4.8556 10.305-3.56 17.001-2.4957 24.07 3.8258 4.9569 4.4331 7.1595 4.027 11.959-2.2047z"/>
</svg>
