<?xml version="1.0" encoding="UTF-8" standalone="no"?>
<!-- Created with Inkscape (http://www.inkscape.org/) -->

<svg
   version="1.1"
   id="svg1791"
   width="783.86383"
   height="654.1684"
   viewBox="0 0 783.86383 654.1684"
   sodipodi:docname="fish4b.svg"
   inkscape:version="1.2.2 (732a01da63, 2022-12-09, custom)"
   xmlns:inkscape="http://www.inkscape.org/namespaces/inkscape"
   xmlns:sodipodi="http://sodipodi.sourceforge.net/DTD/sodipodi-0.dtd"
   xmlns="http://www.w3.org/2000/svg"
   xmlns:svg="http://www.w3.org/2000/svg">
  <defs
     id="defs1795" />
  <sodipodi:namedview
     id="namedview1793"
     pagecolor="#ffffff"
     bordercolor="#000000"
     borderopacity="0.25"
     inkscape:showpageshadow="2"
     inkscape:pageopacity="0.0"
     inkscape:pagecheckerboard="0"
     inkscape:deskcolor="#d1d1d1"
     showgrid="false"
     inkscape:zoom="1.1761364"
     inkscape:cx="387.71013"
     inkscape:cy="324.79226"
     inkscape:window-width="1920"
     inkscape:window-height="1031"
     inkscape:window-x="0"
     inkscape:window-y="25"
     inkscape:window-maximized="1"
     inkscape:current-layer="svg1791" />
  <g
     inkscape:groupmode="layer"
     id="layer1"
     inkscape:label="Layer 1"
     transform="translate(-4.0000001,-26.913958)">
    <path
       id="path1909"
       style="fill:#000000;stroke-width:1.33333"
       d="M 421.03711 26.972552 C 416.27162 26.818555 411.04949 26.974752 404 27.400286 C 394.10001 27.997889 378.50065 28.533609 369.33398 28.589739 C 349.1265 28.713496 338.8874 29.985676 324 34.224505 C 317.76668 35.999297 311.16732 37.67852 309.33398 37.954974 C 304.56395 38.674258 289.23745 45.242957 285.49219 48.173724 C 283.74645 49.539809 279.8471 51.304585 276.82617 52.095599 C 270.66949 53.707695 256.6788 61.683317 244.73828 70.388567 C 240.37754 73.567771 233.76157 77.610994 230.03711 79.372942 C 221.81204 83.264022 214.54003 90.2575 205.5918 102.87685 C 204.63355 104.22824 202.96718 105.33388 201.89063 105.33388 C 200.81405 105.33388 199.39824 106.68388 198.74414 108.33388 C 196.71538 113.45152 184.22313 125.33388 180.87109 125.33388 C 179.89439 125.33388 178.4103 126.8348 177.57422 128.66982 C 175.66966 132.84986 168.49489 137.32102 163.68164 137.32802 C 161.67284 137.33076 156.87154 136.13417 153.01367 134.66786 C 139.61456 129.57514 129.01597 131.55289 117.34766 141.32216 C 113.83615 144.26216 110.48468 146.66591 109.90039 146.66591 C 109.31609 146.66591 107.44922 147.9718 105.75195 149.5663 C 103.53841 151.64583 102.66602 153.95027 102.66602 157.7206 L 102.66602 162.97646 L 111.14063 162.07021 C 119.43804 161.18164 119.69239 161.25064 123.47266 165.38661 C 130.93499 173.5511 133.65926 175.68 138.80664 177.3788 C 141.66351 178.32164 144 179.48598 144 179.96474 C 144 182.67713 135.10628 188.3774 124.36133 192.55263 C 117.59379 195.18232 111.71846 197.33388 111.30469 197.33388 C 109.70081 197.33388 96.059084 208.12216 89.855469 214.29677 C 78.744264 225.356 69.923171 237.85056 65.589844 248.66591 C 60.747364 260.75203 55.999449 278.29289 55.974609 284.19521 C 55.902899 301.23666 48.904044 333.87692 43.238281 343.58974 C 39.948466 349.22948 25.367745 359.95885 10.539063 367.65224 C 6.9423797 369.51827 4.0000001 371.73595 4.0000001 372.57997 C 4.0000001 373.42399 7.2711256 375.22673 11.269531 376.58583 C 21.004113 379.89473 43.955782 378.71603 49.613281 374.61708 C 51.600253 373.17749 53.914342 371.9999 54.755859 371.9999 C 58.166062 371.9999 73.377956 363.69683 75.943359 360.43544 C 78.603363 357.0538 78.77592 357.01867 81.332031 359.33193 C 87.153318 364.60012 104.30662 362.84664 111.44141 356.2538 C 112.84874 354.95335 116.7 352.03504 120 349.76747 C 123.3 347.4999 126.99076 344.52482 128.20117 343.15615 C 132.64959 338.12602 137.04063 328.48312 137.95703 321.73427 L 138.89844 314.80263 L 144.60547 320.67372 C 153.03367 329.3457 173.92266 338.64115 185.0293 338.66005 C 188.26991 338.66558 190.87549 337.29912 195.1582 333.35146 C 198.32961 330.42815 201.25191 328.36314 201.65039 328.76161 C 202.04885 329.16009 206.29081 329.70228 211.07813 329.96669 C 217.78252 330.337 220.87829 329.8599 224.55273 327.89052 C 227.17648 326.48426 229.95015 325.33388 230.7168 325.33388 C 231.48346 325.33388 233.32904 324.20004 234.81641 322.81435 C 237.6536 320.1711 249.92625 317.60179 265.44922 316.40224 C 272.6435 315.8463 275.22474 316.23152 279.72852 318.52919 C 282.75237 320.07184 285.87607 321.33388 286.66992 321.33388 C 289.10328 321.33388 301.7652 331.3624 306 336.64443 C 308.2 339.38844 310.66658 342.30493 311.48047 343.1249 C 313.74619 345.40757 301.37841 357.57487 291.56836 362.71474 C 287.03884 365.08794 281.78237 368.46571 279.88672 370.2206 C 275.18828 374.57009 262.23786 376.65476 252.48828 374.63075 C 248.55255 373.8137 245.33398 372.58748 245.33398 371.90615 C 245.33398 371.22481 244.47389 370.66591 243.42383 370.66591 C 242.37377 370.66591 240.22676 368.85744 238.65234 366.64638 C 235.01237 361.5345 228.64683 358.21963 224.15625 359.09755 C 214.98314 360.89094 209.94108 362.78797 202.4082 367.27529 C 196.43547 370.83323 191.14727 372.69282 182.7832 374.17958 C 176.48614 375.29891 165.93398 377.37064 159.33398 378.7831 C 152.73399 380.19558 146.24002 381.34669 144.9043 381.34169 C 141.91641 381.33034 139.33264 378.86829 138.04102 374.79872 C 137.20902 372.17734 136.44683 371.84296 132.89844 372.55263 C 127.00176 373.73197 119.42689 379.11486 108.89453 389.60732 C 98.534353 399.92825 89.560159 405.72823 84.896484 405.11708 C 80.771587 404.57654 77.333984 407.47587 77.333984 411.49599 C 77.333984 413.23953 76.582682 414.68558 75.666016 414.70888 C 74.66855 414.73426 74.961585 415.48151 76.394531 416.56825 C 79.056194 418.58685 78.477791 423.58014 74.953125 429.02333 C 73.75483 430.87388 72.741252 436.823 72.339844 444.35732 C 71.769533 455.06184 71.260165 457.12189 68.429688 460.15615 C 65.741862 463.03748 65.141747 465.1283 64.986328 472.15615 C 64.859023 477.91273 65.532521 482.04723 67.066406 484.93349 C 68.313661 487.28041 69.333984 491.41829 69.333984 494.1288 C 69.333984 497.5471 70.783989 501.24416 74.070313 506.19521 C 76.676177 510.12111 79.108445 513.33388 79.474609 513.33388 C 79.840776 513.33388 83.473255 509.73388 87.546875 505.33388 C 95.280848 496.98027 97.787342 495.76022 99.199219 499.66591 C 101.22609 505.27287 107.69614 514.66591 109.53125 514.66591 C 110.1678 514.66591 111.64444 512.27853 112.8125 509.35927 C 115.03202 503.81216 123.24484 497.32865 125.30469 499.49794 C 127.4564 501.76398 132 510.77246 132 512.77333 C 132 515.93256 135.88599 522.66591 137.70898 522.66591 C 138.61113 522.66591 140.14901 520.85959 141.12695 518.65029 C 142.10488 516.441 144.05205 514.01927 145.45313 513.26943 C 147.68726 512.07375 148 512.37908 148 515.7538 C 148 517.87017 148.65781 521.49124 149.46289 523.80068 C 150.78821 527.60248 151.451 527.9999 156.4707 527.9999 C 161.28038 527.9999 162.20623 528.48495 163.45703 531.66591 C 168.57129 544.67218 170.31474 557.07991 167.85938 563.00771 L 166.29297 566.787 L 163.69531 561.06044 C 161.79691 556.87515 161.29208 553.63097 161.81836 549.01161 C 162.41646 543.76181 162.11868 542.46765 160.05859 541.36513 C 158.03524 540.28225 156.81655 540.90441 153.44531 544.74404 L 149.3125 549.45107 L 148.04102 546.11122 C 147.34252 544.27408 146.3796 538.39771 145.90039 533.05263 C 144.76364 520.37358 141.2747 517.45302 139.37305 527.58974 C 138.2197 533.7376 133.60709 542.99243 132.14648 542.08974 C 131.55005 541.72111 130.01623 538.55014 128.73828 535.04286 C 127.46032 531.53557 125.52832 526.68632 124.44531 524.26552 C 123.36231 521.84472 122.13793 517.77931 121.72461 515.23232 C 121.31129 512.68531 120.44965 510.27694 119.80859 509.88075 C 116.65122 507.92939 113.62239 511.28699 110.01563 520.73818 C 105.701 532.04421 105.81764 532.07551 99.990234 518.04872 C 97.578615 512.24387 95.864952 509.88885 93.845703 509.5995 C 90.822669 509.16633 89.386231 511.73473 86.636719 522.48622 C 85.179564 528.18416 85.097446 528.2512 82.734375 525.71474 C 81.407094 524.29007 78.717234 520.58152 76.755859 517.4745 C 74.794484 514.36749 72.472898 512.05977 71.595703 512.3456 C 70.63794 512.65768 69.513666 517.7527 68.783203 525.0995 C 67.916206 533.81954 67.054487 537.33388 65.783203 537.33388 C 63.215063 537.33388 63.590497 541.77797 66.470703 545.48622 C 67.82907 547.23512 70.033528 550.99537 71.371094 553.84169 C 75.054599 561.68015 93.578838 581.15876 103.50195 587.6288 C 112.68596 593.61692 120.76665 599.23623 121.33398 600.02919 C 121.70064 600.54169 124.09935 602.02923 126.66602 603.33388 C 129.23268 604.63854 131.63334 606.13049 132 606.65029 C 132.36667 607.17009 136.86668 610.21848 142 613.42372 C 147.13333 616.62899 152.07328 619.96622 152.97656 620.83974 C 153.87985 621.71328 157.47986 623.42134 160.97656 624.63661 C 164.47328 625.85189 169.73269 627.96076 172.66602 629.32216 C 175.59935 630.68357 179.50066 632.17984 181.33398 632.64833 C 184.76246 633.52445 189.57599 635.41652 193.64844 637.48818 C 194.92183 638.13596 196.55633 638.66591 197.28125 638.66591 C 198.00617 638.66591 202.66444 640.54587 207.63281 642.84365 C 212.60117 645.14143 227.42725 650.57939 240.57813 654.92763 C 253.729 659.27588 265.50375 663.37708 266.74414 664.04091 C 272.58193 667.16521 309.43478 677.14467 323.33398 679.36513 C 337.67493 681.65585 346.42115 681.65541 360.42969 679.35927 C 369.17541 677.92575 372.80085 677.80988 374.5625 678.91005 C 377.74315 680.8964 383.52556 679.29447 384.33398 676.20302 C 384.98533 673.71227 387.12175 672.90711 398.9707 670.68544 C 402.43776 670.03537 408.43842 667.88064 412.30469 665.89638 C 418.87971 662.52193 423.96521 660.79851 449.33398 653.35536 C 454.83398 651.74169 460.23399 649.97559 461.33398 649.42958 C 462.43398 648.88355 468.13335 647.33551 474 645.99013 C 479.86666 644.64475 485.85038 642.74598 487.29688 641.77138 C 488.74337 640.79678 491.02704 639.9999 492.37109 639.9999 C 493.71516 639.9999 498.8308 637.81885 503.74023 635.15419 C 508.64966 632.48953 515.06666 629.13045 518 627.6874 C 522.97746 625.23874 527.49529 622.43723 544.88086 611.02333 C 553.21009 605.55508 565.61537 593.79872 572.91211 584.45693 C 587.85342 565.32802 603.59791 548.29256 614 540.00185 C 621.65192 533.90306 627.0728 527.26371 636.32031 512.66591 C 638.64309 508.99924 642.39472 503.78815 644.6582 501.08583 C 646.92171 498.38354 650.14332 493.43197 651.81641 490.08193 C 653.48949 486.73189 656.01565 483.37191 657.42969 482.61513 C 658.84373 481.85837 660 480.0967 660 478.69911 C 660 477.30153 660.52373 475.83315 661.16406 475.4374 C 662.73829 474.46448 669.32732 460.8702 669.35742 458.5331 C 669.383 456.54602 675.50957 451.12546 685.33398 444.39443 C 691.98862 439.83511 704.69756 426.85794 708.57422 420.66591 C 709.95158 418.46591 713.52209 413.72076 716.50781 410.12099 C 719.49356 406.52121 722.61641 402.32252 723.44727 400.78896 C 724.27812 399.2554 727.39875 393.74415 730.38281 388.54286 C 733.36686 383.34157 736.79621 375.84221 738.00391 371.87685 C 739.2116 367.91148 742.25598 360.34493 744.76758 355.0624 C 747.27919 349.77986 749.33398 344.61855 749.33398 343.59365 C 749.33398 342.56876 750.75872 339.05019 752.5 335.77529 C 754.24129 332.50038 756.12906 328.36234 756.69531 326.57802 C 758.62907 320.48467 772.23932 292.67269 774.5957 289.9999 C 775.88874 288.53323 778.38433 284.93322 780.14063 281.9999 C 781.89693 279.06657 784.23399 276.66591 785.33398 276.66591 C 786.63198 276.66591 787.48484 275.08632 787.76367 272.16396 C 788.32823 266.25829 786.50631 264.51555 782.47461 267.10146 C 780.74622 268.21004 776.64319 269.82591 773.35547 270.69325 C 765.8229 272.68046 756.36685 277.44944 747.9043 283.52919 L 741.33203 288.2499 L 741.32227 278.45888 C 741.31611 273.07343 742.29923 264.46721 743.50781 259.33388 C 747.20425 243.63364 753.50505 222.07281 754.78711 220.73427 C 756.71049 218.72619 756.2182 213.33388 754.11133 213.33388 C 749.59818 213.33388 739.45355 219.08907 733.61133 224.96474 L 727.2793 231.33388 L 727.64063 221.33388 C 728.07579 209.31595 730.35242 190.441 732.14258 183.9999 C 734.89923 174.08126 733.58608 129.36719 730.2832 120.66591 C 729.44812 118.46591 727.75719 115.57336 726.52539 114.23622 C 724.3655 111.89163 724.18089 111.91471 721.34961 114.90224 C 719.73492 116.60605 716.71356 120.44734 714.63477 123.4374 C 712.55599 126.42745 708.75321 130.47746 706.18359 132.4374 C 701.97226 135.64953 700.40229 135.9999 690.25586 135.9999 C 681.28768 135.9999 677.53473 135.35191 671.79688 132.81435 C 665.54381 130.04895 664.22179 128.7761 661.76172 123.14833 C 655.44617 108.70061 654.21597 101.2779 655.22656 83.728411 C 655.96055 70.98238 656.76018 66.325873 658.82227 62.804583 C 663.41209 54.966819 657.67241 53.853591 649.24219 60.947161 C 644.29629 65.10886 631.0667 90.919458 630.16211 98.171771 C 629.80802 101.01052 628.57676 106.90846 627.42578 111.27919 C 626.27481 115.64993 625.33398 120.90123 625.33398 122.94716 C 625.33398 124.99309 624.82689 126.66591 624.20898 126.66591 C 623.59107 126.66591 619.98927 122.91722 616.20313 118.33388 C 612.417 113.75055 608.81127 109.39924 608.19141 108.66591 C 607.57157 107.93257 605.32532 105.7819 603.19922 103.88466 C 601.07312 101.98742 597.53398 98.129945 595.33398 95.314349 C 593.13399 92.498751 586.83398 86.875188 581.33398 82.816302 C 575.83399 78.757416 569.44224 73.441705 567.13086 71.003802 C 563.67938 67.36342 549.00329 59.999896 545.19922 59.999896 C 544.67059 59.999896 539.90869 57.547227 534.61719 54.548724 C 529.3257 51.550223 522.66092 48.271304 519.80469 47.263567 C 516.94846 46.25583 512.67261 44.540434 510.30469 43.451067 C 503.86772 40.489724 490.3479 37.33388 484.09961 37.33388 C 481.06566 37.33388 475.13299 36.171787 470.91797 34.751849 C 466.70294 33.331911 459.97277 31.797418 455.96094 31.341692 C 451.9491 30.885967 442.66731 29.568453 435.33398 28.413958 C 430.11213 27.591876 425.8026 27.126548 421.03711 26.972552 z M 293.77734 144.08974 C 295.81242 144.07764 298.186 144.13509 301.07031 144.24013 C 311.30509 144.61285 315.1256 145.24006 316.05078 146.70302 C 318.49201 150.56326 317.33284 154.60351 312.53125 158.96865 C 307.43862 163.5984 303.44846 170.0291 304.55664 171.82216 C 304.92278 172.4143 308.39685 172.41055 312.27734 171.8124 C 325.23023 169.81577 355.21869 168.44797 361.26758 169.57802 C 367.98513 170.83299 377.33398 176.42383 377.33398 179.1874 C 377.33398 181.78347 365.52701 186.5104 353.56836 188.70107 C 342.43467 190.74062 330.42288 193.83586 328.11914 195.25966 C 327.3206 195.75318 326.67971 196.8726 326.69531 197.74599 C 326.73205 199.79491 334.99403 205.43687 342.66602 208.65224 C 345.96601 210.03529 349.61375 211.9535 350.77148 212.91591 C 351.92923 213.87831 353.60779 214.66591 354.50195 214.66591 C 359.5247 214.66591 376 228.44122 376 232.64052 C 376 239.51791 350.13387 246.77194 339.72461 242.81435 C 338.01073 242.16274 334.01365 239.46274 330.84375 236.81435 C 317.42913 225.60676 313.55837 234.96896 323.52148 254.52333 C 327.31237 261.96365 338.20913 273.46362 344 276.13661 C 347.3 277.65985 351.19935 279.4618 352.66602 280.14052 C 359.72773 283.4084 375.20336 286.73362 386.64453 287.4413 C 393.62314 287.87297 401.43334 288.5029 404 288.84169 C 406.56667 289.18047 416.76603 289.9459 426.66602 290.54091 C 448.71379 291.86606 455.60488 293.59885 462.58789 299.57607 C 467.51915 303.79703 468 304.77558 468 310.60732 C 468 317.82819 466.43319 319.7783 459.78516 320.83779 C 456.28748 321.39522 454.0475 320.67242 449.33398 317.46474 C 446.03399 315.21901 442.31437 313.37062 441.06836 313.35732 C 439.82234 313.34397 437.16055 315.48477 435.1543 318.11513 C 431.4039 323.03213 422.55789 328.11837 412 331.42568 C 408.7 332.45941 405.84935 333.31025 405.66602 333.31825 C 405.48269 333.32618 405.33398 332.43388 405.33398 331.33388 C 405.33398 330.23388 404.71533 329.33388 403.95898 329.33388 C 403.20263 329.33388 402.18517 328.28322 401.69922 326.9999 C 401.21327 325.71657 400.06838 323.90969 399.1543 322.98427 C 398.24022 322.05884 397.08729 318.60949 396.59375 315.31825 C 395.95005 311.02581 395.08075 309.33469 393.51563 309.34169 C 391.20804 309.35127 373.27968 321.23244 366.62695 327.16005 C 362.09916 331.19434 358.61227 331.56635 353.95313 328.51357 C 351.13357 326.66613 350.66602 325.33959 350.66602 319.17958 C 350.66602 312.97195 350.3177 311.9999 348.08984 311.9999 C 346.6726 311.9999 345.17012 313.07879 344.75195 314.39638 C 344.33376 315.71395 340.98289 319.08548 337.30469 321.89052 C 333.62649 324.69556 329.38774 328.7173 327.88477 330.82802 L 327.88477 330.82997 C 326.38181 332.94069 324.66626 334.66591 324.07227 334.66591 C 323.47829 334.66591 321.5933 330.92789 319.88477 326.35927 C 317.33401 319.53859 314.78123 316.07389 305.60742 306.98232 C 291.82553 293.324 290.90542 292.71929 277.87695 288.78115 C 266.00511 285.1926 247.17708 277.14092 239.69336 272.45107 C 236.95793 270.73684 233.79502 269.33388 232.66406 269.33388 C 229.52512 269.33388 219.64854 259.59895 213.50195 250.44521 C 208.56276 243.08956 207.99882 241.4182 207.98242 234.1249 C 207.9724 229.65617 207.56316 224.50443 207.07422 222.67568 C 206.25674 219.61804 206.67311 219.77886 212.23828 224.67568 C 218.5427 230.22295 240.78662 242.66591 244.39844 242.66591 C 248.40663 242.66591 250.27207 238.78058 251.86523 227.10927 C 254.64391 206.75269 254.3421 202.46525 249.60742 195.13271 C 247.31092 191.57617 242.98791 186.16742 240.00195 183.11122 L 234.57227 177.55263 L 240.19727 169.35732 C 243.29062 164.84969 249.16181 158.5051 253.24414 155.25771 C 259.53135 150.25637 261.58369 149.35265 266.66602 149.34365 C 269.96601 149.33782 275.96666 148.07321 280 146.53505 C 284.61901 144.77357 287.67212 144.12604 293.77734 144.08974 z " />
    <path
       style="fill:#008000;stroke-width:1.33333"
       d="m 463.89463,413.92504 c 8.1087,-0.75005 16.5284,-4.07801 23.20902,-9.17357 2.46478,-1.87998 5.12564,-3.41814 5.91304,-3.41814 0.7874,0 4.42671,-3.01085 8.08735,-6.69078 8.22867,-8.27204 21.21498,-33.95351 25.60835,-50.64255 4.66205,-17.70967 5.87479,-40.10883 3.17632,-58.66667 -1.22628,-8.43333 -2.75289,-15.90333 -3.39248,-16.6 -0.63959,-0.69666 -1.16315,-3.39666 -1.16347,-6 -3.3e-4,-2.60333 -1.35033,-8.99773 -3,-14.20977 -3.26344,-10.3106 -7.27652,-14.84101 -16.54689,-18.67991 -2.81555,-1.16593 -7.70004,-3.28677 -10.8544,-4.71298 -8.98488,-4.0624 -21.45904,-7.59814 -32.16151,-9.11602 -5.39761,-0.76552 -11.07896,-1.68293 -12.62523,-2.03869 -1.54626,-0.35577 -4.91138,-0.91731 -7.47805,-1.24785 -2.56667,-0.33056 -8.26667,-1.25188 -12.66667,-2.04739 -4.4,-0.79551 -18.5,-1.29752 -31.33333,-1.11559 -19.72578,0.27966 -23.33334,0.0296 -23.33334,-1.61717 0,-1.61489 3.87556,-2.02255 22.66667,-2.38417 23.59818,-0.45414 39.63604,0.89434 63.33334,5.32516 18.65508,3.48805 25.6908,5.60314 41.19694,12.38473 l 13.05689,5.71041 -2.4202,-4.82537 c -1.33111,-2.65396 -5.10807,-10.52539 -8.39325,-17.49205 -5.24386,-11.12032 -7.0497,-13.56192 -14.79234,-20 -4.85062,-4.03334 -9.83078,-8.29686 -11.067,-9.4745 -4.67123,-4.44982 -9.32324,-6.30026 -22.91438,-9.1147 -7.7,-1.59451 -15.8,-3.42432 -18,-4.06627 -2.2,-0.64195 -7.6,-1.56163 -12,-2.04375 -4.4,-0.4821 -13.1,-2.13148 -19.33333,-3.66524 -8.98688,-2.2113 -15.75019,-2.80733 -32.66667,-2.87877 -11.73333,-0.0496 -23.58333,0.38708 -26.33333,0.97031 -4.10499,0.8706 -5,0.68569 -5,-1.033 0,-3.67943 6.31086,-4.69446 29.0868,-4.67826 15.6268,0.0107 24.42865,0.61294 29.57987,2.02251 4.03333,1.10367 11.83333,2.58167 17.33333,3.28444 9.66953,1.23555 18.68843,2.99545 40.24205,7.85268 9.79298,2.20691 10.18659,2.20448 8.97719,-0.0553 -0.69567,-1.29987 -2.79584,-3.43367 -4.66705,-4.74179 -1.87122,-1.30811 -5.61095,-4.37728 -8.31054,-6.82039 -2.69957,-2.4431 -7.60713,-5.63557 -10.90569,-7.09437 -3.29856,-1.4588 -8.09856,-3.58155 -10.66667,-4.71723 -2.5681,-1.13566 -7.66929,-3.4354 -11.33596,-5.1105 -3.66666,-1.67511 -9.96666,-3.74776 -14,-4.60588 -4.03333,-0.85812 -11.23333,-2.44228 -16,-3.52035 -9.67136,-2.18737 -22.25105,-3.77691 -46,-5.81246 -24.65181,-2.11293 -43.44679,1.72242 -60.36619,12.31847 -3.79187,2.37472 -9.29805,5.78031 -12.23597,7.56796 -2.93794,1.78767 -5.15278,3.43923 -4.92187,3.67012 0.23091,0.23091 3.92612,-0.78652 8.21159,-2.26093 10.23541,-3.52149 27.17153,-4.60929 36.64577,-2.35373 l 7.33334,1.74586 0.39657,7.5302 c 0.36584,6.94679 0.0605,7.87398 -3.94085,11.96732 -3.8174,3.90514 -4.0365,4.49508 -1.82736,4.92052 2.54945,0.49099 14.09253,-0.4335 21.37164,-1.71166 7.32545,-1.2863 22.74338,-1.01963 28.35104,0.49036 7.73245,2.08213 16.87746,9.30449 17.39758,13.7399 0.33578,2.86343 -0.55893,4.1565 -4.67308,6.75364 -5.40828,3.41408 -15.87194,6.77163 -25.74221,8.26004 -9.94828,1.50019 -17.33333,3.57528 -17.33333,4.8704 0,0.67234 2.85,2.41604 6.33333,3.87488 24.21795,10.14268 37.87272,19.75164 39.66519,27.9127 1.574,7.16641 -4.09562,12.03624 -19.24052,16.52634 -13.69704,4.06084 -23.85787,2.25006 -32.42379,-5.77834 -7.81241,-7.32218 -8.24372,-5.17747 -1.86196,9.25876 4.87443,11.02649 15.04769,20.30261 26.90987,24.53674 16.34782,5.8353 24.77776,7.51087 44.61788,8.86846 40.84,2.79456 50.21365,3.74766 56.68992,5.76421 8.42216,2.62244 16.08448,10.19441 17.35691,17.15225 0.50173,2.74359 1.44392,4.65974 2.09374,4.25812 1.99751,-1.23452 10.5261,-20.76186 10.5261,-24.10089 0,-4.41601 3.7435,-4.01132 4.82034,0.52111 1.28899,5.42538 4.45891,8.51917 7.7367,7.55088 4.70342,-1.3894 6.10962,-4.60843 6.10962,-13.98591 0,-12.44516 -3.35072,-21.97757 -9.78182,-27.82821 -7.58368,-6.89916 -9.74486,-7.77635 -21.61403,-8.77287 -10.82676,-0.909 -33.46079,1.72075 -41.58019,4.83101 -2.02984,0.77758 -9.09062,2.54715 -15.69062,3.9324 -6.6,1.38526 -14.58726,3.77032 -17.74944,5.30014 -7.60537,3.67934 -30.50643,7.5834 -32.54221,5.54762 -1.9946,-1.9946 4.04335,-4.2666 13.62498,-5.12689 4.03333,-0.36213 10.93333,-2.22349 15.33333,-4.13636 4.4,-1.91285 11.6,-4.21636 16,-5.11889 4.4,-0.90254 12.8,-2.91842 18.66667,-4.47974 5.86667,-1.56132 12.46667,-3.30233 14.66667,-3.86892 6.60825,-1.70188 32.0696,-1.8239 39.93337,-0.19138 4.99216,1.03636 8.1642,2.56478 9.8984,4.76946 1.46241,1.85916 3.94628,3.24436 5.8176,3.24436 2.94539,0 3.54797,1.03035 6.14527,10.50768 3.29682,12.02984 4.93381,25.07507 3.74229,29.82246 -2.12177,8.45386 -12.85207,13.1796 -18.44104,8.12165 -2.33135,-2.10984 -2.64776,-1.77473 -6.67124,7.065 -3.37715,7.41971 -5.68421,10.40277 -11.5092,14.88156 -6.19133,4.76045 -8.2308,5.60165 -13.58103,5.60165 -4.5166,0 -7.68365,-0.94193 -11.20757,-3.33333 -6.08551,-4.12973 -6.63184,-4.12947 -9.34057,0.004 -3.15174,4.81016 -10.7064,9.17488 -23.20652,13.40759 l -10.93191,3.70169 -3.22609,-3.03077 c -2.9483,-2.76978 -8.01347,-13.4679 -9.01198,-19.03415 -0.32617,-1.81829 -2.72225,-0.60464 -11.74312,5.94807 -6.23333,4.52786 -12.11736,9.30585 -13.0756,10.61774 -1.14156,1.56286 -3.44016,2.37179 -6.66667,2.34619 -6.25897,-0.0491 -13.59106,-6.21737 -13.59106,-11.43315 v -3.51038 l -5,3.7041 c -4.70847,3.48812 -7.10498,5.85606 -12.66667,12.51562 -1.65144,1.97744 -2.33333,5.1274 -2.33333,10.77869 0,7.39273 -0.22243,7.98448 -3,7.98092 -1.82852,-0.003 -4.01947,-1.52549 -5.61074,-3.90063 -2.58757,-3.8622 -2.6279,-3.87226 -4.54585,-1.13402 -3.463,4.94413 -12.33551,12.29124 -19.33196,16.00834 -7.98388,4.2417 -12.84479,7.66663 -12.84479,9.05024 0,0.53895 1.85125,1.35016 4.11391,1.8027 3.06031,0.61205 5.62367,-0.062 10.00892,-2.63194 3.24227,-1.90008 9.641,-4.84292 14.21943,-6.53964 4.57842,-1.6967 12.52441,-4.67633 17.65774,-6.62137 5.13334,-1.94505 11.13334,-4.18452 13.33334,-4.9766 2.2,-0.79208 4.6,-1.855 5.33333,-2.36203 0.73333,-0.50704 4.88015,-2.32896 9.21515,-4.04873 4.33498,-1.71976 10.49017,-5.11785 13.6782,-7.55132 3.18801,-2.43347 6.3912,-4.42449 7.11818,-4.42449 2.35315,0 1.40178,3.82161 -1.66192,6.67588 C 371.59777,347.90628 347.8965,360 345.62394,360 c -0.54821,0 -3.08786,1.11175 -5.64368,2.47053 -2.5558,1.3588 -7.03252,3.25008 -9.94826,4.20286 -2.91574,0.95277 -7.11574,2.8388 -9.33334,4.19114 -2.21758,1.35236 -4.70046,2.46108 -5.5175,2.46382 -0.81704,0.003 -5.30559,1.73905 -9.97455,3.85845 l -8.48903,3.85347 5.14342,2.14905 c 2.82888,1.18199 8.21742,2.99436 11.97454,4.02751 17.88247,4.91736 48.78824,14.09281 54.16447,16.0806 9.80411,3.62493 14.28895,4.6824 36.66667,8.64556 21.40736,3.79129 34.81724,4.24006 59.22795,1.98205 z"
       id="path1986" />
    <path
       style="fill:#008000;stroke-width:1.33333"
       d="m 683.04351,440 c 1.93664,0 14.32247,-12.35157 19.29666,-19.24328 2.68222,-3.7162 7.39594,-9.75672 10.47494,-13.42339 5.73443,-6.82893 21.85158,-36.32469 21.85158,-39.99028 0,-1.88294 1.55056,-5.69544 8.17368,-20.09734 1.37115,-2.98154 2.49299,-6.04848 2.49299,-6.81544 0,-3.45311 22.64206,-49.79839 28.77414,-58.89682 l 4.80758,-7.13322 -4.45754,0.94322 c -6.69153,1.41596 -19.58957,8.4543 -27.33684,14.91747 -3.78362,3.15649 -7.53362,5.73908 -8.33333,5.73908 -2.22175,0 -1.8063,-28.26225 0.58797,-40 1.79876,-8.81828 5.04582,-20.94636 8.6566,-32.33333 C 748.67142,221.65 748.71213,220 748.12234,220 c -2.23192,0 -12.97521,9.33061 -17.45571,15.16037 -7.51234,9.77464 -8.06777,8.79435 -7.26776,-12.82704 0.38667,-10.45 1.61075,-24.4 2.72018,-31 3.69965,-22.0092 4.73474,-34.21142 3.26076,-38.43972 -0.75886,-2.17701 -1.37979,-8.44906 -1.37979,-13.93788 0,-5.48882 -0.69663,-12.30483 -1.54807,-15.14668 -1.50066,-5.00878 -1.62734,-5.09527 -4.1365,-2.82451 -1.42364,1.28837 -3.44087,3.99092 -4.48274,6.00565 -1.04185,2.01473 -4.9343,6.06615 -8.64988,9.00314 l -6.75561,5.34 h -12.31064 c -10.86717,0 -13.24891,-0.45449 -20.31241,-3.8761 -9.36784,-4.53785 -11.70458,-7.66284 -15.95187,-21.33298 -2.55131,-8.21148 -3.13841,-13.02116 -3.10753,-25.457583 0.0209,-8.433334 0.52157,-17.829834 1.11254,-20.88111 0.79498,-4.104532 0.66074,-5.389 -0.516,-4.937446 -2.47425,0.949457 -15.38766,27.910985 -16.71568,34.900142 -0.65334,3.438457 -2.4731,12.251747 -4.04392,19.585077 -1.57081,7.33334 -2.89157,13.93334 -2.93504,14.66667 -0.0435,0.73333 4.47183,10.63333 10.03396,22 5.56212,11.36667 10.52587,22.32233 11.03055,24.34593 0.50467,2.0236 1.43481,3.99894 2.06697,4.38963 0.63218,0.39071 1.81202,3.17111 2.62187,6.17867 0.80985,3.00757 3.14405,9.13224 5.18711,13.61037 5.13168,11.24803 6.29584,15.21647 7.4733,25.4754 0.33668,2.93333 1.15924,7.13333 1.82792,9.33333 1.08776,3.57878 1.22787,3.23771 1.3304,-3.23873 0.0631,-3.98131 -1.04721,-11.18131 -2.4672,-16 -1.41998,-4.81869 -3.30108,-12.96127 -4.18022,-18.0946 -0.87914,-5.13333 -2.63507,-11.43333 -3.90208,-14 -4.65632,-9.43261 -7.2867,-18.99891 -14.84799,-54 -4.88516,-22.6133 -4.95631,-38.790855 -0.19157,-43.555589 3.92841,-3.928415 6.54897,-1.914888 3.48672,2.679054 -2.82858,4.243384 -3.06016,17.585685 -0.53595,30.876535 0.90529,4.76667 1.78747,9.56667 1.96039,10.66667 0.17293,1.1 0.65296,2.9 1.06673,4 1.95668,5.20173 5.05911,19.04114 5.05911,22.56784 0,2.1678 0.6,4.31226 1.33333,4.76549 0.73333,0.45323 1.33333,2.25323 1.33333,4 0,1.74677 0.52836,3.50249 1.17414,3.90161 0.64577,0.39911 1.47664,2.08451 1.84637,3.74535 0.36975,1.66084 2.22285,7.166 4.11801,12.23369 1.89516,5.06768 4.07183,13.71528 4.83703,19.2169 0.76521,5.5016 1.98264,10.71545 2.70541,11.58633 1.22716,1.47864 2.23867,13.17988 3.34106,38.64945 0.25392,5.86667 1.11192,17.56667 1.90665,26 0.79475,8.43334 1.75607,24.63334 2.13628,36 0.80039,23.92808 1.62049,30.89727 3.28571,27.9217 0.61566,-1.10014 1.26073,-10.03767 1.43348,-19.86119 0.17274,-9.82351 0.83013,-20.60584 1.46085,-23.96072 0.63073,-3.35488 1.73016,-15.99979 2.44319,-28.09979 0.71301,-12.1 1.86505,-25.6 2.56006,-30 0.69503,-4.4 1.54803,-10.40817 1.89558,-13.35148 0.34753,-2.94332 1.82378,-10.14332 3.28056,-16 1.45676,-5.85669 3.05412,-13.64852 3.54969,-17.31518 1.01073,-7.47847 10.34089,-38.29995 14.22765,-47 C 714.92745,150.55 716.6705,148 717.40853,148 c 2.38129,0 2.93805,3.93633 0.99153,7.01029 -1.04124,1.64434 -3.56597,8.38971 -5.61051,14.98971 -2.04453,6.6 -4.4917,14.1 -5.43813,16.66667 -0.94644,2.56666 -2.72608,10.57861 -3.95477,17.80432 -1.22868,7.2257 -2.75768,14.51512 -3.39778,16.19869 -0.64009,1.68356 -2.44409,11.37163 -4.00889,21.52901 -2.72873,17.71266 -3.87253,31.87899 -6.71236,83.13464 -1.69937,30.6718 -3.1586,44.27898 -5.78523,53.9468 -1.18746,4.37074 -2.1737,11.57074 -2.19164,16 -0.0179,4.42926 -0.63873,10.68239 -1.37958,13.89584 -2.44023,10.58462 -0.80399,8.51208 11.55284,-14.6333 1.77866,-3.33158 4.07745,-13.99898 7.87482,-36.54267 0.9882,-5.86667 2.44783,-13.36667 3.2436,-16.66667 0.79578,-3.3 2.06395,-10.2 2.81818,-15.33333 0.75421,-5.13333 2.517,-14.13333 3.9173,-20 1.40031,-5.86667 2.85542,-13.36667 3.23359,-16.66667 C 715.86533,260.50337 716.63607,256 718.26643,256 c 1.1634,0 1.73359,1.95569 1.73359,5.94608 0,8.07537 -5.08928,44.61399 -6.76601,48.57681 -0.74226,1.75427 -2.19308,9.58504 -3.22404,17.40174 -1.03098,7.81669 -2.48755,15.82461 -3.23683,17.79537 -1.1648,3.06368 -2.95279,12.37335 -8.00567,41.68379 -0.51236,2.97208 -3.68253,10.47208 -7.04482,16.66666 -3.36228,6.19459 -7.99891,14.76994 -10.3036,19.05632 -2.3047,4.28639 -5.2168,9.38306 -6.47136,11.32592 -1.25455,1.94286 1.23501,0.0859 5.53237,-4.12677 4.29736,-4.21259 8.32399,-7.65925 8.94807,-7.65925 2.66468,0 7.37225,-7.0011 14.59357,-21.70356 4.24217,-8.63696 8.27788,-16.43696 8.96825,-17.33334 0.69038,-0.89637 2.6449,-6.12977 4.3434,-11.62977 1.69851,-5.5 3.62472,-10.69929 4.2805,-11.55397 1.26354,-1.64683 13.03064,-31.01152 17.12376,-42.73223 3.10185,-8.8822 8.27491,-17.70761 12.56676,-21.43933 1.84928,-1.60792 3.36232,-3.52747 3.36232,-4.26566 0,-0.73817 0.9,-1.34214 2,-1.34214 3.29612,0 2.26619,4.5794 -1.93521,8.6046 -4.06548,3.89497 -8.07096,11.54957 -13.28884,25.3954 -5.56481,14.76638 -13.7305,34.65428 -14.78111,36 -0.57252,0.73333 -2.56652,6.1907 -4.43112,12.1275 -1.86462,5.9368 -5.15982,13.79547 -7.3227,17.46371 -2.16286,3.66824 -4.37217,8.11085 -4.90957,9.87249 -1.93989,6.35914 -13.4066,24.18298 -16.66479,25.90375 -1.83333,0.96824 -6.61284,5.10667 -10.62112,9.19649 -4.00828,4.08983 -8.35828,7.43606 -9.66666,7.43606 -3.06595,0 -3.10195,2.32524 -0.0456,2.94196 1.28333,0.25894 3.8272,-0.89706 5.65304,-2.56891 1.82589,-1.67184 3.8016,-3.03972 4.3905,-3.03972 z"
       id="path1984" />
    <path
       style="fill:#d40055;stroke-width:1.33333"
       d="m 352.00001,675.88893 c 3.3,-0.73053 8.07827,-1.63268 10.61837,-2.00474 2.54011,-0.37207 4.75638,-0.81448 4.92504,-0.98316 1.1125,-1.1125 -2.8535,-12.6356 -5.05473,-14.68635 -4.32848,-4.0326 -15.25261,-6.41332 -33.82201,-7.37091 -21.46248,-1.10677 -27.68328,-3.57688 -32.33334,-12.83864 -1.65,-3.28638 -3,-6.66584 -3,-7.50986 0,-0.84404 -1.05,-2.31038 -2.33333,-3.25852 -1.75383,-1.29575 -1.95495,-2.10802 -0.80981,-3.27051 2.27246,-2.30691 6.92638,0.65665 7.96534,5.07224 1.60395,6.81681 6.07322,12.48767 11.76422,14.92712 4.0453,1.73403 10.39292,2.55191 23.47889,3.02524 23.28839,0.84237 33.15948,3.75551 35.52611,10.48439 0.87526,2.48862 1.62526,5.79385 1.66666,7.34496 0.0893,3.34826 4.89394,9.84648 7.28022,9.84648 2.56722,0 8.6487,-14.91098 9.62452,-23.59806 0.92822,-8.26341 1.92008,-10.96102 5.25702,-14.29797 2.73512,-2.73512 14.7387,-2.78497 25.03175,-0.104 4.22319,1.1 7.92206,2 8.21972,2 0.29766,0 0.9364,-2.10663 1.41943,-4.6814 0.48303,-2.57476 1.41021,-5.01017 2.06041,-5.41201 0.6502,-0.40186 1.18219,-2.07752 1.18219,-3.72372 0,-7.16727 17.31336,-16.66478 30.95793,-16.98244 12.65442,-0.29462 12.37427,0.11093 12.38396,-17.92831 0.005,-8.76633 0.74524,-18.36773 1.64562,-21.33644 1.60058,-5.27739 6.70434,-13.03577 17.59853,-26.75213 2.97768,-3.74906 5.41717,-7.34906 5.42109,-8 0.004,-0.65095 3.34075,-3.58355 7.41516,-6.51688 7.62881,-5.49228 14.30035,-12.23163 21.19357,-21.40891 7.20156,-9.58781 21.1307,-20.86704 34.48492,-27.92443 2.77526,-1.46666 6.26933,-3.96537 7.76458,-5.55268 l 2.71864,-2.88601 -3.12533,-1.69109 c -4.71417,-2.5508 -9.28552,-1.7029 -25.57996,4.74466 -20.36796,8.05944 -33.28255,12.71848 -35.25486,12.71848 -0.9091,0 -4.19637,1.15354 -7.30505,2.5634 -14.04569,6.37012 -24.91619,10.76994 -26.60895,10.76994 -1.01376,0 -2.41318,0.48009 -3.10985,1.06688 -1.79075,1.50829 -14.48272,6.27057 -23.93333,8.98025 -4.4,1.26157 -11.3,3.34352 -15.33334,4.62656 -16.30317,5.18616 -21.09368,6.52135 -30.66666,8.54724 -21.29058,4.50564 -33.18555,6.26701 -46.66667,6.91027 -12.0459,0.57477 -16.42182,1.23454 -26.27438,3.96154 -1.20468,0.33343 -1.07037,2.02196 0.53579,6.73576 l 2.14348,6.29079 -4.20413,3.7564 c -2.31228,2.06603 -6.10359,6.91417 -8.42515,10.77368 -2.32156,3.85952 -4.91481,7.91729 -5.76279,9.01729 -1.90449,2.47051 -8.67949,23.27274 -8.67949,26.64984 0,3.97556 -1.46969,6.6835 -3.62737,6.6835 -1.63231,0 -1.83598,-1.15215 -1.08678,-6.14814 2.4474,-16.32044 12.13559,-37.53641 21.64154,-47.39237 l 4.70074,-4.87383 -2.66998,-7.79284 c -1.4685,-4.28605 -3.1008,-12.78276 -3.62736,-18.88157 -0.889,-10.29671 -1.20299,-11.18213 -4.3958,-12.39604 -3.77952,-1.43697 -6.19852,-4.24621 -10.3364,-12.00397 l -2.73476,-5.12714 -5.7908,3.09732 c -3.18495,1.70354 -9.34442,5.94091 -13.68771,9.4164 -4.48098,3.58566 -8.72348,6.00188 -9.80779,5.5858 -3.02925,-1.16242 -2.2526,-3.05493 2.44521,-5.95833 2.39584,-1.48072 5.80043,-4.22965 7.56575,-6.10875 l 3.20968,-3.41654 h -6.63641 c -5.31755,0 -7.74854,-0.81786 -12.23243,-4.11535 -3.0778,-2.26344 -5.596,-4.62803 -5.596,-5.25464 0,-2.75329 2.95828,-2.47487 7.80856,0.73489 3.30451,2.18683 7.87029,3.73087 12.38004,4.18664 6.17638,0.6242 7.32546,0.36726 8.47807,-1.89582 6.42473,-12.61452 18.71623,-23.88356 32.94516,-30.20467 17.66607,-7.84803 28.73412,-14.97384 40.98003,-26.38364 8.57669,-7.99112 9.54258,-9.39104 9.16432,-13.28224 -0.39419,-4.05489 -1.01014,-4.55287 -9.08951,-7.34851 -8.70381,-3.01172 -21.24104,-6.78629 -46,-13.8492 -7.33333,-2.09196 -19.33333,-5.98174 -26.66667,-8.64397 -12.02297,-4.36471 -14.77473,-4.86185 -28,-5.05861 -16.57705,-0.24664 -26.32384,-3.38946 -28.53317,-9.20043 -2.02184,-5.31784 -4.90274,-6.79091 -11.50996,-5.88528 -6.36418,0.87231 -16.34526,4.92872 -22.06994,8.96944 -3.46242,2.44393 -9.98996,4.08268 -35.88693,9.00949 -23.30308,4.43335 -23.71874,4.47503 -24.90944,2.49811 -0.59982,-0.99585 -2.14056,-2.19656 -3.4239,-2.66825 -1.28333,-0.47168 -2.33333,-1.81687 -2.33333,-2.9893 0,-4.92137 -10.61107,1.72546 -23.86057,14.94638 -9.15312,9.13336 -20.465616,16.43496 -25.462995,16.43496 -2.318708,0 -2.676436,0.88086 -2.676436,6.59045 0,4.38943 -0.977061,8.24645 -2.925573,11.54893 -2.379364,4.03272 -2.94127,7.11312 -3.009642,16.49906 -0.07704,10.57497 -0.390053,11.90421 -3.741093,15.8867 -4.069688,4.83655 -4.934974,13.411 -2.157419,21.37871 1.345499,3.85969 1.859332,4.18844 5,3.19896 6.349478,-2.00043 36.120158,-1.21649 47.500398,1.25081 5.86666,1.27192 13.06666,2.31639 16,2.32103 2.93333,0.004 7.05192,0.90475 9.15241,2.00023 4.65961,2.43016 4.84759,2.43857 4.84759,0.21709 0,-1.74561 -1.38192,-2.62872 -10.66667,-6.81645 -2.56667,-1.15766 -6.13381,-4.34823 -7.92697,-7.09018 -2.70038,-4.12913 -3.27286,-6.7028 -3.33334,-14.98534 -0.0587,-8.03246 0.32049,-10 1.92698,-10 1.50857,0 2.24122,2.41917 2.98174,9.84556 1.13499,11.38236 4.34119,17.9489 9.08578,18.60837 3.90597,0.54291 11.93248,6.35043 11.93248,8.63367 0,0.89021 1.2,3.85749 2.66666,6.59397 1.59963,2.98457 2.66403,7.51157 2.66007,11.3136 -0.004,3.48599 0.86289,9.03816 1.9256,12.33816 1.06271,3.3 3.39628,10.71508 5.18572,16.47797 3.0925,9.95934 3.53236,10.6028 8.88668,13 3.6003,1.6119 8.6682,2.52203 14.04347,2.52203 7.08275,0 9.84845,-0.75827 17.52107,-4.80372 5.0109,-2.64205 10.21276,-5.78213 11.55969,-6.97796 6.15463,-5.46419 16.88437,-25.61716 16.88437,-31.71277 0,-1.74472 0.57688,-3.17222 1.28195,-3.17222 3.94932,0 4.98163,-23.91992 1.89217,-43.84424 -0.72633,-4.68422 -0.53581,-5.72316 0.95984,-5.23422 2.9584,0.96708 4.8202,11.15704 5.06927,27.74513 0.26139,17.40791 -1.2462,23.3048 -10.85685,42.46639 -5.24518,10.45774 -16.0985,22.86694 -19.99987,22.86694 -0.7508,0 -3.45147,1.28946 -6.00149,2.86546 -3.87535,2.39509 -4.2842,3.06257 -2.49071,4.06625 1.18013,0.66044 2.14569,2.02813 2.14569,3.03931 0,1.01118 0.82084,2.65934 1.8241,3.6626 1.72058,1.7206 3.86992,6.75562 4.14056,9.69972 0.90226,9.8152 2.51912,15.33386 4.4938,15.33832 3.45033,0.008 9.46661,4.20252 18.70332,13.04054 l 8.4951,8.12843 3.51259,-2.59697 c 7.96583,-5.88939 41.63391,-8.34504 46.58144,-3.39751 2.48528,2.48528 0.85418,5.23068 -2.16516,3.64431 -8.22252,-4.32015 -37.59169,-0.84924 -43.13183,5.0974 -1.40678,1.51001 -3.30472,2.74548 -4.21764,2.74548 -0.9129,0 -5.60932,-3.75 -10.43646,-8.33334 -11.28207,-10.71222 -11.953,-11.21605 -18.33798,-13.77081 -5.81144,-2.32528 -6.14928,-2.94941 -7.52172,-13.89585 -0.98185,-7.8311 -3.26448,-13.29774 -7.79437,-18.66667 -2.59499,-3.07564 -3.56315,-3.30297 -12.52329,-2.94069 -8.05023,0.32549 -10.36558,-0.0736 -13.53918,-2.33334 C 176.64441,553.22669 174.63861,552 174.29262,552 c -0.34599,0 -0.89661,3.2262 -1.2236,7.16932 -0.97356,11.73988 -6.43263,16.75143 -20.63834,18.94647 -6.79813,1.05044 -13.76401,-1.61336 -13.76401,-5.26344 0,-1.99191 0.60655,-2.2977 3,-1.51243 5.30447,1.74033 14.05544,2.28144 16.32805,1.00961 1.76746,-0.9891 0.7836,-1.78029 -4.93522,-3.96876 -3.92852,-1.50336 -13.26443,-6.62736 -20.74646,-11.38666 -12.17588,-7.74506 -15.35159,-9.09102 -30.25671,-12.8237 -16.329923,-4.0895 -29.176284,-5.3397 -30.633869,-2.98129 -0.671262,1.08613 6.170603,13.79229 10.219036,18.97797 7.107414,9.10399 24.366453,25.16624 27.041333,25.16624 0.59117,0 4.42938,2.55 8.52935,5.66667 8.10555,6.16159 11.18834,8.16168 15.78782,10.24308 1.65,0.74667 3,1.86131 3,2.47697 0,0.61566 2.22918,2.1824 4.95374,3.48166 2.72454,1.29924 7.24889,4.18006 10.05408,6.40182 4.39673,3.48227 14.41693,7.97723 29.65885,13.30464 8.86706,3.09926 27.40311,10.48834 34.15734,13.61624 8.07044,3.73747 22.89086,9.00802 35.84266,12.74666 8.7662,2.53042 25.6268,8.59554 28.03846,10.08602 1.38992,0.85903 21.88955,6.26056 35.29488,9.3 6.81071,1.54422 23.24032,3.96748 30,4.4248 1.1,0.0744 4.7,-0.46241 8,-1.19296 z"
       id="path1936" />
    <path
       style="fill:#008000;stroke-width:1.33333"
       d="m 158.38047,174.13441 c 3.06743,-0.3446 4.01504,-1.38708 9.43345,-10.37786 l 2.95915,-4.91014 -14.38653,0.65814 c -10.42288,0.47681 -15.2637,0.17653 -17.57027,-1.08988 -5.86941,-3.22255 -2.99599,-4.24091 10.98565,-3.89335 22.03818,0.54781 21.99119,0.56835 31.22587,-13.64765 10.36996,-15.96367 10.83083,-16.93275 5.8451,-12.29088 -2.31342,2.15386 -4.20622,3.45783 -4.20622,2.8977 0,-0.56013 -1.49302,0.75594 -3.31784,2.9246 -3.7467,4.45271 -10.87499,8.25031 -15.55033,8.28444 -1.72251,0.012 -8.04004,-1.59724 -14.03896,-3.57738 -10.2436,-3.38126 -11.25751,-3.48487 -16.66667,-1.70332 -3.16774,1.04333 -8.80924,4.37837 -12.53666,7.41121 -3.72742,3.03284 -8.00247,6.17003 -9.50012,6.97155 -3.49939,1.87281 -5.27494,7.50633 -1.9588,6.21494 2.71057,-1.05557 2.40112,-1.02566 8.59934,-0.83109 4.23785,0.13307 6.08061,1.26023 11.70184,7.15789 7.16733,7.51982 16.69772,12.09376 22.60153,10.8472 1.83334,-0.38709 4.70455,-0.85785 6.38047,-1.04612 z"
       id="path2002" />
    <path
       style="fill:#008000;stroke-width:1.33333"
       d="m 248.19843,219.97749 1.69182,-13.55624 -3.64904,-6.96957 c -2.00698,-3.83327 -6.24678,-9.51907 -9.42178,-12.63509 l -5.77274,-5.66552 -6.45106,4.09113 c -3.67326,2.32952 -5.44586,4.09113 -4.11662,4.09113 1.56981,0 3.41693,2.51111 5.63946,7.66667 4.81002,11.15771 6.17888,13.92728 8.83348,17.87249 3.06478,4.5548 3.01439,6.46084 -0.17078,6.46084 -1.87338,0 -4.00114,-2.95228 -8,-11.10005 -2.99631,-6.10504 -5.44783,-11.71323 -5.44783,-12.46265 0,-0.74943 -1.12971,-2.66518 -2.51048,-4.2572 l -2.51047,-2.8946 -5.36208,3.51065 -5.36206,3.51064 2.62649,9.51328 c 3.03004,10.97487 6.21245,14.87625 16.93133,20.75643 4.13634,2.26912 10.20802,5.6159 13.49263,7.43732 7.27679,4.03518 7.10317,4.31432 9.55973,-15.36966 z"
       id="path2000" />
    <path
       style="fill:#008000;stroke-width:1.33333"
       d="m 193.85619,327.92776 c 1.91243,-2.2728 3.47715,-4.96083 3.47715,-5.9734 0,-1.01257 -3.21561,-4.11655 -7.1458,-6.89771 -5.96537,-4.22133 -14.64848,-14.46966 -16.71097,-19.72332 -0.28791,-0.73333 -1.65771,-2.95376 -3.044,-4.93428 -1.38631,-1.98052 -3.44817,-6.48052 -4.58191,-10 -2.7603,-8.56877 -3.98895,-38.071 -2.0054,-48.15318 1.90876,-9.70204 9.84492,-29.03456 13.52855,-32.9556 l 2.7602,-2.93811 -7.067,-0.70801 c -5.73645,-0.5747 -7.58526,-0.2313 -9.81961,1.82393 -1.51393,1.39255 -3.14393,2.53192 -3.62222,2.53192 -1.72948,0 -9.74031,8.98171 -14.92883,16.73813 -10.88072,16.26582 -15.36301,32.36386 -15.36301,55.17588 0,17.49298 6.08637,32.07904 19.00448,45.54455 8.33058,8.68357 33.88952,18.76561 39.85171,15.72 1.20422,-0.61515 3.75422,-2.97801 5.66666,-5.2508 z"
       id="path1996" />
    <path
       style="fill:#008000;stroke-width:1.33333"
       d="m 321.931,345 c -0.50347,-1.65 -1.96831,-5.4 -3.2552,-8.33333 -1.2869,-2.93334 -3.07887,-7.63464 -3.98216,-10.44735 -1.63938,-5.10471 -14.34319,-19.1022 -24.02696,-26.47371 -2.56667,-1.9538 -9.01171,-4.75625 -14.32231,-6.22765 -9.10739,-2.52339 -14.66599,-4.91909 -41.40263,-17.84415 -11.93631,-5.77026 -18.82477,-11.93225 -26.11956,-23.36488 -3.97183,-6.22478 -4.58091,-8.42553 -5.35065,-19.33333 C 201.06229,198.83483 201.25467,200 198.02681,200 c -1.62922,0 -4.95818,-0.6958 -7.3977,-1.54623 -4.26709,-1.4875 -4.60233,-1.34829 -8.82974,3.66667 -2.41683,2.86709 -5.06366,7.01289 -5.88183,9.21289 -0.81819,2.2 -2.26763,5.5 -3.221,7.33334 -4.20942,8.09476 -6.42603,22.44917 -5.61647,36.37145 0.9984,17.16985 3.70427,27.08148 9.97876,36.55236 2.71766,4.10208 5.84118,8.90052 6.94118,10.66321 2.03286,3.25756 12.88232,12.41298 14.70976,12.41298 0.55064,0 1.36709,1.45804 1.81436,3.24009 1.40568,5.60069 4.40622,7.42657 12.20433,7.42657 5.77524,0 8.99689,-0.97336 16.23811,-4.90602 9.40202,-5.1062 13.13558,-6.06978 32.93434,-8.49984 8.45636,-1.03792 12.7014,-1.04855 14.66667,-0.0368 1.52116,0.78318 5.26603,2.284 8.3219,3.33514 8.77428,3.01812 18.24893,10.30211 27.01581,20.76938 4.45209,5.3156 8.09472,10.19124 8.09472,10.83473 0,0.64351 0.64043,1.17001 1.42319,1.17001 0.85822,0 1.0598,-1.19089 0.5078,-3 z"
       id="path1994" />
    <path
       style="fill:#008000;stroke-width:1.33333"
       d="m 39.100488,373.35775 c 2.071935,0.0183 5.971935,-1.16006 8.666667,-2.61854 2.694732,-1.45849 8.821783,-4.40608 13.615668,-6.55021 4.793886,-2.14412 9.373979,-4.71379 10.177986,-5.71037 2.077722,-2.57538 11.047051,-34.06788 12.554237,-44.0796 C 84.81047,309.77956 85.898196,297 86.532213,286 87.599732,267.47891 88.042671,265.11265 92.522315,254 98.84819,238.3074 100.50761,235.95829 112.89151,225.16509 122.3205,216.94724 128,213.95016 128,217.19232 c 0,1.36204 -7.31785,9.47435 -8.54649,9.47435 -0.98372,0 -8.13791,6.05213 -12.75325,10.78869 -3.86657,3.96812 -5.20168,6.48861 -9.91897,18.72548 -4.736849,12.28761 -5.813354,18.92337 -6.676605,41.15567 -0.412946,10.63508 -1.570366,22.33508 -2.572045,26 -1.001679,3.66492 -3.129826,11.39025 -4.729216,17.1674 -2.743839,9.91101 -2.779887,10.64545 -0.638632,13.01152 1.248142,1.37917 4.505128,3.17745 7.237747,3.99617 4.083865,1.22355 6.06291,1.07056 11.116261,-0.85933 3.38133,-1.29134 6.14787,-3.10134 6.14787,-4.0222 0,-0.92087 1.35,-2.03934 3,-2.48547 5.44163,-1.47132 15.43642,-9.94353 19.09464,-16.18581 1.97844,-3.37595 4.37784,-10.14774 5.332,-15.04843 1.56533,-8.03979 1.50815,-9.23604 -0.58531,-12.24369 -3.95608,-5.68367 -8.29766,-19.61647 -9.1019,-29.20943 -1.14617,-13.67151 2.74819,-36.60185 8.27653,-48.733 5.09829,-11.18747 12.71775,-22.52977 18.40048,-27.39091 11.36105,-9.7185 11.30804,-9.64026 10.61851,-15.66666 C 161.11907,180.57533 160.69146,180 157.48996,180 c -3.83682,0 -7.82593,2.27149 -14.15662,8.06115 -3.78539,3.46186 -15.95182,9.18072 -25.82513,12.13913 -8.05107,2.4124 -22.244085,14.15944 -33.508208,27.73353 -14.36494,17.31079 -21.262351,36.4874 -24.721718,68.73286 -2.462736,22.95565 -6.693993,40.48925 -11.822937,48.99217 -2.902507,4.81188 -7.080532,8.90389 -14.122013,13.83133 -5.5,3.84874 -10.6,7.0579 -11.333333,7.13147 -0.733334,0.0736 -2.801288,1.35547 -4.595456,2.84869 -4.701347,3.91278 -1.516941,5.48826 9.262122,4.58246 4.766667,-0.40058 10.361886,-0.71334 12.433821,-0.69504 z"
       id="path1992" />
    <path
       style="fill:#000000;stroke-width:1.33333"
       d="m 363.57024,387.12577 c -2.11474,-2.11473 -0.0991,-3.60998 14.7631,-10.9514 14.19288,-7.01081 29.79365,-15.40416 35.00001,-18.8303 1.1,-0.72388 4.18128,-2.49956 6.84728,-3.94596 5.10088,-2.7674 12.75642,-12.04914 13.9954,-16.9683 0.87789,-3.48552 4.30702,-5.12645 5.30084,-2.5366 0.82361,2.14628 -3.64239,11.47775 -6.71274,14.02591 -1.1536,0.9574 -2.09745,2.56727 -2.09745,3.57747 0,1.01021 -0.55715,1.83674 -1.23809,1.83674 -0.68096,0 -2.03578,0.79768 -3.01072,1.77262 -1.89699,1.897 -7.4591,5.14128 -13.41786,7.82641 -2.01666,0.90875 -3.66666,2.12073 -3.66666,2.69329 0,0.57256 -0.78254,1.04102 -1.73896,1.04102 -0.95643,0 -4.6397,1.8396 -8.18506,4.08798 -3.54535,2.2484 -10.71281,5.9542 -15.92771,8.23514 -5.21488,2.28093 -10.38161,4.87036 -11.48161,5.7543 -2.71801,2.18414 -7.32555,3.48592 -8.42977,2.38168 z"
       id="path1990" />
    <path
       style="fill:#000000;stroke-width:1.33333"
       d="m 413.33335,403.68251 c 0,-1.33752 2.41913,-2.46687 7.4473,-3.47667 4.34007,-0.87161 9.48591,-3.07351 12.33334,-5.2774 2.68732,-2.07999 7.28602,-5.18079 10.21936,-6.89068 12.18813,-7.10469 22.6678,-19.48371 33.41804,-39.47475 2.72981,-5.07632 6.03561,-10.60734 7.34622,-12.29117 1.31062,-1.68383 4.00552,-7.38383 5.9887,-12.66667 4.10784,-10.94262 5.31536,-12.73685 7.26186,-10.79034 2.0936,2.0936 -4.54674,20.67545 -9.47656,26.5185 -1.23742,1.46667 -3.93652,5.96667 -5.99797,10 -7.2812,14.24604 -14.92084,24.7687 -24.44263,33.66667 -5.29702,4.95 -10.14804,9 -10.78004,9 -0.63198,0 -5.237,2.80723 -10.23334,6.23829 -7.27796,4.99787 -10.47616,6.3563 -16.08428,6.83178 -5.56986,0.47222 -7,0.18874 -7,-1.38756 z"
       id="path1988" />
    <path
       style="fill:#ffeeaa;stroke-width:1.33333"
       d="m 120.82504,492.3806 c -1.72731,-1.72732 -10.89119,-3.98647 -15.60583,-3.84727 -6.111103,0.18043 -6.478596,3.27062 -1.34106,11.27678 l 4.0927,6.37793 6.92811,-6.40272 c 3.81046,-3.52148 6.4772,-6.85361 5.92608,-7.40472 z"
       id="path1982" />
    <path
       style="fill:#ffeeaa;stroke-width:1.33333"
       d="m 86.2167,501.89379 c 4.953095,-4.0587 9.783303,-10.5565 9.783303,-13.16091 0,-1.33021 -12.259741,-0.76211 -17.511974,0.81151 -3.625531,1.08622 -5.154694,2.29337 -5.154694,4.06917 0,2.34484 5.343987,13.01984 6.529345,13.04284 0.29114,0.005 3.150448,-2.13753 6.35402,-4.76261 z"
       id="path1980" />
    <path
       style="fill:#ffeeaa;stroke-width:1.33333"
       d="m 148.06384,505.21404 c 2.02478,-3.78332 1.48551,-8.83308 -1.06384,-9.96195 -2.78849,-1.23476 -20.34808,-2.90616 -20.2992,-1.93216 0.0188,0.37404 2.11877,3.95227 4.66667,7.95162 2.54789,3.99936 4.63253,8.24936 4.63253,9.44445 0,1.19508 0.37406,2.54695 0.83123,3.00412 1.06025,1.06024 9.556,-5.37329 11.23261,-8.50608 z"
       id="path1978" />
    <path
       style="fill:#ffeeaa;stroke-width:1.33333"
       d="m 160.63786,521.66667 c -0.53943,-1.28334 -1.24162,-3.83334 -1.56042,-5.66667 -1.60509,-9.23043 -3.44932,-16 -4.35886,-16 -0.5585,0 -0.74215,1.42967 -0.40812,3.17704 0.33404,1.74737 -0.0492,3.58279 -0.85156,4.07869 -1.87198,1.15695 -1.86964,7.16807 0.005,12.54531 1.11732,3.20517 2.25556,4.19896 4.80931,4.19896 2.67098,0 3.1478,-0.47048 2.36477,-2.33333 z"
       id="path1976" />
    <path
       style="fill:#ffeeaa;stroke-width:1.33333"
       d="m 83.533738,534.14779 c 0.110227,-0.0813 -2.081124,-2.70886 -4.869656,-5.83906 l -5.07006,-5.69126 -0.463676,6.65474 -0.463677,6.65475 5.333333,-0.81569 c 2.933334,-0.44863 5.423515,-0.8822 5.533736,-0.96348 z"
       id="path1974" />
    <path
       style="fill:#ffeeaa;stroke-width:1.33333"
       d="m 126.97839,543.12921 c -2.13435,-4.30842 -6.92228,-17.03814 -9.18684,-24.42517 -0.85687,-2.79511 -2.46256,0.0152 -5.3114,9.29596 -2.50208,8.15116 -4.01882,10.66667 -6.4315,10.66667 -1.86394,0 -7.56874,-10.13327 -10.133587,-18 l -1.738864,-5.33334 -3.050099,9.9269 c -1.677553,5.45978 -2.917197,10.0086 -2.754764,10.10846 1.059832,0.65163 16.256064,4.74984 22.552814,6.0822 4.17494,0.88339 9.87494,2.91951 12.66666,4.52471 2.79173,1.60519 5.26772,2.77549 5.50221,2.60068 0.23449,-0.17483 -0.71709,-2.62601 -2.11463,-5.44707 z"
       id="path1972" />
    <path
       style="fill:#ffeeaa;stroke-width:1.33333"
       d="m 157.90892,561.15721 c -1.21574,-2.351 -1.93042,-6.13865 -1.6353,-8.66666 0.28834,-2.4698 0.38312,-4.49055 0.21062,-4.49055 -0.17248,0 -1.66249,2.4 -3.31112,5.33333 -3.2875,5.84934 -7.83978,7.32338 -7.83978,2.53855 0,-1.53713 -0.96003,-6.09717 -2.1334,-10.13341 l -2.13339,-7.33862 -2.3172,3.80007 c -1.27445,2.09005 -3.31443,4.62355 -4.53327,5.63 -3.19989,2.64232 -2.85048,3.33029 3.45059,6.79413 3.11667,1.7133 6.49829,3.77378 7.51473,4.57886 1.89976,1.5047 12.00635,5.92292 13.85284,6.05593 0.56883,0.0409 0.0624,-1.80476 -1.12532,-4.10163 z"
       id="path1970" />
    <path
       style="fill:#000000;stroke-width:1.33333"
       d="m 169.55524,445.24727 c -5.28342,-4.44734 -9.32546,-8.54035 -8.9823,-9.0956 0.34316,-0.55524 -0.24538,-2.6851 -1.30784,-4.73302 -1.06247,-2.0479 -1.93176,-4.6123 -1.93176,-5.69866 0,-3.69054 4.20468,-9.11179 9.37482,-12.08735 9.09635,-5.2352 16.54525,-3.866 40.29185,7.40615 10.03053,4.76134 10.33194,5.04264 10.28608,9.59981 -0.058,5.76927 -2.44211,10.28739 -6.71566,12.72712 -12.92437,7.3784 -19.47712,9.96761 -25.22597,9.96761 -5.61939,0 -7.05859,-0.73705 -15.78922,-8.08606 z"
       id="path1960" />
    <path
       style="fill:#ffff00;stroke-width:1.33333"
       d="m 399.29476,665.86741 c 2.91211,-0.5178 9.21211,-2.93141 14,-5.3636 4.78789,-2.43218 13.20525,-5.58521 18.70525,-7.00672 5.5,-1.42149 14.2,-3.89433 19.33334,-5.4952 22.03945,-6.87312 30.54074,-9.33522 32.23312,-9.33522 0.99168,0 2.84492,-0.55538 4.1183,-1.23415 1.27339,-0.67879 7.41524,-3.49471 13.64858,-6.25761 6.23333,-2.76291 12.28057,-5.80754 13.43832,-6.76586 1.15775,-0.9583 2.52245,-1.74238 3.03268,-1.74238 0.51023,0 4.72783,-2.4 9.37243,-5.33334 C 531.82139,614.4 536.30668,612 537.1441,612 c 0.83742,0 1.52258,-0.47064 1.52258,-1.04585 0,-0.57523 1.65932,-2.02604 3.68738,-3.22406 2.02806,-1.198 5.24132,-3.57736 7.14058,-5.28746 1.89926,-1.71012 5.29646,-4.6093 7.54932,-6.44263 2.25287,-1.83333 10.79978,-11.43333 18.99312,-21.33333 13.43854,-16.23776 39.1338,-42.56608 41.61288,-42.63811 0.84226,-0.0244 4.6103,-5.15753 9.70386,-13.21921 5.00705,-7.92476 9.84345,-14.8936 13.61172,-19.61334 2.40229,-3.00886 4.36781,-5.86542 4.36781,-6.34792 0,-0.48249 3.019,-5.69444 6.70888,-11.58212 9.21875,-14.70966 12.86827,-23.20169 14.00982,-32.5993 0.53448,-4.4 1.51686,-9.456 2.18309,-11.23555 2.21063,-5.90479 6.54515,-23.09529 5.96873,-23.67171 -0.3119,-0.3119 0.24651,-3.2705 1.24092,-6.57468 2.34348,-7.78682 2.60343,-36.77028 0.66232,-73.8514 -1.92496,-36.77289 -3.39782,-54.00049 -5.18669,-60.66666 -0.78715,-2.93334 -2.73343,-11.03334 -4.32504,-18 -1.59161,-6.96667 -3.42669,-14.0449 -4.07793,-15.7294 -0.65126,-1.68451 -1.19122,-4.98451 -1.19992,-7.33334 -0.0228,-6.16632 -3.23195,-17.32105 -7.69576,-26.75025 -2.13167,-4.50285 -4.91828,-11.30759 -6.19248,-15.12161 -1.27419,-3.81403 -3.46704,-9.1909 -4.87299,-11.94859 -1.40596,-2.75769 -2.55628,-6.05172 -2.55628,-7.32004 0,-1.26833 -0.66223,-2.71535 -1.47163,-3.21557 -0.80938,-0.50023 -3.82565,-6.08564 -6.70282,-12.41203 -2.87716,-6.32637 -5.82699,-12.40251 -6.55518,-13.50251 -0.7282,-1.1 -2.18125,-3.85732 -3.22901,-6.12737 -2.59898,-5.63082 -11.72678,-17.02089 -20.76746,-25.91451 -4.12344,-4.05637 -8.56284,-9.00163 -9.86532,-10.989465 -1.30248,-1.987836 -8.00224,-7.905002 -14.88836,-13.14926 -6.88612,-5.244256 -12.52022,-10.007132 -12.52022,-10.584168 0,-0.577036 -4.65,-3.217442 -10.33334,-5.867569 -5.68333,-2.650128 -11.37518,-5.391992 -12.64857,-6.093033 -1.27339,-0.701042 -2.93531,-1.274622 -3.69316,-1.274622 -0.75787,0 -3.64659,-1.432144 -6.4194,-3.182542 -5.28768,-3.337966 -22.02646,-10.41665 -32.23887,-13.633538 -3.3,-1.039493 -11.49389,-2.430524 -18.20864,-3.09118 -6.71475,-0.660654 -13.61475,-2.104721 -15.33333,-3.209036 -7.95478,-5.111525 -81.0327,-7.733189 -113.1247,-4.058338 -23.76293,2.721089 -57.63173,12.19453 -63.65328,17.804454 -1.36544,1.2721 -5.75204,3.38002 -9.748,4.684267 -7.11811,2.323285 -20.64651,9.684128 -25.93206,14.109707 -6.27294,5.252322 -16.4077,11.617269 -20.81277,13.07107 -5.22681,1.725006 -7.27511,3.461462 -15.18723,12.875103 -2.93333,3.49 -7.18582,8.20949 -9.45,10.48775 -2.26416,2.27825 -5.19216,6.24228 -6.50668,8.80895 -1.3145,2.56667 -3.74592,7.36667 -5.40313,10.66667 -2.62509,5.22732 -10.62259,18.08452 -13.68455,22 -0.57346,0.73333 -2.05246,3.43333 -3.28666,6 -1.23419,2.56666 -4.5146,8.39934 -7.28982,12.96152 -4.37281,7.18848 -4.98507,9.1764 -4.59027,14.90424 0.51916,7.53208 0.97771,7.87341 12.87778,9.58576 4.4,0.63313 11,1.61724 14.66667,2.1869 6.61561,1.02783 6.76365,0.97055 19.33333,-7.48129 12.96693,-8.71895 21.33333,-15.73632 21.33333,-17.89348 0,-4.74077 18.89451,-21.56807 34.66667,-30.87387 4.76667,-2.8124 11.23675,-6.82742 14.37796,-8.92226 17.36172,-11.57838 50.25022,-16.18378 80.0976,-11.21612 6.33844,1.05495 15.42444,2.49466 20.19111,3.19936 18.4121,2.72206 31.65858,5.95583 39.63862,9.67671 4.5679,2.12989 8.60012,3.87253 8.96048,3.87253 0.36037,0 3.93454,1.5 7.94262,3.33333 4.00807,1.83333 7.80499,3.33333 8.43759,3.33333 0.6326,0 3.52104,2.25 6.41876,5 2.89773,2.75 6.7686,5.79318 8.60193,6.76262 1.83334,0.96944 6.01242,5.33422 9.28686,9.69952 3.27442,4.36529 11.51334,12.84282 18.3087,18.83897 6.79535,5.99613 13.2031,12.73135 14.23943,14.96715 1.03633,2.2358 4.12243,8.86508 6.85798,14.73174 11.63458,24.9516 14.80672,33.88295 16.14597,45.4601 0.50093,4.33028 1.66488,9.07324 2.58655,10.5399 0.92166,1.46667 2.01518,5.96667 2.43005,10 0.41487,4.03334 1.35115,10.87867 2.08063,15.21184 0.85885,5.10163 0.87817,10.976 0.0548,16.66667 -0.69932,4.83349 -1.28339,12.39663 -1.29791,16.80699 -0.0145,4.41034 -1.13032,11.03898 -2.47955,14.73029 -1.34921,3.69131 -2.84809,9.08284 -3.33085,11.98117 -1.13713,6.82716 -15.18395,34.84343 -21.02498,41.93418 -4.43828,5.38788 -15.89556,13.67992 -27.2409,19.71525 -9.13996,4.86212 -46.1819,7.30304 -63.95014,4.21404 -4.4,-0.76493 -13.4,-2.248 -20,-3.29571 -6.6,-1.0477 -13.65,-2.28832 -15.66667,-2.75692 -3.5781,-0.83142 -3.66666,-0.70876 -3.66666,5.07812 0,5.1222 -0.49955,6.18762 -3.66667,7.81999 -2.01667,1.03941 -3.96667,2.27129 -4.33333,2.73751 -0.36667,0.46621 -2.16667,2.80142 -4,5.18936 -3.26628,4.25434 -9.35862,8.72896 -18.66667,13.71001 -2.56667,1.37352 -6.76667,3.8788 -9.33333,5.56731 -2.56667,1.6885 -7.06667,3.82546 -10,4.74878 -9.49072,2.98742 -22.51146,13.02764 -28.60588,22.05786 l -3.72387,5.51772 5.64865,-0.63668 c 5.31666,-0.59927 5.70468,-0.4122 6.60202,3.18277 1.36697,5.47649 6.5866,11.82053 11.3482,13.79285 4.5324,1.87739 4.9658,3.09062 5.96336,16.69327 0.37646,5.13333 0.70316,9.54752 0.726,9.80932 0.0228,0.26179 1.09152,0.0545 2.37485,-0.46064 1.28333,-0.51515 10.43333,-1.43175 20.33333,-2.03691 15.99202,-0.97754 31.64246,-3.37302 52.66667,-8.06122 3.66667,-0.81764 14.76667,-3.89876 24.66667,-6.84695 9.9,-2.94819 20.7,-6.13333 24,-7.07809 3.3,-0.94478 9.9,-3.30127 14.66667,-5.23668 20.88336,-8.47926 28.85476,-11.77752 31.57185,-13.06324 1.59787,-0.7561 11.19787,-4.2148 21.33334,-7.686 10.13548,-3.47122 22.79504,-8.17423 28.13236,-10.45116 13.68078,-5.83631 21.0188,-6.61195 27.3292,-2.88872 2.78362,1.64238 4.96658,3.97636 4.96658,5.31017 0,2.85157 -8.87297,11.15163 -14.97029,14.00368 -10.37445,4.85271 -25.44416,17.38371 -31.70548,26.36424 -4.98599,7.15132 -15.97677,17.92263 -21.9909,21.55173 -2.2,1.32755 -7,6.57982 -10.66666,11.67168 -3.66667,5.09188 -8.87184,12.1478 -11.56707,15.67982 -6.20587,8.13262 -8.38751,18.34396 -7.44621,34.85262 0.90294,15.83654 0.0399,16.96218 -14.33863,18.70072 -13.34811,1.61395 -17.75669,3.0268 -24.3516,7.80414 -4.00185,2.89892 -5.46157,5.01888 -6.14979,8.93133 -2.0427,11.6128 -8.27593,18.11585 -13.33764,13.91501 -0.94096,-0.78093 -6.33022,-2.13802 -11.97616,-3.01577 -9.79089,-1.52216 -10.39606,-1.46519 -13.09413,1.23289 -1.77372,1.77371 -3.19431,5.47126 -3.80871,9.91342 -0.53895,3.89653 -1.42276,9.40014 -1.96403,12.23022 -0.88634,4.63443 -0.73485,5.07199 1.52492,4.40443 1.37998,-0.40765 4.89168,-1.16484 7.80379,-1.68263 z"
       id="path1968" />
    <path
       style="fill:#00ffff;stroke-width:1.33333"
       d="m 168.33152,419.79511 c 0.87519,-0.5409 1.22786,-1.34684 0.78371,-1.79099 -0.44415,-0.44415 -2.5052,0.65272 -4.58012,2.43749 -3.54319,3.04774 -3.66175,3.47752 -1.94988,7.06839 l 1.82271,3.82333 1.16616,-5.27738 c 0.64138,-2.90256 1.88222,-5.71994 2.75742,-6.26084 z"
       id="path1966" />
    <path
       style="fill:#00ffff;stroke-width:1.33333"
       d="m 205.69317,440.46735 c 6.50985,-4.07738 7.59168,-5.39944 7.61976,-9.31191 0.0136,-1.9012 -0.97451,-3.03312 -2.97959,-3.41309 -2.58009,-0.48896 -3.03271,0.0393 -3.23365,3.77429 -0.16362,3.04105 -1.56246,5.55117 -4.66667,8.374 -5.49287,4.99497 -4.16812,5.22931 3.26015,0.57671 z"
       id="path1964" />
    <path
       style="fill:#0000ff;stroke-width:1.33333"
       d="m 189.89095,448.52401 c 1.15999,-0.44512 2.10906,-1.62424 2.10906,-2.62026 0,-0.99603 1.70974,-3.78184 3.79942,-6.19068 5.42818,-6.25726 6.26491,-10.9415 2.8189,-15.78096 -1.53995,-2.16267 -3.643,-3.93211 -4.67344,-3.93211 -1.03046,0 -4.48468,-1.26859 -7.67606,-2.81908 l -5.80252,-2.81908 -3.35081,3.15241 c -6.32999,5.95518 -7.86262,9.52663 -6.9489,16.1929 1.33614,9.74818 12.0195,17.77349 19.72435,14.81686 z"
       id="path1962" />
    <path
       style="fill:#000000;stroke-width:1.33333"
       d="M 172.04457,515.66667 C 172.0691,514.75 175.17905,512.2 178.95559,510 c 6.66434,-3.88225 6.97251,-4.33236 10.46872,-15.29065 1.98126,-6.20986 3.31812,-12.03112 2.97083,-12.93615 -1.11315,-2.90083 0.94564,-4.76021 3.19953,-2.88964 3.77846,3.13584 -1.28684,24.08296 -7.3415,30.36013 -6.1356,6.3611 -16.3148,10.3948 -16.2086,6.42298 z"
       id="path1958" />
    <path
       style="fill:#000000;stroke-width:1.33333"
       d="m 274.90962,519.05649 c 0.54219,-2.81533 9.13148,-5.60674 21.75706,-7.07078 5.13333,-0.59526 10.51034,-1.28555 11.94892,-1.53399 1.59178,-0.27491 2.79132,0.39411 3.06456,1.70923 0.52316,2.5179 -3.16435,3.79409 -11.04028,3.82085 -2.94807,0.0107 -9.69048,1.2182 -14.98312,2.68487 -11.62662,3.2219 -11.29019,3.20969 -10.74714,0.38982 z"
       id="path1956" />
    <path
       style="fill:#000000;stroke-width:1.33333"
       d="m 179.33334,530.66667 c -1.19081,-1.92678 0.44833,-4 3.16248,-4 3.74416,0 15.64863,-6.24606 19.98667,-10.48663 2.19153,-2.14229 5.14038,-6.20919 6.55301,-9.03756 4.71515,-9.44068 9.88871,-25.93487 9.10907,-29.04121 -0.88939,-3.54362 0.0241,-4.87534 2.65246,-3.86675 2.14522,0.8232 2.46936,7.47467 0.6449,13.23319 -0.6736,2.12609 -2.25574,7.31562 -3.51586,11.53229 -1.2601,4.21667 -2.80897,7.66667 -3.44192,7.66667 -0.63294,0 -1.15081,1.12765 -1.15081,2.50589 0,3.93548 -10.01011,13.25288 -19.61904,18.2614 -8.98979,4.6858 -12.93483,5.5726 -14.38096,3.23271 z"
       id="path1954" />
    <path
       style="fill:#000000;stroke-width:1.33333"
       d="m 298.00001,545.03301 c -3.89243,-2.07938 -8.48533,-3.00809 -17,-3.4375 -8.7364,-0.44059 -11.66667,-1.04974 -11.66667,-2.42527 0,-2.1068 -0.15447,-2.08633 13.88981,-1.84048 8.28798,0.14509 11.93163,0.88164 16.95569,3.42752 3.51954,1.78349 7.31913,3.24272 8.44352,3.24272 1.12437,0 2.04432,0.9 2.04432,2 0,2.91252 -6.30566,2.43115 -12.66667,-0.96699 z"
       id="path1952" />
    <path
       style="fill:#000000;stroke-width:1.33333"
       d="m 420.66668,551.72347 c -3.66667,-0.68946 -14.01667,-1.55822 -23,-1.93059 -12.78519,-0.52996 -16.33334,-1.08236 -16.33334,-2.54288 0,-1.02623 1.46272,-2.23297 3.25048,-2.68168 3.42446,-0.85948 26.40494,0.0775 36.97578,1.50751 7.16591,0.96944 15.81829,-1.20254 33.10708,-8.31078 17.24105,-7.08861 25.37007,-10.81744 36.40897,-16.70101 6.89735,-3.67619 11.8623,-2.72845 8.47279,1.61733 -1.56157,2.00215 -3.2802,2.94755 -14.21509,7.81963 -3.3,1.47032 -7.5,3.56988 -9.33334,4.66569 -1.83333,1.0958 -5.13333,2.88347 -7.33333,3.97258 -2.2,1.08909 -9.28409,4.7283 -15.74243,8.08712 -12.65558,6.58186 -17.54513,7.26352 -32.25757,4.49708 z"
       id="path1950" />
    <path
       style="fill:#000000;stroke-width:1.33333"
       d="m 229.33334,567.41203 c 0,-1.05672 0.6,-2.29214 1.33333,-2.74536 0.73334,-0.45323 1.33334,-4.98864 1.33334,-10.0787 0,-7.33745 0.41432,-9.25464 2,-9.25464 3.02408,0 2.92049,22.02814 -0.10907,23.19068 -3.30903,1.2698 -4.5576,0.96516 -4.5576,-1.11198 z"
       id="path1948" />
    <path
       style="fill:#000000;stroke-width:1.33333"
       d="m 254.52383,588.33333 c -0.0785,-0.55 -0.31064,-4.36253 -0.51573,-8.47229 -0.20508,-4.10976 -0.98011,-8.60976 -1.72227,-10 -0.74214,-1.39024 -1.78654,-6.03643 -2.32086,-10.32487 -0.8819,-7.078 -0.74952,-7.75437 1.43524,-7.33333 1.88344,0.36297 2.91745,3.07292 4.75569,12.46383 3.03952,15.52776 3.22876,24.66666 0.51077,24.66666 -1.1,0 -2.06428,-0.45 -2.14284,-1 z"
       id="path1946" />
    <path
       style="fill:#000000;stroke-width:1.33333"
       d="m 451.66668,590.98949 c -1.28333,-0.28509 -2.33333,-1.05112 -2.33333,-1.70226 0,-1.82404 -13.08406,-5.28723 -19.97534,-5.28723 -3.3869,0 -6.728,-0.54811 -7.42466,-1.218 -0.69667,-0.66991 -6.66667,-1.5056 -13.26667,-1.85711 -11.7904,-0.62794 -24.66667,-3.26569 -24.66667,-5.05304 0,-0.49962 -2.03971,-1.29106 -4.53269,-1.75874 -2.49298,-0.4677 -5.25611,-1.72202 -6.1403,-2.78739 -2.12658,-2.56239 -9.10894,-5.99239 -12.19853,-5.99239 -1.354,0 -2.46181,-0.6 -2.46181,-1.33333 0,-0.73333 -0.9,-1.33333 -2,-1.33333 -1.1,0 -2,-0.9 -2,-2 0,-1.19387 1.20921,-1.9882 3,-1.97072 3.4383,0.0336 13.96121,4.55398 16.99748,7.30177 1.12498,1.01811 6.83578,3.61701 12.69064,5.77536 8.35056,3.07836 15.38747,4.40077 32.64521,6.13487 18.2278,1.83156 23.31155,2.82913 29.64915,5.81798 7.37529,3.47826 9.50957,6.03856 6.01752,7.21867 -0.91667,0.30979 -2.71667,0.32999 -4,0.0449 z"
       id="path1944" />
    <path
       style="fill:#000000;stroke-width:1.33333"
       d="m 289.69321,589 c -0.78324,-1.65 -2.18164,-5.1 -3.10755,-7.66667 -2.94431,-8.16181 -10.42721,-20.76113 -15.32624,-25.80549 C 267.02093,551.16361 266.18065,548 269.25997,548 c 2.28172,0 11.08386,10.29955 15.4974,18.13379 4.09653,7.27152 9.90931,21.7849 9.90931,24.74161 0,2.35408 -3.61238,0.99192 -4.97347,-1.8754 z"
       id="path1942" />
    <path
       style="fill:#000000;stroke-width:1.33333"
       d="m 396.66668,620.33968 c -8.34739,-5.22375 -10.48275,-6.17555 -28,-12.48061 -12.42395,-4.4718 -16.41938,-6.36896 -19.76919,-9.38702 -1.33972,-1.20704 -5.38856,-4.20704 -8.99743,-6.66666 C 333.52074,587.45755 331.43032,584 335.18093,584 c 2.66047,0 7.71871,2.84236 11.52607,6.47677 5.54826,5.29627 12.10962,8.74678 24.37894,12.8205 6.46394,2.14617 12.04935,4.38228 12.41203,4.9691 0.36268,0.58683 1.60917,1.06696 2.76997,1.06696 1.16082,0 5.7754,2.2946 10.25466,5.09912 4.47924,2.80452 9.24397,5.50484 10.58829,6.00071 2.73224,1.00781 2.36342,4.0486 -0.5547,4.57319 -1.03923,0.18682 -5.48951,-1.91318 -9.88951,-4.66667 z"
       id="path1940" />
    <path
       style="fill:#000000;stroke-width:1.33333"
       d="m 358.20656,637.68519 c -8.7913,-4.63411 -18.10582,-13.05184 -36.42378,-32.91698 -6.12036,-6.63729 -6.62026,-7.60642 -4.50706,-8.73737 1.90654,-1.02035 3.42433,-0.15443 7.67094,4.37637 2.91176,3.10662 5.53994,6.2359 5.8404,6.95394 1.6635,3.97545 23.28411,22.64953 30.69215,26.50932 4.68644,2.44174 8.7148,5.4198 8.95189,6.61788 0.6307,3.18682 -2.00956,2.5814 -12.22454,-2.80316 z"
       id="path1938" />
  </g>
</svg>
