<?xml version="1.0"?>
<svg xmlns:rdf="http://www.w3.org/1999/02/22-rdf-syntax-ns#" xmlns="http://www.w3.org/2000/svg" xmlns:cc="http://web.resource.org/cc/" xmlns:dc="http://purl.org/dc/elements/1.1/" xmlns:svg="http://www.w3.org/2000/svg" id="Layer_1" xml:space="preserve" viewBox="0 0 430.644 496.681" version="1.0">
<g id="g5" fill-rule="evenodd">
	<linearGradient id="XMLID_7_" y2="373.7" gradientUnits="userSpaceOnUse" x2="173.48" y1="423.99" x1="173.48">
		<stop id="stop8" stop-color="#bffbff" offset="0"/>
		<stop id="stop10" stop-color="#1fbaff" offset="1"/>
	</linearGradient>
	<path id="path12" fill="url(#XMLID_7_)" d="m24.607 422.36c-0.709-4.61-1.773-8.8-2.908-13.12-1.419-4.26-6.383-8.37-4.54-12.34 1.844-4.26-3.546-8.44 15.604-12.27 19.148-4.12 67.447-9.51 98.087-10.71 30.43-1.21 52.2 2.9 83.33 4.11 31.21 0.92 88.16 0.85 101.35 2.48 12.41 1.42-28.23 3.19-25.88 6.95 2.26 3.69 34.96 11.99 39.78 15.61 4.4 3.47-11.63 2.19-12.27 5.74-0.56 3.55 2.2 8.51 8.58 15.18-73.19-0.57-133.61-1.07-184.25-1.21-50.57-0.28-88.798-0.42-116.88-0.42h-0.003z"/>
	<linearGradient id="XMLID_8_" y2="421.74" gradientUnits="userSpaceOnUse" x2="169.01" y1="496.68" x1="169.01">
		<stop id="stop15" stop-color="#a1763c" offset="0"/>
		<stop id="stop17" stop-color="#ffe8bf" offset="1"/>
	</linearGradient>
	<path id="path19" fill="url(#XMLID_8_)" d="m11.415 422.36c14.54 2.84 23.902 6.66 28.37 11.49 4.185 4.82-4.681 11.56-1.703 17.23 3.049 5.39 19.93 10.5 19.717 15.6-0.78 5.18-35.391 11.92-22.554 14.76 13.05 2.41 74.895-2.2 100.14 0.42 24.9 2.42 18.88 15.89 49.23 14.75 30.57-1.41 119.15-16.24 131.71-21.77 11.91-5.53-54.26-6.52-59.51-10.64-5.18-4.32 25.11-9.78 27.94-14.75 2.56-5.11-19.43-11.49-12.34-15.6 7.09-4.19 24.9-7.66 54.19-9.86-97.24-1.28-170.5-1.7-223.62-2.06-52.77-0.35-82.913-0.21-91.565 0.43z"/>
	<path id="path21" stroke="#000" stroke-width=".036" stroke-miterlimit="10" d="m10.209 422.36c8.794-0.64 22.625-0.43 54.611-0.43 32.127-0.14 91.99-0.49 135.82 0 43.69 0.29 110.28 0.92 123.48 1.63 12.26 0.36-15.47 1.14-47.6 1.28-32.48-0.21-99.22-0.85-143.62-0.85-44.605-0.21-99.854 1.06-120.64 0.85-20.633-0.42-10.845-1.99-2.051-2.48z"/>
	<path id="path23" stroke="#000" stroke-width=".036" stroke-miterlimit="10" d="m43.543 434.63c4.327-0.36 11.277-0.57 27.377-0.36 16.029-0.14 46.1-0.49 68.09 0 21.77 0.29 55.46 0.93 61.98 1.63 6.24 0.5-8.01 1-23.9 1.21-16.38-0.07-49.79-0.78-72.06-0.78-22.549-0.07-49.926 0.92-60.494 0.78-10.284-0.43-5.602-1.99-0.993-2.48z"/>
	<path id="path25" stroke="#000" stroke-width=".036" stroke-miterlimit="10" d="m46.38 446.26c2.979-0.21 8.015-0.28 19.221-0.21 11.206-0.15 32.341-0.15 47.799 0 15.39 0 38.73 0.42 43.48 0.71 4.25 0.14-5.53 0.42-16.74 0.56-11.56-0.14-34.89-0.35-50.567-0.35-15.816 0.07-35.178 0.28-42.483 0.35-7.305-0.42-3.901-0.78-0.71-1.06z"/>
	<path id="path27" stroke="#000" stroke-width=".036" stroke-miterlimit="10" d="m67.728 459.17c3.83-0.5 9.929-0.36 24.042-0.36 14.11-0.28 40.57-0.28 59.93 0 19.08 0.21 48.73 0.78 54.47 1.42 5.32 0.21-6.88 0.92-20.99 0.99-14.33 0.08-43.84-0.78-63.34-0.64-19.79 0.08-43.9 0.57-53.19 0.64-8.936-0.28-5.035-1.7-0.922-2.05z"/>
	<path id="path29" stroke="#000" stroke-width=".036" stroke-miterlimit="10" d="m82.622 471.01c5.32-0.57 13.405-0.21 32.768-0.28 19.36-0.07 55.11-0.36 81.56 0 26.31 0.14 66.1 0.71 74.19 1.13 7.59 0.29-9.51 0.78-28.58 0.93-19.51-0.15-59.65-0.71-86.25-0.64-26.95 0.07-59.927 0.56-72.411 0.64-12.483-0.5-6.525-1.35-1.277-1.78z"/>
	<path id="path31" stroke="#000" stroke-width=".036" stroke-miterlimit="10" d="m25.883 413.71c4.327-0.36 11.277-0.57 27.377-0.36 16.028-0.14 46.1-0.49 68.09 0 21.77 0.28 55.46 0.92 61.98 1.63 6.24 0.5-8.01 1-23.9 1.21-16.45-0.07-49.64-0.78-71.985-0.78-22.555-0.07-49.931 0.92-60.498 0.78-10.213-0.43-5.744-1.99-1.064-2.48z"/>
	<path id="path33" stroke="#000" stroke-width=".036" stroke-miterlimit="10" d="m135.46 406.75c4.33-0.63 11.28-0.42 27.38-0.42 16.02-0.14 46.1-0.5 68.08 0 21.78 0.28 55.46 0.92 61.99 1.63 6.24 0.35-8.02 1.14-23.9 1.28-16.45-0.22-49.65-0.86-71.99-0.86-22.48-0.21-50.07 1.07-60.57 0.86-10.28-0.43-5.6-1.99-0.99-2.49z"/>
	<path id="path35" stroke="#000" stroke-width=".036" stroke-miterlimit="10" d="m168.3 395.26c4.32-0.63 11.28-0.42 27.38-0.42 16.02-0.14 46.1-0.5 68.08 0 21.63 0.28 55.39 0.92 61.92 1.63 6.17 0.35-7.88 1.14-23.83 1.28-16.39-0.22-49.79-0.85-72.06-0.85-22.56-0.22-49.93 1.06-60.5 0.85-10.28-0.43-5.6-1.99-0.99-2.49z"/>
	<path id="path37" stroke="#000" stroke-width=".036" stroke-miterlimit="10" d="m153.54 379.24c4.4-0.36 11.14-0.57 27.31-0.36 15.96-0.14 46.24-0.49 68.16 0 21.63 0.28 55.39 0.92 61.91 1.63 6.17 0.5-7.87 1-23.83 1.21-16.38-0.07-49.79-0.78-72.05-0.78-22.56-0.07-49.94 0.92-60.5 0.78-10.29-0.43-5.6-1.99-1-2.48z"/>
	<path id="path39" stroke="#000" stroke-width=".036" stroke-miterlimit="10" d="m324.68 20.862c-0.78-4.61-3.4-8.724-7.3-12.057-4.04-3.688-10.57-7.944-16.88-8.653-6.67-0.78-15.04 1.986-21.56 4.752-6.53 2.766-12.06 7.376-16.88 11.631-5.04 4.115-8.8 8.014-12.13 12.554l4.33-0.425-6.46 8.653 3.48-0.427c-2.41 3.192-3.98 5.675-5.25 7.732-1.28 2.056-1.99 3.403-2.13 4.326l2.56-0.852c-1.78 1.844-2.77 5.461-2.98 10.852-0.57 5.178-0.5 9.929 1.27 21.135 1.77 11.276 5.96 32.837 9.51 45.817 3.12 12.62 9.22 20.35 10.35 30.28 1.14 9.86 0.64 22.27-3.4 28.51-4.4 5.82-12.49 6.53-22.06 7.31-9.86 0.71-21.14-3.69-35.46-2.56-14.54 1.07-35.46 3.06-50.15 8.44-14.68 5.32-26.02 12.7-37.58 22.42-11.92 9.64-22.913 22.41-32.416 34.18-9.433 11.42-18.44 25.89-23.759 34.12-5.319 7.73-6.88 10.42-8.228 13.82-1.63 3.55-1.915 5.68-0.85 6.96-2.695 6.38-4.611 11.98-6.029 16.8-1.561 4.69-2.34 8.59-2.624 11.71-3.972 4.61-6.028 9.36-6.454 14.25-0.426 4.9 0.78 9.93 3.901 15.11-1.772 3.55-2.837 7.45-2.624 11.7-0.071 4.11 1.134 8.58 3.05 13.41-4.114 4.82-5.461 8.79-4.327 11.63 1.064 2.98 4.894 4.75 11.206 5.6 6.17 0.5 14.823-0.35 25.958-2.55 3.05 2.83 6.596 4.46 11.206 5.18 4.539 0.56 9.646 0.14 15.603-1.28 0.284 2.48 0.284 5.67 0 10.35-0.425 4.54-0.921 10.07-1.772 16.88-3.758 1.92-7.093 3.98-10.781 6.46-3.83 2.27-8.156 5.1-10.78 8.23-2.412 2.97-4.113 6.52-4.327 10.35 4.256-1.99 9.008-2.91 14.256-3.05 5.106-0.07 11.986 0.92 16.811 2.2 4.68 1.06 8.44 2.27 11.27 3.9 2.91-2.48 7.38-5.32 13.41-8.23 6.17-3.26 19.22-7.3 22.48-9.93 2.84-2.69-0.21-4.54-4.75-6.1-4.61-1.77-12.34-3.05-22.91-3.83-3.12-5.46-5.53-10.71-6.95-16.03-1.63-5.39-2.34-10.71-2.13-15.96 3.27-3.12 5.96-6.02 8.66-9.5 2.55-3.47 4.75-7.09 6.88-10.85 17.66 0.07 30.85-0.21 40.64-0.85 9.71-0.64 14.96-2.06 16.8-3.48-0.99 5.96-1.27 10.71-0.85 14.26 0.21 3.54 1.49 5.46 3.05 6.52l-0.42 27.66c-2.63 2.56-5.61 5.82-8.66 10.07-3.26 3.98-8.08 9.86-10.35 14.68-2.34 4.69-5.32 11.85-3.48 13.83 1.85 1.64 9.15-1.34 14.26-2.62 4.68-1.42 9.71-5.1 15.11-4.75 5.53 0.14 13.26 6.38 17.73 6.95 3.97 0.42 4.47-0.99 6.95-3.48 2.2-2.76 4.04-8.44 7.73-11.27 3.69-2.84 13.61-3.69 14.75-5.61 0.78-2.27-5.25-4.96-9.08-6.45-4.11-1.56-8.72 0.5-13.83-1.77-5.03-2.2-10.28-6.17-16.03-11.63-1.06-7.88-1.63-13.83-1.7-18.16-0.21-4.4 0.07-6.67 0.85-7.38 1.21-2.76 2.63-6.03 3.48-9.5 0.85-3.48 1.56-7.45 2.13-11.63 5.46-0.28 12.69-4.47 22.48-12.56 9.71-8.51 23.4-24.25 35.03-36.31 11.28-12.34 23.9-25.46 32.42-34.97 8.29-9.5 11.27-12.83 17.66-20.35 6.31-7.66 15.88-15.53 19.93-24.4 3.61-8.79 3.61-20.71 2.97-28.08-0.71-7.73-3.26-14.04-6.87-17.31-3.98-3.33-8.8-4.04-15.54-2.12-0.64-9.22-2.12-18.52-4.75-27.88-2.83-9.43-9.01-18.86-10.85-28.58-1.98-10-1.49-24.4-0.42-29.79 0.99-5.32 2.62-3.76 6.52-2.2 3.69 1.14 8.86 5.75 16.38 10 7.52 4.12 17.38 9.51 28.51 15.11 10.85 5.32 29.44 12.55 37.17 17.3 7.52 4.47 5.53 7.74 8.22 10.36 2.42 2.55 3.41 3.69 7.38 5.6 3.9 1.85 9.36 3.55 16.38 5.39 1.49 3.05 2.84 4.26 4.33 3.9 1.28-0.49 3.12-2.55 3.9-6.45 0.5-4.33 3.69-10.14 0-17.73-3.9-7.52-12.62-15.04-22.06-27.24-9.64-12.48-23.47-30.49-34.96-46.663-11.63-16.525-26.31-39.079-34.19-50.143-7.87-11.057-12.2-15.951-12.98-15.242z"/>
	<linearGradient id="XMLID_9_" y2="172.79" gradientUnits="userSpaceOnUse" x2="429.26" y1="172.79" x1="420.21">
		<stop id="stop42" stop-color="#fffdbf" offset="0"/>
		<stop id="stop44" stop-color="#fff93f" offset="1"/>
	</linearGradient>
		<path id="path46" d="m428.44 163.2c0.93 2.91 1.07 6.17 0.43 9.51-0.64 3.19-2.48 6.73-4.75 10.35-0.29-2.76-0.71-5.1-1.28-7.8-0.71-2.84-2.76-6.6-2.62-7.73 0-1.13 2.05 1.35 2.62 0.85 0.14-0.78-1.27-4.32-0.42-5.18 0.92-0.92 2.83-0.92 6.02 0z" stroke="#000" stroke-miterlimit="10" stroke-width=".036" fill="url(#XMLID_9_)"/>
	<path id="path48" d="m418.52 164.91c-0.71-0.43-1.35-2.84-3.06-5.61-2.05-2.83-6.94-9.92-7.3-10.85-0.28-0.92 3.69 1.99 5.6 4.33 1.85 1.84 3.69 5.81 4.76 7.8 0.7 2.06 0.35 4.33 0 4.33z" stroke="#000" stroke-miterlimit="10" stroke-width=".036" fill="#ff8080"/>
	<linearGradient id="XMLID_10_" y2="27.983" gradientUnits="userSpaceOnUse" x2="323.41" y1="27.983" x1="265.53">
		<stop id="stop51" stop-color="#fffdbf" offset="0"/>
		<stop id="stop53" stop-color="#fff93f" offset="1"/>
	</linearGradient>
		<path id="path55" d="m319.5 37.386c-2.12-6.241-2.83-10.709-2.12-13.404 0.71-2.767 2.62-3.759 6.03-2.979-0.5-3.192-2.13-5.958-5.18-9.079-3.12-3.191-9.01-7.588-12.98-9.078-4.11-1.773-7.16-1.276-11.63-0.425-4.82 0.709-11.35 2.695-16.03 5.177-4.82 2.482-8.58 5.461-12.06 9.503l10.36-3.049-9.08 8.227c1.28-0.993 2.91-1.844 5.18-2.553 2.27-0.851 4.82-1.489 8.23-2.198-2.2 1.205-3.84 2.694-5.18 4.751-1.49 1.844-2.42 4.255-3.05 6.951 1.41-1.348 3.26-2.625 4.75-3.051 1.42-0.638 3.26-0.78 4.75-0.425-3.33 1.845-6.17 4.043-8.23 6.88-2.27 2.837-3.76 5.745-4.75 9.503l6.53-2.979c-2.34 3.902-4.19 7.164-4.76 9.504-0.78 2.412-0.63 3.901 0.43 4.751-1.42-0.142-1.42-0.142 0 0 1.35 0 6.38 1.702 8.23 0.425 1.35-1.56 1.28-6.313 1.7-9.078 0.28-2.979 0.07-6.596 1.28-7.802 1.27-1.347 5.17 2.412 6.52 0.852 1.21-1.774 0.21-7.873 0.85-10.355 0.36-2.482 1.7-2.978 2.13-4.751 0.42-1.987 0.57-4.184 0.42-6.88 1 1.703 2.84 2.908 4.76 3.901 1.98 0.709 5.17 0.355 7.37 1.702 1.85 1.278 3.34 3.972 4.75 6.455 1.21 2.41 1.64 6.525 3.48 8.227 1.63 1.561 4.33 1.988 7.3 1.277z" stroke="#000" stroke-miterlimit="10" stroke-width=".036" fill="url(#XMLID_10_)"/>
	<path id="path57" d="m405.96 146.33c-8.16-8.87-17.16-19.58-28.08-33.27-10.93-13.899-27.38-35.104-36.74-48.014-9.58-12.907-15.68-21.985-19.44-28.085-3.68-6.383-3.05-6.95-3.05-9.078-0.07-2.341 0.43-3.688 1.78-4.327 0.99-0.921 2.48-2.34 4.75-0.425 1.98 1.844 3.48 4.113 8.58 11.703 5.11 7.376 13.97 20.284 22.48 32.412 8.37 12.128 18.73 27.874 27.24 39.294 8.15 11.06 15.32 19.15 22.05 27.23 6.53 7.95 14.26 16.1 17.73 20.36 3.41 4.18 4.4 5.67 2.98 4.75-1.06-1.14-2.05-1.77-2.98-1.35-0.92 0.15-2.19 1.35-3.04 3.05-1-3.97-2.98-7.23-5.18-9.5-2.55-2.48-5.32-3.98-9.08-4.75z" stroke="#000" stroke-miterlimit="10" stroke-width=".036" fill="#fbffd6"/>
	<path id="path59" d="m346.74 82.777c-6.45-8.156-11.42-11.773-15.96-17.731-4.82-6.382-10.64-15.815-11.7-19.007-0.99-3.334 0.64-3.83 5.18 0.425 4.25 4.255 11.98 14.894 19.93 25.107 7.87 9.858 17.73 23.83 26.31 34.539 8.3 10.5 16.81 21.35 23.33 29.01 6.39 7.45 10.57 10.64 14.76 16.38 4.18 5.53 6.95 13.62 9.07 17.73 1.64 3.97 3.05 6.17 1.28 6.88-1.98 0.71-8.72-0.14-12.55-2.55-3.83-2.63-4.19-2.2-10.36-12.13-6.59-10.28-19.36-34.75-27.66-47.94-8.22-13.27-15.53-22.769-21.63-30.713z" stroke="#000" stroke-miterlimit="10" stroke-width=".036" fill="#fbffd6"/>
	<path id="path61" d="m319.93 60.295c-5.03-3.76-5.89-4.895-9.93-6.455-4.32-2.127-13.68-6.028-14.68-4.325-0.99 1.915 2.98 8.51 8.65 15.106 5.61 6.313 13.62 12.767 24.61 22.909 10.92 10 34.69 33.19 40.64 36.74 5.54 3.26-2.06-9.01-6.88-16.81-4.96-8.016-15.46-22.979-22.48-30.711-7.44-7.943-14.82-12.695-19.93-16.454z" stroke="#000" stroke-miterlimit="10" stroke-width=".036" fill="#fbffd6"/>
	<linearGradient id="XMLID_11_" y2="92.344" gradientUnits="userSpaceOnUse" x2="347.86" y1="126.17" x1="328.34">
		<stop id="stop64" stop-color="#b5a688" offset="0"/>
		<stop id="stop66" stop-color="#ffc05f" offset=".4663"/>
	</linearGradient>
		<path id="path68" d="m298.37 63.77c-5.25-3.05-8.72-3.475-10.43-1.276-1.84 2.27-1.56 8.581 0 14.255 1.64 5.391 6.67 12.625 9.08 18.157 2.06 5.104-0.14 9.574 4.33 14.254 4.47 4.47 13.05 8.94 22.48 14.26 9.36 5.39 22.27 12.62 33.26 18.15 10.79 5.32 21.21 9.93 31.57 13.83-4.05-10.56-8.16-17.94-12.06-22.9-4.04-4.83-6.38-2.13-11.7-6.46-5.54-4.75-13.34-13.69-20.71-20.78-7.52-7.517-16.17-14.964-23.76-22.056-7.8-7.022-14.97-13.405-22.06-19.434z" stroke="#000" stroke-miterlimit="10" stroke-width=".036" fill="url(#XMLID_11_)"/>
	<path id="path70" d="m263.33 19.372c-1.06 0.284-2.69 1.135-4.11 2.554-1.49 1.276-3.54 3.121-5.39 5.531l4.54-0.566c-1.7 1.914-3.12 3.262-4.25 4.822-1.21 1.347-2.13 2.553-2.77 3.617l4.96-0.354c-2.98 3.049-5.25 5.673-6.81 7.588-1.63 1.915-2.76 3.403-3.12 4.184l3.48-1.063c-2.77 2.411-4.04 6.667-4.61 13.049-0.57 6.171 0.14 13.83 1.84 24.611 1.56 10.922 5.54 28.155 8.66 39.935 2.9 11.41 8.29 20.07 10.14 28.72 1.84 8.44 1.42 16.31 0.92 22.27-0.92 5.81-0.92 9.71-5.18 13.05-4.25 3.33-10.92 5.18-20 6.38 1.35 1.99 3.69 3.19 7.02 3.62 3.19 0.21 7.38-0.36 12.56-1.7-0.78 0.78-2.34 2.05-3.9 3.82-1.92 1.57-3.83 3.69-6.53 6.1 4.26 0.71 7.24 0.86 10 0.43 2.56-0.43 4.19-1.84 5.18-3.47 0.14 2.34-0.71 4.89-1.77 7.37-1.14 2.55-3.27 5.04-5.61 7.73 4.05-0.42 7.1-1.42 9.93-2.98 2.77-1.84 4.55-3.9 6.1-6.95-0.07 3.48-0.56 6.74-1.77 9.51-1.2 2.76-2.84 5.32-5.18 7.37 1.78 0.57 3.69 0.14 6.03-1.27 2.34-1.42 4.75-3.98 7.8-7.38 0.15 3.33 0 7.02-0.42 10.78-0.57 3.83-1.35 7.45-2.63 11.7 4.19-1.63 7.17-4.04 9.51-6.95 2.2-3.05 3.4-6.88 3.9-11.2 0.49 1.2 0.71 2.97 0.92 5.6 0.07 2.62 0.07 5.75 0 9.93 2.34-2.34 4.11-4.97 5.6-8.16 1.35-3.26 2.2-7.02 2.56-11.28 2.76 3.2 4.39 6.25 5.17 9.93 0.64 3.48 0.36 7.24-0.85 11.28 2.63-1.84 4.76-5.6 6.1-12.13 1.42-6.66 2.41-17.8 2.13-26.52-0.78-9.01-3.05-17.8-5.46-25.53-2.56-7.66-6.6-17.17-9.08-20.07-2.62-3.06-3.54 4.04-5.74 2.12-2.34-2.12-4.68-4.68-7.8-14.25-3.41-9.65-9.58-31.63-11.71-43.267-2.27-11.773-1.77-20.284-1.27-27.163 0.28-7.093 1.84-12.057 3.9-15.178-1.99-0.071-3.62-0.214-5.18-0.426-1.77-0.284-4.4 0.567-4.33-1.277 0.07-2.198 1.57-6.028 4.75-11.489l-4.32 1.986c-0.57-2.624-0.21-5.178 1.06-7.66 1.21-2.624 3.2-5.105 6.24-7.73l-5.17 2.908c0.28-2.128 0.63-4.043 1.63-6.029 0.92-1.986 1.91-3.9 3.54-5.745l-10.85 4.042 6.24-6.809c-2.2 0.641-4.4 1.35-6.6 2.059z" stroke="#000" stroke-miterlimit="10" stroke-width=".036" fill="#efefef"/>
	<path id="path72" d="m293.4 19.868c-0.56 0.568 0.08 2.979 0 5.037-0.28 2.056-1.2 4.539-1.41 6.596-0.36 1.702-1.56 1.56-0.57 3.688 0.64 1.772 2.55 5.602 5.46 7.659 2.77 1.915 9.58 4.114 11.99 4.68 2.2 0.355 2.48-0.921 2.2-1.914-0.36-1.135-3.27-3.618-3.55-5.249-0.28-1.772 1.63-3.617 1.92-5.532-0.15-2.34-0.79-5.461-1.92-7.447-1.14-2.127-3.62-4.043-5.25-4.894-1.84-0.851-4.11-1.064-5.46-1.206-1.49-0.495-2.98-2.056-3.41-1.418z" stroke="#000" stroke-miterlimit="10" stroke-width=".036" fill="#d35f4a"/>
	<path id="path74" stroke="#000" stroke-width=".036" stroke-miterlimit="10" d="m297.16 25.047c-0.78 0.141-1.48 0.638-2.12 1.488-0.85 0.638-1.56 1.631-1.85 3.263-0.35 1.702-0.49 4.68 0.43 6.738 0.78 1.773 2.2 3.333 3.97 4.397 1.7 0.78 3.83 1.206 5.53 1.561 1.28 0.354 2.27 0.709 2.7 0.78-0.29-1.277-0.43-2.34-0.14-3.475 0.21-1.135 1.06-1.489 1.48-2.979 0.08-1.774 0.36-5.32-0.21-7.093-0.85-1.915-2.06-3.617-3.62-4.255-1.7-0.852-3.75-0.993-6.17-0.425z"/>
	<path id="path76" d="m299.58 25.826c-1.28-0.284-1.92-0.213-2.7 0.497-1.06 0.425-2.13 1.702-2.34 3.262-0.35 1.561-0.14 4.611 0.64 6.454 0.71 1.774 1.49 3.121 3.12 3.76 1.42 0.283 4.11 0.071 5.6-0.921 1.35-1.064 2.27-3.263 2.49-4.965-0.15-2.27-1.07-4.751-2.2-6.312-1.35-1.278-3.34-1.775-4.61-1.775z" stroke="#000" stroke-miterlimit="10" stroke-width=".036" fill="#61a121"/>
	<path id="path78" stroke="#000" stroke-width=".036" stroke-miterlimit="10" d="m299.01 29.584c-0.78 0.213-1.21 1.277-1.28 2.341-0.21 0.922-0.07 2.271 0.43 3.192 0.49 0.851 1.42 1.348 2.48 1.489 0.92-0.354 2.41-1.064 2.84-2.128 0.14-1.205-0.28-3.333-1-4.185-0.78-0.92-2.76-1.062-3.47-0.709z"/>
	<path id="path80" stroke="#000" stroke-width=".036" stroke-miterlimit="10" d="m311.35 68.663c9.58 9.363 17.94 17.093 25.89 23.76 7.87 6.525 14.54 11.697 20.78 15.537-10.14-8.87-19.08-16.246-26.81-22.913-7.8-6.596-14.33-12.057-19.86-16.384z"/>
	<path id="path82" stroke="#000" stroke-width=".036" stroke-miterlimit="10" d="m307.02 60.437c9.58 9.362 17.95 17.092 25.89 23.759 7.87 6.525 14.54 11.703 20.78 15.532-8.15-6.525-15.89-12.908-23.76-19.433-7.87-6.667-15.32-13.192-22.91-19.858z"/>
	<path id="path84" stroke="#000" stroke-width=".036" stroke-miterlimit="10" d="m305.25 55.26c9.43 9.361 18.09 17.092 25.96 23.759 7.8 6.525 14.61 11.702 20.71 15.532-7.94-6.383-15.46-12.27-23.34-19.007-7.94-6.81-15.46-13.122-23.33-20.284z"/>
	<linearGradient id="XMLID_12_" y2="30.076" gradientUnits="userSpaceOnUse" x2="188" y1="404.82" x1="188">
		<stop id="stop87" stop-color="#b5a688" offset="0"/>
		<stop id="stop89" stop-color="#e2e2e2" offset=".4663"/>
	</linearGradient>
		<path id="path91" d="m300.21 30.152c0.15-0.284 0.93 0.284 1.28 0.639 0.07 0.284-0.21 0.708-0.28 0.993-0.36-0.071-0.78-0.212-1-0.426-0.28-0.354-0.28-1.134 0-1.206zm-42.9 178.8c-0.64 1.06-2.41 2.77-5.61 4.33-3.26 1.77-7.73 3.4-13.4 5.67 4.47 1.28 8.44 1.14 11.63-0.42 3.05-1.78 5.6-4.97 7.38-9.58zm5.17 11.7c0.85 1.49-0.21 3.62-3.47 5.61-3.48 2.19-8.44 4.25-15.96 6.94 8.37-0.35 13.76-1.41 17.23-3.47 3.27-2.2 3.91-5.03 2.2-9.08zm8.66 9.08c0.35 0.99-0.43 2.06-2.63 3.48-2.34 1.27-5.74 2.62-10.78 4.32 5.46 0.64 9.44 0.43 11.63-0.92 2.27-1.35 2.77-3.55 1.78-6.88zm2.55 6.88c0.49 1.49 0.07 2.84-1.28 4.82-1.49 1.63-3.83 3.9-7.3 6.03 4.32 0.43 7.09-0.57 8.58-2.2 1.35-1.98 1.35-4.61 0-8.65zm12.98 1.77c0.21 1.56-0.36 3.19-1.7 5.18-1.35 1.84-3.62 3.76-6.53 6.03 4.47 0.14 7.1-0.71 8.66-2.55 1.27-1.85 1.13-4.83-0.43-8.66zm12.13-3.47c0.85 2.34 0.71 5.03-0.43 7.8-1.21 2.62-3.62 5.6-6.95 8.65 5.18-0.78 8.09-2.41 9.5-5.18 1.14-2.97 0.43-6.38-2.12-11.27zm28.08 22.91c1.42-1.78 3.26-3.34 4.75-7.38 1.42-4.4 4.05-11.42 4.33-17.23 0.14-5.96-1.42-12.77-3.05-16.88-1.77-4.12-4.61-5.68-6.88-6.88-2.48-1.21-6.03-1.21-7.38 0-1.77 1.2-2.48 3.9-1.27 7.3 1.27 3.27 7.3 6.95 9.08 12.13 1.34 5.11 1.2 12.2 0.42 17.73-0.64 5.18-5.03 11.28-4.75 13.34-0.07 1.7 3.05-0.65 4.75-2.13zm-101.56-50.57c-5.74 0.71-8.72 1.91-9.5 3.9-1 1.77 4.18 3.05 5.17 7.37 1.14 4.26 2.2 12.84 1.28 18.09-1.28 4.96-3.83 9.01-8.23 12.13 0.14 2.69-0.28 5.67-1.27 9.5-1 3.62-2.98 7.8-5.18 12.55 8.44-11.77 14.39-21.77 18.15-31.13 3.48-9.36 4.05-18.8 3.9-24.19 0.01-5.53-1.62-8.08-4.32-8.22zm26.81 30.28c-1.28 2.63-3.69 4.97-6.95 7.31-3.55 2.34-7.52 4.11-12.98 6.1 4.96 0.35 9.15-0.43 12.56-2.63 3.4-2.34 5.6-5.74 7.37-10.78zm7.31 6.88c-2.84 3.48-6.39 6.74-10.36 9.51-4.26 2.76-8.51 5.32-13.83 7.37 7.52-1.2 13.19-3.33 17.31-6.1 4.04-2.76 6.24-6.45 6.88-10.78zm3.89 6.03c-1.48 2.77-3.82 5.6-7.3 9.08-3.69 3.26-7.8 6.88-13.41 10.85 4.76 0.07 9.01-1.42 12.49-4.75 3.33-3.41 6.17-8.37 8.22-15.18zm6.53 2.2c-1.35 3.54-2.55 6.31-3.9 9.08-1.49 2.62-2.84 4.68-4.33 6.45 4.19-2.13 6.74-4.33 8.23-6.88 1.35-2.69 1.35-5.39 0-8.65zm7.73 1.7c0.57 2.06 0.43 4.89-0.43 8.23-0.99 3.4-2.62 7.02-5.17 11.7-1 1.99-0.85 1.99 0.42 0 1.21-2.06 5.89-9.01 6.95-12.13 0.78-3.47 0.29-5.88-1.77-7.8zm11.28 0.85c-0.07 2.41-0.93 5.39-1.77 8.65-0.93 3.34-2.63 6.67-4.33 10.86 4.54-4.33 7.02-8.09 8.23-11.28 0.92-3.4 0.21-5.96-2.13-8.23zm-19.01 18.16c-1.42 1.2-3.48 2.55-6.95 4.32-3.48 1.78-7.95 3.62-13.41 6.1 6.88-1.27 12.27-2.62 15.61-4.32 3.26-1.85 5.03-3.69 4.75-6.1zm-27.66 2.62c-2.98 2.06-6.24 4.33-9.5 6.03-3.55 1.63-6.67 3.48-10.43 4.75 6.45-0.92 11.35-2.12 14.68-3.9 3.4-1.91 4.97-4.11 5.25-6.88zm-19.5 5.18c-0.64 1.06-2.42 2.77-5.61 4.33-3.26 1.48-7.73 3.61-13.4 5.6 4.61 1.28 8.51 1.13 11.7-0.43 3.12-1.84 5.46-4.75 7.31-9.5zm-36.74 29.36c-0.64 1.07-2.41 2.77-5.6 4.33-3.27 1.77-7.74 3.4-13.41 5.67 4.61 1.42 8.51 0.99 11.7-0.49 3.12-1.85 5.46-4.76 7.31-9.51zm-38.02 25.11c-0.64 1.06-2.41 2.76-5.6 4.32-3.26 1.5-7.73 3.62-13.4 5.61 4.6 1.27 8.51 1.13 11.7-0.43 3.12-1.84 5.46-4.75 7.3-9.5zm59.22-2.7c-0.99 1.35-3.76 3.12-8.58 5.04-4.82 1.84-11.7 4.11-20.35 6.52 5.46-0.14 10.63-1.48 15.53-3.26 4.75-1.98 9.22-4.75 13.4-8.3zm40.57-28.3c-0.43 1.71-2.62 3.91-6.59 7.38-4.05 3.41-9.86 7.31-17.45 12.48 5.53-1.42 10.07-3.76 14.18-7.02 3.97-3.33 7.17-7.52 9.86-12.84zm28.16-7.37c-0.35 1.7-2.77 3.9-6.67 7.38-4.04 3.4-9.86 7.3-17.45 12.48 5.32-1.42 10.15-3.76 14.19-7.02 3.9-3.34 7.3-7.52 9.93-12.84zm-37.66 31.14c-0.43 1.7-2.63 3.89-6.6 7.37-4.04 3.4-9.85 7.3-17.45 12.48 5.54-1.42 10.08-3.76 14.19-7.02 3.97-3.33 7.16-7.52 9.86-12.83zm-29.79-28.66c0.5 1-0.36 2.06-2.55 3.48-2.27 1.27-5.89 2.62-10.85 4.32 5.53 0.71 9.43 0.43 11.7-0.85 2.2-1.27 2.76-3.69 1.7-6.95zm23.76-6.45c0.5 0.99-0.36 2.13-2.55 3.4-2.27 1.28-5.89 2.62-10.85 4.33 5.53 0.64 9.43 0.35 11.7-0.85 2.2-1.35 2.76-3.55 1.7-6.88zm-67.38 21.98c0.36 1-0.42 2.06-2.62 3.48-2.34 1.28-5.75 2.62-10.78 4.33 5.46 0.7 9.43 0.42 11.63-0.86 2.27-1.27 2.77-3.68 1.77-6.95zm-40.64 35.89c0.36 0.99-0.42 2.06-2.62 3.48-2.34 1.27-5.75 2.62-10.78 4.32 5.53 0.71 9.43 0.43 11.7-0.85 2.2-1.28 2.77-3.69 1.7-6.95zm79.44-33.69c0.07 1.14-2.13 2.98-6.6 5.82-4.68 2.83-11.28 6.1-20.57 10.64 11.42-3.12 19.29-5.89 23.9-8.59 4.54-2.76 5.54-5.39 3.27-7.87zm-76.53 19.01c0.07 1.13-2.13 2.98-6.59 5.82-4.62 2.83-11.35 6.09-20.502 10.63 11.422-3.12 19.292-5.88 23.902-8.58 4.61-2.76 5.39-5.39 3.19-7.87zm-82.838 62.27c-1.772 1.99-2.765 4.82-1.347 3.83 1.561-1.21 6.383-7.16 9.503-9.93 2.695-2.98 6.737-6.45 6.951-6.88-0.283-0.49-3.83 2.13-6.525 4.33-2.766 2.13-6.808 6.38-8.582 8.65zm4.043 0.71c-1.702 2.13-2.624 4.89-1.135 3.9 1.276-1.28 6.312-7.38 9.078-10.35 2.554-3.05 6.383-6.81 6.596-7.17 0-0.42-3.901 2.2-6.241 4.61-2.482 2.2-6.879 6.74-8.298 9.01zm5.32 0.14c-1.631 2.27-2.412 4.97-0.994 3.97 1.278-1.34 6.029-7.51 8.795-10.56 2.482-3.12 6.241-6.95 6.383-7.38 0-0.5-3.972 2.27-6.17 4.75-2.483 2.27-6.525 6.88-8.014 9.22zm4.397 0.99c-1.49 2.34-2.128 4.97-0.851 4.05 1.276-1.28 5.532-8.09 8.156-11.14 2.553-3.47 5.532-7.23 5.957-7.73-0.142-0.49-3.617 2.48-5.816 5.11-2.552 2.55-5.957 7.16-7.446 9.71zm152.77-145.6c-1.06 1.56-2.41 3.05-3.76 4.47-1.49 1.27-3.05 2.69-4.68 3.97-0.35 2.77-0.71 5.6-1.63 9.08-0.99 3.26-1.99 6.88-3.55 10.85 3.69-4.82 6.67-9.72 8.94-14.4s3.83-9.43 4.68-13.97zm-10.99 5.46c-1.56 1.28-3.05 2.48-4.54 3.69-0.14 4.33-0.5 8.58-1.85 13.05-1.13 4.39-3.26 8.94-5.6 13.61 4.9-6.87 8.37-12.69 10.43-17.73 1.84-4.96 2.62-9.43 1.56-12.62zm-6.74 8.02c-1.21 1.06-2.41 2.12-3.55 3.12-0.85 3.9-2.62 7.58-5.03 12.12-2.55 4.26-5.75 8.94-9.86 13.76 4.82-2.48 8.51-4.96 11.35-8.51 2.62-3.47 3.76-8.65 5.03-11.98 1.07-3.62 1.85-6.18 2.06-8.51zm-5.6-6.18c-0.64 0.93-1.07 1.71-2.06 3.12-1.06 1.07-1.91 2.77-3.33 4.33 0.21 2.2-0.5 5.11-1.85 8.73-1.56 3.4-3.83 8.15-6.52 12.34-2.7 4.04-5.96 8.01-9.51 11.91 3.27-1.49 6.39-3.83 9.65-7.8 3.19-4.11 6.95-10 9.36-15.46 2.2-5.46 3.62-11.28 4.26-17.17zm-7.66 9.3c-0.15-1.21-0.64-1.56-0.92-1.64-0.57 0.08-0.93 0.43-1.64 1.64-0.35 3.12-1.34 6.73-3.75 11.42-2.42 4.68-7.95 11.77-10.07 15.81-2.49 3.69-4.4 7.16-3.55 6.31 0.99-1.2 5.74-7.66 8.79-11.7 2.77-4.4 5.82-8.65 7.81-12.48 1.91-3.69 2.83-6.81 3.33-9.36zm-4.83-1.85c-1.13 1.35-2.12 2.63-2.98 3.55-0.99 0.78-1.56 1.49-2.26 1.84 0.7 1.14 0.14 3.9-1.99 8.02-2.13 4.11-7.45 11.84-10.5 16.59-3.26 4.61-5.67 8.02-8.01 10.78 1.77 0.93 4.25-1.06 8.23-5.95 3.68-5.18 11.7-18.3 14.75-24.05 2.91-5.96 3.83-9.36 2.76-10.78zm-6.88 0.35c-0.63 0.93-1.48 2.2-2.83 3.55-1.42 1.35-3.05 2.84-5.18 4.47-0.21 3.76-1.84 8.23-4.33 14.18-2.55 5.82-6.52 12.56-11.34 20.5 6.17-7.3 11.2-13.76 15.1-19.93 3.97-6.1 6.53-11.84 8.23-16.95l0.35-5.82zm-10.99 1.5c-0.71 1.13-1.21 2.12-2.05 3.54-0.71 1.14-1.78 2.7-2.63 4.12 0.35 5.53-0.64 10.92-2.98 16.94-2.34 5.82-6.1 11.92-10.99 18.3 2.48-2.34 5.03-5.39 7.66-9.14 2.62-3.91 5.25-9.01 7.59-13.41 1.98-4.47 3.61-8.72 4.89-13.05-0.42-0.85-0.64-1.84-0.92-2.98-0.21-1.13-0.5-2.83-0.57-4.32zm-6.38 10.99c-0.92 0.99-1.85 1.91-2.77 2.83-1.84 7.17-4.18 13.41-6.74 19.01-2.83 5.61-5.46 10.29-8.93 14.33 2.05-0.92 4.75-3.19 7.3-7.09 2.63-4.05 6.67-11.35 8.58-16.17 1.78-4.97 2.63-9.08 2.56-12.91zm-3.33-5.96c-1.07 1.56-2.13 3.12-3.2 4.68-0.07 1.99-0.78 5.11-2.41 9.65-1.7 4.47-4.11 10.71-7.23 16.81-3.26 5.67-7.24 11.63-11.92 17.87 3.83-3.48 7.1-7.66 10.57-12.27 3.4-4.82 6.81-11.13 9.36-15.89 2.06-4.96 3.34-9.08 4.12-12.62 0.85-3.62 0.99-6.17 0.71-8.23zm-5.4 5.82c-0.63 0.78-1.63 1.77-2.97 2.41-1.35 0.78-3.19 1.2-5.25 1.84-1.07 5.68-2.34 11.21-4.61 17.16-2.34 5.82-5.25 12.42-8.44 17.88-3.41 5.39-7.09 9.79-11.35 13.97 5.75-4.97 10.78-10.21 15.11-16.03 4.11-6.1 7.66-12.84 10.64-19.15 2.9-6.31 5.1-12.34 6.87-18.08zm-7.8-0.43c-1.91 2.7-3.76 5.39-5.6 8.02-0.99 4.75-2.76 9.5-5.04 15.31-2.41 5.54-5.88 12.63-9.36 18.23-3.68 5.53-7.8 10.07-12.62 14.4 4.25-2.48 8.23-5.82 11.91-10.28 3.69-4.76 6.88-10.93 9.86-16.6 2.7-5.75 5.39-12.77 7.31-17.52 1.91-4.96 2.83-8.72 3.54-11.56zm-10.07 8.87c0.15-0.85-0.14-0.78-1.13 0.21-1 0.92-2.7 2.77-4.82 5.53-2.77 9.43-5.54 17.02-8.59 23.33-3.05 6.1-6.17 10.64-9.36 13.62 1.56 0.85 4.04-0.78 7.45-4.89 3.33-4.33 9.57-14.26 12.69-19.93 3.05-5.68 4.47-10.43 5.04-13.97l-1.28-3.9zm-8.93 2.62c-1-1.7-1.85-1.42-2.84 1.13-1.06 2.35-1.28 8.59-3.12 13.55-2.27 4.82-5.39 11.49-8.23 15.89-2.624 4.26-5.106 7.38-7.446 9.64 2.34 0.5 5.39-2.12 9.146-7.58 3.69-5.75 8.09-14.05 13.19-25.75l-0.7-6.88zm-6.74 5.96c-1.28 0.71-2.56 1.42-3.76 2.05-0.85 4.97-2.62 9.79-5.036 15.25-2.553 5.32-5.745 10.71-9.858 16.46 3.262-1.92 5.745-4.54 8.227-7.87 2.267-3.48 3.897-8.02 5.747-12.28 1.7-4.39 3.26-8.93 4.68-13.61zm-5.96 3.19c-1.77 1.06-3.545 2.13-5.248 3.12-0.993 3.9-2.694 8.37-5.39 13.4-2.765 4.97-6.312 10.5-10.638 16.6 3.05-1.13 6.313-3.76 9.503-8.16 3.192-4.82 7.519-13.68 9.713-18.08 2.06-4.26 2.49-6.46 2.06-6.88zm-7.304 2.77c-1.489 0.92-2.979 1.84-4.469 2.76-3.121 8.3-6.312 14.68-9.29 20-3.263 5.04-5.887 8.73-8.937 10.78 2.27-0.07 4.965-1.63 7.801-5.25 2.908-3.75 6.809-11.27 9.504-16.02 2.483-4.9 4.185-8.73 5.391-12.27zm-4.256-0.79c-1.844 1.28-3.618 2.56-5.391 3.76-3.404 7.73-6.382 13.62-9.716 18.44-3.404 4.47-9.788 8.51-9.859 9.37-0.07 0.77 6.455-1.35 9.717-4.47 3.049-3.41 6.596-11.14 9.291-15.54 2.483-4.6 4.469-8.36 5.958-11.56zm-6.524 0.79c-0.426-0.64-0.851-1.28-1.277-1.85l-4.467 3.34c-0.568 3.19-2.128 6.88-4.681 11.34-2.837 4.4-6.312 9.29-11.206 14.97 6.242-5.82 11.064-10.57 14.752-15.32 3.616-4.61 5.815-8.87 6.879-12.48zm-7.66 1.27c-1.419 1.42-3.404 3.41-5.958 5.96-2.836 2.62-6.879 5.53-9.645 9.01-2.696 3.12-5.036 6.52-6.738 10.21 5.319-2.13 9.858-5.39 13.616-9.5 3.689-4.19 6.596-9.51 8.725-15.68zm-3.901-0.35c-6.028 4.18-10.709 7.16-13.759 9.71-3.263 2.28-3.547 1.99-5.249 4.61-1.916 2.49-3.688 6.11-5.604 10.86 2.483-3.27 6.028-6.74 10.072-11 3.972-4.32 9.008-8.86 14.54-14.18zm-23.263 28.15c-1.773 1.14-3.617 5.11-5.249 8.37-1.915 3.19-4.61 10.21-4.254 10.64 0.354 0.07 3.829-6.95 6.312-9.86 2.199-3.26 6.383-6.81 7.092-8.43 0.355-1.64-2.412-2.13-3.901-0.72zm-3.192 15.46c-2.34 3.48-2.34 4.47-0.566 2.98 1.772-1.77 9.078-8.86 11.559-12.48 2.2-3.62 3.333-6.88 2.625-9.5-2.979 4.25-5.603 8.08-7.873 11.2-2.269 3.12-4.185 5.82-5.745 7.8zm2.412 3.55c5.603-3.47 9.574-6.31 11.915-9.29 2.199-3.05 2.766-5.46 1.703-8.01-0.212 1.27-1.561 3.05-3.759 6.1-2.341 2.97-5.533 6.45-9.859 11.2zm0 2.63c1.418 1.42 3.404 1.2 5.957 0.14 2.483-1.42 6.455-4.68 8.937-7.59 2.199-2.84 3.688-6.17 4.468-9.72-2.624 3.41-5.532 6.24-8.724 9.29-3.262 2.77-6.809 5.39-10.638 7.88zm1.347 5.03c6.667-1.28 12.554-3.61 17.66-7.3 5.107-3.69 9.008-8.44 12.482-14.54-5.603 5.53-10.779 9.79-15.815 13.61-5.107 3.55-9.787 6.39-14.327 8.23zm2.2 3.33c4.183 1.71 8.652 1.5 13.971-0.92 5.248-2.69 13.333-9.43 17.163-13.4 3.546-3.97 5.036-7.31 4.469-10.28-5.674 6.59-11.349 11.84-17.306 16.02-6.17 4.12-11.915 6.88-18.297 8.58zm150-130c-5.1 5.11-8.86 10.36-10.99 16.03-2.34 5.67-3.05 11.21-2.41 17.38 4.68-4.05 8.15-8.51 10.42-14.19 2.2-5.67 3.19-11.98 2.98-19.22zm5.04-1.27c-1.07 1.49-1.99 4.53-2.77 9.15-0.78 4.39-1.49 10.35-1.84 17.87 5.31-5.61 8.15-10.64 9.07-15.11 0.71-4.54-0.78-8.51-4.46-11.91zm5.24-0.22c0.93 1.85 1.28 3.83 1.64 5.96 0.07 2.2 0.14 4.26-0.36 6.74 1.49-3.9 2.27-6.88 2.06-8.94-0.22-2.27-1.42-3.26-3.34-3.76zm-23.47 18.44c-0.78 0.93-1.63 1.49-2.84 2.49-1.2 0.78-2.69 1.63-4.47 2.55-0.63 1.13-1.13 2.77-1.48 4.89-0.36 1.99-0.86 4.47-0.93 7.45 1.99-2.62 3.69-5.03 5.39-8.01 1.63-2.98 2.98-6.1 4.33-9.37zm-9.72-2.2c-3.97 3.2-6.81 6.39-8.23 10.43-1.63 3.76-1.84 8.09-0.92 12.7 0.92-0.64 2.49-2.49 4.12-5.25 1.63-3.05 3.61-6.74 5.96-11.92l-0.93-5.96zm3.34 4.12c2.19-1.35 4.25-2.91 6.17-5.46 1.91-2.63 3.26-5.46 4.82-9.29l-4.61 3.19c-1.07-0.71-1.49-1.49-2.06-2.63-0.64-1.2-0.64-2.48-0.78-4.11-1.49 3.62-2.62 6.88-3.12 10.07-0.64 3.12-0.78 5.67-0.42 8.23zm-11.35 0.71c-1.35 0.71-2.63 1.42-3.9 2.05l-1.28-4.82c-2.34 5.96-4.11 10.64-5.04 14.89-0.92 3.98-1.27 7.24-0.78 9.51 2.2-2.84 4.26-6.17 6.18-9.72 1.91-3.83 3.26-7.44 4.82-11.91zm-10.22 4.11c-0.63-1.06-1.27-2.13-1.91-3.19-0.21 1.42-0.85 2.48-2.2 3.97-1.35 1.28-3.12 2.63-5.6 4.04-1.07 2.27-1.49 4.83-1.85 7.66-0.21 2.7-0.35 5.67 0.15 8.94 2.34-2.55 4.04-5.6 6.17-9.15 1.84-3.69 3.68-7.59 5.24-12.27zm-12.9 6.31c-0.64 0.14-1.14 0.5-1.49 0.78-0.57 0.22 0.21 0.5-0.71 1.14-0.92 0.42-2.56 1.49-4.9 2.41l-4.25 14.32c4.25-2.9 7.45-5.88 9.29-8.93 1.84-3.26 2.62-6.31 2.06-9.72zm-9.51 1.35c-2.48 1.21-4.32 2.69-6.1 5.04-1.77 2.34-3.12 4.96-4.32 8.15-1.21 2.84-2.13 5.96-2.77 9.36 3.62-2.55 6.53-5.67 8.72-9.36 2.2-3.83 3.69-8.23 4.47-13.19zm-9.29 5.18c-3.62 3.05-6.17 6.17-8.22 9.93-2.06 3.62-3.27 7.59-3.91 11.91 2.56-2.41 4.76-5.39 6.88-8.93 1.92-3.84 3.76-7.88 5.25-12.91zm-9.86 6.17c-5.39 4.61-10.07 8.86-13.26 13.05-3.26 4.04-5.81 7.73-6.877 11.35 3.547-1.42 7.017-4.47 10.427-8.37 3.4-3.97 6.45-9.58 9.71-16.03zm-10.63-0.57c-2.77 2.55-5.32 5.32-8.23 9.36-2.837 3.76-5.746 8.37-8.725 13.55l0.567 4.32c3.688-3.54 6.596-7.58 9.508-12.12 2.76-4.54 4.96-9.58 6.88-15.11zm-7.31-0.57c-5.105 4.04-8.793 7.95-11.347 12.48-2.695 4.33-3.972 8.94-4.113 13.84 3.617-4.33 6.382-8.44 9.148-12.91 2.483-4.4 4.682-8.87 6.312-13.41zm-6.879 2.27c-3.688 1.7-7.447 4.69-10.993 8.16-3.617 3.4-7.305 8.09-10.781 13.26 5.249-3.9 9.717-7.94 13.405-11.35 3.617-3.47 6.312-7.09 8.369-10.07zm-11.205 3.55c-2.695 1.21-5.958 3.97-9.504 8.58-3.618 4.54-7.802 10.64-12.27 18.58 3.476-3.47 7.164-7.44 10.781-11.91 3.545-4.68 7.305-9.58 10.993-15.25zm-1.987-1.35c-8.794 5.96-15.248 10.93-20.143 15.46-4.893 4.47-7.659 7.95-8.581 11-0.213 1.98 1.986 0.92 6.88-3.48 4.681-4.61 12.057-11.99 21.844-22.98zm-2.624 0.21c2.695-2.27 4.894-4.18 2.767-3.54-2.128 0.56-12.766 5.39-15.461 7.66-3.192 2.2-3.759 5.53-1.703 5.03 2.199-0.85 11.276-7.09 14.397-9.15zm-9.503-2.05c1.914-0.93 9.646-3.69 12.27-5.61 2.341-2.12 3.758-6.66 2.057-5.95-1.916 0.71-10.993 8.22-13.263 10.28-2.412 1.63-3.121 2.06-1.064 1.28zm114.4-47.95c-2.77 3.83-4.75 7.1-5.96 10.07-1.35 2.98-1.91 5.11-1.7 7.24 1.63-0.85 2.98-2.7 4.33-5.53 1.2-2.98 2.41-6.81 3.33-11.78zm-4.82 1.7c-2.41 1.78-4.47 4.05-6.17 7.59-1.85 3.27-3.12 7.45-4.12 12.56 1.21 0 2.56-1.63 4.33-4.9 1.63-3.54 3.62-8.37 5.96-15.25zm-8.8 5.04c2.91-4.96 3.34-6.52 2.06-5.46-1.63 1.21-9.15 8.16-10.78 12.34-1.77 3.97-1.49 7.66 0.57 11.35 1.06-2.77 2.19-5.53 3.69-8.58 1.34-3.12 2.83-6.24 4.46-9.65zm-12.83 6.53c-2.7 3.75-4.12 6.95-5.04 9.85-0.92 2.84-0.92 4.9 0 6.74 3.12-0.56 5.11-2.34 5.96-5.03 0.71-2.84 0.49-6.6-0.92-11.56zm-4.47 1.63c-2.06 1.56-4.04 4.04-5.96 7.44-2.13 3.48-4.18 7.45-6.17 12.7 2.84-1.7 5.32-4.18 7.45-7.45 1.91-3.54 3.47-7.52 4.68-12.69zm-5.82 0.78c-4.11 2.12-7.52 4.82-10.21 8.37-2.91 3.54-4.75 7.59-6.31 12.69 3.47-2.98 6.38-5.96 9.29-9.5 2.69-3.55 5.1-7.31 7.23-11.56zm-12.27 8.72c-3.19 1.42-6.1 3.55-8.72 6.38-2.84 2.7-5.39 6.1-7.66 10.22 3.05-1.7 5.81-3.83 8.58-6.67 2.77-2.91 5.18-6.03 7.8-9.93zm-9.85 2.06c-3.91 2.05-6.88 4.4-8.94 7.3-2.13 2.84-3.55 5.96-3.97 9.65 4.04-4.19 7.16-7.8 9.36-10.57 2.2-2.91 3.19-5.03 3.55-6.38zm-9.51 3.4c-1.21 0.07-2.69 1.14-4.47 3.48-1.98 2.34-3.97 5.67-6.52 10.28 0.64 0.43 2.12-0.5 3.9-2.76 1.7-2.42 4.25-5.89 7.09-11zm-16.808 12.27c3.758-4.39 7.088-8.23 9.718-11.2 2.62-3.12 4.68-5.39 6.17-7.1-5.96 3.62-10 6.88-12.7 10.07-2.692 3.13-3.756 5.68-3.188 8.23zm-7.093 1.28c0.852-2.2 2.695-5.18 5.816-8.37 3.125-3.26 7.165-7.3 12.695-11.56-8.01 5.1-13.546 9.01-16.596 12.48-3.121 3.26-3.758 5.75-1.915 7.45zm-1.063-8.73c2.624-2.83 5.39-5.81 8.581-8.93 3.193-3.33 8.083-8.58 10.003-10.29 1.63-1.77 1.63-1.77 0 0-3.97 1.78-7.45 3.55-10.428 6.17-3.192 2.56-6.171 5.89-7.802 8.37-1.774 2.27-1.703 4.05-1.703 5.04 0.001 0.78 0.356 0.57 1.349-0.36zm26.244-17.87c2.55-2.76 6.31-5.74 10.99-9.71 4.54-3.98 10.28-8.52 16.95-13.62-7.45 4.61-13.47 8.65-18.08 12.69-4.69 3.83-7.88 7.38-9.86 10.64zm1.7 2.77c1.21-0.14 4.33-1.63 8.58-4.47 4.33-2.98 10.07-7.23 17.52-13.05-5.96 2.48-11.21 5.32-15.46 8.23-4.54 2.83-7.8 6.03-10.64 9.29zm23.69-10.07c0.85-0.22 2.98-1.99 6.1-5.04 3.12-3.12 7.52-7.8 12.9-13.76-4.11 3.12-7.37 6.39-10.63 9.51-3.27 3.05-5.96 6.24-8.37 9.29zm7.44-0.71c0.86-0.85 3.34-2.91 7.45-6.17 4.19-3.33 9.72-7.87 17.17-13.62-6.32 2.77-11.49 5.82-15.54 9.15-4.25 3.26-7.02 6.81-9.08 10.64zm24.4-10.28c0.78-1.35 3.05-3.69 6.53-6.74 3.47-3.12 8.15-7.24 14.33-12.06-4.83 0.85-9.08 2.98-12.49 6.1-3.55 3.05-6.24 7.38-8.37 12.7zm11.92-4.26c0.78 0.35 2.27-0.14 5.03-2.27 2.7-2.13 6.1-5.32 10.78-9.86-1.7-0.71-3.97 0.29-6.52 2.2-2.63 2.13-5.82 5.18-9.29 9.93zm6.31 0.92c-1.06 2.55-1.7 4.82-2.2 7.09-0.5 2.13-0.85 4.12-0.78 5.96 4.26-3.12 6.53-5.39 7.09-7.66 0.43-2.27-0.85-3.97-4.11-5.39zm9.72-5.25c-1.14 1.07-1.85 2.91-2.42 5.25-0.63 2.27-0.85 5.04-0.92 8.58 2.49-1.34 4.12-3.47 4.61-5.6 0.5-2.48 0.07-4.96-1.27-8.23zm7.66-6.52c-1.92 1.49-3.27 3.26-3.76 5.6-0.64 2.34-0.57 4.75 0.21 8.01 1.7-1.7 2.62-3.68 3.33-5.95 0.57-2.27 0.64-4.83 0.22-7.66zm3.68 2.41c-0.99 1.77-1.7 3.83-1.84 6.17-0.28 2.27 0 4.61 0.57 7.31 1.7-3.69 2.69-6.53 2.98-8.8 0.14-2.27-0.43-3.83-1.71-4.68zm-55.53 22.2c1.49-0.29 3.48-1.28 5.96-2.98 2.27-1.84 5.1-4.4 8.23-7.66-3.13 0.99-6.17 2.62-8.37 4.32-2.27 1.85-4.47 3.76-5.82 6.32zm-31.49 12.12c1.85 0.22 4.4-0.28 7.66-1.48 3.19-1.35 6.88-3.19 11.35-5.82-5.32 1.49-9.43 2.63-12.63 3.97-3.26 1.28-5.39 2.2-6.38 3.33zm-14.33-10.99c5.82-2.98 10.71-5.81 14.68-8.79 3.98-2.98 6.81-6.1 8.8-9.08-5.82 2.98-10.57 6.1-14.54 9.08s-6.95 5.81-8.94 8.79zm79.37-42.55c-8.02-0.78-15.25-0.43-21.42 1.63-6.31 1.99-11.56 5.18-16.03 9.86 8.51-4.11 15.82-7.23 22.2-9.08 6.31-1.99 11.2-2.69 15.25-2.41zm3.9 1.28c-8.3 0.92-14.68 2.62-19.93 5.38-5.32 2.84-8.72 6.1-11 10.86 5.47-4.54 10.79-8.3 16.25-11 5.32-2.9 13.61-4.54 16.17-5.46 2.41-0.92 1.91-0.85-1.49 0.22zm-1.85 6.52c3.55-1.14 8.09-2.06 13.62-3.54 5.6-1.57 11.84-2.91 19.58-4.83-2.91-1.13-6.88-0.85-12.48 0.57-5.68 1.28-12.49 3.97-20.72 7.8zm45.47-5.96c-1.21 1.99-2.63 3.41-4.83 4.26-2.27 0.71-4.75 0.99-8.01 0.56 4.11 1.99 7.02 2.7 9.29 1.85 2.2-0.85 3.19-2.98 3.55-6.67zm5.39 2.06c-1 0.92-2.48 2.34-4.47 4.82-2.13 2.41-4.47 5.32-7.59 9.29 3.62-1.56 6.31-3.47 8.37-5.74 2.05-2.41 3.19-5.11 3.69-8.37zm3.4 5.04c-0.57 1.13-1.7 2.55-3.4 4.25-1.92 1.49-4.4 3.33-7.45 5.25 2.91-0.43 5.03-1.42 6.95-2.98 1.77-1.56 2.98-3.83 3.9-6.52zm-4.11 16.73c-1.63 1.63-3.34 3.41-5.39 5.61-2.13 2.12-4.33 4.39-6.88 7.09 2.62-0.57 4.96-1.56 7.02-3.76 1.91-2.2 3.76-5.18 5.25-8.94z" stroke="#000" stroke-miterlimit="10" stroke-width=".036" fill="url(#XMLID_12_)"/>
	<path id="path93" d="m92.693 385.55c0.142-1.21 2.27-2.27 4.752-2.91 2.198-0.92 6.735-1.7 9.215-0.71 2.49 1.07 4.61 3.9 5.25 7.16 0.15 3.2-1.56 8.8-2.62 11.64-1.21 2.55-2.98 0.78-3.12 3.97-0.36 3.12 3.61 14.54 2.62 14.25-1.2-0.56-7.8-13.26-8.3-17.3-0.564-4.26 4.9-4.97 5.47-7.59 0.28-2.91-1.21-7.3-2.84-8.3-1.92-0.78-5.038 2.63-6.882 2.84-1.842-0.21-3.757-2.06-3.545-3.05z" stroke="#000" stroke-miterlimit="10" stroke-width=".036" fill="#212121"/>
	<path id="path95" d="m190.64 379.59c-1.14 1.13-2.98 6.03-3.34 9.22-0.28 3.05 0.29 6.6 1.42 9.29 1 2.2 3.48 3.19 4.47 5.68 0.71 2.55-0.92 9.71 0 9.71 0.71-0.56 2.49-7.02 4.54-11.13 1.99-4.12 6.45-10.22 7.38-12.56 0.64-2.55-1.85-3.12-3.34-1.41-1.98 1.7-4.82 11.13-6.87 11.84-2.06 0.21-4.47-5.46-4.76-8.79-0.35-3.48 2.34-8.16 2.63-10.22 0-2.2-1.35-2.83-2.13-1.63z" stroke="#000" stroke-miterlimit="10" stroke-width=".036" fill="#212121"/>
	<path id="path97" d="m102.41 418.03c-0.57 1.85-1.06 4.54-1.21 7.81-0.21 3.26-0.78 9.99 0.5 11.41 1.21 1.14 4.96-3.33 6.88-3.83 1.99-0.78 3.33 1.28 3.76 0.71-0.07-0.78-1.92-3.69-3.33-3.76-1.49 0-4.83 4.47-5.39 3.55-0.64-1.28 0.92-6.81 1.13-10-0.28-3.55-1.21-8.09-1.63-9.22-0.57-0.92-0.43 1.2-0.71 3.33z" stroke="#000" stroke-miterlimit="10" stroke-width=".036" fill="#212121"/>
	<path id="path99" d="m197.24 411.58c-0.29 2.27 0.35 6.03 0 9.08-0.78 2.69-3.2 7.09-2.84 8.3 0.56 0.92 5.1-1.14 5.96-1.49 0.28-0.36-2.42 0.07-2.63-0.93 0-1.13 2.06-3.19 2.34-6.17-0.21-3.33-1.91-11.7-2.34-13.05-0.49-1.49-0.57 1.85-0.49 4.26z" stroke="#000" stroke-miterlimit="10" stroke-width=".036" fill="#212121"/>
	<path id="path101" stroke="#000" stroke-width=".036" stroke-miterlimit="10" d="m214.12 461.86c1.84 0.64 3.4 1.42 4.68 2.63 1.27 1.06 2.34 2.13 2.62 4.25 0 1.85-0.71 4.33-2.13 7.17 0.29-2.77-0.21-5.25-1.21-6.67-1.2-1.63-4.82-1.84-5.39-2.84-0.7-1.35-0.14-2.76 1.43-4.54z"/>
	<path id="path103" stroke="#000" stroke-width=".036" stroke-miterlimit="10" d="m233.34 444.91c1.84-0.71 3.61-0.92 5.31-0.64 1.63 0 3.27 0.57 4.61 1.99 1.21 1.42 1.92 3.76 2.41 7.02-1.56-2.55-2.9-4.04-4.82-4.75-2.06-0.85-4.82 1.35-6.1 0.85-1.27-0.71-1.84-2.2-1.41-4.47z"/>
	<path id="path105" stroke="#000" stroke-width=".036" stroke-miterlimit="10" d="m169.01 463.35c-1.92-0.28-3.97 0-5.39 0.57-1.85 0.42-3.2 1.13-4.05 2.91-0.85 1.77-1.13 4.04-0.85 7.37 0.85-2.9 1.99-4.54 3.69-5.67 1.7-1.07 4.75 0.14 6.1-0.5 1.07-0.85 1.14-2.41 0.5-4.68z"/>
	<path id="path107" stroke="#000" stroke-width=".036" stroke-miterlimit="10" d="m75.104 458.81c-1.701 0.15-3.262 0.71-4.397 1.42-1.489 0.71-2.34 1.49-2.836 3.12-0.354 1.42-0.142 3.69 0.639 6.24 0.142-2.48 0.922-4.25 2.057-5.32 1.206-1.2 4.042-0.71 4.965-1.49 0.636-1.06 0.495-2.12-0.428-3.97z"/>
	<path id="path109" stroke="#000" stroke-width=".036" stroke-miterlimit="10" d="m114.4 461.01c1.7 0.85 3.19 1.99 4.18 3.41 0.85 1.2 1.99 2.76 1.77 4.68-0.42 1.84-1.27 4.04-3.33 6.59 0.78-2.69 0.78-5.03 0-6.74-0.99-1.84-4.33-2.55-4.82-3.75-0.57-1.35 0.35-2.84 2.2-4.19z"/>
	<path id="path111" stroke="#000" stroke-width=".036" stroke-miterlimit="10" d="m146.52 443.49c1.99-0.49 3.69-0.49 5.4 0 1.63 0.29 3.19 0.85 4.39 2.49 0.99 1.7 1.42 3.83 1.56 7.23-1.13-2.63-2.55-4.47-4.25-5.25-1.85-0.92-4.97 0.78-6.1 0.14-1.35-0.71-1.42-2.34-1-4.61z"/>
	<path id="path113" d="m171.63 464.27c1.06-2.69 3.9-7.44 7.38-12.34 3.12-5.1 9.15-15.74 12.34-16.88 3.12-1.13 3.4 5.82 6.59 10.71 3.19 4.75 11.99 15.54 11.85 17.8-0.64 1.85-9.29-5.1-14.19-5.24-5.1-0.14-10.99 3.26-14.96 4.75-4.19 1.35-7.02 3.26-8.51 3.55-1.56 0.14-1.63 0-0.5-2.35z" stroke="#000" stroke-miterlimit="10" stroke-width=".036" fill="#212121"/>
	<path id="path115" d="m202.2 432.71c2.13 1.28 7.52 6.39 12.62 9.01 5.11 2.34 14.9 3.9 17.31 5.46 1.77 1.21-2.27 0.85-4.75 3.05-2.56 2.13-6.17 10.57-9.51 10-3.47-0.78-8.3-9.65-10.92-13.97-2.77-4.4-5.11-10.07-5.67-12.13-0.78-2.2-1.56-2.77 0.92-1.42z" stroke="#000" stroke-miterlimit="10" stroke-width=".036" fill="#212121"/>
	<path id="path117" d="m77.516 458.53c1.844-2.13 6.1-7.02 9.717-9.72 3.333-2.83 7.943-5.25 11.134-6.17 2.983-1.13 5.173-2.69 7.373 0.5 2.2 3.12 5.75 16.38 5.68 19-0.36 2.49-3.9-2.55-7.38-3.33-3.62-0.78-9.716-1.56-14.184-1.2-4.824 0.14-11.774 2.13-13.76 2.41-2.126 0.07-0.566 0.21 1.42-1.49z" stroke="#000" stroke-miterlimit="10" stroke-width=".036" fill="#212121"/>
	<path id="path119" d="m116.88 439.1c3.05 0.35 9.5 1.56 14.68 2.83 4.89 1.07 15.67 2.41 15.39 4.33-0.35 1.77-12.41 3.9-17.31 6.38-5.03 2.48-10.07 8.66-12.34 7.8-2.48-1.27-1.56-10.56-2.12-14.18-0.64-3.62-2.34-6.1-1.85-7.16 0-1.21 0.64-0.57 3.55 0z" stroke="#000" stroke-miterlimit="10" stroke-width=".036" fill="#212121"/>
</g>
<metadata><rdf:RDF><cc:Work><dc:format>image/svg+xml</dc:format><dc:type rdf:resource="http://purl.org/dc/dcmitype/StillImage"/><cc:license rdf:resource="http://creativecommons.org/licenses/publicdomain/"/><dc:publisher><cc:Agent rdf:about="http://openclipart.org/"><dc:title>Openclipart</dc:title></cc:Agent></dc:publisher><dc:title>Pelican</dc:title><dc:date>2006-12-15T10:00:24</dc:date><dc:description>A line art drawing by Bob Hines for the US Fish and Wildlife Service.&#xD;\nSource URL:&#xD;\nhttp://www.fws.gov/pictures...</dc:description><dc:source>http://openclipart.org/detail/2108/pelican-by-gerald_g</dc:source><dc:creator><cc:Agent><dc:title>Gerald_G</dc:title></cc:Agent></dc:creator><dc:subject><rdf:Bag><rdf:li>animal</rdf:li><rdf:li>bird</rdf:li><rdf:li>clip art</rdf:li><rdf:li>clipart</rdf:li><rdf:li>colouring book</rdf:li><rdf:li>externalsource</rdf:li><rdf:li>pelican</rdf:li><rdf:li>remix</rdf:li></rdf:Bag></dc:subject></cc:Work><cc:License rdf:about="http://creativecommons.org/licenses/publicdomain/"><cc:permits rdf:resource="http://creativecommons.org/ns#Reproduction"/><cc:permits rdf:resource="http://creativecommons.org/ns#Distribution"/><cc:permits rdf:resource="http://creativecommons.org/ns#DerivativeWorks"/></cc:License></rdf:RDF></metadata></svg>
