<?xml version="1.0" encoding="UTF-8" standalone="no"?>
<!-- Created with Inkscape (http://www.inkscape.org/) -->

<svg
   version="1.1"
   id="svg2708"
   width="882.12109"
   height="997.8501"
   viewBox="0 0 882.12111 997.85014"
   sodipodi:docname="k2.svg"
   inkscape:version="1.2.2 (732a01da63, 2022-12-09, custom)"
   xmlns:inkscape="http://www.inkscape.org/namespaces/inkscape"
   xmlns:sodipodi="http://sodipodi.sourceforge.net/DTD/sodipodi-0.dtd"
   xmlns="http://www.w3.org/2000/svg"
   xmlns:svg="http://www.w3.org/2000/svg">
  <defs
     id="defs2712" />
  <sodipodi:namedview
     id="namedview2710"
     pagecolor="#ffffff"
     bordercolor="#000000"
     borderopacity="0.25"
     inkscape:showpageshadow="2"
     inkscape:pageopacity="0.0"
     inkscape:pagecheckerboard="0"
     inkscape:deskcolor="#d1d1d1"
     showgrid="false"
     inkscape:zoom="0.77441738"
     inkscape:cx="424.83551"
     inkscape:cy="530.72156"
     inkscape:window-width="1920"
     inkscape:window-height="1031"
     inkscape:window-x="0"
     inkscape:window-y="25"
     inkscape:window-maximized="1"
     inkscape:current-layer="layer2" />
  <g
     inkscape:groupmode="layer"
     id="layer2"
     inkscape:label="Layer 1">
    <path
       id="path3189"
       style="fill:#000000;stroke-width:1.33333"
       d="M 532.66613 31.487129 C 502.30851 31.798965 461.74369 36.290765 454.41418 40.153145 C 453.17546 40.805902 448.37611 42.17851 443.74817 43.201973 C 439.12022 44.225435 432.3328 46.274488 428.66613 47.75666 C 424.99947 49.23883 415.09946 52.682132 406.66613 55.407051 C 392.70968 59.916566 389.63491 60.419205 372.41613 61.01252 C 361.20795 61.398724 348.98228 61.02071 342.41613 60.084785 C 329.806 58.287362 307.99607 53.484385 306.00012 52.065254 C 303.93401 50.596235 288.63123 45.332832 286.4259 45.332832 C 284.31634 45.332832 270.87071 40.154139 261.7677 35.834785 C 251.11474 30.779988 229.24575 30.532935 216.56067 35.32502 C 213.56874 36.455295 209.40593 39.169291 207.31067 41.35627 C 205.21542 43.543251 202.76926 45.332832 201.87512 45.332832 C 198.57719 45.332832 183.07943 64.081691 174.74035 78.159004 C 170.01384 86.137922 164.27473 95.36682 161.9884 98.666817 C 159.70208 101.96681 155.88631 108.32284 153.50793 112.79182 C 143.23419 132.09627 119.7186 159.40529 97.068479 178.33674 C 75.055048 196.73601 68.781218 206.85879 68.730588 224.0633 C 68.704954 232.77342 69.289627 235.32089 73.070432 243.0008 C 83.526428 264.23994 116.38414 286.91794 142.79309 291.12385 L 151.5841 292.52424 L 152.4591 328.47932 C 153.7565 381.81935 153.61023 395.68546 151.74426 396.30744 C 150.5221 396.71483 150.67324 408.05787 152.40051 445.41877 C 153.89494 477.74346 155.6104 571.25253 157.52551 724.86213 L 160.40246 955.72541 L 155.6466 961.5301 C 138.70117 982.20976 139.33254 1001.4177 157.63098 1021.9481 L 164.21301 1029.3328 L 460.65051 1029.3328 L 757.08606 1029.3328 L 763.10363 1022.6414 C 772.17676 1012.5499 775.3262 1005.172 775.3302 994.0008 C 775.33419 982.62677 771.42876 973.71405 761.60168 962.66682 L 755.07824 955.33283 L 754.18567 917.33283 C 753.69462 896.43286 752.91146 868.40091 752.44348 855.03986 L 751.59192 830.74689 L 831.46301 830.37385 L 911.3341 830.0008 L 918.5216 826.21564 C 933.07844 818.55165 944.70339 801.926 948.70324 783.04963 C 951.59007 769.42563 951.55777 454.4243 948.66809 440.784 C 945.57345 426.17631 939.90803 415.62701 929.67785 405.42854 C 915.29518 391.09047 917.8628 391.54771 848.53528 390.97736 L 789.73645 390.49494 L 786.03528 381.58088 C 776.20621 357.91021 780.89042 341.80105 807.18176 308.87775 C 821.87738 290.47521 827.22651 282.23959 831.99231 270.68244 C 843.22442 243.44429 842.65603 213.22208 830.44348 188.41486 C 827.99158 183.43436 822.32379 175.61981 817.13098 170.05939 C 805.82716 157.9554 794.42233 151.64746 777.04504 147.89143 C 764.917 145.27001 745.41029 137.30743 742.48449 133.78205 C 741.6715 132.80244 740.18064 132.0008 739.17199 132.0008 C 737.22109 132.0008 714.70658 118.51532 692.66613 104.14533 C 685.33281 99.364135 677.32564 94.34242 674.87121 92.987129 C 672.41681 91.631839 665.8155 87.648174 660.20324 84.135567 C 654.59101 80.622961 646.10077 75.644375 641.3341 73.071114 C 636.56745 70.497852 629.06613 66.156529 624.66613 63.422676 C 594.55201 44.711849 555.77056 31.2498 532.66613 31.487129 z M 815.3341 469.33283 C 832.8038 469.33283 834.62805 469.57437 840.93957 472.71955 C 853.2922 478.87511 863.82406 493.04232 870.14465 512.0008 C 872.40133 518.76966 872.62318 526.32284 873.0216 610.13166 C 873.49746 710.22972 873.34889 712.53208 865.3634 728.78986 C 859.74205 740.23444 852.04645 748.43553 842.41418 753.24885 C 834.44741 757.22993 833.76173 757.33283 815.3341 757.33283 C 796.9144 757.33283 796.21576 757.22835 788.2677 753.25666 C 774.2637 746.25879 764.31732 732.67606 759.03332 713.33283 C 756.87455 705.4302 756.66613 696.73259 756.66613 614.66682 C 756.66613 532.43219 756.87192 523.91969 759.04504 516.0008 C 764.65295 495.5654 776.00575 479.55793 789.74817 472.70979 C 796.03624 469.57631 797.87875 469.33283 815.3341 469.33283 z "
       transform="translate(-68.730588,-31.483223)" />
    <g
       id="layer1"
       inkscape:label="01"
       transform="translate(-68.730588,-31.483223)"
       style="fill:#ff9955">
      <path
         style="fill:#ff9955;stroke-width:1.33333"
         d="m 505.22728,324.99999 c -0.23261,-38.74148 -3.29242,-136.84429 -4.29954,-137.85076 -0.58976,-0.58937 -22.33976,-1.31053 -48.33334,-1.60257 l -47.26105,-0.53097 0.0637,13.15881 c 0.0528,10.89431 3.58215,141.75861 3.85193,142.82549 0.0464,0.18333 0.9093,0.33333 1.91763,0.33333 2.92731,0 3.49273,-6.33152 3.61681,-40.5 0.18694,-51.47878 1.00898,-52.2015 7.01423,-6.16666 2.82208,21.63333 5.27791,39.48916 5.45739,39.67961 0.50462,0.53544 2.04924,-39.70847 2.23941,-58.34628 0.41017,-40.19989 1.49013,-38.69121 6.44251,9 2.53202,24.38333 5.00157,44.33333 5.48788,44.33333 0.4863,0 1.34206,-17.25 1.90169,-38.33333 1.92143,-72.38797 2.02983,-72.575 7.14809,-12.33333 4.21678,49.63098 5.49225,60.78985 5.54997,48.55556 0.0136,-2.87223 0.90249,-27.12223 1.9754,-53.8889 1.0729,-26.76666 1.96181,-51.31666 1.97536,-54.55555 0.0597,-14.28604 1.31217,-1.07311 4.82237,50.87642 2.06829,30.60981 4.14217,55.20981 4.60864,54.66667 0.71977,-0.83811 5.38561,-106.82204 5.29211,-120.20976 -0.0175,-2.50555 0.21717,-4.30555 0.5215,-4 0.30432,0.30556 2.13139,29.05556 4.06016,63.88889 1.92876,34.83333 3.7324,63.93333 4.00808,64.66667 0.2757,0.73333 0.59615,-1.96667 0.71214,-6 0.116,-4.03334 1.54648,-35.83334 3.17888,-70.66667 3.44282,-73.46536 3.46662,-73.39426 7.59036,22.66667 1.52681,35.56666 3.00944,65.41666 3.2947,66.33333 0.28527,0.91667 2.0375,1.66667 3.89386,1.66667 h 3.37517 l -0.106,-17.66667 z"
         id="path3311" />
      <path
         style="fill:#ff9955;stroke-width:1.33333"
         d="m 307.8344,296.99999 c 0.0911,-18.88333 0.65153,-34.33333 1.24544,-34.33333 0.5939,0 3.3864,17.85 6.20553,39.66666 2.81913,21.81667 5.59519,40.86667 6.16899,42.33334 0.57381,1.46666 1.08289,-8.13334 1.1313,-21.33334 0.0484,-13.2 0.49939,-36.3 1.00218,-51.33333 l 0.91416,-27.33333 5.69329,47.33333 c 3.13132,26.03333 5.82571,48.83333 5.98753,50.66667 0.66683,7.55412 2.14312,-40.57406 2.30739,-75.22223 0.0971,-20.47221 0.41352,-36.97221 0.70327,-36.66666 0.28973,0.30556 3.0045,24.25556 6.03281,53.22222 3.02832,28.96667 6.03,54.46667 6.67043,56.66667 0.72079,2.4761 1.26648,-16.31864 1.43237,-49.33334 0.39344,-78.30167 0.93763,-78.90577 7.8073,-8.66666 3.19166,32.63333 5.96702,59.50869 6.16745,59.72301 0.20043,0.21432 0.84921,-30.68568 1.44175,-68.66667 l 1.07734,-69.05634 6.14602,66.66666 c 7.40832,80.35903 7.98286,79.28602 8.13633,-15.19558 0.0579,-35.64243 0.34488,-64.20441 0.63776,-63.47108 0.29288,0.73333 3.25205,33.73333 6.57596,73.33333 3.32389,39.6 6.26729,72.9 6.54089,74 0.2736,1.1 0.57619,-1.3 0.67243,-5.33333 0.26891,-11.27002 -2.51232,-124.55596 -3.36577,-137.09552 l -0.75516,-11.09553 -11.53903,0.86169 c -29.38921,2.19469 -81.2592,9.27072 -83.42546,11.38079 -1.81473,1.76764 1.2328,94.69297 4.10867,125.2819 2.28555,24.31 2.49868,25.39333 3.27883,16.66667 0.4589,-5.13334 0.9089,-24.78334 1,-43.66667 z"
         id="path3309" />
      <path
         style="fill:#ff9955;stroke-width:1.33333"
         d="m 602.11325,337.66666 c -0.43307,-8.61667 -1.44759,-42.96667 -2.2545,-76.33333 -0.80689,-33.36667 -1.85521,-61.05447 -2.32957,-61.52846 -1.73088,-1.72945 -52.23299,-9.27565 -75.19583,-11.23601 l -10.33333,-0.88217 0.0479,9.15665 c 0.1076,20.60369 3.69423,139.34313 4.22502,139.87392 0.31522,0.31524 2.61933,-17.38067 5.12021,-39.32423 2.50088,-21.94357 4.70889,-39.73554 4.90671,-39.53774 0.1978,0.19781 1.20514,19.70514 2.23852,43.34963 1.03337,23.6445 2.15505,43.26618 2.49261,43.60374 0.86569,0.86568 1.69192,-6.66156 5.79655,-52.80867 1.98942,-22.36667 4.01116,-41.1307 4.49272,-41.69786 0.48157,-0.56716 1.60137,17.73284 2.48845,40.66666 1.53271,39.62509 2.63064,56.36973 3.63059,55.36979 0.2475,-0.24751 2.28485,-25.02495 4.52742,-55.06098 4.25309,-56.96378 4.91803,-63.43479 5.26923,-51.27761 0.75148,26.01286 5.18386,106.86415 5.89758,107.57785 0.47662,0.47663 0.91124,-1.18341 0.96581,-3.68896 0.0545,-2.50556 1.74099,-30.65556 3.74756,-62.55556 4.18729,-66.56843 4.28765,-66.43591 7.57363,10 1.16645,27.13334 2.60978,51.73334 3.20741,54.66667 l 1.0866,5.33333 0.1594,-5.33333 c 0.48571,-16.25064 6.74115,-135.72608 7.12645,-136.11138 0.25199,-0.25199 1.8023,28.76998 3.44515,64.49327 1.64284,35.7233 3.33383,68.10144 3.75775,71.95144 0.7379,6.70164 0.93968,7 4.73409,7 h 3.96335 l -0.78743,-15.66666 z"
         id="path3307" />
      <path
         style="fill:#ff9955;stroke-width:1.33333"
         d="m 672.69241,317.87215 c 1.82911,-23.39637 3.50736,-43.73887 3.72943,-45.20553 0.22206,-1.46667 0.89426,6.47161 1.49377,17.64061 0.59952,11.16901 1.61376,19.9836 2.25388,19.58799 1.28056,-0.79143 1.27415,-34.96166 -0.012,-67.18569 l -0.82413,-20.62372 -15.142,-5.09443 c -18.85726,-6.34441 -54.65181,-15.75651 -55.34814,-14.55367 -0.28516,0.49259 0.28052,29.09562 1.25708,63.56228 0.97656,34.46667 1.80349,68.61667 1.83764,75.88889 0.0341,7.27222 0.33176,12.95254 0.66139,12.62292 0.32961,-0.32962 2.81073,-17.67962 5.51358,-38.55556 2.70287,-20.87593 5.43318,-38.52625 6.06738,-39.22292 0.65393,-0.71836 1.15306,6.83735 1.15306,17.45468 0,18.25603 1.44414,59.5176 2.05886,58.82546 0.1694,-0.19075 2.30478,-17.6627 4.74529,-38.82658 2.65968,-23.06438 4.79392,-37.1463 5.32749,-35.1512 0.4896,1.83071 1.35204,20.0466 1.91652,40.47978 0.56448,20.43316 1.43842,35.6512 1.94207,33.81786 0.50364,-1.83333 2.64112,-20.55409 4.74995,-41.60169 2.10882,-21.04759 4.02376,-38.07881 4.25541,-37.84716 0.23165,0.23165 1.30361,19.20361 2.38213,42.15991 1.07852,22.95629 2.16282,41.9406 2.40955,42.18732 0.24674,0.24673 2.1467,-19.05331 4.22212,-42.88899 2.07544,-23.83567 3.94047,-43.17064 4.14452,-42.96659 0.47263,0.47263 4.51276,74.98279 4.51276,83.22659 0,14.72179 1.59326,1.91075 4.69239,-37.73052 z"
         id="path3305" />
      <path
         style="fill:#ff9955;stroke-width:1.33333"
         d="m 231.82981,286.77772 c 0.0936,-15.70554 0.39708,-28.30554 0.67438,-27.99999 0.27731,0.30556 3.12731,22.75555 6.33334,49.88889 6.90334,58.42453 7.52317,57.89902 7.86322,-6.66667 0.12747,-24.2 0.63766,-45.45204 1.13379,-47.22677 0.52185,-1.86676 3.05369,16.95924 6.00706,44.66666 2.80776,26.3414 5.58176,49.99344 6.16445,52.56011 0.65976,2.9062 1.11097,-5.14167 1.19609,-21.33333 0.0752,-14.3 0.55432,-41.9 1.0648,-61.33333 l 0.92814,-35.33334 6.13824,60 6.13824,60 0.92762,-29.33333 c 0.51019,-16.13334 0.9987,-46.43334 1.08556,-67.33333 0.0868,-20.9 0.39092,-37.1 0.67567,-36 0.28475,1.1 3.16489,30.39974 6.40032,65.11054 3.23543,34.7108 6.23285,63.4608 6.66095,63.88889 0.42808,0.42808 0.76276,-3.07166 0.74373,-7.77721 -0.0272,-6.72251 -3.74157,-141.31924 -3.92083,-142.07744 -0.0796,-0.33686 -23.17318,4.88056 -30.71124,6.93846 -4.03333,1.1011 -15.94291,4.80576 -26.46572,8.23254 l -19.1324,6.23054 0.97501,38.06017 c 0.53626,20.93309 1.40052,49.16017 1.92062,62.72684 l 0.94561,24.66666 0.38719,-21.33333 c 0.21294,-11.73333 0.75825,-28.23333 1.21177,-36.66667 l 0.82459,-15.33333 6,45.33333 6,45.33334 0.8298,-24.66667 c 0.45637,-13.56667 0.90637,-37.51667 1,-53.22223 z"
         id="path3303" />
      <path
         style="fill:#ff9955;stroke-width:1.33333"
         d="m 189.31263,286.66666 c 0.26127,-0.52839 8.26159,70.25096 9.49467,84 0.16443,1.83333 0.73377,-2.66667 1.2652,-10 1.53653,-21.20274 2.90133,-126.29912 1.69123,-130.23333 l -1.09706,-3.56666 -9.48049,4.39734 -9.48049,4.39732 0.52872,63.16933 c 0.2908,34.74313 0.92522,65.86933 1.40985,69.16933 0.56041,3.81616 1.69235,-9.7722 3.10992,-37.33333 1.22585,-23.83334 2.37715,-43.63334 2.55845,-44 z"
         id="path3301" />
      <path
         style="fill:#ff9955;stroke-width:1.33333"
         d="m 708.75733,366.33332 c -0.44369,-11.18333 -1.44481,-43.36938 -2.22472,-71.52456 l -1.41799,-51.19121 2.89344,-3.9136 c 1.5914,-2.15246 2.69062,-4.09892 2.44271,-4.32545 -0.92397,-0.84428 -20.19125,-8.74715 -20.487,-8.40316 -0.89123,1.03657 2.33101,80.39488 4.66883,114.98534 1.48541,21.97839 2.70076,40.37839 2.70076,40.88889 0,1.13287 6.41502,3.56708 9.78201,3.71182 2.3072,0.0992 2.40207,-1.06951 1.64196,-20.22807 z"
         id="path3299" />
      <path
         style="fill:#ff9955;stroke-width:1.33333"
         d="m 515.45395,718.20234 c 0.0663,-0.11134 -1.24812,-51.20236 -2.92099,-113.53569 -1.67286,-62.33333 -3.07713,-120.08333 -3.1206,-128.33333 -0.0723,-13.71201 -0.29218,-15 -2.56157,-15 -2.29865,0 -2.54711,1.80247 -3.35403,24.33333 -0.47932,13.38333 -1.27612,33.33333 -1.77069,44.33333 l -0.89921,20 -2.34758,-20 c -1.29117,-11 -3.71494,-31.4 -5.38617,-45.33333 l -3.03859,-25.33333 -0.89168,10.65529 c -0.49041,5.86042 -1.3429,30.16041 -1.89442,54 -0.55152,23.83959 -1.22243,42.71504 -1.4909,41.94544 -0.26848,-0.7696 -2.83081,-24.67217 -5.69409,-53.11684 -2.86328,-28.44465 -5.47887,-51.99045 -5.81241,-52.32401 -0.33356,-0.33355 -1.05028,21.76903 -1.59274,49.11682 -1.62324,81.83695 -1.84712,82.17204 -7.83285,11.7233 -2.83501,-33.36667 -5.29756,-60.82921 -5.47232,-61.02787 -0.47091,-0.53534 -1.88076,46.17495 -2.94872,97.69453 -0.51684,24.93334 -1.11493,44.43333 -1.32908,43.33333 -0.21415,-1.1 -2.52875,-29.88054 -5.14355,-63.95677 -2.6148,-34.07622 -5.02363,-62.22622 -5.35296,-62.55555 -0.32933,-0.32932 -0.62088,4.15122 -0.64788,9.95677 -0.0884,19.01017 -3.63617,128.68526 -4.18028,129.22937 -0.292,0.29201 -2.82787,-33.19015 -5.63525,-74.40477 -2.80739,-41.21464 -5.24899,-75.09837 -5.42578,-75.29719 -0.1768,-0.19881 -0.70542,18.10119 -1.17473,40.66667 -2.38139,114.50305 -2.85817,134.04454 -3.1806,130.36147 -0.19259,-2.2 -2.43823,-37.9 -4.99031,-79.33333 -5.10668,-82.90785 -6.07169,-96.40337 -6.8386,-95.63647 -0.28426,0.28426 0.97696,57.46877 2.80274,127.07666 1.82576,69.60789 3.32376,127.75981 3.32889,129.22647 0.009,2.62603 0.74596,2.65959 48.34283,2.20236 26.58344,-0.25537 48.38779,-0.55537 48.45412,-0.66666 z"
         id="path3253" />
      <path
         style="fill:#ff9955;stroke-width:1.33333"
         d="m 611.54797,698.33331 c -0.46659,-14.11666 -1.49148,-52.36666 -2.27756,-85 -1.28812,-53.47521 -1.89314,-63.41426 -6.12783,-100.66666 -2.58424,-22.73333 -4.94849,-41.58333 -5.25392,-41.88889 -0.30541,-0.30555 -0.92441,-0.18645 -1.37553,0.26467 -0.81862,0.81862 -2.91411,53.84255 -3.22578,81.62422 -0.0905,8.06667 -0.40438,14.06667 -0.69753,13.33333 -0.48833,-1.22154 -9.92313,-92.93723 -9.92313,-96.46269 0,-0.84552 -0.5301,-1.5373 -1.17798,-1.5373 -0.64789,0 -1.62062,21.83798 -2.16164,48.52885 -1.46782,72.41602 -1.90845,73.1233 -7.14624,11.47114 -2.46093,-28.96666 -4.90354,-54.76666 -5.42804,-57.33333 -1.0212,-4.99744 -2.13189,23.321 -3.59665,91.70127 -0.47559,22.20234 -1.00772,40.20234 -1.18251,39.99999 -0.17477,-0.20236 -2.63445,-30.94159 -5.46592,-68.30942 -3.18789,-42.07151 -5.47503,-65.933 -6.00663,-62.66666 -0.47216,2.90116 -1.30249,35.43541 -1.84516,72.29834 -0.54266,36.86295 -1.38833,67.27176 -1.87924,67.57516 -0.4909,0.3034 -2.88954,-28.95719 -5.33032,-65.02352 -6.10469,-90.20692 -6.08852,-90.13134 -7.18221,-33.57516 -0.52471,27.13333 -1.36857,66.73333 -1.87524,88 l -0.92123,38.66666 -5.56649,-88.38821 c -3.06156,-48.61352 -5.99401,-88.81351 -6.51655,-89.33333 -0.52253,-0.51981 -0.57673,8.65488 -0.1204,20.38822 0.45628,11.73333 2.02586,69.33333 3.48792,127.99999 1.46207,58.66667 2.92214,107.41666 3.2446,108.33333 0.41363,1.17584 4.62336,1.70329 14.2948,1.79104 7.53968,0.0684 23.60851,0.87713 35.70851,1.79717 12.1,0.92004 25.23916,1.76407 29.19814,1.87563 l 7.19808,0.20283 z"
         id="path3251" />
      <path
         style="fill:#ff9955;stroke-width:1.33333"
         d="m 356.66668,722.70904 c 10.26667,-0.66796 26.16667,-1.60188 35.33333,-2.07538 l 16.66667,-0.86091 -0.35384,-12.88639 c -2.05796,-74.94666 -5.65051,-223.70011 -5.6486,-233.88637 0.003,-11.87438 -0.21645,-13 -2.52561,-13 -2.7615,0 -2.35315,-4.86132 -5.15203,61.33333 l -0.98659,23.33333 -4.45598,-38.66667 c -2.45079,-21.26666 -4.79483,-40.13215 -5.20896,-41.92331 -1.81428,-7.84688 -2.73555,4.08714 -3.6833,47.71355 -0.54645,25.15406 -1.42093,45.24155 -1.94328,44.63887 -0.52234,-0.60268 -2.94244,-21.94577 -5.37797,-47.42911 -2.43553,-25.48333 -4.86299,-46.33333 -5.39435,-46.33333 -0.53134,0 -1.37045,16.65 -1.86466,37 -0.49423,20.35 -1.31248,46.6 -1.81838,58.33333 l -0.91978,21.33334 -4.51106,-53.33334 c -2.48108,-29.33333 -4.92121,-55.73333 -5.42252,-58.66666 -1.40935,-8.24673 -2.54651,15.92835 -3.63763,77.33333 -0.55498,31.23341 -1.33597,50.2946 -1.88474,46 -0.51539,-4.03333 -2.93103,-33.88333 -5.36811,-66.33333 -2.43708,-32.45 -4.81631,-59 -5.28717,-59 -0.47087,0 -1.2439,23.55 -1.71783,52.33333 -0.47395,28.78333 -1.26963,61.93333 -1.76817,73.66667 l -0.90647,21.33333 -4.91761,-70.66667 c -2.7047,-38.86666 -5.17708,-71.86666 -5.4942,-73.33333 -0.82691,-3.82437 -2.23515,41.62159 -3.34662,108 -0.528,31.53333 -1.128,56.13333 -1.33332,54.66666 -0.20533,-1.46666 -2.50377,-36.54009 -5.10766,-77.94094 -2.60388,-41.40085 -5.01091,-75.55085 -5.34895,-75.88888 -1.27069,-1.2707 -0.48281,55.61647 2.05668,148.49649 1.44363,52.8 2.63317,96.83856 2.64341,97.86346 0.0153,1.52936 2.34944,1.7018 13.01863,0.96178 7.15,-0.49594 21.4,-1.44822 31.66667,-2.11618 z"
         id="path3249" />
      <path
         style="fill:#ff9955;stroke-width:1.33333"
         d="m 693.29108,727.66664 c -0.1188,-23.41514 -6.46292,-235.94964 -7.0609,-236.54762 -1.11642,-1.11641 -2.01168,8.55931 -4.3377,46.88096 -1.99902,32.93398 -3.14447,44.31286 -3.27723,32.55556 -0.0895,-7.93014 -6.1416,-73.19304 -6.85345,-73.9049 -0.37464,-0.37463 -1.46198,18.67572 -2.4163,42.3341 -0.95433,23.65838 -2.12056,44.09188 -2.59164,45.40778 -0.47106,1.31588 -2.25116,-16.38412 -3.95574,-39.33334 -1.7046,-22.94922 -3.50495,-44.12586 -4.00079,-47.0592 -0.69145,-4.09049 -3.81208,72.95614 -4.26633,105.33333 -0.16863,12.01844 -1.34381,-0.0895 -5.16503,-53.21565 -2.21071,-30.73526 -4.24432,-56.10716 -4.51914,-56.38197 -0.27481,-0.27481 -0.95468,21.87223 -1.51081,49.21565 -1.82996,89.97217 -2.07639,90.84896 -6.47795,23.04864 -2.09473,-32.26666 -4.22116,-61.96666 -4.7254,-66 -0.86189,-6.8942 -2.68097,65.63956 -2.88956,115.21821 -0.0548,13.01295 -0.53449,20.39968 -1.21981,18.78179 -0.62127,-1.46667 -3.02449,-34.76667 -5.34051,-74 -7.32444,-124.0761 -8.05952,-112.8489 -3.56201,54.40411 2.2644,84.20789 3.34164,109.97893 4.63048,110.77547 0.92377,0.57092 8.10765,1.78778 15.96417,2.70411 7.85652,0.91635 21.78459,3.03933 30.95126,4.71777 24.56909,4.49867 22.67435,4.91195 22.62439,-4.9348 z"
         id="path3247" />
      <path
         style="fill:#ff9955;stroke-width:1.33333"
         d="m 270.78153,730.04635 c 16.29791,-1.84213 29.96749,-3.68428 30.37687,-4.09364 0.89982,-0.89983 -5.1454,-231.25997 -6.36695,-242.61939 -1.58709,-14.75877 -2.57819,-3.49731 -3.52029,40 -0.50827,23.46666 -1.31111,45.36666 -1.78411,48.66666 -0.60975,4.25412 -2.20931,-8.72922 -5.49716,-44.61924 -3.2812,-35.81748 -4.88788,-48.8665 -5.49457,-44.62523 -0.47158,3.2967 -1.30435,29.26694 -1.85062,57.71165 -0.54626,28.4447 -1.42577,51.22606 -1.95445,50.62524 -0.52868,-0.60083 -3.00027,-26.29242 -5.49241,-57.09242 -5.34334,-66.03759 -5.5732,-65.25962 -7.28819,24.66667 -0.63708,33.40575 -1.46785,53.65642 -2.02389,49.33333 -0.51876,-4.03333 -2.95528,-34.63333 -5.41448,-68 l -4.47127,-60.66666 -0.85079,19.33333 c -0.46793,10.63333 -1.32483,45.13333 -1.9042,76.66667 -0.57939,31.53333 -1.23516,56.43333 -1.45729,55.33333 -0.22212,-1.1 -2.52716,-33.8 -5.12232,-72.66667 -2.59515,-38.86666 -4.88216,-71.86666 -5.08224,-73.33333 -0.39199,-2.8732 -1.66658,44.27947 -3.1897,118 -0.52272,25.3 -1.10966,44.8 -1.30432,43.33333 -0.19466,-1.46667 -2.53286,-38.06667 -5.196,-81.33333 -2.66313,-43.26667 -5.07856,-78.91667 -5.36761,-79.22223 -0.28904,-0.30554 -0.81117,-0.2699 -1.16031,0.0792 -0.34912,0.34914 0.84586,54.89914 2.65548,121.22223 1.80964,66.32309 3.2953,122.43814 3.30144,124.7001 l 0.0107,4.11265 7.90783,-1.08145 c 4.34929,-0.59481 21.24247,-2.58867 37.54036,-4.43081 z"
         id="path3245" />
      <path
         style="fill:#ff9955;stroke-width:1.33333"
         d="m 712.59982,539.11549 -0.89942,-38.88449 -6.72604,-2.79522 c -3.69932,-1.53737 -7.04026,-2.481 -7.4243,-2.09694 -0.38405,0.38405 0.62783,52.43992 2.24862,115.6797 1.62078,63.23979 2.92914,117.77184 2.90745,121.18232 -0.0387,6.07664 0.0607,6.22457 4.96056,7.38348 l 5,1.1826 0.41628,-81.38348 c 0.22896,-44.76092 0.012,-98.8815 -0.48315,-120.26797 z"
         id="path3243" />
      <path
         style="fill:#ff9955;stroke-width:1.33333"
         d="m 208.00001,738.1109 7.33333,-1.44426 -0.39517,-16.66666 c -0.21735,-9.16667 -1.56319,-60.16667 -2.99076,-113.33333 -1.42756,-53.16667 -2.59974,-101.31667 -2.60483,-107 -0.007,-7.7854 -0.45341,-10.33333 -1.81064,-10.33333 -1.97929,0 -2.70672,11.04866 -4.43311,67.33333 -1.05492,34.39319 -1.36953,33.86199 -5.90316,-9.9672 -2.10054,-20.30725 -3.38649,-28.56523 -3.98926,-25.61799 -0.48923,2.39206 -1.30354,24.8773 -1.80958,49.9672 -0.93094,46.15835 -2.07466,59.57871 -3.48994,40.95132 -1.14687,-15.09457 -1.37347,40.90312 -0.35722,88.27849 l 0.87831,40.94516 6.11935,-0.83424 c 3.36564,-0.45884 9.41934,-1.48416 13.45268,-2.27849 z"
         id="path3241" />
      <path
         style="fill:#ff9955;stroke-width:1.33333"
         d="m 617.66713,932.33516 c -0.63924,-32.64727 -3.06155,-84.26807 -4.08398,-87.03196 -0.59748,-1.61516 -2.06296,14.19615 -3.48702,37.62204 -1.35102,22.22444 -2.84331,41.14756 -3.3162,42.0514 -0.47288,0.90382 -2.2359,-15.29617 -3.9178,-36 -3.43072,-42.23133 -4.14595,-48.27717 -5.52774,-46.72632 -0.5307,0.59564 -2.04894,19.83299 -3.37386,42.74965 -1.32491,22.91667 -2.78076,41.66667 -3.23523,41.66667 -0.45448,0 -2.1894,-16.95 -3.85539,-37.66667 -3.28957,-40.90585 -4.06452,-47.66666 -5.46372,-47.66666 -0.50581,0 -2.04232,20.08681 -3.41445,44.63736 -1.37213,24.55054 -2.74684,44.3853 -3.05489,44.07723 -0.30807,-0.30805 -2.26868,-20.46867 -4.35694,-44.80137 -2.08825,-24.3327 -4.10889,-44.55333 -4.4903,-44.93476 -1.44951,-1.4495 -1.95528,4.27612 -4.23948,47.99394 -1.29238,24.73481 -2.53587,44.78627 -2.76334,44.55882 -0.22745,-0.22747 -2.18797,-20.98798 -4.3567,-46.13449 -3.61565,-41.92351 -4.41615,-48.24031 -5.90787,-46.61896 -0.28114,0.30556 -1.60195,20.80475 -2.93516,45.55375 -1.3332,24.749 -2.81942,44.54899 -3.30268,43.99999 -0.48327,-0.549 -2.57846,-20.94818 -4.65595,-45.33151 -2.07751,-24.38334 -4.18032,-44.33334 -4.67292,-44.33334 -2.34573,0 -3.94544,97.46393 -1.74369,106.23639 l 0.77729,3.09694 42.85546,10e-4 42.85545,10e-4 -0.33289,-17.00187 z"
         id="path3231" />
      <path
         style="fill:#ff9955;stroke-width:1.33333"
         d="m 520.82231,919.66664 c -1.80432,-62.93537 -2.5288,-79.66667 -3.44964,-79.66667 -0.52459,0 -1.7264,16.35 -2.67069,36.33334 -3.24627,68.6985 -2.89302,67.98931 -7.13958,14.33333 -3.74942,-47.37471 -5.14132,-57.38027 -6.67737,-48 -0.42031,2.56667 -1.46892,21.16667 -2.33027,41.33333 -2.57302,60.2422 -2.72125,60.36769 -7.08672,6 -2.11978,-26.4 -4.29254,-48.49525 -4.82833,-49.10057 -1.38483,-1.56451 -2.36039,10.70016 -4.06469,51.10057 -0.8198,19.43334 -1.91932,36.78765 -2.44338,38.56515 -0.55125,1.86974 -2.56556,-16.53383 -4.77937,-43.66667 -2.1046,-25.79416 -4.23732,-46.89848 -4.73937,-46.89848 -1.18778,0 -2.16972,13.77484 -4.18208,58.66667 -1.00163,22.3442 -2.03552,35.10421 -2.64687,32.66666 -0.55177,-2.2 -2.57213,-23.49325 -4.48971,-47.31834 -1.91756,-23.82509 -3.74321,-43.57509 -4.05701,-43.88888 -0.3138,-0.3138 -0.81208,-0.32055 -1.10728,-0.0149 -0.57132,0.59136 -4.82771,81.83678 -4.80818,91.77778 0.0275,13.99093 -1.48481,1.58397 -5.26102,-43.16149 -2.2193,-26.29707 -4.32674,-48.10451 -4.68319,-48.46096 -1.43245,-1.43247 -1.95489,4.93577 -4.08005,49.73356 -1.2176,25.66667 -2.45764,46.91666 -2.75566,47.22222 -0.29801,0.30555 -0.53521,-0.59445 -0.52712,-2 0.0239,-4.14889 -6.7053,-84.80981 -7.48572,-89.72922 -0.39325,-2.47885 -1.1538,-3.97885 -1.6901,-3.33333 -0.53631,0.64552 -0.40756,25.02366 0.2861,54.17366 l 1.26122,53 h 48.64331 48.64329 l -0.85052,-29.66667 z"
         id="path3229" />
      <path
         style="fill:#ff9955;stroke-width:1.33333"
         d="m 400.37863,949.3333 h 14.6127 l -0.86625,-25 c -1.08296,-31.25383 -4.80097,-80.61769 -6.18756,-82.15175 -1.478,-1.63522 -2.35057,8.51836 -3.93751,45.81842 -2.24853,52.85043 -2.63089,53.15036 -6.79898,5.33334 -2.01356,-23.1 -3.70752,-43.95 -3.76436,-46.33334 -0.0645,-2.708 -0.78158,-4.33333 -1.91162,-4.33333 -2.20394,0 -2.80782,6.87135 -5.06476,57.63059 -0.90394,20.33015 -1.83314,36.77431 -2.06488,36.54258 -0.23174,-0.23173 -2.18161,-21.28161 -4.33306,-46.7775 -2.15146,-25.4959 -4.25562,-46.70006 -4.67592,-47.12036 -2.37959,-2.37959 -3.33739,6.12413 -5.37535,47.72469 -1.23943,25.3 -2.49896,46.25 -2.79895,46.55556 -0.3,0.30554 -0.57733,-1.49446 -0.61628,-4 -0.0389,-2.50556 -1.69954,-23.45556 -3.69018,-46.55556 -2.9812,-34.59457 -3.96786,-42 -5.59584,-42 -1.66423,0 -2.32279,7.12212 -4.16848,45.08089 -1.20561,24.79448 -2.43039,45.31927 -2.72175,45.61063 -0.29136,0.29137 -1.89463,-16.39503 -3.56282,-37.08088 -4.17108,-51.72225 -4.31433,-52.94397 -6.20782,-52.94397 -2.16616,0 -2.85403,7.44797 -4.86414,52.66666 -1.01253,22.77752 -2.05234,35.77379 -2.66694,33.33333 -0.55406,-2.2 -2.2468,-20.19999 -3.76164,-39.99999 -1.51486,-19.8 -3.0669,-37.95 -3.449,-40.33334 -0.87002,-5.42664 -4.5579,-5.95996 -4.60998,-0.66666 -0.0199,2.01666 -0.9036,19.56666 -1.96392,39 -1.06032,19.43333 -1.94408,41.27953 -1.96392,48.5471 l -0.0361,13.21377 34.21628,-0.88044 c 18.81897,-0.48424 40.79202,-0.88044 48.82901,-0.88044 z"
         id="path3227" />
      <path
         style="fill:#ff9955;stroke-width:1.33333"
         d="m 698.76698,928.02833 c -0.14618,-12.81773 -0.48261,-23.52178 -0.7476,-23.78678 -0.265,-0.26499 -0.9455,4.52225 -1.51225,10.63832 -1.03029,11.11846 -1.03099,11.1149 -4.68261,-24.21323 -2.00868,-19.43333 -3.69094,-36.78333 -3.73832,-38.55556 -0.0473,-1.77221 -0.3791,-2.92931 -0.7371,-2.57129 -0.35801,0.358 -1.86345,16.808 -3.34542,36.55556 -1.48199,19.74754 -2.85032,37.10462 -3.04076,38.57129 -0.19043,1.46666 -1.7286,-11.73333 -3.41816,-29.33333 -4.56638,-47.56772 -4.55195,-47.43723 -5.17372,-46.81547 -0.61106,0.61107 -5.6561,66.29724 -5.68647,74.03769 -0.0436,11.10419 -1.45025,0.61329 -4.88833,-36.4568 -2.31644,-24.97644 -4.03904,-38.39334 -4.6179,-35.96765 -0.50778,2.12789 -2.01086,20.66889 -3.34019,41.20223 -2.71554,41.94575 -2.6304,42.05947 -7.25129,-9.6848 -1.71997,-19.25996 -3.51933,-34.25996 -3.99857,-33.33334 -0.47926,0.92664 -1.972,19.05679 -3.31722,40.28922 -1.3452,21.23241 -2.83357,37.13241 -3.30748,35.33333 -0.4739,-1.7991 -2.27202,-19.92108 -3.99584,-40.27108 -1.7238,-20.35 -3.57605,-37 -4.11609,-37 -0.54005,0 -1.1776,4.95 -1.41677,11 -0.55978,14.15963 1.43465,90.64621 2.38864,91.60473 0.71996,0.72336 47.31921,2.33387 62.35955,2.15519 l 7.84972,-0.0932 -0.26582,-23.30498 z"
         id="path3225" />
      <path
         style="fill:#ff9955;stroke-width:1.33333"
         d="m 724.39489,934.99997 c -0.44148,-16.92523 -4.91195,-70.20005 -6.50249,-77.49066 -0.37886,-1.73654 -0.9485,-2.89767 -1.26587,-2.5803 -0.31736,0.31738 -1.78816,15.51016 -3.26844,33.76176 -1.48027,18.25159 -2.77039,33.81272 -2.86692,34.58029 -0.0965,0.76756 -0.66776,-0.70442 -1.2694,-3.27109 -0.87296,-3.72423 -0.97449,-3.18569 -0.50273,2.66667 0.32513,4.03333 0.59636,12.24348 0.60273,18.24477 0.0133,12.12144 -0.43475,11.64356 11.44813,12.22212 l 4.1032,0.19977 z"
         id="path3223" />
      <path
         style="fill:#ff9955;stroke-width:1.33333"
         d="m 291.81074,951.16124 16.47739,-0.77974 -0.79461,-19.5241 c -0.43704,-10.73826 -1.22951,-33.62409 -1.76104,-50.85743 -0.53154,-17.23333 -1.129,-29.83333 -1.32771,-28 -0.19871,1.83334 -1.28425,21.59652 -2.41232,43.91819 -1.12807,22.32168 -2.20723,40.74105 -2.39813,40.93194 -0.1909,0.1909 -1.98435,-19.52892 -3.98544,-43.82182 -2.0011,-24.29289 -3.93172,-44.46227 -4.29028,-44.82083 -0.35856,-0.35856 -0.90039,-0.40192 -1.20406,-0.0964 -0.30368,0.30556 -1.53838,20.35556 -2.7438,44.55556 -1.2054,24.2 -2.34401,44.5612 -2.53022,45.24712 -0.30707,1.13103 -2.16416,-19.24133 -6.40355,-70.24712 -2.58919,-31.15152 -3.82952,-24.53742 -6.6198,35.3 -0.91388,19.59833 -1.81972,35.47521 -2.01297,35.28197 -0.19324,-0.19325 -1.91534,-18.62825 -3.82687,-40.96666 -1.91152,-22.3384 -3.81625,-42.11528 -4.23272,-43.94861 l -0.75723,-3.33334 -0.9522,3.33334 c -0.52372,1.83333 -1.74594,20.30977 -2.71609,41.05876 -0.97013,20.74898 -2.14192,37.95906 -2.60396,38.24462 -0.46205,0.28556 -2.21307,-15.19088 -3.89116,-34.39209 -3.61323,-41.34369 -4.21306,-46.36755 -5.44524,-45.60601 -0.51364,0.31745 -1.7234,16.65362 -2.68834,36.30261 -2.58718,52.68245 -2.93334,53.97125 -5.83525,21.72544 -1.35289,-15.03333 -2.69876,-27.58333 -2.9908,-27.88889 -0.29205,-0.30555 -0.55072,3.59445 -0.57483,8.66666 -0.0241,5.07223 -0.59794,20.57184 -1.27521,34.44359 -0.67727,13.87173 -0.97057,25.64337 -0.65179,26.15917 0.59198,0.95783 30.86005,0.51421 60.44823,-0.88593 z"
         id="path3221" />
      <path
         style="fill:#ff9955;stroke-width:1.33333"
         d="m 214.24882,953.3333 h 7.19096 l -0.87497,-31.66666 c -0.48123,-17.41667 -1.28739,-36.16667 -1.79146,-41.66667 l -0.91648,-10 -0.91021,13.33334 c -0.50063,7.33333 -1.33445,22.93333 -1.85296,34.66666 -0.89043,20.14956 -1.00331,20.81543 -2.03421,12 -1.54747,-13.23261 -2.14552,-13.56027 -2.43364,-1.33333 -0.35918,15.24226 -1.61431,7.60346 -5.41419,-32.95099 -1.69811,-18.12304 -3.35087,-32.68757 -3.6728,-32.36564 -0.46248,0.46247 -2.32681,31.83987 -4.27701,71.98329 -0.19136,3.93903 -0.21059,3.9492 -1.26184,0.66667 -0.58714,-1.83333 -1.21362,-2.73333 -1.39219,-2 -0.17856,0.73333 -1.05208,-4.96667 -1.94115,-12.66667 l -1.61649,-13.99999 -0.19175,23.85661 -0.19176,23.8566 8.19559,-0.8566 c 4.50757,-0.47114 11.43152,-0.85662 15.38656,-0.85662 z"
         id="path3219" />
      <path
         style="fill:#ff9955;stroke-width:1.33333"
         d="m 655.55465,1010.4813 c 30.92171,-0.2647 56.12171,-0.5707 56,-0.68 -0.12173,-0.1094 -11.92129,-1.166 -26.22129,-2.3482 -31.92697,-2.6395 -84.42857,-4.7166 -122.66667,-4.8531 -15.76667,-0.056 -27.46667,-0.5788 -26.00001,-1.161 4.51199,-1.79126 84.27481,-4.69823 129.95565,-4.7363 23.80893,-0.0199 40.00893,-0.44488 36,-0.94454 -16.71497,-2.08332 -70.34772,-5.11732 -113.95564,-6.44648 -25.66667,-0.78231 -48.16667,-1.55015 -50.00001,-1.70631 -5.3888,-0.459 76.55617,-4.06268 110.66667,-4.86677 45.24886,-1.06666 25.14921,-3.96099 -46.94604,-6.76019 -46.25072,-1.79575 -59.86197,-3.46541 -32.38729,-3.97291 10.26667,-0.18964 25.26667,-0.76622 33.33333,-1.2813 18.93192,-1.20887 -204.70102,-1.32399 -246,-0.12667 -28.97959,0.84019 -29.79999,0.92697 -10.92131,1.15541 13.20857,0.15983 20.12121,0.71752 19.58797,1.58032 -0.45604,0.73788 -6.59456,1.34312 -13.74536,1.35524 -22.17728,0.0376 -110.62383,5.51104 -146.25464,9.05086 -5.13334,0.50998 24.56666,1.03798 66,1.17334 41.43333,0.13535 84.33334,0.73604 95.33334,1.33486 l 20,1.08877 -48.66667,1.704 c -45.81756,1.60425 -125.26711,6.44893 -126.53397,7.71579 -0.31744,0.31742 20.07286,0.57146 45.31174,0.56452 50.10499,-0.0139 122.589,2.26972 127.8889,4.02896 2.0162,0.6693 -6.94034,1.1513 -22.66667,1.22 -35.99034,0.1572 -91.40606,2.3348 -124.00001,4.8726 -15.03333,1.1704 -27.43301,2.2248 -27.55485,2.3429 -0.12187,0.1182 24.47816,0.2148 54.66667,0.2148 30.18851,0 57.58819,0.382 60.88819,0.8489 5.85541,0.8284 216.71556,0.5927 328.88797,-0.3676 z"
         id="path3217" />
    </g>
    <g
       id="layer4"
       inkscape:label="02"
       style="display:inline;fill:#999999">
      <path
         style="fill:#999999;stroke-width:1.33333"
         d="m 737.33336,835.42316 c 0,-1.05059 -1.05,-2.22987 -2.33334,-2.62064 -5.68768,-1.73185 -54.10916,-10.30865 -79.15297,-14.0202 -44.88348,-6.65181 -68.08007,-9.04565 -129.18037,-13.3311 -13.6635,-0.95832 -11.70326,-1.09583 18,-1.26258 34.83134,-0.19553 65.77915,1.11932 107.33334,4.56019 25.0575,2.07488 68.05066,6.68929 75.33334,8.08548 3.57304,0.68498 3.78652,0.54989 2,-1.26559 -2.28927,-2.32639 -58.28195,-12.10302 -100.00001,-17.46057 -31.05429,-3.98808 -70.7293,-7.44151 -85.4924,-7.44151 -7.73889,0 -10.40324,-0.4235 -9.711,-1.54357 2.5732,-4.16351 133.73457,2.42951 180.37349,9.06673 4.62584,0.65831 5.70961,0.44816 5.22398,-1.01293 -0.72714,-2.18775 -6.31254,-3.29915 -52.39406,-10.42553 -39.73977,-6.14567 -76.99965,-10.1526 -108.66667,-11.68604 l -22.00001,-1.06532 20.66667,-0.72468 c 36.00839,-1.26266 104.55855,1.97245 145.77701,6.87968 11.63222,1.38486 14.59918,1.02118 12.09538,-1.48262 -4.1614,-4.1614 -109.82572,-18.5349 -137.83172,-18.74922 -5.52237,-0.0423 -12.44067,-0.61238 -15.374,-1.26691 -3.33613,-0.74441 12.39181,-0.99809 42,-0.67743 41.40785,0.44847 71.03718,2.05196 101.66667,5.50206 6.54945,0.73772 7.66667,0.54702 7.66667,-1.30866 0,-1.19473 -0.23372,-2.17222 -0.51938,-2.17222 -0.28565,0 -5.23565,-0.89064 -11,-1.9792 -36.15074,-6.82684 -95.93635,-13.87418 -120.32385,-14.18339 l -12.82344,-0.16259 8,-1.26252 c 7.36525,-1.16233 72.83253,-0.54693 92,0.86482 14.85832,1.09437 -18.67088,-4.25591 -44.66667,-7.1275 -50.44165,-5.57194 -64.73431,-6.15104 -150.66667,-6.10444 -86.90359,0.0471 -109.57195,0.98754 -176.66667,7.32918 -58.09235,5.49074 -126.00001,15.57998 -126.00001,18.72017 0,1.67688 1.04531,1.62108 25.76618,-1.37545 54.62541,-6.62138 108.56221,-10.20983 128.23383,-8.53147 l 12,1.02383 -14.66667,1.01781 c -8.06667,0.55979 -24.56667,2.26455 -36.66667,3.78833 -36.58161,4.60683 -113.33333,19.17971 -113.33333,21.51864 0,1.48439 -0.61768,1.52656 21.49046,-1.46722 51.25216,-6.94034 102.85741,-10.81067 140.50954,-10.53807 l 24,0.17377 -22,1.6925 c -40.95168,3.15046 -83.43487,9.57522 -137.33334,20.76901 -14.3,2.96987 -26.25,5.64741 -26.55556,5.95011 -1.81874,1.8017 3.18722,1.51369 23.98475,-1.37996 55.53339,-7.7266 141.8077,-14.29295 157.90415,-12.01812 l 8,1.13061 -15.33333,1.0462 c -35.74227,2.43872 -98.89362,12.065 -150.42889,22.93015 -20.3013,4.28012 -24.1985,5.42024 -22.79334,6.66819 0.30556,0.27136 7.75556,-0.61677 16.55556,-1.97363 52.52693,-8.09911 109.43445,-13.18755 154.66667,-13.82967 26.82284,-0.38079 32.26116,-0.22309 21.33333,0.61856 -36.72885,2.82883 -77.80485,8.30347 -121.33334,16.17138 -33.42433,6.04156 -65.40346,12.71986 -69.33333,14.47907 -2.52589,1.13072 -2.50359,1.19851 0.42237,1.28399 1.69898,0.0496 10.69898,-1.08399 20,-2.51915 61.21306,-9.44528 142.60069,-16.35912 186.2443,-15.82138 10.26667,0.12653 15.96667,0.42684 12.66667,0.66744 -44.21627,3.22371 -80.71776,7.41993 -120,13.79519 -28.77989,4.6708 -74.84809,13.5645 -74.10603,14.30655 0.2816,0.2816 10.02065,-0.41649 21.64234,-1.55133 53.56763,-5.23075 131.61792,-10.37159 195.98057,-12.90839 52.1023,-2.05357 175.98079,-0.87521 211.14979,2.00849 39.37671,3.22872 80.32319,8.574 97.33334,12.7062 7.29303,1.77166 10.66667,1.6124 10.66667,-0.50353 z"
         id="path3233"
         transform="translate(-68.730588,-31.483223)" />
      <path
         id="path3255"
         style="fill:#999999;stroke-width:1.33333"
         d="m 442.84778,350.91682 c -89.30471,-0.39404 -180.89196,11.47207 -237.51368,31.09765 -12.84354,4.4517 -42.0527,17.72713 -41.08203,18.67188 0.22757,0.2215 9.3307,-2.57723 20.22852,-6.21875 53.20239,-17.77766 125.47761,-30.73097 168.85351,-30.26367 l 14,0.15039 -11.33398,1.13867 c -51.01062,5.12758 -106.24531,18.21737 -156.66602,37.12695 -16.1229,6.04668 -27.67134,11.0675 -20.66797,8.98633 30.01537,-8.91952 55.1468,-15.25088 78,-19.65039 26.49579,-5.10076 65.65015,-9.41628 82.66797,-9.11328 l 9.33203,0.16601 -13.58593,1.7461 c -33.34139,4.2885 -78.0962,14.2999 -109.08008,24.39843 -17.74245,5.78278 -52.98437,18.97464 -52.35938,19.59961 0.21977,0.21978 6.39084,-1.3976 13.71289,-3.59375 48.53612,-14.55771 113.33744,-25.54767 147.16602,-24.95898 6.31391,0.10987 9.68047,0.42281 7.48047,0.69531 -48.4076,5.99581 -82.34904,13.29733 -122,26.2461 -21.15372,6.90815 -44.30238,15.66636 -43.50781,16.46093 0.307,0.30701 7.01487,-1.32229 14.90625,-3.62109 35.08695,-10.22105 79.92702,-18.30634 117.86718,-21.25391 16.09382,-1.25032 41.02698,-1.67124 29.40039,-0.49609 -41.01447,4.14551 -81.97732,12.9052 -122.76757,26.25391 -18.69323,6.11742 -44.22916,15.63437 -43.59766,16.24804 0.20166,0.19596 9.06589,-1.9969 19.69922,-4.875 24.58153,-6.65341 59.90089,-13.79142 81.33398,-16.4375 17.67227,-2.18177 58.69619,-5.16708 59.53125,-4.33203 0.27269,0.27268 -5.65913,1.23337 -13.18359,2.13477 -42.63693,5.10767 -86.78298,16.21343 -133.58203,33.60547 -20.06182,7.45562 -22.09961,8.50493 -22.09961,11.37695 0,3.15913 0.008,3.16057 5,0.95898 2.75,-1.21269 11.29328,-4.57622 18.98437,-7.47461 81.05668,-30.54624 228.5933,-44.05009 353.17579,-32.32421 59.35414,5.5865 117.48788,17.32446 158.61523,32.02539 7.0898,2.53424 13.04128,4.6072 13.22461,4.60742 0.18334,2.2e-4 0.33398,-1.7298 0.33398,-3.84571 0,-3.81615 -0.20112,-3.91272 -25,-11.9375 -57.28648,-18.53755 -111.95873,-29.30292 -169.66797,-33.41015 l -15.33203,-1.0918 15.35547,-0.18945 c 35.59764,-0.4414 89.59826,4.99532 131.97656,13.28906 15.36655,3.00734 53.68735,12.37268 59.19532,14.4668 1.90986,0.72612 3.47265,0.79962 3.47265,0.16406 0,-1.6845 -7.22752,-4.32378 -32.66797,-11.93555 -48.79618,-14.59977 -93.44,-23.43056 -146,-28.87695 l -18,-1.86523 22.66797,0.68164 c 52.66093,1.5833 104.11047,8.68843 156.33203,21.58593 11.18332,2.76202 20.33399,4.661 20.33399,4.22071 0,-1.41559 -47.88317,-15.59531 -73.33399,-21.7168 -28.93487,-6.9595 -58.36378,-12.32734 -85.33203,-15.56445 l -19.33398,-2.32227 13.66797,-0.1582 c 30.64151,-0.35729 98.28439,8.95196 144.6289,19.9043 24.29265,5.74095 24.82879,5.83538 22.96875,4.06054 -1.7445,-1.66461 -37.53144,-12.02962 -67.08398,-19.42969 -28.24878,-7.07359 -59.48259,-13.15399 -86.18164,-16.77539 l -18.66602,-2.53125 19.33203,0.64454 c 35.74802,1.18966 84.02933,7.95591 133.94727,18.77539 42.74018,9.26374 23.86217,2.49238 -35.98828,-12.91016 -30.30901,-7.80003 -57.88743,-13.56665 -85.95899,-17.97266 l -20.66601,-3.24414 16.66601,0.72461 c 21.71066,0.94418 46.66503,3.72878 77.84375,8.6836 13.84748,2.20059 25.43883,3.7389 25.75782,3.41992 0.319,-0.31899 -5.30997,-2.40479 -12.50977,-4.63672 -58.06439,-17.9998 -122.6284,-27.1431 -205.0918,-29.04492 -5.92232,-0.13659 -11.86471,-0.21787 -17.81835,-0.24414 z m -91.02149,47.9082 c 0.96667,0.005 1.88605,0.0929 2.52344,0.25977 1.27479,0.33372 -0.0824,0.59292 -3.01563,0.57812 -2.93332,-0.0148 -3.9769,-0.28655 -2.31836,-0.60547 0.82927,-0.15946 1.84388,-0.2373 2.81055,-0.23242 z m 179.88672,1.33789 c 0.53739,-0.008 1.01055,0.11605 1.25977,0.36523 0.44306,0.44305 -0.34446,0.75711 -1.75,0.69922 -1.55326,-0.064 -1.87028,-0.37905 -0.80665,-0.80468 0.4211,-0.16851 0.87891,-0.25375 1.29688,-0.25977 z"
         transform="translate(-68.730588,-31.483223)" />
      <path
         style="fill:#999999;stroke-width:1.33333"
         d="m 906.57108,648.72345 c 2.09319,-83.90132 1.86207,-167.1282 -0.49498,-178.24877 -2.17419,-10.25775 -5.74175,-17.81589 -11.51083,-24.38649 -5.60117,-6.37939 -11.28429,-9.64443 -21.21571,-12.18874 -7.59945,-1.94689 -13.2518,-2.00249 -57.22428,-0.56286 -26.83556,0.87857 -53.89192,2.00338 -60.12525,2.4996 l -11.33334,0.9022 14.66667,0.96254 c 8.06667,0.5294 35.06667,1.58224 60,2.33964 24.93333,0.75742 48.12868,2.00487 51.54522,2.77212 9.52938,2.14002 16.3418,7.94342 21.41284,18.24131 l 4.37528,8.88503 0.92288,68.69714 c 1.13554,84.52673 3.5666,185.26754 4.79492,198.69714 0.858,9.38077 0.97169,8.72027 1.83613,-10.66667 0.50683,-11.36666 1.56453,-46.4411 2.35045,-77.94319 z"
         id="path3239"
         transform="translate(-68.730588,-31.483223)" />
      <path
         style="fill:#999999;stroke-width:1.33333"
         d="m 896.07438,805.61239 c 13.86902,-6.7318 23.90089,-19.38197 30.27325,-38.17453 l 3.6524,-10.77122 0.37889,-143.99999 c 0.25651,-97.48783 -0.0821,-147.01468 -1.04852,-153.33333 -3.68822,-24.11608 -18.5151,-40.1934 -39.7448,-43.09675 -7.2495,-0.99142 -37.3778,-0.44462 -100.63599,1.82648 -14.51105,0.52098 -26.17156,1.1594 -25.91224,1.41872 0.25932,0.25934 28.03202,1.11228 61.71708,1.89544 45.24482,1.05192 63.00951,1.91976 67.99731,3.32176 13.74002,3.86215 23.12658,14.30194 26.7676,29.77108 1.41572,6.01479 1.77654,36.31509 1.79318,150.58614 0.0229,157.09448 0.14406,154.49616 -8.0046,171.61045 -4.594,9.64859 -13.22775,18.7742 -21.10435,22.30668 -5.25432,2.35646 -10.80353,2.72072 -59.33334,3.89476 -55.58242,1.34467 -79.03159,3.23287 -47.53689,3.82783 9.16667,0.17316 30.16667,0.76288 46.66667,1.31048 45.24877,1.5017 56.94895,1.06456 64.07435,-2.394 z"
         id="path3235"
         transform="translate(-68.730588,-31.483223)" />
    </g>
    <path
       style="fill:#ffdd55;stroke-width:1.33333"
       d="m 756.11512,389.16665 c -4.71127,-15.65954 -5.60272,-21.27455 -5.05392,-31.83333 1.10165,-21.19556 9.51916,-38.88104 31.73037,-66.66666 15.52104,-19.41639 19.87571,-26.55384 23.9979,-39.33333 5.65021,-17.51666 3.2614,-40.09224 -5.6136,-53.05158 -8.9554,-13.07674 -16.5111,-17.70082 -36.28102,-22.20393 -17.17557,-3.91219 -38.87304,-14.91428 -77.56149,-39.32898 C 612.23289,89.355999 584.81877,74.480766 556.59221,65.807131 545.28074,62.33127 543.2936,62.142167 518.00002,62.134555 c -24.24474,-0.0073 -28.11983,0.321946 -42.66667,3.625116 -8.8,1.998227 -29.2,8.073465 -45.33334,13.500531 -34.97117,11.763895 -44.36524,13.395115 -71.22181,12.367211 -31.1994,-1.19412 -61.78776,-8.441242 -94.11152,-22.297291 -23.99933,-10.287654 -33.31803,-10.294536 -44.97551,-0.03321 -6.55844,5.772971 -18.20556,22.231554 -28.33227,40.036418 -22.8704,40.21093 -46.02358,68.69702 -75.81408,93.2765 -12.33927,10.18086 -16.864818,15.88648 -16.873166,21.27302 -0.01407,9.07802 13.977156,22.57116 32.510096,31.35272 15.57592,7.38042 15.48039,7.38133 15.51133,-0.14572 0.0837,-20.35932 5.56355,-36.36144 14.72422,-42.99739 3.10721,-2.25085 6.32017,-4.09247 7.13991,-4.09247 0.81974,0 3.69286,-1.49658 6.38472,-3.32574 15.01544,-10.20326 46.83889,-23.54059 76.46832,-32.04818 127.7961,-36.69443 310.93142,-37.86183 412.58977,-2.63005 17.23848,5.97435 41.05422,17.23749 51.61998,24.41257 10.60412,7.20112 20.24369,18.00624 25.32776,28.3902 8.52653,17.41508 10.26044,39.41207 6.25064,79.29789 -3.65255,36.33214 -1.40168,75.64565 5.01778,87.64055 1.46443,2.73629 4.74922,2.2556 3.89894,-0.57058 z"
       id="path3261"
       transform="translate(-68.730588,-31.483223)" />
    <g
       id="layer6"
       inkscape:label="03"
       style="fill:#d4aa00">
      <path
         style="fill:#d4aa00;stroke-width:1.33333"
         d="m 213.33334,88.666664 c 0,-2.886483 0.53909,-3.442239 3,-3.092735 1.96909,0.279655 3,1.342434 3,3.092735 0,1.750301 -1.03091,2.81308 -3,3.092734 -2.46091,0.349504 -3,-0.206251 -3,-3.092734 z"
         id="path3297"
         transform="translate(-68.730588,-31.483223)" />
      <path
         style="fill:#d4aa00;stroke-width:1.33333"
         d="m 558.76114,94.843162 c -2.72811,-5.097526 1.65119,-9.476819 6.74871,-6.748705 1.84081,0.985168 2.52381,2.510475 2.23674,4.995217 -0.53656,4.644379 -6.78564,5.863871 -8.98545,1.753488 z"
         id="path3295"
         transform="translate(-68.730588,-31.483223)" />
      <path
         style="fill:#d4aa00;stroke-width:1.33333"
         d="m 449.60001,95.73333 c -4.24978,-4.249781 1.01724,-10.614098 6.40001,-7.733333 4.54161,2.430599 2.5694,9.333333 -2.66667,9.333333 -1.17334,0 -2.85334,-0.72 -3.73334,-1.6 z"
         id="path3293"
         transform="translate(-68.730588,-31.483223)" />
      <path
         style="fill:#d4aa00;stroke-width:1.33333"
         d="m 274.61114,100.59975 c -1.41704,-1.707433 -1.32949,-2.452826 0.5034,-4.285718 2.06951,-2.069507 2.3681,-2.069507 4.4376,0 1.8329,1.832892 1.92044,2.578285 0.5034,4.285718 -0.94346,1.1368 -2.16845,2.06691 -2.7222,2.06691 -0.55374,0 -1.77873,-0.93011 -2.7222,-2.06691 z"
         id="path3291"
         transform="translate(-68.730588,-31.483223)" />
      <path
         style="fill:#d4aa00;stroke-width:1.33333"
         d="m 350.25001,123.13889 c -2.05397,-2.05398 -0.8632,-5.80556 1.84273,-5.80556 2.07403,0 2.65358,0.7192 2.33334,2.89556 -0.44248,3.00707 -2.5856,4.50046 -4.17607,2.91 z"
         id="path3289"
         transform="translate(-68.730588,-31.483223)" />
      <path
         style="fill:#d4aa00;stroke-width:1.33333"
         d="m 425.33335,130.66666 c 0,-2.19512 0.69108,-2.75399 3,-2.42607 1.65,0.23434 3,1.32607 3,2.42607 0,1.1 -1.35,2.19173 -3,2.42607 -2.30892,0.32792 -3,-0.23094 -3,-2.42607 z"
         id="path3287"
         transform="translate(-68.730588,-31.483223)" />
      <path
         style="fill:#d4aa00;stroke-width:1.33333"
         d="m 497.24059,133.88818 c -1.27051,-1.53087 -1.36779,-2.72287 -0.35368,-4.33333 1.98845,-3.15777 5.97475,-3.58225 7.97332,-0.84904 3.70085,5.06123 -3.59944,10.02641 -7.61964,5.18237 z"
         id="path3285"
         transform="translate(-68.730588,-31.483223)" />
      <path
         style="fill:#d4aa00;stroke-width:1.33333"
         d="m 218.07437,141.4536 c -1.27456,-2.06224 0.75202,-5.4536 3.25897,-5.4536 2.50695,0 4.53353,3.39136 3.25897,5.45365 -0.41233,0.66716 -1.87886,1.21301 -3.25897,1.21301 -1.38011,0 -2.84664,-0.54585 -3.25897,-1.21301 z"
         id="path3283"
         transform="translate(-68.730588,-31.483223)" />
      <path
         style="fill:#d4aa00;stroke-width:1.33333"
         d="m 633.33335,141.33333 c -3.7288,-3.7288 -1.48682,-8.35231 3.75635,-7.74657 2.75933,0.31877 3.67145,1.23089 3.99023,3.99022 0.60573,5.24318 -4.01778,7.48515 -7.74658,3.75635 z"
         id="path3281"
         transform="translate(-68.730588,-31.483223)" />
      <path
         style="fill:#d4aa00;stroke-width:1.33333"
         d="m 283.33334,145.33333 c -1.08734,-1.75936 0.50695,-4.25609 2.09214,-3.27639 1.61948,1.0009 1.60896,4.60972 -0.0135,4.60972 -0.69005,0 -1.62547,-0.6 -2.07869,-1.33333 z"
         id="path3279"
         transform="translate(-68.730588,-31.483223)" />
      <path
         style="fill:#d4aa00;stroke-width:1.33333"
         d="m 694.66669,164.66666 c 0,-1.37328 0.87387,-2.02724 2.33333,-1.74617 2.81046,0.54124 2.63324,2.90757 -0.2629,3.5106 -1.20798,0.25153 -2.07043,-0.48346 -2.07043,-1.76443 z"
         id="path3277"
         transform="translate(-68.730588,-31.483223)" />
      <path
         style="fill:#d4aa00;stroke-width:1.33333"
         d="m 182.20666,180.22834 c -3.02588,-3.34356 -2.82705,-9.13583 0.37236,-10.84811 4.19051,-2.24269 7.88656,-1.59333 10.09235,1.77312 4.79476,7.31774 -4.64592,15.50468 -10.46471,9.07499 z"
         id="path3275"
         transform="translate(-68.730588,-31.483223)" />
      <path
         style="fill:#d4aa00;stroke-width:1.33333"
         d="m 730.66669,184.66666 c 0,-1.1 0.9,-2 2,-2 1.1,0 2,0.9 2,2 0,1.1 -0.9,2 -2,2 -1.1,0 -2,-0.9 -2,-2 z"
         id="path3273"
         transform="translate(-68.730588,-31.483223)" />
      <path
         style="fill:#d4aa00;stroke-width:1.33333"
         d="m 776.48561,198.00891 c -0.46181,-1.20349 -0.20033,-2.8275 0.58108,-3.60892 2.03148,-2.03148 5.88055,-0.17478 5.3499,2.58066 -0.59107,3.06917 -4.86355,3.8099 -5.93098,1.02826 z"
         id="path3271"
         transform="translate(-68.730588,-31.483223)" />
      <path
         style="fill:#d4aa00;stroke-width:1.33333"
         d="m 125.57394,216.99999 c 0.23433,-1.65 1.32606,-3 2.42606,-3 1.1,0 2.19173,1.35 2.42607,3 0.32792,2.30892 -0.23094,3 -2.42607,3 -2.19512,0 -2.75398,-0.69108 -2.42606,-3 z"
         id="path3269"
         transform="translate(-68.730588,-31.483223)" />
      <path
         style="fill:#d4aa00;stroke-width:1.33333"
         d="m 791.59183,247.14735 c -1.24432,-1.24432 0.25936,-3.14736 2.48689,-3.14736 1.05672,0 1.92131,0.9 1.92131,2 0,2.00831 -2.81466,2.74091 -4.4082,1.14736 z"
         id="path3267"
         transform="translate(-68.730588,-31.483223)" />
      <path
         style="fill:#d4aa00;stroke-width:1.33333"
         d="m 761.33336,245.99999 c 0,-1.1 0.9,-2 2,-2 1.1,0 2,0.9 2,2 0,1.1 -0.9,2 -2,2 -1.1,0 -2,-0.9 -2,-2 z"
         id="path3265"
         transform="translate(-68.730588,-31.483223)" />
      <path
         style="fill:#d4aa00;stroke-width:1.33333"
         d="m 756.00003,296.66666 c 0,-1.1 0.9,-2 2,-2 1.1,0 2,0.9 2,2 0,1.1 -0.9,2 -2,2 -1.1,0 -2,-0.9 -2,-2 z"
         id="path3263"
         transform="translate(-68.730588,-31.483223)" />
    </g>
  </g>
</svg>
