<?xml version="1.0" encoding="UTF-8" standalone="no"?>
<!-- Created with Inkscape (http://www.inkscape.org/) -->

<svg
   version="1.1"
   id="svg1841"
   width="404.2124"
   height="557.85596"
   viewBox="0 0 404.2124 557.85596"
   sodipodi:docname="BigCat7.svg"
   inkscape:version="1.2.2 (732a01da63, 2022-12-09, custom)"
   xmlns:inkscape="http://www.inkscape.org/namespaces/inkscape"
   xmlns:sodipodi="http://sodipodi.sourceforge.net/DTD/sodipodi-0.dtd"
   xmlns="http://www.w3.org/2000/svg"
   xmlns:svg="http://www.w3.org/2000/svg">
  <defs
     id="defs1845" />
  <sodipodi:namedview
     id="namedview1843"
     pagecolor="#ffffff"
     bordercolor="#000000"
     borderopacity="0.25"
     inkscape:showpageshadow="2"
     inkscape:pageopacity="0.0"
     inkscape:pagecheckerboard="0"
     inkscape:deskcolor="#d1d1d1"
     showgrid="false"
     inkscape:zoom="0.99629396"
     inkscape:cx="211.78488"
     inkscape:cy="229.85184"
     inkscape:window-width="1920"
     inkscape:window-height="1031"
     inkscape:window-x="0"
     inkscape:window-y="25"
     inkscape:window-maximized="1"
     inkscape:current-layer="layer1">
    <inkscape:page
       x="0"
       y="0"
       id="page1847"
       width="404.2124"
       height="557.85596" />
  </sodipodi:namedview>
  <g
     inkscape:groupmode="layer"
     id="layer1"
     inkscape:label="Layer 1"
     style="display:inline">
    <path
       style="display:inline;fill:#231f20;fill-opacity:1;fill-rule:nonzero;stroke:none;stroke-width:0.1"
       d="m 436.651,352.411 c -5.325,-4.418 -14.166,-6.679 -23.889,-5.819 8.073,-21.398 5.554,-42.275 -7.188,-59.014 -50.2,-65.958 -36.389,-76.499 -28.137,-82.795 l 9.543,-7.284 -12.002,-0.267 c -11.799,-0.256 -19.41,3.342 -24.094,6.986 -0.437,-6.068 0.082,-11.105 1.55,-15 1.727,-4.586 4.72,-7.588 9.147,-9.176 l 9.315,-3.339 -8.868,-4.389 c -2.963,-1.469 -6.217,-2.211 -9.673,-2.211 -6.7,0 -13.169,2.775 -18.103,5.68 2.827,-10.188 8.166,-19.051 14.937,-24.661 l 8.986,-7.445 h -11.67 c -19.685,0 -34.114,12.42 -40.16,34.291 -9.565,-29.49 -21.192,-51.474 -32.188,-60.723 l -13.9,-11.691 7.346,16.611 c 5.583,12.629 8.844,29.44 9.537,48.971 -3.01,-6.723 -6.914,-12.572 -11.496,-17.18 -8.105,-8.15 -18.098,-12.461 -28.898,-12.461 h -11.67 l 8.987,7.448 c 5.911,4.898 10.795,13.142 13.679,22.972 -4.102,-2.541 -9.686,-4.853 -16.434,-4.853 -2.854,0 -5.773,0.416 -8.674,1.232 l -12.656,3.571 12.379,4.439 c 4.268,1.529 7.16,4.258 8.847,8.344 2.053,4.972 2.372,11.986 0.952,20.867 -4.727,-4.277 -12.673,-8.572 -25.651,-8.281 l -12,0.265 9.543,7.284 c 7.916,6.041 21.166,16.154 -28.172,82.841 -15.536,20.997 -12.622,42.588 -6.863,57.75 -1.624,-0.254 -3.272,-0.383 -4.923,-0.383 -4.932,0 -9.657,1.126 -13.665,3.254 -6.444,3.426 -10.309,8.965 -10.879,15.6 l -0.695,8.068 7.001,-4.072 c 3.144,-1.827 6.647,-2.236 10.389,-1.215 6.711,1.841 13.936,8.207 18.409,16.222 0.097,0.174 0.193,0.349 0.29,0.521 -2.425,-0.084 -4.819,0.248 -7.173,0.955 -6.721,2.019 -12.169,7.048 -14.949,13.8 l -3.208,7.788 8.153,-2.113 c 1.526,-0.395 2.954,-0.596 4.245,-0.596 8.1,0.001 11.921,8.143 16.829,20.563 0.789,1.998 1.623,4.091 2.512,6.171 -6.244,0.452 -13.489,2.353 -16.481,8.337 l -2.904,5.81 6.489,0.275 c 10.281,0.434 16.947,11.297 22.827,20.881 2.059,3.356 4.002,6.52 5.996,9.024 0.559,0.702 1.172,1.399 1.833,2.087 -5.799,2.034 -12.899,5.7 -17.639,12.179 l -7.364,10.071 11.959,-3.556 c 1.606,-0.477 3.169,-0.71 4.778,-0.71 5.724,0 10.945,3.039 16.472,6.257 4.946,2.88 10.058,5.854 16.001,7.023 2.013,0.395 4.16,0.613 6.392,0.651 2.603,4.012 9.713,11.731 25.814,11.731 1.239,0 2.528,-0.045 3.829,-0.135 2.15,-0.15 4.308,-0.524 6.425,-1.114 2.162,1.764 5.419,3.102 9.7,3.985 3.846,0.794 8.399,1.213 13.168,1.213 12.032,0 22.273,-2.55 27.662,-6.848 1.355,0.384 2.684,0.661 4.043,0.84 2.496,0.332 4.925,0.501 7.219,0.501 14.825,0 21.695,-6.93 24.289,-10.594 2.023,0.099 4.046,0.04 5.972,-0.179 8.42,-0.945 14.438,-4.152 19.747,-6.981 5.962,-3.175 11.009,-5.863 18.828,-5.471 l 8.021,0.408 -4.231,-6.825 c -2.993,-4.826 -7.127,-8.286 -12.314,-10.316 6.478,-5.108 10.685,-11.563 11.941,-18.402 1.382,-7.527 3.895,-12.565 7.266,-14.566 2.433,-1.443 4.501,-0.82 4.511,-0.817 l 9.533,3.137 -4.515,-9.032 c -2.995,-5.991 -10.311,-8.059 -16.592,-8.671 1.465,-3.656 2.74,-7.84 3.884,-11.593 2.491,-8.175 5.592,-18.349 9.792,-19.896 1.463,-0.541 3.404,0 5.888,1.591 l 12.464,7.976 -6.402,-13.339 c -3.475,-7.236 -8.754,-10.754 -16.141,-10.754 -1.108,0 -2.26,0.075 -3.512,0.235 0.276,-0.494 0.555,-0.996 0.836,-1.502 4.7,-8.419 17.875,-18.019 24.735,-18.019 l 0.265,0.005 c 1.592,0.057 1.9,0.716 2.103,1.151 l 6.421,13.759 1.575,-15.103 c 0.491,-4.724 -1.334,-8.954 -5.281,-12.23"
       id="path2950"
       transform="matrix(1.3333333,0,0,-1.3333333,-185.13466,698.59465)" />
    <g
       id="layer2"
       inkscape:label="Skin"
       style="display:inline;fill:#ff0000">
      <path
         id="path2922"
         style="fill:#ff0000;fill-opacity:1;fill-rule:nonzero;stroke:none;stroke-width:0.1"
         d="M 264.42913 463.96651 C 256.86213 454.84553 244.37615 444.22915 240.03215 440.62715 L 247.54973 418.7541 L 246.82024 417.61299 C 241.70224 409.61201 241.00072 400.5314 244.9467 393.32442 C 248.3287 387.14342 254.59141 383.59932 262.12639 383.59932 L 265.14251 383.63447 L 265.2553 380.91133 C 265.4643 375.81733 266.95978 362.07777 271.29778 355.20479 L 290.72893 362.68428 L 290.72893 374.49385 C 287.38595 377.17885 281.34473 381.93141 277.21575 384.59541 L 287.92522 384.59541 L 293.53411 379.86397 L 298.08831 384.59541 L 306.85393 384.59541 L 296.33635 375.29219 L 296.33635 362.61397 L 312.76458 355.62227 C 317.01856 362.46825 318.27111 375.88299 318.38811 380.86299 L 318.45257 383.63447 L 321.54485 383.59932 C 328.90983 383.59932 334.89674 386.67131 338.40374 392.24629 C 342.58472 398.89527 342.63078 407.96652 338.52678 416.5085 L 338.11516 417.36543 L 338.30999 418.29707 C 338.33899 418.44107 341.11489 431.71332 341.81389 437.9333 C 337.61891 441.5813 325.01227 453.04485 322.27727 460.59883 C 317.44429 459.87383 306.0393 456.97142 296.90032 445.42744 L 294.45256 442.33369 L 292.3344 445.66182 C 287.01042 454.0328 277.38409 460.34051 264.42913 463.96651 z M 258.5551 428.13496 C 268.93902 428.13859 276.81167 423.87452 277.20842 419.83516 C 277.22042 419.70416 277.20038 419.57365 277.18938 419.43965 L 277.20842 419.45137 C 277.20842 419.45137 280.74542 402.06383 277.20842 385.47285 C 275.77344 387.10685 276.2406 410.39249 269.92962 414.75947 L 270.18303 414.92354 C 267.67105 414.57354 264.64574 414.76462 261.36174 415.87862 C 255.42676 417.8906 251.0702 424.62008 245.5092 425.90108 C 250.04436 427.4786 254.49184 428.13354 258.5551 428.13496 z M 325.08831 428.13496 C 329.15145 428.13354 333.59905 427.47861 338.13421 425.90108 C 332.57321 424.62008 328.21466 417.89061 322.28167 415.87862 C 318.98367 414.75962 315.94668 414.57147 313.42669 414.92647 L 313.71233 414.75947 C 307.40334 410.39248 307.87045 387.10685 306.43645 385.47285 C 302.89846 402.06384 306.54192 418.94746 306.54192 418.94746 L 306.5595 418.93721 C 306.4615 419.23921 306.40745 419.53916 306.43645 419.83516 C 306.83248 423.87453 314.70473 428.13859 325.08831 428.13496 z "
         transform="matrix(1.3333333,0,0,-1.3333333,-185.13466,698.59465)" />
      <path
         style="fill:#ff0000;fill-opacity:1;fill-rule:nonzero;stroke:none;stroke-width:0.1"
         d="m 304.96,352.849 -11.479,4.885 -10.416,-4.009 c -1.236,-3.936 -3.269,-7.531 -6.083,-10.734 8.445,-3.875 15.048,-9.34 18.711,-12.777 4.829,4.31 11.999,9.886 15.797,12.793 -2.449,2.695 -5.61,6.772 -6.53,9.842"
         id="path2920"
         transform="matrix(1.3333333,0,0,-1.3333333,-185.13466,698.59465)" />
    </g>
    <g
       id="layer3"
       inkscape:label="Mane"
       style="display:inline;fill:#d4aa00">
      <path
         style="fill:#008000;fill-opacity:1;fill-rule:nonzero;stroke:none;stroke-width:0.1"
         d="m 399.995,291.824 c 15.879,20.861 10.838,43.036 3.812,57.965 -11.643,24.742 -37.208,46.426 -57.078,48.908 -0.328,-1.872 -0.845,-3.685 -1.543,-5.417 0.856,-0.347 1.766,-0.732 2.789,-1.184 1.461,-0.684 3.085,-1.492 4.816,-2.436 1.718,-0.963 3.55,-2.047 5.424,-3.284 1.875,-1.234 3.808,-2.593 5.734,-4.088 1.93,-1.485 3.868,-3.091 5.759,-4.803 1.909,-1.692 3.742,-3.522 5.54,-5.379 3.556,-3.752 6.826,-7.763 9.508,-11.785 1.354,-2.002 2.561,-4.006 3.598,-5.96 1.068,-1.938 1.905,-3.862 2.645,-5.639 0.693,-1.801 1.255,-3.477 1.633,-4.996 0.397,-1.512 0.63,-2.858 0.775,-3.965 0.138,-1.113 0.202,-1.988 0.199,-2.586 0.018,-0.598 0.028,-0.916 0.028,-0.916 0,0 -0.032,0.318 -0.092,0.912 -0.038,0.595 -0.161,1.461 -0.374,2.551 -0.218,1.086 -0.539,2.398 -1.031,3.859 -0.475,1.466 -1.142,3.075 -1.941,4.789 -0.847,1.694 -1.792,3.516 -2.968,5.338 -1.145,1.84 -2.456,3.713 -3.91,5.574 -2.885,3.739 -6.338,7.424 -10.035,10.823 -1.867,1.68 -3.76,3.328 -5.716,4.832 -1.938,1.527 -3.907,2.942 -5.856,4.239 -1.943,1.302 -3.877,2.472 -5.735,3.522 -1.859,1.049 -3.659,1.951 -5.332,2.745 -1.684,0.774 -3.245,1.418 -4.639,1.956 -1.295,0.469 -2.423,0.867 -3.363,1.148 -2.049,-3.015 -4.637,-5.449 -7.694,-7.199 18.039,-10.44 38.311,-31.243 45.803,-54.546 5.672,-17.644 3.964,-34.858 -5.076,-51.164 -13.012,-23.469 -21.493,-44.685 -24.791,-61.291 1.342,-2.133 5.891,-7.928 16.577,-9.637 -10.514,13.272 -6.681,35.59 32.534,87.114"
         id="path2948"
         transform="matrix(1.3333333,0,0,-1.3333333,-185.13466,698.59465)" />
      <path
         style="fill:#d4aa00;fill-opacity:1;fill-rule:nonzero;stroke:none;stroke-width:0.1"
         d="m 370.771,278.359 c 8.258,14.896 9.819,30.616 4.641,46.726 -8.513,26.479 -32.682,46.339 -47.425,53.631 -1.332,-0.299 -2.695,-0.535 -4.121,-0.64 -0.056,-0.852 -0.139,-1.889 -0.251,-3.038 0.346,-0.175 0.74,-0.375 1.179,-0.598 0.928,-0.482 2.109,-1.232 3.421,-2.007 1.3,-0.809 2.641,-1.797 4.146,-2.855 1.411,-1.167 3.032,-2.314 4.543,-3.758 0.767,-0.706 1.581,-1.404 2.363,-2.167 0.764,-0.78 1.544,-1.575 2.338,-2.386 0.814,-0.787 1.529,-1.694 2.304,-2.562 0.759,-0.881 1.555,-1.748 2.256,-2.706 0.722,-0.939 1.449,-1.883 2.179,-2.833 0.673,-0.989 1.347,-1.984 2.021,-2.979 0.697,-0.975 1.298,-2.015 1.9,-3.046 0.589,-1.039 1.244,-2.029 1.767,-3.087 1.059,-2.106 2.148,-4.147 2.962,-6.237 0.419,-1.037 0.901,-2.025 1.243,-3.047 0.347,-1.015 0.688,-2.01 1.019,-2.978 0.165,-0.484 0.327,-0.961 0.488,-1.43 0.126,-0.479 0.25,-0.953 0.373,-1.418 0.243,-0.928 0.478,-1.826 0.704,-2.686 0.471,-1.716 0.654,-3.347 0.946,-4.757 0.301,-1.409 0.39,-2.668 0.496,-3.695 0.208,-2.053 0.326,-3.227 0.326,-3.227 0,0 -0.205,1.162 -0.564,3.192 -0.182,1.013 -0.362,2.249 -0.765,3.627 -0.394,1.378 -0.692,2.968 -1.283,4.625 -0.285,0.83 -0.582,1.697 -0.891,2.591 -0.153,0.446 -0.309,0.901 -0.467,1.362 -0.192,0.45 -0.386,0.906 -0.583,1.369 -0.395,0.921 -0.8,1.869 -1.215,2.838 -0.405,0.968 -0.952,1.902 -1.434,2.88 -0.941,1.973 -2.151,3.881 -3.326,5.842 -0.579,0.984 -1.289,1.899 -1.933,2.857 -0.653,0.952 -1.305,1.909 -2.047,2.8 -0.719,0.908 -1.438,1.813 -2.154,2.716 -0.768,0.858 -1.532,1.712 -2.291,2.56 -0.734,0.865 -1.56,1.636 -2.346,2.423 -0.801,0.77 -1.54,1.583 -2.373,2.272 -0.807,0.711 -1.602,1.41 -2.38,2.093 -0.792,0.666 -1.61,1.264 -2.379,1.874 -1.517,1.255 -3.116,2.205 -4.503,3.196 -1.457,0.864 -2.795,1.709 -3.986,2.328 -1.067,0.522 -1.943,0.999 -2.776,1.384 -0.427,-2.669 -1.017,-5.541 -1.831,-8.333 42.113,-41.156 34.326,-68.312 20.277,-117.046 -2.454,-8.518 -5.237,-18.172 -7.934,-28.573 -2.749,-10.603 -3.378,-20.214 -2.568,-28.707 2.483,-2.087 12.3,-9.795 21.767,-9.629 -2.979,2.426 -5.231,5.645 -6.731,9.629 -6.657,17.676 2.419,51.067 24.898,91.61"
         id="path2946"
         transform="matrix(1.3333333,0,0,-1.3333333,-185.13466,698.59465)" />
      <path
         style="fill:#ff0000;fill-opacity:1;fill-rule:nonzero;stroke:none;stroke-width:0.1"
         d="m 279.115,133.89 c 18.166,27.705 35.255,87.545 37.219,135.397 1.184,28.824 -3.08,49.686 -12.336,60.641 -2.45,-2.019 -4.751,-3.999 -6.417,-5.601 l -0.25,-0.242 c -0.107,-2.331 -0.291,-6.368 -0.524,-11.463 -0.169,-4.106 -0.373,-8.895 -0.533,-14.026 -0.191,-5.133 -0.351,-10.608 -0.462,-16.083 -0.057,-2.738 -0.157,-5.478 -0.172,-8.174 -0.025,-2.695 -0.051,-5.347 -0.073,-7.914 -0.023,-2.568 -0.068,-5.053 -0.007,-7.402 0.034,-2.354 0.067,-4.578 0.098,-6.631 0.03,-2.057 0.036,-3.939 0.175,-5.602 0.105,-1.666 0.195,-3.117 0.27,-4.312 0.148,-2.397 0.234,-3.766 0.234,-3.766 0,0 -0.172,1.36 -0.474,3.741 -0.152,1.189 -0.335,2.636 -0.544,4.296 -0.248,1.661 -0.375,3.541 -0.536,5.592 -0.161,2.053 -0.338,4.278 -0.523,6.629 -0.213,2.356 -0.325,4.838 -0.468,7.408 -0.14,2.569 -0.287,5.225 -0.433,7.924 -0.157,2.699 -0.232,5.442 -0.353,8.184 -0.236,5.486 -0.428,10.975 -0.566,16.118 -0.169,5.146 -0.272,9.949 -0.365,14.066 -0.132,7.206 -0.225,12.31 -0.246,13.475 -1.326,1.246 -3.058,2.77 -5.156,4.389 -17.59,-23.36 -17.058,-46.859 -6.842,-102.65 2.545,-13.898 9.135,-57.703 -0.716,-93.994"
         id="path2944"
         transform="matrix(1.3333333,0,0,-1.3333333,-185.13466,698.59465)" />
      <path
         style="fill:#ff0000;fill-opacity:1;fill-rule:nonzero;stroke:none;stroke-width:0.1"
         d="m 260.673,158.9 c 10.592,10.654 16.604,28.187 16.491,48.105 h 0.002 c -0.741,6.963 -1.715,13.657 -2.852,19.867 -10.361,56.582 -10.826,82.086 7.779,106.906 -3.217,2.084 -6.935,4.088 -11.028,5.596 l -2.742,1.01 c -1.224,-1.444 -2.463,-3.039 -3.705,-4.772 -1.449,-1.992 -2.82,-4.203 -4.179,-6.525 -2.652,-4.682 -5.018,-9.969 -6.6,-15.52 -0.826,-2.763 -1.418,-5.594 -1.856,-8.408 -0.181,-1.409 -0.409,-2.809 -0.48,-4.203 -0.055,-0.697 -0.108,-1.391 -0.162,-2.078 -0.012,-0.691 -0.026,-1.375 -0.039,-2.056 -0.063,-2.72 0.103,-5.355 0.377,-7.842 0.289,-2.485 0.674,-4.834 1.19,-6.963 0.423,-2.156 1.091,-4.061 1.562,-5.785 0.611,-1.678 1.106,-3.16 1.582,-4.354 1.013,-2.367 1.59,-3.72 1.59,-3.72 0,0 -0.659,1.318 -1.811,3.625 -0.548,1.166 -1.131,2.621 -1.848,4.273 -0.577,1.705 -1.365,3.59 -1.923,5.742 -0.651,2.125 -1.182,4.483 -1.629,6.996 -0.432,2.518 -0.762,5.206 -0.865,8.003 -0.027,0.699 -0.055,1.405 -0.083,2.115 0.011,0.712 0.024,1.429 0.036,2.148 -0.01,1.447 0.138,2.9 0.236,4.373 0.28,2.933 0.722,5.91 1.409,8.833 1.3,5.872 3.437,11.542 5.927,16.618 1.278,2.519 2.582,4.931 3.985,7.121 1.384,2.199 2.783,4.227 4.181,6.029 1.371,1.806 2.723,3.394 3.99,4.763 l -1.027,1.198 c -1.612,1.88 -2.916,4.321 -3.98,6.997 -38.315,-35.553 -32.165,-57.289 -19.096,-103.375 3.05,-10.756 6.507,-22.95 9.794,-36.809 6.963,-29.371 -0.045,-53.926 -10.735,-67.438 6.06,1.442 11.671,4.665 16.509,9.53"
         id="path2942"
         transform="matrix(1.3333333,0,0,-1.3333333,-185.13466,698.59465)" />
      <path
         style="fill:#d4aa00;fill-opacity:1;fill-rule:nonzero;stroke:none;stroke-width:0.1"
         d="m 237.683,181.972 c -1.286,-3.117 -3.101,-5.736 -5.426,-7.842 11.728,0.563 18.963,9.953 19.049,10.069 l 0.264,-0.2 c 1.066,9.403 0.592,20.039 -2.128,31.514 -3.259,13.742 -6.698,25.871 -9.734,36.572 -13.508,47.641 -20.335,71.852 22.596,110.763 -0.881,3.37 -1.478,6.757 -1.877,9.673 -0.789,-0.408 -1.646,-0.891 -2.653,-1.422 -1.226,-0.693 -2.609,-1.576 -4.108,-2.51 -1.438,-1.038 -3.084,-2.053 -4.666,-3.347 -0.804,-0.631 -1.646,-1.262 -2.479,-1.94 -0.813,-0.704 -1.643,-1.423 -2.488,-2.155 -0.866,-0.713 -1.662,-1.524 -2.494,-2.32 -0.815,-0.815 -1.706,-1.58 -2.481,-2.464 -0.801,-0.866 -1.607,-1.738 -2.416,-2.612 -0.803,-0.883 -1.528,-1.836 -2.301,-2.754 l -1.141,-1.388 -1.056,-1.45 c -0.697,-0.973 -1.393,-1.939 -2.081,-2.9 -1.216,-2.02 -2.576,-3.932 -3.558,-5.964 -0.526,-1 -1.043,-1.984 -1.55,-2.946 -0.432,-0.998 -0.854,-1.975 -1.265,-2.924 -0.898,-1.88 -1.416,-3.776 -2.023,-5.489 -0.144,-0.43 -0.287,-0.853 -0.426,-1.264 -0.103,-0.423 -0.202,-0.834 -0.3,-1.237 -0.194,-0.804 -0.377,-1.569 -0.551,-2.288 -0.158,-0.72 -0.363,-1.388 -0.453,-2.023 -0.092,-0.633 -0.174,-1.215 -0.247,-1.741 -0.3,-2.112 -0.472,-3.318 -0.472,-3.318 0,0 0.084,1.217 0.232,3.346 0.037,0.533 0.078,1.123 0.122,1.768 0.045,0.644 0.203,1.326 0.31,2.062 0.123,0.737 0.252,1.522 0.389,2.348 0.068,0.414 0.141,0.839 0.214,1.273 0.11,0.426 0.223,0.862 0.338,1.307 0.485,1.771 0.879,3.744 1.649,5.716 0.351,1 0.711,2.026 1.078,3.077 0.445,1.017 0.901,2.059 1.364,3.119 0.861,2.156 2.101,4.203 3.209,6.378 0.636,1.037 1.279,2.083 1.923,3.134 l 0.981,1.572 1.072,1.517 c 0.726,1.002 1.41,2.042 2.171,3.015 0.772,0.965 1.542,1.925 2.305,2.88 0.74,0.978 1.6,1.833 2.385,2.739 0.805,0.89 1.578,1.795 2.42,2.599 0.827,0.828 1.64,1.64 2.435,2.434 0.817,0.771 1.649,1.495 2.444,2.216 1.563,1.474 3.213,2.672 4.66,3.876 1.524,1.115 2.901,2.137 4.2,3.002 1.324,0.829 2.503,1.609 3.446,2.153 0.346,0.19 0.653,0.359 0.942,0.519 -2.395,0.214 -4.672,0.729 -6.797,1.516 -14.481,-7.198 -33.787,-23.548 -42.152,-47.019 -6.754,-18.95 -5.228,-38.972 4.533,-59.511 21.984,-46.252 29.164,-75.209 22.592,-91.129"
         id="path2940"
         transform="matrix(1.3333333,0,0,-1.3333333,-185.13466,698.59465)" />
      <path
         style="fill:#008000;fill-opacity:1;fill-rule:nonzero;stroke:none;stroke-width:0.1"
         d="m 214.009,204.71 c 13.057,2.096 17,10.334 17.045,10.432 l 0.584,-0.27 c -3.631,14.569 -10.808,33.092 -21.611,55.821 -10.426,21.932 -12.024,43.398 -4.752,63.8 8.275,23.223 26.574,39.902 41.507,48.333 -2.314,1.716 -4.316,3.861 -5.922,6.397 -0.326,-0.104 -0.666,-0.218 -1.021,-0.353 -0.97,-0.321 -2.172,-0.806 -3.557,-1.371 -1.369,-0.596 -2.904,-1.306 -4.551,-2.149 -1.64,-0.861 -3.4,-1.837 -5.214,-2.965 -1.814,-1.124 -3.697,-2.374 -5.584,-3.759 -1.893,-1.377 -3.803,-2.871 -5.674,-4.478 -1.891,-1.584 -3.713,-3.308 -5.509,-5.065 -3.553,-3.549 -6.85,-7.376 -9.577,-11.233 -1.375,-1.919 -2.607,-3.845 -3.673,-5.73 -1.1,-1.872 -1.969,-3.729 -2.745,-5.458 -0.726,-1.745 -1.326,-3.38 -1.74,-4.865 -0.43,-1.482 -0.696,-2.804 -0.869,-3.9 -0.168,-1.097 -0.256,-1.967 -0.268,-2.564 -0.035,-0.596 -0.052,-0.914 -0.052,-0.914 0,0 -0.004,0.318 -0.01,0.914 -0.029,0.6 -0.002,1.476 0.09,2.594 0.099,1.113 0.275,2.466 0.607,3.995 0.316,1.532 0.808,3.229 1.426,5.057 0.666,1.808 1.421,3.765 2.408,5.745 0.955,1.998 2.076,4.047 3.345,6.104 2.514,4.13 5.614,8.275 9.011,12.173 1.718,1.93 3.472,3.834 5.31,5.603 1.819,1.789 3.687,3.475 5.555,5.039 1.861,1.574 3.736,3.014 5.558,4.325 1.82,1.313 3.607,2.471 5.284,3.507 1.689,1.016 3.279,1.89 4.709,2.632 1.445,0.713 2.716,1.327 3.833,1.788 0.182,0.081 0.342,0.148 0.506,0.22 -0.623,1.718 -1.063,3.504 -1.32,5.329 -18.871,-3.46 -46.084,-23.595 -59.012,-50.591 -6.961,-14.534 -12.024,-36.231 3.385,-57.059 38.564,-52.121 42.768,-74 32.498,-87.084"
         id="path2938"
         transform="matrix(1.3333333,0,0,-1.3333333,-185.13466,698.59465)" />
      <path
         style="fill:#008000;fill-opacity:1;fill-rule:nonzero;stroke:none;stroke-width:0.1"
         d="m 162.063,396.16 c 2.023,-2.437 4.657,-4.202 7.72,-5.123 4.058,-1.216 8.39,-0.689 11.726,1.373 13.529,24.664 21.084,36.223 57.17,34.897 l -1.736,5.054 -0.022,0.034 c -0.396,0.689 -1.496,1.844 -3.195,2.934 -3.35,2.247 -8.883,4.306 -14.582,4.675 -1.422,0.066 -2.856,0.08 -4.252,-0.075 -1.398,-0.141 -2.766,-0.394 -4.047,-0.791 -1.297,-0.36 -2.482,-0.907 -3.575,-1.489 -0.554,-0.281 -1.035,-0.645 -1.539,-0.95 -0.476,-0.343 -0.908,-0.708 -1.343,-1.043 -0.807,-0.736 -1.52,-1.453 -2.075,-2.161 -0.601,-0.673 -0.98,-1.369 -1.371,-1.892 -0.638,-1.137 -1.002,-1.788 -1.002,-1.788 0,0 0.286,0.693 0.791,1.905 0.327,0.567 0.633,1.32 1.163,2.078 0.482,0.792 1.127,1.616 1.883,2.486 0.409,0.4 0.822,0.841 1.281,1.262 0.488,0.384 0.964,0.831 1.515,1.202 1.091,0.76 2.307,1.499 3.659,2.056 1.338,0.592 2.791,1.045 4.294,1.377 1.502,0.348 3.059,0.518 4.622,0.627 5.439,0.271 10.855,-0.792 15.072,-2.527 l -0.764,2.224 1.528,1.235 c 0.045,0.037 1.248,1.01 3.142,2.612 -9.613,6.271 -18.535,8.352 -26.535,6.174 -11.537,-3.14 -18.752,-14.242 -22.773,-23.005 -1.213,-2.641 -2.356,-5.533 -3.46,-8.331 -4.671,-11.824 -9.888,-25.029 -23.15,-25.03 z"
         id="path2936"
         transform="matrix(1.3333333,0,0,-1.3333333,-185.13466,698.59465)" />
      <path
         style="fill:#d4aa00;fill-opacity:1;fill-rule:nonzero;stroke:none;stroke-width:0.1"
         d="m 224.667,500.735 c -4.787,-0.94 -9.176,-3.496 -13.824,-6.201 -5.657,-3.293 -11.455,-6.666 -18.188,-7.17 5.768,-4.039 12.553,-5.616 14.975,-6.076 5.162,3.069 11.662,5.249 18.976,4.998 8.457,-0.288 20.791,-4.028 32.679,-19.714 0.672,0.78 1.31,1.552 1.901,2.304 l 1.129,1.443 1.772,-0.454 c 2.496,-0.64 4.885,-1.371 7.17,-2.19 -1.402,11.427 -7.72,18.949 -13.129,23.4 -9.531,7.839 -22.979,11.724 -33.461,9.66"
         id="path2934"
         transform="matrix(1.3333333,0,0,-1.3333333,-185.13466,698.59465)" />
      <path
         style="fill:#ff0000;fill-opacity:1;fill-rule:nonzero;stroke:none;stroke-width:0.1"
         d="m 237.036,506.341 c 8.71,-1.333 17.65,-5.173 24.656,-10.935 6.712,-5.521 14.634,-15.162 15.391,-30.13 5.905,-2.754 10.908,-6.186 14.881,-10.226 0.363,23.138 -9.551,56.177 -33.101,57.818 -12.596,0.879 -18.889,-3.3 -21.827,-6.527"
         id="path2932"
         transform="matrix(1.3333333,0,0,-1.3333333,-185.13466,698.59465)" />
      <path
         style="fill:#008000;fill-opacity:1;fill-rule:nonzero;stroke:none;stroke-width:0.1"
         d="m 276.892,515.868 c -2.004,-0.414 -3.49,-0.889 -4.586,-1.348 10.767,-6.121 17.81,-18.512 21.658,-32.074 2.164,12.512 6.703,24.435 16.174,30.402 -7.235,4.063 -22.738,5.186 -33.246,3.02"
         id="path2930"
         transform="matrix(1.3333333,0,0,-1.3333333,-185.13466,698.59465)" />
      <path
         style="fill:#ff0000;fill-opacity:1;fill-rule:nonzero;stroke:none;stroke-width:0.1"
         d="m 321.271,510.99 c -19.969,-2.652 -23.404,-29.517 -23.663,-56.549 3.409,3.171 6.914,5.505 10.225,7.221 1.178,13.468 7.198,25.407 17.09,33.753 5.892,4.971 12.824,8.417 19.856,10.033 -2.986,3.076 -9.745,7.365 -23.508,5.542"
         id="path2928"
         transform="matrix(1.3333333,0,0,-1.3333333,-185.13466,698.59465)" />
      <path
         style="fill:#008000;fill-opacity:1;fill-rule:nonzero;stroke:none;stroke-width:0.1"
         d="m 385.841,429.173 c 0,0 -0.389,0.668 -1.104,1.796 -0.423,0.521 -0.833,1.227 -1.485,1.891 -0.597,0.705 -1.356,1.422 -2.216,2.147 -0.885,0.698 -1.883,1.397 -3.018,1.988 -1.129,0.6 -2.375,1.119 -3.705,1.507 -1.327,0.403 -2.734,0.685 -4.178,0.839 -1.439,0.191 -2.924,0.182 -4.391,0.155 -5.893,-0.254 -11.65,-2.167 -15.248,-4.324 -0.911,-0.526 -1.668,-1.072 -2.282,-1.57 -0.591,-0.504 -1.066,-0.963 -1.322,-1.33 l -0.2,-0.254 -0.047,-0.109 -0.058,-0.079 c -0.182,-1.101 -0.379,-2.229 -0.582,-3.355 31.989,-0.501 40.322,-11.758 53.689,-35.659 l 0.595,-0.145 c 5.248,-1.301 9.403,-2.173 12.754,-1.086 -0.599,0.106 -1.188,0.265 -1.766,0.477 -7.468,2.75 -10.827,13.771 -14.075,24.431 -1.469,4.819 -2.856,9.373 -4.535,13.028 -4.947,10.781 -12.035,17.719 -20.494,20.067 -8.366,2.323 -17.809,0.183 -28.098,-6.35 0.925,-0.818 1.697,-1.45 2.228,-1.806 l 1.342,-0.902 -0.103,-1.533 c 0.271,0.132 0.526,0.269 0.81,0.393 4.588,2.056 11.023,3.353 17.443,2.911 1.6,-0.152 3.193,-0.33 4.729,-0.712 1.538,-0.344 3.019,-0.824 4.395,-1.419 1.381,-0.581 2.65,-1.29 3.775,-2.064 1.131,-0.765 2.098,-1.62 2.933,-2.452 0.812,-0.861 1.504,-1.683 2.033,-2.475 0.583,-0.751 0.921,-1.518 1.283,-2.086 0.591,-1.22 0.898,-1.92 0.898,-1.92"
         id="path2926"
         transform="matrix(1.3333333,0,0,-1.3333333,-185.13466,698.59465)" />
      <path
         style="fill:#ffff00;fill-opacity:1;fill-rule:nonzero;stroke:none;stroke-width:0.1"
         d="m 405.643,438.452 c -0.697,0.266 -1.411,0.604 -2.132,1.032 -5.239,3.11 -8.802,9.614 -10.586,19.327 -1.853,10.087 -12.97,19.249 -26.435,21.785 -7.497,1.412 -26.207,2.446 -39.128,-17.87 0.289,-1.428 2.247,-4.163 4.834,-7.226 0.065,0.098 0.119,0.176 0.19,0.28 0.42,0.586 1.096,1.366 1.787,2.202 0.728,0.801 1.56,1.592 2.49,2.465 0.993,0.787 1.998,1.718 3.216,2.486 0.603,0.393 1.186,0.845 1.843,1.209 0.653,0.368 1.321,0.741 2.002,1.122 0.671,0.388 1.42,0.664 2.138,1.003 0.721,0.34 1.462,0.654 2.242,0.894 0.772,0.251 1.532,0.549 2.323,0.763 l 2.395,0.565 c 0.79,0.214 1.623,0.245 2.425,0.373 0.806,0.111 1.607,0.22 2.415,0.204 0.799,0.015 1.593,0.031 2.379,0.046 0.779,-0.073 1.549,-0.143 2.308,-0.215 0.376,-0.035 0.75,-0.071 1.119,-0.108 0.365,-0.076 0.725,-0.152 1.08,-0.23 0.709,-0.153 1.404,-0.305 2.078,-0.453 1.327,-0.376 2.539,-0.863 3.666,-1.241 1.083,-0.506 2.055,-1.011 2.918,-1.433 0.881,-0.392 1.532,-0.955 2.123,-1.301 1.149,-0.756 1.804,-1.187 1.804,-1.187 0,0 -0.699,0.356 -1.924,0.978 -0.626,0.279 -1.313,0.756 -2.225,1.043 -0.895,0.32 -1.892,0.702 -2.988,1.073 -1.138,0.243 -2.346,0.581 -3.643,0.795 -0.655,0.069 -1.328,0.139 -2.016,0.209 -0.341,0.034 -0.686,0.069 -1.035,0.102 -0.351,-0.005 -0.706,-0.011 -1.064,-0.018 -0.71,-0.012 -1.432,-0.026 -2.163,-0.038 -0.725,-0.096 -1.457,-0.194 -2.197,-0.292 -0.738,-0.064 -1.465,-0.253 -2.192,-0.437 -0.724,-0.203 -1.468,-0.303 -2.169,-0.587 l -2.112,-0.755 c -0.693,-0.271 -1.351,-0.624 -2.018,-0.924 -0.675,-0.289 -1.307,-0.647 -1.918,-1.027 -0.61,-0.38 -1.245,-0.69 -1.805,-1.107 -0.563,-0.403 -1.118,-0.8 -1.659,-1.19 -0.544,-0.382 -1.009,-0.845 -1.495,-1.246 -0.993,-0.782 -1.762,-1.696 -2.537,-2.455 -0.694,-0.823 -1.35,-1.601 -1.834,-2.275 -0.44,-0.699 -0.83,-1.204 -1.152,-1.772 -0.533,-1.008 -0.862,-1.631 -0.963,-1.822 1.293,-1.388 2.61,-2.747 3.868,-3.999 12.124,8.016 23.484,10.649 33.777,7.792 8.641,-2.397 15.978,-8.606 21.463,-18.063 2.725,-0.013 7.07,0.293 10.507,1.523"
         id="path2924"
         transform="matrix(1.3333333,0,0,-1.3333333,-185.13466,698.59465)" />
      <path
         style="fill:#d4aa00;fill-opacity:1;fill-rule:nonzero;stroke:none;stroke-width:0.1"
         d="m 390.832,488.406 c -6.626,0.802 -11.653,3.482 -16.549,6.089 -5.218,2.782 -10.147,5.408 -17.24,6.206 -9.333,1.042 -20.261,-2.62 -28.502,-9.571 -5.813,-4.906 -12.773,-13.435 -14.763,-26.905 4.073,1.421 7.416,1.935 9.266,2.119 10.309,15.696 26.819,23.087 44.484,19.763 3.084,-0.58 6.042,-1.462 8.833,-2.585 1.734,-0.101 8.833,-0.173 14.471,4.884"
         id="path2918"
         transform="matrix(1.3333333,0,0,-1.3333333,-185.13466,698.59465)" />
      <path
         style="fill:#ffff00;fill-opacity:1;fill-rule:nonzero;stroke:none;stroke-width:0.1"
         d="m 197.255,461.573 c -5.474,-8.921 -12.084,-19.692 -22.5,-23.129 3.525,-1.479 8.502,-1.689 11.504,-1.575 4.84,8.708 12.463,17.966 23.86,21.068 10.006,2.724 20.907,0.096 32.411,-7.788 1.291,1.136 2.68,2.378 4.118,3.692 -0.309,0.497 -0.658,0.979 -1.063,1.604 -0.469,0.691 -1.141,1.462 -1.8,2.316 -0.761,0.772 -1.497,1.715 -2.446,2.538 -0.463,0.426 -0.937,0.864 -1.423,1.313 -0.52,0.408 -1.052,0.825 -1.591,1.25 -0.529,0.449 -1.122,0.814 -1.714,1.203 -0.6,0.374 -1.174,0.827 -1.826,1.138 -0.64,0.342 -1.285,0.686 -1.932,1.032 -0.667,0.3 -1.353,0.562 -2.035,0.848 -0.676,0.316 -1.387,0.5 -2.094,0.703 -0.711,0.178 -1.406,0.471 -2.131,0.543 -0.721,0.119 -1.437,0.235 -2.144,0.352 -0.711,0.091 -1.421,0.065 -2.121,0.105 -1.409,0.138 -2.746,-0.15 -4.045,-0.239 -1.278,-0.198 -2.458,-0.568 -3.578,-0.813 -1.071,-0.388 -2.042,-0.797 -2.917,-1.133 -0.891,-0.309 -1.551,-0.811 -2.158,-1.106 -1.184,-0.658 -1.861,-1.036 -1.861,-1.036 0,0 0.63,0.452 1.734,1.241 0.571,0.363 1.189,0.949 2.047,1.361 0.842,0.44 1.787,0.969 2.847,1.494 1.11,0.382 2.3,0.903 3.614,1.265 1.338,0.25 2.742,0.709 4.248,0.739 0.75,0.044 1.519,0.155 2.295,0.144 0.778,-0.038 1.565,-0.077 2.359,-0.115 0.805,0.004 1.579,-0.216 2.379,-0.325 0.799,-0.133 1.608,-0.252 2.377,-0.506 0.778,-0.226 1.568,-0.433 2.34,-0.681 0.752,-0.298 1.502,-0.596 2.246,-0.89 0.765,-0.268 1.441,-0.678 2.152,-1.019 0.702,-0.356 1.408,-0.692 2.044,-1.114 0.65,-0.404 1.292,-0.799 1.919,-1.187 0.596,-0.435 1.178,-0.86 1.746,-1.274 1.162,-0.805 2.108,-1.751 3.065,-2.536 0.873,-0.889 1.695,-1.643 2.386,-2.438 0.337,-0.4 0.669,-0.788 0.969,-1.142 1.663,1.593 3.32,3.234 4.893,4.874 -8.569,11.641 -18.562,17.976 -29.013,18.331 -10.819,0.362 -19.511,-5.581 -23.657,-10.785 -1.727,-2.171 -3.562,-5.159 -5.504,-8.323"
         id="path2916"
         transform="matrix(1.3333333,0,0,-1.3333333,-185.13466,698.59465)" />
      <path
         style="fill:#800080;fill-opacity:1;fill-rule:nonzero;stroke:none;stroke-width:0.1"
         d="m 158.093,359.866 c -3.401,-0.932 -6.767,-1.043 -9.959,-0.352 1.229,-2.035 3.12,-3.769 5.581,-5.077 6.197,-3.295 14.507,-3.263 20.96,10e-4 13.287,24.984 40.692,47.177 62.248,50.677 0.123,2.048 0.467,4.111 1.02,6.156 -1.071,0.258 -2.497,0.491 -4.205,0.603 -4.375,0.324 -10.494,-0.218 -16.298,-1.987 -2.894,-0.892 -5.722,-2.058 -8.177,-3.511 -1.244,-0.699 -2.363,-1.507 -3.408,-2.299 -1.016,-0.828 -1.939,-1.664 -2.715,-2.513 -0.781,-0.841 -1.428,-1.68 -1.961,-2.455 -0.254,-0.396 -0.492,-0.766 -0.713,-1.111 -0.191,-0.359 -0.369,-0.691 -0.526,-0.99 -0.343,-0.593 -0.496,-1.107 -0.657,-1.437 -0.143,-0.337 -0.22,-0.517 -0.22,-0.517 0,0 0.056,0.187 0.161,0.538 0.121,0.343 0.22,0.883 0.494,1.512 0.127,0.322 0.268,0.676 0.422,1.062 0.184,0.373 0.383,0.778 0.596,1.208 0.453,0.851 1.019,1.788 1.728,2.748 0.703,0.968 1.562,1.942 2.526,2.926 0.993,0.947 2.074,1.927 3.293,2.808 2.406,1.815 5.237,3.375 8.187,4.661 5.92,2.556 12.326,3.887 17.306,4.089 2.385,0.111 4.438,-0.029 5.979,-0.292 0.484,1.063 1.018,2.117 1.621,3.148 l -0.738,2.148 c -35.789,1.787 -41.226,-8.147 -55.612,-34.455 -1.337,-2.446 -2.745,-5.018 -4.254,-7.723 -4.251,-7.621 -12.442,-16.76 -22.679,-19.566"
         id="path2914"
         transform="matrix(1.3333333,0,0,-1.3333333,-185.13466,698.59465)" />
      <path
         style="fill:#ff0000;fill-opacity:1;fill-rule:nonzero;stroke:none;stroke-width:0.1"
         d="m 310.416,196.767 c 1.558,-25.211 12.021,-41.541 28.543,-45.266 -10.782,12.918 -18.681,35.674 -10.983,65.364 2.716,10.472 5.509,20.166 7.975,28.716 13.672,47.434 20.722,71.929 -17.019,109.731 -0.873,-1.865 -1.89,-3.568 -3.089,-4.966 l -0.077,-0.089 c 2.074,-1.743 4.658,-4.242 7.347,-7.489 1.471,-1.742 2.955,-3.71 4.429,-5.851 1.492,-2.129 2.896,-4.484 4.278,-6.947 2.699,-4.969 5.07,-10.545 6.616,-16.357 0.807,-2.892 1.372,-5.848 1.772,-8.767 0.161,-1.467 0.369,-2.914 0.419,-4.359 0.042,-0.72 0.084,-1.434 0.126,-2.144 0.001,-0.711 0.002,-1.417 0.004,-2.118 0.015,-2.798 -0.203,-5.498 -0.53,-8.032 -0.341,-2.53 -0.773,-4.906 -1.335,-7.059 -0.47,-2.172 -1.178,-4.09 -1.684,-5.814 -0.646,-1.682 -1.168,-3.16 -1.669,-4.35 -1.054,-2.351 -1.658,-3.695 -1.658,-3.695 0,0 0.522,1.375 1.434,3.783 0.426,1.211 0.857,2.715 1.399,4.414 0.4,1.746 0.987,3.674 1.321,5.846 0.426,2.15 0.712,4.513 0.898,7.006 0.172,2.497 0.227,5.138 0.051,7.854 -0.042,0.677 -0.083,1.362 -0.125,2.049 -0.082,0.687 -0.165,1.376 -0.248,2.072 -0.129,1.39 -0.417,2.779 -0.655,4.18 -0.554,2.791 -1.265,5.595 -2.206,8.323 -1.811,5.478 -4.394,10.664 -7.24,15.23 -1.455,2.266 -2.916,4.418 -4.446,6.346 -1.516,1.938 -3.022,3.709 -4.495,5.255 -0.463,0.497 -0.918,0.964 -1.37,1.417 l -0.782,-0.587 c -0.077,-0.058 -4.298,-3.23 -9.058,-7.011 12.709,-15.189 14.454,-43.103 13.58,-64.396 -0.953,-23.205 -5.265,-48.736 -11.523,-72.289"
         id="path2912"
         transform="matrix(1.3333333,0,0,-1.3333333,-185.13466,698.59465)" />
      <path
         style="fill:#800080;fill-opacity:1;fill-rule:nonzero;stroke:none;stroke-width:0.1"
         d="m 432.172,357.806 0.033,0.027 -0.11,-0.004 c -10.211,-0.383 -25.784,11.569 -31.383,21.603 -1.051,1.884 -2.059,3.704 -3.028,5.457 -15.541,28.069 -20.924,37.752 -52.73,37.992 -0.406,-2.075 -0.758,-3.817 -0.965,-4.82 0.332,-0.734 0.63,-1.477 0.91,-2.218 0.091,0.023 0.175,0.044 0.276,0.067 0.835,0.114 1.947,0.321 3.031,0.352 1.039,-0.032 2.238,0.049 3.464,-0.136 0.618,-0.069 1.262,-0.141 1.928,-0.216 0.647,-0.127 1.318,-0.258 2.007,-0.394 1.386,-0.226 2.77,-0.714 4.228,-1.094 1.412,-0.53 2.904,-0.958 4.327,-1.635 0.717,-0.317 1.449,-0.616 2.163,-0.958 l 2.111,-1.105 c 0.712,-0.349 1.384,-0.775 2.052,-1.196 0.667,-0.426 1.346,-0.818 1.986,-1.262 1.238,-0.957 2.528,-1.775 3.6,-2.812 0.551,-0.491 1.093,-0.976 1.623,-1.447 0.483,-0.523 0.956,-1.034 1.416,-1.532 0.958,-0.954 1.671,-2.024 2.366,-2.969 0.741,-0.909 1.176,-1.915 1.654,-2.729 0.224,-0.42 0.453,-0.798 0.625,-1.168 0.146,-0.384 0.28,-0.737 0.401,-1.054 0.477,-1.264 0.75,-1.985 0.75,-1.985 0,0 -0.352,0.685 -0.968,1.883 -0.154,0.296 -0.323,0.625 -0.507,0.983 -0.21,0.345 -0.481,0.691 -0.744,1.074 -0.561,0.745 -1.078,1.655 -1.902,2.458 -0.777,0.835 -1.565,1.774 -2.592,2.585 -0.49,0.422 -0.993,0.856 -1.508,1.299 -0.557,0.393 -1.124,0.792 -1.702,1.201 -1.113,0.86 -2.445,1.502 -3.699,2.265 -0.649,0.349 -1.337,0.646 -2.006,0.972 -0.672,0.325 -1.341,0.653 -2.051,0.901 l -2.086,0.807 c -0.702,0.243 -1.417,0.441 -2.115,0.662 -1.385,0.478 -2.815,0.709 -4.153,1.049 -1.369,0.187 -2.675,0.497 -3.924,0.55 -0.62,0.049 -1.224,0.098 -1.809,0.147 -0.576,-0.003 -1.134,-0.005 -1.668,-0.008 -1.078,0.047 -1.995,-0.153 -2.829,-0.21 -0.784,-0.118 -1.272,-0.299 -1.77,-0.37 -0.151,-0.05 -0.298,-0.103 -0.442,-0.159 0.46,-2.142 0.699,-4.274 0.733,-6.372 21.035,-2.573 47.706,-24.432 60.59,-49.817 9.25,-2.125 19.424,-0.809 24.417,3.336"
         id="path2227"
         transform="matrix(1.3333333,0,0,-1.3333333,-185.13466,698.59465)" />
    </g>
  </g>
</svg>
