<?xml version="1.0" encoding="UTF-8" standalone="no"?>
<!-- Created with Inkscape (http://www.inkscape.org/) -->

<svg
   version="1.1"
   id="svg1"
   width="243.71959"
   height="529.52417"
   viewBox="0 0 243.71959 529.52417"
   sodipodi:docname="flb.svg"
   inkscape:version="1.3 (0e150ed6c4, 2023-07-21)"
   xmlns:inkscape="http://www.inkscape.org/namespaces/inkscape"
   xmlns:sodipodi="http://sodipodi.sourceforge.net/DTD/sodipodi-0.dtd"
   xmlns="http://www.w3.org/2000/svg"
   xmlns:svg="http://www.w3.org/2000/svg">
  <defs
     id="defs1" />
  <sodipodi:namedview
     id="namedview1"
     pagecolor="#ffffff"
     bordercolor="#000000"
     borderopacity="0.25"
     inkscape:showpageshadow="2"
     inkscape:pageopacity="0.0"
     inkscape:pagecheckerboard="0"
     inkscape:deskcolor="#d1d1d1"
     showgrid="false"
     inkscape:zoom="1.3394343"
     inkscape:cx="116.09379"
     inkscape:cy="198.9646"
     inkscape:window-width="1920"
     inkscape:window-height="1011"
     inkscape:window-x="0"
     inkscape:window-y="0"
     inkscape:window-maximized="1"
     inkscape:current-layer="layer1" />
  <g
     inkscape:groupmode="layer"
     id="layer1"
     inkscape:label="Layer 1"
     transform="translate(-30.280413,-42.035334)">
    <path
       id="path1"
       style="fill:#000000"
       d="M 94.655413 42.064631 C 85.424364 42.455364 75.411581 46.60308 69.680804 53.004084 C 67.381259 55.572565 61.995174 60.066137 57.712054 62.988459 C 37.904985 76.502587 32.800751 89.156435 35.905413 117.05096 C 37.817198 134.22781 38.818042 138.17076 41.176897 137.80877 C 42.750361 137.56731 43.883199 135.42253 46.378069 127.95721 C 50.389168 115.95492 53.410471 110.79214 60.15346 104.4201 C 63.966593 100.81673 67.506416 98.624039 72.499163 96.773615 C 83.003266 92.880558 89.855059 91.000178 93.532366 91.000178 C 95.348372 91.000178 97.040048 90.437677 97.292132 89.750178 C 97.64673 88.783089 98.035214 88.768082 99.012835 89.687678 C 100.02554 90.64028 99.774621 92.228768 97.749163 97.687678 C 93.668874 108.68465 81.728128 135.42959 67.24721 166.00018 C 53.666199 194.67098 41.166284 222.47678 36.012835 235.48455 C 26.027073 260.68952 29.245966 282.12915 44.419085 291.47088 C 51.08392 295.57427 62.104916 296.1972 73.157366 293.09588 C 82.914279 290.35808 87.362442 290.45159 96.030413 293.5783 C 107.10346 297.57257 126.03748 308.83768 128.32729 312.79315 C 131.37913 318.06496 132.02091 345.38883 131.74721 458.64471 C 131.46148 576.8795 132.71444 565.00208 120.60268 564.22479 C 112.90404 563.73072 100.44466 565.3857 98.268694 567.19158 C 95.162713 569.76932 96.958018 570.91426 104.74916 571.32049 C 109.01166 571.54272 117.80384 571.62533 124.28627 571.50408 C 134.38497 571.31517 136.26378 571.02116 137.40737 569.45721 C 138.42341 568.06769 138.88832 559.858 139.35463 535.06658 C 140.36227 481.49655 140.442 423.9778 139.54213 399.30291 L 138.69643 376.1076 L 140.84682 376.6701 C 142.44981 377.08929 143.04662 376.75761 143.1808 375.36737 C 143.27989 374.34072 143.61739 376.8706 143.9308 380.99041 C 144.3784 386.87412 144.85516 388.54842 146.15346 388.7951 C 147.37438 389.02707 147.97414 388.11519 148.45229 385.30487 C 148.80832 383.21233 149.92452 380.41317 150.9308 379.08416 L 152.75893 376.66815 L 153.44643 378.83416 C 153.8246 380.02567 154.95269 381.00018 155.95229 381.00018 C 157.5542 381.00018 157.72698 380.2589 157.40346 374.75018 C 157.20158 371.31268 156.85189 365.35017 156.62807 361.50018 C 156.40425 357.65018 155.9268 353.78806 155.56752 352.91815 C 155.0863 351.75301 155.91445 350.92627 158.70815 349.77752 C 160.79396 348.91985 170.14917 345.07767 179.49916 341.23846 C 196.46587 334.27175 256.35183 308.17966 260.90151 305.77166 C 264.51001 303.8618 265.59001 301.58279 264.44252 298.30291 C 263.57164 295.81367 262.90923 295.46576 258.52651 295.18768 C 255.8124 295.01547 249.52149 295.56142 244.54604 296.40252 C 225.24153 299.66594 178.80218 304.99639 170.3683 304.91619 L 161.49916 304.83221 L 169.99916 302.9494 C 174.67416 301.91397 183.89917 299.88487 190.49916 298.44158 C 197.09916 296.99831 212.17417 292.68878 223.99916 288.86541 C 235.82415 285.04206 247.29917 281.66376 249.49916 281.3576 C 251.95357 281.01603 256.91178 281.61243 262.32924 282.90057 C 272.73584 285.37501 273.99916 285.45303 273.99916 283.61541 C 273.99916 278.65585 242.16881 248.64799 223.60854 236.11151 C 174.44091 202.90136 134.99074 189.71316 106.56752 196.9826 C 90.23616 201.15946 77.891965 209.95004 69.618304 223.2951 C 65.26012 230.32467 63.029273 235.4728 57.52846 251.19549 C 56.047718 255.42783 54.229289 259.39426 53.487444 260.00994 C 51.462643 261.69038 49.670859 257.59621 50.245257 252.60369 C 51.000406 246.04014 63.174324 214.83403 77.008929 184.00018 C 93.971034 146.19592 115.19886 96.134354 118.54604 86.043147 C 120.89098 78.973562 121.1812 76.754388 120.80385 68.716975 C 120.48196 61.860756 119.81956 58.438978 118.21987 55.3576 C 115.37981 49.887037 108.98905 44.536625 103.43862 42.9826 C 100.72301 42.222276 97.732429 41.934387 94.655413 42.064631 z M 245.49916 304.10369 L 242.49916 305.52557 C 233.26682 309.90094 185.31763 330.70769 173.4308 335.49627 C 165.7684 338.58306 157.29422 341.53493 154.59877 342.05682 C 148.4427 343.24873 147.193 344.29582 146.49135 348.84979 C 146.1821 350.85703 144.80932 356.10018 143.44252 360.50018 C 142.07573 364.90017 140.52534 369.17518 139.99526 370.00018 C 138.67928 372.04841 138.69218 322.61799 140.00893 318.00018 C 141.90737 311.34241 140.96112 311.60368 162.17494 311.86541 C 179.13933 312.07471 185.04285 311.66962 210.49916 308.55096 C 226.44915 306.59693 240.84916 304.79718 242.49916 304.55096 L 245.49916 304.10369 z " />
    <path
       style="fill:#ff5555"
       d="M 74.065724,93.037887 C 76.576873,91.917049 79.380764,91 80.296594,91 c 1.395766,0 1.566344,-0.72083 1.054417,-4.455746 -0.3359,-2.45066 -0.0717,-6.596406 0.587104,-9.212768 1.173504,-4.660407 1.140599,-4.797899 -1.620141,-6.769696 C 76.665711,67.953243 72.895409,64.141589 70.859918,61 l -1.619795,-2.5 -8.370061,5.682282 c -4.603534,3.125256 -9.851887,7.216617 -11.663006,9.091915 -2.898856,3.001579 -3.10829,3.562882 -1.75,4.690162 C 48.305675,78.668651 49,79.780163 49,80.434386 c 0,0.654223 1.356278,2.192236 3.01395,3.417807 l 3.01395,2.228309 3.23605,-2.430745 C 60.043778,82.312847 63.075,80.910412 65,80.533235 70.146536,79.524842 77,76.85822 77,75.864142 77,75.388864 77.675,75 78.5,75 c 2.634137,0 1.610384,2.962268 -1.724685,4.990445 -1.773577,1.078577 -5.711077,2.463172 -8.75,3.076879 -3.038923,0.613706 -6.47438,1.71843 -7.634349,2.454942 -2.752299,1.747546 -3.878558,9.056886 -1.870309,12.13817 l 1.40808,2.160436 4.785631,-2.372549 c 2.632098,-1.304902 6.840208,-3.289598 9.351356,-4.410436 z"
       id="path8" />
    <path
       style="fill:#483737"
       d="m 46.954896,119.21016 c 0.08283,-2.36856 4.091078,-9.25529 7.733188,-13.28667 l 3.60146,-3.98638 -2.266489,-2.412569 c -1.680383,-1.788686 -2.145972,-3.233694 -1.800448,-5.587898 l 0.466039,-3.175332 -1.822087,2.369344 c -1.002148,1.30314 -1.832093,2.933476 -1.844323,3.622969 C 51.010006,97.443118 50.1,99.686454 49,101.73882 c -1.1,2.05236 -2.005806,4.41323 -2.012901,5.24637 -0.0071,0.83315 -0.928531,4.43627 -2.047634,8.00695 -1.230626,3.92651 -1.768241,7.48323 -1.360395,9 l 0.674339,2.50786 1.328191,-3 c 0.730506,-1.65 1.348489,-3.58043 1.373296,-4.28984 z"
       id="path7" />
    <path
       style="fill:#483737"
       d="m 40.929715,120.35534 c 0.03866,-2.27957 0.90937,-7.00457 1.934919,-10.5 1.025549,-3.49544 2.36798,-8.18229 2.983182,-10.415226 0.615201,-2.232938 2.251116,-5.123879 3.635366,-6.424314 3.236513,-3.040547 3.176953,-4.979839 -0.247025,-8.043116 -1.520113,-1.359976 -3.243043,-3.575062 -3.828732,-4.922414 -1.030135,-2.369775 -1.154516,-2.26654 -3.810977,3.163071 -4.331585,8.853441 -5.172741,16.253545 -3.624466,31.886409 0.857686,8.66003 1.60294,12.69164 2.107225,11.39947 0.429122,-1.09957 0.811851,-3.86432 0.850508,-6.14388 z"
       id="path6" />
    <path
       style="fill:#ff00ff"
       d="m 137.00558,323.25 c 0.007,-4.87737 1.67413,-10.78685 3.5803,-12.69303 1.25772,-1.25771 3.59437,-1.40489 13.96231,-0.87941 C 165.72037,310.24379 167,310.13864 167,308.65432 167,307.49316 166.13008,307 164.08179,307 160.16768,307 158,306.0776 158,304.41206 c 0,-1.54799 -0.65542,-1.35928 19,-5.47072 20.18075,-4.22132 23.83529,-5.21101 46.5,-12.59272 19.55731,-6.36965 29.52997,-8.41865 33.18276,-6.81778 0.99948,0.43804 2.94224,0.8607 4.31724,0.93925 1.375,0.0785 4.06973,0.51422 5.9883,0.96816 l 3.4883,0.82534 -3.61447,-4.3818 c -4.13378,-5.01134 -6.20808,-5.78367 -8.9264,-3.32362 -2.73255,2.47292 -10.63364,3.01272 -15.3364,1.04778 -4.98533,-2.083 -6.25659,-2.02458 -6.86858,0.31566 -0.55404,2.11865 -7.8236,3.77387 -11.9861,2.72915 -1.7588,-0.44143 -2.73466,0.10492 -4.26281,2.38662 -2.09678,3.13074 -2.59176,3.27972 -15.48184,4.65969 -6.26759,0.67099 -7.45335,1.08339 -7.21609,2.50971 0.45647,2.74412 -4.85942,4.71778 -14.46262,5.36961 -5.80703,0.39416 -9.20066,1.08139 -9.93153,2.01119 -1.32541,1.68614 -3.08066,1.83973 -3.58921,0.31407 -0.20137,-0.6041 -2.60137,-1.34704 -5.33333,-1.65099 -2.73197,-0.30394 -6.00376,-1.22719 -7.27064,-2.05166 -1.57892,-1.02753 -4.47276,-1.43569 -9.20032,-1.29764 -4.62108,0.13493 -7.88684,-0.31054 -9.89692,-1.34999 C 135.44933,288.69812 131.6742,288 128.71017,288 c -4.72215,0 -5.52485,-0.29784 -6.4856,-2.40648 -0.69358,-1.52222 -2.31421,-2.67384 -4.41052,-3.13411 -1.82273,-0.40021 -6.01181,-2.51939 -9.30908,-4.70931 -5.87807,-3.90399 -6.13656,-3.97258 -13.249998,-3.51607 C 91.264738,274.49011 88,274.33304 88,273.885 c 0,-2.99901 14.98714,-4.11825 18.54661,-1.38507 4.92647,3.78286 9.92073,6.64354 12.49855,7.1591 1.54811,0.30962 3.80341,1.61533 5.01177,2.90157 1.62799,1.73292 2.90117,2.19778 4.9158,1.79485 1.66836,-0.33367 4.7223,0.31814 7.90445,1.68706 4.02226,1.73033 6.35984,2.10962 10.41939,1.69064 3.94159,-0.40681 6.19992,-0.0702 9.14715,1.36334 2.15237,1.04693 5.82055,1.90351 8.15151,1.90351 2.33096,0 4.3881,0.37195 4.57144,0.82655 0.38994,0.96692 21.00908,-1.1991 22.97384,-2.41339 0.90454,-0.55904 -0.0858,-1.16939 -3.08035,-1.89851 -8.49042,-2.06725 -5.74358,-3.179 9.65175,-3.90642 17.17768,-0.81165 19.84814,-1.78184 18.74383,-6.80973 -0.6576,-2.99404 -0.60341,-3.0492 2.18497,-2.22452 1.57261,0.46512 5.28194,0.86374 8.24296,0.88584 4.13761,0.0309 5.64205,-0.37722 6.5,-1.76323 0.8816,-1.4242 0.77182,-1.99976 -0.52206,-2.73723 -0.90111,-0.5136 -1.89336,-1.95206 -2.20501,-3.19659 -0.5172,-2.06539 -1.04931,-2.23295 -6.10003,-1.92089 -4.66219,0.28805 -5.91868,0.79975 -7.98043,3.25 -2.86535,3.40528 -7.07269,3.7976 -14.98507,1.3973 -6.86714,-2.08322 -7.92553,-1.9976 -6.35684,0.51428 0.93567,1.49825 0.96955,2.44387 0.13433,3.75 -0.93898,1.46838 -2.62567,1.73684 -10.59064,1.68563 -5.21059,-0.0335 -12.60983,-0.65263 -16.44276,-1.37585 -6.27173,-1.18339 -7.21226,-1.67754 -9.40075,-4.93909 -3.17664,-4.73422 -4.70806,-6.29408 -7.70667,-7.84978 -8.11144,-4.20826 -12.79331,-6.84713 -13.26033,-7.47399 -0.66918,-0.8982 -13.20783,-2.8235 -22.54859,-3.4623 -5.61639,-0.3841 -7.66542,-0.9863 -9.90554,-2.91118 -3.19457,-2.74501 -5.87583,-3.00625 -9.51328,-0.9269 -3.279937,1.87498 -6,1.87498 -6,0 0,-0.825 0.5625,-1.50277 1.25,-1.50616 0.6875,-0.003 2.6,-0.71501 4.25,-1.58139 3.66509,-1.92445 8.94636,-1.27304 11.8934,1.46696 1.52676,1.41951 4.03334,2.0952 9.1066,2.45485 10.46237,0.74169 21.72016,2.60357 23.20787,3.83826 0.72377,0.60067 2.6515,1.82008 4.28385,2.7098 1.63235,0.88973 5.09515,2.92874 7.69511,4.53115 3.77684,2.32775 6.22148,3.00937 12.15992,3.39048 6.93787,0.44524 7.5551,0.31785 9.27075,-1.91347 1.74497,-2.26945 1.83915,-2.28669 1.86026,-0.34048 0.0369,3.39761 -2.01537,4.45 -8.67776,4.45 -3.465,0 -6.3,0.4132 -6.3,0.91821 0,2.25963 1.36482,4.08179 3.0573,4.08179 1.01383,0 2.21404,0.66244 2.66714,1.47208 0.97238,1.73755 11.65875,3.47916 21.52556,3.50811 7.45444,0.0219 8.44965,-1.01737 4.25439,-4.44263 -1.61359,-1.31743 -2.20647,-2.48706 -1.6775,-3.30939 0.65543,-1.0189 2.19576,-0.95098 7.74562,0.34155 14.90644,3.47163 19.36238,2.84495 19.2047,-2.70091 C 217.73235,263.29097 217.28756,262 216.7888,262 c -0.49876,0 -0.6078,-0.48384 -0.24232,-1.07521 0.42749,-0.69168 1.47645,-0.31242 2.94082,1.06328 1.74413,1.63852 3.27374,2.06524 6.54266,1.8252 4.77447,-0.35058 7.66907,-3.12264 4.999,-4.78736 -0.80907,-0.50444 -1.17027,-1.21793 -0.80266,-1.58554 0.36761,-0.36761 1.76398,0.19342 3.10305,1.24674 2.11777,1.66583 2.262,2.15127 1.10804,3.7294 -1.13684,1.55473 -1.01267,2.26272 0.86799,4.94889 2.71491,3.87774 3.00078,4.08549 7.80199,5.67004 3.2021,1.05678 4.64655,1.04526 8.14263,-0.065 8.68572,-2.7583 8.78642,-2.42718 -4.49837,-14.79083 -29.64274,-27.58736 -79.79737,-54.77249 -110.12676,-59.69162 -12.24295,-1.98569 -18.8118,-1.86989 -28.05686,0.4946 -24.680261,6.31214 -37.529256,20.10893 -48.049622,51.59394 C 57.179654,260.5686 55.612746,263 52.512131,263 c -10.03595,0 -3.845086,-22.29005 22.497026,-81 16.980995,-37.84637 38.191403,-87.870219 41.547053,-97.98696 4.77139,-14.385007 2.43618,-26.583894 -6.56358,-34.287353 -4.99009,-4.271335 -11.405332,-6.215098 -17.675834,-5.35563 -5.813215,0.796789 -14.946499,4.91053 -18.545397,8.353069 l -2.728602,2.610054 2.185605,3.58341 C 75.605272,62.81359 80.674029,68 82.105755,68 82.59759,68 83,66.900517 83,65.556704 83,60.333533 92.043394,57.983457 95.961045,62.188561 98.247736,64.643036 98.739312,70.860688 96.8,72.8 96.14,73.46 93.461152,74 90.847004,74 c -4.640542,0 -4.777636,0.08872 -5.794423,3.75 -1.150542,4.142903 -1.348297,8.315802 -0.498977,10.529093 0.452121,1.178208 1.414513,1.257692 5.25,0.433598 C 92.386622,88.157703 96.075,87.657806 98,87.601811 c 3.18618,-0.09268 3.52649,0.168087 3.79547,2.908329 0.50474,5.14217 -9.113823,28.00979 -33.014371,78.48986 -15.381185,32.48642 -29.585394,64.5137 -32.660521,73.64207 -3.643553,10.81572 -4.64403,18.76097 -3.226566,25.62365 C 37.097892,288.6189 51.065049,296.84387 71.5,291 c 14.608456,-4.17764 24.31644,-2.10039 45.06542,9.64283 13.40349,7.58592 15.04015,9.58331 16.02264,19.55407 0.5657,5.74092 0.96245,6.8031 2.54115,6.8031 1.49414,0 1.87191,-0.75499 1.87637,-3.75 z"
       id="path5" />
    <path
       style="fill:#ff0000"
       d="m 148.72845,377.29168 c 0.87053,-1.3286 2.50387,-2.29168 3.88656,-2.29168 2.31194,0 2.38365,-0.23739 2.3411,-7.75 -0.0241,-4.2625 -0.69237,-9.55 -1.48495,-11.75 -2.00563,-5.56716 -1.89411,-6.02218 1.77884,-7.25756 6.60332,-2.221 40.13511,-16.38883 70.10388,-29.62024 C 242.32352,311.12999 256.55033,305 256.96902,305 c 0.4187,0 1.94579,-0.93175 3.39355,-2.07055 2.1481,-1.6897 2.44234,-2.42546 1.59967,-4 -1.19457,-2.23208 -4.82879,-2.48013 -13.07575,-0.89248 -9.60906,1.84988 -67.23226,8.9586 -72.63649,8.96085 -3.99903,0.002 -5.25,0.3596 -5.25,1.50218 0,1.1121 1.1689,1.5 4.52008,1.5 4.36753,0 73.15088,-8.41621 78.72992,-9.63325 1.99047,-0.43422 2.75,-0.20775 2.75,0.81996 0,0.84191 -3.35814,2.7791 -8.25,4.75911 -4.5375,1.83658 -19.75575,8.42377 -33.81834,14.6382 -32.81691,14.50219 -52.14838,22.27528 -58.41415,23.48803 -6.32455,1.22412 -7.34726,2.30587 -8.49426,8.98463 -0.51416,2.99382 -2.02027,8.48082 -3.34692,12.19332 -2.28582,6.39662 -2.31431,6.75 -0.54421,6.75 1.59383,0 1.8849,0.84364 1.98388,5.75 0.0638,3.1625 0.33985,4.86876 0.61344,3.79168 0.2736,-1.07707 1.17315,-2.98957 1.99901,-4.25 z"
       id="path3" />
    <path
       style="fill:#ff0000"
       d="m 135.49159,567.34238 c 2.2765,-3.11329 3.25978,-99.77092 1.92869,-189.59238 -0.62341,-42.06703 -0.85445,-46.75001 -2.30654,-46.75013 -1.4757,-1.3e-4 -1.61374,9.91328 -1.61374,115.89447 0,134.55512 1.28522,120.72471 -11.11063,119.56313 -4.61931,-0.43287 -9.80673,-0.18851 -14.53595,0.68473 L 100.5,568.5 l 9,0.62477 c 14.0075,0.97239 24.50356,0.25261 25.99159,-1.78239 z"
       id="path2" />
  </g>
</svg>
