<?xml version="1.0" encoding="UTF-8" standalone="no"?>
<!-- Created with Inkscape (http://www.inkscape.org/) -->

<svg
   version="1.1"
   id="svg8582"
   width="800"
   height="800"
   viewBox="0 0 800 800"
   sodipodi:docname="cat-black-art-pdv.svg"
   inkscape:version="1.2 (dc2aedaf03, 2022-05-15)"
   xmlns:inkscape="http://www.inkscape.org/namespaces/inkscape"
   xmlns:sodipodi="http://sodipodi.sourceforge.net/DTD/sodipodi-0.dtd"
   xmlns="http://www.w3.org/2000/svg"
   xmlns:svg="http://www.w3.org/2000/svg">
  <defs
     id="defs8586">
    <clipPath
       clipPathUnits="userSpaceOnUse"
       id="clipPath8598">
      <path
         d="M 0,600 H 600 V 0 H 0 Z"
         id="path8596" />
    </clipPath>
  </defs>
  <sodipodi:namedview
     id="namedview8584"
     pagecolor="#ffffff"
     bordercolor="#000000"
     borderopacity="0.25"
     inkscape:showpageshadow="2"
     inkscape:pageopacity="0.0"
     inkscape:pagecheckerboard="0"
     inkscape:deskcolor="#d1d1d1"
     showgrid="false"
     inkscape:zoom="1.04625"
     inkscape:cx="400"
     inkscape:cy="400.4779"
     inkscape:window-width="1920"
     inkscape:window-height="1017"
     inkscape:window-x="-8"
     inkscape:window-y="-8"
     inkscape:window-maximized="1"
     inkscape:current-layer="g8590">
    <inkscape:page
       x="0"
       y="0"
       id="page8588"
       width="800"
       height="800" />
  </sodipodi:namedview>
  <g
     id="g8590"
     inkscape:groupmode="layer"
     inkscape:label="Page 1"
     transform="matrix(1.3333333,0,0,-1.3333333,0,800)">
    <g
       id="g8592">
      <g
         id="g8594"
         clip-path="url(#clipPath8598)">
        <g
           id="g8600"
           transform="translate(156.436,228.4863)">
          <path
             d="m 0,0 c -0.047,3.073 -0.066,4.46 -0.026,5.082 l 1.678,10.555 c -2.098,4.472 -4.327,9.467 -6.706,15.016 -0.775,1.808 -1.444,3.368 -1.668,3.807 -0.194,0.38 -0.669,0.726 -1.305,0.635 -1.232,-0.176 -2.981,-1.995 -3.852,-6.545 l -0.587,-3.06 -2.991,0.871 c -2.64,0.771 -5.691,3.321 -8.493,23.974 -0.7,5.159 -1.218,10.298 -1.561,14.145 -2.571,-0.23 -5.54,-0.263 -8.468,-0.073 -4.947,0.321 -11.698,1.368 -15.761,4.525 -1.869,1.452 -3.351,5.337 -5.663,14.845 -0.111,0.458 -0.196,0.812 -0.252,1.023 -0.823,2.288 -10.381,6.392 -17.165,9.116 -0.606,-0.369 -1.211,-0.737 -1.812,-1.114 C -67.189,37.858 -40.503,-11.481 -1.214,-47.685 -0.199,-36.098 0.318,-20.625 0,0 M 8.42,2.188 C 8.611,1.74 8.823,1.321 9.091,0.979 8.869,1.373 8.645,1.778 8.42,2.188 M 111.15,-99.653 c 5.827,26.325 -10.182,57.71 -27.841,82.694 l -5.898,2.074 c -4.312,1.517 -5.44,0.907 -5.463,0.894 0.011,-0.001 -0.8,-1.434 1.894,-7.794 2.052,-4.84 5.388,-10.801 8.382,-15.992 l -4.085,-3.736 c -2.476,1.74 -16.269,11.466 -28.246,20.677 l -0.792,-4.832 c -9.242,-0.006 -19.126,-22 -26.268,-41.427 21.74,-15.282 46.255,-26.983 72.748,-34.186 1.405,0.151 2.862,0.193 4.307,0.231 3.362,0.089 7.124,0.189 11.262,1.397 M 248.377,-25 c 3.896,-7.719 6.709,-13.297 5.25,-17.266 -0.543,-1.475 -1.628,-2.591 -3.14,-3.228 -3.899,-1.644 -13.08,-14.237 -21.181,-25.35 -9.818,-13.468 -19.905,-27.302 -28.56,-34.63 48.003,9.053 91.16,32.886 124.211,66.849 -8.818,7.597 -21.112,8.398 -33.874,9.229 l -0.731,0.047 c -8.549,0.556 -18.869,9.605 -26.833,18.199 C 255.604,-4.549 247.883,3.042 242.13,9.201 236.295,0.806 241.481,-11.33 248.377,-25 M -74.873,94.732 c 0.006,-0.049 0.012,-0.097 0.018,-0.146 l 0.127,0.088 c -0.048,0.018 -0.097,0.039 -0.145,0.058 M 172.409,357.92 C 63.243,365.024 -33.29,296.061 -65.424,196.492 c 5.226,-3.414 11.753,-6.424 19.564,-7.899 l 0.039,-1.904 c 7.574,2.914 15.653,4.146 23.971,3.604 12.16,-0.79 21.281,-5.108 23.89,-6.683 3.88,0.613 20.74,13.05 27.046,29.447 l 0.966,2.513 2.56,-0.837 c 7.921,-2.588 13.067,-8.76 15.295,-18.343 3.726,-16.024 -1.781,-38.541 -7.418,-52.581 3.351,-0.102 14.116,5.291 21.402,8.938 17.303,8.659 29.158,14.126 36.012,11.334 3.631,-1.478 6.85,-3.74 10.26,-6.131 8.064,-5.66 17.203,-12.076 35.397,-10.098 7.451,0.81 16.785,5.027 27.593,9.914 21.05,9.513 48.155,21.758 82.052,18.869 -17.497,7.097 -33.94,19.743 -43.194,37.139 -4.751,8.932 -6.562,18.186 -5.584,27.047 0.259,12.814 6.272,25.028 17.607,34.531 25.303,21.212 74.476,25.147 112.964,-4.991 22.934,-17.959 34.042,-41.739 31.717,-67.494 -0.126,-3.225 -0.456,-6.485 -1.011,-9.77 -4.218,-24.968 -19.882,-46.455 -37.611,-60.408 4.614,-8.369 7.644,-16.939 9.621,-24.671 6.697,-26.189 4.1,-54.04 0.059,-61.143 -0.115,-17.451 11.439,-30.577 21.058,-41.188 18.044,30.575 29.387,65.727 31.85,103.577 8.391,128.939 -89.334,240.266 -218.272,248.656 M 151.041,-90.366 c 1.326,2.345 3.395,3.496 5.985,3.328 1.82,-0.119 3.636,-0.849 5.738,-1.694 2.423,-0.974 5.168,-2.079 8.199,-2.276 1.626,-0.105 3.178,0.054 4.744,0.487 4.313,1.193 11.287,9.971 17.766,22.364 6.027,11.526 10.331,23.728 10.235,29.013 -0.093,5.133 -7.083,11.783 -15.179,19.481 -4.369,4.155 -9.052,8.614 -13.414,13.519 -4.822,2.938 -9.646,6.545 -14.304,10.468 -1.819,-2.067 -4.602,-4.985 -8.86,-9.179 0.866,-0.356 3.541,-0.902 10.235,1.342 l 2.812,-4.782 c -6.765,-6.173 -17.008,-15.574 -19.376,-17.888 -0.326,-2.168 0.083,-9.93 0.385,-15.688 0.617,-11.735 0.95,-19.693 -0.002,-23.234 -0.494,-1.84 -1.554,-7.217 -2.781,-13.445 -1.806,-9.157 -3.576,-17.984 -5.241,-25.442 2.56,-0.196 4.31,-0.51 5.196,-0.936 0.828,-0.397 1.669,-1.133 2.52,-2.107 -0.863,3.433 0.825,8.669 5.342,16.669 M 303.432,160.3 c -5.631,3.867 -12.093,7.194 -19.513,9.743 0.394,-0.005 0.79,-0.021 1.181,-0.021 4.362,0 8.54,0.424 12.41,1.287 17.815,3.966 28.97,16.608 29.841,33.815 0.017,0.323 0.002,0.641 0,0.961 0.112,0.934 0.198,1.878 0.247,2.842 0.475,9.377 -6.742,17.363 -16.119,17.838 -9.348,0.47 -17.363,-6.743 -17.838,-16.12 -0.039,-0.769 -0.171,-1.089 -0.161,-1.089 -0.49,-0.542 -4.249,-2.479 -12.71,-1.481 -14.286,1.686 -32.783,10.975 -40.493,25.469 -0.812,1.526 -1.499,3.169 -1.748,4.918 0.619,2.203 2.136,4.546 5.1,7.032 12.246,10.266 43.014,15.55 70.161,-5.704 12.836,-10.053 19.184,-21.742 18.96,-34.814 -0.088,-0.801 -0.187,-1.602 -0.324,-2.414 -2.862,-16.943 -15.679,-33.213 -28.994,-42.262"
             style="fill:#f9a72c;fill-opacity:1;fill-rule:nonzero;stroke:none"
             id="path8602" />
        </g>
        <g
           id="g8604"
           transform="translate(167.9214,95.6631)">
          <path
             d="M 0,0 C 0.229,0.109 0.479,0.21 0.785,0.291 0.529,0.198 0.261,0.097 0,0 m 357.818,21.635 c -2.298,1.051 -5.072,1.679 -8.247,1.866 -0.652,0.039 -1.462,0.085 -2.395,0.134 -2.267,-3.215 -4.778,-5.137 -7.489,-5.69 -1.776,-0.363 -4.684,-0.899 -8.165,-1.343 2.044,-1.293 3.008,-3.388 -1.397,-6.423 -8.286,-5.708 -26.597,-5.786 -45.986,-5.87 L 283.408,4.306 C 270.424,4.249 252.131,-0.29 244.87,-2.238 c -3.115,-0.836 -6.249,-1.741 -9.232,-2.667 -9.705,2.045 -3.214,5.131 5.603,8.652 4.381,1.75 7.546,3.015 6.341,3.951 -0.446,0.349 -1.458,0.619 -2.925,0.783 -3.786,0.423 -12.144,3.445 -19.517,6.111 -11.068,4.002 -22.514,8.139 -31.941,9.344 -1.957,0.288 -4.487,0.517 -7.56,0.693 -0.782,-0.508 -1.552,-0.956 -2.304,-1.321 -3.25,-1.819 -7.913,-2.959 -13.916,-3.427 1.185,-0.018 2.345,-0.059 3.49,-0.146 4.227,-0.323 10.626,-2.435 16.298,-5.381 5.279,-2.74 8.794,-5.619 8.361,-6.844 -0.421,-1.19 -7.823,-2.658 -16.394,-4.358 -4.626,-0.917 -9.584,-1.902 -14.251,-2.993 -4.999,-0.63 -10.045,-1.415 -14.943,-2.276 -1.684,0.5 -4.274,1.207 -8.255,2.225 0.887,0.075 3.591,0.172 10.128,-0.42 l 3.111,1.079 c -6.356,1.504 -15.976,3.797 -18.192,4.36 -0.187,0.506 0.718,2.304 1.388,3.637 1.365,2.716 2.206,4.56 1.483,5.391 -0.376,0.433 -1.09,1.693 -1.916,3.151 -0.663,1.169 -1.321,2.313 -1.976,3.397 l -0.509,-0.188 c -0.167,0.589 -0.327,1.181 -0.478,1.777 -0.02,0.032 -0.042,0.066 -0.062,0.099 -0.903,0.529 -1.619,1.288 -2.085,2.251 -0.172,0.356 -0.302,0.742 -0.404,1.146 -0.85,0.974 -1.691,1.71 -2.519,2.107 -0.886,0.426 -2.636,0.741 -5.197,0.936 -2.119,-9.494 -4.067,-16.77 -5.699,-19.679 -1.009,-1.801 -2.86,-3.079 -5.502,-3.797 C 112.628,4.63 109.072,4.508 105.216,4.759 99.95,5.102 94.124,6.141 89.238,7.285 89.499,6.402 89.813,5.528 90.132,4.667 L 88.255,3.973 C 87.949,5.057 87.654,6.15 87.441,7.262 83.794,6.011 79.923,4.802 75.997,3.656 L 69.978,3.238 C 65.58,2.933 64.492,3.086 64.47,3.09 c 0.011,0 -0.706,0.341 2.389,1.788 2.357,1.101 6.068,2.448 9.387,3.621 L 72.408,9.41 C 69.825,9.033 55.438,6.924 42.898,4.915 l -0.481,1.13 C 29.425,6.186 17.95,16.468 13.051,20.858 c -3.139,2.813 -3.934,3.444 -5.23,3.739 -1.082,0.246 -3.096,0.705 -24.866,0.61 -7.723,-0.033 -14.517,-0.124 -14.585,-0.125 l -2.724,-0.036 0.016,-3.421 c 0.008,-2.136 8.284,-2.236 14.327,-2.31 2.744,-0.034 5.573,-0.068 7.82,-0.239 4.354,-1.285 8.374,-5.573 3.967,-18.46 -0.244,-0.713 -0.352,-1.034 -0.351,-1.179 l 1.001,-2.47 c -2.383,-1.017 -4.921,-2.147 -7.654,-3.411 -0.888,-0.411 -1.656,-0.766 -1.907,-0.866 -0.219,-0.086 -0.715,-0.161 -1.344,-0.132 -1.218,0.053 -2.847,0.495 -3.426,1.56 l -0.389,0.716 -3.041,-0.17 c -2.683,-0.15 -5.891,-0.709 -10.008,-5.473 -1.029,-1.189 -1.874,-2.377 -2.462,-3.265 -2.551,0.081 -5.512,0.12 -8.445,0.107 -4.958,-0.021 -11.763,-0.191 -16.019,-0.88 -1.959,-0.317 -3.686,-1.203 -6.6,-3.384 -0.141,-0.106 -0.248,-0.187 -0.317,-0.235 -1.188,-0.641 -15.68,-1.775 -21.869,-2.26 -5.213,-0.408 -9.33,-0.73 -11.334,-1.005 -5.007,-0.687 -3.095,-2.831 -1.246,-4.905 0.482,-0.539 1.123,-1.259 1.168,-1.552 -1.467,-0.522 -1.288,-1.728 0.397,-5.571 0.273,-0.622 0.534,-1.217 0.7,-1.683 -5.564,-1.183 -9.019,-4.84 -9.431,-5.296 -1.54,-1.701 -4.29,-5.847 3.429,-7.605 l 6.261,-1.427 -1.402,1.938 c 1.107,0.712 14.011,4.436 36.466,5.172 l 0.161,0.441 c 7.372,-0.758 15.355,-1.13 23.691,-1.094 12.185,0.053 21.564,0.958 24.268,1.293 3.833,-0.182 19.863,-3.251 25.108,-7.125 l 0.804,-0.592 2.608,0.167 c 8.07,0.515 13.6,1.892 16.436,4.091 4.744,3.68 0.687,8.965 -4.041,12.285 3.351,-0.013 13.749,-1.38 20.786,-2.305 16.715,-2.196 28.196,-3.592 35.214,-3.018 3.718,0.304 7.075,0.794 10.631,1.313 8.409,1.225 17.94,2.617 35.97,1.963 7.384,-0.268 16.429,-1.348 26.902,-2.598 26.213,-3.128 62.113,-7.413 111.694,-4.065 35.096,2.369 50.751,8.823 57.705,13.82 8.357,6.006 7.547,12.498 3.968,14.189 1.023,4.143 13.934,7.106 24.341,9.493 6.279,1.44 11.702,2.683 13.869,3.977 5.004,2.989 4.614,17.088 -6.25,22.06"
             style="fill:#a5a7a9;fill-opacity:1;fill-rule:nonzero;stroke:none"
             id="path8606" />
        </g>
        <g
           id="g8608"
           transform="translate(321.9648,114.791)">
          <path
             d="M 0,0 C 1.824,0.008 3.683,0.157 5.835,0.331 6.592,0.392 7.389,0.454 8.204,0.513 5.728,0.524 3.093,0.616 0.284,0.799 L 0.283,0.8 C -2.304,0.968 -4.764,1.194 -6.959,1.432 -6.587,1.24 -6.193,1.043 -5.759,0.836 -4.587,0.277 -2.596,-0.012 0,0"
             style="fill:#a5a7a9;fill-opacity:1;fill-rule:nonzero;stroke:none"
             id="path8610" />
        </g>
        <g
           id="g8612"
           transform="translate(90.5234,352.9316)">
          <path
             d="M 0,0 C 3.391,0.782 14.671,5.516 17.578,3.991 14.154,10.232 10.984,21.629 1.128,21.083 L 2.743,20.978 C 2.207,21.089 1.628,20.284 1.099,18.949 2.513,18.752 3.561,17.506 3.467,16.059 3.368,14.543 2.06,13.395 0.544,13.493 0.263,13.512 0.001,13.583 -0.249,13.678 -0.71,10.855 -0.892,7.727 -0.541,5.296 -0.454,4.933 -4.63,12.342 -3.236,20.167 -4.255,19.815 -5.324,19.369 -6.46,18.792 -22.523,10.652 -3.392,-0.781 0,0"
             style="fill:#f5f015;fill-opacity:1;fill-rule:nonzero;stroke:none"
             id="path8614" />
        </g>
        <g
           id="g8616"
           transform="translate(151.0547,348.3247)">
          <path
             d="M 0,0 C 5.159,-0.837 18.76,3.957 19.544,5.743 20.296,7.455 17.573,19.515 6.474,22.977 5.632,22.524 4.932,21.795 4.351,20.879 4.509,20.897 4.67,20.908 4.835,20.897 6.351,20.798 7.5,19.49 7.401,17.974 7.302,16.458 5.994,15.31 4.478,15.408 3.709,15.458 3.036,15.822 2.571,16.364 1.556,12.232 1.49,7.516 1.469,5.8 -2.128,10.396 -1.437,21.294 -1.248,23.58 -9.209,22.061 -13.347,13.574 -18.708,8.232 -11.979,8.963 -5.16,0.837 0,0"
             style="fill:#f5f015;fill-opacity:1;fill-rule:nonzero;stroke:none"
             id="path8618" />
        </g>
        <g
           id="g8620"
           transform="translate(106.7593,335.5078)">
          <path
             d="M 0,0 C 0,0 -2.799,3.188 -0.969,3.068 0.86,2.951 4.81,-5.658 7.865,-5.856 c -0.86,1.225 5.533,8.993 7.656,8.242 2.123,-0.751 1.729,-1.671 1.609,-3.501 0,0 4.396,3.388 2.343,5.193 C 17.419,5.881 3.481,7.289 -2.98,5.539 -4.982,2.996 0,0 0,0"
             style="fill:#ec1e27;fill-opacity:1;fill-rule:nonzero;stroke:none"
             id="path8622" />
        </g>
        <g
           id="g8624"
           transform="translate(158.4556,366.2988)">
          <path
             d="M 0,0 C 0.099,1.516 -1.05,2.824 -2.566,2.923 -2.73,2.934 -2.892,2.923 -3.05,2.905 -4.35,2.761 -5.4,1.708 -5.489,0.357 -5.537,-0.389 -5.281,-1.083 -4.83,-1.61 -4.365,-2.152 -3.692,-2.516 -2.923,-2.566 -1.407,-2.665 -0.099,-1.516 0,0 m -67.388,0.126 c 1.515,-0.099 2.824,1.05 2.923,2.566 0.093,1.447 -0.954,2.693 -2.368,2.89 -0.067,0.009 -0.13,0.028 -0.198,0.033 -1.516,0.098 -2.824,-1.051 -2.923,-2.566 -0.08,-1.235 0.674,-2.32 1.773,-2.738 0.25,-0.095 0.512,-0.166 0.793,-0.185 m 34.576,-64.757 c -0.084,0.632 -2.33,5.914 -2.711,5.814 -0.066,-0.998 -0.511,-5.257 -0.511,-5.257 l -6.383,0.068 -2.029,5.393 -1.147,-5.186 5.925,-2.891 c 0,0 6.94,1.427 6.856,2.059 m 79.893,-96.015 c -4.904,1.655 -11.638,11.112 -18.385,15.226 -3.672,2.238 -0.422,-6.487 2.177,-16.176 0,0 -18.25,7.868 -29.031,32.119 -0.26,-3.991 1.829,-77.114 -11.365,-89.951 -8.2,-2.807 -21.795,-1.505 -22.444,-11.484 -0.058,-0.888 -0.104,-1.678 -0.141,-2.388 0.471,1.351 1.213,2.604 2.216,3.601 1.501,1.522 3.414,2.485 5.368,3.086 1.962,0.604 4.005,0.86 6.028,0.838 -2.017,-0.144 -4.01,-0.567 -5.863,-1.31 -1.845,-0.736 -3.566,-1.811 -4.793,-3.288 -1.243,-1.467 -1.88,-3.314 -1.971,-5.196 -0.101,-1.188 0.08,-2.381 0.357,-3.559 1.581,-0.156 4.785,-0.459 8.683,-0.761 -0.104,0.386 -0.205,0.773 -0.281,1.168 -0.136,0.92 -0.326,1.82 -0.295,2.769 -0.047,1.848 0.366,3.843 1.563,5.348 1.176,1.515 2.899,2.394 4.617,2.863 1.735,0.481 3.523,0.566 5.28,0.53 -1.753,-0.129 -3.51,-0.386 -5.127,-1.007 -1.608,-0.604 -3.085,-1.583 -3.953,-2.963 -0.89,-1.371 -1.076,-3.06 -0.882,-4.687 0.043,-0.819 0.303,-1.633 0.498,-2.441 0.17,-0.584 0.395,-1.158 0.615,-1.732 10.132,-0.733 23.439,-1.295 25.59,0.592 3.542,3.11 21.161,78.792 41.539,78.803 M 6.4,-135.625 c 0.192,-0.447 0.404,-0.866 0.671,-1.208 -0.221,0.394 -0.446,0.799 -0.671,1.208 m 239.958,-27.187 c 3.895,-7.719 6.709,-13.297 5.25,-17.266 -0.543,-1.476 -1.629,-2.592 -3.141,-3.229 -3.898,-1.643 -13.08,-14.237 -21.18,-25.349 -9.819,-13.468 -19.906,-27.302 -28.561,-34.63 -1.238,-1.049 -2.446,-1.959 -3.621,-2.721 -0.782,-0.508 -1.552,-0.956 -2.303,-1.321 -3.251,-1.817 -7.914,-2.959 -13.917,-3.427 -2.209,-0.172 -4.6,-0.252 -7.172,-0.24 -2.476,0.012 -5.111,0.103 -7.92,0.286 l -0.001,0.001 c -2.586,0.168 -5.046,0.396 -7.242,0.632 -0.546,0.058 -1.071,0.118 -1.581,0.178 0.262,-0.887 0.577,-1.764 0.898,-2.629 l -1.876,-0.694 c -0.331,1.167 -0.642,2.346 -0.856,3.545 -2.068,0.263 -3.699,0.503 -4.7,0.659 0.05,-0.136 0.098,-0.274 0.147,-0.411 l -1.365,-0.505 -0.51,-0.188 c -0.167,0.589 -0.327,1.182 -0.477,1.777 -0.006,0.024 -0.011,0.047 -0.017,0.071 -0.015,0.008 -0.03,0.019 -0.046,0.028 -0.902,0.529 -1.619,1.288 -2.085,2.251 -0.171,0.356 -0.301,0.742 -0.403,1.146 -0.862,3.434 0.825,8.669 5.344,16.669 1.324,2.346 3.394,3.496 5.983,3.328 1.821,-0.119 3.636,-0.848 5.739,-1.694 2.422,-0.973 5.168,-2.078 8.199,-2.275 1.626,-0.106 3.177,0.053 4.743,0.487 4.312,1.192 11.287,9.971 17.767,22.363 6.026,11.527 10.331,23.729 10.235,29.014 -0.094,5.133 -7.084,11.782 -15.18,19.48 -4.369,4.156 -9.052,8.615 -13.414,13.52 -4.821,2.937 -9.645,6.545 -14.303,10.468 -1.82,-2.068 -4.602,-4.986 -8.861,-9.179 0.866,-0.356 3.541,-0.902 10.236,1.342 l 2.811,-4.782 c -6.765,-6.173 -17.008,-15.575 -19.376,-17.888 -0.325,-2.168 0.083,-9.931 0.386,-15.689 0.616,-11.735 0.949,-19.693 -0.002,-23.233 -0.494,-1.841 -1.555,-7.218 -2.781,-13.445 -1.806,-9.158 -3.577,-17.985 -5.242,-25.443 -2.119,-9.494 -4.067,-16.77 -5.698,-19.678 -1.011,-1.802 -2.862,-3.078 -5.503,-3.797 -2.668,-0.726 -6.224,-0.848 -10.079,-0.597 -5.266,0.343 -11.093,1.382 -15.979,2.526 0.261,-0.882 0.575,-1.756 0.894,-2.618 l -1.876,-0.694 c -0.308,1.084 -0.602,2.178 -0.815,3.289 -0.03,0.158 -0.048,0.319 -0.075,0.478 -3.404,0.857 -6.192,1.73 -7.758,2.381 0.289,-1.136 0.68,-2.256 1.089,-3.358 l -1.877,-0.693 c -0.452,1.594 -0.885,3.211 -1.045,4.873 -0.158,0.05 -0.317,0.1 -0.489,0.148 -5.189,1.459 -4.541,5.516 -3.054,12.014 1.451,6.345 5.403,7.957 9.862,8.437 1.407,0.152 2.862,0.194 4.31,0.232 3.36,0.089 7.123,0.188 11.259,1.396 5.828,26.325 -10.18,57.71 -27.84,82.695 l -5.899,2.074 c -4.311,1.516 -5.438,0.907 -5.462,0.893 0.012,-0.001 -0.799,-1.433 1.895,-7.794 2.051,-4.839 5.388,-10.8 8.382,-15.992 l -4.085,-3.735 c -2.477,1.739 -16.27,11.466 -28.246,20.677 l -0.791,-4.832 c -9.244,-0.006 -19.128,-22 -26.269,-41.427 -2.918,-7.939 -5.378,-15.448 -7.148,-20.854 -3.91,-11.936 -4.879,-14.611 -6.254,-15.818 -1.149,-1.009 -3.288,-2.887 -25.012,-1.473 -7.706,0.501 -14.47,1.206 -14.538,1.213 l -2.71,0.283 0.956,14.695 c 0.597,9.174 8.893,9.224 14.951,9.26 2.75,0.017 5.586,0.035 7.878,0.664 2.958,3.345 6.109,11.808 7.829,31.44 1.015,11.587 1.532,27.06 1.214,47.685 -0.047,3.073 -0.066,4.459 -0.025,5.082 l 1.677,10.554 c -2.097,4.473 -4.326,9.468 -6.705,15.017 -0.775,1.807 -1.444,3.368 -1.668,3.806 -0.195,0.38 -0.67,0.726 -1.305,0.635 -1.233,-0.175 -2.981,-1.995 -3.853,-6.545 l -0.587,-3.059 -2.991,0.871 c -2.639,0.77 -5.69,3.32 -8.492,23.973 -0.7,5.16 -1.218,10.298 -1.561,14.146 -2.572,-0.231 -5.54,-0.264 -8.468,-0.073 -4.948,0.322 -11.699,1.368 -15.761,4.524 -1.87,1.452 -3.352,5.337 -5.663,14.846 -0.112,0.458 -0.197,0.811 -0.252,1.022 -0.824,2.288 -10.381,6.393 -17.166,9.116 1.024,0.62 2.053,1.228 3.089,1.818 8.023,-3.263 15.966,-6.969 16.818,-10.214 0.459,-1.749 2.908,-12.793 4.912,-14.35 5.006,-3.888 16.495,-4.484 22.8,-3.821 0.835,0.087 1.573,0.328 2.233,0.689 0.748,-9.385 3.392,-37.522 8.304,-38.954 2.024,10.557 8.697,10.124 10.466,6.668 1.769,-3.456 18.378,-45.958 28.559,-48.625 -3.458,13.587 5.185,16.365 9.852,9.38 4.668,-6.984 45.556,-35.7 45.556,-35.7 -9.605,16.659 -17.748,32.723 -1.419,26.985 -5.501,9.125 -30.859,41.645 -30.859,41.645 0,0 80.166,-76.017 66.046,-131.3 -13.075,-4.577 -22.722,1.717 -25.056,-8.487 -1.705,-7.454 -0.992,-8.055 0.77,-8.57 0.154,1.681 0.622,3.347 1.517,4.789 1.14,1.87 2.879,3.266 4.774,4.174 1.898,0.908 3.976,1.418 6.051,1.416 -2.067,-0.166 -4.061,-0.837 -5.817,-1.859 -1.752,-1.018 -3.252,-2.461 -4.135,-4.221 -0.751,-1.461 -1.033,-3.102 -1.001,-4.733 0.294,-0.115 0.602,-0.256 0.919,-0.441 0.811,-0.474 3.5,-1.032 7.104,-1.561 0.12,1.796 0.586,3.591 1.542,5.129 1.139,1.87 2.878,3.267 4.772,4.173 1.901,0.909 3.977,1.419 6.051,1.417 -2.065,-0.165 -4.06,-0.837 -5.816,-1.859 -1.752,-1.018 -3.251,-2.461 -4.135,-4.22 -0.768,-1.495 -1.046,-3.173 -1.001,-4.839 10.864,-1.479 28.15,-2.6 29.736,-0.73 4.157,7.412 11.693,51.35 13.455,57.915 1.764,6.567 -1.877,37.869 -0.084,39.757 1.793,1.887 18.677,16.239 18.677,16.239 -15.025,-5.036 -13.344,4.125 -13.344,4.125 0,0 6.907,6.736 10.631,10.985 6.137,-4.588 12.618,-8.729 18.846,-11.834 12.888,-14.227 28.382,-24.735 28.55,-33.993 0.219,-12.04 -18.345,-50.917 -30.08,-54.161 -11.737,-3.246 -19.501,7.604 -22.952,1.493 -1.091,-1.932 -2.341,-4.279 -3.344,-6.596 1.057,1.216 2.382,2.166 3.796,2.842 1.9,0.909 3.976,1.419 6.051,1.418 -2.065,-0.165 -4.061,-0.838 -5.817,-1.86 -1.752,-1.018 -3.251,-2.461 -4.135,-4.22 -0.902,-1.756 -1.132,-3.764 -0.952,-5.71 0.04,-0.666 0.16,-1.322 0.311,-1.977 0.351,-0.254 0.791,-0.434 1.338,-0.52 0.879,-0.138 2.313,-0.353 4.135,-0.59 -0.013,2.137 0.435,4.346 1.579,6.186 1.139,1.87 2.878,3.268 4.773,4.173 1.899,0.909 3.977,1.419 6.051,1.418 -2.066,-0.165 -4.061,-0.838 -5.818,-1.859 -1.752,-1.019 -3.25,-2.461 -4.134,-4.221 -0.902,-1.756 -1.132,-3.764 -0.951,-5.71 0.001,-0.059 0.017,-0.118 0.022,-0.179 9.987,-1.215 28.608,-2.65 37.093,2.162 16.55,7.942 45.575,59.78 55.879,64.12 9.578,4.035 -22.86,36.107 -9.225,54.219 0.626,-0.689 1.283,-1.401 1.968,-2.135 -5.835,-8.396 -0.65,-20.532 6.247,-34.201 M -82.271,-37.914 c -1.374,-0.429 -2.74,-0.882 -4.099,-1.356 2.02,-0.887 4.56,-1.884 7.468,-3.022 0.597,-0.233 1.275,-0.5 2.009,-0.789 0.048,-0.019 0.098,-0.039 0.146,-0.058 0.946,0.649 1.904,1.287 2.868,1.914 -2.998,1.194 -5.917,2.314 -8.392,3.311 m 119.498,10.025 c -0.419,0.015 -0.838,0.034 -1.258,0.045 -5.902,0.16 -11.81,-0.033 -17.705,-0.363 -5.894,-0.35 -11.78,-0.852 -17.645,-1.508 -2.932,-0.328 -5.86,-0.692 -8.775,-1.115 -0.478,-0.068 -0.951,-0.152 -1.428,-0.227 0.682,-0.755 1.354,-1.523 2.003,-2.308 0.193,-0.235 0.376,-0.478 0.566,-0.715 2.065,0.031 4.129,0.037 6.197,0.005 5.172,-0.102 10.346,-0.391 15.482,-1.032 2.568,-0.315 5.128,-0.711 7.662,-1.238 2.273,-0.468 4.532,-1.018 6.746,-1.719 4.347,2.914 7.443,5.58 8.09,7.335 0.314,0.852 0.301,1.807 0.065,2.84 m -8.73,-10.561 c -2.078,0.565 -4.189,1.003 -6.309,1.368 -2.526,0.441 -5.076,0.751 -7.63,0.978 -5.11,0.473 -10.249,0.593 -15.378,0.529 -1.642,-0.029 -3.285,-0.081 -4.928,-0.15 0.354,-0.476 0.708,-0.952 1.045,-1.443 0.549,-0.812 1.081,-1.639 1.557,-2.506 0.233,-0.027 0.466,-0.049 0.698,-0.076 4.837,-0.589 9.648,-1.434 14.368,-2.665 2.146,-0.579 4.283,-1.233 6.373,-2.012 3.71,1.962 7.227,4.018 10.204,5.977 m -11.153,-6.477 c -1.865,0.594 -3.761,1.097 -5.662,1.541 -4.627,1.038 -9.333,1.7 -14.058,2.12 0.014,-0.033 0.031,-0.064 0.044,-0.097 0.143,-0.392 0.277,-0.791 0.31,-1.262 0.011,-0.232 0,-0.505 -0.148,-0.789 -0.148,-0.294 -0.495,-0.483 -0.767,-0.515 -0.572,-0.039 -0.883,0.052 -1.278,0.07 -0.38,0.046 -0.771,0.029 -1.156,0.046 -1.549,0.012 -3.108,-0.143 -4.657,-0.36 -0.348,-0.05 -0.694,-0.116 -1.041,-0.173 1.526,-0.497 3.046,-1.009 4.558,-1.558 3.85,-1.399 7.636,-2.979 11.311,-4.793 4.068,1.61 8.403,3.617 12.544,5.77 m -61.821,2.382 c -0.014,0.014 -0.029,0.027 -0.044,0.042 -0.003,-0.006 -0.006,-0.011 -0.009,-0.019 z m 402.383,-202.509 c -0.411,-0.701 -0.835,-1.339 -1.264,-1.947 -2.266,-3.215 -4.778,-5.137 -7.489,-5.689 -1.778,-0.364 -4.684,-0.9 -8.165,-1.344 -4.82,-0.614 -10.742,-1.045 -16.336,-0.585 0.084,-0.232 0.165,-0.465 0.251,-0.693 l -1.876,-0.696 c -0.152,0.531 -0.299,1.065 -0.437,1.601 -2.613,0.33 -5.105,0.887 -7.329,1.737 0.011,-0.028 0.021,-0.057 0.031,-0.085 l -1.875,-0.693 c -0.174,0.611 -0.339,1.228 -0.495,1.847 -0.887,0.481 -1.719,1.019 -2.465,1.636 -2.798,2.32 -4.251,5.492 -4.199,9.176 0.04,2.813 1.153,5.309 3.219,7.218 5.357,4.95 15.933,4.815 18.599,4.696 2.452,1.396 11.459,11.502 5.316,34.318 -2.283,8.477 -5.907,14.201 -10.455,18.12 -8.817,7.596 -21.111,8.398 -33.874,9.228 l -0.731,0.048 c -8.548,0.556 -18.869,9.604 -26.833,18.198 9.861,-8.226 20.015,-14.913 27.018,-15.37 19.957,-1.298 40.289,-2.287 47.611,-29.486 7.324,-27.201 -5.741,-38.041 -7.737,-37.911 -1.996,0.129 -19.159,0.745 -19.299,-9.1 -0.042,-3.015 1.168,-5.296 3.242,-6.991 -0.009,0.244 -0.038,0.484 -0.034,0.73 -0.026,2.161 0.421,4.402 1.578,6.265 1.14,1.87 2.879,3.267 4.774,4.173 1.9,0.909 3.976,1.419 6.051,1.417 -2.066,-0.164 -4.061,-0.837 -5.817,-1.859 -1.752,-1.018 -3.251,-2.461 -4.137,-4.22 -0.9,-1.756 -1.13,-3.764 -0.95,-5.71 0.04,-0.673 0.163,-1.336 0.315,-1.995 2.139,-1.194 4.845,-1.98 7.902,-2.438 -0.071,0.597 -0.115,1.198 -0.105,1.809 -0.028,2.161 0.42,4.401 1.578,6.264 1.139,1.87 2.879,3.267 4.773,4.173 1.9,0.909 3.977,1.419 6.051,1.417 -2.066,-0.164 -4.063,-0.837 -5.817,-1.858 -1.751,-1.019 -3.25,-2.461 -4.135,-4.221 -0.902,-1.756 -1.132,-3.764 -0.951,-5.71 0.043,-0.708 0.174,-1.405 0.339,-2.099 7.59,-0.812 16.903,0.151 24.837,1.769 16.757,3.419 23.514,84.151 18.935,98.478 -4.579,14.328 -35.399,31.365 -34.588,61.376 5.756,6.306 15.302,96.543 -52.008,119.63 C 213.616,52.656 168.76,10.146 141.847,7.221 114.934,4.295 106.529,18.872 94.814,23.643 83.1,28.414 43.287,-3.026 37.646,2.686 34.803,-1.639 30.045,-9.199 30.045,-9.199 c 6.145,-6.765 9.984,-13.142 10.469,-18.479 1.444,-0.136 2.886,-0.304 4.32,-0.519 2.92,-0.453 5.861,-1.054 8.555,-2.291 -2.726,1.16 -5.666,1.674 -8.588,2.045 -1.413,0.17 -2.832,0.295 -4.253,0.389 0.162,-2.635 -0.504,-5.01 -2.167,-7.036 -1.272,-1.551 -2.972,-3.073 -4.96,-4.557 1.209,-0.507 2.392,-1.073 3.538,-1.71 2.256,-1.256 4.374,-2.814 6.048,-4.784 -1.736,1.914 -3.89,3.39 -6.166,4.563 -1.226,0.633 -2.492,1.176 -3.781,1.663 -3.019,-2.205 -6.686,-4.314 -10.621,-6.273 1.032,-0.503 2.045,-1.046 3.03,-1.646 2.08,-1.271 4.039,-2.782 5.628,-4.641 1.59,-1.848 2.754,-4.078 3.227,-6.461 -0.555,2.366 -1.786,4.53 -3.415,6.296 -1.628,1.777 -3.605,3.195 -5.694,4.374 -1.134,0.64 -2.305,1.205 -3.498,1.719 -4.433,-2.17 -9.162,-4.144 -13.657,-5.851 3.183,-1.764 6.253,-3.752 8.971,-6.185 1.667,-1.496 3.207,-3.16 4.404,-5.06 1.197,-1.892 2.01,-4.056 2.153,-6.287 -0.227,2.224 -1.114,4.33 -2.362,6.15 -1.25,1.829 -2.826,3.407 -4.522,4.819 -2.972,2.466 -6.329,4.419 -9.792,6.129 -7.109,-2.651 -13.49,-4.596 -16.94,-5.515 -4.055,-1.08 -7.478,-2.837 -10.044,-4.466 2.062,4.933 3.668,10.159 8.862,8.677 2.826,-0.807 8.327,0.51 14.641,2.903 -3.405,1.482 -6.892,2.773 -10.428,3.911 -2.578,0.826 -5.191,1.575 -7.813,2.252 -1.478,-0.336 -2.948,-0.715 -4.409,-1.125 -1.514,-0.418 -3.013,-0.896 -4.508,-1.383 -1.516,-0.485 -2.899,-1.065 -4.551,-1.52 -1.055,-0.256 -2.148,-0.381 -3.244,-0.379 l -2.086,-6.208 -3.636,7.601 c -0.262,0.127 -0.525,0.254 -0.777,0.395 l -8.742,0.626 -1.133,-6.816 -3.079,6.544 c -0.397,0.045 -0.87,0.21 -1.216,0.575 -0.351,0.362 -0.49,0.835 -0.527,1.218 0.002,0.206 -0.29,0.658 -0.638,1.007 -0.352,0.368 -0.769,0.717 -1.204,1.047 -0.872,0.66 -1.818,1.261 -2.78,1.84 -1.93,1.153 -3.936,2.209 -5.947,3.262 l -3.02,1.594 c -0.502,0.272 -1.003,0.549 -1.5,0.845 -0.485,0.297 -1.011,0.595 -1.454,1.076 -0.854,0.954 -1.135,2.25 -1.038,3.432 0.095,1.192 0.509,2.318 1.071,3.332 1.138,2.035 2.811,3.67 4.607,5.067 1.811,1.392 3.782,2.549 5.811,3.568 -1.992,-1.091 -3.914,-2.317 -5.657,-3.758 -1.728,-1.447 -3.31,-3.124 -4.326,-5.108 -0.503,-0.986 -0.846,-2.059 -0.893,-3.139 -0.05,-1.068 0.256,-2.159 0.963,-2.889 0.341,-0.35 0.822,-0.614 1.313,-0.888 0.49,-0.268 0.993,-0.523 1.499,-0.773 l 3.064,-1.479 c 2.051,-0.982 4.106,-1.971 6.119,-3.077 1.006,-0.556 2.002,-1.138 2.967,-1.815 0.482,-0.34 0.956,-0.704 1.407,-1.139 0.427,-0.455 0.939,-0.912 1.104,-1.852 0.091,-0.354 0.115,-0.354 0.438,-0.414 0.118,-0.01 0.258,0.009 0.403,0.037 l 2.574,1.605 c 0.194,0.201 0.38,0.41 0.554,0.627 1.295,1.62 1.967,3.684 1.994,5.755 l 1.999,-0.069 c -0.046,-0.896 -0.197,-1.791 -0.446,-2.655 1.79,-1.829 3.522,-3.604 5.513,-4.981 l 4.503,-2.118 c 0.23,-0.055 0.457,-0.116 0.69,-0.155 1.451,-0.255 2.943,-0.19 4.4,0.118 1.412,0.344 2.977,0.931 4.485,1.371 1.527,0.454 3.056,0.896 4.601,1.282 0.743,0.186 1.489,0.365 2.236,0.536 -0.831,0.197 -1.661,0.393 -2.492,0.571 l 0.433,1.953 c 2.055,-0.523 4.083,-1.099 6.093,-1.717 1.034,0.178 2.071,0.34 3.116,0.461 1.588,0.181 3.19,0.299 4.805,0.244 0.405,-0.028 0.807,-0.02 1.212,-0.082 0.391,-0.039 0.866,-0.121 1.083,-0.105 0.118,0.021 0.153,0.043 0.191,0.103 0.04,0.065 0.07,0.204 0.063,0.361 -0.011,0.321 -0.115,0.688 -0.235,1.04 -0.052,0.142 -0.119,0.283 -0.177,0.424 -4.596,0.381 -9.233,0.556 -13.808,0.468 l -0.03,2 c 4.398,-0.067 8.738,-0.373 13.072,-0.854 -0.384,0.703 -0.81,1.392 -1.243,2.067 -0.386,0.597 -0.791,1.182 -1.204,1.762 -3.259,-0.146 -6.513,-0.367 -9.732,-0.703 l -0.198,1.99 c 2.907,0.209 5.801,0.324 8.693,0.379 -0.104,0.135 -0.202,0.275 -0.307,0.41 -0.678,0.865 -1.383,1.711 -2.102,2.545 -0.813,-0.127 -1.629,-0.245 -2.437,-0.387 -1.423,-0.257 -2.923,-0.526 -4.175,-0.916 l -0.632,1.898 c 1.587,0.443 3.017,0.636 4.508,0.871 0.427,0.062 0.853,0.106 1.28,0.166 -0.899,0.972 -1.824,1.921 -2.791,2.826 -1.155,1.073 -2.362,2.097 -3.665,2.986 -1.302,0.862 -2.712,1.705 -4.305,1.84 1.599,-0.092 3.043,-0.903 4.373,-1.735 1.334,-0.861 2.575,-1.857 3.765,-2.906 1.062,-0.942 2.079,-1.933 3.066,-2.953 0.901,0.118 1.802,0.246 2.703,0.349 2.95,0.343 5.902,0.625 8.856,0.871 5.908,0.494 11.825,0.832 17.748,1.015 5.921,0.165 11.852,0.19 17.769,-0.137 0.371,-0.02 0.741,-0.048 1.112,-0.071 -2.005,6.984 -13.385,17.215 -7.232,23.217 7.222,7.046 28.543,69.043 -0.158,78.426 -7.237,-18.82 -27.719,-33.27 -30.833,-31.063 -3.113,2.207 -33.718,16.975 -61.802,-6.501 3.578,8.786 14.517,11.332 14.517,11.332 -24.254,4.584 -38.021,24.019 -37.327,26.98 -11.16,-9.796 -2.716,-49.428 3.608,-52.345 -1.018,-7.95 -5.424,-29.46 -3.526,-31.086 1.154,-0.989 -1.968,-9.384 -3.461,-16.566 -0.911,0.272 -1.824,0.536 -2.74,0.79 0.542,2.549 1.277,5.242 2.009,7.909 0.63,2.297 1.468,5.356 1.594,6.619 -1.323,2.308 -0.812,7.48 1.93,23.913 0.444,2.658 0.868,5.203 1.163,7.201 -5.234,5.338 -7.679,21.209 -7.966,23.186 -1.071,7.378 -2.677,25.316 5.519,32.51 l 6.647,5.835 -1.933,-8.252 c 0.59,-2.017 5.796,-9.707 15.445,-16.01 5.227,-3.414 11.753,-6.423 19.564,-7.899 l 0.04,-1.903 c 7.574,2.915 15.652,4.145 23.97,3.604 12.16,-0.791 21.281,-5.109 23.891,-6.683 3.88,0.612 20.739,13.049 27.045,29.446 l 0.967,2.514 2.56,-0.837 C 38.513,74.332 43.659,68.16 45.888,58.577 49.615,42.553 44.107,20.036 38.469,5.996 c 3.352,-0.101 14.117,5.291 21.402,8.938 17.303,8.66 29.159,14.126 36.012,11.334 3.632,-1.478 6.851,-3.739 10.26,-6.131 8.064,-5.66 17.204,-12.075 35.397,-10.098 7.452,0.81 16.786,5.028 27.593,9.914 21.05,9.514 48.155,21.759 82.052,18.869 9.663,-0.824 19.876,-2.872 30.66,-6.571 0.019,-0.006 0.036,-0.013 0.055,-0.02 7.42,-2.55 13.882,-5.877 19.513,-9.743 13.314,9.048 26.131,25.318 28.994,42.262 0.136,0.811 0.235,1.613 0.324,2.413 -0.034,-2.039 -0.216,-4.109 -0.571,-6.215 -2.664,-15.764 -13.943,-30.942 -26.223,-40.266 9.869,-7.385 16.989,-16.469 22.137,-25.805 4.613,-8.369 7.643,-16.939 9.621,-24.672 6.696,-26.188 4.099,-54.04 0.058,-61.143 -0.115,-17.451 11.44,-30.577 21.058,-41.188 0.217,-0.239 0.435,-0.479 0.648,-0.716 5.878,-6.478 10.954,-12.072 12.762,-17.731 4.178,-13.072 -0.094,-73.623 -12.315,-94.481 m -446.292,209.97 c -0.505,0.333 -0.856,0.857 -1.093,1.52 -0.349,0 -0.699,0.003 -1.048,10e-4 -0.625,-0.005 -1.249,-0.018 -1.874,-0.027 0.371,-1.646 1.127,-2.982 2.452,-3.859 0.432,-0.285 0.985,-0.59 1.616,-0.906 1.229,0.489 2.465,0.96 3.705,1.416 -1.661,0.71 -2.973,1.335 -3.758,1.855 m -1.412,3.046 c -0.16,1.583 0.043,3.584 0.44,5.756 -0.905,0.312 -1.811,0.615 -2.721,0.91 -0.476,-2.491 -0.72,-4.81 -0.542,-6.792 0.686,0.034 1.372,0.072 2.058,0.101 0.255,0.009 0.51,0.016 0.765,0.025 m 309.564,165.774 c 25.306,21.214 74.478,25.147 112.965,-4.989 21.803,-17.071 32.916,-39.405 31.965,-63.693 2.324,25.755 -8.783,49.536 -31.718,67.495 -38.487,30.137 -87.66,26.203 -112.964,4.99 -11.335,-9.503 -17.347,-21.717 -17.606,-34.53 1.259,11.413 7.15,22.169 17.358,30.727 m 71.693,-61.993 v 0 c -0.008,0 0.123,0.321 0.162,1.09 0.475,9.377 8.491,16.59 17.838,16.119 9.377,-0.475 16.594,-8.461 16.12,-17.838 -0.049,-0.963 -0.135,-1.908 -0.248,-2.842 -0.047,8.954 -7.065,16.418 -16.119,16.877 -9.378,0.472 -17.363,-6.743 -17.838,-16.119 -0.04,-0.768 -0.17,-1.09 -0.161,-1.09 -0.491,-0.541 -4.244,-2.479 -12.711,-1.481 -14.286,1.686 -32.783,10.976 -40.493,25.471 -1.376,2.586 -2.406,5.5 -1.5,8.72 0.249,-1.749 0.937,-3.392 1.748,-4.918 7.71,-14.494 26.207,-23.784 40.492,-25.47 8.462,-0.998 12.221,0.939 12.71,1.481"
             style="fill:#ffffff;fill-opacity:1;fill-rule:nonzero;stroke:none"
             id="path8626" />
        </g>
        <g
           id="g8628"
           transform="translate(189.3286,204.7031)">
          <path
             d="m 0,0 c 0,0 -18.25,7.868 -29.031,32.119 -0.26,-3.991 1.829,-77.114 -11.365,-89.951 -8.2,-2.808 -21.795,-1.505 -22.444,-11.484 -0.058,-0.888 -0.104,-1.678 -0.141,-2.388 0.471,1.35 1.213,2.603 2.216,3.6 1.501,1.523 3.414,2.486 5.368,3.086 1.962,0.605 4.005,0.861 6.028,0.838 -2.017,-0.143 -4.01,-0.566 -5.863,-1.309 -1.845,-0.737 -3.566,-1.812 -4.793,-3.288 -1.243,-1.467 -1.88,-3.316 -1.971,-5.197 -0.101,-1.187 0.079,-2.38 0.357,-3.558 1.581,-0.156 4.785,-0.459 8.683,-0.761 -0.104,0.386 -0.205,0.773 -0.281,1.168 -0.136,0.92 -0.326,1.819 -0.295,2.769 -0.047,1.847 0.365,3.842 1.563,5.348 1.176,1.515 2.899,2.394 4.617,2.863 1.735,0.481 3.523,0.566 5.28,0.53 -1.753,-0.129 -3.51,-0.385 -5.127,-1.007 -1.608,-0.605 -3.085,-1.583 -3.953,-2.963 -0.89,-1.371 -1.076,-3.06 -0.882,-4.687 0.043,-0.821 0.303,-1.633 0.498,-2.441 0.17,-0.584 0.395,-1.158 0.615,-1.732 10.132,-0.734 23.439,-1.295 25.589,0.591 3.543,3.111 21.162,78.793 41.54,78.803 C 11.304,2.605 4.57,12.061 -2.177,16.176 -5.849,18.414 -2.599,9.689 0,0 m -63.685,96.965 c -0.085,0.632 -2.33,5.914 -2.711,5.813 -0.066,-0.998 -0.511,-5.257 -0.511,-5.257 l -6.383,0.069 -2.029,5.392 -1.147,-5.185 5.924,-2.892 c 0,0 6.941,1.427 6.857,2.06 m -35.12,51.263 c 3.391,0.783 14.671,5.517 17.578,3.992 -3.424,6.241 -6.594,17.637 -16.45,17.091 l 1.614,-0.104 c -0.535,0.11 -1.114,-0.694 -1.643,-2.029 -0.067,0.008 -0.13,0.028 -0.198,0.033 -1.516,0.099 -2.825,-1.05 -2.923,-2.566 -0.08,-1.235 0.674,-2.32 1.773,-2.739 -0.461,-2.823 -0.643,-5.95 -0.292,-8.382 0.087,-0.362 -4.09,7.046 -2.696,14.872 -1.018,-0.353 -2.087,-0.798 -3.224,-1.375 -16.062,-8.141 3.069,-19.574 6.461,-18.793 m 13.256,-11.885 c -2.003,-2.542 2.98,-5.538 2.98,-5.538 0,0 -2.799,3.187 -0.97,3.068 1.83,-0.119 5.779,-8.727 8.835,-8.926 -0.86,1.225 5.533,8.993 7.656,8.242 2.122,-0.75 1.728,-1.669 1.609,-3.5 0,0 4.396,3.389 2.342,5.192 -2.053,1.805 -15.991,3.213 -22.452,1.462 m 28.567,15.51 c 6.729,0.732 13.548,-7.395 18.708,-8.231 5.159,-0.837 18.76,3.957 19.545,5.742 0.751,1.713 -1.972,13.773 -13.071,17.235 -0.842,-0.453 -1.542,-1.182 -2.123,-2.099 -1.3,-0.143 -2.35,-1.196 -2.439,-2.547 -0.048,-0.746 0.208,-1.44 0.659,-1.968 -1.015,-4.132 -1.081,-8.847 -1.102,-10.564 -3.597,4.597 -2.906,15.495 -2.716,17.781 -7.962,-1.519 -12.1,-10.007 -17.461,-15.349 M 317.713,-88.318 c -7.934,-1.618 -17.247,-2.581 -24.838,-1.769 -0.163,0.694 -0.295,1.391 -0.338,2.099 -0.181,1.945 0.049,3.954 0.951,5.71 0.885,1.76 2.384,3.202 4.135,4.22 1.755,1.022 3.752,1.695 5.817,1.859 -2.074,0.002 -4.151,-0.508 -6.051,-1.417 -1.894,-0.906 -3.634,-2.303 -4.773,-4.173 -1.158,-1.863 -1.606,-4.104 -1.578,-6.265 -0.01,-0.61 0.034,-1.212 0.105,-1.808 -3.056,0.458 -5.763,1.244 -7.902,2.436 -0.152,0.66 -0.275,1.324 -0.315,1.996 -0.18,1.947 0.05,3.954 0.952,5.71 0.884,1.76 2.383,3.202 4.135,4.221 1.756,1.022 3.751,1.694 5.817,1.858 -2.075,0.002 -4.151,-0.507 -6.051,-1.417 -1.895,-0.906 -3.634,-2.302 -4.774,-4.172 -1.157,-1.864 -1.604,-4.103 -1.578,-6.265 -0.004,-0.246 0.025,-0.486 0.035,-0.731 -2.075,1.696 -3.285,3.977 -3.243,6.992 0.14,9.844 17.303,9.229 19.299,9.099 1.996,-0.13 15.061,10.711 7.737,37.911 -7.322,27.2 -27.654,28.189 -47.611,29.488 -7.003,0.456 -17.157,7.142 -27.018,15.369 -7.915,6.601 -15.635,14.191 -21.388,20.351 -0.685,0.735 -1.342,1.448 -1.968,2.136 -13.635,-18.112 18.803,-50.184 9.225,-54.22 -10.304,-4.339 -39.328,-56.177 -55.879,-64.12 -8.485,-4.811 -27.106,-3.377 -37.093,-2.161 -0.005,0.061 -0.02,0.119 -0.022,0.179 -0.181,1.946 0.049,3.954 0.951,5.71 0.884,1.76 2.383,3.202 4.135,4.221 1.756,1.021 3.751,1.694 5.817,1.859 -2.074,0.001 -4.151,-0.509 -6.051,-1.418 -1.895,-0.905 -3.634,-2.303 -4.773,-4.173 -1.144,-1.841 -1.592,-4.05 -1.578,-6.186 -1.823,0.237 -3.257,0.452 -4.136,0.589 -0.547,0.086 -0.987,0.267 -1.338,0.521 -0.15,0.653 -0.271,1.311 -0.311,1.977 -0.18,1.946 0.05,3.954 0.952,5.709 0.884,1.76 2.383,3.203 4.135,4.221 1.756,1.022 3.752,1.695 5.817,1.859 -2.075,0.002 -4.151,-0.508 -6.051,-1.417 -1.414,-0.676 -2.739,-1.626 -3.796,-2.842 1.003,2.317 2.253,4.664 3.344,6.595 3.451,6.112 11.215,-4.738 22.952,-1.493 11.735,3.244 30.299,42.121 30.08,54.161 -0.168,9.259 -15.662,19.766 -28.55,33.995 -6.228,3.103 -12.709,7.245 -18.846,11.833 -3.724,-4.249 -10.631,-10.987 -10.631,-10.987 0,0 -1.681,-9.16 13.344,-4.125 0,0 -16.884,-14.349 -18.677,-16.237 -1.793,-1.889 1.848,-33.19 0.086,-39.757 -1.764,-6.565 -9.3,-50.503 -13.457,-57.915 -1.586,-1.87 -18.872,-0.748 -29.736,0.73 -0.045,1.666 0.233,3.343 1.001,4.838 0.884,1.76 2.383,3.203 4.135,4.221 1.756,1.022 3.751,1.693 5.817,1.859 -2.075,0.002 -4.151,-0.508 -6.052,-1.417 -1.894,-0.907 -3.632,-2.303 -4.772,-4.173 -0.956,-1.538 -1.422,-3.333 -1.542,-5.129 -3.604,0.529 -6.293,1.087 -7.104,1.56 -0.317,0.186 -0.625,0.327 -0.919,0.442 -0.032,1.631 0.25,3.27 1.001,4.733 0.883,1.76 2.383,3.202 4.135,4.221 1.756,1.021 3.751,1.693 5.817,1.858 -2.075,0.002 -4.153,-0.508 -6.051,-1.417 -1.895,-0.906 -3.634,-2.303 -4.774,-4.173 -0.895,-1.441 -1.362,-3.107 -1.517,-4.789 -1.762,0.516 -2.475,1.117 -0.77,8.571 2.334,10.204 11.981,3.91 25.056,8.487 14.12,55.283 -66.046,131.3 -66.046,131.3 0,0 25.358,-32.522 30.859,-41.647 -16.329,5.739 -8.186,-10.325 1.419,-26.983 0,0 -40.888,28.716 -45.556,35.7 -4.667,6.984 -13.31,4.206 -9.852,-9.38 -10.181,2.666 -26.79,45.168 -28.559,48.624 -1.769,3.455 -8.442,3.89 -10.466,-6.668 -4.912,1.433 -7.556,29.57 -8.304,38.954 -0.66,-0.36 -1.398,-0.601 -2.233,-0.688 -6.305,-0.663 -17.794,-0.068 -22.8,3.821 -2.004,1.557 -4.453,12.601 -4.912,14.35 -0.852,3.244 -8.795,6.951 -16.819,10.215 -1.035,-0.591 -2.064,-1.2 -3.088,-1.819 -0.606,-0.367 -1.211,-0.738 -1.811,-1.115 -0.678,-0.424 -1.352,-0.852 -2.021,-1.285 -2.907,-1.895 -5.751,-3.893 -8.455,-6.065 -2.691,-2.177 -5.299,-4.501 -7.449,-7.213 -1.065,-1.357 -2.028,-2.816 -2.637,-4.431 -0.61,-1.599 -0.799,-3.428 -0.143,-5.069 -0.736,1.605 -0.642,3.487 -0.094,5.15 0.545,1.682 1.457,3.218 2.474,4.65 2.057,2.867 4.587,5.343 7.204,7.677 2.631,2.33 5.407,4.484 8.252,6.539 0.873,0.625 1.762,1.225 2.645,1.832 l 0.128,0.088 c 0.946,0.648 1.904,1.289 2.868,1.914 -2.998,1.193 -5.917,2.314 -8.392,3.312 -1.374,-0.431 -2.74,-0.884 -4.099,-1.357 -0.566,-0.197 -1.135,-0.387 -1.698,-0.593 -4.618,-1.684 -9.142,-3.641 -13.477,-5.963 -4.32,-2.335 -8.486,-5.018 -12.145,-8.311 -3.682,-3.249 -6.799,-7.221 -8.687,-11.806 1.729,4.646 4.738,8.766 8.347,12.171 3.586,3.454 7.707,6.309 11.997,8.819 4.305,2.496 8.813,4.63 13.427,6.492 0.091,0.035 0.183,0.068 0.273,0.104 1.229,0.49 2.465,0.962 3.705,1.417 -1.661,0.711 -2.973,1.336 -3.758,1.856 -0.505,0.333 -0.856,0.857 -1.093,1.519 -0.349,-0.001 -0.699,0.004 -1.048,0.002 -0.625,-0.006 -1.249,-0.018 -1.874,-0.027 -4.221,-0.062 -8.441,-0.223 -12.647,-0.567 -4.824,-0.406 -9.649,-1 -14.343,-2.179 -2.336,-0.61 -4.654,-1.358 -6.778,-2.51 -1.052,-0.584 -2.069,-1.265 -2.885,-2.154 -0.832,-0.871 -1.426,-1.984 -1.594,-3.194 0.125,1.215 0.686,2.364 1.501,3.277 0.799,0.932 1.807,1.659 2.854,2.288 2.113,1.242 4.433,2.078 6.77,2.775 4.698,1.353 9.536,2.116 14.375,2.693 4.164,0.483 8.343,0.791 12.527,0.998 0.686,0.032 1.372,0.071 2.058,0.1 0.255,0.008 0.51,0.016 0.765,0.025 -0.16,1.583 0.043,3.585 0.44,5.756 -0.905,0.311 -1.811,0.615 -2.721,0.91 -1.215,0.395 -2.435,0.778 -3.661,1.139 -3.858,1.137 -7.771,2.12 -11.748,2.738 -3.958,0.583 -8.06,0.958 -11.999,-0.041 3.9,1.163 8.056,0.96 12.065,0.536 4.032,-0.455 8.014,-1.284 11.945,-2.268 1.214,-0.303 2.421,-0.629 3.625,-0.965 0.916,-0.255 1.829,-0.516 2.74,-0.789 1.493,7.181 4.615,15.576 3.461,16.566 -1.898,1.627 2.508,23.135 3.526,31.087 -6.324,2.917 -14.768,42.547 -3.608,52.343 -0.694,-2.961 13.073,-22.396 37.327,-26.98 0,0 -10.939,-2.546 -14.517,-11.332 28.084,23.476 58.689,8.708 61.802,6.502 3.114,-2.207 23.596,12.243 30.833,31.062 28.701,-9.383 7.38,-71.38 0.158,-78.426 -6.153,-6 5.227,-16.231 7.232,-23.215 -0.371,0.022 -0.741,0.049 -1.112,0.069 -5.917,0.33 -11.848,0.303 -17.769,0.138 -5.923,-0.183 -11.84,-0.521 -17.748,-1.015 -2.954,-0.246 -5.906,-0.528 -8.856,-0.871 -0.901,-0.105 -1.802,-0.231 -2.703,-0.351 -0.987,1.021 -2.004,2.013 -3.066,2.954 -1.19,1.049 -2.431,2.045 -3.765,2.907 -1.33,0.832 -2.774,1.642 -4.373,1.736 1.593,-0.137 3.003,-0.979 4.305,-1.842 1.303,-0.888 2.51,-1.912 3.665,-2.986 0.967,-0.904 1.892,-1.854 2.791,-2.825 -0.427,-0.058 -0.853,-0.105 -1.28,-0.166 -1.491,-0.236 -2.922,-0.429 -4.508,-0.87 l 0.632,-1.899 c 1.252,0.389 2.752,0.657 4.175,0.918 0.808,0.14 1.624,0.258 2.437,0.385 0.719,-0.834 1.424,-1.68 2.102,-2.545 0.105,-0.135 0.203,-0.274 0.307,-0.41 -2.892,-0.055 -5.786,-0.17 -8.693,-0.379 l 0.198,-1.99 c 3.219,0.337 6.473,0.556 9.732,0.703 0.413,-0.58 0.818,-1.165 1.204,-1.76 0.433,-0.678 0.859,-1.367 1.243,-2.069 -4.335,0.481 -8.674,0.786 -13.072,0.856 l 0.03,-2 c 4.575,0.086 9.212,-0.091 13.808,-0.471 0.058,-0.14 0.125,-0.279 0.177,-0.422 0.12,-0.353 0.223,-0.72 0.235,-1.04 0.007,-0.16 -0.023,-0.296 -0.063,-0.362 -0.038,-0.059 -0.074,-0.08 -0.191,-0.103 -0.217,-0.016 -0.692,0.066 -1.083,0.105 -0.405,0.062 -0.807,0.053 -1.212,0.084 -1.615,0.053 -3.217,-0.065 -4.805,-0.246 -1.045,-0.121 -2.082,-0.283 -3.116,-0.461 -2.01,0.617 -4.038,1.193 -6.093,1.717 l -0.433,-1.953 c 0.831,-0.178 1.661,-0.374 2.492,-0.571 -0.747,-0.17 -1.493,-0.351 -2.236,-0.538 -1.545,-0.383 -3.074,-0.827 -4.601,-1.28 -1.508,-0.44 -3.073,-1.027 -4.485,-1.371 -1.457,-0.31 -2.949,-0.373 -4.4,-0.119 -0.233,0.039 -0.46,0.101 -0.69,0.158 l -4.503,2.114 c -1.991,1.378 -3.723,3.155 -5.513,4.983 0.249,0.864 0.4,1.759 0.446,2.655 l -1.999,0.067 c -0.028,-2.069 -0.699,-4.133 -1.994,-5.754 -0.174,-0.216 -0.36,-0.425 -0.554,-0.625 l -2.574,-1.606 c -0.145,-0.028 -0.285,-0.047 -0.403,-0.037 -0.323,0.06 -0.347,0.06 -0.439,0.414 -0.164,0.939 -0.676,1.396 -1.103,1.852 -0.451,0.435 -0.925,0.798 -1.407,1.138 -0.965,0.678 -1.961,1.26 -2.967,1.817 -2.013,1.105 -4.068,2.093 -6.119,3.076 l -3.064,1.477 c -0.506,0.251 -1.009,0.507 -1.499,0.775 -0.491,0.273 -0.972,0.537 -1.313,0.887 -0.707,0.73 -1.013,1.822 -0.963,2.892 0.047,1.078 0.39,2.15 0.892,3.137 1.017,1.986 2.599,3.66 4.327,5.106 1.743,1.444 3.665,2.669 5.657,3.76 -2.029,-1.02 -4,-2.177 -5.811,-3.567 -1.796,-1.399 -3.469,-3.035 -4.607,-5.069 -0.562,-1.012 -0.976,-2.138 -1.071,-3.333 -0.097,-1.18 0.184,-2.476 1.038,-3.429 0.443,-0.482 0.969,-0.781 1.454,-1.079 0.497,-0.294 0.998,-0.571 1.5,-0.843 l 3.02,-1.595 c 2.011,-1.054 4.017,-2.108 5.947,-3.262 0.962,-0.578 1.908,-1.179 2.78,-1.84 0.434,-0.331 0.851,-0.678 1.204,-1.046 0.348,-0.35 0.64,-0.801 0.638,-1.007 0.037,-0.384 0.176,-0.858 0.527,-1.218 0.346,-0.365 0.819,-0.53 1.216,-0.575 l 3.079,-6.544 1.133,6.816 8.741,-0.628 c 0.253,-0.139 0.516,-0.265 0.778,-0.393 l 3.636,-7.602 2.085,6.209 c 1.097,-0.002 2.19,0.123 3.245,0.379 1.651,0.455 3.035,1.035 4.551,1.521 1.495,0.485 2.994,0.963 4.508,1.381 1.461,0.411 2.931,0.789 4.409,1.125 2.622,-0.675 5.235,-1.425 7.813,-2.253 3.536,-1.136 7.023,-2.427 10.428,-3.91 -6.314,-2.392 -11.815,-3.71 -14.641,-2.902 -5.194,1.481 -6.8,-3.744 -8.862,-8.677 2.566,1.629 5.989,3.386 10.044,4.465 3.45,0.92 9.831,2.864 16.94,5.516 3.463,-1.709 6.82,-3.662 9.792,-6.129 1.696,-1.411 3.272,-2.99 4.522,-4.82 1.248,-1.82 2.135,-3.924 2.362,-6.149 -0.143,2.23 -0.956,4.395 -2.153,6.286 -1.197,1.901 -2.737,3.565 -4.404,5.061 -2.719,2.432 -5.788,4.421 -8.971,6.184 4.495,1.707 9.224,3.682 13.657,5.852 1.193,-0.514 2.364,-1.079 3.498,-1.719 2.089,-1.18 4.066,-2.598 5.694,-4.374 1.629,-1.767 2.86,-3.931 3.415,-6.297 -0.473,2.384 -1.637,4.613 -3.227,6.462 -1.589,1.858 -3.548,3.369 -5.628,4.641 -0.985,0.598 -1.998,1.142 -3.03,1.646 3.934,1.959 7.601,4.068 10.621,6.273 1.289,-0.488 2.555,-1.032 3.781,-1.662 2.276,-1.174 4.429,-2.65 6.166,-4.564 -1.674,1.969 -3.792,3.527 -6.048,4.783 -1.146,0.637 -2.329,1.202 -3.538,1.713 1.988,1.483 3.688,3.006 4.96,4.555 1.663,2.024 2.329,4.4 2.167,7.035 1.421,-0.095 2.84,-0.219 4.253,-0.39 2.922,-0.371 5.862,-0.882 8.588,-2.044 -2.693,1.238 -5.635,1.837 -8.555,2.291 -1.434,0.215 -2.876,0.383 -4.32,0.52 -0.485,5.336 -4.324,11.713 -10.469,18.478 0,0 4.758,7.561 7.6,11.885 5.642,-5.712 45.455,25.729 57.169,20.957 11.716,-4.77 20.12,-19.346 47.033,-16.422 26.913,2.926 71.769,45.435 139.078,22.35 C 317.362,168.08 307.816,77.842 302.06,71.535 301.25,41.524 332.069,24.487 336.648,10.16 341.227,-4.168 334.47,-84.899 317.713,-88.318 M -33.81,117.666 c -0.572,-0.039 -0.883,0.053 -1.278,0.07 -0.38,0.049 -0.771,0.031 -1.156,0.049 -1.549,0.01 -3.109,-0.145 -4.657,-0.363 -0.348,-0.049 -0.694,-0.114 -1.041,-0.172 1.525,-0.498 3.046,-1.011 4.558,-1.559 3.85,-1.398 7.636,-2.978 11.311,-4.794 4.068,1.611 8.403,3.619 12.544,5.771 -1.865,0.595 -3.761,1.099 -5.662,1.541 -4.627,1.041 -9.333,1.703 -14.059,2.121 0.015,-0.033 0.032,-0.064 0.045,-0.098 0.142,-0.392 0.277,-0.791 0.31,-1.26 0.011,-0.235 0,-0.507 -0.148,-0.789 -0.148,-0.295 -0.495,-0.482 -0.767,-0.517 m 31.434,5.48 c -2.078,0.565 -4.189,1.001 -6.309,1.369 -2.526,0.44 -5.076,0.751 -7.63,0.979 -5.11,0.471 -10.249,0.59 -15.378,0.527 -1.642,-0.027 -3.285,-0.082 -4.928,-0.148 0.354,-0.477 0.708,-0.955 1.045,-1.445 0.549,-0.813 1.081,-1.639 1.557,-2.506 0.233,-0.027 0.466,-0.049 0.698,-0.076 4.837,-0.59 9.648,-1.432 14.368,-2.664 2.146,-0.579 4.283,-1.236 6.373,-2.014 3.71,1.963 7.227,4.018 10.204,5.978 m -72.974,-4.095 c -0.014,0.013 -0.029,0.027 -0.044,0.042 -0.003,-0.007 -0.006,-0.011 -0.009,-0.017 z m 81.639,11.816 c 0.314,0.852 0.301,1.807 0.065,2.84 -0.419,0.016 -0.838,0.032 -1.258,0.045 -5.902,0.16 -11.81,-0.033 -17.705,-0.363 -5.894,-0.348 -11.78,-0.852 -17.645,-1.508 -2.933,-0.328 -5.86,-0.692 -8.775,-1.114 -0.478,-0.07 -0.951,-0.154 -1.428,-0.226 0.682,-0.758 1.354,-1.524 2.003,-2.311 0.193,-0.234 0.376,-0.478 0.566,-0.714 2.065,0.031 4.129,0.037 6.197,0.005 5.172,-0.103 10.346,-0.392 15.482,-1.034 2.568,-0.313 5.127,-0.71 7.662,-1.237 2.273,-0.467 4.532,-1.018 6.746,-1.719 4.347,2.913 7.443,5.579 8.09,7.336 m 170.83,106.692 c -4.751,8.929 -6.563,18.186 -5.584,27.045 1.259,11.414 7.15,22.169 17.358,30.728 25.306,21.213 74.478,25.146 112.965,-4.99 21.803,-17.071 32.916,-39.405 31.965,-63.693 -0.126,-3.225 -0.456,-6.482 -1.012,-9.77 -4.218,-24.965 -19.882,-46.455 -37.61,-60.406 -5.148,9.336 -12.268,18.42 -22.137,25.804 12.28,9.325 23.559,24.502 26.223,40.266 0.355,2.106 0.537,4.177 0.571,6.215 0.225,13.074 -6.124,24.763 -18.961,34.814 -27.146,21.257 -57.915,15.97 -70.16,5.704 -2.965,-2.484 -4.482,-4.829 -5.101,-7.029 -0.906,-3.222 0.124,-6.136 1.5,-8.722 7.71,-14.495 26.207,-23.784 40.493,-25.469 8.467,-0.999 12.22,0.939 12.711,1.481 -0.009,0 0.122,0.32 0.161,1.088 0.475,9.376 8.461,16.591 17.838,16.12 9.054,-0.458 16.072,-7.924 16.119,-16.876 0.003,-0.322 0.017,-0.639 0,-0.963 -0.871,-17.205 -12.026,-29.846 -29.84,-33.815 -3.87,-0.862 -8.048,-1.285 -12.41,-1.285 -0.391,0 -0.788,0.014 -1.181,0.022 -0.019,0.005 -0.036,0.012 -0.055,0.019 -10.784,3.698 -20.997,5.747 -30.66,6.57 -17.496,7.099 -33.939,19.746 -43.193,37.142"
             style="fill:#110f0d;fill-opacity:1;fill-rule:nonzero;stroke:none"
             id="path8630" />
        </g>
        <g
           id="g8632"
           transform="translate(273.8701,511.0835)">
          <path
             d="M 0,0 0.048,-0.023 Z"
             style="fill:#110f0d;fill-opacity:1;fill-rule:nonzero;stroke:none"
             id="path8634" />
        </g>
      </g>
    </g>
  </g>
</svg>
